<svg width="56" height="56" viewBox="0 0 56 56" fill="none" xmlns="http://www.w3.org/2000/svg">
<circle cx="28" cy="28" r="28" fill="#FCF2FF"/>
<path d="M27.9999 17.5C28.168 17.5 28.305 17.5558 28.3916 17.6262C28.4773 17.6958 28.4999 17.7645 28.4999 17.8123V18.5H27.4999V17.8123C27.4999 17.7645 27.5226 17.6958 27.6083 17.6262C27.6949 17.5558 27.8318 17.5 27.9999 17.5Z" fill="#C87ADB" stroke="#C87ADB"/>
<path d="M20.656 22.3195L19.7339 21H35.4963L36.8959 23L35.4963 25H19.736L20.6553 23.6876L20.6553 23.6876L20.657 23.6852C20.9432 23.2741 20.9432 22.732 20.657 22.321L20.656 22.3195ZM37.082 23.2659C37.0812 23.2648 37.0804 23.2637 37.0797 23.2626L37.082 23.2659Z" stroke="#C87ADB" stroke-width="2"/>
<path d="M34.7644 32.7982L35.9115 34H27.9999V30H35.9127L34.7665 31.1935L34.7665 31.1935L34.7631 31.197C34.5818 31.3876 34.4394 31.6643 34.4394 31.9969C34.4394 32.3295 34.5818 32.6062 34.7631 32.7968L34.7644 32.7982Z" stroke="#C87ADB" stroke-width="2"/>
<path d="M21.3296 30H27.9999V34H21.3296C21.2521 34 21.1892 33.9868 21.1475 33.9717C21.1318 33.9661 21.1219 33.9612 21.1166 33.9583L19.2285 32L21.1166 30.0417C21.1219 30.0388 21.1318 30.0339 21.1475 30.0283C21.1892 30.0132 21.2521 30 21.3296 30ZM18.856 32.3864L18.858 32.3844L18.856 32.3864Z" stroke="#C87ADB" stroke-width="2"/>
<path d="M30.7969 37.1538H28.9999V27H26.9999V37.1538H25.203C24.5373 37.1538 23.9999 37.4782 23.9999 37.8799V39H31.9999V37.8799C31.9999 37.4782 31.4625 37.1538 30.7969 37.1538Z" fill="#C87ADB"/>
</svg>
