<svg width="56" height="56" viewBox="0 0 56 56" fill="none" xmlns="http://www.w3.org/2000/svg">
<circle cx="28" cy="28" r="28" fill="#FCF2FF"/>
<path d="M22.0909 37C21.5537 37 21.0217 36.8952 20.5254 36.6917C20.0291 36.4882 19.5781 36.1899 19.1982 35.8138C18.8183 35.4377 18.517 34.9912 18.3114 34.4999C18.1058 34.0085 18 33.4819 18 32.95C18 32.4181 18.1058 31.8915 18.3114 31.4001C18.517 30.9088 18.8183 30.4623 19.1982 30.0862C19.5781 29.7101 20.0291 29.4118 20.5254 29.2083C21.0217 29.0048 21.5537 28.9 22.0909 28.9C23.1759 28.9 24.2164 29.3267 24.9836 30.0862C25.7508 30.8457 26.1818 31.8759 26.1818 32.95C26.1818 34.0241 25.7508 35.0543 24.9836 35.8138C24.2164 36.5733 23.1759 37 22.0909 37ZM22.0909 35.2C22.6937 35.2 23.2718 34.9629 23.698 34.541C24.1242 34.119 24.3636 33.5467 24.3636 32.95C24.3636 32.3533 24.1242 31.781 23.698 31.359C23.2718 30.9371 22.6937 30.7 22.0909 30.7C21.4881 30.7 20.9101 30.9371 20.4838 31.359C20.0576 31.781 19.8182 32.3533 19.8182 32.95C19.8182 33.5467 20.0576 34.119 20.4838 34.541C20.9101 34.9629 21.4881 35.2 22.0909 35.2ZM33.9091 37C33.3719 37 32.8399 36.8952 32.3436 36.6917C31.8472 36.4882 31.3963 36.1899 31.0164 35.8138C30.6365 35.4377 30.3352 34.9912 30.1296 34.4999C29.924 34.0085 29.8182 33.4819 29.8182 32.95C29.8182 32.4181 29.924 31.8915 30.1296 31.4001C30.3352 30.9088 30.6365 30.4623 31.0164 30.0862C31.3963 29.7101 31.8472 29.4118 32.3436 29.2083C32.8399 29.0048 33.3719 28.9 33.9091 28.9C34.9941 28.9 36.0346 29.3267 36.8018 30.0862C37.569 30.8457 38 31.8759 38 32.95C38 34.0241 37.569 35.0543 36.8018 35.8138C36.0346 36.5733 34.9941 37 33.9091 37ZM33.9091 35.2C34.5119 35.2 35.0899 34.9629 35.5162 34.541C35.9424 34.119 36.1818 33.5467 36.1818 32.95C36.1818 32.3533 35.9424 31.781 35.5162 31.359C35.0899 30.9371 34.5119 30.7 33.9091 30.7C33.3063 30.7 32.7282 30.9371 32.302 31.359C31.8758 31.781 31.6364 32.3533 31.6364 32.95C31.6364 33.5467 31.8758 34.119 32.302 34.541C32.7282 34.9629 33.3063 35.2 33.9091 35.2ZM27.1118 27.3745L28.9091 28.9V34.3H27.0909V29.8L24.6191 27.7606C24.3991 27.611 24.2151 27.4152 24.0802 27.1872C23.9452 26.9593 23.8627 26.7047 23.8383 26.4416C23.8139 26.1784 23.8483 25.9132 23.9391 25.6648C24.0299 25.4163 24.1748 25.1907 24.3636 25.0039L26.9345 22.4587C27.1034 22.2915 27.3039 22.1588 27.5245 22.0683C27.7451 21.9778 27.9816 21.9312 28.2205 21.9312C28.4593 21.9312 28.6958 21.9778 28.9164 22.0683C29.1371 22.1588 29.3375 22.2915 29.5064 22.4587L30.7918 23.7313C31.7546 24.6878 33.0034 25.3112 34.3527 25.5088L34.3436 27.3223C32.5129 27.1136 30.8076 26.2967 29.5064 25.0048L27.1118 27.3745ZM31.6364 22.6C31.1542 22.6 30.6917 22.4104 30.3507 22.0728C30.0097 21.7352 29.8182 21.2774 29.8182 20.8C29.8182 20.3226 30.0097 19.8648 30.3507 19.5272C30.6917 19.1896 31.1542 19 31.6364 19C32.1186 19 32.581 19.1896 32.922 19.5272C33.263 19.8648 33.4545 20.3226 33.4545 20.8C33.4545 21.2774 33.263 21.7352 32.922 22.0728C32.581 22.4104 32.1186 22.6 31.6364 22.6Z" fill="#C87ADB"/>
</svg>
