<svg width="56" height="56" viewBox="0 0 56 56" fill="none" xmlns="http://www.w3.org/2000/svg">
<circle cx="28" cy="28" r="28" fill="#FCF2FF"/>
<path fill-rule="evenodd" clip-rule="evenodd" d="M39.3948 30.5748C39.2812 28.1343 37.3393 26.192 34.954 26.1933C34.4351 26.1936 33.9215 26.2887 33.4366 26.473L32.6852 25.3053L32.468 24.9678L31.6575 23.7082L32.1484 22.529C32.3414 22.1182 32.3187 21.6339 32.0865 21.2434C31.8514 20.8482 31.4308 20.6003 30.9702 20.6001H29.2015C28.7533 20.6001 28.4161 20.9732 28.4161 21.4006C28.4161 21.828 28.7533 22.2012 29.2015 22.2012H30.5781L30.2492 22.9909H28.4577H26.7722H25.407L25.5989 22.5317C25.7387 22.1862 25.7695 21.8921 25.7282 21.6454C25.6057 20.9145 24.8499 20.6001 24.4185 20.6001H22.6504C22.2022 20.6001 21.865 20.9732 21.865 21.4006C21.865 21.828 22.2022 22.2012 22.6504 22.2012H24.0288L23.5021 23.46L22.212 26.3441C20.5732 25.892 18.8175 26.4489 17.7041 27.7943C16.5541 29.1839 16.1623 31.193 17.414 33.1115L17.136 33.6729H16.636V35.2739H25.1239L25.1857 33.9939L24.7188 33.0341C25.41 32.0605 25.5677 30.856 25.334 29.753C25.1084 28.6881 24.5116 27.6836 23.6285 27.0345L24.2384 25.6719L26.9242 31.3465C27.0438 31.6006 27.3067 31.7901 27.6197 31.7998H30.6192C31.0999 34.0378 33.1237 35.6051 35.3845 35.3784C37.7573 35.1405 39.5084 33.0144 39.3948 30.5748ZM23.8461 29.9886C23.9845 30.4591 24.0046 30.935 23.8811 31.3658L23.3853 30.3954L23.3793 30.3851C23.1197 29.9437 22.666 29.6537 22.157 29.617L22.1453 29.6162L21.2885 29.6047L20.1187 29.6047L20.1173 29.6047C19.5652 29.6067 19.0616 29.9078 18.7836 30.3867L18.7798 30.3932L18.3146 31.269C18.1888 30.8827 18.1903 30.4583 18.2973 30.0345C18.4633 29.3765 18.8774 28.7554 19.4015 28.3609C20.1456 27.8008 21.0988 27.6462 21.968 27.9404C22.2445 28.0464 22.3726 28.1016 22.5798 28.2391L22.5841 28.2419C23.1547 28.6102 23.6335 29.2665 23.8461 29.9886ZM23.2391 33.6729L22.0294 31.2058H20.1344L18.9249 33.6729H23.2391ZM30.4883 24.8093L30.4936 24.8185L32.0833 27.2891C31.2398 28.0292 30.6947 29.0678 30.5511 30.1987H28.2346C28.1888 30.1974 28.17 30.1904 28.166 30.1887C28.1639 30.1878 28.1596 30.1861 28.1494 30.1754C28.1356 30.1609 28.1149 30.1341 28.0835 30.0808C28.0561 30.0345 28.0288 29.9825 27.9928 29.9141L27.9759 29.8822L25.471 24.59H30.1743C30.3003 24.5904 30.3398 24.6162 30.3547 24.6271C30.3818 24.6468 30.4187 24.6875 30.4883 24.8093ZM36.994 28.675C36.1744 27.818 34.9461 27.5618 33.878 28.0154C33.6039 28.1395 33.4865 28.2135 33.2789 28.3628C32.5806 28.8867 32.1409 29.7128 32.0881 30.616C32.0793 30.9208 32.0903 31.07 32.1296 31.3362C32.3808 32.7741 33.5786 33.8013 34.9564 33.8036C36.1091 33.8052 37.1609 33.0852 37.6122 31.9604C38.0644 30.8332 37.8173 29.5357 36.994 28.675Z" fill="#C87ADB"/>
</svg>
