<svg width="56" height="56" viewBox="0 0 56 56" fill="none" xmlns="http://www.w3.org/2000/svg">
<circle cx="28" cy="28" r="28" fill="#FCF2FF"/>
<path d="M24.4241 19.5059H23.217L24.0705 20.3595L30.9393 27.2283C31.1333 27.4222 31.1339 27.7408 30.9373 27.9374C30.7408 28.1339 30.4222 28.1333 30.2282 27.9394L23.3594 21.0715L22.5059 20.2181V21.4251V24.0207C22.5059 24.2949 22.281 24.5207 22.003 24.5207C21.7249 24.5207 21.5 24.2949 21.5 24.0207L21.5 18.5L27.0207 18.5C27.2949 18.5 27.5207 18.7249 27.5207 19.003C27.5207 19.281 27.2949 19.5059 27.0207 19.5059H24.4241Z" fill="#C87ADB" stroke="#C87ADB"/>
<path d="M31.5759 36.4942H32.783L31.9294 35.6407L25.0606 28.7718C24.8666 28.5779 24.866 28.2593 25.0626 28.0627C25.2592 27.8662 25.5777 27.8668 25.7717 28.0607L32.6405 34.9286L33.494 35.782V34.575V31.9794C33.494 31.7052 33.7189 31.4794 33.997 31.4794C34.2751 31.4794 34.4999 31.7052 34.4999 31.9794V37.5001H28.9792C28.705 37.5001 28.4792 37.2752 28.4792 36.9972C28.4792 36.7191 28.705 36.4942 28.9792 36.4942H31.5759Z" fill="#C87ADB" stroke="#C87ADB"/>
</svg>
