<svg width="56" height="56" viewBox="0 0 56 56" fill="none" xmlns="http://www.w3.org/2000/svg">
<circle cx="28" cy="28" r="28" fill="#FCF2FF"/>
<path d="M35 36H21V37C21 37.2652 20.8946 37.5196 20.7071 37.7071C20.5196 37.8946 20.2652 38 20 38H19C18.7348 38 18.4804 37.8946 18.2929 37.7071C18.1054 37.5196 18 37.2652 18 37V29.5L16.757 29.19C16.5408 29.1358 16.3488 29.011 16.2117 28.8352C16.0745 28.6595 16 28.4429 16 28.22V27.5C16 27.3674 16.0527 27.2402 16.1464 27.1464C16.2402 27.0527 16.3674 27 16.5 27H18L20.48 21.212C20.6343 20.852 20.891 20.5452 21.2181 20.3298C21.5452 20.1143 21.9283 19.9997 22.32 20H33.68C34.0713 20 34.4541 20.1149 34.7808 20.3303C35.1075 20.5458 35.3638 20.8523 35.518 21.212L38 27H39.5C39.6326 27 39.7598 27.0527 39.8536 27.1464C39.9473 27.2402 40 27.3674 40 27.5V28.22C40 28.4429 39.9255 28.6595 39.7883 28.8352C39.6512 29.011 39.4592 29.1358 39.243 29.19L38 29.5V37C38 37.2652 37.8946 37.5196 37.7071 37.7071C37.5196 37.8946 37.2652 38 37 38H36C35.7348 38 35.4804 37.8946 35.2929 37.7071C35.1054 37.5196 35 37.2652 35 37V36ZM36 34V29H20V34H36ZM21.477 27H34.523C34.6863 26.9999 34.8471 26.9598 34.9914 26.8832C35.1357 26.8066 35.2589 26.6958 35.3505 26.5605C35.442 26.4253 35.4991 26.2697 35.5166 26.1073C35.5341 25.9449 35.5116 25.7807 35.451 25.629L34 22H22L20.549 25.629C20.4884 25.7807 20.4659 25.9449 20.4834 26.1073C20.5009 26.2697 20.558 26.4253 20.6495 26.5605C20.7411 26.6958 20.8643 26.8066 21.0086 26.8832C21.1529 26.9598 21.3137 26.9999 21.477 27ZM21 30C23.317 30 24.879 30.755 25.686 32.264C25.7268 32.3402 25.7471 32.4257 25.7451 32.5121C25.743 32.5985 25.7185 32.6829 25.6741 32.757C25.6297 32.8311 25.5668 32.8925 25.4916 32.9351C25.4164 32.9777 25.3314 33 25.245 33H22C21.7348 33 21.4804 32.8946 21.2929 32.7071C21.1054 32.5196 21 32.2652 21 32V30ZM35 30V32C35 32.2652 34.8946 32.5196 34.7071 32.7071C34.5196 32.8946 34.2652 33 34 33H30.755C30.6687 32.9999 30.5838 32.9774 30.5088 32.9347C30.4337 32.892 30.3709 32.8307 30.3266 32.7566C30.2823 32.6825 30.258 32.5981 30.2559 32.5118C30.2539 32.4255 30.2742 32.3401 30.315 32.264C31.12 30.754 32.682 30 35 30Z" fill="#C87ADB"/>
</svg>
