<svg width="56" height="56" viewBox="0 0 56 56" fill="none" xmlns="http://www.w3.org/2000/svg">
<circle cx="28" cy="28" r="28" fill="#FCF2FF"/>
<path d="M20.886 22.3419C20.9541 22.1377 21.1452 22 21.3604 22H22.3767C22.6966 22 22.9342 22.2962 22.8648 22.6085L20.4203 33.6085C20.3695 33.8372 20.1666 34 19.9322 34H17.6937C17.3524 34 17.1114 33.6657 17.2194 33.3419L20.886 22.3419Z" fill="#C87ADB"/>
<path d="M24.9304 22.4178C24.9705 22.1767 25.1791 22 25.4236 22H26.4811C26.7645 22 26.9913 22.2353 26.9808 22.5185L26.5734 33.5185C26.5634 33.7873 26.3427 34 26.0737 34H23.5902C23.2813 34 23.0462 33.7226 23.097 33.4178L24.9304 22.4178Z" fill="#C87ADB"/>
<path d="M29.0192 22.5185C29.0087 22.2353 29.2355 22 29.5189 22H30.5764C30.8209 22 31.0295 22.1767 31.0696 22.4178L32.903 33.4178C32.9538 33.7226 32.7187 34 32.4098 34H29.9263C29.6573 34 29.4366 33.7873 29.4266 33.5185L29.0192 22.5185Z" fill="#C87ADB"/>
<path d="M33.1352 22.6085C33.0659 22.2962 33.3035 22 33.6233 22L34.6396 22C34.8549 22 35.0459 22.1377 35.114 22.3419L38.7806 33.3419C38.8885 33.6657 38.6476 34 38.3063 34H36.0677C35.8334 34 35.6305 33.8372 35.5796 33.6085L33.1352 22.6085Z" fill="#C87ADB"/>
</svg>
