<svg width="272" height="75" viewBox="0 0 272 75" fill="none" xmlns="http://www.w3.org/2000/svg">
<path fill-rule="evenodd" clip-rule="evenodd" d="M238.054 75L239.484 4L175.78 7.13466L27.5308 9.9863L27.5308 75H238.054ZM149.853 72.4247H163.622H171.847H234.346L235.841 8.0924L171.847 10.71L30.4474 13.2055V72.4247H112.231H121.065H129.09H145.89H138.98H146.765H149.853Z" fill="#C87ADB"/>
<path d="M49 65H32V67H49V65Z" fill="#C87ADB"/>
<path d="M84 15V32H86V15H84Z" fill="#C87ADB"/>
<path d="M175 15V32H177V15H175Z" fill="#C87ADB"/>
<path d="M78 65H61V67H78V65Z" fill="#C87ADB"/>
<path d="M84 53V70H86V53H84Z" fill="#C87ADB"/>
<path d="M175 53V70H177V53H175Z" fill="#C87ADB"/>
<path d="M59 65H51V67H59V65Z" fill="#C87ADB"/>
<path d="M84 39V47H86V39H84Z" fill="#C87ADB"/>
<path d="M175 39V47H177V39H175Z" fill="#C87ADB"/>
<path d="M49 65H32V67H49V65Z" fill="#C87ADB"/>
<path d="M49 56H32V58H49V56Z" fill="#C87ADB"/>
<path d="M49 47H32V49H49V47Z" fill="#C87ADB"/>
<path d="M49 38H32V40H49V38Z" fill="#C87ADB"/>
<path d="M49 29H32V31H49V29Z" fill="#C87ADB"/>
<path d="M49 20H32V22H49V20Z" fill="#C87ADB"/>
<path d="M78 65H61V67H78V65Z" fill="#C87ADB"/>
<path d="M78 56H61V58H78V56Z" fill="#C87ADB"/>
<path d="M78 47H61V49H78V47Z" fill="#C87ADB"/>
<path d="M78 38H61V40H78V38Z" fill="#C87ADB"/>
<path d="M78 29H61V31H78V29Z" fill="#C87ADB"/>
<path d="M78 20H61V22H78V20Z" fill="#C87ADB"/>
<path d="M59 65H51V67H59V65Z" fill="#C87ADB"/>
<path d="M59 56H51V58H59V56Z" fill="#C87ADB"/>
<path d="M59 47H51V49H59V47Z" fill="#C87ADB"/>
<path d="M59 38H51V40H59V38Z" fill="#C87ADB"/>
<path d="M59 29H51V31H59V29Z" fill="#C87ADB"/>
<path d="M59 20H51V22H59V20Z" fill="#C87ADB"/>
<path d="M198.942 65.1481L181.948 65.5922L182 67.5916L198.994 67.1474L198.942 65.1481Z" fill="#C87ADB"/>
<path d="M198.942 56.1513L181.948 56.5954L182 58.5947L198.994 58.1506L198.942 56.1513Z" fill="#C87ADB"/>
<path d="M198.942 47.1542L181.948 47.5983L182 49.5977L198.994 49.1535L198.942 47.1542Z" fill="#C87ADB"/>
<path d="M198.942 38.1574L181.948 38.6015L182 40.6008L198.994 40.1567L198.942 38.1574Z" fill="#C87ADB"/>
<path d="M198.942 29.1603L181.948 29.6044L182 31.6038L198.994 31.1596L198.942 29.1603Z" fill="#C87ADB"/>
<path d="M198.942 20.1635L181.948 20.6076L182 22.6069L198.994 22.1628L198.942 20.1635Z" fill="#C87ADB"/>
<path d="M198.942 12.1662L181.948 12.6103L182 14.6096L198.994 14.1655L198.942 12.1662Z" fill="#C87ADB"/>
<path d="M229.942 64.3905L212.948 64.8347L213 66.834L229.994 66.3898L229.942 64.3905Z" fill="#C87ADB"/>
<path d="M229.942 55.3935L212.948 55.8376L213 57.8369L229.994 57.3928L229.942 55.3935Z" fill="#C87ADB"/>
<path d="M229.942 46.3966L212.948 46.8408L213 48.8401L229.994 48.396L229.942 46.3966Z" fill="#C87ADB"/>
<path d="M229.942 37.3996L212.948 37.8437L213 39.843L229.994 39.3989L229.942 37.3996Z" fill="#C87ADB"/>
<path d="M229.942 28.4027L212.948 28.8469L213 30.8462L229.994 30.4021L229.942 28.4027Z" fill="#C87ADB"/>
<path d="M229.942 19.4059L212.948 19.85L213 21.8494L229.994 21.4052L229.942 19.4059Z" fill="#C87ADB"/>
<path d="M229.942 11.4086L212.948 11.8527L213 13.8521L229.994 13.4079L229.942 11.4086Z" fill="#C87ADB"/>
<path d="M209.945 64.8869L201.948 65.0959L202 67.0952L209.997 66.8862L209.945 64.8869Z" fill="#C87ADB"/>
<path d="M209.945 55.8898L201.948 56.0988L202 58.0981L209.997 57.8891L209.945 55.8898Z" fill="#C87ADB"/>
<path d="M209.945 46.893L201.948 47.102L202 49.1013L209.997 48.8923L209.945 46.893Z" fill="#C87ADB"/>
<path d="M209.945 37.8962L201.948 38.1052L202 40.1045L209.997 39.8955L209.945 37.8962Z" fill="#C87ADB"/>
<path d="M209.945 28.8991L201.948 29.1081L202 31.1074L209.997 30.8984L209.945 28.8991Z" fill="#C87ADB"/>
<path d="M209.945 19.9023L201.948 20.1113L202 22.1106L209.997 21.9016L209.945 19.9023Z" fill="#C87ADB"/>
<path d="M209.945 11.905L201.948 12.114L202 14.1133L209.997 13.9043L209.945 11.905Z" fill="#C87ADB"/>
<path d="M109.952 64.2803L92.9558 64.6516L92.9995 66.6511L109.995 66.2798L109.952 64.2803Z" fill="#C87ADB"/>
<path d="M109.952 55.2825L92.9563 55.6538L93 57.6533L109.996 57.282L109.952 55.2825Z" fill="#C87ADB"/>
<path d="M109.952 46.2847L92.9558 46.656L92.9995 48.6555L109.995 48.2842L109.952 46.2847Z" fill="#C87ADB"/>
<path d="M109.952 37.2869L92.9563 37.6582L93 39.6577L109.996 39.2864L109.952 37.2869Z" fill="#C87ADB"/>
<path d="M109.952 28.2889L92.9563 28.6601L93 30.6597L109.996 30.2884L109.952 28.2889Z" fill="#C87ADB"/>
<path d="M109.952 19.291L92.9563 19.6623L93 21.6619L109.996 21.2906L109.952 19.291Z" fill="#C87ADB"/>
<path d="M138.952 63.647L121.956 64.0183L122 66.0178L138.995 65.6465L138.952 63.647Z" fill="#C87ADB"/>
<path d="M138.952 54.6492L121.956 55.0205L122 57.02L138.996 56.6487L138.952 54.6492Z" fill="#C87ADB"/>
<path d="M138.952 45.6512L121.956 46.0224L122 48.022L138.996 47.6507L138.952 45.6512Z" fill="#C87ADB"/>
<path d="M138.952 36.6534L121.956 37.0246L122 39.0242L138.995 38.6529L138.952 36.6534Z" fill="#C87ADB"/>
<path d="M138.952 27.6555L121.956 28.0268L122 30.0264L138.996 29.6551L138.952 27.6555Z" fill="#C87ADB"/>
<path d="M138.952 18.6577L121.956 19.029L122 21.0286L138.995 20.6573L138.952 18.6577Z" fill="#C87ADB"/>
<path d="M119.954 64.0618L111.956 64.2366L112 66.2361L119.998 66.0614L119.954 64.0618Z" fill="#C87ADB"/>
<path d="M119.954 55.064L111.956 55.2388L112 57.2383L119.998 57.0636L119.954 55.064Z" fill="#C87ADB"/>
<path d="M119.954 46.0662L111.956 46.241L112 48.2405L119.998 48.0658L119.954 46.0662Z" fill="#C87ADB"/>
<path d="M119.954 37.0684L111.956 37.2432L112 39.2427L119.998 39.0679L119.954 37.0684Z" fill="#C87ADB"/>
<path d="M119.954 28.0706L111.956 28.2454L112 30.2449L119.998 30.0701L119.954 28.0706Z" fill="#C87ADB"/>
<path d="M119.954 19.0726L111.956 19.2473L112 21.2468L119.998 21.0721L119.954 19.0726Z" fill="#C87ADB"/>
<path d="M167.952 63.0139L150.956 63.3852L151 65.3848L167.995 65.0135L167.952 63.0139Z" fill="#C87ADB"/>
<path d="M167.952 54.0159L150.956 54.3872L151 56.3867L167.996 56.0154L167.952 54.0159Z" fill="#C87ADB"/>
<path d="M167.952 45.0181L150.956 45.3894L151 47.3889L167.995 47.0176L167.952 45.0181Z" fill="#C87ADB"/>
<path d="M167.952 36.0203L150.956 36.3916L151 38.3911L167.996 38.0198L167.952 36.0203Z" fill="#C87ADB"/>
<path d="M167.952 27.0225L150.956 27.3938L151 29.3933L167.995 29.022L167.952 27.0225Z" fill="#C87ADB"/>
<path d="M167.952 18.0247L150.956 18.396L151 20.3955L167.996 20.0242L167.952 18.0247Z" fill="#C87ADB"/>
<path d="M148.954 63.4288L140.956 63.6035L141 65.603L148.998 65.4283L148.954 63.4288Z" fill="#C87ADB"/>
<path d="M148.954 54.431L140.956 54.6057L141 56.6052L148.998 56.4305L148.954 54.431Z" fill="#C87ADB"/>
<path d="M148.954 45.4332L140.956 45.6079L141 47.6074L148.998 47.4327L148.954 45.4332Z" fill="#C87ADB"/>
<path d="M148.954 36.4354L140.956 36.6101L141 38.6096L148.998 38.4349L148.954 36.4354Z" fill="#C87ADB"/>
<path d="M148.954 27.4373L140.956 27.612L141 29.6116L148.998 29.4368L148.954 27.4373Z" fill="#C87ADB"/>
<path d="M148.954 18.4395L140.956 18.6142L141 20.6138L148.998 20.439L148.954 18.4395Z" fill="#C87ADB"/>
<path d="M24 32.7148V72.1866H28.5V75H0V72.1866H21.7856V32.7148C21.7856 27.8461 18.695 23.8788 14.8771 23.8157V27.9447H5.7642V21L14.8771 21.0011C19.9159 21.0654 24 26.2954 24 32.7148Z" fill="#C87ADB"/>
<rect x="8" y="24" width="5" height="2" fill="white"/>
</svg>
