<svg width="56" height="56" viewBox="0 0 56 56" fill="none" xmlns="http://www.w3.org/2000/svg">
<circle cx="28" cy="28" r="28" fill="#FCF2FF"/>
<path d="M33 37V35C33 33.9391 32.5786 32.9217 31.8284 32.1716C31.0783 31.4214 30.0609 31 29 31H21C19.9391 31 18.9217 31.4214 18.1716 32.1716C17.4214 32.9217 17 33.9391 17 35V37" stroke="#C87ADB" stroke-width="2" stroke-linecap="round" stroke-linejoin="round"/>
<path d="M25 27C27.2091 27 29 25.2091 29 23C29 20.7909 27.2091 19 25 19C22.7909 19 21 20.7909 21 23C21 25.2091 22.7909 27 25 27Z" stroke="#C87ADB" stroke-width="2" stroke-linecap="round" stroke-linejoin="round"/>
<path d="M39 36.9999V34.9999C38.9993 34.1136 38.7044 33.2527 38.1614 32.5522C37.6184 31.8517 36.8581 31.3515 36 31.1299" stroke="#C87ADB" stroke-width="2" stroke-linecap="round" stroke-linejoin="round"/>
<path d="M32 19.1299C32.8604 19.3502 33.623 19.8506 34.1676 20.5522C34.7122 21.2538 35.0078 22.1167 35.0078 23.0049C35.0078 23.8931 34.7122 24.756 34.1676 25.4576C33.623 26.1592 32.8604 26.6596 32 26.8799" stroke="#C87ADB" stroke-width="2" stroke-linecap="round" stroke-linejoin="round"/>
</svg>
