<svg width="56" height="56" viewBox="0 0 56 56" fill="none" xmlns="http://www.w3.org/2000/svg">
<circle cx="28" cy="28" r="28" fill="#FCF2FF"/>
<path d="M21 20.5H20.5V21V35V35.5H21H35H35.5V35V21V20.5H35H21ZM26.5 30V32.5H25.5V23.5H28.5C29.2956 23.5 30.0587 23.8161 30.6213 24.3787C31.1839 24.9413 31.5 25.7044 31.5 26.5C31.5 27.2956 31.1839 28.0587 30.6213 28.6213C30.0587 29.1839 29.2956 29.5 28.5 29.5H27H26.5V30ZM27 24.5H26.5V25V28V28.5H27H28.5C29.0304 28.5 29.5391 28.2893 29.9142 27.9142C30.2893 27.5391 30.5 27.0304 30.5 26.5C30.5 25.9696 30.2893 25.4609 29.9142 25.0858C29.5391 24.7107 29.0304 24.5 28.5 24.5H27ZM20 19.5H36C36.1326 19.5 36.2598 19.5527 36.3536 19.6464C36.4473 19.7402 36.5 19.8674 36.5 20V36C36.5 36.1326 36.4473 36.2598 36.3536 36.3536C36.2598 36.4473 36.1326 36.5 36 36.5H20C19.8674 36.5 19.7402 36.4473 19.6464 36.3536C19.5527 36.2598 19.5 36.1326 19.5 36V20C19.5 19.8674 19.5527 19.7402 19.6464 19.6464C19.7402 19.5527 19.8674 19.5 20 19.5Z" stroke="#C87ADB"/>
</svg>
