<svg width="56" height="56" viewBox="0 0 56 56" fill="none" xmlns="http://www.w3.org/2000/svg">
<circle cx="28" cy="28" r="28" fill="#FCF2FF"/>
<path d="M18 36H38" stroke="#C87ADB" stroke-width="2" stroke-linecap="round"/>
<path d="M24.4667 33H25.3419C25.3778 33 25.411 32.9807 25.4288 32.9495L28.2 28.0909M28.2 28.0909V24M28.2 28.0909L30.9147 32.8505C30.9527 32.9171 30.9046 33 30.8278 33H30.0667M28.2 24H26.3941C26.3568 24 26.3225 24.0208 26.3053 24.054L24.9613 26.646C24.9441 26.6792 24.9099 26.7 24.8725 26.7H24M28.2 24H29.793C29.8331 24 29.8694 24.0241 29.8851 24.0611L31 26.7" stroke="#C87ADB" stroke-width="2" stroke-linecap="round"/>
<circle cx="28.1234" cy="20.5" r="1.5" fill="#C87ADB"/>
</svg>
