<svg width="230" height="67" viewBox="0 0 230 67" fill="none" xmlns="http://www.w3.org/2000/svg">
<path d="M51.7613 18.1126V20.8038C51.0881 21.2194 50.4814 21.6431 49.9395 22.0731V21.8563C49.9395 20.3836 50.618 19.0037 51.7613 18.1126ZM80.7525 3.23693V6.52302C77.6659 6.9931 74.7301 7.52562 71.9477 8.12236V5.27602L80.7525 3.23693ZM160.359 3.23693L169.164 5.27602V8.12504C168.322 7.93594 167.462 7.75308 166.583 7.57647C164.601 7.17864 162.525 6.81292 160.359 6.47931V3.23693ZM185.533 16.8451V19.8681C185.055 19.6174 184.554 19.3695 184.028 19.1251V15.9451C184.419 16.1592 184.782 16.367 185.113 16.5695C185.257 16.6569 185.397 16.7488 185.533 16.8451ZM188.57 21.7413C188.237 21.4951 187.882 21.2507 187.505 21.008V18.919C188.043 19.77 188.409 20.7297 188.57 21.7413ZM187.505 37.1486V34.0222H185.533V36.4136C185.056 36.2522 184.554 36.0934 184.028 35.9364V31.9715H182.057V35.3887C181.232 35.1737 180.358 34.965 179.439 34.7599V30.0136H177.469V34.3415C176.629 34.1729 175.756 34.007 174.849 33.8456V28.3821H172.879V33.5066C172.089 33.3773 171.277 33.2497 170.442 33.1248C169.812 33.0312 169.172 32.9384 168.524 32.8483V27.0299H166.552V32.5843C165.139 32.4014 163.685 32.2284 162.196 32.0634V25.9113H160.225V31.8529C158.273 31.6522 156.262 31.4666 154.2 31.2971V25.072H152.229V31.1402C150.264 30.9903 148.253 30.8538 146.204 30.7316V23.3005H144.234V30.6192C142.011 30.4979 139.744 30.3927 137.444 30.3053V22.6083H135.474V30.2339C131.214 30.0903 126.842 30.0047 122.399 29.9779V22.6083H120.428V29.9699C120.11 29.969 119.789 29.969 119.47 29.969C100.224 29.969 82.1211 31.0893 68.4992 33.1248C67.4268 33.2854 66.3926 33.4495 65.3948 33.6181V28.3821H63.424V33.966C61.2349 34.3692 59.2472 34.7946 57.4689 35.2397V31.8315H55.4981V35.766C54.8781 35.9426 54.29 36.1228 53.7321 36.3057V33.9285H51.7613V37.0157C51.0863 37.2869 50.4796 37.5625 49.9395 37.8444V32.4291C50.4238 32.009 51.034 31.5853 51.7613 31.1651V31.9474H53.7321V30.1652C54.2838 29.9164 54.8727 29.6711 55.4981 29.4302V29.8495H57.4689V28.7238C60.5617 27.6899 64.3632 26.7373 68.8291 25.8783C82.3455 23.2773 100.33 21.8447 119.47 21.8447C135.741 21.8447 151.665 22.9214 164.311 24.8766C169.333 25.6535 173.755 26.55 177.469 27.5356V28.0316H179.251C180.247 28.3215 181.183 28.6185 182.057 28.9218V29.9886H184.028V29.6577C184.561 29.8726 185.063 30.0903 185.533 30.3097V32.0402H187.505V31.3533C187.935 31.6165 188.322 31.8814 188.664 32.149V37.6731C188.303 37.4956 187.918 37.3216 187.505 37.1486ZM49.9395 47.8391C50.3865 47.6411 50.9781 47.4172 51.7613 47.1755V49.7854H53.7321V46.6349C53.9077 46.5921 54.0878 46.5484 54.2749 46.5056C54.6661 46.4146 55.075 46.3236 55.4981 46.2353V47.6884H57.4689V45.8482C60.7808 45.2416 64.8741 44.6868 69.6921 44.1927C83.1216 42.8154 100.8 42.0563 119.47 42.0563C119.789 42.0563 120.11 42.0572 120.428 42.0572V50.1815H119.47C100.251 50.1815 82.1779 50.656 68.5816 51.5177C67.48 51.5872 66.4175 51.6595 65.3948 51.7326V46.2201H63.424V51.8807C61.2305 52.0529 59.2428 52.2339 57.4689 52.4239V49.6695H55.4981V52.6496C54.8772 52.7254 54.2883 52.803 53.7321 52.8815V51.7674H51.7613V53.1893C51.0801 53.3079 50.4725 53.4283 49.9395 53.5514V47.8391ZM146.204 42.604C148.348 42.695 150.448 42.7967 152.5 42.91H152.229V50.6783C150.264 50.615 148.253 50.557 146.204 50.5053V42.604ZM137.444 42.2981C139.744 42.3605 142.011 42.4363 144.234 42.5228V50.4571C142.011 50.4063 139.745 50.3617 137.444 50.3242V42.2981ZM135.474 42.2472V50.2939C131.214 50.2323 126.842 50.1957 122.399 50.185V42.0635C126.839 42.0831 131.211 42.1446 135.474 42.2472ZM185.533 51.8602V52.9288C185.057 52.8592 184.555 52.7896 184.028 52.7227V49.8104H182.057V52.4882C181.233 52.3963 180.359 52.3062 179.439 52.2197V47.8516H177.469V52.0413C176.63 51.969 175.757 51.8977 174.849 51.829V46.2201H172.879V51.6854C172.063 51.6283 171.224 51.5721 170.359 51.5177C169.756 51.4793 169.144 51.4419 168.524 51.4053V44.8688H166.552V51.2929C165.139 51.2153 163.686 51.1413 162.196 51.0717V43.7502H160.225V50.9816C158.273 50.896 156.262 50.8175 154.2 50.7452V43.0081C159.622 43.3274 164.682 43.7244 169.249 44.1927C172.28 44.5031 175.025 44.8384 177.469 45.1952V45.8705H179.439V45.4985C180.362 45.6484 181.236 45.8018 182.057 45.957V47.8275H184.028V46.3602C184.244 46.4084 184.457 46.4574 184.665 46.5056C184.971 46.5769 185.26 46.6465 185.533 46.7161V49.8791H187.505V47.278C187.959 47.4252 188.341 47.5653 188.664 47.6964V53.4756C188.306 53.3989 187.921 53.3222 187.505 53.2463V51.8602H185.533ZM49.9395 40.127C50.4069 39.8228 51.0065 39.499 51.7613 39.1645V43.8394H53.7321V38.3956C54.2847 38.2038 54.8736 38.0147 55.4981 37.8292V41.7415H57.4689V37.2833C59.2295 36.8284 61.2172 36.394 63.424 35.981V38.2921H65.3948V35.6287C66.4795 35.4422 67.6104 35.262 68.7883 35.0854C82.318 33.0642 100.318 31.951 119.47 31.951C119.789 31.951 120.11 31.951 120.428 31.9519V32.5183H122.399V31.9599C126.843 31.9867 131.215 32.0732 135.474 32.2177V32.5183H137.444V32.2882C139.745 32.3765 142.011 32.4817 144.234 32.6039V33.2114H146.204V32.7172C148.254 32.8394 150.264 32.9768 152.229 33.1275V34.9829H154.2V33.2854C156.263 33.4567 158.274 33.6431 160.225 33.8456V35.8213H162.196V34.057C163.687 34.2238 165.14 34.3986 166.552 34.5832V36.9399H168.524V34.8499C169.073 34.9276 169.616 35.0052 170.152 35.0854C171.09 35.2264 172 35.3691 172.879 35.5163V38.2921H174.849V35.8588C175.759 36.0229 176.631 36.1915 177.469 36.3637V39.9236H179.439V36.79C180.364 37.0014 181.237 37.2164 182.057 37.4376V41.8815H184.028V38.0076C184.499 38.1539 184.948 38.3028 185.375 38.4536C185.428 38.4732 185.481 38.4919 185.533 38.5107V43.9331H187.505V39.3126C187.948 39.5195 188.333 39.722 188.664 39.9173V45.5815C187.886 45.3059 186.977 45.0356 185.94 44.7751C185.344 44.6253 184.706 44.4781 184.028 44.3327V43.8635H182.057V43.9411C181.233 43.7877 180.358 43.6378 179.439 43.4915V41.9056H177.469V43.1936C176.629 43.0723 175.757 42.9537 174.849 42.8386V40.2741H172.879V42.5978C172.076 42.5032 171.25 42.4113 170.4 42.3204C169.784 42.2544 169.158 42.191 168.524 42.1277V38.9228H166.552V41.9386C165.139 41.8093 163.686 41.6853 162.196 41.5675V37.8033H160.225V41.4177C157.764 41.2375 155.209 41.0743 152.574 40.9289H154.2V36.9649H152.229V40.9101C142.209 40.3642 131.048 40.0752 119.47 40.0752C100.237 40.0752 82.1495 40.8727 68.5399 42.3204C67.4534 42.4363 66.405 42.555 65.3948 42.6772V40.2741H63.424V42.9251C61.2323 43.2124 59.2455 43.5165 57.4689 43.8341V43.7235H55.4981V44.2105C54.5987 44.3942 53.7649 44.5824 53.0004 44.7751C51.8101 45.0748 50.7865 45.3861 49.9395 45.7046V40.127ZM53.7321 26.0005V21.9411C54.2838 21.6351 54.8719 21.3336 55.4981 21.0366V23.9035H57.4689V20.1687C59.226 19.448 61.2136 18.7585 63.424 18.1046V20.4541H65.3948V17.5462C66.5035 17.2456 67.6619 16.9531 68.8681 16.6685C82.373 13.4895 100.344 11.7385 119.47 11.7385C119.789 11.7385 120.11 11.7394 120.428 11.7403V14.6803H122.399V11.7528C126.844 11.7947 131.215 11.9312 135.474 12.1586V14.6803H137.444V12.271C139.745 12.4102 142.011 12.5761 144.234 12.7687V15.3725H146.204V12.9471C148.254 13.1407 150.265 13.3575 152.229 13.5956V17.1439H154.2V13.8445C156.264 14.1147 158.275 14.41 160.225 14.7293V17.9833H162.196V15.0638C163.687 15.3252 165.14 15.6026 166.552 15.8934V19.1019H168.524V16.3153C169.045 16.4312 169.562 16.549 170.072 16.6685C171.039 16.8969 171.975 17.1297 172.879 17.3687V20.4541H174.849V17.9102C175.759 18.1706 176.631 18.4373 177.469 18.7094V22.0856H179.439V19.3864C180.365 19.7209 181.238 20.0643 182.057 20.414V24.0426H184.028V21.322C184.445 21.529 184.844 21.7386 185.224 21.95C185.326 22.0071 185.429 22.066 185.533 22.1257V26.0942H187.505V23.4155C187.915 23.7268 188.308 24.0569 188.664 24.4039V29.7478C188.303 29.5248 187.916 29.3044 187.505 29.0868V28.0762H185.533V28.1502C185.055 27.9433 184.553 27.7408 184.028 27.5401V26.0255H182.057V26.8381C181.229 26.5625 180.355 26.2931 179.439 26.0299V24.0676H177.469V25.4921C176.626 25.2735 175.753 25.0604 174.849 24.8525V22.4361H172.879V24.4163C171.488 24.1211 170.035 23.8383 168.524 23.5681V21.0839H166.552V23.2282C165.144 22.9945 163.691 22.7715 162.196 22.5592V19.9653H160.225V22.2898C158.281 22.0329 156.27 21.7939 154.2 21.5745V19.1259H152.229V21.3738C150.269 21.1811 148.259 21.0054 146.204 20.8475V17.3545H144.234V20.7021C142.017 20.5469 139.751 20.4113 137.444 20.2971V16.6623H135.474V20.2061C131.234 20.0215 126.863 19.9082 122.399 19.8743V16.6623H120.428V19.8636C120.11 19.8627 119.789 19.8627 119.47 19.8627C100.211 19.8627 82.0945 21.3078 68.4583 23.9311C67.4011 24.1345 66.3802 24.3432 65.3948 24.5582V22.4361H63.424V25.0051C61.2367 25.5224 59.249 26.0683 57.4689 26.6401V25.8854H55.4981V27.3144C54.8781 27.5419 54.29 27.772 53.7321 28.0057V27.9825H51.7613V28.9138C51.089 29.2572 50.4805 29.6077 49.9395 29.9636V24.7517C50.4619 24.1826 51.0943 23.6546 51.7613 23.1774V26.0005H53.7321ZM55.4981 18.8592C54.879 19.1349 54.29 19.415 53.7321 19.6995V16.921C54.2563 16.6373 54.8435 16.3376 55.4981 16.0263V18.8592ZM63.424 16.0415C61.2385 16.673 59.2499 17.3384 57.4689 18.0368V15.1441C59.116 14.451 61.085 13.7205 63.424 12.9891V16.0415ZM120.428 9.75827C120.11 9.75738 119.789 9.75648 119.47 9.75648C100.197 9.75648 82.067 11.5262 68.4193 14.7391C67.3763 14.9844 66.3678 15.2369 65.3948 15.4947V12.3995C75.9665 9.37204 93.1593 6.51856 120.428 6.50786V9.75827ZM135.474 10.1739C131.214 9.94827 126.841 9.81179 122.399 9.76987V6.51143C127.073 6.53284 131.424 6.63274 135.474 6.80043V10.1739ZM144.234 10.7796C142.011 10.5887 139.744 10.4237 137.444 10.2854V6.88874C139.813 7.00202 142.074 7.13939 144.234 7.29638V10.7796ZM152.229 11.6002C150.263 11.3638 148.253 11.1489 146.204 10.9571V7.44802C148.313 7.61928 150.32 7.81016 152.229 8.018V11.6002ZM160.225 12.7215C158.273 12.4057 156.262 12.1131 154.2 11.8464V8.24278C156.334 8.49699 158.34 8.77262 160.225 9.06608V12.7215ZM166.552 13.8703C165.139 13.5831 163.685 13.3111 162.196 13.0524V9.38542C163.732 9.64588 165.184 9.91794 166.552 10.198V13.8703ZM172.879 15.3207C172.114 15.1227 171.329 14.9291 170.522 14.7391C169.866 14.5848 169.199 14.4332 168.524 14.286V10.6208C170.09 10.9714 171.539 11.3326 172.879 11.7001V15.3207ZM179.439 13.84C180.404 14.2173 181.275 14.5902 182.057 14.9532V18.2696C181.231 17.9342 180.357 17.606 179.439 17.2849V13.84ZM177.469 16.6302C176.629 16.3652 175.756 16.1057 174.849 15.8515V12.2674C175.782 12.5493 176.653 12.8321 177.469 13.1148V16.6302ZM51.7613 63.6594V64.183H49.9395V55.5905C50.398 55.4745 50.9914 55.3461 51.7613 55.206V61.6774H53.7321V54.8876C54.2661 54.81 54.8524 54.7306 55.4981 54.6503V59.5804H57.4689V54.4211C59.1319 54.2382 61.0983 54.0536 63.424 53.869V56.131H65.3948V53.72C66.9354 53.6076 68.6145 53.497 70.4469 53.3882C83.7842 52.5988 101.194 52.1626 119.47 52.1626C131.004 52.1626 142.191 52.3365 152.229 52.663V52.8209H154.2V52.7299C156.263 52.8021 158.274 52.8806 160.225 52.9672V53.6602H162.196V53.0555C163.687 53.1259 165.141 53.2 166.552 53.2776V54.7788H168.524V53.39C170.083 53.4836 171.532 53.5773 172.879 53.6727V56.131H174.849V53.8172C175.775 53.8886 176.648 53.9599 177.469 54.0313V57.7625H179.439V54.2115C180.39 54.3042 181.261 54.3952 182.057 54.4853V59.7195H184.028V54.7253C184.573 54.7966 185.075 54.868 185.533 54.9358V61.7711H187.505V55.2667C187.953 55.3523 188.337 55.4326 188.664 55.5084V64.183H187.505V63.7531H185.533V64.183H184.028V61.7024H182.057V64.183H174.849V64.0582H172.879V64.183H168.524V62.7068H166.552V64.183H162.196V61.5882H160.225V64.183H154.2V60.7489H152.229V64.183H146.204V58.9774H144.234V64.183H137.444V58.2852H135.474V64.183H122.399V58.2852H120.428V64.183H65.3948V64.0582H63.424V64.183H57.4689V61.5615H55.4981V64.183H53.7321V63.6594H51.7613ZM20.4702 20.0385H15.0482V18.8325H20.4702V20.0385ZM216.062 18.8325H221.484V20.0385H216.062V18.8325ZM205.504 64.2473V26.9835C205.504 22.5253 209.081 18.8931 213.501 18.8343V22.6154H224.047V16.2555H213.501V16.2573C207.668 16.3162 202.942 21.1044 202.942 26.9835V64.2473H191.225V64.183V57.1916C191.82 56.8866 192.335 56.4307 192.335 55.727C192.335 55.0134 191.797 54.5585 191.225 54.265V50.5936C191.793 50.1636 192.335 49.5437 192.335 48.7133C192.335 47.8659 191.774 47.2459 191.225 46.8329V44.0258C191.962 43.2971 192.335 42.5175 192.335 41.6986C192.335 40.8798 191.967 40.1091 191.225 39.3795V37.4893C191.962 36.5911 192.335 35.6518 192.335 34.6849C192.335 33.7171 191.962 32.7779 191.225 31.8796V30.1955C191.394 30.0823 191.529 29.9592 191.634 29.8432C192.367 29.0386 192.352 27.9129 192.335 27.6346C192.327 26.5161 191.955 25.427 191.225 24.3717V22.9187C191.225 21.2034 190.785 19.5068 189.951 18.0127C189.113 16.5133 187.898 15.2512 186.438 14.3636C184.431 13.1452 181.959 11.999 179.091 10.958C176.873 10.1543 174.408 9.41039 171.726 8.73516V3.22534L157.798 -0.000102828V6.10646C147.31 4.66144 134.84 3.9309 120.586 3.9309C106.551 3.9309 94.072 4.67661 83.315 6.15285V-0.000102828L69.3852 3.22534V8.69859C59.4823 11.0427 53.8297 13.7517 50.7972 15.6525C49.7514 16.3073 48.884 17.2269 48.2871 18.3116C47.6919 19.3935 47.377 20.6191 47.377 21.8563V24.9069C46.8644 25.8061 46.6054 26.7275 46.6054 27.6703C46.6054 28.6069 46.8644 29.5301 47.377 30.4301V32.3328C46.8653 33.0927 46.6054 33.8795 46.6054 34.6849C46.6054 35.4904 46.8644 36.278 47.377 37.038V39.7452C46.8617 40.366 46.6054 41.0154 46.6054 41.6986C46.6054 42.3819 46.8644 43.0357 47.377 43.6575V47.1166C46.9575 47.5126 46.6054 48.0416 46.6054 48.7133C46.6054 49.3849 46.9575 49.9139 47.377 50.309V54.463C46.9486 54.7529 46.6054 55.1579 46.6054 55.727C46.6054 56.3103 46.9557 56.7144 47.377 56.9963V64.183V64.2473H33.5901V26.9835C33.5901 21.1044 28.8644 16.3162 23.0317 16.2573V16.2555H12.4857V22.6154H23.0317V18.8343C27.4514 18.8931 31.0286 22.5253 31.0286 26.9835V64.2473H0V66.8242H230V64.2473L205.504 64.2473Z" fill="#C87ADB"/>
</svg>
