<svg width="253" height="76" viewBox="0 0 253 76" fill="none" xmlns="http://www.w3.org/2000/svg">
<path d="M224.437 71.6788L237.445 63.1703L233.925 71.6788H224.437ZM246.588 50.1243L240.109 71.6788H236.07L241.938 57.4964L220.256 71.6788H212L246.588 50.1243ZM117.548 69.6594L114.879 63.7143H120.214L117.548 69.6594ZM136.121 72.0404L130.149 58.7345L124.181 72.0404H118.666L123.497 61.2768H111.597L116.428 72.0404H111.661L105.689 58.7345L99.7194 72.0404H42.498L41.2571 56.7345H49.8885V53.6885H41.1254V38.7022H49.8885V35.6562H41.2546L43.754 4.22761H194.969L197.411 35.6562H187.238V38.7022H197.538V53.6885H187.238V56.7345H197.33L195.425 72.0404H136.121ZM126.368 72.0404L130.149 63.6094L133.934 72.0404H126.368ZM101.908 72.0404L105.689 63.6094L109.474 72.0404H101.908ZM17.6077 5.81275H11.0931V3.95965H17.6077V5.81275ZM223.032 3.95965H229.546V5.81275H223.032V3.95965ZM252.279 42.1792L210.346 68.3099V16.4875C210.346 9.63519 214.643 4.05166 219.954 3.96288V9.77402H232.624V-5.5631e-07H219.954C212.946 0.0903925 207.267 7.45278 207.267 16.4875V70.2276L204.36 72.0404H198.543L200.617 55.3688V37.0799L197.755 0.267959H40.9735L38.0475 37.0783V55.314L39.4026 72.0404H33.3723V16.4875C33.3723 7.45278 27.6933 0.0920048 20.6868 0.00161179L8.01519 -5.5631e-07V9.77402H20.6868V3.96288C25.9957 4.05166 30.2932 9.63519 30.2932 16.4875V72.0404H0V76L33.3723 76L39.7238 76H198.051H241.838V75.6384H242.219L252.279 42.1792Z" fill="#C87ADB"/>
<path d="M78.3089 35.6542H73.5723V38.7002H78.3089V35.6542Z" fill="#C87ADB"/>
<path d="M120.928 35.6542H116.192V38.7002H120.928V35.6542Z" fill="#C87ADB"/>
<path d="M59.3618 38.7002H71.2028V35.6542H59.3618V38.7002Z" fill="#C87ADB"/>
<path d="M156.45 35.6542H144.609V38.7002H156.45V35.6542Z" fill="#C87ADB"/>
<path d="M56.9922 35.6542H52.2568V38.7002H56.9922V35.6542Z" fill="#C87ADB"/>
<path d="M163.559 35.6542H158.824V38.7002H163.559V35.6542Z" fill="#C87ADB"/>
<path d="M135.141 35.6542H123.3V38.7002H135.141V35.6542Z" fill="#C87ADB"/>
<path d="M142.246 35.6542H137.511V38.7002H142.246V35.6542Z" fill="#C87ADB"/>
<path d="M177.767 35.6542H165.926V38.7002H177.767V35.6542Z" fill="#C87ADB"/>
<path d="M184.865 35.6542H180.129V38.7002H184.865V35.6542Z" fill="#C87ADB"/>
<path d="M113.824 35.6542H101.983V38.7002H113.824V35.6542Z" fill="#C87ADB"/>
<path d="M80.6743 38.7002H92.5153V35.6542H80.6743V38.7002Z" fill="#C87ADB"/>
<path d="M99.6197 35.6542H94.8843V38.7002H99.6197V35.6542Z" fill="#C87ADB"/>
<path d="M92.5153 53.6876H80.6743V56.7336H92.5153V53.6876Z" fill="#C87ADB"/>
<path d="M165.926 56.7336H177.767V53.6876H165.926V56.7336Z" fill="#C87ADB"/>
<path d="M156.45 53.6876H144.609V56.7336H156.45V53.6876Z" fill="#C87ADB"/>
<path d="M101.983 56.7336H113.824V53.6876H101.983V56.7336Z" fill="#C87ADB"/>
<path d="M163.559 53.6876H158.824V56.7336H163.559V53.6876Z" fill="#C87ADB"/>
<path d="M123.3 56.7336H135.141V53.6876H123.3V56.7336Z" fill="#C87ADB"/>
<path d="M116.192 56.7336H120.928V53.6876H116.192V56.7336Z" fill="#C87ADB"/>
<path d="M142.246 53.6876H137.511V56.7336H142.246V53.6876Z" fill="#C87ADB"/>
<path d="M78.3089 53.6876H73.5723V56.7336H78.3089V53.6876Z" fill="#C87ADB"/>
<path d="M94.8843 56.7336H99.6197V53.6876H94.8843V56.7336Z" fill="#C87ADB"/>
<path d="M56.9922 53.6876H52.2568V56.7336H56.9922V53.6876Z" fill="#C87ADB"/>
<path d="M59.3618 56.7336H71.2028V53.6876H59.3618V56.7336Z" fill="#C87ADB"/>
<path d="M184.865 53.6876H180.129V56.7336H184.865V53.6876Z" fill="#C87ADB"/>
<path d="M107.329 49.0816L108.515 46.4375L109.703 49.0816H107.329ZM104.048 51.519H112.984L108.515 41.5642L104.048 51.519Z" fill="#C87ADB"/>
<path d="M125.657 46.4391L126.842 49.0832H124.47L125.657 46.4391ZM125.657 41.5642L121.188 51.519H130.125L125.657 41.5642Z" fill="#C87ADB"/>
<path d="M118.575 44.1698L117.389 46.8138L116.201 44.1698H118.575ZM121.856 41.7323H112.921L117.389 51.6887L121.856 41.7323Z" fill="#C87ADB"/>
<path d="M91.3759 46.4387L92.5616 49.0827H90.1901L91.3759 46.4387ZM91.3759 41.5638L86.9077 51.5186H95.844L91.3759 41.5638Z" fill="#C87ADB"/>
<path d="M99.0619 44.1701H101.436L100.248 46.8142L99.0619 44.1701ZM95.7808 41.7327L100.248 51.6875L104.717 41.7327H95.7808Z" fill="#C87ADB"/>
<path d="M83.7877 45.9574L83.1779 44.5982H84.3963L83.7877 45.9574ZM83.7877 50.8323L87.6787 42.1608H79.8955L83.7877 50.8323Z" fill="#C87ADB"/>
<path d="M75.3353 46.76L75.9451 48.1192H74.7267L75.3353 46.76ZM75.3353 41.8851L71.4443 50.5566H79.2275L75.3353 41.8851Z" fill="#C87ADB"/>
<path d="M62.7783 43.568L65.6793 50.0312L68.5803 43.568H62.7783Z" fill="#C87ADB"/>
<path d="M60.1237 49.1467L57.2227 42.6835L54.3218 49.1467H60.1237Z" fill="#C87ADB"/>
<path d="M185.419 50.0332L188.321 43.5699H182.518L185.419 50.0332Z" fill="#C87ADB"/>
<path d="M174.073 49.1475H179.875L176.974 42.6842L174.073 49.1475Z" fill="#C87ADB"/>
<path d="M192.748 43.7184L190.502 48.7224H194.993L192.748 43.7184Z" fill="#C87ADB"/>
<path d="M47.9008 49.2661L50.1468 44.2621H45.6548L47.9008 49.2661Z" fill="#C87ADB"/>
<path d="M191.832 24.4254L189.586 29.4294H194.077L191.832 24.4254Z" fill="#C87ADB"/>
<path d="M47.9008 29.9736L50.1468 24.9696H45.6548L47.9008 29.9736Z" fill="#C87ADB"/>
<path d="M191.832 10.7469L189.586 15.751H194.078L191.832 10.7469Z" fill="#C87ADB"/>
<path d="M47.9008 16.2961L50.1468 11.2921H45.6548L47.9008 16.2961Z" fill="#C87ADB"/>
<path d="M168.26 45.9564L167.651 44.5972H168.869L168.26 45.9564ZM168.26 50.8313L172.152 42.1598H164.369L168.26 50.8313Z" fill="#C87ADB"/>
<path d="M159.202 48.1167L159.811 46.7576L160.422 48.1167H159.202ZM155.92 50.5542H163.704L159.811 41.8843L155.92 50.5542Z" fill="#C87ADB"/>
<path d="M135.646 44.1707L134.46 46.8148L133.273 44.1707H135.646ZM138.927 41.7333H129.992L134.46 51.6897L138.927 41.7333Z" fill="#C87ADB"/>
<path d="M142.813 46.4387L143.999 49.0827H141.626L142.813 46.4387ZM142.813 41.5638L138.345 51.5186H147.281L142.813 41.5638Z" fill="#C87ADB"/>
<path d="M150.422 44.1701H152.795L151.608 46.8142L150.422 44.1701ZM147.141 41.7327L151.608 51.6875L156.076 41.7327H147.141Z" fill="#C87ADB"/>
<path d="M90.1889 67.2183L91.3746 64.5742L92.5616 67.2183H90.1889ZM86.9077 69.6558H95.8427L91.3746 59.6993L86.9077 69.6558Z" fill="#C87ADB"/>
<path d="M83.1767 62.7351H84.3963L83.7865 64.0942L83.1767 62.7351ZM79.8955 60.2976L83.7865 68.9675L87.6774 60.2976H79.8955Z" fill="#C87ADB"/>
<path d="M74.7255 66.2542L75.334 64.895L75.9451 66.2542H74.7255ZM71.4443 68.6917H79.2263L75.334 60.0201L71.4443 68.6917Z" fill="#C87ADB"/>
<path d="M65.6793 68.1685L68.5815 61.7052H62.7783L65.6793 68.1685Z" fill="#C87ADB"/>
<path d="M54.3218 67.2834H60.1237L57.224 60.8186L54.3218 67.2834Z" fill="#C87ADB"/>
<path d="M185.419 68.1685L188.321 61.7052H182.518L185.419 68.1685Z" fill="#C87ADB"/>
<path d="M174.073 67.2837H179.875L176.974 60.8188L174.073 67.2837Z" fill="#C87ADB"/>
<path d="M190.502 66.8572H194.994L192.748 61.8531L190.502 66.8572Z" fill="#C87ADB"/>
<path d="M47.9008 67.4019L50.1468 62.3978H45.6548L47.9008 67.4019Z" fill="#C87ADB"/>
<path d="M168.26 64.0926L167.651 62.7335H168.869L168.26 64.0926ZM168.26 68.9675L172.152 60.296H164.369L168.26 68.9675Z" fill="#C87ADB"/>
<path d="M159.202 66.2535L159.811 64.8943L160.422 66.2535H159.202ZM155.92 68.6909H163.704L159.811 60.0194L155.92 68.6909Z" fill="#C87ADB"/>
<path d="M141.625 67.2173L142.812 64.5733L143.999 67.2173H141.625ZM138.345 69.6548H147.28L142.812 59.6984L138.345 69.6548Z" fill="#C87ADB"/>
<path d="M150.422 62.3055H152.795L151.608 64.9496L150.422 62.3055ZM147.141 59.868L151.608 69.8245L156.076 59.868H147.141Z" fill="#C87ADB"/>
<path d="M106.414 29.7596L107.6 27.1155L108.788 29.7596H106.414ZM103.133 32.197H112.069L107.6 22.2406L103.133 32.197Z" fill="#C87ADB"/>
<path d="M124.739 27.1155L125.924 29.7596H123.552L124.739 27.1155ZM124.739 22.2406L120.271 32.197H129.207L124.739 22.2406Z" fill="#C87ADB"/>
<path d="M115.289 24.8463H117.663L116.476 27.4903L115.289 24.8463ZM112.009 22.4088L116.476 32.3652L120.944 22.4088H112.009Z" fill="#C87ADB"/>
<path d="M90.455 27.1148L91.6407 29.7588H89.2692L90.455 27.1148ZM90.455 22.2399L85.9868 32.1963H94.9231L90.455 22.2399Z" fill="#C87ADB"/>
<path d="M98.1386 24.847H100.513L99.3256 27.4911L98.1386 24.847ZM94.8574 22.4095L99.3256 32.366L103.794 22.4095H94.8574Z" fill="#C87ADB"/>
<path d="M83.4754 25.2738L82.8668 26.6329L82.2558 25.2738H83.4754ZM86.7565 22.8363H78.9746L82.8668 31.5078L86.7565 22.8363Z" fill="#C87ADB"/>
<path d="M74.4134 27.4343L75.0232 28.7935H73.8049L74.4134 27.4343ZM74.4134 22.5594L70.5225 31.231H78.3056L74.4134 22.5594Z" fill="#C87ADB"/>
<path d="M67.6623 24.2448H61.8604L64.7601 30.7097L67.6623 24.2448Z" fill="#C87ADB"/>
<path d="M53.4053 29.8232H59.206L56.3062 23.36L53.4053 29.8232Z" fill="#C87ADB"/>
<path d="M187.404 24.2448H181.603L184.502 30.7097L187.404 24.2448Z" fill="#C87ADB"/>
<path d="M176.052 23.358L173.151 29.8213H178.955L176.052 23.358Z" fill="#C87ADB"/>
<path d="M167.953 25.2745L167.344 26.6336L166.734 25.2745H167.953ZM171.235 22.837H163.453L167.344 31.5085L171.235 22.837Z" fill="#C87ADB"/>
<path d="M158.896 27.4343L159.506 28.7935H158.287L158.896 27.4343ZM158.896 22.5594L155.005 31.231H162.789L158.896 22.5594Z" fill="#C87ADB"/>
<path d="M133.537 27.4886L132.351 24.8446H134.722L133.537 27.4886ZM133.537 32.3635L138.005 22.4087H129.068L133.537 32.3635Z" fill="#C87ADB"/>
<path d="M140.708 29.7588L141.894 27.1148L143.081 29.7588H140.708ZM137.427 32.1963H146.362L141.894 22.2399L137.427 32.1963Z" fill="#C87ADB"/>
<path d="M151.877 24.8463L150.691 27.4903L149.504 24.8463H151.877ZM155.158 22.4088H146.223L150.691 32.3652L155.158 22.4088Z" fill="#C87ADB"/>
<path d="M108.788 15.4524H106.414L107.601 12.8084L108.788 15.4524ZM112.069 17.8899L107.601 7.93509L103.133 17.8899H112.069Z" fill="#C87ADB"/>
<path d="M125.924 15.4524H123.55L124.739 12.8084L125.924 15.4524ZM129.206 17.8899L124.739 7.93509L120.271 17.8899H129.206Z" fill="#C87ADB"/>
<path d="M117.663 10.5398L116.477 13.1838L115.289 10.5398H117.663ZM120.944 8.10233H112.009L116.477 18.0571L120.944 8.10233Z" fill="#C87ADB"/>
<path d="M91.6407 15.4517H89.268L90.455 12.8076L91.6407 15.4517ZM94.9218 17.8892L90.455 7.93436L85.9868 17.8892H94.9218Z" fill="#C87ADB"/>
<path d="M100.513 10.5405L99.3268 13.1846L98.1386 10.5405H100.513ZM103.794 8.10306H94.8574L99.3268 18.0579L103.794 8.10306Z" fill="#C87ADB"/>
<path d="M83.4754 10.9681L82.8668 12.3272L82.2558 10.9681H83.4754ZM86.7565 8.53064H78.9746L82.8668 17.2021L86.7565 8.53064Z" fill="#C87ADB"/>
<path d="M74.4134 13.1287L75.0232 14.4878H73.8049L74.4134 13.1287ZM74.4134 8.25378L70.5225 16.9253H78.3056L74.4134 8.25378Z" fill="#C87ADB"/>
<path d="M67.6623 9.93907H61.8604L64.7601 16.4023L67.6623 9.93907Z" fill="#C87ADB"/>
<path d="M56.3062 9.0543L53.4053 15.5176H59.2085L56.3062 9.0543Z" fill="#C87ADB"/>
<path d="M187.404 9.93907H181.603L184.502 16.4023L187.404 9.93907Z" fill="#C87ADB"/>
<path d="M176.052 9.05357L173.151 15.5168H178.955L176.052 9.05357Z" fill="#C87ADB"/>
<path d="M167.953 10.9681L167.344 12.3272L166.734 10.9681H167.953ZM171.235 8.53064H163.453L167.344 17.2021L171.235 8.53064Z" fill="#C87ADB"/>
<path d="M159.506 14.4878H158.285L158.896 13.1287L159.506 14.4878ZM162.787 16.9253L158.896 8.2554L155.005 16.9253H162.787Z" fill="#C87ADB"/>
<path d="M134.722 10.5398L133.537 13.1838L132.35 10.5398H134.722ZM138.003 8.10233H129.068L133.537 18.0571L138.003 8.10233Z" fill="#C87ADB"/>
<path d="M143.081 15.4524H140.708L141.895 12.8084L143.081 15.4524ZM146.362 17.8899L141.895 7.93509L137.427 17.8899H146.362Z" fill="#C87ADB"/>
<path d="M151.877 10.5398L150.691 13.1838L149.504 10.5398H151.877ZM155.158 8.10233H146.223L150.691 18.0571L155.158 8.10233Z" fill="#C87ADB"/>
</svg>
