<svg width="56" height="56" viewBox="0 0 56 56" fill="none" xmlns="http://www.w3.org/2000/svg">
<circle cx="28" cy="28" r="28" fill="#FCF2FF"/>
<path d="M35.2101 23H34.6822L34.7109 23.5272L35.2007 32.5272L35.2265 33H35.7H38.1C38.3209 33 38.5 33.1791 38.5 33.4C38.5 33.6209 38.3209 33.8 38.1 33.8H35.828H35.2765L35.3304 34.3489L35.4775 35.8471C35.5119 36.1969 35.2371 36.5 34.8857 36.5C34.5797 36.5 34.3237 36.2679 34.2938 35.9634L34.1256 34.2511L34.0813 33.8H33.628H22.3349H21.876L21.8367 34.2572L21.691 35.955C21.6646 36.2632 21.4066 36.5 21.0973 36.5C20.748 36.5 20.4736 36.201 20.5035 35.8531L20.6331 34.3428L20.6797 33.8H20.1349H17.9C17.6791 33.8 17.5 33.6209 17.5 33.4C17.5 33.1791 17.6791 33 17.9 33H20.3H20.773L20.7992 32.5277L21.2992 23.5277L21.3285 23H20.8H18.9419C18.721 23 18.5419 22.8209 18.5419 22.6C18.5419 22.3791 18.721 22.2 18.9419 22.2H20.9976H21.4706L21.4969 21.7277L21.5892 20.0651C21.6069 19.7481 21.8691 19.5 22.1866 19.5C22.5301 19.5 22.8031 19.7885 22.784 20.1315L22.6984 21.6723L22.6691 22.2H23.1976H32.8052H33.3343L33.3044 21.6717L33.2172 20.1321C33.1977 19.7889 33.4707 19.5 33.8144 19.5C34.1317 19.5 34.3938 19.7477 34.4117 20.0644L34.506 21.7283L34.5327 22.2H35.0052H37.6935C37.9144 22.2 38.0935 22.3791 38.0935 22.6C38.0935 22.8209 37.9144 23 37.6935 23H35.2101ZM33.5094 23.4728L33.4837 23H33.0101H23H22.527L22.5008 23.4723L22.0008 32.4723L21.9715 33H22.5H33.5H34.028L33.9993 32.4728L33.5094 23.4728Z" stroke="#C87ADB"/>
</svg>
