<svg width="249" height="84" viewBox="0 0 249 84" fill="none" xmlns="http://www.w3.org/2000/svg">
<path d="M156.603 80.975H121.868H81.4651V79.151H82.5278V77.2892H81.4651V75.7864H82.5278V73.9246H81.4651V72.4207H82.5278V70.56H81.4651V68.7349H164.976L186.128 80.975H156.603ZM15.5122 68.7349H65.8393V70.56H64.5106V72.4207H65.8393V73.9246H64.5106V75.7864H65.8393V77.2892H64.5106V79.151H65.8393V80.975H6.13441L15.5122 68.7349ZM18.3016 25.5647H19.8508V65.711H18.3016V25.5647ZM46.0372 20.2877H57.7135V22.5397H43.5959L46.0372 20.2877ZM66.2404 20.5098L73.7068 20.3254V22.5397H66.2404V20.5098ZM124.923 9.49433L132.389 7.4137V9.28949L124.923 11.3216V9.49433ZM165.684 7.84277V14.9007L167.55 14.2377V14.159L170.005 22.4632V36.2136L167.55 37.255V25.7965L165.684 26.2935V38.0495L163.23 39.0909V26.9478L161.362 27.4448V39.8854L158.908 40.929V28.0981L157.042 28.5951V41.7213L154.587 42.7649V29.2495L152.721 29.7464V43.5572L150.267 44.6008V30.4008L148.4 30.8978V45.3931L145.945 46.4367V31.5511L144.079 32.0481V65.711H141.624V32.7024L139.757 33.1994V65.711H137.303V33.8527L135.437 34.3497V65.711H132.981V35.003L131.115 35.501V65.711H128.661V36.1554L126.794 36.6524V65.711H124.34V37.3057L122.473 37.8026V65.711H120.019V38.457L118.152 38.954V65.711H115.697V39.6073L113.831 40.1043V65.711H111.376V40.7576L109.51 41.2545V65.711H107.056V41.9089L105.189 42.407V65.711H102.734V43.0603L100.867 43.5572V65.711H98.413V44.2105L96.547 44.7075V65.711H94.0917V45.3619L92.2257 45.8589V65.711H89.7715V46.5121L87.9043 47.0091V65.711H85.4501V47.6635L83.583 48.1616V65.711H81.1288V47.4242L79.2617 46.6318V65.711H76.8075V45.5883L74.9415 44.7948V65.711H72.4862V43.7524L70.6201 42.9589V65.711H68.1659V41.9165L66.2988 41.123V65.711H24.9549V43.9098V25.5647H27.4091V45.2422L29.2762 46.2567V25.5647H31.7304V25.6111H33.5975V25.5647H36.0517V25.6111H37.9178V25.5647H40.373V25.6768L42.2391 26.4627V25.5647H44.6933V27.4976L46.5604 28.2825V25.5647H49.0146V29.3174L50.8807 30.1033V25.5647H53.3359V31.1382L55.202 31.923V25.5647H57.6562V32.9579L59.5233 33.7427V25.5647H61.9786V34.7777L63.8446 35.5636V25.5647H66.2988V36.5985L68.1659 37.3833V25.5647H70.6201V38.4182L72.4862 39.2041V25.5647H74.9415V40.239L76.8075 41.0238V25.5647H79.2617V42.0588L81.1288 42.8447V25.5647H83.583V43.8796L83.8674 43.9982L85.4501 43.4354V25.1971L87.9043 24.5298V42.5622L89.7715 41.8992V24.0209L92.2257 23.3536V41.0249L94.0917 40.3619V22.8459L96.547 22.1775V39.4898L98.413 38.8246V21.6697L100.867 21.0014V37.9525L102.734 37.2895V20.4936L105.189 19.8252V36.4152L107.056 35.7522V19.3185L109.51 18.6501V34.879L111.376 34.2149V18.1424L113.831 17.4751V33.3417L115.697 32.6776V16.9662L118.152 16.2989V31.8055L120.019 31.1414V15.7901L122.473 15.1228V30.2693L124.34 29.6052V14.615L126.794 13.9466V28.732L128.661 28.0679V13.44L131.115 12.7705V27.1947L132.981 26.5317V12.2638L135.437 11.5954V25.6574L137.303 24.9944V11.0877L139.757 10.4193V24.1223L141.624 23.4571V9.91153L144.079 9.24422V22.585L145.945 21.9209V8.73538L148.4 8.06808V21.0477L150.267 20.3847V7.55924L152.721 6.89193V19.5115L154.587 18.8474V6.38417L157.042 5.71579V17.9753L158.908 17.3101V5.20803L161.362 4.54072V16.438L163.23 15.775V4.03296L164.459 3.69769L165.684 7.84277ZM171.872 35.4191V28.7773L173.616 34.6785L171.872 35.4191ZM21.7169 25.5647H23.0878V65.711H21.7169V43.9098V25.5647ZM78.4325 80.975H68.873V68.7349H78.4325V80.975ZM219.716 80.975H212.316L222.462 75.8317L219.716 80.975ZM226.845 80.975H223.152L229.656 68.791L205.623 80.975H197.973L233.502 63.8147L226.845 80.975ZM209.736 28.7805H216.155V30.1949H209.736V28.7805ZM229.347 80.975L237.814 59.1468L197.236 78.7467V38.3471C197.236 33.1142 201.471 28.8506 206.702 28.7816V33.2199H219.187V25.7555H206.702V25.7566C199.798 25.8267 194.203 31.4476 194.203 38.3471V80.2107L192.62 80.975H192.171L166.144 65.9148L165.792 65.711H147.995V48.8526L177.289 36.4055L166.528 5.00679e-06L135.422 8.46371V3.4271L121.89 7.20025V12.1463L83.6955 22.5397H76.7394V17.225L63.2078 17.5602V22.5397H60.7461V17.2627H44.849L39.1287 22.5397H36.9848V22.4761H16.7858V22.5397H15.269V65.711H14.0127L0 84H121.868H156.603H248.348V80.975H229.347Z" fill="#C87ADB"/>
<path d="M129.442 73.8237H164.177V70.7987H129.442V73.8237Z" fill="#C87ADB"/>
<path d="M112.604 72.4211H114.937V70.5593H112.604V72.4211Z" fill="#C87ADB"/>
<path d="M86.8281 72.4211H91.1235V70.5593H86.8281V72.4211Z" fill="#C87ADB"/>
<path d="M95.4165 72.4211H99.7119V70.5593H95.4165V72.4211Z" fill="#C87ADB"/>
<path d="M104.008 72.4211H108.304V70.5593H104.008V72.4211Z" fill="#C87ADB"/>
<path d="M112.604 75.7854H114.937V73.9236H112.604V75.7854Z" fill="#C87ADB"/>
<path d="M86.8281 75.7854H91.1235V73.9236H86.8281V75.7854Z" fill="#C87ADB"/>
<path d="M95.4165 75.7854H99.7119V73.9236H95.4165V75.7854Z" fill="#C87ADB"/>
<path d="M104.008 75.7854H108.304V73.9236H104.008V75.7854Z" fill="#C87ADB"/>
<path d="M112.604 79.1511H114.937V77.2894H112.604V79.1511Z" fill="#C87ADB"/>
<path d="M104.008 79.1511H108.304V77.2894H104.008V79.1511Z" fill="#C87ADB"/>
<path d="M95.4165 79.1511H99.7119V77.2894H95.4165V79.1511Z" fill="#C87ADB"/>
<path d="M86.8281 79.1511H91.1235V77.2894H86.8281V79.1511Z" fill="#C87ADB"/>
<path d="M38.7402 72.4211H43.0356V70.5593H38.7402V72.4211Z" fill="#C87ADB"/>
<path d="M47.3281 72.4211H51.6235V70.5593H47.3281V72.4211Z" fill="#C87ADB"/>
<path d="M55.917 72.4211H60.2124V70.5593H55.917V72.4211Z" fill="#C87ADB"/>
<path d="M32.1099 72.4211H34.443V70.5593H32.1099V72.4211Z" fill="#C87ADB"/>
<path d="M38.7402 75.7854H43.0356V73.9236H38.7402V75.7854Z" fill="#C87ADB"/>
<path d="M55.917 75.7854H60.2124V73.9236H55.917V75.7854Z" fill="#C87ADB"/>
<path d="M47.3281 75.7854H51.6235V73.9236H47.3281V75.7854Z" fill="#C87ADB"/>
<path d="M32.1099 75.7854H34.443V73.9236H32.1099V75.7854Z" fill="#C87ADB"/>
<path d="M55.917 79.1511H60.2124V77.2894H55.917V79.1511Z" fill="#C87ADB"/>
<path d="M47.3281 79.1511H51.6235V77.2894H47.3281V79.1511Z" fill="#C87ADB"/>
<path d="M38.7402 79.1511H43.0356V77.2894H38.7402V79.1511Z" fill="#C87ADB"/>
<path d="M32.1099 79.1511H34.443V77.2894H32.1099V79.1511Z" fill="#C87ADB"/>
<path d="M125.654 78.9124H160.389V75.8874H125.654V78.9124Z" fill="#C87ADB"/>
<path d="M61.98 64.0213L63.8472 65.0347V40.0801L61.98 39.2878V64.0213Z" fill="#C87ADB"/>
<path d="M57.6606 61.6731L59.5289 62.6875V38.244L57.6606 37.4505V61.6731Z" fill="#C87ADB"/>
<path d="M44.6963 54.6319L46.5646 55.6453V32.7347L44.6963 31.9423V54.6319Z" fill="#C87ADB"/>
<path d="M40.3774 52.2852L42.2446 53.2986V30.9001L40.3774 30.1077V52.2852Z" fill="#C87ADB"/>
<path d="M49.0161 56.9791L50.8833 57.9924V34.572L49.0161 33.7785V56.9791Z" fill="#C87ADB"/>
<path d="M53.3374 59.3265L55.2057 60.3398V36.4073L53.3374 35.6149V59.3265Z" fill="#C87ADB"/>
<path d="M36.0571 49.9371L37.9254 50.9504V29.064L36.0571 28.2706V49.9371Z" fill="#C87ADB"/>
<path d="M31.7246 47.5897L33.5929 48.603V27.2265L31.7246 26.4342V47.5897Z" fill="#C87ADB"/>
</svg>
