<svg width="660" height="777" viewBox="0 0 660 777" fill="none" xmlns="http://www.w3.org/2000/svg">
<path d="M539.723 210.229L475.496 533.046L167.046 648.111C145.603 590.867 140.608 528.765 152.626 468.83C188.097 290.544 361.407 174.764 539.723 210.229Z" fill="#EEF7FF"/>
<path d="M334 343.741C334 441.771 399.814 476 481 476C562.186 476 628 441.771 628 343.741C628 245.71 481 121 481 121C481 121 334 245.71 334 343.741Z" fill="#F5F9FE"/>
<path d="M486.555 442.142L485.04 367.226L422 274.544L484.803 355.474L484.121 321.789L440.674 254.735L483.941 312.875L482.717 252.29L455.5 213L482.717 248.317L481.759 165L486.568 278.736L517.5 241L486.931 284.316L491.339 351.978L491.469 350.182L546 288.952L491.635 356.527L492.186 364.988L492.285 365.116L492.24 365.81L503.422 660H488.482L486.689 448.807L432.458 381.397L486.555 442.142Z" fill="#465C72"/>
<path d="M566.789 632.641C556.697 651.355 535.277 659.389 535.277 659.389C535.277 659.389 530.22 637.081 540.312 618.367C550.405 599.653 571.825 591.619 571.825 591.619C571.825 591.619 576.882 613.927 566.789 632.641Z" fill="#8597A8"/>
<path d="M559.853 626.484C541.631 637.444 534.614 659.215 534.614 659.215C534.614 659.215 557.139 663.216 575.36 652.255C593.581 641.294 600.599 619.523 600.599 619.523C600.599 619.523 578.074 615.523 559.853 626.484Z" fill="#F5F9FE"/>
<path d="M9 659.493C36.325 656.194 62.6036 653.36 87.8358 650.993L77.861 637.209C81.2245 636.377 96.0022 644.27 96.0022 644.27L82.9118 604.259C99.8283 605.713 108.429 646.567 108.429 646.567L127.329 632.754L118.179 648.283C195.405 641.801 262.099 639.398 318.197 639.311L309.66 627.514C313.023 626.681 327.801 634.575 327.801 634.575L314.71 594.564C331.627 596.018 340.228 636.871 340.228 636.871L359.128 623.059L349.436 639.507C387.872 639.959 426.25 641.817 464.418 645.073C455.783 626.695 426.448 609.216 426.448 609.216C448.851 613.965 460.602 621.922 466.743 629.341C467.292 591.42 458.445 553.728 440.609 518C440.609 518 486.914 589.816 481.006 638.021L480.299 646.581C519.556 650.588 535 660 535 660L9 659.493Z" fill="#8597A8"/>
<path d="M354.316 504.082C340.496 504.082 329.293 492.88 329.293 479.063C329.293 465.245 340.496 454.044 354.316 454.044C368.136 454.044 379.339 465.245 379.339 479.063C379.339 492.88 368.136 504.082 354.316 504.082Z" fill="#25323F"/>
<path d="M381.424 471.14C367.605 471.14 356.401 459.939 356.401 446.122C356.401 432.304 367.605 421.103 381.424 421.103C395.244 421.103 406.447 432.304 406.447 446.122C406.447 459.939 395.244 471.14 381.424 471.14Z" fill="#25323F"/>
<path d="M403.008 466.84C399.769 469.181 396.017 470.711 392.065 471.305C388.113 471.898 384.077 471.536 380.293 470.25C376.51 468.964 373.09 466.791 370.318 463.912C367.547 461.033 365.506 457.532 364.366 453.703C364.797 457.135 365.936 460.44 367.709 463.409C369.483 466.379 371.853 468.948 374.67 470.956C377.487 472.963 380.689 474.365 384.075 475.073C387.461 475.78 390.957 475.778 394.343 475.066C397.728 474.355 400.929 472.949 403.743 470.939C406.558 468.928 408.925 466.355 410.695 463.384C412.465 460.412 413.599 457.106 414.027 453.674C414.454 450.241 414.166 446.758 413.179 443.443C413.739 447.897 413.091 452.419 411.301 456.536C409.512 460.652 406.647 464.212 403.008 466.84Z" fill="#25323F"/>
<path d="M347.852 509.294C336.566 509.294 327.416 500.147 327.416 488.862C327.416 477.578 336.566 468.43 347.852 468.43C359.138 468.43 368.287 477.578 368.287 488.862C368.287 500.147 359.138 509.294 347.852 509.294Z" fill="#FBBEBE"/>
<path d="M340.762 505.542C340.762 505.542 349.103 518.051 347.852 523.472C347.852 523.472 342.43 525.974 342.43 526.808C342.43 527.642 337.425 535.564 337.425 535.564L331.587 543.487L329.084 553.911H341.179L354.524 543.487L367.453 529.309C367.453 529.309 376.211 525.14 380.798 528.475L383.301 530.56C383.301 530.56 374.543 518.885 370.372 516.383C370.372 516.383 362.865 507.21 363.699 498.036L340.762 505.542Z" fill="#FBBEBE"/>
<path d="M344.098 523.054C344.098 523.054 335.757 527.641 332.421 536.397C329.084 545.154 314.071 574.343 314.071 574.343C314.071 574.343 312.82 593.107 313.654 593.941C314.488 594.775 324.08 585.601 325.748 583.099C327.416 580.597 334.089 550.575 334.089 550.575L344.932 533.062L347.018 523.054H344.098Z" fill="#F3AEAE"/>
<path d="M317.824 575.595L314.071 574.344C314.071 574.344 291.133 560.167 289.882 553.912C288.631 547.657 270.281 526.808 269.864 538.067C269.447 549.325 283.209 561.834 283.209 561.834C283.209 561.834 313.237 603.949 314.905 591.857L317.824 575.595Z" fill="#F3AEAE"/>
<path d="M355.776 546.823C355.776 546.823 356.193 558.498 372.458 562.668C372.458 562.668 389.14 585.185 390.808 595.193C392.476 605.2 436.266 656.489 436.266 656.489C436.266 656.489 476.72 661.492 476.72 656.489C476.72 651.485 442.939 647.315 442.939 647.315C442.939 647.315 407.49 594.776 405.821 587.687C404.153 580.598 388.305 528.059 380.799 528.476C380.799 528.476 373.709 525.14 369.538 527.642C365.368 530.144 355.776 546.823 355.776 546.823Z" fill="#FBBEBE"/>
<path d="M306.982 593.942C306.982 593.942 277.788 554.746 271.532 552.244C265.277 549.742 257.353 548.074 252.765 553.912C248.178 559.75 193.961 628.134 193.961 628.134C193.961 628.134 174.777 647.732 165.185 643.98C165.185 643.98 160.18 648.149 171.858 648.983C179.451 649.385 187.059 648.54 194.378 646.481C194.378 646.481 201.468 647.732 206.473 648.983C211.477 650.234 217.733 650.651 217.316 647.315L215.648 633.972C215.648 633.972 258.604 598.529 259.855 583.517C259.855 583.517 259.021 576.429 259.855 577.263C260.689 578.097 278.205 596.861 286.129 601.031C294.053 605.2 313.654 611.038 313.654 611.038L306.982 593.942Z" fill="#FFB8B8"/>
<path d="M306.982 593.942C306.982 593.942 277.788 554.746 271.532 552.244C265.277 549.742 257.353 548.074 252.765 553.912C248.178 559.75 193.961 628.134 193.961 628.134C193.961 628.134 174.777 647.732 165.185 643.98C165.185 643.98 160.18 648.149 171.858 648.983C179.451 649.385 187.059 648.54 194.378 646.481C194.378 646.481 201.468 647.732 206.473 648.983C211.477 650.234 217.733 650.651 217.316 647.315L215.648 633.972C215.648 633.972 258.604 598.529 259.855 583.517C259.855 583.517 259.021 576.429 259.855 577.263C260.689 578.097 278.205 596.861 286.129 601.031C294.053 605.2 313.654 611.038 313.654 611.038L306.982 593.942Z" fill="#F3AEAE"/>
<path d="M311.569 599.361C311.569 599.361 273.2 584.767 268.196 581.431C263.191 578.095 245.258 571.424 236.083 578.929C226.908 586.435 182.284 621.044 167.27 624.38C152.256 627.716 126.399 635.639 126.399 635.639C126.399 635.639 109.717 636.89 127.65 643.978C127.65 643.978 149.754 646.063 153.507 649.399C157.261 652.735 169.772 656.905 170.606 651.484C171.44 646.063 173.943 638.975 178.53 638.141C183.118 637.307 238.168 622.295 246.509 606.033C246.509 606.033 265.276 616.458 276.954 628.55C288.631 640.643 316.156 647.314 316.156 647.314L311.569 599.361Z" fill="#FBBEBE"/>
<path d="M325.331 586.019C325.331 586.019 307.049 590.878 305.555 589.074C304.061 587.27 296.137 597.278 303.644 617.293C311.151 637.308 309.483 646.481 313.654 649.4C317.824 652.319 337.425 647.732 343.264 649.817C349.103 651.902 356.609 653.57 359.112 641.478C361.614 629.385 367.87 608.119 366.619 605.2C365.367 602.281 358.695 595.61 358.695 595.61L344.932 588.521L325.331 586.019Z" fill="#25323F"/>
<path d="M388.514 539.108C388.514 539.108 385.611 530.976 380.221 529.452C379.765 529.328 379.316 529.181 378.875 529.011C376.851 528.207 370.675 526.453 366.202 532.645C360.78 540.15 355.776 548.907 359.946 553.911C364.117 558.915 372.458 561.833 372.458 561.833L378.714 569.756C378.714 569.756 366.202 592.273 366.202 602.697C366.202 602.697 365.785 606.867 358.695 599.362C351.605 591.856 322.592 586.667 322.592 586.667C322.592 586.667 328.668 578.513 324.08 574.76C319.493 571.007 315.293 556.059 326.151 550.19L344.724 522.846L348.06 523.263C348.06 523.263 343.681 527.224 343.264 529.309C342.847 531.394 326.165 545.988 332.838 548.49C339.511 550.992 350.354 545.571 354.942 539.316C357.465 535.876 360.997 531.175 365.469 528.195C367.766 526.697 370.417 525.83 373.156 525.683C375.894 525.536 378.623 526.114 381.067 527.358L382.467 528.058C385.193 529.966 387.332 532.597 388.643 535.655L389.14 536.815L388.514 539.108Z" fill="#25323F"/>
<path d="M360.989 501.58C350.854 501.58 342.639 493.366 342.639 483.233C342.639 473.1 350.854 464.886 360.989 464.886C371.123 464.886 379.339 473.1 379.339 483.233C379.339 493.366 371.123 501.58 360.989 501.58Z" fill="#25323F"/>
<path d="M345.558 489.071C336.575 489.071 329.293 483.377 329.293 476.353C329.293 469.329 336.575 463.635 345.558 463.635C354.541 463.635 361.823 469.329 361.823 476.353C361.823 483.377 354.541 489.071 345.558 489.071Z" fill="#25323F"/>
<path d="M351.606 501.163C350.108 501.163 348.895 499.016 348.895 496.368C348.895 493.719 350.108 491.572 351.606 491.572C353.103 491.572 354.316 493.719 354.316 496.368C354.316 499.016 353.103 501.163 351.606 501.163Z" fill="#A0616A"/>
<path d="M356.192 454.195V487.403H346.6V454.195C346.6 453.602 346.836 453.034 347.255 452.615C347.674 452.195 348.243 451.96 348.836 451.96H353.957C354.55 451.96 355.118 452.195 355.538 452.615C355.957 453.034 356.192 453.602 356.192 454.195Z" fill="#FF6584"/>
<path d="M351.397 504.499C345.639 504.499 340.971 499.831 340.971 494.074C340.971 488.317 345.639 483.65 351.397 483.65C357.155 483.65 361.823 488.317 361.823 494.074C361.823 499.831 357.155 504.499 351.397 504.499Z" fill="#0E8AFD"/>
<path d="M351.397 498.662C348.863 498.662 346.809 496.608 346.809 494.075C346.809 491.542 348.863 489.488 351.397 489.488C353.93 489.488 355.984 491.542 355.984 494.075C355.984 496.608 353.93 498.662 351.397 498.662Z" fill="white"/>
<path d="M351.397 495.326C350.706 495.326 350.146 494.766 350.146 494.075C350.146 493.384 350.706 492.824 351.397 492.824C352.088 492.824 352.648 493.384 352.648 494.075C352.648 494.766 352.088 495.326 351.397 495.326Z" fill="#FF6584"/>
<path opacity="0.1" d="M356.192 454.195V455.713H346.6V454.195C346.6 453.602 346.836 453.034 347.255 452.615C347.674 452.195 348.243 451.96 348.836 451.96H353.957C354.55 451.96 355.118 452.195 355.538 452.615C355.957 453.034 356.192 453.602 356.192 454.195Z" fill="#333333"/>
<path d="M244.78 536.458L269.336 511.906C270.195 511.047 271.36 510.565 272.575 510.565C273.789 510.565 274.954 511.047 275.813 511.906L297.904 533.993C298.763 534.851 299.245 536.016 299.245 537.231C299.245 538.446 298.763 539.61 297.904 540.469L274.96 563.409C274.142 564.227 273.044 564.705 271.888 564.747C270.732 564.789 269.602 564.392 268.727 563.636L245.024 543.162C244.548 542.75 244.161 542.245 243.889 541.677C243.617 541.11 243.464 540.492 243.441 539.863C243.418 539.234 243.525 538.607 243.756 538.021C243.986 537.435 244.335 536.903 244.78 536.458Z" fill="#25323F"/>
<path d="M251.722 540.36L273.2 518.885L290.925 536.607L270.281 557.248L251.722 540.36Z" fill="#F2F2F2"/>
<mask id="mask0" mask-type="alpha" maskUnits="userSpaceOnUse" x="247" y="514" width="48" height="47">
<path d="M247.5 539.5L272.5 514.5L295 537L271.5 560.5L247.5 539.5Z" fill="#F2F2F2"/>
</mask>
<g mask="url(#mask0)">
<rect width="162.448" height="115.833" transform="matrix(-0.711027 0.703164 0.702727 0.71146 329.162 438.385)" fill="white"/>
<path fill-rule="evenodd" clip-rule="evenodd" d="M316.523 609.375L309.861 618.103L311.407 619.07L310.007 620.454L293.048 610.033L305.855 624.56L304.479 625.921L300.148 621.032L296.55 624.46L300.831 629.529L300.143 630.209L295.846 625.124L290.45 630.267L289.478 629.283L293.917 625.054L292.603 623.081L287.997 627.83L287.512 627.338L292.209 622.498L289.661 618.633L284.614 619.216L283.165 622.983L282.582 622.393L283.76 619.316L279.958 619.737L279.23 618.999L289.183 617.874C288.267 616.349 285.94 612.525 284.966 610.895L278.857 618.622L277.869 617.622L280.912 613.77L276.443 610.898C275.655 611.936 274.889 612.952 274.193 613.9L273.189 612.884L274.87 610.637L271.116 610.785L269.529 609.178L276.158 608.911L280.013 603.769L268.548 596.018L263.246 602.817L261.594 601.144L262.155 600.427L258.436 597.947L251.715 591.143L255.827 593.883L261.195 586.37C259.676 585.475 255.614 583.107 254.078 582.195L249.157 588.553L248.169 587.553L251.331 583.453L237.419 575.108L236.736 575.977L235.084 574.305L236.722 572.199L233.724 570.173L232.137 571.321L231.635 570.813L233.114 569.739L226.483 565.276L226.339 565.451L214.048 553.007L216.501 554.665L221.031 550.574L218.614 547.713L219.302 547.033L221.752 549.926L225.584 546.46L222.927 543.448L224.303 542.087L227.025 545.164L232.345 540.357L228.472 537.997L229.871 536.613L233.64 538.914L239.884 529.855L237.9 528.673L240.24 526.359L244.016 528.621L249.924 524.042L246.939 519.734L248.338 518.35L251.462 522.845L257.239 518.363L256.274 512.933C254.691 513.947 252.013 515.689 249.141 517.556L254.096 512.656L256.003 511.419L255.908 510.864L258.478 508.323L258.705 509.654C259.669 509.024 260.958 508.171 262.247 507.318C262.084 506.831 261.85 506.09 261.552 505.283L262.286 504.557L263.042 506.791C264.585 505.783 265.959 504.878 266.499 504.507L269.097 500.479L267.562 499.339L268.25 498.658L269.6 499.657L272.928 494.487L272.57 494.354L274.038 492.902L275.658 493.44L278.236 488.751L279.521 487.48L282.702 488.451L286.653 481.983C286.187 481.925 285.722 481.867 285.256 481.808L286.862 480.22C288.581 480.4 290.337 480.479 292.041 480.414L290.005 477.112L291.404 475.728L291.965 476.664L296.91 474.691L296.543 470.647L297.346 469.852L298.199 479.348C298.339 479.306 298.502 479.242 298.643 479.2C300.651 478.479 302.91 477.185 305.331 475.503L297.873 469.331L298.561 468.65L306.155 474.915C307.026 474.281 307.903 473.608 308.803 472.912L302.386 464.9L303.785 463.517L305.962 466.225L313.577 457.269L311.929 455.463L313.305 454.102L314.863 455.77L316.628 453.7L317.267 450.216L318.254 449.24L317.655 452.49L324.075 444.942L323.209 444.34L323.897 443.659L324.692 444.235L327.225 441.244L326.696 440.892L329.036 438.578L329.532 438.897L341.824 451.341L336.614 458.049L339.079 462.611L347.136 456.719L347.638 457.227L345.219 459.003L348.165 463.317L350.569 460.195L352.221 461.867L349.574 465.294L363.017 474.266L363.654 473.442L364.642 474.442L364.179 475.03L367.2 477.033L373.921 483.837L363.003 476.548L357.324 483.883L371.222 494.511L377.056 487.057L378.708 488.729L373.36 495.573L385.007 495.107L386.594 496.714L375.041 497.184L384.91 503.824L388.69 498.79L389.694 499.806C388.164 501.838 386.899 503.542 386.088 504.604L390.281 507.425L393.37 503.528L394.358 504.528L393.994 504.986L394.731 504.905L395.459 505.643L393.288 505.878L391.459 508.205L396.775 511.796L398.122 508.293L398.705 508.883L397.424 512.224L401.409 514.927L403.006 513.283L403.492 513.775L401.987 515.328L403.655 516.466L404.949 515.251L405.921 516.234L404.849 517.262L410.606 521.162L408.266 523.476L402.59 519.658L400.195 522.513L405.429 526.25L404.74 526.931L401.129 524.376L399.785 531.831L398.799 532.806L400.438 523.86L399.572 523.259L391.444 532.982L394.876 536.686L393.499 538.047L390.197 534.474L382.959 543.123L385.356 546.101L383.956 547.485L382.717 545.955L378.086 549.53L380.148 551.251L379.46 551.931L378.824 551.426L378.909 552.476L378.106 553.27L377.874 550.647L377.294 550.152L370.948 555.067L372.968 558.352L371.568 559.736L365.243 549.429L355.913 559.725C359.323 561.02 363.773 562.357 368.403 562.866L366.797 564.454C364.863 564.195 362.989 563.813 361.199 563.378L357.842 569.162L361.062 570.126L359.777 571.397L360.106 570.812L353.65 568.867L350.126 573.746L355.579 575.548L354.111 577L343.783 573.569L341.701 575.271L349.798 581.265L349.11 581.946L345.872 579.54L342.13 582.042L343.833 587.164L343.099 587.89C342.446 585.943 341.63 583.509 341.335 582.569L338.82 584.246L340.025 590.93L337.456 593.471L336.926 590.592L325.718 597.657L328.766 599.731L335.621 595.286L330.666 600.186C330.365 600.386 330.064 600.587 329.724 600.793L329.863 600.98L328.463 602.364L328.095 601.853C324.69 604.053 321.325 606.247 319.31 607.559L321.742 609.011L319.402 611.325L316.523 609.375ZM313.533 603.869L320.086 595.995L315.741 593.065L309.222 601.294L313.533 603.869ZM322.637 582.096L320.157 580.595L313.492 589.228L315.777 590.76L322.637 582.096ZM316.932 591.564L318.792 592.804L323.366 587.243L321.258 586.119L316.932 591.564ZM340.705 564.164L344.059 560.718L341.458 559.141L339.556 563C339.796 563.151 339.997 563.309 340.191 563.506C340.386 563.703 340.557 563.922 340.705 564.164ZM341.302 566.876C341.28 567.221 341.219 567.573 341.142 567.909L346.164 567.804L345.671 562.393L341.302 566.876ZM337.138 562.344L341.487 553.571L332.484 558.78L334.45 562.928C335.375 562.533 336.281 562.349 337.138 562.344ZM377.601 511.987L375.408 511.466L363.136 520.069L368.359 522.326L377.601 511.987ZM369.636 522.98L372.89 524.851L375.006 521.851L372.555 519.737L369.636 522.98ZM330.351 453.867C328.14 456.313 325.531 459.088 322.718 461.934L323.227 462.403L333.237 456.101L330.351 453.867ZM332.008 449.897L328.135 447.537L321.251 455.673C321.887 456.179 323.567 457.467 324.443 458.124C327.39 455.048 329.997 452.178 332.008 449.897ZM320.663 474.177L325.404 480.768C327.631 478.89 334.304 473.295 336.7 471.314L329.826 466.283L320.663 474.177ZM323.768 462.904L327.602 466.373L329.459 464.763L330.855 462.962L328.658 459.82L323.768 462.904ZM325.797 481.351L327.516 483.735L339.752 473.579L337.27 471.755L325.797 481.351ZM277.923 527.918L282.398 529.878L289.116 526.119C288.374 523.806 287.48 521.708 286.934 520.466L277.923 527.918ZM282.055 517.64L277.677 521.288L279.243 523.792L283.751 520.046L282.055 517.64ZM282.745 558.51L286.822 552.858L279.013 549.82L275.366 554.529C276.652 555.234 279.822 556.928 282.745 558.51ZM274.757 555.293L270.276 561.086L281.457 558.909L274.757 555.293ZM321.938 510.867L313.421 518.221L314.994 521.558L324.755 512.295L321.938 510.867ZM317.696 506.572L312.199 515.606L312.81 516.914L320.322 510.424L317.696 506.572ZM289.228 550.475L293.418 552.1L297.52 544.867L293.318 543.643L289.228 550.475ZM292.597 543.415L288.958 542.347C287.801 545.079 286.594 547.667 285.881 549.149L288.553 550.202L292.597 543.415ZM300.281 543.757L301.362 539.48L294.928 539.393L294.088 541.941L300.281 543.757ZM301.026 543.962L301.391 544.055L308.517 537.818L308.715 531.27L303.779 532.975L301.026 543.962ZM309.4 537.334L317.405 534.052L315.085 529.087L309.603 530.975C309.544 532.2 309.417 536.02 309.4 537.334ZM308.779 530.465C308.818 529.907 308.86 528.894 308.91 528.164L304.686 529.489L304.022 532.122L308.779 530.465ZM309.628 530.176L314.727 528.406L313.881 526.585L309.758 527.875L309.628 530.176ZM320.88 534.084L325.703 526.754L318.152 528.291L320.88 534.084ZM326.322 525.819L332.561 516.343L325.419 512.646L315.321 522.211L317.808 527.53L326.322 525.819ZM324.48 506.828L319.097 499.22L315.676 501.954L321.035 509.813L324.48 506.828ZM325.538 507.76L322.699 510.211L327.854 512.86L329.893 509.644L325.538 507.76ZM328.501 513.195L333.081 515.537L335.379 512.033L330.57 509.918L328.501 513.195ZM333.793 517.036L344.761 520.611L346.734 517.007L336.686 512.619L333.793 517.036ZM333.273 517.845L330.433 522.177L335.264 523.947C336.07 522.696 337.553 520.387 338.171 519.452L333.273 517.845ZM334.923 525.805C334.39 526.688 333.466 528.186 332.377 529.976L338.347 531.429L341.185 528.104L334.923 525.805ZM334.224 525.553L329.36 523.751L325.133 530.169L329.98 532.505L334.224 525.553ZM324.614 530.976L321.593 535.585L324.447 541.642L329.501 533.306L324.614 530.976ZM317.684 534.75L313.526 536.463L315.725 541.582L318.83 537.15L317.684 534.75ZM312.671 536.788L309.088 538.257L302.207 544.283L311.864 547.082L315.097 542.458L312.671 536.788ZM306.076 547.333L303.685 551.156L307.724 552.995L310.731 548.693L306.076 547.333ZM305.37 547.12L298.234 545.037L294.102 552.332L300.558 554.828L305.37 547.12ZM298.643 557.434L293.567 563.911L304.163 564.906L305.242 559.983L298.643 557.434ZM296.378 556.564L287.497 553.128L283.367 558.865C285.475 559.989 287.369 561.033 288.294 561.511L294.421 559.083L296.378 556.564ZM283.127 559.817L282.843 563.663L287.112 561.97L283.127 559.817ZM284.507 548.635C285.998 545.508 289.246 538.374 290.22 534.494C290.27 534.315 290.303 534.119 290.337 533.924L281.394 536.026L279.601 546.745L284.507 548.635ZM286.027 533.321L285.378 529.037L282.639 530.579L281.701 534.359L286.027 533.321ZM286.878 533.127L290.369 532.3C290.297 530.621 289.849 528.698 289.3 526.81L286.204 528.543L286.878 533.127ZM291.859 534.36C291.428 536.082 290.597 538.363 289.648 540.662L293.343 541.74L296.479 532.059L292.014 533.461C291.96 533.774 291.929 534.064 291.859 534.36ZM295.186 538.558L301.565 538.635L303.781 529.767L297.383 531.783L295.186 538.558ZM302.163 528.675L300.503 524.515L296.392 526.506L297.472 530.17L302.163 528.675ZM300.223 523.817L298.893 520.497L294.625 520.537L296.174 525.779L300.223 523.817ZM303.954 528.099L313.227 525.184L309.25 516.704L301.691 522.365L303.954 528.099ZM308.903 516.082L304.215 506.102L297.418 511.754L301.406 521.714L308.903 516.082ZM311.815 514.852L317.237 505.925L314.947 502.55L308.459 507.735L311.815 514.852ZM318.705 498.641L316.672 495.757L306.726 504.006L308.158 507.062L318.705 498.641ZM315.481 493.726L314.064 490.914L304.616 500.906L305.22 502.253L315.481 493.726ZM325.421 504.797L326.677 492.892L324.021 489.652L318.161 494.508L325.421 504.797ZM322.655 487.764L321.031 485.156C318.979 486.797 316.648 488.615 315.496 489.56L316.948 492.5L322.655 487.764ZM324.776 489.039L327.26 492.059L330.368 489.375L327.555 486.711L324.776 489.039ZM327.517 492.775L326.201 505.355L337.244 495.828L330.909 489.874C329.888 490.722 328.1 492.264 327.517 492.775ZM327.127 506.386L347.009 515.083L348.707 511.201L329.874 504.026L327.127 506.386ZM348.056 517.614L343.027 526.801L345.514 527.712L350.237 518.537L348.056 517.614ZM344.313 521.444L338.859 519.642L335.946 524.176L341.668 526.296L344.313 521.444ZM341.899 528.365L339.015 531.735L343.03 534.377L344.76 529.425L341.899 528.365ZM338.136 532.314L331.896 530.771C330.485 533.107 328.863 535.781 327.435 538.1L337.069 543.676L340.443 541.766L342.703 535.285L338.136 532.314ZM332.62 547.85L334.414 552.007L340.803 548.605L340.25 543.545L332.62 547.85ZM336.094 544.255L326.924 538.966C326.075 540.356 325.332 541.578 324.799 542.461L327.83 548.927L336.094 544.255ZM319.508 538.615L313.193 547.648L317.051 547.559L322.154 544.231L319.508 538.615ZM312.588 548.508L306.628 557.027L317.664 551.947L316.698 548.398L312.588 548.508ZM307.189 553.782L303.205 551.953L301.235 555.101L305.194 556.63L307.189 553.782ZM306.007 560.299L303.654 570.956L304.783 571.135C307.633 567.409 310.112 564.18 311.461 562.424L306.007 560.299ZM303.994 565.79L292.948 564.754L289.869 568.707L302.895 570.831L303.994 565.79ZM289.238 569.492L288.259 570.751L299.621 577.892C301.144 575.899 302.691 573.884 304.184 571.953L289.238 569.492ZM295.034 576.141L290.3 582.735L294.049 585.153C295.543 583.222 297.264 580.969 299.053 578.649L295.034 576.141ZM298.616 581.515L295.257 585.874L302.03 589.287L304.766 585.675L298.616 581.515ZM294.689 586.626L291.55 590.702L298.014 594.584L301.439 590.063L294.689 586.626ZM293.458 585.932L289.693 583.498L286.118 587.454L290.342 589.986C291.078 589.032 292.138 587.626 293.458 585.932ZM289.093 583.12L286.578 581.491L283.119 585.657L285.518 587.076L289.093 583.12ZM285.977 581.115L282.108 578.621L278.688 583.008L282.496 585.303L285.977 581.115ZM289.699 582.358L294.433 575.764L287.652 571.516L282.698 577.841L289.699 582.358ZM292.592 561.407L282.726 565.33L282.041 574.921L292.592 561.407ZM281.871 565.664L269.043 570.766L268.757 574.517L281.592 569.376L281.871 565.664ZM281.988 563.989L282.318 559.547L269.681 561.996L269.16 569.091L281.988 563.989ZM265.804 558.669L270.716 552.806C269.827 552.227 268.986 551.698 268.554 551.444L263.97 557.501L265.804 558.669ZM266.387 559.029L268.854 560.608L273.533 554.555C273.004 554.203 272.163 553.673 271.306 553.127L266.387 559.029ZM274.118 553.819L277.598 549.308L271.841 547.061L269.129 550.651L274.118 553.819ZM278.051 546.139L279.669 536.436L272.53 538.116L270.164 543.113L278.051 546.139ZM280.833 534.538L281.807 530.658L277.101 528.602L268.107 536.071C268.3 536.496 268.431 536.95 268.461 537.439L280.833 534.538ZM277.753 525.036L273.882 518.914L268.661 523.04L272.645 529.277L277.753 525.036ZM292.063 531.86L296.568 530.452L293.667 520.583L288.998 520.63C290.178 523.385 291.932 528.1 292.063 531.86ZM298.563 519.662L295.911 512.983L288.407 519.205C288.474 519.365 288.558 519.542 288.658 519.734L298.563 519.662ZM293.299 512.128L295.718 510.124L295.212 502.036L288.515 507.331L293.299 512.128ZM296.54 509.439L302.823 504.231L296.075 501.991L296.54 509.439ZM303.196 502.405L297.839 490.784L292.884 498.99L303.196 502.405ZM304.281 500.2L309.471 494.711L305.199 487.495L300.349 491.675L304.281 500.2ZM310.166 493.99L313.723 490.246L310.22 483.209L305.953 486.878L310.166 493.99ZM315.17 488.912L320.637 484.575L319.013 481.967L313.811 486.204L315.17 488.912ZM323.408 487.152L326.027 484.983L324.308 482.599C323.692 483.078 322.809 483.79 321.794 484.599L323.408 487.152ZM338.238 496.79L330.657 503.348L342.119 507.699L344.751 502.925L338.238 496.79ZM342.795 507.969L349.186 510.399L350.689 508.524L345.308 503.442L342.795 507.969ZM349.886 510.65L355.045 512.614L351.199 508.995C350.766 509.521 350.228 510.215 349.886 510.65ZM349.383 511.472L347.679 515.394L358.133 519.964L359.627 516.931L356.831 514.284L349.383 511.472ZM350.868 518.851L346.174 527.965L352.898 530.456L357.253 521.643L350.868 518.851ZM345.476 529.691L341.449 541.224L349.985 536.414L352.095 532.123L345.476 529.691ZM351.924 537.968L347.859 546.202L351.57 546.746L356.227 540.487L351.924 537.968ZM348.849 538.707L341.095 543.069L341.625 548.151L345.064 546.307L348.849 538.707ZM334.693 552.706L336.082 555.903L342.084 552.43L344.56 547.453L334.693 552.706ZM331.777 548.328L328.449 550.193L332.182 558.105L335.245 556.339L331.777 548.328ZM322.462 544.865L317.553 548.067L320.464 558.865L327.099 554.702L322.462 544.865ZM317.841 552.678L307.364 557.497L320.507 562.585L317.841 552.678ZM312.853 562.962L307.16 570.374L313.442 574.209L319.897 565.686L312.853 562.962ZM313.482 576.499L307.119 584.931L310.542 587.25L315.099 577.493L313.482 576.499ZM312.281 575.742L305.983 571.891L299.797 579.953L305.947 584.113L312.281 575.742ZM305.944 586.452L299.239 595.32L302.982 597.549L309.575 588.889L305.944 586.452ZM303.932 601.861L300.89 605.485L305.679 608.268L308.691 604.706L303.932 601.861ZM303.33 601.483L295.882 597.019L292.885 600.826L300.288 605.107L303.33 601.483ZM294.675 596.302L289.604 593.279C288.688 594.509 287.157 596.541 285.355 598.94L290.464 601.633L294.675 596.302ZM288.418 592.534L282.178 588.788L274.729 597.775L281.223 602.145L288.418 592.534ZM276.26 582.295L281.122 576.061L281.567 570.176L268.733 575.317L268.545 577.836L276.26 582.295ZM267.714 579.566L262.967 586.238C264.438 587.084 268.195 589.235 270.01 590.292L275.062 583.837L267.714 579.566ZM266.938 576.896L267.873 564.206L260.837 573.336L266.938 576.896ZM267.696 562.146L260.335 557.402L251.619 567.999L259.606 572.642L267.696 562.146ZM255.88 560.605L251.061 557.333L245.526 564.492L250.387 567.302L255.88 560.605ZM249.683 555.296L251.958 552.365L247.796 549.804L245.352 552.61L249.683 555.296ZM251.653 556.555C253 557.46 255.398 559.107 256.489 559.844L259.117 556.628L254.064 553.394L251.653 556.555ZM253.139 550.803L257.476 545.185C257.412 545.12 257.331 545.038 257.266 544.972C256.764 544.464 256.439 543.813 256.254 543.121L249.52 545.762L250.195 549.016L253.139 550.803ZM255.254 551.893L263.352 557.108L271.141 546.812L264.916 544.412C263.247 545.706 261.314 546.321 259.673 546.129L255.254 551.893ZM264.24 541.933C265.754 540.435 266.118 538.325 265.049 537.243C263.981 536.161 261.867 536.501 260.353 537.998C258.839 539.495 258.475 541.606 259.544 542.688C260.613 543.77 262.726 543.43 264.24 541.933ZM267.229 541.928L269.511 542.815L271.639 538.312L268.406 539.079C268.228 540.001 267.831 540.977 267.229 541.928ZM266.54 534.344L271.894 529.893L267.916 523.617L262.08 528.222L263.099 533.891C264.351 533.689 265.566 533.817 266.54 534.344ZM274.155 516.897L272.556 514.589L261.164 523.165L261.792 526.693L274.155 516.897ZM275.405 517.702L277.306 520.683L281.661 517.057L279.703 514.294L275.405 517.702ZM284.505 519.431L292.523 512.765L287.746 507.928L280.433 513.702L284.505 519.431ZM286.513 507.136L278.158 503.406L276.022 507.074L282.506 510.288L286.513 507.136ZM287.328 506.496L293.894 501.299L281.71 497.273L278.599 502.618L287.328 506.496ZM292.201 498.755L294.754 494.544L290.533 492.658L287.954 497.347L292.201 498.755ZM295.235 493.748L297.495 490.022L294.996 484.553L290.975 491.868L295.235 493.748ZM299.754 490.38L309.86 481.649L308.126 479.021L298.001 486.539L299.754 490.38ZM313.503 485.571L318.659 481.379L316.435 477.842L311.677 481.931L313.503 485.571ZM319.783 481.368L321.407 483.976L323.875 482.021L322.065 479.5L319.783 481.368ZM321.67 478.917L319.165 475.463L317.155 477.192L319.395 480.746L321.67 478.917ZM329.061 485.479L331.841 488.11C333.007 487.087 335.378 485.034 336.321 484.198L333.576 481.695L329.061 485.479ZM350.781 495.993L353.098 498.11C353.861 497.322 355.671 495.435 356.435 494.647L354.014 492.472L350.781 495.993ZM352.772 491.719L345.451 491.148L349.745 495.036L352.772 491.719ZM353.629 498.553L356.39 501.073C357.352 499.797 358.383 498.454 359.338 497.217L356.966 495.091L353.629 498.553ZM356.921 501.521L360.766 504.266L363.727 500.009L359.899 497.603L356.921 501.521ZM362.261 506.514L360.599 508.871L362.748 510.634L364.123 507.848L362.261 506.514ZM361.667 506.095L356.337 502.259L354.866 504.167L360.012 508.413L361.667 506.095ZM354.291 504.964L352.396 507.453L360.509 515.116L362.287 511.544L354.291 504.964ZM355.799 501.853L352.973 499.268C352.111 500.185 349.799 502.666 348.655 503.895L351.911 506.962C352.699 505.923 354.154 503.998 355.799 501.853ZM352.424 498.803L350.123 496.703L345.899 501.333L348.122 503.446L352.424 498.803ZM349.091 495.75L344.022 491.169L339.437 495.25L344.851 500.364L349.091 495.75ZM343.513 490.701L341.471 488.863L337.263 493.187L338.951 494.759L343.513 490.701ZM340.453 487.922L336.868 484.661L332.388 488.573L336.267 492.224L340.453 487.922ZM341.189 475.398L334.369 481.073L337.065 483.527L343.44 477.126L341.189 475.398ZM337.572 483.999L341.124 487.228L347.739 480.426L343.993 477.552L337.572 483.999ZM342.158 488.182L344.394 490.216L349.123 490.596L349.621 481.872L348.865 481.29L342.158 488.182ZM349.975 490.629L353.544 490.891L356.807 487.307L350.433 482.461L349.975 490.629ZM354.654 491.738L359.914 496.421C361.218 494.71 362.377 493.175 363.135 492.198L357.894 488.177L354.654 491.738ZM349.808 477.928L352.308 474.904L345.329 470.593L343.418 473.066L349.808 477.928ZM363.712 492.602L360.491 496.824L367.409 501.165L369.483 496.975L363.712 492.602ZM364.328 500.387L361.344 504.666L364.547 506.944L366.97 502.052L364.328 500.387ZM366.145 509.251L361.209 519.221L362.395 519.733L374.536 511.226L366.145 509.251ZM360.778 520.071L358.355 524.963L363.863 527.327L367.658 523.088L360.778 520.071ZM357.529 526.65L355.432 530.863L364.583 535.49L368.283 531.248L357.529 526.65ZM360.769 540.953L362.36 541.875L371.404 532.575L368.976 531.54L360.769 540.953ZM363.945 536.223L355.018 531.73L352.789 536.268L360.186 540.589L363.945 536.223ZM356.827 540.864L348.498 552.082L350.818 553.742L360.954 543.297L356.827 540.864ZM350.973 547.559L347.428 547.046L345.175 551.607L347.8 551.831L350.973 547.559ZM347.675 552.671L344.79 552.413L341.898 558.255L344.755 559.999L350.17 554.417L347.675 552.671ZM333.201 566.529C331.687 568.027 331.323 570.137 332.391 571.219C333.46 572.301 335.573 571.961 337.088 570.464C338.602 568.967 338.966 566.856 337.897 565.774C336.805 564.715 334.715 565.032 333.201 566.529ZM330.335 566.384C330.69 565.871 331.1 565.368 331.582 564.891C331.651 564.823 331.72 564.755 331.789 564.687L327.386 555.363L320.643 559.601L321.574 563.023L330.335 566.384ZM321.249 566.226L314.642 574.964L315.243 575.342L328.943 570.48C328.955 570.079 328.983 569.695 329.074 569.281L321.249 566.226ZM316.074 575.818L323.836 580.555L329.748 573.088C329.347 572.545 329.093 571.92 329.003 571.232L316.074 575.818ZM321.826 585.36L323.973 586.478L329.512 579.735L326.668 579.243L321.826 585.36ZM319.541 580.198L315.74 577.864L311.16 587.644L312.899 588.808L319.541 580.198ZM307.997 600.558L314.562 592.283L310.152 589.287L303.588 597.885L307.997 600.558ZM312.546 612.234L315.275 608.661L309.275 605.066L306.286 608.605L312.546 612.234ZM308.635 617.368L311.387 613.772L302.048 608.357L299.536 611.782L308.635 617.368ZM298.92 611.387L301.409 607.985L291.655 602.334L289.197 605.446L298.92 611.387ZM294.603 624.371L299.204 619.984L297.213 617.739L290.692 618.483C291.603 619.819 293.715 623.013 294.603 624.371ZM290.214 617.722L296.578 617.003L287.892 607.152L285.584 610.05L290.214 617.722ZM277.574 609.288L282.076 612.193L289.839 602.377L284.746 599.7C282.559 602.673 279.991 606.088 277.574 609.288ZM274.106 597.425L281.532 588.46L276.684 585.573L269.705 594.484L274.106 597.425ZM266.345 594.984L269.418 591.07L266.132 589.167L263.177 593.062L266.345 594.984ZM263.319 598.852L265.739 595.746L262.563 593.863L260.298 596.849L263.319 598.852ZM256.977 594.591L259.726 596.41L265.515 588.772L262.398 586.994L256.977 594.591ZM261.72 585.524L266.467 578.853L259.616 574.9L254.619 581.365L261.72 585.524ZM251.895 582.603L258.392 574.168L252.596 570.825L246.216 579.241L251.895 582.603ZM217.068 555.007L221.79 558.181L224.855 555.085L221.421 551.059L217.068 555.007ZM225.871 556.026L222.967 558.962L232.29 565.234L234.653 562.897L225.871 556.026ZM235.226 563.339L232.886 565.653L238.682 569.547L240.373 567.356L235.226 563.339ZM240.94 566.596L242.069 565.123L230.204 551.641L226.56 555.343L240.94 566.596ZM222.163 550.387L225.564 554.381L229.278 550.612L226.019 546.899L222.163 550.387ZM244.352 566.011L237.982 574.255L245.654 578.854L252.012 570.46L244.352 566.011ZM243.29 563.56L249.075 556.057C247.754 555.224 245.481 553.842 244.689 553.361L239.513 559.323L243.29 563.56ZM239.058 558.77L247.18 549.409L243.875 547.394L235.889 555.194L239.058 558.77ZM232.924 540.624L227.467 545.567L230.905 549.46L237.158 543.211L232.924 540.624ZM237.735 543.61L231.321 550.018L235.409 554.662L243.235 547.02L237.735 543.61ZM240.447 530.102L234.203 539.161L238.365 541.722L244.447 532.499L240.447 530.102ZM238.967 542.105L248.099 547.724L245.025 532.905L238.967 542.105ZM247.119 534.105L249.365 545.01L256.138 542.363C256.09 541.535 256.206 540.642 256.534 539.734L247.119 534.105ZM244.635 528.878L258.171 536.981C258.315 536.805 258.476 536.647 258.659 536.465L250.32 524.487L244.635 528.878ZM251.859 523.295L260.149 535.223C260.195 535.178 260.234 535.171 260.28 535.126L257.397 518.984L251.859 523.295ZM258.977 511.032L261.008 522.408L266.212 518.494L262.712 508.569L258.977 511.032ZM263.509 508.043C264.22 510.095 266.425 516.276 266.999 517.913L272.14 514.027L266.603 505.988L263.509 508.043ZM275.655 515.706L281.668 510.958L275.534 507.917L273.128 512.046L275.655 515.706ZM272.693 511.376L277.459 503.163L273.541 502.272L270.241 507.838L272.693 511.376ZM270.335 500.998L268.001 504.603L269.781 507.186L272.834 502.059L270.335 500.998ZM274.334 494.809L270.849 500.233L273.65 501.417L277.916 502.384L281.026 497.039L274.334 494.809ZM279.297 488.22L276.382 493.533L278.993 494.386L282.23 489.078L279.297 488.22ZM283.606 489.598L280.398 494.845L287.256 497.105L289.865 492.354L283.606 489.598ZM288.27 481.966L284.086 488.794L290.305 491.556L294.603 483.741L293.722 481.793C291.896 482.01 290.081 482.055 288.27 481.966ZM297.035 475.275L292.417 477.119L294.23 480.057C295.319 479.92 296.367 479.695 297.404 479.414L297.035 475.275ZM298.76 480.606C297.748 480.958 296.687 481.262 295.64 481.487L297.686 485.946L307.726 478.48L306.337 476.386C303.632 478.284 301.056 479.762 298.76 480.606ZM307.145 475.782L310.62 480.999L320.458 472.502L316.69 467.769C313.512 470.749 310.257 473.515 307.145 475.782ZM306.884 467.161L310.357 471.504C313.353 469.028 316.409 466.2 319.323 463.318L314.528 458.143L306.884 467.161ZM317.388 467.144L321.189 471.91L326.867 467.007L322.025 462.656C320.534 464.13 318.958 465.657 317.388 467.144ZM317.792 454.331L315.837 456.622L317.776 458.723L320.073 455.998C319.567 455.623 318.467 454.831 317.792 454.331ZM318.239 459.235L320.722 461.933C321.777 460.889 322.793 459.852 323.77 458.821L320.627 456.419L318.239 459.235ZM328.42 441.813L318.416 453.586L320.697 455.252L330.737 443.378L328.42 441.813ZM331.313 443.775L328.757 446.788L332.647 449.165C333.667 447.994 334.497 447.044 335.113 446.337L331.313 443.775ZM335.671 456.773L340.806 450.172L336.292 447.117C335.196 448.395 333.362 450.533 330.991 453.137L335.671 456.773ZM333.825 456.559L329.515 459.266L331.492 462.14L335.064 457.538L333.825 456.559ZM335.993 458.659L331.177 464.848L341.175 472.17L342.426 470.544L335.993 458.659ZM344.433 459.356L339.427 463.01L343.062 469.721L347.544 463.928L344.433 459.356ZM361.857 475.57L348.415 466.598L345.919 469.811L359.71 478.309L361.857 475.57ZM359.119 479.091L352.892 475.266L350.323 478.358L356.207 482.846L359.119 479.091ZM371.497 498.417L366.947 507.584L378.972 510.438L382.858 506.109L371.497 498.417ZM384.036 506.889L373.81 518.299L376.261 520.412L388.294 509.777L384.036 506.889ZM376.81 520.874L380.042 523.642L382.821 520.763L380.068 517.976L376.81 520.874ZM388.927 510.185L380.82 517.359L383.525 520.097L391.484 511.902L388.927 510.185ZM395.817 525.382L401.451 518.643L395.895 514.901L390.566 521.305L395.817 525.382ZM395.316 514.497L393.424 513.224L387.734 519.078L390.011 520.878L395.316 514.497ZM393.277 528.412L395.193 526.128L389.965 522.028L387.996 524.397L393.277 528.412ZM387.442 523.971L389.411 521.603L387.046 519.76L384.87 522.01L387.442 523.971ZM389.819 532.579L392.047 529.922L386.734 525.874L384.583 528.196L389.819 532.579ZM386.162 525.432L383.502 523.428L374.641 532.547L376.915 535.354L386.162 525.432ZM389.194 533.324L383.887 528.915L377.349 535.932L382.094 541.837L389.194 533.324ZM372.794 531.137L378.691 525.079L375.531 522.338L370.175 530L372.794 531.137ZM372.33 525.661L368.973 523.731L365.224 527.924L369.475 529.748L372.33 525.661ZM373.299 533.942L364.042 543.485L365.346 545.632L375.518 536.739L373.299 533.942ZM375.94 537.26L365.699 546.22L367.596 549.335L378.336 540.237L375.94 537.26ZM382.316 545.181L379.233 541.325L368.362 550.521L370.637 554.202L382.316 545.181ZM364.894 548.572L362.635 544.907L350.651 557.245C351.671 557.727 353.257 558.46 355.236 559.225L364.894 548.572ZM357.174 568.713L360.509 562.952C359.748 562.732 358.986 562.513 358.264 562.287L354.263 567.832L357.174 568.713ZM356.86 561.835C353.374 560.648 350.664 559.374 349.284 558.665L346.481 561.566L347.067 567.76L352.685 567.617L356.86 561.835ZM348.76 573.05L352.058 568.492L346.841 568.628L345.069 571.839L348.76 573.05ZM344.347 571.613L345.984 568.633L340.901 568.767C340.719 569.271 340.488 569.726 340.195 570.21L344.347 571.613ZM343.005 573.104L339.012 571.77C338.897 571.883 338.805 571.974 338.691 572.088C338.14 572.632 337.525 573.111 336.907 573.495L337.626 577.483L343.005 573.104ZM345.255 578.915L340.918 575.717L337.752 578.297L338.658 583.3L345.255 578.915ZM335.019 579.8L334.076 574.575C332.863 574.77 331.694 574.597 330.782 574.04L327.306 578.418L335.019 579.8ZM336.778 589.664L336.261 586.707L331.414 589.88L332.53 592.342L336.778 589.664ZM325.061 597.036L331.719 592.85L330.58 590.411L322.776 595.504L325.061 597.036ZM321.518 594.646L335.991 585.195L335.18 580.746L330.304 579.896L319.37 593.205L321.518 594.646ZM327.021 600.675L321.264 596.775L318.192 600.461L322.736 603.454L327.021 600.675ZM317.982 606.536L321.818 604.039L317.547 601.229L314.742 604.587L317.982 606.536Z" fill="#F5F9FE"/>
</g>
</svg>
