<svg width="660" height="777" viewBox="0 0 660 777" fill="none" xmlns="http://www.w3.org/2000/svg">
<path d="M365.5 563C419.348 563 463 556.06 463 547.5C463 538.94 419.348 532 365.5 532C311.652 532 268 538.94 268 547.5C268 556.06 311.652 563 365.5 563Z" fill="#EEF7FF"/>
<path d="M120 509C172.467 509 215 506.314 215 503C215 499.686 172.467 497 120 497C67.5329 497 25 499.686 25 503C25 506.314 67.5329 509 120 509Z" fill="#EEF7FF"/>
<path d="M179.78 534.379C192.483 534.379 202.78 533.036 202.78 531.379C202.78 529.722 192.483 528.379 179.78 528.379C167.078 528.379 156.78 529.722 156.78 531.379C156.78 533.036 167.078 534.379 179.78 534.379Z" fill="#EEF7FF"/>
<path d="M168.504 523.556L169.555 526.482L170.605 530.19C170.605 530.19 173.337 531.555 173.547 530.58C173.757 529.604 172.496 529.409 172.496 529.409L172.076 527.458L175.228 522.19L168.504 523.556Z" fill="#38495B"/>
<path d="M185.314 522.862L187.032 530.457C187.032 530.457 188.368 531.198 189.322 530.827C190.276 530.457 188.749 529.531 188.749 529.531C188.749 529.531 189.322 524.9 192.184 524.344C195.046 523.788 185.314 522.862 185.314 522.862Z" fill="#38495B"/>
<path d="M196.395 513.442C196.395 513.442 192.506 514.809 189.006 514.028C189.006 514.028 182.199 513.052 181.616 512.856C181.032 512.661 174.421 512.27 170.92 512.856C170.92 512.856 161.197 505.24 166.642 501.921C166.642 501.921 168.976 503.092 169.559 502.311C169.778 502.018 169.668 501.643 169.446 501.288C169.195 500.903 168.854 500.584 168.454 500.361C168.053 500.137 167.604 500.015 167.145 500.005C165.113 499.929 161.471 500.662 163.124 507.334C163.596 509.174 164.464 510.888 165.667 512.354C166.552 513.451 167.468 514.968 167.031 516.176C166.253 518.324 166.059 521.644 166.059 521.644L163.336 525.745C163.336 525.745 161.78 530.822 161.78 531.018C161.78 531.213 163.896 531.627 164.308 531.213C164.697 530.822 163.725 530.041 163.725 530.041C163.725 530.041 164.503 528.479 165.864 528.088C167.225 527.698 170.92 526.331 171.504 525.745C172.087 525.159 184.533 521.644 188.033 524.964C189.997 526.848 192.076 528.609 194.256 530.236C194.256 530.236 195.228 531.603 196.395 531.603C197.562 531.603 197.756 529.846 196.395 529.651C195.034 529.455 193.089 524.769 193.089 524.769C193.089 524.769 192.506 521.253 195.423 520.668C197.031 520.345 197.989 520.318 198.525 520.36C198.739 520.378 198.954 520.352 199.158 520.285C199.362 520.217 199.551 520.109 199.712 519.967C200.059 519.632 200.37 519.261 200.64 518.86C200.711 518.759 200.757 518.641 200.773 518.518C200.79 518.395 200.777 518.269 200.735 518.152C200.476 517.442 200.261 516.717 200.09 515.981C199.896 515.004 198.34 514.223 198.34 514.223C198.34 514.223 197.951 511.489 197.368 512.27C197.069 512.681 196.744 513.073 196.395 513.442Z" fill="#465C72"/>
<path d="M469.5 529C497.943 529 521 525.642 521 521.5C521 517.358 497.943 514 469.5 514C441.057 514 418 517.358 418 521.5C418 525.642 441.057 529 469.5 529Z" fill="#EEF7FF"/>
<path d="M10.4961 374.761C20.7227 414.235 42.3718 448.358 76.5862 464.899C147.689 499.269 308.046 481.54 427.725 461.189C489.621 450.669 544.035 421.638 583.563 380.736L10.4961 374.761Z" fill="#EEF7FF"/>
<path d="M638.089 188.953H572.423C569.301 188.953 566.75 186.648 566.75 183.826C566.75 181.003 569.301 178.704 572.423 178.704H583.775C580.653 178.704 578.096 176.393 578.096 173.576C578.096 170.76 580.653 168.455 583.775 168.455H575.663C572.547 168.455 569.99 166.144 569.99 163.327C569.99 160.511 572.547 158.2 575.663 158.2H609.966C602.361 155.007 593.471 152.737 583.233 151.549C489.75 140.683 456.384 147.88 444.614 155.254C429.941 164.548 413.646 171 396.579 174.27C338.919 185.008 231.086 197.932 133.35 170.154C84.7739 156.336 48.6685 179.686 27.0312 218.719H649.494C648.675 207.37 646.248 196.897 641.777 187.73C640.719 188.537 639.421 188.968 638.089 188.953Z" fill="#EEF7FF"/>
<path d="M4.92272 292.392C2.39964 315.349 3.25902 338.552 7.47348 361.26L584.005 380.306C599.876 363.875 613.36 345.303 624.063 325.132L4.92272 292.392ZM232.948 341.497H221.602C224.724 341.497 227.275 343.802 227.275 346.625C227.275 349.447 224.724 351.746 221.602 351.746H155.936C152.814 351.746 150.263 349.441 150.263 346.625C150.263 343.808 152.814 341.497 155.936 341.497H167.288C164.166 341.497 161.609 339.192 161.609 336.37C161.609 333.547 164.166 331.248 167.288 331.248H159.176C156.06 331.248 153.503 328.943 153.503 326.12C153.503 323.298 156.06 320.999 159.176 320.999H224.842C227.964 320.999 230.521 323.304 230.521 326.12C230.521 328.937 227.964 331.248 224.842 331.248H232.948C236.064 331.248 238.621 333.553 238.621 336.37C238.621 339.186 236.07 341.497 232.948 341.497Z" fill="#EEF7FF"/>
<path d="M649.517 219.048L20.0797 232.879C12.4215 250.643 7.32587 270.747 5.01074 291.58H638.489C642.612 279.397 645.671 266.88 647.632 254.171C649.517 241.916 650.277 230.062 649.517 219.048ZM132.802 264.355H121.456C124.578 264.355 127.129 266.66 127.129 269.483C127.129 272.305 124.578 274.604 121.456 274.604H55.7903C52.6682 274.604 50.1174 272.299 50.1174 269.483C50.1174 266.666 52.6682 264.355 55.7903 264.355H67.1421C64.0199 264.355 61.4633 262.05 61.4633 259.234C61.4633 256.417 64.0199 254.106 67.1421 254.106H59.0303C55.9141 254.106 53.3574 251.801 53.3574 248.978C53.3574 246.156 55.9141 243.857 59.0303 243.857H124.696C127.818 243.857 130.375 246.162 130.375 248.978C130.375 251.795 127.818 254.106 124.696 254.106H132.802C135.918 254.106 138.475 256.411 138.475 259.234C138.475 262.056 135.924 264.355 132.802 264.355Z" fill="#EEF7FF"/>
<path d="M54 498.098L52 502V473H54V498.098Z" fill="#8597A8"/>
<path opacity="0.1" d="M54 498.098L52 502V473H54V498.098Z" fill="#333333"/>
<path d="M67 418H62V455H67V418Z" fill="#8597A8"/>
<path d="M172 418H166V455H172V418Z" fill="#8597A8"/>
<path opacity="0.1" d="M67 418H62V422H67V418Z" fill="#333333"/>
<path opacity="0.1" d="M172 418H166V422H172V418Z" fill="#333333"/>
<path d="M179 416H54V422H179V416Z" fill="#BBCFE2"/>
<path opacity="0.1" d="M67 424H62V430H67V424Z" fill="#333333"/>
<path opacity="0.1" d="M172 424H166V430H172V424Z" fill="#333333"/>
<path d="M179 424H54V429H179V424Z" fill="#BBCFE2"/>
<path opacity="0.1" d="M67 432H62V437H67V432Z" fill="#333333"/>
<path opacity="0.1" d="M172 432H166V437H172V432Z" fill="#333333"/>
<path d="M179 431H54V437H179V431Z" fill="#BBCFE2"/>
<path opacity="0.1" d="M67 439H62V445H67V439Z" fill="#333333"/>
<path opacity="0.1" d="M172 439H166V445H172V439Z" fill="#333333"/>
<path d="M179 439H54V444H179V439Z" fill="#BBCFE2"/>
<path opacity="0.1" d="M67 446H62V452H67V446Z" fill="#333333"/>
<path opacity="0.1" d="M172 446H166V452H172V446Z" fill="#333333"/>
<path d="M179 446H54V452H179V446Z" fill="#BBCFE2"/>
<g opacity="0.1">
<path opacity="0.1" d="M64.1526 420.27C64.5696 420.27 64.9077 419.933 64.9077 419.516C64.9077 419.1 64.5696 418.763 64.1526 418.763C63.7355 418.763 63.3975 419.1 63.3975 419.516C63.3975 419.933 63.7355 420.27 64.1526 420.27Z" fill="#333333"/>
<path opacity="0.1" d="M64.1516 427.694C64.5686 427.694 64.9067 427.357 64.9067 426.941C64.9067 426.524 64.5686 426.187 64.1516 426.187C63.7346 426.187 63.3965 426.524 63.3965 426.941C63.3965 427.357 63.7346 427.694 64.1516 427.694Z" fill="#333333"/>
<path opacity="0.1" d="M64.1516 435.123C64.5686 435.123 64.9067 434.786 64.9067 434.37C64.9067 433.953 64.5686 433.616 64.1516 433.616C63.7346 433.616 63.3965 433.953 63.3965 434.37C63.3965 434.786 63.7346 435.123 64.1516 435.123Z" fill="#333333"/>
<path opacity="0.1" d="M64.1516 442.552C64.5686 442.552 64.9067 442.215 64.9067 441.799C64.9067 441.382 64.5686 441.045 64.1516 441.045C63.7346 441.045 63.3965 441.382 63.3965 441.799C63.3965 442.215 63.7346 442.552 64.1516 442.552Z" fill="#333333"/>
<path opacity="0.1" d="M64.1516 449.977C64.5686 449.977 64.9067 449.639 64.9067 449.223C64.9067 448.807 64.5686 448.469 64.1516 448.469C63.7346 448.469 63.3965 448.807 63.3965 449.223C63.3965 449.639 63.7346 449.977 64.1516 449.977Z" fill="#333333"/>
<path opacity="0.1" d="M169.099 420.27C169.516 420.27 169.854 419.932 169.854 419.516C169.854 419.1 169.516 418.762 169.099 418.762C168.682 418.762 168.344 419.1 168.344 419.516C168.344 419.932 168.682 420.27 169.099 420.27Z" fill="#333333"/>
<path opacity="0.1" d="M169.099 427.694C169.516 427.694 169.854 427.357 169.854 426.941C169.854 426.524 169.516 426.187 169.099 426.187C168.682 426.187 168.344 426.524 168.344 426.941C168.344 427.357 168.682 427.694 169.099 427.694Z" fill="#333333"/>
<path opacity="0.1" d="M169.099 435.123C169.516 435.123 169.854 434.786 169.854 434.37C169.854 433.953 169.516 433.616 169.099 433.616C168.682 433.616 168.344 433.953 168.344 434.37C168.344 434.786 168.682 435.123 169.099 435.123Z" fill="#333333"/>
<path opacity="0.1" d="M169.099 442.552C169.516 442.552 169.854 442.215 169.854 441.799C169.854 441.382 169.516 441.045 169.099 441.045C168.682 441.045 168.344 441.382 168.344 441.799C168.344 442.215 168.682 442.552 169.099 442.552Z" fill="#333333"/>
<path opacity="0.1" d="M169.099 449.977C169.516 449.977 169.854 449.639 169.854 449.223C169.854 448.807 169.516 448.469 169.099 448.469C168.682 448.469 168.344 448.807 168.344 449.223C168.344 449.639 168.682 449.977 169.099 449.977Z" fill="#333333"/>
</g>
<path d="M64 420C64.5523 420 65 419.552 65 419C65 418.448 64.5523 418 64 418C63.4477 418 63 418.448 63 419C63 419.552 63.4477 420 64 420Z" fill="#EEF7FF"/>
<path d="M64 427C64.5523 427 65 426.776 65 426.5C65 426.224 64.5523 426 64 426C63.4477 426 63 426.224 63 426.5C63 426.776 63.4477 427 64 427Z" fill="#EEF7FF"/>
<path d="M64 435C64.5523 435 65 434.552 65 434C65 433.448 64.5523 433 64 433C63.4477 433 63 433.448 63 434C63 434.552 63.4477 435 64 435Z" fill="#EEF7FF"/>
<path d="M64 442C64.5523 442 65 441.776 65 441.5C65 441.224 64.5523 441 64 441C63.4477 441 63 441.224 63 441.5C63 441.776 63.4477 442 64 442Z" fill="#EEF7FF"/>
<path d="M64 450C64.5523 450 65 449.552 65 449C65 448.448 64.5523 448 64 448C63.4477 448 63 448.448 63 449C63 449.552 63.4477 450 64 450Z" fill="#EEF7FF"/>
<path d="M169 420C169.552 420 170 419.552 170 419C170 418.448 169.552 418 169 418C168.448 418 168 418.448 168 419C168 419.552 168.448 420 169 420Z" fill="#EEF7FF"/>
<path d="M169 427C169.552 427 170 426.776 170 426.5C170 426.224 169.552 426 169 426C168.448 426 168 426.224 168 426.5C168 426.776 168.448 427 169 427Z" fill="#EEF7FF"/>
<path d="M169 435C169.552 435 170 434.552 170 434C170 433.448 169.552 433 169 433C168.448 433 168 433.448 168 434C168 434.552 168.448 435 169 435Z" fill="#EEF7FF"/>
<path d="M169 442C169.552 442 170 441.776 170 441.5C170 441.224 169.552 441 169 441C168.448 441 168 441.224 168 441.5C168 441.776 168.448 442 169 442Z" fill="#EEF7FF"/>
<path d="M169 450C169.552 450 170 449.552 170 449C170 448.448 169.552 448 169 448C168.448 448 168 448.448 168 449C168 449.552 168.448 450 169 450Z" fill="#EEF7FF"/>
<path d="M182 457H51L53.9847 453H179.105L182 457Z" fill="#DDA2A6"/>
<path opacity="0.1" d="M182 457H51L53.9847 453H179.105L182 457Z" fill="#333333"/>
<path d="M182 457H51L53.9847 453H179.105L182 457Z" fill="#BBCFE2"/>
<path d="M187 463L46 462.616L50.7865 457H182.897L187 463Z" fill="#BBCFE2"/>
<path opacity="0.1" d="M187 463L46 462.616L50.7865 457H182.897L187 463Z" fill="#333333"/>
<path d="M187 462L46 461.68L50.7865 457H182.897L187 462Z" fill="#BBCFE2"/>
<path d="M191 468H41L45.6019 463L186.91 463.163L191 468Z" fill="#BBCFE2"/>
<path d="M63 473V483.497L61.54 487L61.0596 474.499L61 473H63Z" fill="#8597A8"/>
<path d="M169 473L168.941 474.499L168.461 487L167 483.497V473H169Z" fill="#8597A8"/>
<path opacity="0.1" d="M63 473V483.497L61.54 487L61.0596 474.499L61 473H63Z" fill="#333333"/>
<path opacity="0.1" d="M169 473L168.941 474.499L168.461 487L167 483.497V473H169Z" fill="#333333"/>
<path d="M62 472H57V487H62V472Z" fill="#8597A8"/>
<path d="M173 472H168V487H173V472Z" fill="#8597A8"/>
<path opacity="0.1" d="M61.3284 472.714H63V474H57V472H61.3284V472.714Z" fill="#333333"/>
<path opacity="0.1" d="M173 472V474H167V472.714H168.675V472H173Z" fill="#333333"/>
<path d="M172 498.098L174 502V473H172V498.098Z" fill="#8597A8"/>
<path opacity="0.1" d="M172 498.098L174 502V473H172V498.098Z" fill="#333333"/>
<path d="M179 470H51V474H179V470Z" fill="#8597A8"/>
<path d="M52 469H47V502H52V469Z" fill="#8597A8"/>
<path opacity="0.1" d="M49 473C49.5523 473 50 472.552 50 472C50 471.448 49.5523 471 49 471C48.4477 471 48 471.448 48 472C48 472.552 48.4477 473 49 473Z" fill="#333333"/>
<path d="M49 473C49.5523 473 50 472.552 50 472C50 471.448 49.5523 471 49 471C48.4477 471 48 471.448 48 472C48 472.552 48.4477 473 49 473Z" fill="#EEF7FF"/>
<path d="M179 469H174V502H179V469Z" fill="#8597A8"/>
<path opacity="0.1" d="M176 473C176.552 473 177 472.552 177 472C177 471.448 176.552 471 176 471C175.448 471 175 471.448 175 472C175 472.552 175.448 473 176 473Z" fill="#333333"/>
<path d="M176 473C176.552 473 177 472.552 177 472C177 471.448 176.552 471 176 471C175.448 471 175 471.448 175 472C175 472.552 175.448 473 176 473Z" fill="#EEF7FF"/>
<path d="M191 468H41V470H191V468Z" fill="#BBCFE2"/>
<path opacity="0.5" d="M191 468H41V470H191V468Z" fill="white"/>
<path d="M70.0073 460.836C70.2434 461.778 75.2397 462.249 78.0353 462.399C77.4072 462.903 76.8736 463.505 77.2278 464.55C77.9125 466.57 77.4781 473.494 77.4781 473.494C77.4781 473.494 84.4907 472.642 87.4705 469.869L90.0678 470.411C89.0778 472.015 88.2096 473.69 87.4705 475.424C85.5108 479.924 83.8957 483.383 83.2204 484.796L83.0788 485.087L82.4318 484.814C82.4318 484.814 80.6279 488.547 80.047 489.71C79.4898 490.706 78.8584 491.66 78.1581 492.562L76.85 495.175C76.85 495.175 75.5844 497.764 75.523 499.251C75.4616 500.738 78.6161 501.068 81.5629 501.718C84.5096 502.367 83.2629 499.049 83.1165 497.782C82.9702 496.516 85.133 492.868 85.133 492.868C85.133 492.868 86.3986 491.301 86.3561 490.646C86.3136 489.992 87.3005 488.669 87.3005 488.669C87.3005 488.669 88.5425 487.3 88.0231 487.281C87.908 487.268 87.7952 487.239 87.6878 487.196L87.9097 486.942C89.3973 485.224 93.3026 480.823 94.7996 479.919C96.6602 478.818 99.895 475.085 99.555 474.2C99.215 473.315 103.196 467.746 103.196 467.746C104.066 467.003 104.813 466.128 105.411 465.153L105.5 464.979C105.774 465.868 106.133 466.494 106.558 466.48C107.125 466.48 107.621 465.802 108.051 464.866L108.197 465.012C109.614 466.424 112.315 469.097 112.74 469.337C113.321 469.662 114.232 471.173 115.399 472.722C116.071 473.69 116.675 474.702 117.207 475.753C117.207 476.224 117.207 476.732 117.207 477.198C117.278 479.293 120.414 481.934 120.414 481.934C120.414 481.934 121.566 485.511 122.624 485.789C123.681 486.066 125.33 488.848 127.634 488.326C128.106 488.218 128.517 487.667 128.848 486.848L129.188 487.196L129.594 487.625L129.282 487.747C129.282 487.747 132.149 492.092 132.271 492.732C132.54 493.542 132.873 494.329 133.268 495.085C133.998 496.092 134.644 497.156 135.199 498.267C135.695 499.463 138.189 502 138.189 502C138.189 502 142.108 501.143 144.068 499.613C146.028 498.084 144.507 496.737 143.071 496.187C141.636 495.636 140.833 493.555 140.833 493.555C140.29 492.906 139.79 492.222 139.336 491.508C139.275 491.235 138.061 490.99 138 490.623C137.938 490.256 136.352 487.563 136.352 487.563C136.352 487.563 134.42 485.116 134.156 485.299L134.042 484.993L133.938 484.8C133.556 484.066 132.101 481.298 130.161 477.9C130.19 477.314 130.145 476.728 130.028 476.153C129.622 475.113 128.999 467.709 129.126 466.485C129.254 465.261 126.482 462.479 124.957 461.839C123.818 461.368 123.219 458.403 122.987 456.887H123.115C124.111 456.887 132.64 456.501 132.951 455.259C133.263 454.016 124.192 453.715 123.568 453.691C123.389 453.112 122.85 451.516 122.151 451.093C121.311 450.57 120.966 448.612 120.966 448.612C120.966 448.612 120.376 447.115 120.688 446.226C120.999 445.336 119.441 443.717 119.441 443.717C119.428 443.088 119.45 442.46 119.507 441.834C119.597 440.761 118.666 440.61 118.666 440.516C118.635 439.945 118.635 439.373 118.666 438.802C118.728 438.285 117.67 437.701 117.793 437.122C117.855 436.124 117.855 435.122 117.793 434.124C117.599 433.887 117.457 433.612 117.375 433.317C117.294 433.022 117.275 432.713 117.321 432.41C117.415 431.248 116.324 430.179 116.324 430.179L116.14 426.884L114.723 422.361C113.307 417.832 114.194 419.574 112.235 417.526C111.361 416.613 109.93 416.161 108.617 415.94C108.617 415.672 108.57 415.408 108.537 415.149C108.287 413.328 107.89 411.355 108.778 409.736C109.307 408.766 110.284 407.952 110.308 406.851C110.314 406.532 110.243 406.218 110.1 405.933C109.576 404.568 107.711 403.626 107.465 402.115L107.536 402.261V402.167C107.543 401.91 107.493 401.654 107.389 401.419C107.373 401.363 107.349 401.309 107.319 401.259C107.218 401.123 107.089 401.01 106.941 400.929C106.7 400.779 106.379 400.59 106.029 400.416C106.279 400.09 106.43 399.7 106.464 399.291C106.468 399.143 106.451 398.996 106.412 398.853C106.302 398.426 106.082 398.035 105.774 397.719C105.485 397.398 105.136 397.137 104.745 396.952C104.792 396.994 104.835 397.041 104.877 397.083C104.674 396.979 104.456 396.905 104.23 396.867C103.835 396.829 103.437 396.82 103.04 396.839C102.382 396.788 101.731 396.667 101.099 396.476C98.7381 395.897 96.1313 395.671 94.0157 396.825C92.3251 397.766 91.1823 399.404 90.3087 401.089C89.9169 401.736 89.6794 402.464 89.6145 403.217C89.6568 403.893 89.7821 404.562 89.9876 405.208C90.0204 405.342 90.0204 405.483 89.9876 405.617C89.8931 405.956 89.4728 406.055 89.147 406.196C88.5547 406.482 88.0998 406.99 87.8814 407.609C87.6749 408.217 87.551 408.85 87.513 409.491C87.4407 409.898 87.4666 410.316 87.5886 410.711C87.8578 411.388 88.6322 411.713 89.3028 412.028C90.0639 412.352 90.7419 412.843 91.2862 413.464C89.8365 414.551 88.471 415.745 87.2014 417.037C85.3124 417.564 83.2488 418.294 82.7671 418.99C81.8226 420.337 81.3504 419.725 81.2087 424.436C81.067 429.148 80.524 430.862 80.524 430.862V437.452C80.524 437.452 81.2087 441.796 80.524 442.959C79.8392 444.122 79.962 448.956 79.962 448.956C79.962 448.956 80.9065 453.54 79.4048 455.009C77.9031 456.478 77.8464 459.245 77.8464 459.245L77.9739 459.292C75.3199 459.476 69.7712 459.895 70.0073 460.836ZM85.9641 453.22C86.5261 451.808 87.6453 447.897 87.6453 447.897C87.6453 447.897 88.2686 444.959 87.6453 444.409C87.0219 443.858 88.5189 439.88 88.5189 439.88C88.9595 440.684 89.1533 441.599 89.0761 442.512C88.9534 444.041 89.0761 447.346 89.0761 447.346C89.0761 447.346 88.0608 450.528 88.2261 452.053C88.3914 453.578 85.7752 455.23 86.153 455.842C86.4339 456.395 86.6418 456.982 86.7716 457.589C86.7716 457.589 86.3608 457.589 85.8272 457.631C85.7516 455.936 85.643 454.035 85.9641 453.22Z" fill="url(#paint0_linear)"/>
<path d="M122.799 455C122.799 455 132.301 455.304 131.993 456.473C131.684 457.642 123.35 458 122.376 458C121.402 458 120 456.321 120 456.321L122.799 455Z" fill="#EFB7B9"/>
<path d="M112 455H117V450H112V455Z" fill="#67647E"/>
<path opacity="0.12" d="M112 455H117V450H112V455Z" fill="#333333"/>
<path d="M120.049 455.699L125 465.659L118.724 467.688L113.661 463.356L111.267 458.732L106.419 459.127L101.249 461.696L97.0675 464.24L94.5384 468.958L90.9126 471L83.1386 469.344L82 464.073L88.3462 459.839L90.6467 456.364L99.9653 455.015L102.662 451L111.99 453.247L120.049 455.699Z" fill="#67647E"/>
<path d="M119.958 455.699L125 466.552L118.636 467.688L113.585 463.356L111.197 458.732L106.361 459.127L101.203 461.696L97.0316 464.236L94.5085 468.958L90.8914 471L83.1359 469.344L82 464.073L88.3311 459.835L90.6261 456.364L99.9225 455.015L102.613 451L111.919 453.247L119.958 455.699Z" fill="#465C72"/>
<path d="M106.949 402.931C107.087 403.009 107.206 403.118 107.298 403.25C107.393 403.48 107.438 403.728 107.432 403.977C107.616 405.765 110.035 406.724 110 408.52C109.977 409.586 109.074 410.373 108.586 411.299C107.772 412.874 108.139 414.782 108.367 416.551C108.541 417.889 108.541 419.464 107.548 420.344C107.097 420.64 106.661 420.96 106.242 421.303C105.482 422.118 105.647 423.461 105.151 424.466C105.102 424.575 105.032 424.673 104.945 424.753C104.859 424.824 104.76 424.877 104.654 424.91C104.164 425.044 103.646 425.028 103.165 424.863C102.683 424.699 102.257 424.394 101.939 423.984C101.323 423.141 100.993 422.11 101 421.053C101.009 420.005 101.085 418.959 101.228 417.922C101.412 415.912 101.349 413.888 101.506 411.901C101.523 411.262 101.661 410.633 101.913 410.049C102.06 409.748 102.261 409.479 102.405 409.173C102.578 408.751 102.689 408.305 102.736 407.849L103.272 404.311C103.38 403.607 103.474 402.333 104.265 402.06C105.057 401.787 106.309 402.514 106.949 402.931Z" fill="#E3787D"/>
<path d="M106.949 402.931C107.087 403.009 107.206 403.118 107.298 403.25C107.393 403.48 107.438 403.728 107.432 403.977C107.616 405.765 110.035 406.724 110 408.52C109.977 409.586 109.074 410.373 108.586 411.299C107.772 412.874 108.139 414.782 108.367 416.551C108.541 417.889 108.541 419.464 107.548 420.344C107.097 420.64 106.661 420.96 106.242 421.303C105.482 422.118 105.647 423.461 105.151 424.466C105.102 424.575 105.032 424.673 104.945 424.753C104.859 424.824 104.76 424.877 104.654 424.91C104.164 425.044 103.646 425.028 103.165 424.863C102.683 424.699 102.257 424.394 101.939 423.984C101.323 423.141 100.993 422.11 101 421.053C101.009 420.005 101.085 418.959 101.228 417.922C101.412 415.912 101.349 413.888 101.506 411.901C101.523 411.262 101.661 410.633 101.913 410.049C102.06 409.748 102.261 409.479 102.405 409.173C102.578 408.751 102.689 408.305 102.736 407.849L103.272 404.311C103.38 403.607 103.474 402.333 104.265 402.06C105.057 401.787 106.309 402.514 106.949 402.931Z" fill="#FF6584"/>
<g opacity="0.1">
<path opacity="0.1" d="M107.212 403.203C107.212 403.151 107.212 403.104 107.212 403.052C107.253 403.091 107.29 403.135 107.32 403.184C107.425 403.417 107.474 403.672 107.462 403.928V404.018C107.329 403.764 107.244 403.487 107.212 403.203Z" fill="#333333"/>
<path opacity="0.1" d="M101.431 423.554C101.765 423.971 102.213 424.282 102.721 424.449C103.229 424.616 103.774 424.633 104.291 424.496C104.404 424.464 104.509 424.411 104.603 424.34C104.69 424.256 104.762 424.158 104.815 424.048C105.344 423.021 105.169 421.66 105.966 420.826C106.409 420.48 106.869 420.156 107.345 419.856C108.392 418.956 108.392 417.359 108.208 415.993C107.968 414.198 107.581 412.252 108.444 410.655C108.959 409.713 109.907 408.893 109.931 407.805C109.94 407.705 109.94 407.604 109.931 407.504C110.105 407.818 110.194 408.172 110.19 408.531C110.167 409.619 109.218 410.415 108.704 411.381C107.84 412.978 108.232 414.919 108.468 416.718C108.652 418.084 108.652 419.681 107.604 420.576C107.179 420.944 106.618 421.146 106.226 421.552C105.428 422.385 105.603 423.747 105.074 424.769C105.024 424.881 104.952 424.982 104.862 425.066C104.769 425.134 104.666 425.187 104.555 425.221C104.038 425.359 103.491 425.343 102.982 425.176C102.474 425.009 102.025 424.697 101.691 424.279C101.297 423.792 101.02 423.221 100.879 422.611C101.017 422.95 101.203 423.268 101.431 423.554Z" fill="#333333"/>
</g>
<path d="M80.1967 460C80.1967 460 70.694 460.304 71.0076 461.473C71.3212 462.642 79.6503 463 80.6243 463C81.5984 463 83 461.316 83 461.316L80.1967 460Z" fill="#EFB7B9"/>
<path d="M105.724 417.012C105.724 417.012 110.225 416.742 112.078 418.772C113.931 420.803 113.113 419.075 114.437 423.562L115.761 428.049L115.935 431.291C115.935 431.291 116.97 432.351 116.878 433.506C116.837 433.805 116.856 434.111 116.935 434.402C117.014 434.694 117.151 434.966 117.338 435.2C117.396 436.19 117.396 437.182 117.338 438.172C117.218 438.75 118.22 439.327 118.161 439.838C118.13 440.404 118.13 440.971 118.161 441.537C118.161 441.627 119.043 441.779 118.956 442.843C118.903 443.473 118.883 444.105 118.896 444.737C118.896 444.737 120.367 446.341 120.073 447.221C119.779 448.102 120.34 449.588 120.34 449.588C120.34 449.588 120.662 451.528 121.457 452.039C122.252 452.55 122.836 454.832 122.836 454.832C122.836 454.832 122.101 456.8 122.101 456.89C122.101 456.98 122.634 462.044 124.073 462.683C125.512 463.322 128.137 466.077 128.022 467.288C127.907 468.5 128.482 475.84 128.873 476.867C129.264 477.894 128.818 488.42 126.638 488.936C124.459 489.452 122.896 486.693 121.894 486.418C120.892 486.144 119.807 482.599 119.807 482.599C119.807 482.599 116.832 479.991 116.8 477.899C116.768 475.807 116.685 473.166 116.685 473.166C116.685 473.166 120.156 467.104 120.864 466.645C121.572 466.185 123.544 463.616 122.013 461.401C120.987 459.833 120.147 458.144 119.512 456.37L117.862 454.855L116.483 449.427L113.949 440.941L111.563 432.602L109.531 423.841L104.18 420.003C104.18 420.003 103.223 417.485 105.724 417.012Z" fill="#465C72"/>
<path d="M107 464.833L107.884 465.733C109.297 467.169 111.955 469.826 112.378 470.066C112.95 470.391 113.853 471.904 115.002 473.46C116.151 475.016 117.713 478.367 117.713 478.367C117.713 478.367 121.557 483.763 123.826 484.337C125.359 484.725 127.454 486.731 128.632 487.975C129.199 488.574 129.559 489 129.559 489L134 487.281L133.423 485.768L133.322 485.572C132.899 484.744 131.14 481.359 128.829 477.386C126.895 474.233 124.64 471.288 122.1 468.596C122.1 468.596 118.568 465.364 118.448 463.89C118.405 463.073 118.416 462.254 118.481 461.439C118.549 460.381 118.65 459.476 118.65 459.476L113.277 456L109.167 457.709L107 464.833Z" fill="#FBBEBE"/>
<path d="M84 485.921L88.2329 488C88.2329 488 88.4423 487.745 88.7958 487.333C90.2238 485.666 93.959 481.378 95.3871 480.521C97.1686 479.456 100.267 475.835 99.941 474.964C99.6154 474.093 103.425 468.703 103.425 468.703C104.262 467.983 104.978 467.134 105.546 466.188C105.931 465.588 106.079 464.867 105.96 464.165C105.453 462.178 103.783 457.816 103.783 457.816L102.923 456.389C102.858 456.306 99.941 455.296 99.941 455.296L97.0523 455L93.4148 458.084C93.4148 458.084 93.5497 458.816 93.7497 459.839C94.1916 462.085 94.9591 465.721 95.3266 465.948C95.8569 466.272 92.8473 468.726 92.8473 468.726C92.8473 468.726 90.8518 470.416 88.3818 476.173C86.5212 480.535 84.9582 483.892 84.3163 485.258L84 485.921Z" fill="#FBBEBE"/>
<path opacity="0.1" d="M109.237 457.756L107 465.075L107.911 466C108.488 464.422 108.961 462.809 109.326 461.17C109.915 458.774 116.001 459.404 117.06 459.404C117.525 459.404 118.179 460.461 118.827 461.588C118.896 460.501 119 459.571 119 459.571L113.468 456L109.237 457.756Z" fill="#333333"/>
<path opacity="0.1" d="M93 458.032C93 458.032 93.1392 458.752 93.3457 459.758C93.7901 458.797 94.4448 457.938 95.2662 457.236C98.147 454.822 101.95 456.885 101.95 456.885C102.339 457.022 102.531 457.409 102.958 457.882C104.194 459.285 104.918 461.029 105.023 462.854C105.089 463.915 105.259 464.969 105.532 466C105.929 465.41 106.081 464.701 105.959 464.01C105.435 462.057 103.712 457.768 103.712 457.768L102.824 456.366C102.756 456.284 99.7459 455.291 99.7459 455.291L96.7643 455L93 458.032Z" fill="#333333"/>
<path d="M89.0008 460.468C89.0433 461.448 92.7769 462.973 92.7769 462.973C92.7769 462.973 92.7769 458.851 95.6089 456.437C98.4409 454.023 102.179 456.084 102.179 456.084C102.562 456.222 102.75 456.611 103.17 457.092C104.387 458.502 105.099 460.258 105.2 462.094C105.332 464.174 105.917 467.027 106.814 467C108.23 466.963 109.174 462.854 109.76 460.624C110.345 458.393 116.127 458.984 117.137 458.984C118.147 458.984 120.078 464.068 120.804 463.441C121.531 462.813 119.997 457.917 119.997 457.917L115.112 452.214L114.069 451L92.6636 452.122L91.611 453.712C91.1154 454.463 90.6292 455.21 90.6104 455.264C90.5915 455.319 88.9583 459.469 89.0008 460.468Z" fill="#25323F"/>
<path opacity="0.1" d="M110 453.991C109.972 454.033 106.669 458.227 106.517 458.859C106.38 459.565 106.275 460.28 106.205 461C106.178 460.362 106.115 459.726 106.017 459.097C105.901 458.676 106.417 457.694 106.757 457.39C107.175 457.066 107.551 456.672 107.872 456.222C107.96 455.969 108.384 453.36 108.384 453.36L109.768 453L110 453.991Z" fill="#333333"/>
<path opacity="0.1" d="M103 454C103 454 105.049 456.583 104.999 456.969C104.949 457.355 103 454 103 454Z" fill="#333333"/>
<path d="M90 420.376L92.9082 424.397L100.908 426C100.908 426 109.012 423.992 103.509 421.905C102.989 421.725 102.525 421.414 102.163 421.002C101.192 419.85 101.552 418.105 102.358 416.408C103.341 414.51 104.565 412.745 106 411.156C106 411.156 94.6323 406.158 95.9064 411.382C96.1326 412.288 96.1097 413.238 95.8401 414.132C95.1628 416.483 92.9982 418.364 91.5204 419.413C91.0344 419.765 90.5266 420.087 90 420.376Z" fill="#FBBEBE"/>
<path opacity="0.1" d="M90 420.02L93.0167 424.295L101.315 426C101.315 426 109.722 423.865 104.013 421.645C103.473 421.454 102.992 421.123 102.617 420.685C101.266 421.295 99.8609 421.775 99.1485 421.56C99.1485 421.56 94.4809 420.17 91.5771 419C91.0729 419.373 90.5461 419.714 90 420.02Z" fill="#333333"/>
<path opacity="0.1" d="M91 453.647C92.1302 453.348 93.2793 453.105 94.4416 452.919C95.5921 452.744 96.6992 452.673 97.1661 452.919C98.3165 453.555 101.113 455 102.1 455C102.375 455.005 102.646 454.941 102.879 454.816C103.113 454.69 103.299 454.508 103.414 454.292C105.081 454.135 106.763 454.135 108.43 454.292C109.748 454.479 112.853 453.118 114.779 452.211L115 452.103L113.936 451L92.1071 452.02L91.0337 453.464L91 453.647Z" fill="#333333"/>
<path d="M92.3194 448.028L91.5313 453.457C92.6205 453.118 93.727 452.841 94.846 452.627C95.954 452.427 97.0203 452.351 97.47 452.627C98.578 453.358 101.271 455 102.222 455C102.487 455.005 102.748 454.931 102.973 454.787C103.198 454.643 103.377 454.435 103.487 454.188C105.093 454.009 106.713 454.009 108.318 454.188C109.588 454.406 112.579 452.854 114.433 451.815C115.36 451.288 116 450.866 116 450.866L114.813 446.566L111.169 442.593L110.613 436.836L109.746 430.191L108.397 426.138L105.954 420.215L105.523 419.166C105.523 419.166 105.059 419.456 104.345 419.835C104.025 420.011 103.654 420.205 103.256 420.405C101.749 421.164 99.8946 421.938 99.0555 421.677C99.0555 421.677 95.138 420.505 92.3982 419.441C91.1326 418.967 90.1173 418.492 89.853 418.165C89.8205 418.127 89.7981 418.081 89.7881 418.032C89.7881 417.951 89.7881 418.032 89.7557 418.188C89.5841 419.978 89 433.68 89 433.68L92.3194 448.028Z" fill="#EEF7FF"/>
<path opacity="0.1" d="M89 433.658L92.2951 447.691L91.5139 453C92.5936 452.669 93.6906 452.398 94.7998 452.188C94.9883 450.011 95.1997 446.341 94.6344 445.115C93.8071 443.329 93.3384 437.69 93.3384 437.69L92.3687 419.736L92.2722 418C91.4498 418.084 90.6372 418.247 89.8456 418.487L89.7491 418.51C89.5791 420.26 89 433.658 89 433.658Z" fill="#333333"/>
<path opacity="0.1" d="M82 461.17C83.9427 461.753 86.5589 462.388 86.8371 461.701C87.0283 461.226 87.0153 460.163 86.9761 459C86.0287 459.065 84.6076 459.255 84.3686 459.765C84.1295 460.275 82.8475 460.647 82 461.17Z" fill="#333333"/>
<path d="M91.2259 418.007C91.0461 417.886 84.4437 419.327 83.5309 420.647C82.6181 421.966 82.1404 421.363 82.0175 425.981C81.8945 430.6 81.3506 432.276 81.3506 432.276V438.748C81.3506 438.748 82.0175 443.006 81.3506 444.143C80.6837 445.281 80.7878 450.021 80.7878 450.021C80.7878 450.021 81.6959 454.518 80.2439 455.955C78.7919 457.392 78.7257 460.092 78.7257 460.092C78.7257 460.092 85.82 462.61 86.293 461.412C86.7659 460.214 86.047 455.534 86.5957 454.158C87.1443 452.782 88.2321 448.94 88.2321 448.94C88.2321 448.94 88.8375 446.062 88.2321 445.524C87.6267 444.986 89.0787 441.088 89.0787 441.088C89.508 441.877 89.6969 442.773 89.6226 443.666C89.5043 445.164 89.6226 448.402 89.6226 448.402C89.6226 448.402 88.6341 451.519 88.7949 453.016C88.9557 454.514 86.4301 456.138 86.7754 456.737C87.0499 457.278 87.2533 457.852 87.3808 458.445C87.3808 458.445 83.9897 458.473 83.6255 459.315C83.2613 460.157 80.4756 460.56 80.2344 461.734C79.9932 462.909 77.444 463.269 78.1109 465.249C78.7777 467.228 78.3568 474 78.3568 474C78.3568 474 90.5921 472.502 89.2584 466.98C87.9247 461.458 81.6249 463.925 81.6249 463.925C81.6249 463.925 86.6571 460.986 89.5658 461.346C92.4745 461.706 93.6237 454.153 93.6237 454.153C93.6237 454.153 94.4703 447.134 93.6237 445.341C92.7772 443.549 92.29 437.854 92.29 437.854L91.2259 418.007Z" fill="#465C72"/>
<path opacity="0.1" d="M86 457.34C86 457.34 85.6811 456.751 83.4136 457.123C81.1462 457.495 80 457.002 80 457.002C80 457.002 84.5947 459.001 86 457.34Z" fill="#333333"/>
<path opacity="0.1" d="M85.9668 430C86.0004 430.087 84.1032 432.377 85.5359 434.222C86.9685 436.068 88.155 439.035 88.4012 439.59C88.6474 440.144 89 441 89 441" fill="#333333"/>
<path opacity="0.05" d="M91.5385 415C91.5385 415 85.7292 419.287 85.7292 421.317C85.9642 421.536 86.2421 421.705 86.5459 421.815C86.8497 421.925 87.1731 421.973 87.4962 421.955C88.7065 421.955 90.885 421.379 91.127 420.05C91.3691 418.721 92.3034 420.05 91.7757 420.75C91.2481 421.45 90.9382 421.817 90.9382 421.817C90.9382 421.817 85.4339 423.299 84.3786 423.999C83.3232 424.699 84.8094 425.523 84.8094 425.523C84.8094 425.523 86.3586 428.267 86.2617 428.725C86.1649 429.182 90.0765 435.165 90.0765 435.165C90.0765 435.165 91.3788 441.635 91.3158 442.854C91.2529 444.074 91.1609 446.665 91.1609 446.665L93.6589 450C93.6589 450 94.2641 439.629 93.8623 438.224C93.4604 436.818 92.3712 428.001 92.3712 428.001C92.3712 428.001 91.1319 422.632 91.6257 422.022C92.1195 421.412 92.2986 419.516 92.2986 419.516L91.5385 415Z" fill="#333333"/>
<path d="M92.5796 415C92.5796 415 86.7386 419.164 86.7386 421.136C86.9743 421.349 87.2537 421.514 87.5593 421.621C87.8649 421.727 88.1902 421.773 88.5152 421.756C89.7321 421.756 91.9225 421.191 92.161 419.905C92.3995 418.618 93.3487 419.905 92.8181 420.585C92.2876 421.265 91.976 421.621 91.976 421.621C91.976 421.621 86.427 423.051 85.3756 423.741C84.3242 424.43 85.8137 425.226 85.8137 425.226C85.8137 425.226 87.3713 427.891 87.274 428.335C87.1766 428.78 91.1096 434.591 91.1096 434.591C91.1096 434.591 92.419 440.875 92.3557 442.059C92.2924 443.244 92.1999 445.761 92.1999 445.761L94.2102 449C94.2102 449 95.3152 438.922 94.9112 437.562C94.5072 436.201 93.4217 427.678 93.4217 427.678C93.4217 427.678 92.1707 422.459 92.6721 421.867C93.1735 421.274 93.3487 419.437 93.3487 419.437L92.5796 415Z" fill="#67647E"/>
<path d="M92.5796 415C92.5796 415 86.7386 419.164 86.7386 421.136C86.9743 421.349 87.2537 421.514 87.5593 421.621C87.8649 421.727 88.1902 421.773 88.5152 421.756C89.7321 421.756 91.9225 421.191 92.161 419.905C92.3995 418.618 93.3487 419.905 92.8181 420.585C92.2876 421.265 91.976 421.621 91.976 421.621C91.976 421.621 86.427 423.051 85.3756 423.741C84.3242 424.43 85.8137 425.226 85.8137 425.226C85.8137 425.226 87.3713 427.891 87.274 428.335C87.1766 428.78 91.1096 434.591 91.1096 434.591C91.1096 434.591 92.419 440.875 92.3557 442.059C92.2924 443.244 92.1999 445.761 92.1999 445.761L94.2102 449C94.2102 449 95.3152 438.922 94.9112 437.562C94.5072 436.201 93.4217 427.678 93.4217 427.678C93.4217 427.678 92.1707 422.459 92.6721 421.867C93.1735 421.274 93.3487 419.437 93.3487 419.437L92.5796 415Z" fill="#25323F"/>
<path opacity="0.1" d="M103 420.149C103.037 420.437 103.106 420.72 103.205 420.992C103.424 421.658 103.768 422.558 104.048 423.481C104.471 424.888 105.774 427.475 106.552 429.908C107.329 432.341 108.488 437.53 108.488 437.53C108.488 437.53 108.25 442.306 109.828 443.506C111.406 444.706 113.198 449.131 113.198 449.131C113.198 449.131 113.761 450.598 114.427 452C115.358 451.48 116 451.063 116 451.063L114.808 446.816L111.15 442.892L110.592 437.206L109.721 430.644L108.367 426.641L105.914 420.791C105.258 420.744 104.82 420.702 104.82 420.702C104.82 420.702 104.592 420.571 104.299 420.416C103.759 420.144 102.982 419.797 103 420.149Z" fill="#333333"/>
<path opacity="0.05" d="M105.837 420.734C105.837 420.734 111.39 421.208 112.634 421.066C113.877 420.923 113.353 423.774 113.353 423.774C113.353 423.774 114.312 429.574 114.101 430.181C113.891 430.788 112.755 435.346 113.442 436.442C114.129 437.537 116.247 443.214 116.247 443.214C116.247 443.214 116.934 445.738 117.532 448.256C118.13 450.774 119.542 455.607 119.897 456.034C120.252 456.461 123.319 462.057 122.973 462.935C122.627 463.812 117.906 455.55 116.957 454.82C116.008 454.09 114.242 449.47 114.242 449.47C114.242 449.47 112.442 445.007 110.857 443.779C109.273 442.55 109.511 437.732 109.511 437.732C109.511 437.732 108.343 432.477 107.562 430.015C106.782 427.554 105.477 424.955 105.047 423.513C104.617 422.071 104.033 420.667 104 420.141C103.968 419.614 105.837 420.734 105.837 420.734Z" fill="#333333"/>
<path d="M104.921 420.729C104.921 420.729 110.775 421.192 112.08 421.053C113.384 420.914 112.838 423.693 112.838 423.693C112.838 423.693 113.847 429.361 113.626 429.954C113.404 430.547 112.208 434.997 112.931 436.063C113.655 437.128 115.885 442.68 115.885 442.68C115.885 442.68 116.614 445.139 117.244 447.603C117.875 450.067 119.357 454.781 119.736 455.198C120.115 455.615 123.34 461.08 122.971 461.936C122.601 462.793 117.638 454.721 116.639 454.013C115.639 453.304 113.783 448.77 113.783 448.77C113.783 448.77 111.892 444.412 110.218 443.213C108.544 442.013 108.8 437.313 108.8 437.313C108.8 437.313 107.569 432.182 106.752 429.778C105.935 427.375 104.556 424.837 104.103 423.429C103.65 422.021 103.03 420.65 103 420.136C102.971 419.622 104.921 420.729 104.921 420.729Z" fill="#67647E"/>
<path d="M104.921 420.729C104.921 420.729 110.775 421.192 112.08 421.053C113.384 420.914 112.838 423.693 112.838 423.693C112.838 423.693 113.847 429.361 113.626 429.954C113.404 430.547 112.208 434.997 112.931 436.063C113.655 437.128 115.885 442.68 115.885 442.68C115.885 442.68 116.614 445.139 117.244 447.603C117.875 450.067 119.357 454.781 119.736 455.198C120.115 455.615 123.34 461.08 122.971 461.936C122.601 462.793 117.638 454.721 116.639 454.013C115.639 453.304 113.783 448.77 113.783 448.77C113.783 448.77 111.892 444.412 110.218 443.213C108.544 442.013 108.8 437.313 108.8 437.313C108.8 437.313 107.569 432.182 106.752 429.778C105.935 427.375 104.556 424.837 104.103 423.429C103.65 422.021 103.03 420.65 103 420.136C102.971 419.622 104.921 420.729 104.921 420.729Z" fill="#25323F"/>
<path opacity="0.1" d="M107.178 435C107.178 435 106.575 438.858 107.588 440.685C108.6 442.512 107.465 435.822 107.178 435Z" fill="#333333"/>
<path opacity="0.1" d="M95 447C95 447 97.924 447.429 98.8757 448.687C99.8274 449.946 95 447 95 447Z" fill="#333333"/>
<path opacity="0.1" d="M95.116 450C95.116 450 99.7762 451.375 98.8873 451.854C97.9983 452.332 95.9188 451.47 95.3315 451.629C94.7443 451.789 95.116 450 95.116 450Z" fill="#333333"/>
<path opacity="0.1" d="M128 487.804C128.634 488.503 129.037 489 129.037 489L134 486.994L133.355 485.229L133.243 485H133.21C132.915 485.212 130.718 486.676 130.718 486.676L128 487.804Z" fill="#333333"/>
<path d="M131.506 487.38C131.506 487.38 133.401 486.178 133.656 486.009C133.911 485.84 135.75 488.18 135.75 488.18C136.326 489.128 136.852 490.105 137.326 491.106C137.381 491.458 138.539 491.691 138.6 491.956C139.031 492.641 139.507 493.296 140.027 493.918C140.027 493.918 140.796 495.911 142.163 496.436C143.529 496.962 144.979 498.265 143.112 499.714C141.245 501.163 137.502 502 137.502 502C137.502 502 135.13 499.568 134.652 498.43C134.122 497.364 133.502 496.344 132.799 495.38C132.421 494.656 132.104 493.902 131.849 493.127C131.729 492.514 129 488.354 129 488.354L131.506 487.38Z" fill="#25323F"/>
<path opacity="0.1" d="M84 485.732L87.5306 488C87.5306 488 87.7051 487.722 88 487.273C87.4155 486.944 86.8479 486.566 86.3007 486.141L84.2638 485L84 485.732Z" fill="#333333"/>
<path d="M86.3018 486.318C86.3018 486.318 88.334 487.459 88.8695 487.479C89.4051 487.498 88.1187 488.864 88.1187 488.864C88.1187 488.864 87.1177 490.191 87.1577 490.845C87.1978 491.5 85.8964 493.066 85.8964 493.066C85.8964 493.066 83.6741 496.715 83.8242 497.98C83.9744 499.246 85.2557 502.57 82.2225 501.916C79.1893 501.261 75.9359 500.96 76.001 499.451C76.066 497.942 77.3674 495.373 77.3674 495.373L78.7138 492.761C79.4351 491.852 80.0859 490.894 80.6609 489.895C81.2615 488.735 83.1185 485 83.1185 485L86.3018 486.318Z" fill="#25323F"/>
<path d="M103.201 422.112C100.1 421.033 100.763 418.277 102.225 415.771C103.798 415.229 105.151 414.262 106.102 413C107.029 413.363 107.876 414.383 107.525 415.226C107.382 415.486 107.201 415.727 106.986 415.942C106.286 416.842 105.948 417.932 106.027 419.031C106.107 420.131 106.6 421.171 107.423 421.979C107.687 422.225 108.005 422.47 108 422.833C108 423.255 107.515 423.534 107.072 423.681C106.502 423.868 105.904 423.975 105.298 424C105.568 423.426 105.088 422.769 103.201 422.112Z" fill="#FF6584"/>
<path opacity="0.1" d="M86 459C86 459 83.2147 459.096 82.2862 459.645C81.7224 459.981 81.2767 460.451 81 461" fill="#333333"/>
<g opacity="0.1">
<path opacity="0.1" d="M106.783 415.823C106.327 416.467 106.045 417.218 105.962 418.002C105.88 418.786 106 419.578 106.311 420.303C105.875 419.539 105.666 418.666 105.709 417.788C105.751 416.909 106.044 416.061 106.551 415.343C106.742 415.138 106.901 414.906 107.023 414.655C107.12 414.392 107.12 414.103 107.023 413.84C107.167 414.02 107.264 414.232 107.307 414.457C107.349 414.683 107.336 414.916 107.269 415.135C107.14 415.386 106.976 415.618 106.783 415.823Z" fill="#333333"/>
<path opacity="0.1" d="M105.314 423.064C105.759 423.022 106.197 422.926 106.617 422.776C106.999 422.635 107.424 422.366 107.429 421.961C107.431 421.939 107.431 421.917 107.429 421.895C107.577 422.04 107.666 422.235 107.679 422.442C107.679 422.852 107.254 423.12 106.867 423.257C106.368 423.437 105.845 423.542 105.314 423.568C105.376 423.405 105.376 423.226 105.314 423.064Z" fill="#333333"/>
<path opacity="0.1" d="M103.21 421.269C104.508 421.74 105.046 422.258 105.098 422.72C104.628 422.275 104.061 421.944 103.441 421.754C103.046 421.631 102.684 421.422 102.38 421.142C102.077 420.861 101.839 420.517 101.686 420.134C102.056 420.668 102.591 421.066 103.21 421.269Z" fill="#333333"/>
</g>
<path opacity="0.1" d="M96.0327 413.631C96.9899 415.237 100.117 416 100.215 416C100.963 416 101.707 415.891 102.417 415.678C103.385 413.966 104.589 412.375 106 410.943C106 410.943 94.8478 406.438 96.0977 411.147C96.3204 411.965 96.298 412.823 96.0327 413.631Z" fill="#333333"/>
<path d="M93 409.023C93.0003 410.784 93.6638 412.48 94.8584 413.773C96.0529 415.066 97.6907 415.861 99.4452 416C99.6294 416 99.8181 416 100.007 416C101.391 415.999 102.743 415.588 103.893 414.818C105.044 414.048 105.94 412.955 106.469 411.676C106.998 410.396 107.136 408.989 106.865 407.632C106.594 406.274 105.928 405.027 104.949 404.049C103.97 403.07 102.723 402.404 101.366 402.134C100.008 401.864 98.6017 402.003 97.3233 402.533C96.0449 403.063 94.9523 403.96 94.1836 405.111C93.4149 406.263 93.0046 407.616 93.0046 409L93 409.023Z" fill="#FBBEBE"/>
<path opacity="0.1" d="M93.0185 409.012C93.0188 410.775 93.6856 412.474 94.8859 413.769C96.0862 415.064 97.7319 415.861 99.495 416C100.553 415.075 101.406 413.939 101.998 412.665C102.314 412.144 102.475 411.544 102.46 410.935C102.4 410.409 102.099 409.934 101.998 409.413C101.85 408.559 102.285 407.715 102.729 406.968C103.093 406.225 103.56 405.538 104.116 404.924C104.426 404.634 104.718 404.348 105 404.043C104.015 403.066 102.762 402.401 101.398 402.133C100.034 401.864 98.6218 402.005 97.3382 402.536C96.0546 403.068 94.9575 403.966 94.1855 405.119C93.4134 406.271 93.0009 407.626 93 409.012H93.0185Z" fill="#333333"/>
<path d="M105.231 402.797C105.649 402.371 105.919 401.821 106 401.231C105.979 400.677 105.746 400.152 105.349 399.763C104.958 399.302 104.426 398.981 103.834 398.848C103.45 398.814 103.063 398.807 102.678 398.825C102.038 398.773 101.405 398.654 100.79 398.468C98.5063 397.901 95.9676 397.675 93.9054 398.81C92.2632 399.711 91.1684 401.343 90.3049 402.999C89.9236 403.637 89.6913 404.352 89.6253 405.091C89.6695 405.755 89.7914 406.411 89.9887 407.047C90.0217 407.178 90.0217 407.315 89.9887 407.446C89.8943 407.779 89.4838 407.877 89.1676 408.013C88.5875 408.303 88.1463 408.809 87.9407 409.42C87.7388 410.027 87.6197 410.658 87.5867 411.297C87.5128 411.695 87.5371 412.106 87.6575 412.493C87.9218 413.163 88.6674 413.478 89.3233 413.792C90.0648 414.109 90.7235 414.59 91.2486 415.199C91.5077 415.507 91.6901 415.872 91.7811 416.263C91.8721 416.654 91.8691 417.061 91.7724 417.451C91.6489 417.785 91.4603 418.091 91.2174 418.353C90.9745 418.615 90.682 418.826 90.3568 418.975C89.7101 419.271 89.0283 419.484 88.3276 419.608C88.0235 419.653 87.7324 419.762 87.4735 419.927C86.8553 420.373 86.8742 421.367 87.3461 421.963C87.8692 422.527 88.5871 422.873 89.3563 422.934C91.037 423.161 92.7448 422.801 94.1885 421.916C95.0757 421.381 95.8921 420.593 96.0761 419.571C96.1988 418.942 96.0761 418.262 96.3356 417.694C96.6754 416.939 97.539 416.597 98.2515 416.161C99.7144 415.274 100.72 413.815 101.489 412.286C101.814 411.756 101.978 411.144 101.961 410.523C101.899 409.988 101.588 409.51 101.489 408.98C101.333 408.107 101.777 407.249 102.234 406.489C102.609 405.737 103.085 405.039 103.65 404.416C104.218 403.917 104.746 403.376 105.231 402.797Z" fill="#FF6584"/>
<g opacity="0.1">
<path opacity="0.1" d="M89.0095 413.128C89.4583 413.335 89.8825 413.591 90.2743 413.891C90.0997 413.788 89.9157 413.698 89.7363 413.609C89.2792 413.424 88.8515 413.173 88.4668 412.865L89.0095 413.128Z" fill="#333333"/>
<path opacity="0.1" d="M89.0607 422.314C90.7369 422.537 92.4389 422.176 93.8793 421.292C94.7665 420.755 95.583 419.964 95.7671 418.937C95.8898 418.305 95.7671 417.622 96.0266 417.052C96.3664 416.294 97.2301 415.95 97.9427 415.517C99.401 414.621 100.406 413.161 101.18 411.621C101.504 411.087 101.667 410.473 101.652 409.849C101.591 409.312 101.279 408.832 101.18 408.299C101.029 407.423 101.473 406.566 101.931 405.798C102.303 405.042 102.78 404.341 103.346 403.716C103.892 403.218 104.399 402.68 104.861 402.105C105.28 401.676 105.55 401.124 105.631 400.531C105.609 399.976 105.374 399.449 104.975 399.061C104.889 398.965 104.798 398.873 104.701 398.788C105.083 398.968 105.424 399.225 105.702 399.542C106.099 399.933 106.332 400.46 106.353 401.016C106.276 401.609 106.007 402.159 105.588 402.585C105.125 403.16 104.619 403.699 104.073 404.196C103.507 404.823 103.03 405.525 102.657 406.283C102.186 407.046 101.761 407.908 101.912 408.785C102.006 409.317 102.313 409.798 102.384 410.335C102.401 410.958 102.237 411.573 101.912 412.106C101.138 413.627 100.133 415.107 98.6742 415.997C97.9616 416.43 97.098 416.774 96.7582 417.537C96.4939 418.122 96.6166 418.805 96.4986 419.422C96.3051 420.439 95.4839 421.231 94.6108 421.777C93.1656 422.663 91.4588 423.024 89.7781 422.8C89.0973 422.732 88.4541 422.456 87.9375 422.008C88.2964 422.16 88.6742 422.263 89.0607 422.314Z" fill="#333333"/>
</g>
<path d="M215.437 591.614C227.276 591.614 236.874 589.971 236.874 587.945C236.874 585.919 227.276 584.276 215.437 584.276C203.598 584.276 194 585.919 194 587.945C194 589.971 203.598 591.614 215.437 591.614Z" fill="#EEF7FF"/>
<path d="M217.067 587.637C217.067 587.637 235.225 559.378 212.808 551.394C212.808 551.394 209.571 548.686 206.087 551.051C206.087 551.051 207.573 551.952 205.419 554.607C204.656 555.56 204.006 556.598 203.484 557.701C202.778 559.19 202.577 560.867 202.91 562.479C202.91 562.479 201.697 572.597 213.343 583.296C213.343 583.296 214.965 587.282 215.753 587.622L216.414 581.51C216.414 581.51 211.906 581.206 209.69 578.228C209.69 578.228 216.168 581.638 216.553 580.608C216.627 580.395 216.756 577.354 216.756 577.354C216.756 577.354 208.942 576.779 205.645 572.083C205.645 572.083 212.82 577.182 216.816 576.198L216.733 571.589C216.733 571.589 208.453 571.385 204.491 566.184C204.491 566.184 212.178 571.251 216.65 570.584L215.96 566.067C215.96 566.067 207.859 565.726 204.611 561.361C204.611 561.361 214.086 566.32 215.73 565.045C215.73 565.045 214.846 560.932 214.083 559.953C214.083 559.953 208.275 559.578 206.619 556.875C206.619 556.875 213.3 559.516 213.712 558.85C213.712 558.85 211.128 553.81 208.466 551.945C208.466 551.945 212.606 554.403 214.477 558.408C214.477 558.408 215.518 555.499 214.654 552.99C214.654 552.99 217.33 555.043 215.091 559.636C215.091 559.636 216.946 563.651 216.793 564.364C216.793 564.364 219.648 560.142 219.958 556.792C219.958 556.792 221.399 560.713 217.016 565.552L217.812 570.076C217.812 570.076 221.875 564.695 222.38 561.729C222.38 561.729 223.215 565.932 217.918 571.237L218.045 575.747C218.045 575.747 221.905 571.38 223.173 568.203C223.173 568.203 223.11 572.266 218.033 577.044L217.746 580.082C217.746 580.082 220.506 576.839 221.211 575.834C221.917 574.829 222.253 574.94 222.253 574.94C221.344 577.461 219.753 579.681 217.658 581.355C217.658 581.355 216.692 587.541 217.067 587.637Z" fill="#F5F9FE"/>
<path d="M98.865 600.843C107.711 600.843 114.882 599.614 114.882 598.097C114.882 596.58 107.711 595.351 98.865 595.351C90.0189 595.351 82.8477 596.58 82.8477 598.097C82.8477 599.614 90.0189 600.843 98.865 600.843Z" fill="#EEF7FF"/>
<path d="M98.7512 597.106C98.7512 597.106 112.313 576.002 95.5574 570.025C95.5574 570.025 93.1537 568.018 90.5404 569.771C90.5404 569.771 91.6537 570.439 90.033 572.427C89.4621 573.14 88.9769 573.917 88.5874 574.742C88.0597 575.854 87.9089 577.106 88.1579 578.31C88.1579 578.31 87.2552 585.866 95.9523 593.861C95.9523 593.861 97.153 596.847 97.7506 597.093L98.2451 592.53C98.2451 592.53 94.881 592.3 93.2244 590.078C93.2244 590.078 98.0862 592.608 98.3435 591.876C98.4028 591.719 98.4975 589.444 98.4975 589.444C98.4975 589.444 92.6451 589.028 90.1994 585.51C90.1994 585.51 95.5537 589.317 98.544 588.582L98.4824 585.142C98.4824 585.142 92.2768 584.997 89.344 581.095C89.344 581.095 95.0824 584.884 98.4241 584.381L97.91 581.004C97.91 581.004 91.8617 580.755 89.4337 577.492C89.4337 577.492 96.5128 581.2 97.7406 580.24C97.7406 580.24 97.0786 577.173 96.5077 576.443C96.5077 576.443 92.175 576.161 90.934 574.141C90.934 574.141 95.9237 576.115 96.2294 575.619C96.2294 575.619 94.3042 571.849 92.3118 570.46C92.3118 570.46 95.4123 572.295 96.8059 575.286C97.2447 573.978 97.2905 572.571 96.9378 571.238C96.9378 571.238 98.9454 572.795 97.2613 576.205C97.2613 576.205 98.6447 579.202 98.5312 579.736C98.5312 579.736 100.663 576.583 100.897 574.078C100.897 574.078 101.962 576.995 98.7025 580.621L99.2962 584.006C99.2962 584.006 102.334 579.984 102.71 577.771C102.71 577.771 103.331 580.909 99.3739 584.871L99.471 588.244C99.471 588.244 102.348 584.98 103.302 582.603C103.302 582.603 103.253 585.64 99.457 589.209L99.2586 591.47C99.2586 591.47 101.318 589.052 101.848 588.297C102.379 587.543 102.619 587.628 102.619 587.628C101.943 589.513 100.755 591.172 99.1883 592.42C99.1883 592.42 98.4845 597.056 98.7512 597.106Z" fill="#F5F9FE"/>
<path d="M10.4961 520.049C15.4381 520.049 19.4444 519.362 19.4444 518.514C19.4444 517.667 15.4381 516.979 10.4961 516.979C5.55414 516.979 1.54785 517.667 1.54785 518.514C1.54785 519.362 5.55414 520.049 10.4961 520.049Z" fill="#EEF7FF"/>
<path d="M10.7971 518.438C10.7971 518.438 16.6571 509.306 9.41403 506.741C9.1104 506.497 8.73719 506.355 8.34752 506.335C7.95785 506.316 7.57161 506.42 7.24377 506.632C7.24377 506.632 7.72476 506.926 7.03633 507.802C6.7897 508.11 6.58094 508.446 6.41453 508.803C6.19338 509.282 6.13457 509.819 6.24705 510.333C6.24705 510.333 5.85702 513.6 9.60961 517.051C9.60961 517.051 10.1231 518.329 10.3852 518.445L10.5977 516.474C10.5977 516.474 9.14679 516.379 8.41211 515.429C8.41211 515.429 10.5047 516.523 10.6275 516.189C10.6521 516.122 10.6954 515.141 10.6954 515.141C10.6954 515.141 8.16375 514.963 7.1074 513.448C7.1074 513.448 9.42267 515.09 10.7119 514.769L10.684 513.284C10.684 513.284 8.01219 513.218 6.73196 511.544C6.73196 511.544 9.21386 513.174 10.6538 512.949L10.4362 511.5C10.4362 511.5 7.81904 511.393 6.76938 509.989C6.76938 509.989 9.83086 511.583 10.3614 511.17C10.2504 510.603 10.0707 510.051 9.82602 509.527C9.82602 509.527 7.95125 509.41 7.41524 508.539C7.41524 508.539 9.57285 509.39 9.70471 509.172C9.70471 509.172 8.87279 507.553 8.01189 506.949C8.82957 507.461 9.49872 508.177 9.95328 509.028C10.1367 508.464 10.153 507.86 10.0001 507.289C10.0001 507.289 10.8623 507.95 10.1409 509.434C10.1409 509.434 10.7409 510.725 10.6916 510.958C10.6916 510.958 11.6119 509.59 11.7146 508.512C11.7146 508.512 12.1737 509.769 10.7656 511.341L11.0204 512.8C11.0204 512.8 12.3307 511.06 12.4938 510.104C12.4938 510.104 12.7551 511.465 11.0571 513.173L11.0995 514.629C11.7541 513.891 12.3101 513.071 12.7536 512.19C12.7536 512.19 12.7321 513.5 11.0939 515.047L11.0054 516.023C11.0054 516.023 11.8982 514.981 12.1257 514.655C12.3531 514.329 12.477 514.351 12.477 514.351C12.1842 515.167 11.6704 515.886 10.993 516.429C10.993 516.429 10.6788 518.407 10.7971 518.438Z" fill="#F5F9FE"/>
<path d="M527.253 205.177C527.253 205.177 510.378 191.205 541.158 168.737C541.158 168.737 556.438 197.906 535.967 207.78C535.967 207.78 536.353 193.379 534.457 193.404C532.561 193.428 527.253 205.177 527.253 205.177Z" fill="#F5F9FE"/>
<path d="M501.431 219.381C501.431 219.381 471.639 222.131 479.659 170.807C479.659 170.807 522.614 184.283 512.36 213.513C512.36 213.513 498.823 199.235 497.019 201.085C495.215 202.935 501.431 219.381 501.431 219.381Z" fill="#F5F9FE"/>
<path d="M359.905 285.02C359.905 285.02 330.438 290.196 334.261 238.376C334.261 238.376 378.155 248.311 370.337 278.282C370.337 278.282 355.684 265.156 354.033 267.146C352.382 269.137 359.905 285.02 359.905 285.02Z" fill="#F5F9FE"/>
<path d="M581.088 217.305C581.088 217.305 609.432 226.86 613.519 175.077C613.519 175.077 568.631 178.268 571.791 209.072C571.791 209.072 588.268 198.31 589.587 200.528C590.906 202.745 581.088 217.305 581.088 217.305Z" fill="#F5F9FE"/>
<path d="M431.555 232.465C431.555 232.465 403.284 222.701 431.8 179.255C431.8 179.255 465.348 209.201 443.938 231.62C443.938 231.62 437.513 213.042 435.102 213.985C432.69 214.928 431.555 232.465 431.555 232.465Z" fill="#F5F9FE"/>
<path d="M534.126 217.304C534.126 217.304 532.457 201.421 560.003 205.366C560.003 205.366 553.069 228.367 537.348 223.099C537.348 223.099 544.902 215.779 543.901 214.83C542.901 213.88 534.126 217.304 534.126 217.304Z" fill="#F5F9FE"/>
<path d="M506.217 250.228C506.217 250.228 504.542 234.345 532.088 238.29C532.088 238.29 525.16 261.291 509.432 256.053C509.432 256.053 516.986 248.703 515.986 247.784C514.986 246.865 506.217 250.228 506.217 250.228Z" fill="#F5F9FE"/>
<path d="M564.586 257.217C564.586 257.217 552.504 246.755 575.319 230.879C575.319 230.879 585.99 252.409 570.901 259.275C570.901 259.275 571.416 248.783 570.029 248.771C568.643 248.758 564.586 257.217 564.586 257.217Z" fill="#F5F9FE"/>
<path d="M515.857 347.161C515.857 347.161 530.806 341.471 534.064 369.053C534.064 369.053 510.015 368.275 511.071 351.755C511.071 351.755 520.098 357.164 520.766 355.951C521.435 354.738 515.857 347.161 515.857 347.161Z" fill="#F5F9FE"/>
<path d="M517.035 319.224C517.035 319.224 504.952 308.762 527.774 292.885C527.774 292.885 538.445 314.415 523.349 321.288C523.349 321.288 523.865 310.789 522.484 310.777C521.103 310.765 517.035 319.224 517.035 319.224Z" fill="#F5F9FE"/>
<path d="M424.08 289.51C424.08 289.51 409.58 296.248 404.37 268.96C404.37 268.96 428.419 268.035 428.529 284.591C428.529 284.591 419.141 279.832 418.564 281.088C417.987 282.343 424.08 289.51 424.08 289.51Z" fill="#F5F9FE"/>
<path d="M389.01 257.119C389.01 257.119 374.504 263.857 369.3 236.569C369.3 236.569 393.349 235.644 393.459 252.207C393.459 252.207 384.07 247.447 383.493 248.703C382.917 249.959 389.01 257.119 389.01 257.119Z" fill="#F5F9FE"/>
<path d="M437.82 332.301C437.82 332.301 421.865 332.914 427.652 305.723C427.652 305.723 450.167 314.195 443.834 329.496C443.834 329.496 437.035 321.471 436.01 322.403C434.985 323.334 437.82 332.301 437.82 332.301Z" fill="#F5F9FE"/>
<path d="M434.991 351.583C434.991 351.583 437.833 367.295 410.071 365.396C410.071 365.396 415.281 341.942 431.353 346.04C431.353 346.04 424.357 353.893 425.431 354.769C426.505 355.645 434.991 351.583 434.991 351.583Z" fill="#F5F9FE"/>
<path d="M397.755 339.419C397.755 339.419 391.698 354.199 369.3 337.71C369.3 337.71 386.316 320.724 397.669 332.809C397.669 332.809 387.544 335.682 387.973 336.993C388.403 338.304 397.755 339.419 397.755 339.419Z" fill="#F5F9FE"/>
<path d="M523.755 281.498C523.755 281.498 506.879 267.532 537.66 245.058C537.66 245.058 552.94 274.233 532.469 284.107C532.469 284.107 532.855 269.707 530.959 269.731C529.063 269.756 523.755 281.498 523.755 281.498Z" fill="#F5F9FE"/>
<path d="M593.453 252.678C593.453 252.678 581.119 234.584 616.937 221.519C616.937 221.519 623.509 253.781 601.099 257.597C601.099 257.597 605.468 243.87 603.639 243.368C601.811 242.866 593.453 252.678 593.453 252.678Z" fill="#F5F9FE"/>
<path d="M591.526 309.589C591.526 309.589 574.651 295.623 605.432 273.149C605.432 273.149 620.711 302.318 600.24 312.192C600.24 312.192 600.627 297.797 598.73 297.822C596.834 297.846 591.526 309.589 591.526 309.589Z" fill="#F5F9FE"/>
<path d="M561.39 336.803C561.39 336.803 568.091 315.977 600.442 336.117C600.442 336.117 579.007 361.133 562.212 345.844C562.212 345.844 575.712 340.84 575.013 339.106C574.313 337.373 561.39 336.803 561.39 336.803Z" fill="#F5F9FE"/>
<path d="M604.621 321.661C604.621 321.661 611.322 300.835 643.674 320.975C643.674 320.975 622.239 345.991 605.437 330.702C605.437 330.702 618.937 325.698 618.244 323.965C617.551 322.231 604.621 321.661 604.621 321.661Z" fill="#F5F9FE"/>
<path d="M465.974 242.786C465.974 242.786 444.392 238.933 460.077 204.24C460.077 204.24 487.777 222.107 474.841 240.765C474.841 240.765 468.091 228.049 466.428 229.004C464.765 229.96 465.974 242.786 465.974 242.786Z" fill="#F5F9FE"/>
<path d="M414.649 250.853C414.649 250.853 392.95 254.056 396.792 216.171C396.792 216.171 428.744 224.336 422.411 246.13C422.411 246.13 411.943 236.22 410.691 237.641C409.439 239.062 414.649 250.853 414.649 250.853Z" fill="#F5F9FE"/>
<path d="M401.191 307.004C401.191 307.004 379.498 310.189 383.34 272.316C383.34 272.316 415.292 280.481 408.96 302.275C408.96 302.275 398.491 292.364 397.239 293.785C395.987 295.206 401.191 307.004 401.191 307.004Z" fill="#F5F9FE"/>
<path d="M378.228 324.056C378.228 324.056 359.518 335.455 348.215 299.102C348.215 299.102 380.818 294.14 383.53 316.675C383.53 316.675 370.03 311.64 369.416 313.435C368.803 315.23 378.228 324.056 378.228 324.056Z" fill="#F5F9FE"/>
<path d="M554.007 306.612C554.007 306.612 537.126 292.64 567.906 270.172C567.906 270.172 583.186 299.341 562.721 309.215C562.721 309.215 563.101 294.814 561.205 294.839C559.309 294.863 554.007 306.612 554.007 306.612Z" fill="#F5F9FE"/>
<path d="M434.09 514.044C434.09 514.044 474.418 512.356 478.666 433.888C482.914 355.42 440.881 342.105 440.881 342.105C440.881 342.105 427.563 334.713 421.659 334.407C415.754 334.102 396.021 335.949 396.021 335.949L417.78 331.782C417.78 331.782 387.168 320.199 378 319.269L411.094 326.22C411.094 326.22 411.561 307.999 403.637 301.978C403.637 301.978 410.41 301.476 413.993 314.601C415.012 318.387 416.91 321.884 419.533 324.81C422.157 327.737 425.435 330.011 429.103 331.452C441.379 336.212 458.348 343.72 462.215 350.157C462.215 350.157 469.363 357.567 468.279 338.268C467.196 318.97 462.061 302.436 460.195 301.971C460.195 301.971 445.591 286.534 425.101 285.61C425.101 285.61 437.063 280.819 457.264 295.798C457.264 295.798 458.97 288.235 451.36 279.277C443.75 270.319 431.935 251.479 419.036 249.472C419.036 249.472 437.063 248.389 451.36 271.555C451.36 271.555 456.643 274.951 457.11 266.305C457.578 257.659 460.681 246.847 460.681 246.847C460.681 246.847 465.034 266.77 455.867 275.722C455.867 275.722 473.42 298.423 472.644 323.908C472.644 323.908 478.087 335.484 480.107 321.894C480.107 321.894 481.276 303.183 483.61 287.305C484.556 280.908 484.163 274.385 482.456 268.146C480.749 261.907 477.765 256.085 473.691 251.044C469.806 246.241 467.103 241.572 468.605 239.125L488.96 263.215C488.96 263.215 506.052 223.84 518.514 215.347C530.975 206.854 532.502 205 532.502 205L512.455 228.319L537.631 219.514L512.381 231.109C512.381 231.109 500.726 240.526 494.046 266.317C487.366 292.108 486.744 308.145 486.744 308.145C486.744 308.145 522.639 279.889 529.473 280.812L506.243 298.294C499.926 303.043 494.708 309.084 490.942 316.008C487.175 322.933 484.948 330.58 484.41 338.434C484.41 338.434 529.319 327.004 540.198 324.844L560.707 303.997L545.167 323.761L577.183 323.302L595.518 310.33C595.518 310.33 581.068 322.372 582.466 323.143C583.863 323.914 605 324.844 605 324.844C605 324.844 551.232 324.532 545.327 328.393C539.423 332.254 526.24 333.643 526.24 333.643L564.309 339.358L518.938 336.115C518.938 336.115 484.577 342.295 482.729 352.948C482.729 352.948 489.724 371.084 494.385 378.273C498.251 384.252 506.033 403.599 507.591 420.585C509.149 437.571 511.285 463.668 505.412 479.577C499.538 495.486 497.334 504.591 500.289 509.382C503.244 514.173 506.033 520.347 496.404 521.577C486.775 522.807 444.501 520.965 444.501 520.965C444.501 520.965 431.578 523.492 434.09 514.044Z" fill="#465C72"/>
<path opacity="0.1" d="M457 506C461.126 503.068 465.852 502.253 470.361 503.696C478.09 506.042 489.918 504.793 491 504.54" fill="#333333"/>
<path opacity="0.1" d="M482.469 413C482.469 413 484.362 443.069 481 449L482.469 413Z" fill="#333333"/>
<path opacity="0.1" d="M489 449C489 449 486.804 477.825 485.278 483.458C483.752 489.09 489 449 489 449Z" fill="#333333"/>
<path opacity="0.1" d="M491 380C492.758 380.59 500.316 395.176 498.8 399.479C497.285 403.782 491 380 491 380Z" fill="#333333"/>
<path opacity="0.1" d="M473 364C473.66 364.369 476.498 373.111 475.924 375.688C475.349 378.266 473 364 473 364Z" fill="#333333"/>
<path opacity="0.1" d="M411 313C411.984 314.267 412.501 315.826 412.465 317.421C412.515 319.004 412.311 320.587 412.416 322.164C412.521 323.741 413.325 325.775 415 326" fill="#333333"/>
<path opacity="0.1" d="M440 260C442.094 262.17 443.953 264.573 445.544 267.166C446.005 267.987 446.53 268.767 447.115 269.498C448.061 270.441 449.075 271.307 450.148 272.088C452.54 274.113 454.242 276.888 455 280" fill="#333333"/>
<path opacity="0.1" d="M521 215C520.5 215.997 519.842 216.901 519.054 217.675C518.369 218.349 517.582 218.911 516.963 219.652C516.465 220.294 516.015 220.974 515.617 221.685C513.948 224.282 512.069 226.729 510 229" fill="#333333"/>
<path opacity="0.1" d="M484 260C485.178 260.815 485.486 262.56 485.459 264.094C485.432 265.629 485.194 267.229 485.713 268.656C485.945 269.309 486.324 269.855 486.572 270.526C486.928 271.667 487.064 272.878 486.972 274.081C486.972 275.471 486.936 276.87 486.864 278.277C486.799 279.949 486.653 281.771 485.627 283" fill="#333333"/>
<path opacity="0.1" d="M485 344C485.833 343.344 486.72 342.752 487.651 342.229C488.505 341.732 489.424 341.347 490.384 341.082C491.843 340.709 493.384 340.765 494.89 340.615C496.395 340.464 497.971 340.058 499 339" fill="#333333"/>
<path opacity="0.1" d="M548 325C546.039 325.048 544.002 325.107 542.252 325.854C541.365 326.238 540.592 326.788 539.698 327.194C538.565 327.717 537.294 327.994 536 328" fill="#333333"/>
<path opacity="0.1" d="M521 333.096C521.268 333.003 521.579 332.976 521.875 333.022C522.17 333.068 522.43 333.183 522.606 333.345C523.007 333.642 523.226 334.034 523.642 334.326C524.46 334.909 525.832 334.971 527 335" fill="#333333"/>
<path opacity="0.1" d="M511 293L509.205 293.899C507.371 294.764 505.627 295.803 504 297" fill="#333333"/>
<path opacity="0.1" d="M490 310.042C488.691 309.745 487.564 311.081 487.301 312.346C487.038 313.611 487.341 314.928 486.964 316.186C486.556 317.262 485.882 318.227 485 319" fill="#333333"/>
<path opacity="0.1" d="M469.697 313C468.32 316.127 471.253 319.526 470.382 322.772C470.125 323.756 469.526 324.676 469.222 325.649C468.444 328.224 469.79 330.959 472 333" fill="#333333"/>
<g opacity="0.1">
<path opacity="0.1" d="M230.179 392.89C229.147 392.28 228.05 391.787 226.909 391.42C227.292 391.593 227.664 391.789 228.023 392.008C231.486 394.248 232.529 399.493 230.179 402.88C225.466 409.031 214.691 404.509 209.107 409.901C208.368 410.709 207.842 411.686 207.575 412.747C205.714 418.668 205.808 426.001 200.771 429.611C198.668 431.111 195.87 431.74 194.327 433.816C192.783 435.892 193.019 438.82 193.148 441.46C193.722 453.378 190.272 465.143 183.352 474.871C181.031 478.105 178.297 481.116 174.898 483.18C172.437 484.701 169.63 485.575 166.739 485.72C166.391 485.963 166.013 486.16 165.614 486.308C169.502 487.161 173.649 486.114 177.054 484.05C180.459 481.986 183.193 478.976 185.508 475.742C192.43 466.016 195.882 454.253 195.31 442.336C195.175 439.708 194.916 436.815 196.488 434.692C198.061 432.569 200.824 431.993 202.927 430.488C207.982 426.883 207.87 419.545 209.731 413.629C209.997 412.568 210.523 411.59 211.263 410.783C216.853 405.385 227.64 409.907 232.335 403.756C234.715 400.369 233.642 395.124 230.179 392.89Z" fill="#333333"/>
</g>
<path d="M430.126 369.143L423.181 384.015C423.181 384.015 422.159 386.804 421.5 387.324C420.842 387.845 417.923 396.656 417.923 396.656L410.473 408.213L409.969 409L407.044 408.188L405 400.492L405.123 398.261V397.976C405.123 397.976 409.728 393.131 410.75 392.759C410.75 392.759 411.551 392.852 413.084 389.097C414.617 385.341 416.008 384.53 416.008 384.53L416.809 381.803L425.428 367.985C425.428 367.985 432.657 357.556 434.627 362.185C436.597 366.814 430.126 369.143 430.126 369.143Z" fill="#FBBEBE"/>
<path d="M346.917 385.289C346.541 386.054 346.268 386.864 346.105 387.697C346.062 387.908 346.012 388.131 345.956 388.36C345.479 390.768 345.144 393.779 344.983 395.549C344.903 396.434 344.859 397 344.859 397C344.859 397 327.312 395.856 330.354 393.002C331.133 392.207 331.685 391.23 331.959 390.166C332.046 389.865 332.126 389.564 332.188 389.239C332.332 388.527 332.425 387.807 332.467 387.083V386.529C332.505 385.35 332.447 384.17 332.294 383.001C332.294 383.001 338 382.964 342.3 383.446C345.213 383.771 347.468 384.319 346.917 385.289Z" fill="#F3AEAE"/>
<path d="M400.975 474.243C400.954 474.493 400.877 474.734 400.75 474.947C399.983 476.111 395.637 499.855 395.637 499.855C395.986 501.459 395.011 504.655 394.38 506.112C393.748 507.569 392.343 515.113 392.343 515.113C392.343 515.113 391.994 531.387 391.091 533.922C390.188 536.457 391.38 541.912 391.38 541.912C391.292 544.416 392.744 547.067 393.606 548.415C393.665 548.5 393.724 548.586 393.771 548.666C394.055 549.082 394.238 549.321 394.238 549.321C394.476 549.806 394.81 550.233 395.218 550.576L395.413 550.735C396.604 551.561 397.937 552.143 399.339 552.449L399.475 552.48C400.036 552.609 400.402 552.664 400.402 552.664L400.762 554.654L397.048 555.45L389.963 555.958C389.963 555.958 381.626 556.613 383.516 552.762C383.648 552.499 383.762 552.227 383.858 551.947C383.929 551.764 383.994 551.568 384.053 551.372C385.187 547.698 384.419 543.173 384.419 543.173L382.807 530.034C380.15 517.831 384.903 504.245 384.903 504.245C384.903 504.245 384.49 503.161 385.399 500.4C386.308 497.638 385.411 491.589 385.411 491.589C385.411 491.589 384.927 483.813 384.295 479.956C384.042 478.337 383.957 476.695 384.041 475.057C384.07 474.098 384.155 473.141 384.295 472.192L400.237 470C400.237 470 401.164 472.712 400.975 474.243Z" fill="#FBBEBE"/>
<path opacity="0.1" d="M401 554.634L397.186 555.442L389.908 555.957C389.908 555.957 381.346 556.622 383.286 552.715C383.422 552.448 383.539 552.172 383.638 551.889C383.711 551.702 383.777 551.503 383.838 551.305C385.322 551.353 386.788 551.655 388.174 552.199C390.6 553.162 392.419 550.652 392.419 550.652L393.632 548.335L393.802 548C394.093 548.422 394.281 548.665 394.281 548.665C394.568 549.235 394.984 549.726 395.494 550.1L395.294 550.528L394.141 553.013C394.141 553.013 395.615 553.168 397.628 553.497C398.017 553.606 398.433 553.557 398.786 553.358C399.14 553.16 399.406 552.829 399.526 552.435L399.666 552.466C400.242 552.597 400.618 552.653 400.618 552.653L401 554.634Z" fill="#333333"/>
<path d="M404.941 555.836C404.645 557.155 396.329 557.556 396.329 557.556C396.329 557.556 391.708 557.118 390.407 558.172C389.106 559.226 385.29 558.973 385.145 558.973C385.001 558.973 382.983 558.899 382.197 555.361C381.411 551.822 383.222 551.304 383.31 551.274C384.919 551.297 386.511 551.599 388.012 552.167C390.526 553.123 392.412 550.632 392.412 550.632L393.82 548C394.122 548.419 394.317 548.66 394.317 548.66C394.615 549.225 395.046 549.713 395.574 550.084L394.173 552.969C394.173 552.969 395.7 553.123 397.787 553.45C398.037 553.505 398.296 553.506 398.545 553.452C398.795 553.398 399.03 553.29 399.232 553.136C399.434 552.982 399.598 552.786 399.714 552.562C399.829 552.338 399.893 552.092 399.899 551.841C399.904 551.767 399.904 551.693 399.899 551.619C399.899 551.619 401.201 551.989 402.804 552.426C403.534 552.624 404.16 553.086 404.557 553.718C404.953 554.351 405.091 555.107 404.941 555.836Z" fill="#465C72"/>
<path d="M419.702 491.272C419.517 492.427 419.326 495.412 419.326 495.412C419.987 497.91 418.291 503.843 418.291 503.843L417.445 507.235C417.82 511.562 415.117 522.133 415.117 522.133C415.117 522.133 413.331 531.944 412.361 536.174C411.801 538.528 411.972 541 412.849 543.25C412.897 543.365 412.926 543.42 412.926 543.42C412.939 543.5 412.956 543.58 412.98 543.657C413.01 543.773 413.046 543.888 413.081 543.998C413.29 544.589 413.605 545.135 414.01 545.608C414.165 545.798 414.334 545.975 414.516 546.137C415.394 546.936 416.401 547.574 417.493 548.022L417.963 548.21C418.453 548.402 418.954 548.562 419.463 548.69L419.63 548.733L419.255 551L414.266 549.693L407.58 547.481L404.294 545.56L404.395 545.019C404.395 545.019 404.395 544.982 404.395 544.964C404.395 544.812 404.449 544.636 404.49 544.435C405.002 541.457 406.276 533.135 405.645 527.002C404.848 519.41 407.943 508.93 408.699 506.432C409.147 505.004 409.338 503.505 409.265 502.007C408.039 500.183 407.759 492.889 407.759 492.889C407.759 492.889 405.496 488.178 403.627 483.164C403.009 481.532 402.558 479.839 402.282 478.112C402.063 476.894 401.972 475.655 402.008 474.417C402.008 474.417 417.171 460.284 418.838 473.967C418.898 474.429 418.945 474.872 418.999 475.304C420.553 487.856 419.88 490.16 419.702 491.272Z" fill="#FBBEBE"/>
<path opacity="0.1" d="M420 548.915L419.609 551L414.404 549.798L407.429 547.763L404 545.996L404.106 545.498C404.106 545.498 404.106 545.465 404.106 545.448C404.106 545.308 404.162 545.146 404.205 544.962L404.696 544.917H404.733C405.724 544.833 406.722 544.956 407.652 545.275C408.789 545.655 410.273 546.097 410.584 545.912C411.108 545.708 411.678 545.616 412.248 545.644L412.975 544.218L413.081 544C413.299 544.544 413.627 545.046 414.05 545.482C414.222 545.665 414.409 545.837 414.609 545.996V546.499L414.571 547.215C415.344 547.66 416.18 548.01 417.056 548.255C417.284 548.305 417.523 548.305 417.752 548.255L418.242 548.428C418.753 548.605 419.276 548.752 419.807 548.87L420 548.915Z" fill="#333333"/>
<path d="M417.252 553.835C415.87 553.418 412.528 552.745 412.002 553.268C411.477 553.791 406.841 553.268 406.841 553.268C406.36 553.254 405.891 553.112 405.478 552.853C405.065 552.595 404.721 552.23 404.478 551.792C403.522 550.21 404.295 545.115 404.295 545.115L404.638 545.078L405.228 545.021H405.264C406.206 544.928 407.155 545.065 408.039 545.42C409.12 545.844 410.532 546.336 410.827 546.13C411.325 545.899 411.867 545.797 412.41 545.831L413.201 544C413.408 544.606 413.721 545.166 414.122 545.651C414.286 545.855 414.463 546.047 414.654 546.224L414.589 547.581C415.323 548.078 416.118 548.467 416.951 548.74C417.154 548.823 417.378 548.83 417.586 548.76C417.793 548.689 417.971 548.546 418.091 548.354C418.128 548.291 418.158 548.224 418.179 548.154C418.221 548.235 418.675 548.404 420.134 548.84C421.711 548.746 423.24 549.462 423.943 551.736C424.646 554.009 418.628 554.246 417.252 553.835Z" fill="#465C72"/>
<path opacity="0.1" d="M400.975 473.992L400.116 474.246C399.441 474.444 398.75 474.587 398.051 474.673C393.618 475.251 386.32 474.916 384 474.772C384.029 473.866 384.114 472.963 384.254 472.068L400.235 470C400.235 470 401.164 472.548 400.975 473.992Z" fill="#333333"/>
<path d="M416 470.026C416 470.026 409.819 470.972 404.796 472.066C403.122 472.431 401.566 472.808 400.439 473.179C399.73 473.395 399.003 473.548 398.267 473.637C392.665 474.416 382.706 473.699 382.706 473.699C379.98 464.894 386.03 453.82 386.03 453.82C385.886 452.936 387.275 450.228 387.275 450.228V450.141L388.133 447H411.095L411.375 448.348L411.96 451.093L415.564 468.097L416 470.026Z" fill="#0E8AFD"/>
<path opacity="0.1" d="M419 475.223L418.869 475.283L416.297 476.437C413.516 477.73 405.193 477.976 402.282 478C402.063 476.795 401.972 475.57 402.008 474.345C402.008 474.345 417.172 460.37 418.839 473.901C418.899 474.357 418.946 474.784 419 475.223Z" fill="#333333"/>
<path d="M420 473.959L419.449 474.206L416.801 475.393C413.891 476.747 405.049 476.988 402.212 477H401.471C400.159 476.957 398.854 475.72 398.854 475.399C398.854 475.22 398.719 474.354 398.603 473.606L398.419 472.493C398.419 472.493 392.604 469.953 389.626 467.9C387.402 466.374 387.966 455.537 388.401 450.091C388.548 448.236 388.683 447 388.683 447L411.562 448.348L414.773 448.539L416.611 448.947L417.102 449.052C417.102 449.052 418.413 458.733 419.069 459.561C419.724 460.39 419.289 463.079 419.21 464.624C419.208 465.289 419.136 465.952 418.995 466.602C418.995 466.602 419.939 469.316 419.718 470.837C419.619 471.886 419.714 472.945 420 473.959Z" fill="#0E8AFD"/>
<path d="M316.685 466.998C310.7 466.803 315.11 454.582 315.798 452.927C316.487 451.271 314.775 447.26 314.775 447.26C314.775 447.26 312.759 435.611 312.759 434.844C312.655 433.257 312.427 431.68 312.077 430.127C311.851 428.545 312.124 426.933 312.858 425.507C313.547 424.448 313.479 420.212 313.479 420.212V414.735L314.806 413L318.223 416.165L319.172 417.041L320.834 423.176L320.245 431.965L319.916 440.523L321.975 452.361C321.975 452.361 322.67 467.187 316.685 466.998Z" fill="#F3AEAE"/>
<path opacity="0.1" d="M318 418L313 415.76V414.877L314.302 413L317.653 416.426L318 418Z" fill="#333333"/>
<path d="M315.899 405C315.208 406.588 314.708 408.242 314.407 409.932C314.128 411.557 313.656 413.148 313 414.675L319 417L315.899 405Z" fill="#4C4981"/>
<path d="M315.899 405C315.208 406.588 314.708 408.242 314.407 409.932C314.128 411.557 313.656 413.148 313 414.675L319 417L315.899 405Z" fill="#465C72"/>
<path d="M361 527.516L360.492 528.513C360.492 528.513 359.964 531.837 359.964 531.911C359.964 531.985 358.458 534.208 358.458 534.208L354.645 535L353.037 534.808C352.952 533.896 352.808 532.991 352.605 532.097C352.548 531.843 352.484 531.583 352.414 531.323C351.85 529.25 350.956 527.276 349.764 525.473C349.764 525.473 346.955 518.719 345.951 517.84C344.947 516.961 341.121 508.047 341.502 505.893C341.718 504.711 341.547 500.755 341.343 497.456C341.184 494.763 341 492.503 341 492.503L350.533 487L351.645 488.709L352.281 489.724C352.281 489.724 352.281 489.916 352.281 490.238C352.281 490.275 352.281 490.318 352.281 490.355C352.166 491.739 351.88 493.105 351.429 494.422C351.429 494.422 350.711 499.418 351.429 500.297C352.147 501.176 354.416 512.956 354.918 518.404C354.918 518.571 354.918 518.738 354.962 518.893C355.16 521.369 356.755 523.628 358.35 525.263L358.668 525.578C359.399 526.275 360.178 526.922 361 527.516Z" fill="#F3AEAE"/>
<path d="M352.66 534.807L354.347 535L358.347 534.204C358.347 534.204 359.927 531.971 359.927 531.897C359.927 531.822 360.433 528.483 360.433 528.483L360.94 527.481L361 527.357C360.029 526.724 359.113 526.021 358.26 525.255L357.987 525C357.987 525 358.553 528.252 355.52 529.708C354.053 530.41 352.853 530.951 352 531.325L352.66 534.807Z" fill="#F3AEAE"/>
<path d="M361 528.34L360.468 529.495C360.468 529.495 359.942 532.828 359.942 532.903C359.942 532.977 358.439 535.205 358.439 535.205L354.637 536L352.463 535.746C352.463 535.311 352.393 534.709 352.279 533.97C352.209 533.523 352.12 533.027 352 532.499C352.805 532.133 354.104 531.525 355.758 530.693C358.642 529.246 358.097 526 358.097 526C358.721 526.613 359.384 527.187 360.081 527.719C360.468 527.993 360.81 528.21 361 528.34Z" fill="#F3AEAE"/>
<path opacity="0.1" d="M361 527.675L360.512 528.93C360.512 528.93 360.029 532.552 360.029 532.633C360.029 532.714 358.651 535.136 358.651 535.136L355.163 536L353.169 535.723C353.169 535.251 353.105 534.597 353 533.794C353.425 533.814 353.848 533.882 354.262 533.996C354.262 533.996 359 535.17 359.227 530.819C359.36 528.349 359.808 527.378 360.157 527C360.512 527.297 360.826 527.533 361 527.675Z" fill="#333333"/>
<path d="M361.152 527.816C361.152 527.816 359.929 527.536 359.667 531.547C359.404 535.558 354.445 534.476 354.445 534.476C354.445 534.476 352 533.854 352 534.893C352.081 535.847 352.302 536.784 352.654 537.673C352.654 537.673 352.795 540.054 353.266 540.62C353.736 541.186 353.431 543.301 353.431 543.301C353.431 543.301 353.626 544.874 357.472 543.301C357.472 543.301 360.908 542.586 363.757 538.238C363.848 538.089 363.414 537.617 365.909 536.74C368.403 535.863 375.526 529.998 374.969 527.144C374.917 526.673 374.729 526.227 374.428 525.865C374.128 525.502 373.729 525.237 373.282 525.104C372.91 525 372.521 524.974 372.139 525.026C371.756 525.078 371.388 525.209 371.056 525.409C370.383 525.776 369.689 526.102 368.978 526.385C368.028 526.776 367.027 527.019 366.006 527.107C365.225 527.171 364.452 527.322 363.702 527.554C362.84 527.803 361.77 528.039 361.152 527.816Z" fill="#465C72"/>
<path d="M332.753 500.876C332.206 501.332 331.734 501.869 331.353 502.467C329.946 504.583 329.103 507.543 328.149 508.815C326.926 510.466 326.584 513.679 326.584 513.679C326.26 515.789 321.729 527.055 320.469 529.057C319.21 531.058 317.535 536.489 317.535 536.489C316.489 537.785 316.55 539.702 316.66 540.618C316.66 540.775 316.697 540.902 316.709 540.986L316.74 541.137L316.709 541.191L315.034 544L309.702 543.271L307 541.42C307.23 541.061 307.434 540.686 307.611 540.299C309.085 537.056 310.137 531.257 310.137 531.257C310.137 531.257 311.616 524.626 311.506 523.107C311.544 521.003 311.691 518.903 311.946 516.814C311.946 516.814 316.116 504.155 317.449 502.082C318.013 501.276 318.36 500.343 318.458 499.369C318.485 499.169 318.485 498.966 318.458 498.766L320.262 497C320.262 497 335.076 499.056 332.753 500.876Z" fill="#F3AEAE"/>
<path d="M316 541.273C316 541.273 316 541.403 315.972 541.608V541.771L314.431 544L309.526 543.421L307 541.953C307.212 541.668 307.4 541.37 307.562 541.063C308.794 540.766 311.618 541.613 311.618 541.613C311.618 541.613 314.667 542.091 315.949 541.317L316 541.273Z" fill="#F3AEAE"/>
<path d="M315.338 548.64L309.953 550L305 546.203L305.25 544.065C305.598 543.833 305.905 543.542 306.159 543.204C306.524 542.763 306.773 542.231 306.879 541.66C307.165 540.091 311.874 541.812 311.874 541.812C311.874 541.812 315.314 542.489 316.65 541.363C316.555 542.4 316.642 543.446 316.906 544.451C317.031 544.94 317.31 545.372 317.699 545.678C319.065 546.653 315.338 548.64 315.338 548.64Z" fill="#F3AEAE"/>
<path opacity="0.1" d="M315.338 548.602L309.953 550L305 546.098L305.25 543.9C305.598 543.661 305.905 543.362 306.159 543.015C306.521 542.995 306.883 542.995 307.245 543.015C308.074 543.093 310.026 546.878 310.026 546.878C314.905 547.223 316.381 545.519 316.906 544.277C317.031 544.78 317.31 545.223 317.699 545.538C319.065 546.56 315.338 548.602 315.338 548.602Z" fill="#333333"/>
<path d="M309.854 547.682C309.854 547.682 307.897 544.104 307.065 544.031C306.364 543.994 305.662 543.994 304.961 544.031C304.961 544.031 302.783 549.213 301.982 549.686C301.181 550.159 300 552.599 300 552.599C300 552.599 305.744 558.181 311.31 557.123C313.081 557.148 314.823 557.583 316.399 558.396C318.974 559.748 329.709 558.728 331.018 556.355C331.997 554.579 332.382 553.282 331.526 552.341C331.269 552.071 330.95 551.867 330.598 551.747C330.245 551.627 329.869 551.595 329.501 551.653C328.15 551.837 325.122 551.794 322.455 548.518C322.455 548.518 317.561 544.006 317.158 544C316.754 543.994 317.512 548.217 309.854 547.682Z" fill="#465C72"/>
<path opacity="0.1" d="M352 490.504L351.963 490.549C351.63 490.94 349.235 493.702 348.519 493.903C347.317 494.38 346.142 494.928 345 495.545C345 495.545 343.537 497.609 342.364 497.707C342.011 497.763 341.665 497.861 341.333 498C341.179 495.167 341 492.79 341 492.79L350.259 487L351.34 488.798C351.586 489.527 351.858 490.191 351.957 490.406L352 490.504Z" fill="#333333"/>
<path d="M318.589 452.817C318.589 452.817 315.013 457.56 318.589 463.859C322.165 470.158 325.924 473.307 325.924 473.307L338.106 499C338.106 499 341.297 497.226 342.458 497.133C343.62 497.039 345.068 495.066 345.068 495.066C346.199 494.475 347.36 493.948 348.546 493.485C349.323 493.293 352 490.243 352 490.243C352 490.243 350.674 487.286 350.967 486.508C351.26 485.73 350.093 483.751 350.093 483.751C349.74 482.76 349.482 481.737 349.323 480.695C349.323 479.911 348.064 478.037 348.064 478.037C348.064 478.037 346.811 476.071 346.811 474.988C346.811 473.905 344.977 469.672 344.977 469.672L344.494 451L318.589 452.817Z" fill="#F5F9FE"/>
<path opacity="0.05" d="M352 490.25C352 490.25 349.323 493.291 348.552 493.496C347.363 493.951 346.199 494.474 345.068 495.063C345.068 495.063 343.619 497.035 342.458 497.128C341.63 497.307 340.83 497.6 340.08 497.999C339.041 498.484 338.112 499 338.112 499L325.929 473.327C324.863 472.372 323.874 471.332 322.97 470.217C321.32 468.251 319.849 466.136 318.575 463.899C317.181 461.616 316.688 458.881 317.194 456.243C317.418 455.032 317.889 453.882 318.575 452.866L327.243 452.244L344.487 451L344.634 456.523L344.97 469.689C344.97 469.689 345.258 470.348 345.582 471.212C346.113 472.543 346.804 474.322 346.804 475C346.804 476.082 348.057 478.047 348.057 478.047C348.057 478.047 349.316 479.913 349.316 480.703C349.476 481.744 349.734 482.766 350.087 483.757C350.087 483.757 351.248 485.722 350.955 486.506C350.661 487.289 352 490.25 352 490.25Z" fill="#333333"/>
<path opacity="0.1" d="M332.747 500.519C332.186 500.934 331.701 501.423 331.309 501.968C325.91 502.308 319.632 499.838 318 499.157C318.028 498.975 318.028 498.791 318 498.608L319.852 497C319.852 497 335.133 498.861 332.747 500.519Z" fill="#333333"/>
<path d="M348 459.39C348 459.39 347.23 462.091 346.946 463.252C346.661 464.412 346.085 470.113 346.085 470.113L345.752 471.707L340.299 498.021L339.087 503.74C336.978 504.9 331.706 501.803 331.706 501.803C325.574 502.487 318 498.522 318 498.522C318 498.522 319.248 494.465 318.957 492.413C318.667 490.36 320.684 488.747 320.684 488.747C320.206 486.914 321.926 478.892 321.926 478.892C321.926 478.892 322.314 475.898 323.744 475.122C325.174 474.347 323.556 473.192 323.138 472.514C322.951 472.184 323.084 471.426 323.278 470.742C323.401 470.295 323.546 469.854 323.714 469.422C320.078 465.757 319.472 459.983 319.472 456.788C319.463 456.006 319.498 455.225 319.575 454.448L327.495 453.055L344.782 450L346.54 455.499L346.982 456.873L348 459.39Z" fill="#F5F9FE"/>
<path opacity="0.1" d="M346.915 385.131C346.531 385.844 346.253 386.598 346.085 387.374C346.041 387.57 345.99 387.778 345.934 387.991C344.193 388.994 343.116 389 340.869 389C340.103 389 339.673 387.699 338.97 387.565C338.97 387.565 337.881 384.083 337.571 387.004C335.475 386.617 333.665 388.069 332.177 386.802V386.286C332.216 385.189 332.157 384.09 332 383.001C332 383.001 337.83 382.967 342.224 383.415C345.174 383.718 347.478 384.228 346.915 385.131Z" fill="#333333"/>
<path d="M350 378.5C349.998 381.284 348.892 383.954 346.923 385.923C344.954 387.892 342.284 388.998 339.5 389C338.789 389.002 338.08 388.93 337.385 388.785C335.439 388.385 333.647 387.442 332.217 386.064C330.786 384.686 329.776 382.931 329.302 381.002C328.829 379.073 328.913 377.05 329.543 375.166C330.174 373.283 331.326 371.617 332.865 370.362C334.404 369.107 336.268 368.314 338.24 368.076C340.211 367.838 342.21 368.163 344.004 369.015C345.798 369.867 347.314 371.211 348.375 372.889C349.436 374.568 350 376.513 350 378.5Z" fill="#F3AEAE"/>
<path opacity="0.1" d="M345 395.514C344.919 396.42 344.876 397 344.876 397C344.876 397 327.309 395.828 330.355 392.905C331.134 392.091 331.687 391.09 331.961 390L339.579 391.233C339.579 391.233 341.731 392.899 343.406 394.453C343.881 394.883 344.419 395.241 345 395.514Z" fill="#333333"/>
<path opacity="0.1" d="M347 456.959C346.232 457.048 345.453 456.992 344.71 456.793C344.384 456.701 344.072 456.575 343.778 456.416C342.315 455.606 337.438 456.599 337.438 456.599C337.438 456.599 324.154 457.415 323.568 456.599C323.235 456.137 320.901 456.205 318.975 456.348C318.198 456.405 317.481 456.473 317 456.525C317.227 455.413 317.702 454.357 318.395 453.425L327.148 452.854L344.759 450L346.549 455.138C346.753 456.177 347 456.959 347 456.959Z" fill="#333333"/>
<path d="M339.104 391.562L329.473 390C329.305 390.376 329.055 390.711 328.741 390.981C328.427 391.25 328.058 391.449 327.658 391.562C326.373 391.859 320.653 394.786 318.09 398.306L315.526 401.82C315.526 401.82 313.449 404.358 314.141 406.409C314.834 408.459 315.62 415.401 315.62 415.401L316.611 423.114C316.611 423.114 318.483 428.672 317.89 431.142C317.298 433.613 318.19 443.84 318.19 443.84L316.212 456.537C316.212 456.537 322.924 455.66 323.517 456.537C324.109 457.414 337.526 456.537 337.526 456.537C337.526 456.537 342.454 455.462 343.939 456.339C344.927 456.884 346.066 457.1 347.188 456.957C347.188 456.957 346.01 452.955 346.696 450.707C347.382 448.459 347.188 444.358 347.188 444.358C347.188 444.358 348.18 438.399 347.687 437.324C347.195 436.25 348.773 432.347 348.773 432.347L354 405.093C354 405.093 353.376 400.208 350.576 398.547C347.775 396.886 344.625 396.398 342.947 394.842C341.269 393.285 339.104 391.562 339.104 391.562Z" fill="#465C72"/>
<path d="M344 418.253V421.483L346.953 429.603L348.013 437.141C348.013 437.141 349.906 442.526 349.906 444.389C349.906 446.252 354.518 455.281 354.518 455.281C354.518 455.281 355.782 458.32 355.153 458.902C354.524 459.483 349.025 472.381 355.938 471.991C362.85 471.601 360.676 458.091 360.676 458.091L359.729 452.218C359.729 452.218 358.4 437.538 358.4 436.461C358.4 436.461 356.699 430.191 356.507 428.823C356.315 427.456 355.087 420.506 355.087 420.506L354.045 416L344 418.253Z" fill="#F3AEAE"/>
<path opacity="0.1" d="M340 428L329.317 434.044L326 439L330.416 434.553L340 428Z" fill="#333333"/>
<path opacity="0.1" d="M337 440C337 440 332.051 442.94 329.724 442.94C327.398 442.94 322 448 322 448C322 448 329.649 443.493 330.217 443.625C330.786 443.758 337 440 337 440Z" fill="#333333"/>
<path opacity="0.1" d="M324.349 442C324.349 442 320.083 445.592 321.18 445.976C322.277 446.36 328 442 328 442H324.349Z" fill="#333333"/>
<path opacity="0.1" d="M344.851 427C344.851 427 341.176 432.078 342.171 431.999C343.165 431.92 346 429.035 346 429.035L344.851 427Z" fill="#333333"/>
<path opacity="0.1" d="M345 432C345 432 340.843 435.897 341.005 436.887C341.166 437.878 345 432 345 432Z" fill="#333333"/>
<path opacity="0.1" d="M346 434C346 434 343.053 438.05 344.314 438.912C345.575 439.775 346 434 346 434Z" fill="#333333"/>
<path opacity="0.1" d="M343.005 422C343.005 422 341.13 425.638 342.502 425.889C343.873 426.139 344 425.889 344 425.889L343.005 422Z" fill="#333333"/>
<path opacity="0.1" d="M343 411C342.649 412.714 342.168 414.388 341.564 416C341.337 415.177 341.149 414.34 341 413.492C341.595 412.584 342.265 411.75 343 411Z" fill="#333333"/>
<path opacity="0.1" d="M348.994 373.371C348.809 373.769 348.566 374.138 348.272 374.468C347.779 374.903 347.342 375.395 346.969 375.934C346.569 376.685 346.642 377.591 346.502 378.437C346.363 379.284 345.823 380.226 344.962 380.226C344.519 380.184 344.089 380.059 343.695 379.856C343.5 379.754 343.281 379.704 343.06 379.71C342.839 379.717 342.623 379.779 342.434 379.892C342.184 380.142 342.04 380.477 342.034 380.828C341.925 381.558 341.882 382.296 341.907 383.033C341.907 383.327 341.925 383.619 341.961 383.909C342.052 384.857 342.24 385.87 341.785 386.717C341.375 387.367 340.75 387.859 340.015 388.111C339.218 388.439 338.383 388.669 337.529 388.797C335.902 388.994 334.261 389.048 332.624 388.958C332.476 388.96 332.328 388.936 332.188 388.886C332.118 388.858 332.054 388.818 332 388.767C332.175 387.883 332.273 386.985 332.291 386.085C331.182 385.04 330.316 383.773 329.75 382.369C329.185 380.965 328.934 379.458 329.015 377.95C329.096 376.442 329.506 374.969 330.218 373.631C330.931 372.294 331.928 371.123 333.142 370.198C334.357 369.274 335.76 368.618 337.255 368.275C338.751 367.932 340.304 367.91 341.809 368.21C343.314 368.511 344.736 369.127 345.977 370.016C347.217 370.906 348.249 372.048 349 373.365L348.994 373.371Z" fill="#333333"/>
<path d="M344.453 364.012C343.454 363.913 342.518 364.448 341.538 364.666C339.517 365.12 337.447 364.186 335.377 364.193C333.593 364.294 331.857 364.818 330.312 365.724C329.055 366.316 327.911 367.125 326.929 368.113C325.942 369.106 325.367 370.441 325.321 371.847C325.321 372.656 325.555 373.509 325.247 374.262C325.034 374.663 324.786 375.044 324.508 375.401C324.249 375.815 324.085 376.282 324.025 376.768C323.965 377.254 324.012 377.748 324.162 378.214C324.577 379.131 325.139 379.972 325.826 380.703C327.163 382.439 328.001 384.512 329.197 386.341C329.715 387.143 330.303 387.897 330.953 388.594C331.056 388.72 331.184 388.824 331.328 388.899C331.471 388.947 331.621 388.97 331.772 388.967C334.311 389.036 336.948 389.092 339.283 388.084C340.03 387.82 340.665 387.306 341.082 386.627C341.544 385.75 341.353 384.686 341.261 383.696C341.156 382.625 341.181 381.544 341.335 380.479C341.346 380.114 341.491 379.765 341.742 379.502C341.935 379.384 342.155 379.318 342.381 379.312C342.606 379.305 342.83 379.358 343.029 379.465C343.425 379.682 343.862 379.813 344.311 379.85C345.192 379.819 345.74 378.855 345.882 377.983C346.024 377.112 345.944 376.166 346.357 375.376C346.733 374.815 347.176 374.303 347.675 373.851C348.277 373.078 348.69 372.172 348.88 371.208C349.071 370.243 349.034 369.247 348.772 368.3C348.23 366.502 346.474 364.224 344.453 364.012Z" fill="#25323F"/>
<path d="M395.5 394C400.747 394 405 389.747 405 384.5C405 379.253 400.747 375 395.5 375C390.253 375 386 379.253 386 384.5C386 389.747 390.253 394 395.5 394Z" fill="#FBBEBE"/>
<path d="M390.599 389.032C390.599 389.032 391.246 397.607 389.45 399.578C387.655 401.549 383 405.259 383 405.259L384.433 411.089L392.533 412L402 402.105L399.848 399.507C399.848 399.507 398.198 394.033 399.564 391.293C400.93 388.553 390.599 389.032 390.599 389.032Z" fill="#FBBEBE"/>
<path opacity="0.1" d="M411 408.185L410.447 409L407.241 408.16L405 400.213L405.135 397.904L405.81 397C405.81 397 409.333 397.077 409.184 400.123C409.016 402.779 410.615 407.172 411 408.185Z" fill="#333333"/>
<path opacity="0.1" d="M417 449.943C417 449.943 414.705 450.413 412.082 450.726C409.459 451.039 406.423 451.207 405.184 450.536C403.101 449.417 391.825 449.724 388.559 449.842H388L388.838 447H411.238L411.511 448.22L414.693 448.393L416.514 448.762C416.812 449.473 417 449.943 417 449.943Z" fill="#333333"/>
<path d="M405.252 398C405.252 398 408.478 398.067 408.342 400.969C408.206 403.87 410.097 408.867 410.097 408.867L409.368 410.534C409.368 410.534 408.342 414.59 409.145 415.604C409.949 416.618 412.884 416.618 411.197 424.95C411.197 424.95 410.832 431.181 411.71 433.209C412.587 435.237 412.594 440.093 413.91 442.121C415.226 444.149 417 448.84 417 448.84C417 448.84 407.47 450.941 404.98 449.488C402.489 448.034 387.163 448.767 387.163 448.767C387.163 448.767 387.237 446.232 387.163 445.939C387.036 445.303 387.169 444.644 387.533 444.106C388.046 443.416 388.85 442.274 388.411 441.241C387.972 440.209 389.511 438.737 388.708 437.161C387.904 435.585 386.915 435.279 387.113 434.418C387.311 433.557 386.798 432.402 386.211 431.675C385.624 430.949 381.669 423.295 381.669 423.295L381.007 419.721C381.007 419.721 375.903 416.026 376.001 414.285C376.1 412.544 377.93 410.137 377.93 410.137L382.874 405.373C382.874 405.373 385.581 408.274 388.226 407.26C390.871 406.246 396.532 401.39 396.532 401.39C396.532 401.39 398.559 400.303 398.707 399.509C398.855 398.715 400.098 399.435 400.098 399.435C400.098 399.435 401.952 398.44 402.298 398.794C402.644 399.148 404.275 399.435 404.275 399.435L405.252 398Z" fill="#FF6584"/>
<path d="M377.909 413L376.324 414.233C376.324 414.233 374.707 417.087 374.337 422.204C373.918 426.349 373.248 430.466 372.332 434.533L369.2 440.031C369.2 440.031 364.068 450.628 363.398 453.445C362.727 456.263 359.682 461.015 359.682 461.015C359.682 461.015 349.351 470.151 356.55 471.797C363.749 473.443 363.981 464.529 363.981 464.529C363.981 464.529 365.66 462.68 365.935 461.447C366.211 460.214 375.334 444.303 375.334 444.303C375.334 444.303 378.529 440.025 377.84 437.757C377.84 437.757 382 428.128 382 425.717C381.923 423.697 381.699 421.684 381.33 419.695L382 414.652L377.909 413Z" fill="#FBBEBE"/>
<path opacity="0.1" d="M399 433C399 433 391.608 436.775 390.177 436.974C388.747 437.173 396.432 436.167 396.432 436.167L399 433Z" fill="#333333"/>
<path opacity="0.1" d="M404 436C404 436 394.962 439.161 391 438.585C391 438.585 400.87 440.529 404 436Z" fill="#333333"/>
<path opacity="0.1" d="M404.961 437C404.961 437 396.81 442.413 392 441.534C392 441.534 403.217 443.881 404.961 442.636L399.946 441.162C399.946 441.162 405.519 438.059 404.961 437Z" fill="#333333"/>
<path opacity="0.1" d="M395.031 368.218C392.61 367.723 389.909 368.029 387.966 369.571C386.525 370.715 385.544 372.465 383.946 373.322C383.091 373.684 382.215 373.995 381.324 374.252C379.749 374.902 378.437 376.068 377.597 377.563C376.757 379.058 376.438 380.794 376.692 382.494C376.946 383.932 377.612 385.26 377.945 386.686C378.551 389.219 378.012 391.869 377.376 394.39C375.609 401.389 372.925 408.118 369.396 414.399C369.117 414.787 368.978 415.26 369.003 415.739C369.088 416.065 369.258 416.363 369.493 416.602C372.811 420.476 378.212 421.81 383.28 421.981C385.15 422.048 387.106 421.981 388.729 421.063C389.786 420.456 390.698 419.62 391.399 418.615C393.157 416.176 394.03 413.197 393.869 410.183C393.73 407.736 392.924 405.288 393.53 402.932C393.595 402.602 393.743 402.294 393.96 402.039C394.505 401.476 395.413 401.629 396.188 401.537C398.301 401.286 399.657 399.04 399.911 396.911C400.166 394.781 399.633 392.628 399.621 390.492C399.609 387.659 400.487 384.895 402.127 382.598C402.83 381.619 403.72 380.659 403.944 379.435C404.234 377.905 403.338 376.779 402.606 375.567C401.395 373.689 400.85 371.486 399.058 370.06C397.875 369.139 396.497 368.509 395.031 368.218Z" fill="#333333"/>
<path d="M394.769 367.216C392.279 366.726 389.502 367.026 387.503 368.574C386.021 369.718 385.013 371.462 383.369 372.319C382.489 372.681 381.589 372.994 380.673 373.255C379.054 373.903 377.703 375.068 376.84 376.562C375.977 378.057 375.652 379.794 375.916 381.492C376.178 382.93 376.863 384.264 377.199 385.684C377.821 388.217 377.274 390.867 376.614 393.388C374.799 400.388 372.039 407.118 368.407 413.399C368.121 413.787 367.978 414.26 368.003 414.739C368.091 415.065 368.265 415.363 368.507 415.602C371.919 419.475 377.473 420.809 382.69 420.981C384.608 421.048 386.619 420.981 388.294 420.069C389.383 419.451 390.32 418.605 391.04 417.591C392.848 415.151 393.746 412.172 393.58 409.158C393.437 406.71 392.609 404.263 393.231 401.907C393.299 401.578 393.451 401.273 393.673 401.019C394.234 400.45 395.168 400.603 395.965 400.511C398.138 400.26 399.532 398.015 399.794 395.885C400.055 393.756 399.507 391.601 399.495 389.466C399.488 386.633 400.39 383.871 402.073 381.572C402.795 380.593 403.716 379.632 403.94 378.408C404.245 376.878 403.318 375.758 402.564 374.541C401.319 372.662 400.759 370.465 398.916 369.033C397.695 368.12 396.276 367.498 394.769 367.216Z" fill="#465C72"/>
<path opacity="0.1" d="M354.937 409.955C354.727 411.283 354.727 412.637 354.937 413.966C354.841 415.043 354.937 421.016 354.937 421.016C351.808 420.038 343.848 422 343.848 422L342.895 419.06C342.353 418.34 341.946 417.521 341.697 416.646C341.394 415.698 341.146 414.733 340.954 413.755C340.541 411.724 340.231 409.673 340.024 407.609C339.629 404.514 344.112 401.147 347.505 399.284C350.897 397.42 353.87 405.349 353.87 405.349C353.87 405.349 355.315 408.389 354.937 409.955Z" fill="#333333"/>
<path d="M354.937 408.955C354.727 410.283 354.727 411.637 354.937 412.966C354.841 414.043 354.937 420.016 354.937 420.016C351.808 419.038 343.848 421 343.848 421L342.895 418.06C342.352 417.341 341.945 416.522 341.697 415.646C341.394 414.698 341.146 413.733 340.954 412.755C340.541 410.724 340.231 408.673 340.024 406.609C339.629 403.514 344.112 400.147 347.505 398.284C350.897 396.42 353.87 404.35 353.87 404.35C353.87 404.35 355.315 407.389 354.937 408.955Z" fill="#465C72"/>
<path opacity="0.1" d="M392 458C392 458 393.85 467.429 397 470L392 458Z" fill="#333333"/>
<path opacity="0.2" d="M348.783 368.562C348.611 368.012 348.367 367.487 348.057 367C348.107 367.135 348.157 367.264 348.194 367.394C348.457 368.33 348.494 369.314 348.303 370.267C348.111 371.22 347.696 372.115 347.09 372.879C346.588 373.328 346.141 373.834 345.758 374.386C345.349 375.167 345.423 376.096 345.287 376.969C345.15 377.842 344.586 378.814 343.706 378.814C343.254 378.777 342.815 378.647 342.417 378.433C342.215 378.33 341.99 378.28 341.764 378.288C341.537 378.295 341.316 378.36 341.122 378.476C340.868 378.733 340.722 379.076 340.712 379.435C340.558 380.488 340.533 381.556 340.638 382.615C340.731 383.593 340.923 384.644 340.458 385.511C340.038 386.182 339.4 386.69 338.648 386.951C336.293 387.953 333.647 387.898 331.087 387.824C330.935 387.826 330.784 387.803 330.64 387.756C330.496 387.684 330.369 387.581 330.268 387.455C329.617 386.767 329.026 386.024 328.502 385.235C327.293 383.42 326.45 381.379 325.112 379.663C324.746 379.189 324.337 378.734 324.002 378.248C323.999 378.279 323.999 378.31 324.002 378.341C324.417 379.248 324.983 380.08 325.676 380.801C327.014 382.516 327.857 384.564 329.066 386.372C329.586 387.164 330.175 387.909 330.826 388.599C330.932 388.722 331.06 388.825 331.204 388.9C331.348 388.947 331.499 388.97 331.651 388.968C334.211 389.035 336.857 389.091 339.213 388.094C339.964 387.834 340.602 387.326 341.022 386.655C341.487 385.788 341.295 384.737 341.202 383.759C341.098 382.7 341.121 381.633 341.27 380.579C341.287 380.218 341.434 379.875 341.686 379.614C341.88 379.497 342.101 379.432 342.328 379.426C342.555 379.419 342.78 379.471 342.981 379.577C343.377 379.791 343.814 379.921 344.264 379.958C345.15 379.927 345.708 378.974 345.845 378.113C345.981 377.252 345.907 376.317 346.322 375.536C346.703 374.982 347.15 374.476 347.654 374.029C348.26 373.269 348.677 372.378 348.873 371.429C349.069 370.479 349.038 369.498 348.783 368.562Z" fill="#333333"/>
<g opacity="0.1">
<path opacity="0.1" d="M376.639 383.821C376.541 383.478 376.424 383.141 376.308 382.804C376.406 383.147 376.522 383.484 376.639 383.821Z" fill="#333333"/>
<path opacity="0.1" d="M403.192 376.213C403.219 376.487 403.207 376.764 403.155 377.034C402.916 378.259 402.008 379.221 401.314 380.201C399.655 382.504 398.765 385.271 398.774 388.109C398.774 390.252 399.32 392.396 399.068 394.528C398.817 396.66 397.436 398.914 395.3 399.159C394.509 399.251 393.595 399.104 393.036 399.667C392.817 399.921 392.667 400.227 392.6 400.555C391.987 402.913 392.803 405.382 392.944 407.814C393.107 410.833 392.223 413.816 390.44 416.26C389.729 417.263 388.808 418.099 387.74 418.711C386.071 419.611 384.059 419.691 382.218 419.629C377.161 419.452 371.786 418.159 368.411 414.423C368.318 414.643 368.288 414.885 368.325 415.121C368.411 415.448 368.583 415.746 368.822 415.985C372.184 419.862 377.658 421.197 382.8 421.369C384.691 421.436 386.673 421.369 388.323 420.456C389.397 419.838 390.321 418.991 391.03 417.976C392.812 415.533 393.696 412.552 393.533 409.535C393.392 407.085 392.576 404.635 393.19 402.276C393.256 401.948 393.406 401.642 393.625 401.388C394.178 400.819 395.098 400.972 395.883 400.88C398.025 400.629 399.4 398.381 399.657 396.249C399.915 394.118 399.375 391.961 399.363 389.824C399.356 386.989 400.245 384.224 401.903 381.922C402.615 380.942 403.523 379.98 403.744 378.755C403.884 377.869 403.687 376.962 403.192 376.213Z" fill="#333333"/>
</g>
<path d="M544.968 499.029C538.512 510.903 524.81 516 524.81 516C524.81 516 521.576 501.846 528.032 489.971C534.488 478.097 548.19 473 548.19 473C548.19 473 551.424 487.154 544.968 499.029Z" fill="#8597A8"/>
<path d="M540.065 494.852C528.467 501.783 524 515.55 524 515.55C524 515.55 538.337 518.079 549.935 511.148C561.533 504.217 566 490.45 566 490.45C566 490.45 551.663 487.921 540.065 494.852Z" fill="#F5F9FE"/>
<defs>
<linearGradient id="paint0_linear" x1="107.503" y1="501.991" x2="107.503" y2="396.01" gradientUnits="userSpaceOnUse">
<stop stop-color="#808080" stop-opacity="0.25"/>
<stop offset="0.54" stop-color="#808080" stop-opacity="0.12"/>
<stop offset="1" stop-color="#808080" stop-opacity="0.1"/>
</linearGradient>
</defs>
</svg>
