<svg width="660" height="777" viewBox="0 0 660 777" fill="none" xmlns="http://www.w3.org/2000/svg">
<g clip-path="url(#clip0)">
<path d="M137.979 177.988L140.862 415.688L265.464 476.332L262.58 238.633L137.979 177.988Z" fill="#38495B"/>
<path d="M100.115 159L7.00977 349.98L133.34 411.467L130.457 173.768L100.115 159Z" fill="#38495B"/>
<path d="M660.07 427.295L408.605 304.905L411.489 542.604L566.965 618.275L660.07 427.295Z" fill="#38495B"/>
<path d="M273.844 238.633L276.728 476.332L401.33 536.976L398.446 299.278L273.844 238.633Z" fill="#38495B"/>
<path d="M317.153 428.372L313.633 507.155C313.633 507.155 322.785 581.717 320.673 583.828C318.561 585.938 312.929 590.158 317.153 595.082C321.377 600.006 336.865 603.523 337.569 600.71C338.273 597.896 339.681 517.706 339.681 517.706L344.609 422.744L317.153 428.372Z" fill="#2F2E41"/>
<path d="M317.153 428.372L313.633 507.155C313.633 507.155 322.785 581.717 320.673 583.828C318.561 585.938 312.929 590.158 317.153 595.082C321.377 600.006 336.865 603.523 337.569 600.71C338.273 597.896 339.681 517.706 339.681 517.706L344.609 422.744L317.153 428.372Z" fill="#38495B"/>
<path d="M320.673 593.676C320.673 593.676 303.073 607.041 300.961 607.041C298.849 607.041 279.841 613.372 293.217 616.185C306.593 618.999 338.977 617.592 339.681 613.372C340.385 609.151 337.569 596.343 337.569 596.343L320.673 593.676Z" fill="#2F2E41"/>
<path opacity="0.2" d="M320.673 593.676C320.673 593.676 303.073 607.041 300.961 607.041C298.849 607.041 279.841 613.372 293.217 616.185C306.593 618.999 338.977 617.592 339.681 613.372C340.385 609.151 337.569 596.343 337.569 596.343L320.673 593.676Z" fill="#25323F"/>
<path d="M277.025 369.284C277.025 369.284 269.281 372.098 269.281 374.208C269.281 376.318 262.241 403.048 260.833 404.455C259.425 405.862 258.721 412.193 258.721 412.193C258.721 412.193 251.681 428.372 253.089 428.372C254.497 428.372 266.465 425.558 267.169 428.372C267.873 431.185 273.505 410.786 273.505 410.786L285.473 386.87L277.025 369.284Z" fill="#0E8AFD"/>
<path d="M253.088 431.185C253.088 431.185 255.2 446.66 260.832 448.067C266.464 449.474 260.832 428.371 260.832 428.371L253.088 431.185Z" fill="#FBBEBE"/>
<path d="M271.393 360.843C271.393 360.843 275.617 369.987 277.729 374.911C279.841 379.835 299.553 362.25 299.553 362.25C299.553 362.25 288.993 354.512 288.993 350.995C288.993 347.478 271.393 360.843 271.393 360.843Z" fill="#FBBEBE"/>
<path d="M68.3157 589.494C73.037 606.933 89.2084 617.733 89.2084 617.733C89.2084 617.733 97.7251 600.26 93.0039 582.821C88.2826 565.383 72.1112 554.583 72.1112 554.583C72.1112 554.583 63.5944 572.056 68.3157 589.494Z" fill="#60A7E9"/>
<path d="M75.2531 585.747C88.2084 598.348 89.7908 617.718 89.7908 617.718C89.7908 617.718 70.3686 616.659 57.4133 604.058C44.4581 591.457 42.8757 572.086 42.8757 572.086C42.8757 572.086 62.2979 573.145 75.2531 585.747Z" fill="#568DC4"/>
<path d="M236.193 618.295C223.522 618.295 211.136 614.541 200.601 607.507C190.065 600.474 181.854 590.477 177.005 578.78C172.156 567.083 170.888 554.213 173.359 541.796C175.831 529.379 181.933 517.973 190.892 509.021C199.852 500.069 211.267 493.972 223.694 491.502C236.122 489.033 249.003 490.3 260.709 495.145C272.415 499.99 282.421 508.194 289.46 518.721C296.5 529.248 300.257 541.624 300.257 554.284C300.238 571.255 293.482 587.525 281.472 599.526C269.462 611.526 253.178 618.276 236.193 618.295ZM236.193 491.679C223.8 491.679 211.687 495.351 201.383 502.23C191.079 509.109 183.048 518.887 178.306 530.326C173.564 541.766 172.323 554.353 174.74 566.497C177.158 578.641 183.125 589.797 191.888 598.552C200.651 607.307 211.815 613.27 223.969 615.685C236.123 618.101 248.721 616.861 260.17 612.123C271.619 607.385 281.405 599.36 288.289 589.065C295.174 578.77 298.849 566.666 298.849 554.284C298.83 537.686 292.223 521.773 280.477 510.036C268.73 498.3 252.804 491.698 236.193 491.679Z" fill="#8597A8"/>
<path d="M433.313 618.295C420.642 618.295 408.256 614.541 397.721 607.507C387.186 600.474 378.974 590.477 374.126 578.78C369.277 567.083 368.008 554.213 370.48 541.796C372.952 529.379 379.053 517.973 388.013 509.021C396.972 500.069 408.388 493.972 420.815 491.502C433.242 489.033 446.123 490.3 457.829 495.145C469.536 499.99 479.541 508.194 486.581 518.721C493.62 529.248 497.377 541.624 497.377 554.284C497.358 571.255 490.602 587.525 478.592 599.526C466.582 611.526 450.298 618.276 433.313 618.295ZM433.313 491.679C420.921 491.679 408.807 495.351 398.503 502.23C388.199 509.109 380.169 518.887 375.426 530.326C370.684 541.766 369.443 554.353 371.861 566.497C374.278 578.641 380.246 589.797 389.009 598.552C397.771 607.307 408.935 613.27 421.089 615.685C433.244 618.101 445.842 616.861 457.291 612.123C468.739 607.385 478.525 599.36 485.41 589.065C492.295 578.77 495.969 566.666 495.969 554.284C495.951 537.686 489.343 521.773 477.597 510.036C465.851 498.3 449.925 491.698 433.313 491.679Z" fill="#8597A8"/>
<path d="M236.193 558.505C238.525 558.505 240.417 556.615 240.417 554.284C240.417 551.953 238.525 550.063 236.193 550.063C233.86 550.063 231.969 551.953 231.969 554.284C231.969 556.615 233.86 558.505 236.193 558.505Z" fill="#8597A8"/>
<path d="M434.721 558.505C437.054 558.505 438.945 556.615 438.945 554.284C438.945 551.953 437.054 550.063 434.721 550.063C432.388 550.063 430.497 551.953 430.497 554.284C430.497 556.615 432.388 558.505 434.721 558.505Z" fill="#8597A8"/>
<path d="M242.472 548.229L241.177 547.677L277.971 461.423L382.312 463.55L382.514 463.867L433.906 544.057L432.72 544.816L381.53 464.942L278.894 462.849L242.472 548.229Z" fill="#8597A8"/>
<path d="M352.089 564.261L379.132 468.979L380.486 469.362L354.025 562.596L424.777 553.586L424.954 554.982L352.089 564.261Z" fill="#8597A8"/>
<path d="M275.415 482.746L274.41 483.731L346.922 557.591L347.928 556.606L275.415 482.746Z" fill="#8597A8"/>
<path d="M386.166 446.475L381.949 461.952L383.307 462.322L387.525 446.845L386.166 446.475Z" fill="#8597A8"/>
<path d="M280.528 457.368L279.154 457.056L282.479 442.44H270.689V433.296H272.097V441.034H284.243L280.528 457.368Z" fill="#8597A8"/>
<path d="M360.801 432.592C360.801 432.592 360.801 428.371 369.953 430.482C379.105 432.592 407.265 438.219 409.377 437.516C411.489 436.812 410.785 441.736 401.633 443.847C392.481 445.957 381.921 441.033 379.809 439.626C377.697 438.219 360.801 432.592 360.801 432.592Z" fill="#8597A8"/>
<path d="M335.457 558.504H317.153V565.538H335.457V558.504Z" fill="#0E8AFD"/>
<path d="M353.057 577.496C350.272 577.496 347.55 576.671 345.235 575.125C342.919 573.579 341.114 571.382 340.049 568.812C338.983 566.241 338.704 563.412 339.248 560.683C339.791 557.954 341.132 555.447 343.101 553.48C345.07 551.512 347.579 550.173 350.31 549.63C353.041 549.087 355.872 549.365 358.445 550.43C361.018 551.495 363.217 553.298 364.764 555.612C366.311 557.925 367.137 560.645 367.137 563.428C367.133 567.158 365.648 570.734 363.009 573.371C360.369 576.009 356.79 577.492 353.057 577.496ZM353.057 550.766C350.551 550.766 348.101 551.509 346.017 552.9C343.933 554.291 342.309 556.269 341.35 558.582C340.391 560.896 340.14 563.442 340.629 565.898C341.117 568.354 342.324 570.61 344.097 572.381C345.869 574.152 348.127 575.358 350.585 575.846C353.043 576.335 355.591 576.084 357.906 575.126C360.222 574.167 362.201 572.544 363.594 570.462C364.986 568.38 365.729 565.932 365.729 563.428C365.725 560.071 364.389 556.853 362.013 554.479C359.638 552.105 356.417 550.77 353.057 550.766Z" fill="#8597A8"/>
<path d="M277.729 367.878C287.06 367.878 294.625 360.319 294.625 350.995C294.625 341.672 287.06 334.113 277.729 334.113C268.397 334.113 260.833 341.672 260.833 350.995C260.833 360.319 268.397 367.878 277.729 367.878Z" fill="#FBBEBE"/>
<path d="M331.233 429.778C331.233 429.778 282.657 457.915 283.361 467.06C284.065 476.204 320.673 526.147 320.673 526.147C320.673 526.147 323.489 540.919 326.305 540.919C329.121 540.919 346.721 547.25 347.425 543.029C348.129 538.809 341.793 533.885 342.497 531.071C343.201 528.257 311.521 476.908 311.521 476.908C311.521 476.908 379.321 451.585 365.133 429.778C350.945 407.972 331.233 429.778 331.233 429.778Z" fill="#465C72"/>
<path d="M332.641 538.105C332.641 538.105 324.193 540.216 322.785 543.029C321.377 545.843 296.737 554.988 303.777 557.098C310.817 559.208 351.649 559.912 353.057 558.505C354.465 557.098 353.057 540.77 347.425 540.844C341.793 540.919 335.457 543.029 332.641 538.105Z" fill="#25323F"/>
<path d="M277.729 377.021L293.569 357.677C293.569 357.677 311.521 352.402 319.265 362.953C327.009 373.504 348.129 399.531 355.169 405.158C362.209 410.786 372.065 432.592 368.545 433.295C365.025 433.999 345.313 425.558 337.569 431.185C329.825 436.812 315.041 437.516 314.337 434.702C313.633 431.888 271.393 384.759 271.393 378.428C271.393 372.097 275.894 370.739 275.894 370.739L277.729 377.021Z" fill="#0E8AFD"/>
<path d="M286.237 432.948L264.997 425.445C263.897 425.056 262.69 425.632 262.302 426.731C261.913 427.83 262.489 429.035 263.589 429.424L284.829 436.927C285.928 437.315 287.135 436.739 287.524 435.641C287.913 434.542 287.336 433.336 286.237 432.948Z" fill="#8597A8"/>
<path d="M238.305 424.15C238.305 424.15 213.665 431.185 215.777 438.922C217.889 446.66 240.417 429.778 240.417 429.778L238.305 424.15Z" fill="#FBBEBE"/>
<path d="M302.369 362.954C302.369 362.954 292.513 371.395 290.401 381.243C288.289 391.091 277.729 408.676 277.729 408.676L234.785 422.745C234.785 422.745 231.969 436.11 236.193 436.11C240.417 436.11 287.585 426.262 288.993 424.151C290.401 422.041 320.673 381.946 320.673 381.946C320.673 381.946 323.489 360.14 302.369 362.954Z" fill="#0E8AFD"/>
<path d="M267.234 331.455C266.818 331.814 266.32 332.063 265.783 332.183C265.514 332.231 265.237 332.17 265.012 332.015C264.787 331.859 264.633 331.621 264.583 331.352C264.273 332.213 263.696 332.952 262.937 333.462C262.131 333.882 260.884 333.53 260.768 332.629C260.65 333.313 260.347 333.952 259.892 334.476C259.655 334.727 259.328 334.874 258.983 334.886C258.638 334.897 258.302 334.772 258.048 334.538C258.401 336.466 258.183 338.448 258.294 340.405C258.405 342.361 258.927 344.436 260.407 345.722C262.564 347.599 265.809 347.135 268.647 346.78C269.076 346.69 269.522 346.714 269.939 346.851C271.001 347.303 270.953 348.781 270.967 349.935C271.054 351.96 271.856 353.889 273.231 355.379C274.607 356.869 276.466 357.824 278.479 358.074C279.605 358.248 280.755 357.968 281.674 357.295C282.48 356.613 282.892 355.5 283.815 354.987C285.317 354.153 287.139 355.37 288.237 356.69C289.335 358.011 290.418 359.635 292.119 359.877C294.369 360.197 296.083 357.906 296.924 355.796C298.084 352.839 298.639 349.68 298.558 346.505C298.477 343.33 297.76 340.204 296.45 337.31C291.752 327.077 275.704 325.459 267.234 331.455Z" fill="#2F2E41"/>
<path d="M564.531 618.266L563.28 617.62C579.53 586.231 570.84 545.466 560.69 516.797C553.798 497.527 545.007 478.989 534.446 461.456L535.636 460.704C546.251 478.327 555.088 496.959 562.017 516.327C572.261 545.259 581.011 586.43 564.531 618.266Z" fill="#25323F"/>
<path d="M576.582 460.956L567.448 510.902L568.833 511.155L577.967 461.209L576.582 460.956Z" fill="#25323F"/>
<path d="M515.845 503.509L514.814 504.468L561.982 555.114L563.013 554.156L515.845 503.509Z" fill="#25323F"/>
<path d="M600.641 559.143L576.716 592.212L577.858 593.036L601.782 559.967L600.641 559.143Z" fill="#25323F"/>
<path d="M580.801 447.715C584.69 447.715 587.842 444.566 587.842 440.681C587.842 436.796 584.69 433.646 580.801 433.646C576.913 433.646 573.761 436.796 573.761 440.681C573.761 444.566 576.913 447.715 580.801 447.715Z" fill="#FF6584"/>
<path d="M504.065 501.878C507.954 501.878 511.105 498.729 511.105 494.844C511.105 490.959 507.954 487.81 504.065 487.81C500.177 487.81 497.025 490.959 497.025 494.844C497.025 498.729 500.177 501.878 504.065 501.878Z" fill="#60A7E9"/>
<path d="M535.041 508.912C538.929 508.912 542.081 505.763 542.081 501.878C542.081 497.993 538.929 494.844 535.041 494.844C531.153 494.844 528.001 497.993 528.001 501.878C528.001 505.763 531.153 508.912 535.041 508.912Z" fill="#60A7E9"/>
<path d="M520.961 536.346C524.849 536.346 528.001 533.196 528.001 529.312C528.001 525.427 524.849 522.277 520.961 522.277C517.073 522.277 513.921 525.427 513.921 529.312C513.921 533.196 517.073 536.346 520.961 536.346Z" fill="#FF6584"/>
<path d="M608.961 553.932C612.849 553.932 616.001 550.782 616.001 546.897C616.001 543.013 612.849 539.863 608.961 539.863C605.073 539.863 601.921 543.013 601.921 546.897C601.921 550.782 605.073 553.932 608.961 553.932Z" fill="#FF6584"/>
<path d="M585.729 561.67C589.618 561.67 592.769 558.521 592.769 554.636C592.769 550.751 589.618 547.602 585.729 547.602C581.841 547.602 578.689 550.751 578.689 554.636C578.689 558.521 581.841 561.67 585.729 561.67Z" fill="#60A7E9"/>
<path d="M601.921 584.179C605.809 584.179 608.961 581.029 608.961 577.145C608.961 573.26 605.809 570.11 601.921 570.11C598.033 570.11 594.881 573.26 594.881 577.145C594.881 581.029 598.033 584.179 601.921 584.179Z" fill="#60A7E9"/>
<path d="M528.001 456.156C531.889 456.156 535.041 453.007 535.041 449.122C535.041 445.237 531.889 442.088 528.001 442.088C524.113 442.088 520.961 445.237 520.961 449.122C520.961 453.007 524.113 456.156 528.001 456.156Z" fill="#60A7E9"/>
<path d="M636 617H0V619H636V617Z" fill="#465C72"/>
<path d="M109.075 471.581L49.3258 437.113L14.8297 496.813L74.5787 531.281L109.075 471.581Z" fill="#38495B"/>
<path d="M76.0322 543.285C72.9689 543.285 69.9745 542.377 67.4275 540.677C64.8805 538.976 62.8953 536.559 61.7231 533.731C60.5508 530.904 60.2441 527.792 60.8417 524.79C61.4393 521.788 62.9144 519.031 65.0805 516.867C67.2465 514.702 70.0062 513.228 73.0106 512.631C76.015 512.034 79.1291 512.341 81.9592 513.512C84.7893 514.683 87.2082 516.667 88.91 519.212C90.6119 521.757 91.5202 524.749 91.5202 527.809C91.5156 531.912 89.8823 535.846 86.9787 538.747C84.0752 541.648 80.1384 543.28 76.0322 543.285ZM76.0322 513.741C73.2474 513.741 70.5252 514.566 68.2097 516.112C65.8943 517.658 64.0896 519.855 63.0239 522.426C61.9582 524.996 61.6794 527.825 62.2227 530.554C62.766 533.283 64.107 535.79 66.0761 537.757C68.0452 539.725 70.554 541.065 73.2853 541.607C76.0166 542.15 78.8476 541.872 81.4204 540.807C83.9932 539.742 86.1922 537.939 87.7393 535.625C89.2864 533.312 90.1122 530.592 90.1122 527.809C90.1081 524.079 88.6233 520.503 85.9837 517.866C83.3441 515.229 79.7652 513.745 76.0322 513.741Z" fill="#BBCFE2"/>
</g>
<defs>
<clipPath id="clip0">
<rect width="660" height="777" fill="white"/>
</clipPath>
</defs>
</svg>
