<svg width="660" height="777" viewBox="0 0 660 777" fill="none" xmlns="http://www.w3.org/2000/svg">
<path d="M270.756 597.191C385.907 597.191 479.255 593.856 479.255 589.743C479.255 585.63 385.907 582.296 270.756 582.296C155.605 582.296 62.2566 585.63 62.2566 589.743C62.2566 593.856 155.605 597.191 270.756 597.191Z" fill="#38495B"/>
<path d="M352.667 237.006C376.594 237.006 395.991 217.606 395.991 193.675C395.991 169.744 376.594 150.345 352.667 150.345C328.739 150.345 309.342 169.744 309.342 193.675C309.342 217.606 328.739 237.006 352.667 237.006Z" fill="#FF6584"/>
<path d="M222.216 400.213C222.216 483.902 172.472 513.123 111.108 513.123C49.7449 513.123 0 483.902 0 400.213C0 316.524 111.108 210.059 111.108 210.059C111.108 210.059 222.216 316.524 222.216 400.213Z" fill="#38495B"/>
<path d="M107.449 473.887L108.198 444.682L155.555 365.873L108.377 434.689L108.888 406.046L141.527 349.027L109.024 398.465L109.944 346.949L133.64 316.646L109.944 344.125L110.663 276.624L107.051 369.437L78.7827 329.45L106.778 374.182L103.467 431.716L103.368 430.189L62.4043 378.123L103.244 435.584L102.83 442.78L102.756 442.888L102.79 443.478L94.39 589.449H105.613L107.347 479.555L140.553 443.478L107.449 473.887Z" fill="#465C72"/>
<path d="M559.027 368.78C559.027 466.37 501.019 500.444 429.463 500.444C357.907 500.444 299.899 466.37 299.899 368.78C299.899 271.19 429.463 147.04 429.463 147.04C429.463 147.04 559.027 271.19 559.027 368.78Z" fill="#38495B"/>
<path d="M425.196 454.691L426.07 420.636L481.293 328.735L426.278 408.982L426.874 375.581L464.935 309.092L427.032 366.742L428.106 306.669L455.738 271.332L428.106 303.375L428.944 224.662L424.732 332.892L391.768 286.262L424.414 338.424L420.553 405.516L420.438 403.735L372.669 343.021L420.293 410.026L419.81 418.417L419.724 418.543L419.764 419.232L409.968 589.449H423.055L425.078 461.3L463.799 419.232L425.196 454.691Z" fill="#465C72"/>
<path d="M240.243 563.959C244.357 579.423 258.45 589 258.45 589C258.45 589 265.872 573.505 261.757 558.041C257.643 542.577 243.55 533 243.55 533C243.55 533 236.128 548.495 240.243 563.959Z" fill="#8597A8"/>
<path d="M246.295 560.974C257.617 572.02 259 589 259 589C259 589 242.027 588.071 230.705 577.026C219.383 565.98 218 549 218 549C218 549 234.973 549.929 246.295 560.974Z" fill="#568DC4"/>
<path d="M282.941 360.904H258.571V589.744H282.941V360.904Z" fill="#25323F"/>
<path d="M382.452 413.036H232.847V371.06H382.452L425.777 392.048L382.452 413.036Z" fill="#FF6584"/>
<path opacity="0.1" d="M382.452 409.651H232.847V413.036H382.452L425.777 392.048L422.283 390.355L382.452 409.651Z" fill="black"/>
<path d="M159.737 468.554H309.342V426.577H159.737L116.412 447.565L159.737 468.554Z" fill="#568DC4"/>
<path opacity="0.1" d="M119.906 445.873L116.412 447.566L159.737 468.554H309.342V465.169H159.737L119.906 445.873Z" fill="black"/>
<path d="M342.513 379.185H316.789V404.912H342.513V379.185Z" fill="white"/>
<path d="M213.216 460.429C220.319 460.429 226.078 454.669 226.078 447.565C226.078 440.46 220.319 434.701 213.216 434.701C206.112 434.701 200.354 440.46 200.354 447.565C200.354 454.669 206.112 460.429 213.216 460.429Z" fill="white"/>
<path opacity="0.2" d="M270.756 398.141C274.869 398.141 278.202 394.807 278.202 390.694C278.202 386.58 274.869 383.246 270.756 383.246C266.643 383.246 263.31 386.58 263.31 390.694C263.31 394.807 266.643 398.141 270.756 398.141Z" fill="#25323F"/>
<path opacity="0.2" d="M270.756 453.659C274.869 453.659 278.202 450.324 278.202 446.211C278.202 442.098 274.869 438.764 270.756 438.764C266.643 438.764 263.31 442.098 263.31 446.211C263.31 450.324 266.643 453.659 270.756 453.659Z" fill="#25323F"/>
<path d="M525.929 278.447C514.341 278.447 504.946 269.051 504.946 257.461C504.946 245.87 514.341 236.475 525.929 236.475C537.518 236.475 546.912 245.87 546.912 257.461C546.912 269.051 537.518 278.447 525.929 278.447Z" fill="#25323F"/>
<path d="M589.838 510.116L576.947 465.4L572.558 466.772C572.558 466.772 577.77 500.24 585.998 508.744L589.838 510.116Z" fill="#25323F"/>
<path d="M540.741 270.08C540.741 270.08 539.095 287.637 542.935 292.574C546.775 297.512 540.467 307.114 540.467 307.114L528.947 320.83L511.941 313.149L509.472 298.884L511.118 289.008C511.118 289.008 516.878 283.247 514.409 272.823C511.941 262.398 540.741 270.08 540.741 270.08Z" fill="#FFB9B9"/>
<path d="M540.741 270.08C540.741 270.08 539.095 287.637 542.935 292.574C546.775 297.512 540.467 307.114 540.467 307.114L528.947 320.83L511.941 313.149L509.472 298.884L511.118 289.008C511.118 289.008 516.878 283.247 514.409 272.823C511.941 262.398 540.741 270.08 540.741 270.08Z" fill="#F3AEAE"/>
<path d="M530.866 598.449V609.696L515.78 612.713L517.152 594.06L530.866 598.449Z" fill="#FBBEBE"/>
<path d="M485.609 594.06L488.901 609.696L482.317 614.359L470.797 605.856L472.169 592.413L485.609 594.06Z" fill="#FBBEBE"/>
<path d="M514.409 611.342C514.409 611.342 520.169 601.605 530.866 607.708C530.866 607.708 532.786 618.475 534.706 619.298C536.626 620.121 547.324 635.757 534.706 637.129C522.089 638.501 515.78 634.386 515.78 634.386C515.78 634.386 518.249 636.51 514.409 635.413C510.569 634.315 512.215 628.28 512.215 628.28L514.409 611.342Z" fill="#25323F"/>
<path d="M476.832 604.758C476.832 604.758 485.334 610.793 486.706 608.05C488.077 605.307 490.272 605.581 490.272 605.581C490.272 605.581 497.952 634.537 493.015 635.909C489.835 636.691 486.496 636.519 483.414 635.413C483.414 635.413 476.832 630.802 476.832 634.368C476.832 637.934 458.454 637.677 450.774 637.403C443.094 637.129 447.208 631.368 447.208 631.368L457.357 621.492L468.877 604.758C468.877 604.758 474.089 600.095 476.832 604.758Z" fill="#25323F"/>
<path d="M557.747 421.233L546.226 531.787C546.226 531.787 539.918 599.271 538.821 600.369C537.724 601.466 530.592 605.032 514.958 600.369L518.523 512.035L511.94 457.17L496.854 495.027C496.854 495.027 493.289 596.802 490.82 596.802C488.351 596.802 473.266 601.74 469.7 595.705C466.134 589.67 466.683 524.654 466.683 524.654C466.683 524.654 468.328 422.056 480.397 418.764C492.466 415.472 557.747 421.233 557.747 421.233Z" fill="#25323F"/>
<path d="M525.929 280.229C515.476 280.229 507.003 271.755 507.003 261.301C507.003 250.847 515.476 242.372 525.929 242.372C536.382 242.372 544.855 250.847 544.855 261.301C544.855 271.755 536.382 280.229 525.929 280.229Z" fill="#FBBEBE"/>
<path d="M524.832 313.972C524.832 313.972 526.752 302.176 526.752 299.981C526.752 297.787 535.255 296.415 535.255 296.415C535.255 296.415 541.838 289.008 543.21 290.106C544.581 291.203 565.427 305.194 568.719 307.114C572.01 309.034 575.576 317.264 575.302 317.813C575.027 318.361 558.021 354.024 558.021 354.024C558.021 354.024 550.616 375.97 555.827 387.492C561.038 399.013 567.621 421.783 558.021 426.446C548.421 431.11 501.792 441.26 493.289 432.481C484.786 423.703 478.752 421.234 476.557 421.234C474.363 421.234 485.609 383.102 483.14 379.536C480.672 375.97 484.238 353.749 484.238 353.749L471.62 318.361C471.62 318.361 472.717 298.61 497.678 294.22L512.61 286.979L524.832 313.972Z" fill="#465C72"/>
<path opacity="0.1" d="M559.435 317.79C557.7 324.903 557.338 330.983 556.086 335.393C553.83 343.341 551.228 353.067 551.027 364.666C550.817 376.832 552.605 388.947 556.086 396.668" fill="black"/>
<path opacity="0.1" d="M486.237 316.612C487.972 323.725 484.956 327.161 486.237 332.801C488.331 342.018 490.023 346.812 490.587 356.005C492.094 380.569 484.984 399.469 477.005 416.786" fill="black"/>
<path d="M576.124 426.172C576.124 426.172 577.496 439.339 577.496 443.18C577.496 447.021 584.079 469.515 574.478 472.259C564.878 475.002 565.701 442.357 565.701 442.357V425.623L576.124 426.172Z" fill="#FBBEBE"/>
<path d="M462.294 413.827C462.294 413.827 460.649 426.446 461.471 429.189C462.294 431.933 453.517 455.799 465.311 457.171C477.106 458.542 474.089 428.641 474.089 428.641V413.827L462.294 413.827Z" fill="#FBBEBE"/>
<path d="M578.593 505.726L570.638 463.479H568.17C566.444 465.705 565.312 468.333 564.88 471.116C564.448 473.899 564.731 476.747 565.701 479.39C568.992 488.718 571.735 505.726 571.735 505.726H578.593Z" fill="#25323F"/>
<path d="M571.187 314.521L575.302 317.812C575.302 317.812 580.787 405.048 579.416 411.632C578.044 418.216 584.353 427.543 578.867 428.366C573.382 429.189 566.799 432.755 563.781 430.561C560.764 428.366 560.216 420.411 559.119 418.49C558.021 416.57 556.101 393.801 556.101 393.801C556.101 393.801 550.341 371.032 553.907 354.024C557.473 337.015 560.764 319.733 560.764 319.733L571.187 314.521Z" fill="#465C72"/>
<path d="M484.237 307.662L471.62 318.361L462.02 374.324C462.02 374.324 455.985 417.942 460.648 418.49C465.311 419.039 472.443 417.667 475.46 418.49C478.477 419.313 480.946 417.119 480.946 417.119C480.946 417.119 484.237 399.562 484.237 399.287C484.237 399.013 486.431 378.987 486.431 378.987L489.174 356.492L485.06 331.803L484.237 307.662Z" fill="#465C72"/>
<path d="M543.758 566.627C543.758 566.627 545.541 571.749 547.998 578.722C549.139 581.965 550.426 585.611 551.751 589.328C552.604 591.731 553.47 594.164 554.323 596.54C555.684 600.339 557.006 603.988 558.161 607.121C559.686 611.255 560.923 614.494 561.587 616.006C564.604 622.864 619.736 611.891 624.124 609.148C628.513 606.405 629.61 597.077 630.159 583.91C630.162 583.841 630.164 583.773 630.164 583.704C630.236 581.046 629.558 577.087 628.425 572.443C627.86 570.122 627.18 567.631 626.423 565.044C625.408 561.574 624.256 557.936 623.052 554.315C617.879 538.761 611.781 523.558 611.781 523.558C611.781 523.558 601.084 516.151 597.244 511.213C593.404 506.275 572.284 502.435 572.284 502.435C566.249 502.709 552.535 526.027 547.049 533.159C541.563 540.292 543.758 566.627 543.758 566.627Z" fill="#8597A8"/>
<path d="M574.479 524.929C573.115 524.929 572.01 523.824 572.01 522.46C572.01 521.097 573.115 519.991 574.479 519.991C575.842 519.991 576.947 521.097 576.947 522.46C576.947 523.824 575.842 524.929 574.479 524.929Z" fill="#2F2E41"/>
<path d="M570.638 526.575C569.881 526.575 569.267 525.961 569.267 525.204C569.267 524.446 569.881 523.832 570.638 523.832C571.395 523.832 572.01 524.446 572.01 525.204C572.01 525.961 571.395 526.575 570.638 526.575Z" fill="#2F2E41"/>
<path d="M547.998 578.722C549.139 581.965 550.426 585.611 551.751 589.328L626.423 565.044C625.408 561.574 624.256 557.937 623.052 554.315L547.998 578.722Z" fill="#EEF7FF"/>
<path d="M554.323 596.539C555.684 600.339 557.006 603.987 558.161 607.12L630.164 583.704C630.236 581.045 629.558 577.087 628.425 572.442L554.323 596.539Z" fill="#EEF7FF"/>
<path fill-rule="evenodd" clip-rule="evenodd" d="M575.941 523.341C575.941 523.341 575.941 523.341 574.478 523.008C573.015 522.676 573.015 522.676 573.015 522.677L573.014 522.682L573.01 522.697L572.998 522.753C572.987 522.802 572.971 522.874 572.951 522.968C572.911 523.155 572.852 523.43 572.779 523.787C572.633 524.5 572.429 525.539 572.195 526.852C571.728 529.476 571.14 533.195 570.655 537.589C569.689 546.36 569.127 557.891 570.801 568.775C572.398 579.158 570.405 589.264 567.976 596.824C566.764 600.594 565.451 603.708 564.443 605.874C563.94 606.957 563.513 607.802 563.215 608.372C563.065 608.657 562.948 608.874 562.869 609.017C562.83 609.089 562.8 609.142 562.781 609.176L562.76 609.214L562.755 609.222L562.754 609.223C562.755 609.223 562.755 609.222 564.055 609.97C565.355 610.718 565.355 610.718 565.356 610.717L565.359 610.711L565.367 610.698L565.395 610.648C565.419 610.605 565.454 610.543 565.498 610.463C565.586 610.303 565.713 610.068 565.872 609.764C566.191 609.155 566.639 608.268 567.164 607.139C568.213 604.882 569.575 601.652 570.832 597.741C573.339 589.938 575.46 579.333 573.766 568.319C572.149 557.805 572.684 546.567 573.637 537.918C574.113 533.602 574.691 529.949 575.149 527.378C575.378 526.093 575.577 525.079 575.718 524.388C575.789 524.043 575.845 523.779 575.883 523.602C575.902 523.514 575.917 523.447 575.927 523.403L575.938 523.355L575.94 523.343L575.941 523.341Z" fill="#25323F"/>
<path fill-rule="evenodd" clip-rule="evenodd" d="M572.085 524.532C572.085 524.532 572.085 524.532 570.639 524.929C569.192 525.326 569.192 525.326 569.192 525.327L569.312 525.764C569.39 526.05 569.505 526.47 569.652 527.008C569.944 528.082 570.363 529.624 570.866 531.492C571.872 535.227 573.217 540.263 574.57 545.469C575.923 550.677 577.283 556.048 578.32 560.455C578.839 562.659 579.275 564.613 579.589 566.18C579.91 567.78 580.084 568.885 580.112 569.445C580.253 572.265 581.428 583.505 583.25 594.544C584.162 600.067 585.243 605.586 586.45 610.002C587.053 612.206 587.698 614.175 588.385 615.746C589.042 617.25 589.838 618.634 590.859 619.4L592.659 617C592.309 616.738 591.768 615.996 591.133 614.545C590.529 613.162 589.929 611.348 589.344 609.21C588.177 604.941 587.115 599.539 586.21 594.055C584.398 583.079 583.242 571.961 583.108 569.295C583.068 568.483 582.848 567.171 582.531 565.59C582.207 563.977 581.763 561.987 581.24 559.768C580.195 555.328 578.829 549.931 577.473 544.715C576.118 539.497 574.771 534.451 573.763 530.711C573.259 528.841 572.839 527.296 572.546 526.219C572.399 525.681 572.284 525.259 572.206 524.972L572.085 524.532Z" fill="#25323F"/>
<path d="M540.459 249.75C540.459 249.75 544.743 238.61 538.531 234.968L536.818 239.896C536.818 239.896 521.181 230.469 517.111 232.612L520.967 237.753C520.967 237.753 502.76 237.753 501.474 244.823L507.9 245.037C507.9 245.037 501.046 249.536 500.832 256.82L514.541 257.677L507.9 261.533C507.9 261.533 532.748 264.961 538.745 255.106L540.459 249.75Z" fill="#25323F"/>
<path d="M544.17 250.19C544.17 250.19 539.232 260.066 532.65 257.597C526.067 255.128 532.65 246.075 532.65 246.075L537.038 243.881L544.17 250.19Z" fill="#2F2E41"/>
</svg>
