<svg width="660" height="777" viewBox="0 0 660 777" fill="none" xmlns="http://www.w3.org/2000/svg"><path d="M75.371 349.742c20.087 0 36.371-16.284 36.371-36.371 0-20.087-16.284-36.371-36.37-36.371C55.283 277 39 293.284 39 313.371c0 20.087 16.284 36.371 36.371 36.371z" fill="#FF6584"/><path d="M141 242.898c0-3.406-4.923-6.167-10.997-6.167-.12 0-.239.003-.358.005-1.832-5.54-10.493-9.736-20.902-9.736-8.857 0-16.447 3.037-19.643 7.356a28.18 28.18 0 00-7.238-.914c-9.313 0-16.862 4.234-16.862 9.456 0 4.745 6.23 8.672 14.352 9.352 5.901 1.065 15.12 1.75 25.481 1.75 17.59 0 30.46-3.31 30.783-5.798 3.223-1.075 5.384-3.048 5.384-5.304zM405 245.898c0-3.406-4.923-6.167-10.997-6.167-.12 0-.239.003-.358.005-1.832-5.54-10.493-9.736-20.902-9.736-8.857 0-16.447 3.037-19.643 7.356a28.181 28.181 0 00-7.238-.914c-9.313 0-16.862 4.234-16.862 9.456 0 4.745 6.23 8.672 14.352 9.352 5.901 1.065 15.12 1.75 25.481 1.75 17.59 0 30.46-3.31 30.783-5.798 3.223-1.075 5.384-3.048 5.384-5.304zM552 201.264c0-6.056-8.616-10.965-19.244-10.965-.211 0-.419.006-.628.01-3.206-9.85-18.362-17.309-36.578-17.309-15.499 0-28.782 5.4-34.376 13.077a48.65 48.65 0 00-12.666-1.625c-16.297 0-29.508 7.527-29.508 16.812 0 8.434 10.902 15.417 25.115 16.626 10.328 1.892 26.461 3.11 44.592 3.11 30.783 0 53.306-5.885 53.871-10.308 5.641-1.911 9.422-5.417 9.422-9.428z" fill="#EEF7FF"/><mask id="path-5-inside-1" fill="#fff"><path fill-rule="evenodd" clip-rule="evenodd" d="M660 524.213l-88.844-51.558-1.203-.697h-60.752v-57.714l99.998-42.612L572.466 247l-106.187 28.975v-17.243l-46.191 12.918v16.932l-130.382 35.581H265.96v-18.194l-46.192 1.147v17.047h-8.403v-18.065h-54.267l-19.527 18.065h-7.319v-.217H61.3v.217h-5.177v147.795h-4.289L4 534.569h656v-10.356zm-239.986 0h219.359l-72.207-41.903H282.092v6.248h3.628v6.37h-3.628v5.149h3.628v6.373h-3.628v5.145h3.628v6.374h-3.628v6.244h137.922zM228.751 482.31H56.953l-32.012 41.903h203.81v-6.244h-4.535v-6.374h4.535v-5.145h-4.535v-6.373h4.535v-5.149h-4.535v-6.37h4.535v-6.248zM71.763 334.519h-5.288v137.439h5.288V334.519zm129.25-18.065h-39.859l-8.333 7.709h48.192v-7.709zm54.595.129l-25.488.631v6.949h25.488v-7.58zm200.319-44.203l-25.487 7.123v6.256l25.487-6.957v-6.422zm113.657 25.632v-24.163l-4.182-14.19-4.196 1.148v40.198l-6.374 2.27v-40.73l-8.378 2.284v41.431l-6.37 2.277v-41.969l-8.381 2.288v42.667l-6.37 2.273v-43.202l-8.378 2.285v43.907l-6.373 2.27v-44.435l-8.378 2.284v45.14l-6.37 2.273v-45.671l-8.381 2.284v46.373l-6.374 2.277V282.67l-8.378 2.288v47.609l-6.37 2.27v-48.141l-8.381 2.288v48.846l-6.37 2.269v-49.38l-8.378 2.292v50.078l-6.374 2.273v-50.617l-8.377 2.289v51.318l-6.374 2.273v-51.853l-8.378 2.284v52.555l-6.37 2.273v-53.086l-8.381 2.285v53.787l-6.37 2.273v-54.318l-8.382 2.284v55.024l-6.37 2.273v-55.558l-8.377 2.288v56.26l-6.374 2.269V314.87l-8.378 2.289v57.499l-6.373 2.27v-58.031l-8.378 2.288v58.729l-6.37 2.277v-59.268l-8.381 2.289v59.965l-6.371 2.269V326.95l-8.377 2.284v61.206l-6.374 2.269v-61.733l-8.378 2.285v62.438l-5.403 1.926-.97-.406v-62.7h-8.378v59.157l-6.374-2.69v-56.467h-8.377v52.924l-6.37-2.687v-50.237h-8.382v46.694l-6.37-2.691v-44.003h-8.378v40.461l-6.373-2.687v-37.774h-8.378v34.231l-6.37-2.691v-31.54h-8.381v27.997l-6.374-2.686v-25.311h-8.378v21.768l-6.37-2.687v-19.081h-8.381v15.538l-6.37-2.691v-12.847h-8.378v9.304l-6.374-2.686v-6.618h-8.377v3.075l-6.37-2.691v-.384h-8.382v.159h-6.37v-.159h-8.377v.159h-6.374v-.159h-8.378v70.838l-6.373-3.473v-67.365h-8.378V471.958H230.32v-84.176l6.373 2.717v81.459h8.378v-77.891l6.37 2.717v75.174h8.382v-71.605l6.37 2.716v68.889h8.377v-65.317l6.374 2.713v62.604h8.378v-60.08l6.373-1.705v61.785h8.378v-64.025l6.374-1.701v65.726h8.377v-67.963l6.371-1.701v69.664h8.381v-71.904l6.37-1.702v73.606h8.378v-75.842l6.373-1.702v77.544h8.378v-79.78l6.374-1.705v81.485h8.377v-83.725l6.37-1.702v85.427h8.382v-87.663l6.37-1.702v89.365h8.381v-91.601l6.37-1.702v93.303h8.378v-95.543l6.374-1.701v97.244h8.377v-99.481l6.374-1.701v101.182h8.378V368.536l6.37-1.705v105.127h8.381V364.594l6.37-1.701v109.065h8.378V360.656l6.374-1.701v113.003h8.381V356.715l6.37-1.702v50.96l8.378-3.572v-49.624l6.373-1.702v48.613l8.378-3.572v-47.281l6.37-1.701v46.269l8.381-3.572v-44.937l6.37-1.702v43.926l8.378-3.573v-42.589l6.374-1.702v41.571l8.378-3.565v-40.246l6.37-1.701v39.227l8.381-3.565v-47.074l-8.381-28.428v.269l-6.37 2.27zm21.125 47.505v22.738l5.953-2.535-5.953-20.203zM82.813 334.519h-4.68V471.958h4.68V334.519zm156.294 189.694h32.633V482.31h-32.633v41.903z"/><path fill-rule="evenodd" clip-rule="evenodd" d="M590.709 345.517v22.738l5.953-2.535-5.953-20.203z"/><path d="M66.475 334.519h5.288v137.439h-5.288V334.519zM78.133 334.519h4.68v137.439h-4.68V334.519zM569.584 273.849v24.163l6.37-2.27v-.269l8.381 28.428v47.074l-8.381 3.565v-39.227l-6.37 1.701v40.246l-8.378 3.565v-41.571l-6.374 1.702v42.589l-8.378 3.573v-43.926l-6.37 1.702v44.937l-8.381 3.572v-46.269l-6.37 1.701v47.281l-8.378 3.572v-48.613l-6.373 1.702v49.624l-8.378 3.572v-50.96l-6.37 1.702v115.243h-8.381V358.955l-6.374 1.701v111.302h-8.378V362.893l-6.37 1.701v107.364h-8.381V366.831l-6.37 1.705v103.422h-8.378V370.776l-6.374 1.701v99.481h-8.377v-97.244l-6.374 1.701v95.543h-8.378v-93.303l-6.37 1.702v91.601h-8.381v-89.365l-6.37 1.702v87.663h-8.382v-85.427l-6.37 1.702v83.725h-8.377v-81.485l-6.374 1.705v79.78h-8.378v-77.544l-6.373 1.702v75.842h-8.378v-73.606l-6.37 1.702v71.904h-8.381v-69.664l-6.371 1.701v67.963h-8.377v-65.726l-6.374 1.701v64.025h-8.378v-61.785l-6.373 1.705v60.08h-8.378v-62.604l-6.374-2.713v65.317h-8.377v-68.889l-6.37-2.716v71.605h-8.382v-75.174l-6.37-2.717v77.891h-8.378v-81.459l-6.373-2.717v84.176H89.187V334.519h8.378v67.365l6.373 3.473v-70.838h8.378v.159h6.374v-.159h8.377v.159h6.37v-.159h8.382v.384l6.37 2.691v-3.075h8.377v6.618l6.374 2.686v-9.304h8.378v12.847l6.37 2.691v-15.538h8.381V353.6l6.37 2.687v-21.768h8.378v25.311l6.374 2.686v-27.997h8.381v31.54l6.37 2.691v-34.231h8.378v37.774l6.373 2.687v-40.461h8.378v44.003l6.37 2.691v-46.694h8.382v50.237l6.37 2.687v-52.924h8.377v56.467l6.374 2.69v-59.157h8.378v62.7l.97.406 5.403-1.926v-62.438l8.378-2.285v61.733l6.374-2.269v-61.206l8.377-2.284v60.496l6.371-2.269v-59.965l8.381-2.289v59.268l6.37-2.277v-58.729l8.378-2.288v58.031l6.373-2.27v-57.499l8.378-2.289v56.795l6.374-2.269v-56.26l8.377-2.288v55.558l6.37-2.273v-55.024l8.382-2.284v54.318l6.37-2.273v-53.787l8.381-2.285v53.086l6.37-2.273v-52.555l8.378-2.284v51.853l6.374-2.273v-51.318l8.377-2.289v50.617l6.374-2.273v-50.078l8.378-2.292v49.38l6.37-2.269v-48.846l8.381-2.288v48.141l6.37-2.27v-47.609l8.378-2.288v46.911l6.374-2.277v-46.373l8.381-2.284v45.671l6.37-2.273v-45.14l8.378-2.284v44.435l6.373-2.27v-43.907l8.378-2.285v43.202l6.37-2.273v-42.667l8.381-2.288v41.969l6.37-2.277v-41.431l8.378-2.284v40.73l6.374-2.27v-40.198l4.196-1.148 4.182 14.19z"/></mask><path fill-rule="evenodd" clip-rule="evenodd" d="M660 524.213l-88.844-51.558-1.203-.697h-60.752v-57.714l99.998-42.612L572.466 247l-106.187 28.975v-17.243l-46.191 12.918v16.932l-130.382 35.581H265.96v-18.194l-46.192 1.147v17.047h-8.403v-18.065h-54.267l-19.527 18.065h-7.319v-.217H61.3v.217h-5.177v147.795h-4.289L4 534.569h656v-10.356zm-239.986 0h219.359l-72.207-41.903H282.092v6.248h3.628v6.37h-3.628v5.149h3.628v6.373h-3.628v5.145h3.628v6.374h-3.628v6.244h137.922zM228.751 482.31H56.953l-32.012 41.903h203.81v-6.244h-4.535v-6.374h4.535v-5.145h-4.535v-6.373h4.535v-5.149h-4.535v-6.37h4.535v-6.248zM71.763 334.519h-5.288v137.439h5.288V334.519zm129.25-18.065h-39.859l-8.333 7.709h48.192v-7.709zm54.595.129l-25.488.631v6.949h25.488v-7.58zm200.319-44.203l-25.487 7.123v6.256l25.487-6.957v-6.422zm113.657 25.632v-24.163l-4.182-14.19-4.196 1.148v40.198l-6.374 2.27v-40.73l-8.378 2.284v41.431l-6.37 2.277v-41.969l-8.381 2.288v42.667l-6.37 2.273v-43.202l-8.378 2.285v43.907l-6.373 2.27v-44.435l-8.378 2.284v45.14l-6.37 2.273v-45.671l-8.381 2.284v46.373l-6.374 2.277V282.67l-8.378 2.288v47.609l-6.37 2.27v-48.141l-8.381 2.288v48.846l-6.37 2.269v-49.38l-8.378 2.292v50.078l-6.374 2.273v-50.617l-8.377 2.289v51.318l-6.374 2.273v-51.853l-8.378 2.284v52.555l-6.37 2.273v-53.086l-8.381 2.285v53.787l-6.37 2.273v-54.318l-8.382 2.284v55.024l-6.37 2.273v-55.558l-8.377 2.288v56.26l-6.374 2.269V314.87l-8.378 2.289v57.499l-6.373 2.27v-58.031l-8.378 2.288v58.729l-6.37 2.277v-59.268l-8.381 2.289v59.965l-6.371 2.269V326.95l-8.377 2.284v61.206l-6.374 2.269v-61.733l-8.378 2.285v62.438l-5.403 1.926-.97-.406v-62.7h-8.378v59.157l-6.374-2.69v-56.467h-8.377v52.924l-6.37-2.687v-50.237h-8.382v46.694l-6.37-2.691v-44.003h-8.378v40.461l-6.373-2.687v-37.774h-8.378v34.231l-6.37-2.691v-31.54h-8.381v27.997l-6.374-2.686v-25.311h-8.378v21.768l-6.37-2.687v-19.081h-8.381v15.538l-6.37-2.691v-12.847h-8.378v9.304l-6.374-2.686v-6.618h-8.377v3.075l-6.37-2.691v-.384h-8.382v.159h-6.37v-.159h-8.377v.159h-6.374v-.159h-8.378v70.838l-6.373-3.473v-67.365h-8.378V471.958H230.32v-84.176l6.373 2.717v81.459h8.378v-77.891l6.37 2.717v75.174h8.382v-71.605l6.37 2.716v68.889h8.377v-65.317l6.374 2.713v62.604h8.378v-60.08l6.373-1.705v61.785h8.378v-64.025l6.374-1.701v65.726h8.377v-67.963l6.371-1.701v69.664h8.381v-71.904l6.37-1.702v73.606h8.378v-75.842l6.373-1.702v77.544h8.378v-79.78l6.374-1.705v81.485h8.377v-83.725l6.37-1.702v85.427h8.382v-87.663l6.37-1.702v89.365h8.381v-91.601l6.37-1.702v93.303h8.378v-95.543l6.374-1.701v97.244h8.377v-99.481l6.374-1.701v101.182h8.378V368.536l6.37-1.705v105.127h8.381V364.594l6.37-1.701v109.065h8.378V360.656l6.374-1.701v113.003h8.381V356.715l6.37-1.702v50.96l8.378-3.572v-49.624l6.373-1.702v48.613l8.378-3.572v-47.281l6.37-1.701v46.269l8.381-3.572v-44.937l6.37-1.702v43.926l8.378-3.573v-42.589l6.374-1.702v41.571l8.378-3.565v-40.246l6.37-1.701v39.227l8.381-3.565v-47.074l-8.381-28.428v.269l-6.37 2.27zm21.125 47.505v22.738l5.953-2.535-5.953-20.203zM82.813 334.519h-4.68V471.958h4.68V334.519zm156.294 189.694h32.633V482.31h-32.633v41.903z" fill="#fff"/><path fill-rule="evenodd" clip-rule="evenodd" d="M590.709 345.517v22.738l5.953-2.535-5.953-20.203z" fill="#fff"/><path d="M66.475 334.519h5.288v137.439h-5.288V334.519zM78.133 334.519h4.68v137.439h-4.68V334.519zM569.584 273.849v24.163l6.37-2.27v-.269l8.381 28.428v47.074l-8.381 3.565v-39.227l-6.37 1.701v40.246l-8.378 3.565v-41.571l-6.374 1.702v42.589l-8.378 3.573v-43.926l-6.37 1.702v44.937l-8.381 3.572v-46.269l-6.37 1.701v47.281l-8.378 3.572v-48.613l-6.373 1.702v49.624l-8.378 3.572v-50.96l-6.37 1.702v115.243h-8.381V358.955l-6.374 1.701v111.302h-8.378V362.893l-6.37 1.701v107.364h-8.381V366.831l-6.37 1.705v103.422h-8.378V370.776l-6.374 1.701v99.481h-8.377v-97.244l-6.374 1.701v95.543h-8.378v-93.303l-6.37 1.702v91.601h-8.381v-89.365l-6.37 1.702v87.663h-8.382v-85.427l-6.37 1.702v83.725h-8.377v-81.485l-6.374 1.705v79.78h-8.378v-77.544l-6.373 1.702v75.842h-8.378v-73.606l-6.37 1.702v71.904h-8.381v-69.664l-6.371 1.701v67.963h-8.377v-65.726l-6.374 1.701v64.025h-8.378v-61.785l-6.373 1.705v60.08h-8.378v-62.604l-6.374-2.713v65.317h-8.377v-68.889l-6.37-2.716v71.605h-8.382v-75.174l-6.37-2.717v77.891h-8.378v-81.459l-6.373-2.717v84.176H89.187V334.519h8.378v67.365l6.373 3.473v-70.838h8.378v.159h6.374v-.159h8.377v.159h6.37v-.159h8.382v.384l6.37 2.691v-3.075h8.377v6.618l6.374 2.686v-9.304h8.378v12.847l6.37 2.691v-15.538h8.381V353.6l6.37 2.687v-21.768h8.378v25.311l6.374 2.686v-27.997h8.381v31.54l6.37 2.691v-34.231h8.378v37.774l6.373 2.687v-40.461h8.378v44.003l6.37 2.691v-46.694h8.382v50.237l6.37 2.687v-52.924h8.377v56.467l6.374 2.69v-59.157h8.378v62.7l.97.406 5.403-1.926v-62.438l8.378-2.285v61.733l6.374-2.269v-61.206l8.377-2.284v60.496l6.371-2.269v-59.965l8.381-2.289v59.268l6.37-2.277v-58.729l8.378-2.288v58.031l6.373-2.27v-57.499l8.378-2.289v56.795l6.374-2.269v-56.26l8.377-2.288v55.558l6.37-2.273v-55.024l8.382-2.284v54.318l6.37-2.273v-53.787l8.381-2.285v53.086l6.37-2.273v-52.555l8.378-2.284v51.853l6.374-2.273v-51.318l8.377-2.289v50.617l6.374-2.273v-50.078l8.378-2.292v49.38l6.37-2.269v-48.846l8.381-2.288v48.141l6.37-2.27v-47.609l8.378-2.288v46.911l6.374-2.277v-46.373l8.381-2.284v45.671l6.37-2.273v-45.14l8.378-2.284v44.435l6.373-2.27v-43.907l8.378-2.285v43.202l6.37-2.273v-42.667l8.381-2.288v41.969l6.37-2.277v-41.431l8.378-2.284v40.73l6.374-2.27v-40.198l4.196-1.148 4.182 14.19z" fill="#fff"/><path clip-rule="evenodd" d="M660 524.213l-88.844-51.558-1.203-.697h-60.752v-57.714l99.998-42.612L572.466 247l-106.187 28.975v-17.243l-46.191 12.918v16.932l-130.382 35.581H265.96v-18.194l-46.192 1.147v17.047h-8.403v-18.065h-54.267l-19.527 18.065h-7.319v-.217H61.3v.217h-5.177v147.795h-4.289L4 534.569h656v-10.356zm-239.986 0h219.359l-72.207-41.903H282.092v6.248h3.628v6.37h-3.628v5.149h3.628v6.373h-3.628v5.145h3.628v6.374h-3.628v6.244h137.922zM228.751 482.31H56.953l-32.012 41.903h203.81v-6.244h-4.535v-6.374h4.535v-5.145h-4.535v-6.373h4.535v-5.149h-4.535v-6.37h4.535v-6.248zM71.763 334.519h-5.288v137.439h5.288V334.519zm129.25-18.065h-39.859l-8.333 7.709h48.192v-7.709zm54.595.129l-25.488.631v6.949h25.488v-7.58zm200.319-44.203l-25.487 7.123v6.256l25.487-6.957v-6.422zm113.657 25.632v-24.163l-4.182-14.19-4.196 1.148v40.198l-6.374 2.27v-40.73l-8.378 2.284v41.431l-6.37 2.277v-41.969l-8.381 2.288v42.667l-6.37 2.273v-43.202l-8.378 2.285v43.907l-6.373 2.27v-44.435l-8.378 2.284v45.14l-6.37 2.273v-45.671l-8.381 2.284v46.373l-6.374 2.277V282.67l-8.378 2.288v47.609l-6.37 2.27v-48.141l-8.381 2.288v48.846l-6.37 2.269v-49.38l-8.378 2.292v50.078l-6.374 2.273v-50.617l-8.377 2.289v51.318l-6.374 2.273v-51.853l-8.378 2.284v52.555l-6.37 2.273v-53.086l-8.381 2.285v53.787l-6.37 2.273v-54.318l-8.382 2.284v55.024l-6.37 2.273v-55.558l-8.377 2.288v56.26l-6.374 2.269V314.87l-8.378 2.289v57.499l-6.373 2.27v-58.031l-8.378 2.288v58.729l-6.37 2.277v-59.268l-8.381 2.289v59.965l-6.371 2.269V326.95l-8.377 2.284v61.206l-6.374 2.269v-61.733l-8.378 2.285v62.438l-5.403 1.926-.97-.406v-62.7h-8.378v59.157l-6.374-2.69v-56.467h-8.377v52.924l-6.37-2.687v-50.237h-8.382v46.694l-6.37-2.691v-44.003h-8.378v40.461l-6.373-2.687v-37.774h-8.378v34.231l-6.37-2.691v-31.54h-8.381v27.997l-6.374-2.686v-25.311h-8.378v21.768l-6.37-2.687v-19.081h-8.381v15.538l-6.37-2.691v-12.847h-8.378v9.304l-6.374-2.686v-6.618h-8.377v3.075l-6.37-2.691v-.384h-8.382v.159h-6.37v-.159h-8.377v.159h-6.374v-.159h-8.378v70.838l-6.373-3.473v-67.365h-8.378V471.958H230.32v-84.176l6.373 2.717v81.459h8.378v-77.891l6.37 2.717v75.174h8.382v-71.605l6.37 2.716v68.889h8.377v-65.317l6.374 2.713v62.604h8.378v-60.08l6.373-1.705v61.785h8.378v-64.025l6.374-1.701v65.726h8.377v-67.963l6.371-1.701v69.664h8.381v-71.904l6.37-1.702v73.606h8.378v-75.842l6.373-1.702v77.544h8.378v-79.78l6.374-1.705v81.485h8.377v-83.725l6.37-1.702v85.427h8.382v-87.663l6.37-1.702v89.365h8.381v-91.601l6.37-1.702v93.303h8.378v-95.543l6.374-1.701v97.244h8.377v-99.481l6.374-1.701v101.182h8.378V368.536l6.37-1.705v105.127h8.381V364.594l6.37-1.701v109.065h8.378V360.656l6.374-1.701v113.003h8.381V356.715l6.37-1.702v50.96l8.378-3.572v-49.624l6.373-1.702v48.613l8.378-3.572v-47.281l6.37-1.701v46.269l8.381-3.572v-44.937l6.37-1.702v43.926l8.378-3.573v-42.589l6.374-1.702v41.571l8.378-3.565v-40.246l6.37-1.701v39.227l8.381-3.565v-47.074l-8.381-28.428v.269l-6.37 2.27zm21.125 47.505v22.738l5.953-2.535-5.953-20.203zM82.813 334.519h-4.68V471.958h4.68V334.519zm156.294 189.694h32.633V482.31h-32.633v41.903z" stroke="#fff" stroke-width="3" mask="url(#path-5-inside-1)"/><path clip-rule="evenodd" d="M590.709 345.517v22.738l5.953-2.535-5.953-20.203z" stroke="#fff" stroke-width="3" mask="url(#path-5-inside-1)"/><path d="M66.475 334.519h5.288v137.439h-5.288V334.519zM78.133 334.519h4.68v137.439h-4.68V334.519zM569.584 273.849v24.163l6.37-2.27v-.269l8.381 28.428v47.074l-8.381 3.565v-39.227l-6.37 1.701v40.246l-8.378 3.565v-41.571l-6.374 1.702v42.589l-8.378 3.573v-43.926l-6.37 1.702v44.937l-8.381 3.572v-46.269l-6.37 1.701v47.281l-8.378 3.572v-48.613l-6.373 1.702v49.624l-8.378 3.572v-50.96l-6.37 1.702v115.243h-8.381V358.955l-6.374 1.701v111.302h-8.378V362.893l-6.37 1.701v107.364h-8.381V366.831l-6.37 1.705v103.422h-8.378V370.776l-6.374 1.701v99.481h-8.377v-97.244l-6.374 1.701v95.543h-8.378v-93.303l-6.37 1.702v91.601h-8.381v-89.365l-6.37 1.702v87.663h-8.382v-85.427l-6.37 1.702v83.725h-8.377v-81.485l-6.374 1.705v79.78h-8.378v-77.544l-6.373 1.702v75.842h-8.378v-73.606l-6.37 1.702v71.904h-8.381v-69.664l-6.371 1.701v67.963h-8.377v-65.726l-6.374 1.701v64.025h-8.378v-61.785l-6.373 1.705v60.08h-8.378v-62.604l-6.374-2.713v65.317h-8.377v-68.889l-6.37-2.716v71.605h-8.382v-75.174l-6.37-2.717v77.891h-8.378v-81.459l-6.373-2.717v84.176H89.187V334.519h8.378v67.365l6.373 3.473v-70.838h8.378v.159h6.374v-.159h8.377v.159h6.37v-.159h8.382v.384l6.37 2.691v-3.075h8.377v6.618l6.374 2.686v-9.304h8.378v12.847l6.37 2.691v-15.538h8.381V353.6l6.37 2.687v-21.768h8.378v25.311l6.374 2.686v-27.997h8.381v31.54l6.37 2.691v-34.231h8.378v37.774l6.373 2.687v-40.461h8.378v44.003l6.37 2.691v-46.694h8.382v50.237l6.37 2.687v-52.924h8.377v56.467l6.374 2.69v-59.157h8.378v62.7l.97.406 5.403-1.926v-62.438l8.378-2.285v61.733l6.374-2.269v-61.206l8.377-2.284v60.496l6.371-2.269v-59.965l8.381-2.289v59.268l6.37-2.277v-58.729l8.378-2.288v58.031l6.373-2.27v-57.499l8.378-2.289v56.795l6.374-2.269v-56.26l8.377-2.288v55.558l6.37-2.273v-55.024l8.382-2.284v54.318l6.37-2.273v-53.787l8.381-2.285v53.086l6.37-2.273v-52.555l8.378-2.284v51.853l6.374-2.273v-51.318l8.377-2.289v50.617l6.374-2.273v-50.078l8.378-2.292v49.38l6.37-2.269v-48.846l8.381-2.288v48.141l6.37-2.27v-47.609l8.378-2.288v46.911l6.374-2.277v-46.373l8.381-2.284v45.671l6.37-2.273v-45.14l8.378-2.284v44.435l6.373-2.27v-43.907l8.378-2.285v43.202l6.37-2.273v-42.667l8.381-2.288v41.969l6.37-2.277v-41.431l8.378-2.284v40.73l6.374-2.27v-40.198l4.196-1.148 4.182 14.19z" stroke="#fff" stroke-width="3" mask="url(#path-5-inside-1)"/><mask id="path-6-inside-2" fill="#fff"><path fill-rule="evenodd" clip-rule="evenodd" d="M660 524.213l-88.844-51.558-1.203-.697h-60.752v-57.714l99.998-42.612L572.466 247l-106.187 28.975v-17.243l-46.191 12.918v16.932l-130.382 35.581H265.96v-18.194l-46.192 1.147v17.047h-8.403v-18.065h-54.267l-19.527 18.065h-7.319v-.217H61.3v.217h-5.177v147.795h-4.289L4 534.569h656v-10.356zm-239.986 0h219.359l-72.207-41.903H282.092v6.248h3.628v6.37h-3.628v5.149h3.628v6.373h-3.628v5.145h3.628v6.374h-3.628v6.244h137.922zM228.751 482.31H56.953l-32.012 41.903h203.81v-6.244h-4.535v-6.374h4.535v-5.145h-4.535v-6.373h4.535v-5.149h-4.535v-6.37h4.535v-6.248zM71.763 334.519h-5.288v137.439h5.288V334.519zm129.25-18.065h-39.859l-8.333 7.709h48.192v-7.709zm54.595.129l-25.488.631v6.949h25.488v-7.58zm200.319-44.203l-25.487 7.123v6.256l25.487-6.957v-6.422zm113.657 25.632v-24.163l-4.182-14.19-4.196 1.148v40.198l-6.374 2.27v-40.73l-8.378 2.284v41.431l-6.37 2.277v-41.969l-8.381 2.288v42.667l-6.37 2.273v-43.202l-8.378 2.285v43.907l-6.373 2.27v-44.435l-8.378 2.284v45.14l-6.37 2.273v-45.671l-8.381 2.284v46.373l-6.374 2.277V282.67l-8.378 2.288v47.609l-6.37 2.27v-48.141l-8.381 2.288v48.846l-6.37 2.269v-49.38l-8.378 2.292v50.078l-6.374 2.273v-50.617l-8.377 2.289v51.318l-6.374 2.273v-51.853l-8.378 2.284v52.555l-6.37 2.273v-53.086l-8.381 2.285v53.787l-6.37 2.273v-54.318l-8.382 2.284v55.024l-6.37 2.273v-55.558l-8.377 2.288v56.26l-6.374 2.269V314.87l-8.378 2.289v57.499l-6.373 2.27v-58.031l-8.378 2.288v58.729l-6.37 2.277v-59.268l-8.381 2.289v59.965l-6.371 2.269V326.95l-8.377 2.284v61.206l-6.374 2.269v-61.733l-8.378 2.285v62.438l-5.403 1.926-.97-.406v-62.7h-8.378v59.157l-6.374-2.69v-56.467h-8.377v52.924l-6.37-2.687v-50.237h-8.382v46.694l-6.37-2.691v-44.003h-8.378v40.461l-6.373-2.687v-37.774h-8.378v34.231l-6.37-2.691v-31.54h-8.381v27.997l-6.374-2.686v-25.311h-8.378v21.768l-6.37-2.687v-19.081h-8.381v15.538l-6.37-2.691v-12.847h-8.378v9.304l-6.374-2.686v-6.618h-8.377v3.075l-6.37-2.691v-.384h-8.382v.159h-6.37v-.159h-8.377v.159h-6.374v-.159h-8.378v70.838l-6.373-3.473v-67.365h-8.378V471.958H230.32v-84.176l6.373 2.717v81.459h8.378v-77.891l6.37 2.717v75.174h8.382v-71.605l6.37 2.716v68.889h8.377v-65.317l6.374 2.713v62.604h8.378v-60.08l6.373-1.705v61.785h8.378v-64.025l6.374-1.701v65.726h8.377v-67.963l6.371-1.701v69.664h8.381v-71.904l6.37-1.702v73.606h8.378v-75.842l6.373-1.702v77.544h8.378v-79.78l6.374-1.705v81.485h8.377v-83.725l6.37-1.702v85.427h8.382v-87.663l6.37-1.702v89.365h8.381v-91.601l6.37-1.702v93.303h8.378v-95.543l6.374-1.701v97.244h8.377v-99.481l6.374-1.701v101.182h8.378V368.536l6.37-1.705v105.127h8.381V364.594l6.37-1.701v109.065h8.378V360.656l6.374-1.701v113.003h8.381V356.715l6.37-1.702v50.96l8.378-3.572v-49.624l6.373-1.702v48.613l8.378-3.572v-47.281l6.37-1.701v46.269l8.381-3.572v-44.937l6.37-1.702v43.926l8.378-3.573v-42.589l6.374-1.702v41.571l8.378-3.565v-40.246l6.37-1.701v39.227l8.381-3.565v-47.074l-8.381-28.428v.269l-6.37 2.27zm21.125 47.505v22.738l5.953-2.535-5.953-20.203zM82.813 334.519h-4.68V471.958h4.68V334.519zm156.294 189.694h32.633V482.31h-32.633v41.903z"/><path fill-rule="evenodd" clip-rule="evenodd" d="M590.709 345.517v22.738l5.953-2.535-5.953-20.203z"/></mask><path fill-rule="evenodd" clip-rule="evenodd" d="M660 524.213l-88.844-51.558-1.203-.697h-60.752v-57.714l99.998-42.612L572.466 247l-106.187 28.975v-17.243l-46.191 12.918v16.932l-130.382 35.581H265.96v-18.194l-46.192 1.147v17.047h-8.403v-18.065h-54.267l-19.527 18.065h-7.319v-.217H61.3v.217h-5.177v147.795h-4.289L4 534.569h656v-10.356zm-239.986 0h219.359l-72.207-41.903H282.092v6.248h3.628v6.37h-3.628v5.149h3.628v6.373h-3.628v5.145h3.628v6.374h-3.628v6.244h137.922zM228.751 482.31H56.953l-32.012 41.903h203.81v-6.244h-4.535v-6.374h4.535v-5.145h-4.535v-6.373h4.535v-5.149h-4.535v-6.37h4.535v-6.248zM71.763 334.519h-5.288v137.439h5.288V334.519zm129.25-18.065h-39.859l-8.333 7.709h48.192v-7.709zm54.595.129l-25.488.631v6.949h25.488v-7.58zm200.319-44.203l-25.487 7.123v6.256l25.487-6.957v-6.422zm113.657 25.632v-24.163l-4.182-14.19-4.196 1.148v40.198l-6.374 2.27v-40.73l-8.378 2.284v41.431l-6.37 2.277v-41.969l-8.381 2.288v42.667l-6.37 2.273v-43.202l-8.378 2.285v43.907l-6.373 2.27v-44.435l-8.378 2.284v45.14l-6.37 2.273v-45.671l-8.381 2.284v46.373l-6.374 2.277V282.67l-8.378 2.288v47.609l-6.37 2.27v-48.141l-8.381 2.288v48.846l-6.37 2.269v-49.38l-8.378 2.292v50.078l-6.374 2.273v-50.617l-8.377 2.289v51.318l-6.374 2.273v-51.853l-8.378 2.284v52.555l-6.37 2.273v-53.086l-8.381 2.285v53.787l-6.37 2.273v-54.318l-8.382 2.284v55.024l-6.37 2.273v-55.558l-8.377 2.288v56.26l-6.374 2.269V314.87l-8.378 2.289v57.499l-6.373 2.27v-58.031l-8.378 2.288v58.729l-6.37 2.277v-59.268l-8.381 2.289v59.965l-6.371 2.269V326.95l-8.377 2.284v61.206l-6.374 2.269v-61.733l-8.378 2.285v62.438l-5.403 1.926-.97-.406v-62.7h-8.378v59.157l-6.374-2.69v-56.467h-8.377v52.924l-6.37-2.687v-50.237h-8.382v46.694l-6.37-2.691v-44.003h-8.378v40.461l-6.373-2.687v-37.774h-8.378v34.231l-6.37-2.691v-31.54h-8.381v27.997l-6.374-2.686v-25.311h-8.378v21.768l-6.37-2.687v-19.081h-8.381v15.538l-6.37-2.691v-12.847h-8.378v9.304l-6.374-2.686v-6.618h-8.377v3.075l-6.37-2.691v-.384h-8.382v.159h-6.37v-.159h-8.377v.159h-6.374v-.159h-8.378v70.838l-6.373-3.473v-67.365h-8.378V471.958H230.32v-84.176l6.373 2.717v81.459h8.378v-77.891l6.37 2.717v75.174h8.382v-71.605l6.37 2.716v68.889h8.377v-65.317l6.374 2.713v62.604h8.378v-60.08l6.373-1.705v61.785h8.378v-64.025l6.374-1.701v65.726h8.377v-67.963l6.371-1.701v69.664h8.381v-71.904l6.37-1.702v73.606h8.378v-75.842l6.373-1.702v77.544h8.378v-79.78l6.374-1.705v81.485h8.377v-83.725l6.37-1.702v85.427h8.382v-87.663l6.37-1.702v89.365h8.381v-91.601l6.37-1.702v93.303h8.378v-95.543l6.374-1.701v97.244h8.377v-99.481l6.374-1.701v101.182h8.378V368.536l6.37-1.705v105.127h8.381V364.594l6.37-1.701v109.065h8.378V360.656l6.374-1.701v113.003h8.381V356.715l6.37-1.702v50.96l8.378-3.572v-49.624l6.373-1.702v48.613l8.378-3.572v-47.281l6.37-1.701v46.269l8.381-3.572v-44.937l6.37-1.702v43.926l8.378-3.573v-42.589l6.374-1.702v41.571l8.378-3.565v-40.246l6.37-1.701v39.227l8.381-3.565v-47.074l-8.381-28.428v.269l-6.37 2.27zm21.125 47.505v22.738l5.953-2.535-5.953-20.203zM82.813 334.519h-4.68V471.958h4.68V334.519zm156.294 189.694h32.633V482.31h-32.633v41.903z" fill="#BBCFE2"/><path fill-rule="evenodd" clip-rule="evenodd" d="M590.709 345.517v22.738l5.953-2.535-5.953-20.203z" fill="#BBCFE2"/><path clip-rule="evenodd" d="M660 524.213l-88.844-51.558-1.203-.697h-60.752v-57.714l99.998-42.612L572.466 247l-106.187 28.975v-17.243l-46.191 12.918v16.932l-130.382 35.581H265.96v-18.194l-46.192 1.147v17.047h-8.403v-18.065h-54.267l-19.527 18.065h-7.319v-.217H61.3v.217h-5.177v147.795h-4.289L4 534.569h656v-10.356zm-239.986 0h219.359l-72.207-41.903H282.092v6.248h3.628v6.37h-3.628v5.149h3.628v6.373h-3.628v5.145h3.628v6.374h-3.628v6.244h137.922zM228.751 482.31H56.953l-32.012 41.903h203.81v-6.244h-4.535v-6.374h4.535v-5.145h-4.535v-6.373h4.535v-5.149h-4.535v-6.37h4.535v-6.248zM71.763 334.519h-5.288v137.439h5.288V334.519zm129.25-18.065h-39.859l-8.333 7.709h48.192v-7.709zm54.595.129l-25.488.631v6.949h25.488v-7.58zm200.319-44.203l-25.487 7.123v6.256l25.487-6.957v-6.422zm113.657 25.632v-24.163l-4.182-14.19-4.196 1.148v40.198l-6.374 2.27v-40.73l-8.378 2.284v41.431l-6.37 2.277v-41.969l-8.381 2.288v42.667l-6.37 2.273v-43.202l-8.378 2.285v43.907l-6.373 2.27v-44.435l-8.378 2.284v45.14l-6.37 2.273v-45.671l-8.381 2.284v46.373l-6.374 2.277V282.67l-8.378 2.288v47.609l-6.37 2.27v-48.141l-8.381 2.288v48.846l-6.37 2.269v-49.38l-8.378 2.292v50.078l-6.374 2.273v-50.617l-8.377 2.289v51.318l-6.374 2.273v-51.853l-8.378 2.284v52.555l-6.37 2.273v-53.086l-8.381 2.285v53.787l-6.37 2.273v-54.318l-8.382 2.284v55.024l-6.37 2.273v-55.558l-8.377 2.288v56.26l-6.374 2.269V314.87l-8.378 2.289v57.499l-6.373 2.27v-58.031l-8.378 2.288v58.729l-6.37 2.277v-59.268l-8.381 2.289v59.965l-6.371 2.269V326.95l-8.377 2.284v61.206l-6.374 2.269v-61.733l-8.378 2.285v62.438l-5.403 1.926-.97-.406v-62.7h-8.378v59.157l-6.374-2.69v-56.467h-8.377v52.924l-6.37-2.687v-50.237h-8.382v46.694l-6.37-2.691v-44.003h-8.378v40.461l-6.373-2.687v-37.774h-8.378v34.231l-6.37-2.691v-31.54h-8.381v27.997l-6.374-2.686v-25.311h-8.378v21.768l-6.37-2.687v-19.081h-8.381v15.538l-6.37-2.691v-12.847h-8.378v9.304l-6.374-2.686v-6.618h-8.377v3.075l-6.37-2.691v-.384h-8.382v.159h-6.37v-.159h-8.377v.159h-6.374v-.159h-8.378v70.838l-6.373-3.473v-67.365h-8.378V471.958H230.32v-84.176l6.373 2.717v81.459h8.378v-77.891l6.37 2.717v75.174h8.382v-71.605l6.37 2.716v68.889h8.377v-65.317l6.374 2.713v62.604h8.378v-60.08l6.373-1.705v61.785h8.378v-64.025l6.374-1.701v65.726h8.377v-67.963l6.371-1.701v69.664h8.381v-71.904l6.37-1.702v73.606h8.378v-75.842l6.373-1.702v77.544h8.378v-79.78l6.374-1.705v81.485h8.377v-83.725l6.37-1.702v85.427h8.382v-87.663l6.37-1.702v89.365h8.381v-91.601l6.37-1.702v93.303h8.378v-95.543l6.374-1.701v97.244h8.377v-99.481l6.374-1.701v101.182h8.378V368.536l6.37-1.705v105.127h8.381V364.594l6.37-1.701v109.065h8.378V360.656l6.374-1.701v113.003h8.381V356.715l6.37-1.702v50.96l8.378-3.572v-49.624l6.373-1.702v48.613l8.378-3.572v-47.281l6.37-1.701v46.269l8.381-3.572v-44.937l6.37-1.702v43.926l8.378-3.573v-42.589l6.374-1.702v41.571l8.378-3.565v-40.246l6.37-1.701v39.227l8.381-3.565v-47.074l-8.381-28.428v.269l-6.37 2.27zm21.125 47.505v22.738l5.953-2.535-5.953-20.203zM82.813 334.519h-4.68V471.958h4.68V334.519zm156.294 189.694h32.633V482.31h-32.633v41.903z" stroke="#fff" stroke-width="3" mask="url(#path-6-inside-2)"/><path clip-rule="evenodd" d="M590.709 345.517v22.738l5.953-2.535-5.953-20.203z" stroke="#fff" stroke-width="3" mask="url(#path-6-inside-2)"/><path d="M447.199 498.396h115.906v-7.69H447.199v7.69z" fill="#BBCFE2" stroke="#fff" stroke-width="2"/><path d="M389.693 493.595h5.298v-3.707h-5.298v3.707zM301.714 493.595h11.996v-3.707h-11.996v3.707zM331.045 493.595h11.996v-3.707h-11.996v3.707zM360.371 493.595h11.996v-3.707h-11.996v3.707zM389.693 505.113h5.298v-3.707h-5.298v3.707zM301.714 505.113h11.996v-3.707h-11.996v3.707zM331.045 505.113h11.996v-3.707h-11.996v3.707zM360.371 505.113h11.996v-3.707h-11.996v3.707zM389.693 516.634h5.298v-3.707h-5.298v3.707zM360.371 516.634h11.996v-3.707h-11.996v3.707zM331.045 516.634h11.996v-3.707h-11.996v3.707zM301.714 516.634h11.996v-3.707h-11.996v3.707zM137.566 493.595h11.996v-3.707h-11.996v3.707zM166.892 493.595h11.996v-3.707h-11.996v3.707zM196.223 493.595h11.997v-3.707h-11.997v3.707zM114.941 493.595h5.298v-3.707h-5.298v3.707zM137.566 505.113h11.996v-3.707h-11.996v3.707zM196.223 505.113h11.997v-3.707h-11.997v3.707zM166.892 505.113h11.996v-3.707h-11.996v3.707zM114.941 505.113h5.298v-3.707h-5.298v3.707zM196.223 516.634h11.997v-3.707h-11.997v3.707zM166.892 516.634h11.996v-3.707h-11.996v3.707zM137.566 516.634h11.996v-3.707h-11.996v3.707zM114.941 516.634h5.298v-3.707h-5.298v3.707z" fill="#C3C1D6" stroke="#fff" stroke-width="2"/><path d="M434.271 515.816h115.905v-7.689H434.271v7.689z" fill="#BBCFE2" stroke="#fff" stroke-width="2"/><path d="M216.902 383.515v81.865l3.703 2.016v-82.304l-3.703-1.577zM202.151 377.228v80.115l3.707 2.02v-80.555l-3.707-1.58zM157.899 358.37v74.868l3.707 2.018v-75.308l-3.707-1.578zM143.149 352.087v73.114l3.704 2.017v-73.554l-3.704-1.577zM172.651 364.656v76.616l3.704 2.017v-77.054l-3.704-1.579zM187.403 370.943v78.366l3.707 2.018V372.52l-3.707-1.577zM128.4 345.799v71.364l3.707 2.017v-71.802l-3.707-1.579zM113.65 339.513v69.616l3.707 2.018v-70.056l-3.707-1.578z" fill="#C3C1D6" stroke="#fff" stroke-width="2"/><path d="M311 601.148c109.393 0 198.073-3.915 198.073-8.745 0-4.829-88.68-8.744-198.073-8.744s-198.073 3.915-198.073 8.744c0 4.83 88.68 8.745 198.073 8.745z" fill="#BBCFE2"/><path d="M454.841 399.267a6.633 6.633 0 100-13.267 6.633 6.633 0 000 13.267zM442.563 400.455a4.654 4.654 0 100-9.307 4.654 4.654 0 000 9.307zM140.798 424.106c7.673 0 13.894-6.22 13.894-13.893 0-7.673-6.221-13.894-13.894-13.894s-13.893 6.221-13.893 13.894 6.22 13.893 13.893 13.893zM115.086 426.594c5.382 0 9.746-4.363 9.746-9.746 0-5.382-4.364-9.746-9.746-9.746-5.383 0-9.746 4.364-9.746 9.746a9.745 9.745 0 009.746 9.746z" fill="#EEF7FF"/><path d="M341.504 406.66c-9.196-15.539-27.391-16.264-27.391-16.264s-17.73-2.267-29.103 21.4c-10.601 22.059-25.232 43.358-2.356 48.522l4.132-12.861 2.559 13.818c3.258.235 6.525.291 9.788.168 24.499-.791 47.83.231 47.079-8.56-.998-11.687 4.141-31.271-4.708-46.223z" fill="#25323F"/><path d="M281.348 542.746a36.272 36.272 0 01-1.173 5.051c-.576 1.618-1.464 3.114-1.99 4.749-1.678 5.212.648 11.022 4.361 15.045a24.551 24.551 0 0011.97 7.107c3.35.843 6.834.964 10.286 1.081 9.56.325 19.367.615 28.426-2.458a49.283 49.283 0 008.258-3.752 6.185 6.185 0 002.143-1.687c.691-.984.78-2.259.774-3.461-.021-4.053-.842-8.085-.647-12.134.108-2.242.527-4.483.321-6.718a12.396 12.396 0 00-9.472-10.676c-2.57-.552-5.236-.251-7.852 0-6.791.653-13.612.958-20.434.914-6.971-.044-13.899-1.109-20.835-1.22-2.051-.033-2.01.6-2.663 2.585a48.535 48.535 0 00-1.473 5.574z" fill="#465C72"/><path d="M301.131 442.671c-.335 1.754-.697 3.572-1.751 5.013-1.213 1.659-3.19 2.606-4.495 4.193-1.964 2.389-2.077 5.751-2.085 8.844-.007 2.848.051 5.887 1.639 8.252 1.031 1.535 2.6 2.611 4.134 3.644 5.958 4.015 12.396 8.102 19.579 8.235 2.976.055 6.168-.714 8.126-2.956a12.185 12.185 0 001.967-3.51 46.597 46.597 0 003.3-14.19c.164-2.293.148-4.652-.628-6.816-.873-2.433-2.637-4.435-3.803-6.742a15.006 15.006 0 01-1.445-8.881.959.959 0 00-.051-.644.935.935 0 00-.772-.313l-14.244-1.025a30.933 30.933 0 01-3.955-.453c-.767-.156-2.795-1.246-3.528-.956-1.355.536-1.71 6.85-1.988 8.305z" fill="#FFB8B8"/><path d="M301.131 442.671c-.335 1.754-.697 3.572-1.751 5.013-1.213 1.659-3.19 2.606-4.495 4.193-1.964 2.389-2.077 5.751-2.085 8.844-.007 2.848.051 5.887 1.639 8.252 1.031 1.535 2.6 2.611 4.134 3.644 5.958 4.015 12.396 8.102 19.579 8.235 2.976.055 6.168-.714 8.126-2.956a12.185 12.185 0 001.967-3.51 46.597 46.597 0 003.3-14.19c.164-2.293.148-4.652-.628-6.816-.873-2.433-2.637-4.435-3.803-6.742a15.006 15.006 0 01-1.445-8.881.959.959 0 00-.051-.644.935.935 0 00-.772-.313l-14.244-1.025a30.933 30.933 0 01-3.955-.453c-.767-.156-2.795-1.246-3.528-.956-1.355.536-1.71 6.85-1.988 8.305z" fill="#F3AEAE"/><path d="M314.752 444.58c11.541 0 20.897-9.355 20.897-20.896s-9.356-20.897-20.897-20.897c-11.541 0-20.897 9.356-20.897 20.897 0 11.541 9.356 20.896 20.897 20.896z" fill="#FBBEBE"/><path d="M304.062 470.487c1.089 1.139 2.243 2.266 3.67 2.933a11.52 11.52 0 004.586.873c3.766.106 7.85-.584 10.47-3.292 3.378-3.491 3.267-9.121 5.915-13.194.213-.369.504-.688.853-.933a2.769 2.769 0 011.451-.334c3.344-.031 6.257 2.138 8.885 4.205 1.178.925 2.385 1.885 3.128 3.185.52 1.015.876 2.105 1.055 3.23 1.304 6.369 1.727 12.88 2.146 19.367.232 3.583.463 7.169.446 10.76-.057 11.829-2.806 23.46-5.54 34.969-.353 1.483-.835 3.141-2.183 3.851a5.388 5.388 0 01-1.905.465c-7.831.92-15.679 1.84-23.563 1.962-3.076.047-6.152-.027-9.226-.224a4.954 4.954 0 01-1.554-.271 4.376 4.376 0 01-1.694-1.438c-4.265-5.374-4.517-12.804-4.489-19.664a791.487 791.487 0 011.798-50.279c.093-1.382.113-3.061-.883-4.149 1.794 2.871 4.288 5.526 6.634 7.978z" fill="#EEF7FF"/><path d="M299.635 446.359c-.706 1.277-5.909 4.45-6.913 5.509-5.613 5.916-15.857 5.694-20.99 12.03-1.806 2.23-2.745 5.031-3.435 7.816-.976 3.939-1.497 8.234.138 11.948 1.573 3.574 4.885 6.045 7.134 9.237 2.469 3.505 3.579 7.761 4.643 11.914.785 3.066 1.577 6.209 1.271 9.359-.348 3.583-2.081 6.863-3.105 10.313-1.023 3.451-1.2 7.561 1.167 10.272 1.738 1.993 4.465 2.782 7.072 3.227a81.4 81.4 0 0010.08.877c2.98.132 6.264.157 8.555-1.753 1.807-1.507 2.593-3.953 2.694-6.304.102-2.351-.387-4.682-.693-7.015-.318-2.419-.44-4.859-.542-7.296a453.803 453.803 0 01-.188-32.832c.07-2.279.154-4.586-.332-6.813-.639-2.929-2.222-5.547-3.543-8.239-2.623-5.342-3.863-10.532-3.457-16.47.4-5.861 2.956-10.326.444-5.78zM328.98 446.804c1.075 1.104 4.728 1.469 6.095 2.18a21.446 21.446 0 004.007 1.388 52.014 52.014 0 0114.077 6.46 8.556 8.556 0 012.354 2.033c.765 1.065 1.042 2.393 1.302 3.677.669 3.317 1.342 6.674 1.192 10.055-.16 3.588-1.241 7.063-2.313 10.491l-4.007 12.809c-2.99 9.561-6 19.216-6.841 29.199a68.654 68.654 0 00.616 16.583c.088.552.162 1.183-.202 1.607-.264.26-.611.42-.981.451-1.934.302-3.805-.684-5.557-1.556a61.539 61.539 0 00-16.964-5.551 39.461 39.461 0 005.269-10.862 65.843 65.843 0 001.592-7.47l1.863-10.779c.759-3.94 1.292-7.92 1.599-11.921a14.912 14.912 0 00-.259-4.49 21.84 21.84 0 00-1.702-4.05c-3.072-6.389-4.513-13.681-3.305-20.666.529-3.057 1.557-6.119 1.128-9.191-.412-2.955.017-5.251-.741-8.174-3.113-12.005-.245-4.302 1.778-2.223z" fill="#0E8AFD"/><path d="M271.679 474.001c-1.401 2.905-3.742 5.381-4.539 8.507a18.54 18.54 0 00-.395 4.446c-.019 2.25-.031 4.545.659 6.686.445 1.378 1.168 2.649 1.69 4.001a14.515 14.515 0 01.95 5.927c-.141 2.799-1.092 5.516-1.166 8.318-.117 4.406 1.921 8.547 3.909 12.481A9.177 9.177 0 01286.124 520c.524-.484.581-1.279.601-1.993.147-5.112.289-10.223.425-15.335.216-7.905.421-15.917-1.398-23.613-.821-3.475-2.099-6.937-4.441-9.632-1.233-1.419-5.42-5.158-7.444-3.568-.91.715-.698 2.662-.842 3.647a15.503 15.503 0 01-1.346 4.495zM358.416 465.627c.662 2.062.702 4.266.715 6.432.027 4.419-.032 8.837-.176 13.254-.073 2.262-.175 4.554-.861 6.71-.452 1.423-1.15 2.756-1.617 4.173-1.399 4.248-.635 8.854-.515 13.325a15.125 15.125 0 01-.366 4.31c-.739 2.771-2.724 5.011-4.109 7.522-1.316 2.385-2.11 5.058-3.682 7.283-1.571 2.225-4.292 3.988-6.929 3.305-1.997-.518-3.417-2.286-4.399-4.101a20.115 20.115 0 01-2.08-13.049c.986-5.426 4.173-10.239 5.322-15.633 1.579-7.406-.82-15.049-.749-22.622a10.962 10.962 0 01.477-3.507c.603-1.729 1.898-3.111 3.094-4.498a56.73 56.73 0 004.158-5.457c.857-1.277 2.02-4.562 3.538-4.835 3.39-.61 7.338 4.769 8.179 7.388z" fill="#0E8AFD"/><path d="M254.09 539.452a20.654 20.654 0 00-5.738-.61 14.335 14.335 0 00-10.46 5.438 14.32 14.32 0 00-2.835 11.444 24.03 24.03 0 002.274 6.212c1.521 3.088 3.346 6.169 6.163 8.148 1.648 1.157 3.555 1.879 5.44 2.589l14.836 5.589c2.182.822 4.365 1.645 6.569 2.407a128.496 128.496 0 0034.314 6.822c3.563.212 7.179.271 10.654-.54.825-.193 1.705-.48 2.182-1.179.283-.493.45-1.043.488-1.61l.913-6.391c.128-.9.252-1.847-.078-2.695-.418-1.074-1.466-1.749-2.466-2.323-9.753-5.602-21.142-8.693-29.352-16.382-1.933-1.81-3.55-4.679-5.898-5.908-2.663-1.395-5.799-2.191-8.552-3.475-6.017-2.809-11.933-6.037-18.454-7.536z" fill="#465C72"/><path opacity=".1" d="M268.901 548.069c5.244 1.643 27.384 13.027 31.179 17.001-.508.184-17.767-9.488-18.285-9.644-4.707-1.412-9.441-2.834-13.911-4.902-.899-.416-5.842-2.371-5.619-3.506.253-1.28 5.706.759 6.636 1.051z" fill="#333"/><path d="M334.323 590.805c.298.022.593-.065.831-.244a1.273 1.273 0 00.26-.957l-.024-8.707c-2.504-1.193-5.305-1.575-8.054-1.943l-12.826-1.714c.294.039-2.006 5.524-1.653 6.257.622 1.29 5.372 2.434 6.713 3.044 4.661 2.118 9.504 4.447 14.753 4.264z" fill="#FBBEBE"/><path d="M294.08 580.867c-2.422.386-5.125.727-6.693 2.612-1.989 2.391-1.142 5.955-.193 8.916.141.599.424 1.156.825 1.623.647.638 1.639.732 2.547.789 2.209.14 4.559.25 6.489-.834a28.4 28.4 0 002.52-1.873 16.17 16.17 0 014.635-2.119 46.876 46.876 0 019.302-1.917 14.49 14.49 0 003.665-.646c1.165-.439 2.243-1.308 2.581-2.506.447-1.582-.473-3.195-1.355-4.583-1.098-1.729-2.262-3.549-3.901-4.821-2.39-1.857-3.572-.432-5.979.756a50.721 50.721 0 01-14.443 4.603z" fill="#FBBEBE"/><path d="M287.751 583.048l-15.377-4.545c-1.87-.552-3.772-1.11-5.722-1.108-1.951.001-3.991.64-5.256 2.125-1.192 1.399-1.533 3.312-1.831 5.126l-.635 3.882c-.324 1.972-.647 3.982-.356 5.96.29 1.977 1.3 3.953 3.054 4.91 2.128 1.161 4.736.594 7.111.108a77.465 77.465 0 0114.572-1.563c1.841-.022 3.771.002 5.398-.86 1.933-1.025 3.09-3.192 3.289-5.371.302-3.315-.803-7.646-4.247-8.664zM340.367 579.088c1.994-.35 3.753-1.483 5.663-2.151 2.689-.941 5.602-.941 8.451-.931 1.046.004 2.159.027 3.03.607 1.254.835 1.576 2.507 1.789 3.999l1.288 9.003c.242 1.694.482 3.432.105 5.101-.378 1.668-1.515 3.277-3.171 3.707-2.011.523-3.982-.762-5.88-1.605-4.746-2.109-10.262-1.57-15.21-3.147-.918-.292-1.901-.74-2.276-1.627a3.717 3.717 0 01-.177-1.556c.085-2.894-.526-6.846.346-9.612.783-2.487 3.817-1.788 6.042-1.788z" fill="#25323F"/><path d="M372.909 535.828a26.703 26.703 0 019.407-.642c2.514.277 5.105.977 6.941 2.717 2.235 2.119 2.953 5.395 3.013 8.474a26.471 26.471 0 01-5.754 16.907 15.325 15.325 0 01-3.29 3.167 21.691 21.691 0 01-4.28 2.063l-33.225 13.104c-8.74 3.448-17.512 6.906-26.629 9.179a2.077 2.077 0 01-2.793-1.013 68.821 68.821 0 01-7.282-13.321.902.902 0 01-.169-.81.897.897 0 01.566-.605l23.5-13.502c1.683-.968 3.386-1.949 4.783-3.296a11.854 11.854 0 002.456-3.419c.487-1.017.533-3.418 1.155-4.17.609-.737 2.693-.795 3.655-1.085a33.188 33.188 0 003.98-1.504c5.257-2.352 9.938-5.769 14.978-8.523a38.435 38.435 0 018.988-3.721z" fill="#465C72"/><path opacity=".1" d="M359.586 545.912c-4.037 3.032-9.265 5.82-13.266 8.932-1.366 1.062-24.132 13.862-24.454 15.562 3.733.629 27.514-16.008 30.916-17.668 3.403-1.66 6.419-4.001 9.408-6.325.761-.592 3.989-2.372 1.803-3.034-1.232-.372-3.497 1.927-4.407 2.533z" fill="#333"/><path d="M337.438 405.162l-17.975-9.416-24.823 3.852-5.137 22.684 12.785-.492 3.572-8.334v8.196l5.899-.227 3.424-13.267 2.14 14.124 20.971-.429-.856-16.691zM333.426 451.694h-38.681v46.685h38.681v-46.685z" fill="#25323F"/><path d="M276.382 532.89c.888 1.326 1.928 2.623 3.355 3.338a6.552 6.552 0 005.768-.154 10.145 10.145 0 004.162-4.174c1.954-3.449 2.359-7.577 2.115-11.534-.244-3.957-1.089-7.854-1.463-11.801-.272-2.869-.294-5.755-.316-8.637a2.876 2.876 0 01.363-1.746c.433-.591 1.225-.754 1.927-.963 3.943-1.171 6.56-4.867 8.436-8.527 1.253-2.444 2.343-5.116 2.101-7.851-.241-2.736-2.208-5.492-4.94-5.771-2.253-.231-4.333 1.2-5.957 2.777a25.545 25.545 0 00-7.48 14.948c-.357 2.782-.255 5.639-1.011 8.34-1.616 5.766-6.67 9.301-9.189 14.489-2.776 5.717-1.244 12.208 2.129 17.266zM350.762 510.862a10.884 10.884 0 01-6.11 5.871 8.441 8.441 0 01-5.313.326 5.89 5.89 0 01-3.891-3.481 9.365 9.365 0 01-.439-2.615c-.253-3.888-.155-7.895 1.257-11.527.545-1.4 1.28-2.729 1.71-4.169.422-1.663.638-3.372.643-5.088l.465-10.609a6.931 6.931 0 00-.158-2.301c-.463-1.535-1.898-2.533-3.214-3.448-3.18-2.211-6.321-4.791-7.862-8.344a5.851 5.851 0 01-.543-3.456c.434-2.107 2.56-3.471 4.662-3.93a10.428 10.428 0 0112.501 8.403c.208 1.197.205 2.42.327 3.629.258 2.565 1.072 5.038 1.582 7.565 1.255 6.224.604 12.658 1.845 18.882 1.038 5.203 4.949 8.598 2.538 14.292z" fill="#FBBEBE"/><path d="M447.889 593.041l-.889-.017a206.207 206.207 0 013.157-29.472c3.845-20.844 10.239-34.533 19.004-40.687l.51.727c-20.475 14.376-21.771 68.9-21.782 69.449zM459.004 592.829l-.889-.018c.019-.985.575-24.193 9.712-30.608l.51.728c-8.768 6.156-9.328 29.661-9.333 29.898z" fill="#465C72"/><path d="M474.73 523.673a4.445 4.445 0 100-8.892 4.447 4.447 0 000 8.892zM472.528 561.91a4.446 4.446 0 100-8.892 4.446 4.446 0 000 8.892z" fill="#FF6584"/><path d="M456.932 526.338c.835 5.337-1.342 10.111-1.342 10.111s-3.533-3.879-4.369-9.217c-.835-5.337 1.343-10.11 1.343-10.11s3.532 3.879 4.368 9.216zM471.465 539.301c-5.11 1.752-10.19.44-10.19.44s3.205-4.155 8.315-5.908c5.11-1.752 10.19-.44 10.19-.44s-3.205 4.155-8.315 5.908zM471.629 573.163a13.849 13.849 0 01-7.142.308 12.618 12.618 0 0112.97-4.449 13.835 13.835 0 01-5.828 4.141z" fill="#465C72"/><path d="M142.76 559.983c5.829 20.987 25.794 33.985 25.794 33.985s10.515-21.029 4.686-42.016c-5.829-20.987-25.794-33.984-25.794-33.984s-10.515 21.028-4.686 42.015z" fill="#8597A8"/><path d="M151.337 555.433C167.077 570.621 169 593.968 169 593.968s-23.597-1.277-39.337-16.465C113.923 562.315 112 538.968 112 538.968s23.597 1.277 39.337 16.465z" fill="#F5F9FE"/></svg>