<svg width="636" height="492" viewBox="0 0 636 492" fill="none" xmlns="http://www.w3.org/2000/svg"><g opacity=".1" fill="#6C63FF"><path opacity=".1" d="M419.69 369.473s2.077-29.106 18.452-44.976a44.205 44.205 0 0 0 13.056-24.73 74.71 74.71 0 0 0 .879-13.57"/><path opacity=".1" d="M462.335 276.135c-1.202 3.215-10.498 10.361-10.498 10.361s-2.346-11.493-1.132-14.708a6.208 6.208 0 1 1 11.63 4.347ZM465.303 297.532c-2.756 2.042-14.44 2.986-14.44 2.986s4.282-10.918 7.038-12.966a6.21 6.21 0 0 1 8.554 1.384 6.218 6.218 0 0 1 1.169 4.529 6.219 6.219 0 0 1-2.321 4.061v.006ZM453.52 327.788c-3.413.375-13.976-4.694-13.976-4.694s9.208-7.263 12.615-7.627a6.205 6.205 0 0 1 6.508 5.517 6.209 6.209 0 0 1-5.147 6.804ZM439.45 348.674c-3.296.945-14.569-2.282-14.569-2.282s7.848-8.712 11.144-9.657a6.207 6.207 0 0 1 6.715 2.018 6.209 6.209 0 0 1 .557 6.991 6.208 6.208 0 0 1-3.847 2.93ZM438.418 296.576c1.466 3.097 11.331 9.428 11.331 9.428s1.361-11.646-.111-14.75a6.212 6.212 0 0 0-11.22 5.322ZM422.271 321.211c2.346 2.517 13.636 5.609 13.636 5.609s-2.188-11.523-4.516-14.045a6.205 6.205 0 0 0-8.762-.328 6.215 6.215 0 0 0-.358 8.764ZM409.866 347.307c1.865 2.875 12.493 7.833 12.493 7.833s-.211-11.734-2.082-14.603a6.208 6.208 0 0 0-8.495-1.677 6.216 6.216 0 0 0-1.916 8.447Z"/><path opacity=".1" d="M462.335 276.135c-1.202 3.215-10.498 10.361-10.498 10.361s-2.346-11.493-1.132-14.708a6.208 6.208 0 1 1 11.63 4.347ZM465.303 297.532c-2.756 2.042-14.44 2.986-14.44 2.986s4.282-10.918 7.038-12.966a6.21 6.21 0 0 1 8.554 1.384 6.218 6.218 0 0 1 1.169 4.529 6.219 6.219 0 0 1-2.321 4.061v.006ZM453.52 327.788c-3.413.375-13.976-4.694-13.976-4.694s9.208-7.263 12.615-7.627a6.205 6.205 0 0 1 6.508 5.517 6.209 6.209 0 0 1-5.147 6.804ZM439.45 348.674c-3.296.945-14.569-2.282-14.569-2.282s7.848-8.712 11.144-9.657a6.207 6.207 0 0 1 6.715 2.018 6.209 6.209 0 0 1 .557 6.991 6.208 6.208 0 0 1-3.847 2.93ZM438.418 296.576c1.466 3.097 11.331 9.428 11.331 9.428s1.361-11.646-.111-14.75a6.212 6.212 0 0 0-11.22 5.322ZM422.271 321.211c2.346 2.517 13.636 5.609 13.636 5.609s-2.188-11.523-4.516-14.045a6.205 6.205 0 0 0-8.762-.328 6.215 6.215 0 0 0-.358 8.764ZM409.866 347.307c1.865 2.875 12.493 7.833 12.493 7.833s-.211-11.734-2.082-14.603a6.208 6.208 0 0 0-8.495-1.677 6.216 6.216 0 0 0-1.916 8.447Z"/></g><g opacity=".1" fill="#6C63FF"><path opacity=".1" d="M425.438 259.303s2.077-29.106 18.452-44.977a44.237 44.237 0 0 0 13.056-24.729 73.735 73.735 0 0 0 .879-13.57"/><path opacity=".1" d="M468.083 165.965c-1.173 3.209-10.492 10.355-10.492 10.355s-2.346-11.493-1.138-14.703a6.21 6.21 0 1 1 11.63 4.348ZM471.069 187.356c-2.751 2.047-14.44 2.986-14.44 2.986s4.282-10.912 7.038-12.96a6.203 6.203 0 0 1 6.991-.465 6.221 6.221 0 0 1 2.879 3.88 6.2 6.2 0 0 1 .097 2.464 6.198 6.198 0 0 1-2.565 4.095ZM459.269 217.618c-3.408.375-13.971-4.694-13.971-4.694s9.208-7.257 12.616-7.627a6.208 6.208 0 0 1 6.222 3.148 6.205 6.205 0 0 1-.622 6.947 6.207 6.207 0 0 1-4.245 2.255v-.029ZM445.198 238.504c-3.296.945-14.569-2.282-14.569-2.282s7.853-8.713 11.144-9.663a6.207 6.207 0 0 1 7.604 4.284 6.211 6.211 0 0 1-4.185 7.661h.006ZM444.166 186.399c1.466 3.104 11.337 9.435 11.337 9.435s1.355-11.652-.111-14.75a6.217 6.217 0 0 0-5.942-3.658 6.215 6.215 0 0 0-5.592 4.172 6.22 6.22 0 0 0 .308 4.801ZM428.019 211.035c2.346 2.523 13.642 5.609 13.642 5.609s-2.193-11.523-4.522-14.04a6.205 6.205 0 0 0-8.667-.231 6.216 6.216 0 0 0-.453 8.662ZM415.614 237.137c1.871 2.875 12.493 7.833 12.493 7.833s-.211-11.734-2.082-14.603a6.216 6.216 0 0 0-6.393-2.879 6.206 6.206 0 0 0-4.053 2.637 6.219 6.219 0 0 0-.936 4.744c.169.814.499 1.585.971 2.268Z"/><path opacity=".1" d="M468.083 165.965c-1.173 3.209-10.492 10.355-10.492 10.355s-2.346-11.493-1.138-14.703a6.21 6.21 0 1 1 11.63 4.348ZM471.069 187.356c-2.751 2.047-14.44 2.986-14.44 2.986s4.282-10.912 7.038-12.96a6.203 6.203 0 0 1 6.991-.465 6.221 6.221 0 0 1 2.879 3.88 6.2 6.2 0 0 1 .097 2.464 6.198 6.198 0 0 1-2.565 4.095ZM459.269 217.618c-3.408.375-13.971-4.694-13.971-4.694s9.208-7.257 12.616-7.627a6.208 6.208 0 0 1 6.222 3.148 6.205 6.205 0 0 1-.622 6.947 6.207 6.207 0 0 1-4.245 2.255v-.029ZM445.198 238.504c-3.296.945-14.569-2.282-14.569-2.282s7.853-8.713 11.144-9.663a6.207 6.207 0 0 1 7.604 4.284 6.211 6.211 0 0 1-4.185 7.661h.006ZM444.166 186.399c1.466 3.104 11.337 9.435 11.337 9.435s1.355-11.652-.111-14.75a6.217 6.217 0 0 0-5.942-3.658 6.215 6.215 0 0 0-5.592 4.172 6.22 6.22 0 0 0 .308 4.801ZM428.019 211.035c2.346 2.523 13.642 5.609 13.642 5.609s-2.193-11.523-4.522-14.04a6.205 6.205 0 0 0-8.667-.231 6.216 6.216 0 0 0-.453 8.662ZM415.614 237.137c1.871 2.875 12.493 7.833 12.493 7.833s-.211-11.734-2.082-14.603a6.216 6.216 0 0 0-6.393-2.879 6.206 6.206 0 0 0-4.053 2.637 6.219 6.219 0 0 0-.936 4.744c.169.814.499 1.585.971 2.268Z"/></g><g opacity=".1"><path opacity=".1" d="M114.301 297.438s-25.05-14.937-31.87-36.692a44.152 44.152 0 0 0-16.212-22.781 73.873 73.873 0 0 0-11.73-6.888" fill="#6C63FF"/><path opacity=".1" d="M50.12 217.371c2.345 2.517 4.533 14.04 4.533 14.04s-11.314-3.08-13.642-5.597a6.215 6.215 0 0 1 4.821-10.307 6.21 6.21 0 0 1 4.287 1.864ZM70.559 224.371c.586 3.379-3.824 14.245-3.824 14.245s-7.824-8.736-8.41-12.115a6.216 6.216 0 0 1 5.025-7.338 6.21 6.21 0 0 1 7.208 5.208ZM92.284 248.472c-1.173 3.216-10.493 10.367-10.493 10.367s-2.346-11.493-1.144-14.702a6.218 6.218 0 0 1 3.218-3.61 6.206 6.206 0 0 1 8.346 3.11 6.213 6.213 0 0 1 .073 4.835ZM104.606 270.433c-.634 3.373-8.587 12.021-8.587 12.021s-4.252-10.93-3.613-14.298a6.21 6.21 0 0 1 9.499-4.043 6.201 6.201 0 0 1 2.701 6.349v-.029ZM57.621 247.933c3.425.082 13.52-5.867 13.52-5.867s-9.796-6.454-13.227-6.536a6.208 6.208 0 0 0-6.234 6.066 6.215 6.215 0 0 0 5.941 6.354v-.017ZM72.36 273.436c3.296-.95 11.144-9.668 11.144-9.668s-11.273-3.221-14.57-2.271a6.212 6.212 0 0 0-4.113 7.646 6.208 6.208 0 0 0 7.545 4.293h-.006ZM90.084 296.253c3.414-.376 12.616-7.627 12.616-7.627s-10.557-5.081-13.977-4.694a6.212 6.212 0 0 0-5.594 4.385 6.207 6.207 0 0 0 6.955 7.936Z" fill="#6C63FF"/><path opacity=".1" d="M50.12 217.371c2.345 2.517 4.533 14.04 4.533 14.04s-11.314-3.08-13.642-5.597a6.215 6.215 0 0 1 4.821-10.307 6.21 6.21 0 0 1 4.287 1.864ZM70.559 224.371c.586 3.379-3.824 14.245-3.824 14.245s-7.824-8.736-8.41-12.115a6.216 6.216 0 0 1 5.025-7.338 6.21 6.21 0 0 1 7.208 5.208ZM92.284 248.472c-1.173 3.216-10.493 10.367-10.493 10.367s-2.346-11.493-1.144-14.702a6.218 6.218 0 0 1 3.218-3.61 6.206 6.206 0 0 1 8.346 3.11 6.213 6.213 0 0 1 .073 4.835ZM104.606 270.433c-.634 3.373-8.587 12.021-8.587 12.021s-4.252-10.93-3.613-14.298a6.21 6.21 0 0 1 9.499-4.043 6.201 6.201 0 0 1 2.701 6.349v-.029Z" fill="#6C63FF"/><path d="M57.621 247.933c3.425.082 13.52-5.867 13.52-5.867s-9.796-6.454-13.227-6.536a6.208 6.208 0 0 0-6.234 6.066 6.215 6.215 0 0 0 5.941 6.354v-.017Z" fill="#EEF7FF"/><path opacity=".1" d="M72.36 273.436c3.296-.95 11.144-9.668 11.144-9.668s-11.273-3.221-14.57-2.271a6.212 6.212 0 0 0-4.113 7.646 6.208 6.208 0 0 0 7.545 4.293h-.006ZM90.084 296.253c3.414-.376 12.616-7.627 12.616-7.627s-10.557-5.081-13.977-4.694a6.212 6.212 0 0 0-5.594 4.385 6.207 6.207 0 0 0 6.955 7.936Z" fill="#6C63FF"/></g><path d="M421.183 473.204c16.824 7.43 37.352 2.909 56.444 3.432 2.608.072 5.38.292 7.472 1.577 2.092 1.284 3.129 3.361 4.565 5.145 5.35 6.627 16.314 8.756 25.896 7.632 9.581-1.124 18.365-4.848 27.408-7.68 15.628-4.901 33.49-7.138 48.908-1.784 1.412.488 2.93 1.053 4.419.857 3.381-.435 4.389-3.992 6.75-6.02 4.267-3.671 13.537-2.671 15.412-7.508 1.096-2.831-1.429-5.734-4.184-7.667-10.548-7.4-25.608-8.62-39.397-7.478-13.789 1.143-27.343 4.289-41.203 4.301-17.269 0-33.953-4.83-51.053-6.811-11.843-1.368-24.771-1.19-35.876 2.838-12.036 4.354-14.685 14.163-25.561 19.166ZM102.255 450.27c28.758 8.23 63.854 3.22 96.486 3.803 4.466.082 9.197.321 12.783 1.75 3.586 1.429 5.346 3.733 7.806 5.704 9.144 7.343 27.883 9.705 44.258 8.457 16.374-1.248 31.399-5.371 46.858-8.509 26.716-5.43 57.258-7.903 83.61-1.983 2.418.542 4.965 1.166 7.559.95 5.775-.484 7.495-4.421 11.539-6.672 7.295-4.083 23.135-2.957 26.34-8.312 1.878-3.137-2.442-6.357-7.149-8.498-18.006-8.194-43.771-9.547-67.347-8.282-23.575 1.266-46.746 4.748-70.428 4.765-29.521 0-58.044-5.348-87.278-7.547-20.248-1.516-42.345-1.33-61.331 3.15-20.582 4.835-25.119 15.701-43.706 21.224ZM14.476 470.736c8.196 4.812 18.148 1.886 27.433 2.223 1.27.046 2.617.189 3.636 1.017 1.018.829 1.522 2.184 2.218 3.338 2.6 4.293 7.927 5.676 12.581 4.944 4.655-.731 8.928-3.138 13.325-4.978 7.61-3.172 16.28-4.618 23.769-1.143.641.4 1.393.6 2.154.571 1.639-.285 2.131-2.589 3.278-3.903 2.073-2.378 6.581-1.715 7.488-4.864.533-1.835-.697-3.715-2.031-4.967-5.117-4.795-12.447-5.584-19.15-4.847-6.703.737-13.29 2.738-20.028 2.738-8.389 0-16.497-3.126-24.81-4.412-5.76-.892-12.043-.778-17.44 1.84-5.849 2.858-7.137 9.213-12.423 12.443Z" fill="#282D3B"/><path opacity=".1" d="M409.363 21.01H136.146a25.084 25.084 0 0 0-9.58 1.883 25.023 25.023 0 0 0-8.127 5.396 24.93 24.93 0 0 0-5.437 8.086 24.89 24.89 0 0 0-1.919 9.545V423.33a24.908 24.908 0 0 0 7.362 17.62 25.057 25.057 0 0 0 17.701 7.274h273.217a25.097 25.097 0 0 0 9.58-1.884 25.04 25.04 0 0 0 8.127-5.396 24.945 24.945 0 0 0 5.437-8.086 24.87 24.87 0 0 0 1.918-9.545V45.92a24.87 24.87 0 0 0-1.918-9.545 24.946 24.946 0 0 0-5.437-8.086 25.034 25.034 0 0 0-8.127-5.396 25.088 25.088 0 0 0-9.58-1.884Z" fill="#25323F"/><path d="M418.291 26.529H127.217c-6.473 0-11.72 5.25-11.72 11.728v394.926c0 6.477 5.247 11.728 11.72 11.728h291.074c6.473 0 11.72-5.251 11.72-11.728V38.257c0-6.477-5.247-11.728-11.72-11.728Z" fill="#25323F"/><path d="M414.561 65.165H130.947V405.17h283.614V65.165Z" fill="#1F232E"/><path fill-rule="evenodd" clip-rule="evenodd" d="M146.673 241.751h2.115v123.777h247.473v2.115H146.673V241.751Z" fill="#568DC4"/><path opacity=".5" d="M185.803 328.5h-21.151v32.796h21.151V328.5Z" fill="#568DC4"/><path d="M234.452 299.937h-22.21v61.359h22.21v-61.359Z" fill="#60A7E9"/><path opacity=".5" d="M283.1 316.864h-22.209v44.432H283.1v-44.432Z" fill="#568DC4"/><path d="M331.749 289.358h-22.21v71.938h22.21v-71.938Z" fill="#60A7E9"/><path d="M380.397 263.968h-22.209v97.328h22.209v-97.328Z" fill="#568DC4"/><path fill-rule="evenodd" clip-rule="evenodd" d="m320.553 265.527 48.211-15.408-.67-2.02-48.607 15.534-47.139 38.596-48.353-32.134-49.825 34.452 1.245 1.737 48.604-33.607 48.465 32.208 48.069-39.358Z" fill="#568DC4"/><path d="M175.227 309.458a4.231 4.231 0 1 0-.001-8.463 4.231 4.231 0 0 0 .001 8.463ZM270.938 306.284a3.702 3.702 0 1 0-.002-7.406 3.702 3.702 0 0 0 .002 7.406Z" fill="#0E8AFD"/><path d="M320.115 268.199a4.23 4.23 0 0 0 4.23-4.231 4.23 4.23 0 1 0-4.23 4.231ZM222.818 276.663a4.23 4.23 0 0 0 4.23-4.232 4.23 4.23 0 1 0-8.46 0 4.231 4.231 0 0 0 4.23 4.232Z" fill="#FF6584"/><path d="M368.764 252.331a4.231 4.231 0 0 0 4.23-4.232 4.231 4.231 0 1 0-4.23 4.232Z" fill="#0E8AFD"/><path d="M271.995 49.757a3.702 3.702 0 1 0 0-7.404 3.702 3.702 0 0 0 0 7.404ZM271.651 436.08c6.399 0 11.587-5.19 11.587-11.591 0-6.402-5.188-11.591-11.587-11.591-6.4 0-11.588 5.189-11.588 11.591 0 6.401 5.188 11.591 11.588 11.591Z" fill="#465C72"/><path d="M394.145 202.097H147.73v-59.39l22.599 17.618 23.389 5.019 20.522-9.788 24.759-30.371 12.453-11.375 9.104-2.774 8.71.737 14.323 11.193 19.474 19.62 15.282 3.104 12.114-6.607 25.685-33.267 13.111-7.395 13.72 3.355 11.17 10.205v90.116Z" fill="#F5F9FE" opacity=".2"/><path d="M190.814 166.124c-22.259 0-42.825-21.651-43.084-21.931l.616-1.451c.319.341 31.973 33.648 58.872 16.964 9.808-6.121 16.789-15.548 23.546-24.703 7.053-9.558 13.71-18.582 22.792-22.5 10.412-4.486 21.792-.428 30.439 10.878 7.394 9.663 22.117 25.176 37.669 20.541 7.927-2.37 14.606-11.578 21.682-21.328 13.562-18.695 27.591-38.03 51.857-10.292l-.643 1.417c-23.562-26.933-37.251-8.054-50.494 10.196-7.191 9.907-13.98 19.238-22.199 21.721-15.997 4.774-31.027-11.053-38.57-20.908-8.372-10.939-19.378-14.866-29.455-10.537-8.84 3.812-15.393 12.714-22.369 22.141-6.823 9.252-13.876 18.809-23.854 25-5.365 3.251-11.065 4.876-16.805 4.792Z" fill="#568DC4"/><path d="M263.006 116.405a5.288 5.288 0 0 0 5.288-5.289 5.289 5.289 0 1 0-5.288 5.289Z" fill="#FF6584"/><path d="M568.926 411.797c-3.184-1.049-7.906-2.261-11.649-1.833-3.565-1.298-11.944-4.661-17.668-9.726a127.63 127.63 0 0 0-.38-14.932c-2.928-33.303 3.658-55.257 3.658-55.257s5.172-16.749 4.605-30.647c.334.63.52 1.003.52 1.003.451-11.987 4.535-24.394 7.595-32.123.117-.034.231-.075.342-.124l3.417-8.111c.272-.473.489-.976.645-1.499l.551-1.282-.163-.07c.054-.21.109-.435.163-.66 2.182-9.237 3.883-31.144 3.883-31.144 5.856-23.057-8.046-37.289-8.046-37.289l-23.593-20.307c.118.265.196.545.233.832l-.194-.171a51.694 51.694 0 0 1-1.056-3.403 18.023 18.023 0 0 0 2.33-1.996 18.134 18.134 0 0 0 5.288-9.439 35.8 35.8 0 0 0 .35-8.546l-.388-9.796a31.11 31.11 0 0 0-.583-5.71c-1.778-7.768-9.738-13.206-17.73-13.563a64.708 64.708 0 0 0-7.61.404 51.324 51.324 0 0 1-6.213.132 1.12 1.12 0 0 1-.668-.179.976.976 0 0 1-.287-.676 3.38 3.38 0 0 1 .823-2.525 3.09 3.09 0 0 1 1.072-.613l-.567.132c.279-.221.594-.391.931-.505a18.076 18.076 0 0 0-5.886 2.136c-.502.33-.964.719-1.375 1.158a6.003 6.003 0 0 0-1.988 3.697 6.877 6.877 0 0 1-2.097-3.107 3.123 3.123 0 0 1 0-1.507c-.139.171-.274.347-.403.528v-.163a15.715 15.715 0 0 0-3.107 6.324 2.467 2.467 0 0 1-.559-1.818c-.117.365-.225.73-.326 1.095a2.55 2.55 0 0 1 0-.73 25.014 25.014 0 0 0-1.219 8.685c0 2.937 1.304 7.512 4.449 8.545.164.055.327.094.497.133a19.766 19.766 0 0 0-1.46 18.672 19.746 19.746 0 0 0 14.779 11.5c.052.358.101.733.148 1.127h.124c.085.777.155 1.631.202 2.501a16.812 16.812 0 0 1-2.594 2.082 21.366 21.366 0 0 1-8.636 2.859 25.705 25.705 0 0 0-10.383 3.107c-3.766 2.106-7.921 5.174-9.226 8.903-2.174 6.215-14.15 15.887-22.18 17.091l-2.858-.163-.209-.062v.054l-.699-.039h-.225v.039l-.723-.039s-.069.334-.17.925c-4.039-1.391-12.62-5.244-23.788-15.382-12.425-11.288-29.239-9.066-35.723-7.644a1.108 1.108 0 0 0-.755 1.581c.101.202.261.369.46.477 2.617 1.438 6.671 3.527 8.542 3.76 0 0-3.883 4.063.249 6.215a2.995 2.995 0 0 0 3.106-.303c2.004-1.468 7.572 1.857 15.641 3.589 0 0 22.77 23.57 34.077 27.19.261.515.548 1.015.862 1.499l.699-.054v.054h.295l.086.777s17.582-.924 23.298-7.31a9.12 9.12 0 0 0 1.11-1.189l-6.112 76.909h.055l-.055.73h4.497a169.597 169.597 0 0 1-1.219 28.324v50.138s-.233 4.412 8.93 10.876a342.642 342.642 0 0 1 27.741 21.51l1.11.964c-1.685 15.343-5.211 43.938-8.154 45.003l1.817.318c-3.106 3.939-11.929 14.76-14.616 15.048-3.292.365-5.49 5.492 0 6.587a61.492 61.492 0 0 0 32.618-3.216 4.974 4.974 0 0 0 3.106-5.298l-1.064-8.079c.202.112.364.283.466.489.73 2.199 0-2.928 0-2.928a228.983 228.983 0 0 0 7.075-29.521l10.872 9.4s.218-.272.598-.777c2.664 6.044 7.417 18.412 6.353 27.47-1.46 12.429 12.426 1.46 10.973-5.858-1.18-5.919 4.101-31.011 6.159-40.396a4.177 4.177 0 0 0-2.796-4.863Z" fill="url(#paint0_linear)"/><path d="M453.842 207.387s-9.887-1.708-24.547-15.032c-11.6-10.54-27.246-8.468-33.279-7.138a1.024 1.024 0 0 0-.802.862 1.028 1.028 0 0 0 .527 1.054c2.439 1.337 6.219 3.29 7.99 3.513 0 0-3.654 3.788.23 5.816a2.786 2.786 0 0 0 2.92-.282c1.868-1.367 7.056 1.738 14.579 3.349 0 0 29.321 30.408 36.14 25.253l-3.758-17.395ZM508.196 165.543s2.858 12.15 0 20.727l12.86 1.787 11.432-5.718v-7.504s-5.359-11.436-3.93-24.658l-20.362 15.366Z" fill="#FBBEBE"/><path d="M544.611 428.896s9.319 18.225 7.859 30.374c-1.46 12.15 12.146 1.43 10.717-5.717-1.157-5.78 4-30.297 6.011-39.418a4.07 4.07 0 0 0-2.702-4.746c-4.295-1.414-11.486-3.146-15.097-.497-5.336 3.923-6.788 20.004-6.788 20.004ZM509.268 448.907s-12.146 15.724-15.361 16.081c-3.215.357-5.358 5.36 0 6.432a60.046 60.046 0 0 0 31.841-3.107 4.863 4.863 0 0 0 3.052-5.174l-2.05-15.304-17.482 1.072Z" fill="#25323F"/><path d="m489.262 282.032-11.649 1.554a170.625 170.625 0 0 1-.139 40.963v48.942s-.226 4.311 8.721 10.58a334.685 334.685 0 0 1 27.088 20.975l32.415 28.091s12.861-15.723 11.074-25.014c0 0-21.434-6.79-24.292-17.868-1.638-6.339-9.948-11.653-16.751-14.993a20.842 20.842 0 0 1-11.144-23.647 18.218 18.218 0 0 1 1.825-4.592c5.716-10.005 13.932-32.519 13.932-32.519l-15.718-29.97-15.362-2.502Z" fill="#568DC4"/><path opacity=".2" d="m489.262 282.032-11.649 1.554a170.625 170.625 0 0 1-.139 40.963v48.942s-.226 4.311 8.721 10.58a334.685 334.685 0 0 1 27.088 20.975l32.415 28.091s12.861-15.723 11.074-25.014c0 0-21.434-6.79-24.292-17.868-1.638-6.339-9.948-11.653-16.751-14.993a20.842 20.842 0 0 1-11.144-23.647 18.218 18.218 0 0 1 1.825-4.592c5.716-10.005 13.932-32.519 13.932-32.519l-15.718-29.97-15.362-2.502Z" fill="#25323F"/><path d="M506.411 450.003s21.077 3.573 21.791 5.717c.715 2.144 0-2.859 0-2.859s12.146-36.807 9.319-69.318c-2.826-32.511 3.573-53.96 3.573-53.96s7.502-24.3 3.215-38.236c-4.287-13.937-49.299-7.862-49.299-7.862s15.719 36.807 15.362 54.317c0 0 1.786 52.888 5.001 58.963-.031-.031-5.033 51.785-8.962 53.238Z" fill="#568DC4"/><path d="M508.888 174.835s2.143 13.206 23.578 7.504l-14.259 108.627s-41.439 1.429-41.082-3.574l8.543-65.744 23.22-46.813Z" fill="#fff"/><path opacity=".1" d="M509.446 174.12a17.405 17.405 0 0 1-10.321 4.902 25.09 25.09 0 0 0-10.142 3.014c-3.674 2.059-7.766 5.05-9.009 8.693-2.5 7.147-18.219 18.94-25.364 16.438l2.501 21.441s20.363-1.072 23.935-8.934l-6.065 76.512h5.358s2.858-20.726 5.001-25.014c2.144-4.288 6.431-27.874 6.788-33.591.357-5.718 5.716-38.594 10.36-44.281l6.989-16.974-.031-2.206Z" fill="#000"/><path opacity=".1" d="M509.446 175.192a22.1 22.1 0 0 1-11.035 4.544 25.117 25.117 0 0 0-10.135 3.03c-3.673 2.059-7.766 5.05-9.009 8.693-2.5 7.147-18.219 18.94-25.363 16.438l2.5 21.441s20.363-1.072 23.935-8.933l-6.073 76.465h5.359s2.857-20.726 5.001-25.015c2.143-4.288 6.43-27.873 6.787-33.591.358-5.717 5.716-38.594 10.36-44.28l7.673-16.656v-2.136Z" fill="#000"/><path d="M509.446 174.477a22.11 22.11 0 0 1-11.035 4.545 25.094 25.094 0 0 0-10.143 3.014c-3.673 2.059-7.766 5.049-9.008 8.693-2.501 7.147-18.219 18.939-25.364 16.438l2.501 21.441s20.362-1.072 23.934-8.934l-6.065 76.512h5.359s2.858-20.726 5.001-25.014c2.144-4.289 6.43-27.874 6.788-33.591.357-5.718 5.715-38.594 10.359-44.281l7.681-16.617-.008-2.206Z" fill="#FF6584"/><path opacity=".1" d="M527.665 160.719c-.466-3.387.466-5.5.893-9.47l-20.362 15.367s.489 2.074.862 5.111c1.027.166 2.066.249 3.106.249 7.067 0 12.154-5.524 15.501-11.257Z" fill="#000"/><path d="M512.126 170.911c10.654 0 19.291-8.639 19.291-19.297 0-10.657-8.637-19.296-19.291-19.296s-19.291 8.639-19.291 19.296c0 10.658 8.637 19.297 19.291 19.297Z" fill="#FBBEBE"/><path opacity=".1" d="M491.072 132.698c-.124-3.254.404-6.5 1.553-9.547a2.386 2.386 0 0 0 .404 3.107 15.292 15.292 0 0 1 4.846-8.592c-1.374.226-2.081 1.927-1.739 3.279a7.457 7.457 0 0 0 2.384 3.356c-.117-2.044 1.235-3.955 2.943-5.073a17.64 17.64 0 0 1 5.747-2.082 3.334 3.334 0 0 0-2.206 3.418.952.952 0 0 0 .288.66c.194.124.422.184.652.171 2.012.078 4.027.034 6.034-.132a63.204 63.204 0 0 1 7.432-.396c7.766.326 15.571 5.632 17.311 13.206.36 1.838.55 3.705.567 5.578l.38 9.563a34.97 34.97 0 0 1-.342 8.359 17.697 17.697 0 0 1-9.094 12.026c-2.803-4.063-3.052-9.284-4.022-14.123a7.165 7.165 0 0 0-1.212-3.108 2.723 2.723 0 0 0-2.99-1.01c-1.048.42-1.499 2.02-.629 2.735-.776.916-2.229.233-3.106-.583a16.682 16.682 0 0 1-4.838-8.646c-.35-1.663-.699-3.714-2.33-4.281a4.324 4.324 0 0 0-1.724-.116c-3.402.233-8.721 1.639-12.014.559-3.021-.986-4.295-5.461-4.295-8.328Z" fill="#000"/><path d="M491.43 132.341a24.427 24.427 0 0 1 1.553-9.548 2.39 2.39 0 0 0 .404 3.108 15.289 15.289 0 0 1 4.846-8.592c-1.374.225-2.081 1.926-1.739 3.278a7.457 7.457 0 0 0 2.384 3.356c-.117-2.043 1.235-3.954 2.943-5.073a17.662 17.662 0 0 1 5.747-2.082 3.336 3.336 0 0 0-2.206 3.418c.006.25.109.487.288.661.194.124.422.184.652.171a50.21 50.21 0 0 0 6.034-.132 63.421 63.421 0 0 1 7.432-.397c7.766.327 15.571 5.633 17.311 13.207.36 1.838.55 3.705.567 5.578l.38 9.563a34.97 34.97 0 0 1-.342 8.359 17.703 17.703 0 0 1-9.094 12.025c-2.803-4.063-3.052-9.283-4.022-14.123a7.156 7.156 0 0 0-1.212-3.107 2.723 2.723 0 0 0-2.99-1.01c-1.048.419-1.499 2.02-.629 2.734-.776.917-2.229.233-3.106-.582a16.685 16.685 0 0 1-4.838-8.647c-.35-1.662-.699-3.713-2.33-4.28a4.343 4.343 0 0 0-1.724-.117c-3.402.233-8.722 1.64-12.014.56-3.021-.995-4.295-5.462-4.295-8.328Z" fill="#25323F"/><path opacity=".1" d="m530.524 171.113 23.042 19.833s13.575 13.937 7.859 36.45c0 0-2.5 32.876-5.358 34.306 0 0-10.003 20.012-10.717 38.951 0 0-13.397-26.98-19.47-10.542-6.073 16.438-20.191 18.761-20.191 18.761l7.859-97.23s19.834-34.485 16.976-40.529Z" fill="#000"/><path d="m531.239 171.113 23.041 19.833s13.575 13.937 7.86 36.45c0 0-2.501 32.876-5.359 34.306 0 0-10.002 20.012-10.717 38.951 0 0-14.111-28.409-20.192-11.971-6.08 16.438-19.469 20.198-19.469 20.198l7.859-97.192s19.835-34.531 16.977-40.575Z" fill="#FF6584"/><path d="M541.776 254.881s5.716-3.931 15.004 6.79l-22.863 41.453-7.68-11.599s16.254-31.998 15.539-36.644Z" fill="#FBBEBE"/><path opacity=".1" d="M536.24 257.204s12.643 14.201 17.574 11.925l4.567-10.635-17.14-7.365-5.001 6.075Z" fill="#000"/><path d="M536.24 256.489s12.643 14.201 17.574 11.925l4.567-10.635-17.14-7.365-5.001 6.075Z" fill="#FD6F8D"/><path opacity=".1" d="M527.014 288.814s6.018 12.336 9.226 13.051l-4.66 5.36-6.787-12.864 2.221-5.547Z" fill="#000"/><path d="M526.656 289.195s6.019 12.336 9.226 13.051l-4.659 5.36-6.803-12.888 2.236-5.523Z" fill="#568DC4"/><path opacity=".1" d="M538.025 212.892s.715 25.73-2.143 35.378l2.143-35.378ZM480.153 217.895s4.287-1.429 4.287-5.003l-4.287 5.003Z" fill="#000"/><path d="m62.882 468.255-1.014-.524c13.18-25.468 6.131-58.541-2.101-81.801a250.64 250.64 0 0 0-21.286-44.9l.966-.61a251.94 251.94 0 0 1 21.396 45.129c8.309 23.473 15.406 56.876 2.04 82.706ZM72.656 340.625l-7.408 40.522 1.123.206 7.409-40.523-1.124-.205ZM23.394 375.149l-.836.778 38.256 41.091.837-.778-38.257-41.091ZM92.17 420.286l-19.405 26.83.926.669 19.404-26.83-.925-.669Z" fill="#8597A8"/><path d="M76.078 329.881a5.708 5.708 0 0 0 5.71-5.707 5.708 5.708 0 0 0-5.71-5.707 5.708 5.708 0 0 0-5.71 5.707 5.708 5.708 0 0 0 5.71 5.707ZM13.84 373.826a5.708 5.708 0 0 0 5.71-5.707 5.708 5.708 0 0 0-5.71-5.707 5.708 5.708 0 0 0-5.71 5.707 5.708 5.708 0 0 0 5.71 5.707ZM38.964 379.533a5.708 5.708 0 0 0 5.71-5.707 5.708 5.708 0 0 0-5.71-5.707 5.708 5.708 0 0 0-5.71 5.707 5.708 5.708 0 0 0 5.71 5.707ZM27.544 401.791a5.708 5.708 0 0 0 5.71-5.707 5.708 5.708 0 0 0-5.71-5.707 5.708 5.708 0 0 0-5.71 5.707 5.708 5.708 0 0 0 5.71 5.707ZM98.918 416.058a5.708 5.708 0 1 0 0-11.414 5.708 5.708 0 0 0-5.71 5.707 5.708 5.708 0 0 0 5.71 5.707ZM80.076 422.336a5.708 5.708 0 0 0 5.71-5.707 5.708 5.708 0 0 0-5.71-5.707 5.708 5.708 0 0 0-5.71 5.707 5.708 5.708 0 0 0 5.71 5.707ZM93.208 440.599a5.71 5.71 0 0 0 5.71-5.707 5.71 5.71 0 0 0-5.71-5.708 5.71 5.71 0 0 0-5.71 5.708 5.709 5.709 0 0 0 5.71 5.707ZM33.254 336.73a5.708 5.708 0 0 0 5.71-5.707 5.708 5.708 0 0 0-5.71-5.707 5.708 5.708 0 0 0-5.71 5.707 5.708 5.708 0 0 0 5.71 5.707Z" fill="#568DC4"/><defs><linearGradient id="paint0_linear" x1="158305" y1="234510" x2="158305" y2="63855.6" gradientUnits="userSpaceOnUse"><stop stop-color="gray" stop-opacity=".25"/><stop offset=".54" stop-color="gray" stop-opacity=".12"/><stop offset="1" stop-color="gray" stop-opacity=".1"/></linearGradient></defs></svg>