<svg width="660" height="777" viewBox="0 0 660 777" fill="none" xmlns="http://www.w3.org/2000/svg">
<path d="M160.112 156.361C140.819 155.651 120.665 155.151 103.221 163.421C85.7757 171.691 72.2882 191.727 78.1383 210.148C80.0477 216.153 83.7664 221.387 86.9024 226.854C102.582 254.194 103.309 289.532 88.7729 317.5C77.5833 339.029 58.6176 355.413 44.9636 375.471C31.3097 395.53 23.5502 423.33 36.9822 443.539C46.1792 457.375 63.2466 464.108 79.7812 465.739C96.3159 467.371 112.945 464.801 129.552 464.141C161.867 462.899 194.045 468.984 223.675 481.94C264.465 499.823 299.605 530.416 342.553 542.221C347.71 543.636 353.099 544.78 358.372 543.819C367.724 542.115 374.524 534.384 381.845 528.279C405.217 508.925 437.576 505.312 467.915 504.413C498.253 503.514 529.851 504.208 557.276 491.181C581.22 479.809 599.653 458.652 611.115 434.753C622.576 410.854 627.555 384.296 629.431 357.849C630.541 342.109 630.502 325.858 624.869 311.122C618.536 294.555 605.692 281.362 592.221 269.829C578.145 257.774 562.804 246.851 545.426 240.346C524.667 232.576 502.133 231.466 480.031 229.623C434.709 225.838 389.74 218.617 345.512 208.022C303.534 197.987 257.444 187.026 219.213 166.585C200.025 156.322 181.742 157.138 160.112 156.361Z" fill="#38495B"/>
<g opacity="0.1">
<path opacity="0.1" d="M426.154 505.213C426.154 505.213 428.117 477.7 443.601 462.699C450.138 456.449 454.47 448.246 455.946 439.324C456.613 435.082 456.891 430.788 456.778 426.496" fill="#6C63FF"/>
<path opacity="0.1" d="M466.478 416.985C465.341 420.024 456.551 426.779 456.551 426.779C456.551 426.779 454.332 415.915 455.48 412.876C456.025 411.418 457.127 410.235 458.544 409.59C459.96 408.944 461.575 408.887 463.034 409.432C464.492 409.977 465.674 411.079 466.32 412.495C466.966 413.912 467.023 415.527 466.478 416.985Z" fill="#6C63FF"/>
<path opacity="0.1" d="M469.284 437.211C466.677 439.141 455.63 440.034 455.63 440.034C455.63 440.034 459.678 429.713 462.285 427.777C463.538 426.899 465.084 426.544 466.595 426.788C468.105 427.033 469.461 427.857 470.373 429.085C471.285 430.314 471.681 431.85 471.478 433.366C471.274 434.883 470.487 436.26 469.284 437.205V437.211Z" fill="#6C63FF"/>
<path opacity="0.1" d="M458.142 465.81C454.914 466.165 444.927 461.374 444.927 461.374C444.927 461.374 453.633 454.508 456.856 454.164C458.353 454.082 459.826 454.576 460.97 455.546C462.115 456.516 462.844 457.887 463.009 459.378C463.174 460.869 462.761 462.367 461.856 463.563C460.951 464.759 459.622 465.564 458.142 465.81Z" fill="#6C63FF"/>
<path opacity="0.1" d="M444.838 485.553C441.721 486.446 431.062 483.396 431.062 483.396C431.062 483.396 438.483 475.16 441.599 474.268C442.348 474.029 443.136 473.944 443.918 474.016C444.7 474.088 445.46 474.316 446.152 474.687C446.845 475.058 447.456 475.564 447.949 476.175C448.442 476.786 448.808 477.489 449.025 478.244C449.241 478.999 449.304 479.79 449.21 480.569C449.116 481.349 448.866 482.102 448.476 482.783C448.086 483.465 447.562 484.061 446.938 484.537C446.313 485.013 445.599 485.358 444.838 485.553Z" fill="#6C63FF"/>
<path opacity="0.1" d="M443.862 436.307C445.249 439.235 454.577 445.219 454.577 445.219C454.577 445.219 455.863 434.21 454.471 431.277C453.777 429.915 452.58 428.878 451.133 428.385C449.686 427.892 448.104 427.983 446.723 428.638C445.342 429.292 444.271 430.46 443.737 431.892C443.202 433.324 443.248 434.908 443.862 436.307Z" fill="#6C63FF"/>
<path opacity="0.1" d="M428.594 459.593C430.812 461.973 441.488 464.895 441.488 464.895C441.488 464.895 439.42 454.003 437.218 451.619C436.159 450.481 434.692 449.81 433.139 449.752C431.586 449.694 430.074 450.254 428.933 451.309C427.792 452.364 427.115 453.829 427.052 455.381C426.988 456.934 427.543 458.449 428.594 459.593Z" fill="#6C63FF"/>
<path opacity="0.1" d="M416.865 484.261C418.629 486.978 428.677 491.665 428.677 491.665C428.677 491.665 428.478 480.573 426.709 477.861C425.839 476.603 424.514 475.734 423.014 475.438C421.514 475.142 419.958 475.443 418.676 476.276C417.394 477.11 416.488 478.41 416.15 479.901C415.812 481.392 416.068 482.956 416.865 484.261Z" fill="#6C63FF"/>
<path opacity="0.1" d="M466.478 416.985C465.341 420.024 456.551 426.779 456.551 426.779C456.551 426.779 454.332 415.915 455.48 412.876C456.025 411.418 457.127 410.235 458.544 409.59C459.96 408.944 461.575 408.887 463.034 409.432C464.492 409.977 465.674 411.079 466.32 412.495C466.966 413.912 467.023 415.527 466.478 416.985Z" fill="#6C63FF"/>
<path opacity="0.1" d="M469.284 437.211C466.677 439.141 455.63 440.034 455.63 440.034C455.63 440.034 459.678 429.713 462.285 427.777C463.538 426.899 465.084 426.544 466.595 426.788C468.105 427.033 469.461 427.857 470.373 429.085C471.285 430.314 471.681 431.85 471.478 433.366C471.274 434.883 470.487 436.26 469.284 437.205V437.211Z" fill="#6C63FF"/>
<path opacity="0.1" d="M458.142 465.81C454.914 466.165 444.927 461.374 444.927 461.374C444.927 461.374 453.633 454.508 456.856 454.164C458.353 454.082 459.826 454.576 460.97 455.546C462.115 456.516 462.844 457.887 463.009 459.378C463.174 460.869 462.761 462.367 461.856 463.563C460.951 464.759 459.622 465.564 458.142 465.81Z" fill="#6C63FF"/>
<path opacity="0.1" d="M444.838 485.553C441.721 486.446 431.062 483.396 431.062 483.396C431.062 483.396 438.483 475.16 441.599 474.268C442.348 474.029 443.136 473.944 443.918 474.016C444.7 474.088 445.46 474.316 446.152 474.687C446.845 475.058 447.456 475.564 447.949 476.175C448.442 476.786 448.808 477.489 449.025 478.244C449.241 478.999 449.304 479.79 449.21 480.569C449.116 481.349 448.866 482.102 448.476 482.783C448.086 483.465 447.562 484.061 446.938 484.537C446.313 485.013 445.599 485.358 444.838 485.553Z" fill="#6C63FF"/>
<path opacity="0.1" d="M443.862 436.307C445.249 439.235 454.577 445.219 454.577 445.219C454.577 445.219 455.863 434.21 454.471 431.277C453.777 429.915 452.58 428.878 451.133 428.385C449.686 427.892 448.104 427.983 446.723 428.638C445.342 429.292 444.271 430.46 443.737 431.892C443.202 433.324 443.248 434.908 443.862 436.307Z" fill="#6C63FF"/>
<path opacity="0.1" d="M428.594 459.593C430.812 461.973 441.488 464.895 441.488 464.895C441.488 464.895 439.42 454.003 437.218 451.619C436.159 450.481 434.692 449.81 433.139 449.752C431.586 449.694 430.074 450.254 428.933 451.309C427.792 452.364 427.115 453.829 427.052 455.381C426.988 456.934 427.543 458.449 428.594 459.593Z" fill="#6C63FF"/>
<path opacity="0.1" d="M416.865 484.261C418.629 486.978 428.677 491.665 428.677 491.665C428.677 491.665 428.478 480.573 426.709 477.861C425.839 476.603 424.514 475.734 423.014 475.438C421.514 475.142 419.958 475.443 418.676 476.276C417.394 477.11 416.488 478.41 416.15 479.901C415.812 481.392 416.068 482.956 416.865 484.261Z" fill="#6C63FF"/>
</g>
<g opacity="0.1">
<path opacity="0.1" d="M431.589 401.074C431.589 401.074 433.552 373.562 449.036 358.56C455.571 352.308 459.902 344.107 461.381 335.185C462.053 330.944 462.332 326.65 462.213 322.357" fill="#6C63FF"/>
<path opacity="0.1" d="M471.912 312.847C470.803 315.88 461.991 322.635 461.991 322.635C461.991 322.635 459.773 311.771 460.915 308.737C461.46 307.279 462.562 306.097 463.979 305.451C465.395 304.805 467.01 304.748 468.469 305.293C469.927 305.838 471.109 306.94 471.755 308.357C472.401 309.773 472.457 311.388 471.912 312.847Z" fill="#6C63FF"/>
<path opacity="0.1" d="M474.736 333.066C472.135 335.002 461.082 335.889 461.082 335.889C461.082 335.889 465.13 325.574 467.737 323.638C468.354 323.154 469.062 322.798 469.819 322.592C470.576 322.385 471.367 322.333 472.144 322.437C472.922 322.541 473.671 322.8 474.347 323.199C475.022 323.597 475.612 324.127 476.079 324.757C476.547 325.387 476.884 326.104 477.07 326.867C477.255 327.629 477.287 328.421 477.161 329.195C477.036 329.97 476.757 330.712 476.34 331.376C475.924 332.041 475.378 332.616 474.736 333.066Z" fill="#6C63FF"/>
<path opacity="0.1" d="M463.578 361.672C460.356 362.027 450.368 357.235 450.368 357.235C450.368 357.235 459.075 350.375 462.297 350.025C463.071 349.926 463.857 349.982 464.609 350.19C465.361 350.397 466.065 350.753 466.678 351.236C467.291 351.718 467.802 352.318 468.181 353.001C468.559 353.683 468.798 354.434 468.883 355.21C468.968 355.986 468.898 356.771 468.676 357.519C468.455 358.267 468.086 358.964 467.592 359.568C467.098 360.172 466.489 360.672 465.799 361.038C465.11 361.404 464.355 361.629 463.578 361.699V361.672Z" fill="#6C63FF"/>
<path opacity="0.1" d="M450.273 381.415C447.156 382.308 436.497 379.258 436.497 379.258C436.497 379.258 443.923 371.022 447.034 370.124C448.525 369.718 450.115 369.915 451.461 370.673C452.806 371.431 453.799 372.688 454.225 374.173C454.65 375.658 454.473 377.251 453.732 378.606C452.992 379.962 451.747 380.971 450.268 381.415H450.273Z" fill="#6C63FF"/>
<path opacity="0.1" d="M449.297 332.162C450.684 335.096 460.017 341.08 460.017 341.08C460.017 341.08 461.298 330.066 459.912 327.138C459.591 326.426 459.132 325.784 458.561 325.252C457.99 324.719 457.319 324.306 456.586 324.036C455.853 323.766 455.074 323.645 454.294 323.68C453.514 323.714 452.749 323.904 452.043 324.238C451.337 324.573 450.705 325.044 450.184 325.625C449.662 326.207 449.262 326.886 449.006 327.624C448.751 328.362 448.645 329.143 448.695 329.922C448.745 330.702 448.949 331.463 449.297 332.162Z" fill="#6C63FF"/>
<path opacity="0.1" d="M434.03 355.45C436.248 357.834 446.929 360.751 446.929 360.751C446.929 360.751 444.855 349.859 442.653 347.48C441.585 346.382 440.131 345.745 438.6 345.704C437.069 345.663 435.582 346.222 434.457 347.262C433.332 348.301 432.658 349.739 432.578 351.269C432.498 352.798 433.019 354.298 434.03 355.45Z" fill="#6C63FF"/>
<path opacity="0.1" d="M422.3 380.122C424.069 382.84 434.113 387.526 434.113 387.526C434.113 387.526 433.913 376.434 432.144 373.722C431.735 373.052 431.195 372.471 430.557 372.013C429.92 371.555 429.196 371.229 428.431 371.056C427.665 370.882 426.872 370.864 426.099 371.002C425.326 371.14 424.589 371.431 423.93 371.859C423.272 372.287 422.706 372.843 422.266 373.493C421.827 374.144 421.522 374.876 421.37 375.646C421.218 376.417 421.222 377.21 421.381 377.979C421.541 378.747 421.854 379.476 422.3 380.122Z" fill="#6C63FF"/>
<path opacity="0.1" d="M471.912 312.847C470.803 315.88 461.991 322.635 461.991 322.635C461.991 322.635 459.773 311.771 460.915 308.737C461.46 307.279 462.562 306.097 463.979 305.451C465.395 304.805 467.01 304.748 468.469 305.293C469.927 305.838 471.109 306.94 471.755 308.357C472.401 309.773 472.457 311.388 471.912 312.847Z" fill="#6C63FF"/>
<path opacity="0.1" d="M474.736 333.066C472.135 335.002 461.082 335.889 461.082 335.889C461.082 335.889 465.13 325.574 467.737 323.638C468.354 323.154 469.062 322.798 469.819 322.592C470.576 322.385 471.367 322.333 472.144 322.437C472.922 322.541 473.671 322.8 474.347 323.199C475.022 323.597 475.612 324.127 476.079 324.757C476.547 325.387 476.884 326.104 477.07 326.867C477.255 327.629 477.287 328.421 477.161 329.195C477.036 329.97 476.757 330.712 476.34 331.376C475.924 332.041 475.378 332.616 474.736 333.066Z" fill="#6C63FF"/>
<path opacity="0.1" d="M463.578 361.672C460.356 362.027 450.368 357.235 450.368 357.235C450.368 357.235 459.075 350.375 462.297 350.025C463.071 349.926 463.857 349.982 464.609 350.19C465.361 350.397 466.065 350.753 466.678 351.236C467.291 351.718 467.802 352.318 468.181 353.001C468.559 353.683 468.798 354.434 468.883 355.21C468.968 355.986 468.898 356.771 468.676 357.519C468.455 358.267 468.086 358.964 467.592 359.568C467.098 360.172 466.489 360.672 465.799 361.038C465.11 361.404 464.355 361.629 463.578 361.699V361.672Z" fill="#6C63FF"/>
<path opacity="0.1" d="M450.273 381.415C447.156 382.308 436.497 379.258 436.497 379.258C436.497 379.258 443.923 371.022 447.034 370.124C448.525 369.718 450.115 369.915 451.461 370.673C452.806 371.431 453.799 372.688 454.225 374.173C454.65 375.658 454.473 377.251 453.732 378.606C452.992 379.962 451.747 380.971 450.268 381.415H450.273Z" fill="#6C63FF"/>
<path opacity="0.1" d="M449.297 332.162C450.684 335.096 460.017 341.08 460.017 341.08C460.017 341.08 461.298 330.066 459.912 327.138C459.591 326.426 459.132 325.784 458.561 325.252C457.99 324.719 457.319 324.306 456.586 324.036C455.853 323.766 455.074 323.645 454.294 323.68C453.514 323.714 452.749 323.904 452.043 324.238C451.337 324.573 450.705 325.044 450.184 325.625C449.662 326.207 449.262 326.886 449.006 327.624C448.751 328.362 448.645 329.143 448.695 329.922C448.745 330.702 448.949 331.463 449.297 332.162Z" fill="#6C63FF"/>
<path opacity="0.1" d="M434.03 355.45C436.248 357.834 446.929 360.751 446.929 360.751C446.929 360.751 444.855 349.859 442.653 347.48C441.585 346.382 440.131 345.745 438.6 345.704C437.069 345.663 435.582 346.222 434.457 347.262C433.332 348.301 432.658 349.739 432.578 351.269C432.498 352.798 433.019 354.298 434.03 355.45Z" fill="#6C63FF"/>
<path opacity="0.1" d="M422.3 380.122C424.069 382.84 434.113 387.526 434.113 387.526C434.113 387.526 433.913 376.434 432.144 373.722C431.735 373.052 431.195 372.471 430.557 372.013C429.92 371.555 429.196 371.229 428.431 371.056C427.665 370.882 426.872 370.864 426.099 371.002C425.326 371.14 424.589 371.431 423.93 371.859C423.272 372.287 422.706 372.843 422.266 373.493C421.827 374.144 421.522 374.876 421.37 375.646C421.218 376.417 421.222 377.21 421.381 377.979C421.541 378.747 421.854 379.476 422.3 380.122Z" fill="#6C63FF"/>
</g>
<g opacity="0.1">
<path opacity="0.1" d="M137.391 437.122C137.391 437.122 113.705 423.002 107.255 402.439C104.613 393.789 99.234 386.232 91.9264 380.904C88.437 378.398 84.7241 376.218 80.8348 374.394" fill="#6C63FF"/>
<path opacity="0.1" d="M76.7031 361.439C78.9214 363.818 80.99 374.71 80.99 374.71C80.99 374.71 70.2921 371.799 68.0904 369.419C67.082 368.269 66.5622 366.771 66.6414 365.243C66.7207 363.716 67.3928 362.28 68.5148 361.24C69.6369 360.2 71.1202 359.639 72.6494 359.677C74.1786 359.714 75.6329 360.346 76.7031 361.439Z" fill="#6C63FF"/>
<path opacity="0.1" d="M96.0299 368.055C96.5845 371.249 92.4141 381.52 92.4141 381.52C92.4141 381.52 85.016 373.262 84.4614 370.068C84.308 369.3 84.3099 368.508 84.4669 367.741C84.6239 366.973 84.933 366.245 85.3759 365.598C85.8187 364.952 86.3864 364.401 87.0456 363.977C87.7047 363.554 88.4419 363.266 89.2138 363.132C89.9857 362.998 90.7767 363.019 91.5402 363.195C92.3037 363.371 93.0242 363.698 93.6594 364.157C94.2946 364.616 94.8315 365.197 95.2386 365.866C95.6458 366.536 95.9148 367.28 96.0299 368.055Z" fill="#6C63FF"/>
<path opacity="0.1" d="M116.572 390.838C115.463 393.877 106.65 400.637 106.65 400.637C106.65 400.637 104.432 389.773 105.569 386.739C105.822 385.996 106.222 385.311 106.744 384.725C107.267 384.139 107.902 383.664 108.611 383.327C109.321 382.991 110.09 382.8 110.875 382.766C111.659 382.732 112.442 382.856 113.178 383.13C113.914 383.404 114.587 383.823 115.158 384.362C115.729 384.901 116.187 385.548 116.503 386.267C116.819 386.986 116.989 387.76 117 388.545C117.012 389.33 116.867 390.11 116.572 390.838Z" fill="#6C63FF"/>
<path opacity="0.1" d="M128.223 411.596C127.624 414.785 120.104 422.959 120.104 422.959C120.104 422.959 116.084 412.627 116.688 409.444C116.831 408.687 117.122 407.965 117.544 407.32C117.966 406.675 118.511 406.119 119.148 405.685C119.785 405.25 120.501 404.946 121.255 404.788C122.01 404.63 122.788 404.623 123.546 404.766C124.303 404.909 125.025 405.2 125.67 405.622C126.315 406.044 126.87 406.589 127.305 407.226C127.739 407.863 128.044 408.579 128.201 409.333C128.359 410.088 128.366 410.866 128.223 411.623V411.596Z" fill="#6C63FF"/>
<path opacity="0.1" d="M83.7965 390.327C87.0352 390.405 96.5795 384.782 96.5795 384.782C96.5795 384.782 87.3181 378.681 84.0738 378.604C82.5362 378.597 81.0575 379.195 79.9554 380.267C78.8533 381.339 78.2156 382.801 78.1793 384.338C78.1429 385.875 78.7109 387.365 79.7612 388.488C80.8115 389.611 82.2603 390.277 83.7965 390.344V390.327Z" fill="#6C63FF"/>
<path opacity="0.1" d="M97.7328 414.435C100.85 413.537 108.27 405.295 108.27 405.295C108.27 405.295 97.6108 402.251 94.4941 403.149C93.0304 403.607 91.8041 404.62 91.0772 405.971C90.3504 407.321 90.1807 408.903 90.6044 410.377C91.0281 411.851 92.0117 413.1 93.3448 413.859C94.6779 414.617 96.2548 414.824 97.7384 414.435H97.7328Z" fill="#6C63FF"/>
<path opacity="0.1" d="M114.492 436.002C117.72 435.647 126.421 428.792 126.421 428.792C126.421 428.792 116.439 423.99 113.206 424.356C112.409 424.4 111.63 424.605 110.915 424.96C110.201 425.316 109.566 425.813 109.051 426.421C108.535 427.03 108.149 427.737 107.916 428.5C107.683 429.263 107.607 430.066 107.695 430.859C107.783 431.652 108.031 432.418 108.425 433.112C108.819 433.806 109.35 434.412 109.987 434.893C110.623 435.375 111.35 435.721 112.125 435.912C112.9 436.103 113.705 436.133 114.492 436.002Z" fill="#6C63FF"/>
<path opacity="0.1" d="M76.7031 361.439C78.9214 363.818 80.99 374.71 80.99 374.71C80.99 374.71 70.2921 371.799 68.0904 369.419C67.082 368.269 66.5622 366.771 66.6414 365.243C66.7207 363.716 67.3928 362.28 68.5148 361.24C69.6369 360.2 71.1202 359.639 72.6494 359.677C74.1786 359.714 75.6329 360.346 76.7031 361.439Z" fill="#6C63FF"/>
<path opacity="0.1" d="M96.0299 368.055C96.5845 371.249 92.4141 381.52 92.4141 381.52C92.4141 381.52 85.016 373.262 84.4614 370.068C84.308 369.3 84.3099 368.508 84.4669 367.741C84.6239 366.973 84.933 366.245 85.3759 365.598C85.8187 364.952 86.3864 364.401 87.0456 363.977C87.7047 363.554 88.4419 363.266 89.2138 363.132C89.9857 362.998 90.7767 363.019 91.5402 363.195C92.3037 363.371 93.0242 363.698 93.6594 364.157C94.2946 364.616 94.8315 365.197 95.2386 365.866C95.6458 366.536 95.9148 367.28 96.0299 368.055Z" fill="#6C63FF"/>
<path opacity="0.1" d="M116.572 390.838C115.463 393.877 106.65 400.637 106.65 400.637C106.65 400.637 104.432 389.773 105.569 386.739C105.822 385.996 106.222 385.311 106.744 384.725C107.267 384.139 107.902 383.664 108.611 383.327C109.321 382.991 110.09 382.8 110.875 382.766C111.659 382.732 112.442 382.856 113.178 383.13C113.914 383.404 114.587 383.823 115.158 384.362C115.729 384.901 116.187 385.548 116.503 386.267C116.819 386.986 116.989 387.76 117 388.545C117.012 389.33 116.867 390.11 116.572 390.838Z" fill="#6C63FF"/>
<path opacity="0.1" d="M128.223 411.596C127.624 414.785 120.104 422.959 120.104 422.959C120.104 422.959 116.084 412.627 116.688 409.444C116.831 408.687 117.122 407.965 117.544 407.32C117.966 406.675 118.511 406.119 119.148 405.685C119.785 405.25 120.501 404.946 121.255 404.788C122.01 404.63 122.788 404.623 123.546 404.766C124.303 404.909 125.025 405.2 125.67 405.622C126.315 406.044 126.87 406.589 127.305 407.226C127.739 407.863 128.044 408.579 128.201 409.333C128.359 410.088 128.366 410.866 128.223 411.623V411.596Z" fill="#6C63FF"/>
<path d="M83.7965 390.327C87.0352 390.405 96.5795 384.782 96.5795 384.782C96.5795 384.782 87.3181 378.681 84.0738 378.604C82.5362 378.597 81.0575 379.195 79.9554 380.267C78.8533 381.339 78.2156 382.801 78.1793 384.338C78.1429 385.875 78.7109 387.365 79.7612 388.488C80.8115 389.611 82.2603 390.277 83.7965 390.344V390.327Z" fill="#EEF7FF"/>
<path opacity="0.1" d="M97.7328 414.435C100.85 413.537 108.27 405.295 108.27 405.295C108.27 405.295 97.6108 402.251 94.4941 403.149C93.0304 403.607 91.8041 404.62 91.0772 405.971C90.3504 407.321 90.1807 408.903 90.6044 410.377C91.0281 411.851 92.0117 413.1 93.3448 413.859C94.6779 414.617 96.2548 414.824 97.7384 414.435H97.7328Z" fill="#6C63FF"/>
<path opacity="0.1" d="M114.492 436.002C117.72 435.647 126.421 428.792 126.421 428.792C126.421 428.792 116.439 423.99 113.206 424.356C112.409 424.4 111.63 424.605 110.915 424.96C110.201 425.316 109.566 425.813 109.051 426.421C108.535 427.03 108.149 427.737 107.916 428.5C107.683 429.263 107.607 430.066 107.695 430.859C107.783 431.652 108.031 432.418 108.425 433.112C108.819 433.806 109.35 434.412 109.987 434.893C110.623 435.375 111.35 435.721 112.125 435.912C112.9 436.103 113.705 436.133 114.492 436.002Z" fill="#6C63FF"/>
</g>
<path d="M427.565 603.266C443.474 610.289 462.884 606.015 480.937 606.51C483.403 606.578 486.024 606.786 488.002 608C489.98 609.215 490.961 611.177 492.318 612.864C497.377 619.128 507.745 621.141 516.804 620.078C525.864 619.016 534.17 615.496 542.72 612.819C557.498 608.186 574.387 606.072 588.966 611.132C590.301 611.593 591.736 612.128 593.144 611.942C596.341 611.531 597.294 608.169 599.527 606.252C603.561 602.782 612.327 603.727 614.1 599.155C615.136 596.479 612.748 593.735 610.144 591.907C600.17 584.913 585.929 583.76 572.891 584.839C559.853 585.919 547.036 588.894 533.932 588.905C517.602 588.905 501.827 584.339 485.658 582.467C474.459 581.173 462.236 581.342 451.735 585.149C440.354 589.265 437.849 598.537 427.565 603.266Z" fill="#38495B"/>
<path d="M126 581.588C153.193 589.367 186.379 584.631 217.234 585.182C221.457 585.259 225.93 585.485 229.321 586.836C232.711 588.187 234.376 590.365 236.701 592.228C245.347 599.169 263.067 601.402 278.55 600.222C294.033 599.042 308.24 595.145 322.857 592.179C348.118 587.046 376.998 584.708 401.915 590.304C404.202 590.817 406.61 591.407 409.063 591.203C414.524 590.745 416.15 587.024 419.973 584.896C426.871 581.036 441.849 582.1 444.879 577.039C446.655 574.073 442.571 571.03 438.12 569.006C421.094 561.26 396.732 559.981 374.44 561.178C352.147 562.374 330.238 565.665 307.846 565.682C279.932 565.682 252.961 560.626 225.319 558.548C206.174 557.114 185.28 557.291 167.327 561.525C147.865 566.095 143.575 576.367 126 581.588Z" fill="#38495B"/>
<path d="M43 600.933C50.7499 605.482 60.1604 602.716 68.9399 603.035C70.1411 603.078 71.4143 603.213 72.3775 603.996C73.3407 604.78 73.8168 606.06 74.4755 607.152C76.9333 611.209 81.9707 612.516 86.3715 611.825C90.7724 611.133 94.8134 608.859 98.9706 607.119C106.167 604.121 114.365 602.754 121.445 606.039C122.052 606.417 122.763 606.606 123.482 606.579C125.032 606.309 125.497 604.131 126.582 602.889C128.542 600.641 132.804 601.268 133.662 598.291C134.166 596.557 133.004 594.779 131.741 593.596C126.903 589.063 119.973 588.318 113.634 589.015C107.296 589.712 101.069 591.603 94.6971 591.603C86.7646 591.603 79.0977 588.647 71.2372 587.432C65.7901 586.589 59.8504 586.697 54.7466 589.172C49.2165 591.873 47.9987 597.881 43 600.933Z" fill="#38495B"/>
<path opacity="0.1" d="M416.389 175.826H158.046C154.939 175.821 151.861 176.426 148.988 177.607C146.115 178.788 143.504 180.521 141.303 182.707C139.102 184.894 137.356 187.491 136.162 190.351C134.969 193.211 134.352 196.277 134.348 199.374V556.121C134.361 562.374 136.865 568.364 141.309 572.777C145.753 577.19 151.773 579.663 158.046 579.652H416.389C419.496 579.657 422.574 579.052 425.447 577.872C428.32 576.691 430.931 574.958 433.132 572.771C435.333 570.584 437.079 567.987 438.273 565.128C439.466 562.268 440.083 559.202 440.087 556.105V199.374C440.083 196.277 439.466 193.211 438.273 190.351C437.079 187.491 435.333 184.894 433.132 182.707C430.931 180.521 428.32 178.788 425.447 177.607C422.574 176.426 419.496 175.821 416.389 175.826Z" fill="#25323F"/>
<path d="M424.831 181.044H149.604C143.483 181.044 138.522 186.008 138.522 192.13V565.436C138.522 571.559 143.483 576.522 149.604 576.522H424.831C430.952 576.522 435.913 571.559 435.913 565.436V192.13C435.913 186.008 430.952 181.044 424.831 181.044Z" fill="#25323F"/>
<path d="M421.304 217.565H153.13V538.957H421.304V217.565Z" fill="#1F232E"/>
<path fill-rule="evenodd" clip-rule="evenodd" d="M168 384.484H170V501.484H404V503.484H168V384.484Z" fill="#568DC4"/>
<path opacity="0.5" d="M205 466.484H185V497.484H205V466.484Z" fill="#568DC4"/>
<path d="M251 439.484H230V497.484H251V439.484Z" fill="#60A7E9"/>
<path opacity="0.5" d="M297 455.484H276V497.484H297V455.484Z" fill="#568DC4"/>
<path d="M343 429.484H322V497.484H343V429.484Z" fill="#60A7E9"/>
<path d="M389 405.484H368V497.484H389V405.484Z" fill="#568DC4"/>
<path fill-rule="evenodd" clip-rule="evenodd" d="M332.414 406.958L378 392.394L377.367 390.484L331.406 405.168L286.834 441.651L241.113 411.276L194 443.842L195.178 445.484L241.136 413.717L286.962 444.161L332.414 406.958Z" fill="#568DC4"/>
<path d="M195 448.484C197.209 448.484 199 446.694 199 444.484C199 442.275 197.209 440.484 195 440.484C192.791 440.484 191 442.275 191 444.484C191 446.694 192.791 448.484 195 448.484Z" fill="#0E8AFD"/>
<path d="M285.5 445.484C287.433 445.484 289 443.917 289 441.984C289 440.051 287.433 438.484 285.5 438.484C283.567 438.484 282 440.051 282 441.984C282 443.917 283.567 445.484 285.5 445.484Z" fill="#0E8AFD"/>
<path d="M332 409.484C334.209 409.484 336 407.694 336 405.484C336 403.275 334.209 401.484 332 401.484C329.791 401.484 328 403.275 328 405.484C328 407.694 329.791 409.484 332 409.484Z" fill="#FF6584"/>
<path d="M240 417.484C242.209 417.484 244 415.694 244 413.484C244 411.275 242.209 409.484 240 409.484C237.791 409.484 236 411.275 236 413.484C236 415.694 237.791 417.484 240 417.484Z" fill="#FF6584"/>
<path d="M378 394.484C380.209 394.484 382 392.694 382 390.484C382 388.275 380.209 386.484 378 386.484C375.791 386.484 374 388.275 374 390.484C374 392.694 375.791 394.484 378 394.484Z" fill="#0E8AFD"/>
<path d="M286.5 203C288.433 203 290 201.433 290 199.5C290 197.567 288.433 196 286.5 196C284.567 196 283 197.567 283 199.5C283 201.433 284.567 203 286.5 203Z" fill="#465C72"/>
<path d="M286.174 568.174C292.225 568.174 297.131 563.268 297.131 557.217C297.131 551.166 292.225 546.261 286.174 546.261C280.123 546.261 275.218 551.166 275.218 557.217C275.218 563.268 280.123 568.174 286.174 568.174Z" fill="#465C72"/>
<g opacity="0.2">
<path d="M402 347H169V290.862L190.369 307.515L212.484 312.26L231.889 303.007L255.3 274.299L267.075 263.547L275.684 260.924L283.919 261.621L297.462 272.201L315.877 290.747L330.326 293.681L341.781 287.436L366.067 255.991L378.465 249L391.437 252.172L402 261.818V347Z" fill="#0E8AFD"/>
</g>
<path d="M209.738 312.997C188.691 312.997 169.244 292.531 169 292.266L169.582 290.894C169.884 291.217 199.815 322.701 225.249 306.93C234.523 301.144 241.124 292.233 247.513 283.579C254.182 274.545 260.477 266.014 269.064 262.311C278.91 258.071 289.67 261.906 297.847 272.594C304.838 281.728 318.759 296.391 333.464 292.01C340.96 289.77 347.276 281.066 353.966 271.85C366.79 254.178 380.055 235.902 403 262.121L402.392 263.46C380.113 238.002 367.169 255.847 354.647 273.098C347.848 282.463 341.428 291.283 333.657 293.63C318.53 298.143 304.318 283.182 297.186 273.867C289.27 263.526 278.863 259.815 269.335 263.907C260.976 267.51 254.78 275.925 248.183 284.836C241.733 293.581 235.063 302.615 225.629 308.467C220.556 311.54 215.166 313.076 209.738 312.997Z" fill="#568DC4"/>
<path d="M278 266C280.761 266 283 263.761 283 261C283 258.239 280.761 256 278 256C275.239 256 273 258.239 273 261C273 263.761 275.239 266 278 266Z" fill="#FF6584"/>
<path d="M567.265 545.221C564.255 544.229 559.79 543.084 556.25 543.488C552.88 542.261 544.957 539.082 539.545 534.294C539.701 529.586 539.581 524.874 539.185 520.18C536.416 488.7 542.643 467.948 542.643 467.948C542.643 467.948 547.534 452.116 546.998 438.979C547.314 439.574 547.49 439.926 547.49 439.926C547.916 428.596 551.778 416.868 554.672 409.562C554.782 409.53 554.89 409.491 554.995 409.444L558.226 401.778C558.483 401.331 558.688 400.855 558.835 400.361L559.357 399.149L559.202 399.083C559.254 398.885 559.305 398.672 559.357 398.459C561.42 389.728 563.028 369.02 563.028 369.02C568.565 347.225 555.421 333.773 555.421 333.773L533.112 314.577C533.223 314.827 533.297 315.092 533.332 315.363L533.149 315.202C532.833 314.298 532.488 313.219 532.15 311.985C532.937 311.42 533.674 310.789 534.353 310.098C536.889 307.703 538.634 304.59 539.354 301.176C539.786 298.506 539.897 295.795 539.684 293.099L539.317 283.839C539.3 282.026 539.116 280.22 538.766 278.441C537.085 271.098 529.558 265.958 522.002 265.62C519.597 265.606 517.195 265.734 514.805 266.002C512.851 266.163 510.89 266.204 508.931 266.127C508.708 266.139 508.487 266.08 508.299 265.958C508.129 265.788 508.032 265.559 508.028 265.319C507.989 264.889 508.038 264.456 508.172 264.046C508.306 263.636 508.521 263.257 508.806 262.933C509.101 262.673 509.446 262.476 509.819 262.352L509.283 262.477C509.547 262.269 509.845 262.107 510.164 262C508.206 262.344 506.322 263.028 504.598 264.019C504.123 264.331 503.687 264.699 503.298 265.114C502.272 266.014 501.604 267.256 501.419 268.609C500.499 267.832 499.812 266.815 499.436 265.672C499.319 265.204 499.319 264.715 499.436 264.247C499.304 264.409 499.176 264.575 499.054 264.746C499.054 264.695 499.054 264.644 499.054 264.592C497.635 266.336 496.631 268.38 496.117 270.57C495.919 270.332 495.771 270.058 495.68 269.763C495.589 269.468 495.558 269.158 495.588 268.851C495.478 269.196 495.375 269.541 495.28 269.887C495.246 269.658 495.246 269.425 495.28 269.196C494.415 271.844 494.025 274.623 494.127 277.406C494.127 280.182 495.36 284.507 498.334 285.484C498.489 285.535 498.643 285.572 498.804 285.608C497.132 288.207 496.13 291.179 495.889 294.26C495.648 297.34 496.175 300.432 497.424 303.259C498.672 306.086 500.602 308.558 503.041 310.456C505.48 312.353 508.351 313.615 511.398 314.129C511.447 314.467 511.493 314.822 511.538 315.194H511.655C511.736 315.929 511.802 316.736 511.846 317.559C511.095 318.294 510.274 318.953 509.393 319.527C506.897 321.003 504.112 321.924 501.228 322.229C497.784 322.499 494.436 323.501 491.41 325.166C487.848 327.156 483.92 330.057 482.686 333.582C480.63 339.456 469.307 348.599 461.714 349.737L459.012 349.583L458.813 349.524V349.575L458.152 349.538H458.116H457.939V349.575L457.256 349.538C457.256 349.538 457.19 349.854 457.095 350.412C453.276 349.098 445.162 345.456 434.603 335.873C422.854 325.203 406.955 327.303 400.824 328.647C400.615 328.693 400.426 328.802 400.28 328.958C400.135 329.115 400.041 329.312 400.011 329.523C399.98 329.735 400.015 329.951 400.111 330.142C400.206 330.333 400.358 330.49 400.545 330.593C403.019 331.951 406.853 333.927 408.622 334.147C408.622 334.147 404.951 337.988 408.857 340.022C409.326 340.248 409.848 340.341 410.366 340.291C410.884 340.24 411.379 340.048 411.795 339.735C413.689 338.347 418.954 341.49 426.584 343.128C426.584 343.128 448.114 365.407 458.806 368.829C459.052 369.316 459.324 369.789 459.621 370.246L460.282 370.195V370.246H460.561L460.642 370.981C460.642 370.981 477.267 370.107 482.671 364.071C483.054 363.728 483.405 363.352 483.721 362.947L477.942 435.645H477.994L477.942 436.335H482.194C482.558 445.276 482.172 454.232 481.041 463.109V510.502C481.041 510.502 480.821 514.673 489.486 520.782C498.571 527.107 507.326 533.894 515.716 541.116L516.766 542.026C515.172 556.529 511.839 583.56 509.056 584.566L510.774 584.867C507.837 588.59 499.495 598.819 496.954 599.09C493.84 599.436 491.762 604.282 496.954 605.317C507.32 607.112 517.979 606.061 527.795 602.277C528.774 601.891 529.596 601.188 530.128 600.28C530.661 599.372 530.873 598.312 530.733 597.269L529.727 589.632C529.917 589.738 530.071 589.9 530.167 590.095C530.858 592.173 530.167 587.327 530.167 587.327C533.012 578.183 535.247 568.861 536.857 559.422L547.137 568.308C547.137 568.308 547.343 568.051 547.703 567.573C550.222 573.286 554.716 584.977 553.71 593.539C552.329 605.288 565.459 594.919 564.086 588.002C562.969 582.407 567.963 558.688 569.909 549.817C570.118 548.86 569.964 547.858 569.475 547.008C568.986 546.158 568.198 545.521 567.265 545.221Z" fill="url(#paint0_linear)"/>
<path d="M458.447 352.001C458.447 352.001 449.098 350.386 435.235 337.791C424.268 327.829 409.473 329.788 403.768 331.044C403.574 331.086 403.397 331.187 403.262 331.333C403.126 331.479 403.038 331.662 403.01 331.86C402.982 332.057 403.014 332.258 403.104 332.436C403.193 332.614 403.334 332.761 403.509 332.856C405.815 334.119 409.389 335.966 411.064 336.176C411.064 336.176 407.609 339.757 411.281 341.674C411.721 341.89 412.212 341.98 412.7 341.933C413.187 341.885 413.652 341.703 414.042 341.407C415.809 340.115 420.714 343.05 427.828 344.573C427.828 344.573 455.552 373.316 462 368.444L458.447 352.001Z" fill="#FBBEBE"/>
<path d="M509.841 312.448C509.841 312.448 512.544 323.933 509.841 332.039L522.002 333.728L532.811 328.324V321.23C532.811 321.23 527.744 310.421 529.095 297.923L509.841 312.448Z" fill="#FBBEBE"/>
<path d="M544.274 561.383C544.274 561.383 553.086 578.61 551.706 590.095C550.325 601.58 563.19 591.446 561.839 584.69C560.745 579.227 565.621 556.052 567.523 547.431C567.729 546.499 567.582 545.524 567.109 544.695C566.637 543.866 565.874 543.242 564.967 542.944C560.907 541.608 554.107 539.97 550.692 542.474C545.647 546.183 544.274 561.383 544.274 561.383Z" fill="#25323F"/>
<path d="M510.856 580.3C510.856 580.3 499.371 595.162 496.331 595.5C493.291 595.838 491.264 600.567 496.331 601.58C506.447 603.341 516.852 602.326 526.438 598.643C527.397 598.269 528.203 597.583 528.726 596.696C529.25 595.81 529.46 594.773 529.324 593.752L527.385 579.286L510.856 580.3Z" fill="#25323F"/>
<path d="M491.939 422.56L480.924 424.028C482.436 436.894 482.391 449.894 480.792 462.749V509.011C480.792 509.011 480.579 513.087 489.038 519.013C497.909 525.18 506.458 531.797 514.651 538.839L545.302 565.392C545.302 565.392 557.462 550.53 555.773 541.747C555.773 541.747 535.506 535.329 532.804 524.858C531.254 518.866 523.397 513.843 516.964 510.686C512.921 508.722 509.67 505.434 507.753 501.368C505.837 497.301 505.368 492.702 506.427 488.333C506.802 486.815 507.383 485.355 508.152 483.993C513.557 474.535 521.326 453.254 521.326 453.254L506.464 424.924L491.939 422.56Z" fill="#568DC4"/>
<path opacity="0.2" d="M491.939 422.56L480.924 424.028C482.436 436.894 482.391 449.894 480.792 462.749V509.011C480.792 509.011 480.579 513.087 489.038 519.013C497.909 525.18 506.458 531.797 514.651 538.839L545.302 565.392C545.302 565.392 557.462 550.53 555.773 541.747C555.773 541.747 535.506 535.329 532.804 524.858C531.254 518.866 523.397 513.843 516.964 510.686C512.921 508.722 509.67 505.434 507.753 501.368C505.837 497.301 505.368 492.702 506.427 488.333C506.802 486.815 507.383 485.355 508.152 483.993C513.557 474.535 521.326 453.254 521.326 453.254L506.464 424.924L491.939 422.56Z" fill="#25323F"/>
<path d="M508.153 581.334C508.153 581.334 528.083 584.712 528.759 586.739C529.434 588.765 528.759 584.036 528.759 584.036C528.759 584.036 540.243 549.244 537.57 518.513C534.897 487.781 540.948 467.507 540.948 467.507C540.948 467.507 548.042 444.537 543.988 431.364C539.935 418.19 497.374 423.932 497.374 423.932C497.374 423.932 512.236 458.724 511.899 475.276C511.899 475.276 513.587 525.269 516.628 531.011C516.598 530.982 511.869 579.961 508.153 581.334Z" fill="#568DC4"/>
<path d="M510.496 321.23C510.496 321.23 512.523 333.714 532.79 328.324L519.308 431.004C519.308 431.004 480.124 432.355 480.462 427.626L488.54 365.481L510.496 321.23Z" fill="white"/>
<path opacity="0.1" d="M511.024 320.555C508.384 323.153 504.946 324.785 501.264 325.188C497.902 325.446 494.632 326.417 491.674 328.037C488.201 329.983 484.331 332.811 483.156 336.254C480.792 343.01 465.929 354.157 459.173 351.793L461.538 372.06C461.538 372.06 480.792 371.047 484.169 363.615L478.434 435.939H483.501C483.501 435.939 486.204 416.347 488.23 412.294C490.257 408.24 494.31 385.946 494.648 380.541C494.986 375.137 500.053 344.06 504.444 338.685L511.053 322.64L511.024 320.555Z" fill="black"/>
<path opacity="0.1" d="M511.023 321.568C508.005 323.93 504.395 325.416 500.589 325.864C497.227 326.127 493.961 327.104 491.006 328.728C487.533 330.674 483.663 333.501 482.488 336.945C480.123 343.701 465.261 354.848 458.505 352.483L460.869 372.751C460.869 372.751 480.123 371.737 483.501 364.306L477.759 436.585H482.825C482.825 436.585 485.528 416.993 487.555 412.94C489.581 408.887 493.635 386.593 493.972 381.188C494.31 375.783 499.377 344.707 503.768 339.332L511.023 323.588V321.568Z" fill="black"/>
<path d="M511.024 320.893C508.005 323.254 504.395 324.74 500.589 325.188C497.226 325.446 493.957 326.417 490.999 328.038C487.525 329.983 483.655 332.811 482.481 336.255C480.116 343.01 465.253 354.157 458.498 351.793L460.862 372.06C460.862 372.06 480.116 371.047 483.494 363.615L477.759 435.939H482.826C482.826 435.939 485.528 416.347 487.555 412.294C489.581 408.24 493.635 385.946 493.973 380.542C494.31 375.137 499.377 344.06 503.769 338.685L511.031 322.978L511.024 320.893Z" fill="#FF6584"/>
<path opacity="0.1" d="M528.251 307.888C527.81 304.686 528.691 302.689 529.095 298.937L509.841 313.461C509.841 313.461 510.304 315.422 510.656 318.293C511.628 318.45 512.61 318.529 513.594 318.528C520.276 318.528 525.086 313.307 528.251 307.888Z" fill="black"/>
<path d="M513.557 317.522C523.631 317.522 531.798 309.356 531.798 299.282C531.798 289.208 523.631 281.041 513.557 281.041C503.484 281.041 495.317 289.208 495.317 299.282C495.317 309.356 503.484 317.522 513.557 317.522Z" fill="#FBBEBE"/>
<path opacity="0.1" d="M493.65 281.4C493.533 278.324 494.032 275.256 495.119 272.376C494.817 272.829 494.689 273.376 494.759 273.916C494.83 274.456 495.093 274.952 495.5 275.313C496.088 272.174 497.7 269.318 500.083 267.191C498.783 267.404 498.115 269.012 498.438 270.29C498.877 271.538 499.658 272.637 500.692 273.462C500.582 271.531 501.86 269.725 503.475 268.667C505.158 267.7 506.997 267.034 508.909 266.699C508.254 266.932 507.693 267.375 507.316 267.96C506.939 268.544 506.766 269.237 506.824 269.93C506.829 270.166 506.927 270.39 507.095 270.554C507.279 270.672 507.495 270.728 507.712 270.716C509.615 270.789 511.52 270.748 513.418 270.591C515.751 270.329 518.097 270.203 520.445 270.217C527.788 270.525 535.168 275.54 536.813 282.7C537.154 284.437 537.334 286.202 537.349 287.973L537.709 297.012C537.918 299.649 537.81 302.302 537.386 304.913C536.877 307.324 535.843 309.593 534.357 311.558C532.87 313.523 530.969 315.135 528.787 316.281C526.136 312.44 525.901 307.505 524.983 302.931C524.839 301.875 524.446 300.868 523.838 299.993C523.524 299.561 523.083 299.236 522.576 299.065C522.07 298.894 521.523 298.885 521.011 299.039C520.019 299.435 519.593 300.948 520.416 301.624C519.682 302.49 518.308 301.844 517.479 301.073C515.161 298.875 513.566 296.025 512.904 292.9C512.573 291.328 512.243 289.39 510.701 288.854C510.17 288.708 509.616 288.67 509.071 288.744C505.854 288.964 500.824 290.293 497.711 289.272C494.854 288.34 493.65 284.11 493.65 281.4Z" fill="black"/>
<path d="M493.988 281.063C493.871 277.987 494.371 274.919 495.457 272.039C495.155 272.492 495.028 273.039 495.098 273.579C495.168 274.119 495.431 274.615 495.839 274.976C496.427 271.837 498.038 268.981 500.421 266.854C499.121 267.067 498.453 268.675 498.776 269.953C499.215 271.201 499.996 272.3 501.03 273.125C500.92 271.194 502.198 269.388 503.814 268.33C505.497 267.363 507.336 266.697 509.248 266.362C508.592 266.595 508.032 267.038 507.655 267.623C507.277 268.207 507.104 268.9 507.162 269.593C507.168 269.829 507.265 270.053 507.434 270.217C507.617 270.335 507.833 270.391 508.051 270.379C509.953 270.452 511.859 270.411 513.756 270.254C516.089 269.992 518.436 269.867 520.784 269.88C528.127 270.188 535.507 275.204 537.152 282.363C537.493 284.1 537.672 285.865 537.688 287.636L538.048 296.675C538.257 299.312 538.148 301.965 537.725 304.576C537.216 306.987 536.182 309.256 534.695 311.221C533.209 313.186 531.307 314.798 529.126 315.944C526.475 312.103 526.24 307.169 525.322 302.594C525.177 301.538 524.784 300.531 524.176 299.656C523.862 299.224 523.421 298.899 522.915 298.728C522.408 298.557 521.861 298.548 521.349 298.702C520.358 299.098 519.932 300.611 520.754 301.287C520.02 302.153 518.647 301.507 517.817 300.736C515.5 298.538 513.905 295.688 513.242 292.563C512.912 290.991 512.581 289.053 511.039 288.517C510.509 288.371 509.954 288.334 509.409 288.407C506.193 288.627 501.163 289.956 498.049 288.935C495.193 287.995 493.988 283.773 493.988 281.063Z" fill="#25323F"/>
<path opacity="0.1" d="M530.954 317.713L552.742 336.46C552.742 336.46 565.577 349.634 560.173 370.915C560.173 370.915 557.808 401.991 555.106 403.342C555.106 403.342 545.648 422.258 544.972 440.161C544.972 440.161 532.305 414.658 526.563 430.196C520.821 445.735 507.471 447.93 507.471 447.93L514.902 356.022C514.902 356.022 533.656 323.426 530.954 317.713Z" fill="black"/>
<path d="M531.63 317.713L553.417 336.46C553.417 336.46 566.253 349.634 560.848 370.915C560.848 370.915 558.484 401.991 555.782 403.342C555.782 403.342 546.324 422.258 545.648 440.161C545.648 440.161 532.305 413.307 526.556 428.845C520.806 444.383 508.146 447.938 508.146 447.938L515.577 356.067C515.577 356.067 534.332 323.426 531.63 317.713Z" fill="#FF6584"/>
<path d="M541.594 396.895C541.594 396.895 546.998 393.179 555.781 403.313L534.162 442.496L526.9 431.533C526.9 431.533 542.269 401.286 541.594 396.895Z" fill="#FBBEBE"/>
<path opacity="0.1" d="M536.359 399.09C536.359 399.09 548.313 412.513 552.976 410.362L557.294 400.309L541.088 393.348L536.359 399.09Z" fill="black"/>
<path d="M536.359 398.415C536.359 398.415 548.313 411.839 552.976 409.687L557.294 399.634L541.088 392.673L536.359 398.415Z" fill="#FD6F8D"/>
<path opacity="0.1" d="M527.635 428.97C527.635 428.97 533.326 440.631 536.359 441.306L531.953 446.373L525.535 434.213L527.635 428.97Z" fill="black"/>
<path d="M527.297 429.33C527.297 429.33 532.988 440.991 536.02 441.667L531.614 446.734L525.182 434.551L527.297 429.33Z" fill="#568DC4"/>
<path opacity="0.1" d="M538.047 357.205C538.047 357.205 538.723 381.526 536.02 390.646L538.047 357.205Z" fill="black"/>
<path opacity="0.1" d="M483.325 361.934C483.325 361.934 487.379 360.583 487.379 357.205L483.325 361.934Z" fill="black"/>
<path d="M88.7713 598.587L87.8117 598.092C100.274 574.019 93.6099 542.756 85.8255 520.77C80.5397 505.991 73.7977 491.774 65.6989 478.327L66.6115 477.751C74.7524 491.266 81.5295 505.556 86.8431 520.409C94.6992 542.597 101.41 574.172 88.7713 598.587Z" fill="#8597A8"/>
<path d="M98.0132 477.945L91.0082 516.249L92.0701 516.443L99.0751 478.139L98.0132 477.945Z" fill="#8597A8"/>
<path d="M51.433 510.579L50.6422 511.314L86.8159 550.156L87.6067 549.421L51.433 510.579Z" fill="#8597A8"/>
<path d="M116.464 553.245L98.1158 578.606L98.9911 579.239L117.339 553.878L116.464 553.245Z" fill="#8597A8"/>
<path d="M101.249 467.789C104.231 467.789 106.648 465.374 106.648 462.395C106.648 459.415 104.231 457 101.249 457C98.2671 457 95.8499 459.415 95.8499 462.395C95.8499 465.374 98.2671 467.789 101.249 467.789Z" fill="#568DC4"/>
<path d="M42.3991 509.328C45.3809 509.328 47.7982 506.913 47.7982 503.934C47.7982 500.954 45.3809 498.539 42.3991 498.539C39.4173 498.539 37 500.954 37 503.934C37 506.913 39.4173 509.328 42.3991 509.328Z" fill="#568DC4"/>
<path d="M66.1548 514.723C69.1366 514.723 71.5538 512.308 71.5538 509.328C71.5538 506.349 69.1366 503.934 66.1548 503.934C63.173 503.934 60.7557 506.349 60.7557 509.328C60.7557 512.308 63.173 514.723 66.1548 514.723Z" fill="#568DC4"/>
<path d="M55.3567 535.762C58.3386 535.762 60.7558 533.347 60.7558 530.367C60.7558 527.388 58.3386 524.973 55.3567 524.973C52.3749 524.973 49.9576 527.388 49.9576 530.367C49.9576 533.347 52.3749 535.762 55.3567 535.762Z" fill="#568DC4"/>
<path d="M122.845 549.248C125.827 549.248 128.244 546.833 128.244 543.854C128.244 540.874 125.827 538.459 122.845 538.459C119.863 538.459 117.446 540.874 117.446 543.854C117.446 546.833 119.863 549.248 122.845 549.248Z" fill="#568DC4"/>
<path d="M105.029 555.183C108.01 555.183 110.428 552.768 110.428 549.788C110.428 546.809 108.01 544.394 105.029 544.394C102.047 544.394 99.6295 546.809 99.6295 549.788C99.6295 552.768 102.047 555.183 105.029 555.183Z" fill="#568DC4"/>
<path d="M117.446 572.446C120.428 572.446 122.845 570.03 122.845 567.051C122.845 564.072 120.428 561.656 117.446 561.656C114.464 561.656 112.047 564.072 112.047 567.051C112.047 570.03 114.464 572.446 117.446 572.446Z" fill="#568DC4"/>
<path d="M60.7555 474.263C63.7373 474.263 66.1546 471.848 66.1546 468.868C66.1546 465.889 63.7373 463.474 60.7555 463.474C57.7736 463.474 55.3564 465.889 55.3564 468.868C55.3564 471.848 57.7736 474.263 60.7555 474.263Z" fill="#568DC4"/>
<defs>
<linearGradient id="paint0_linear" x1="149716" y1="221828" x2="149716" y2="60515.8" gradientUnits="userSpaceOnUse">
<stop stop-color="#808080" stop-opacity="0.25"/>
<stop offset="0.54" stop-color="#808080" stop-opacity="0.12"/>
<stop offset="1" stop-color="#808080" stop-opacity="0.1"/>
</linearGradient>
</defs>
</svg>
