<svg width="916" height="593" viewBox="0 0 916 593" fill="none" xmlns="http://www.w3.org/2000/svg"><path d="M198.638.552c-29.454-1.086-60.222-1.849-86.855 10.785C85.151 23.97 64.56 54.579 73.491 82.72c2.915 9.174 8.592 17.17 13.38 25.521 23.938 41.767 25.048 95.751 2.856 138.476-17.083 32.89-46.038 57.919-66.883 88.562C2 365.921-9.846 408.392 10.66 439.263 24.7 460.401 50.757 470.685 76 473.178c25.243 2.493 50.63-1.433 75.983-2.442a327.106 327.106 0 0 1 143.695 27.192c62.273 27.319 115.919 74.054 181.488 92.088 7.872 2.163 16.1 3.909 24.15 2.442 14.278-2.603 24.658-14.414 35.835-23.74 35.682-29.566 85.083-35.086 131.4-36.459 46.316-1.374 94.557-.314 136.425-20.214 36.555-17.373 64.696-49.694 82.194-86.204 17.498-36.51 25.098-77.081 27.962-117.483 1.695-24.046 1.636-48.872-6.965-71.383-9.668-25.309-26.186-47.698-46.752-65.317-21.489-18.416-48-32.868-74.53-42.805-31.692-11.87-66.095-13.566-99.836-16.381a1370.647 1370.647 0 0 1-205.367-33c-64.085-15.33-134.45-32.075-192.816-63.302C259.571.492 231.659 1.739 198.638.552Z" fill="#282D3B"/></svg>