<svg width="660" height="745" viewBox="0 0 660 745" fill="none" xmlns="http://www.w3.org/2000/svg"><path d="m566.703 354.147 8.657-6.919-48.48-43.245H403.949v38.056l79.646 53.623 83.108-41.515Z" fill="#38495B"/><path opacity=".1" d="m566.703 354.147 8.657-6.919-48.48-43.245H403.949v38.056l79.646 53.623 83.108-41.515Z" fill="#465C72"/><path opacity=".1" d="M381.535 328.241v-23.394h16.321v5.729l6.092-6.593 39.822 43.245 15.583 10.379 24.162 176.36-36.439 36.404h-84.683V348.958l19.142-20.717Z" fill="#465C72"/><path d="M381.535 328.241v-23.394h16.321v5.729l6.092-6.593 39.822 43.245 15.583 10.379 24.162 176.36-36.439 36.404h-84.683V348.958l19.142-20.717Z" fill="#EEF7FF"/><path d="M443.772 347.228H575.36V570.37H443.772V347.228Z" fill="#25323F"/><path d="M500.043 515.883h24.24v54.488h-24.24v-54.488Z" fill="#38495B"/><path d="M544.578 539.25h-10.223v-23.367h10.223v23.367Z" fill="#FF6584"/><path d="M550.42 537.303v-21.42h10.223v23.367H550.42v-1.947ZM470.443 539.25H460.22v-23.367h10.223v23.367ZM476.285 537.303v-21.42h10.223v23.367h-10.223v-1.947Z" fill="#465C72"/><path d="M399.507 378.918h-8.763v-20.446h8.763v20.446ZM406.079 377.214v-18.742h8.762v20.446h-8.762v-1.704ZM399.507 420.432h-8.763v-20.446h8.763V420.432ZM406.079 418.729v-18.743h8.762v20.446h-8.762v-1.703ZM399.507 461.948h-8.763v-20.446h8.763v20.446ZM406.079 460.244v-18.742h8.762v20.446h-8.762v-1.704ZM399.507 503.463h-8.763v-20.446h8.763v20.446ZM406.079 501.759v-18.742h8.762v20.446h-8.762v-1.704Z" fill="#BBCFE2"/><path d="M460.221 358.472h100.422v20.757H460.221v-20.757ZM460.221 399.986h100.422v20.758H460.221v-20.758Z" fill="#465C72"/><path d="M460.221 441.502h100.422v20.757H460.221v-20.757Z" fill="#FF6584"/><path d="M460.221 483.017h100.422v20.757H460.221v-20.757Z" fill="#465C72"/><path d="M604.54 427.445h2.17v119.709h-2.17V427.445ZM602.48 569.549h6.95c.968-6.406-1.493-18.999-2.074-21.822-.078-.369-.122-.569-.122-.569h-2.78a2.025 2.025 0 0 0-.434.65c-1.911 4.085-1.54 21.741-1.54 21.741Z" fill="#38495B"/><path d="M605.626 547.743c-1.294 0-2.343-.623-2.343-1.39 0-.768 1.049-1.39 2.343-1.39 1.293 0 2.342.622 2.342 1.39 0 .767-1.049 1.39-2.342 1.39Z" fill="#8597A8"/><path d="m615.922 408.163-8.249-3.951-12.165 2.911 9.439-7.137 10.975 8.177Z" fill="#0E8AFD"/><path d="m613.508 409.428 2.414-1.265-8.248-3.951-12.165 2.911 2.139 1.04 10.026-2.249 5.834 3.514Z" fill="#465C72"/><path opacity=".5" d="m613.839 408.494-6.643 18.605h-3.292l-6.146-19.758 9.916-2.305 6.165 3.458Z" fill="#FF6584"/><path d="m602.276 421.861 1.312 4.22.316 1.018h3.292l.246-.687 1.549-4.348-2.489-1.496-4.226 1.293Z" fill="#0E8AFD"/><path opacity=".5" d="m607.675 405.914-1.574 21.185h1.097l6.312-17.671-5.835-3.514Z" fill="#FF6584"/><path opacity=".1" d="m604.947 399.986 2.726 4.226 8.249 3.951-10.975-8.177ZM603.589 426.082l.312 1.018h3.298l.244-.687c-.372-.472-1.174-.797-2.111-.797a3.202 3.202 0 0 0-1.743.466Z" fill="#000"/><path d="M605.332 428.835c-1.293 0-2.342-.622-2.342-1.389 0-.768 1.049-1.39 2.342-1.39 1.294 0 2.343.622 2.343 1.39 0 .767-1.049 1.389-2.343 1.389Z" fill="#8597A8"/><path opacity=".4" d="m384.162 570.343 214.151-163.114 5.639 19.13-38.073 143.984H384.162Z" fill="#FF6584"/><path d="m458.112 315.396 10.208-8.16-57.168-50.995H266.19v44.876l93.919 63.234 98.003-48.955Z" fill="#38495B"/><path opacity=".1" d="m458.112 315.396 10.208-8.16-57.168-50.995H266.19v44.876l93.919 63.234 98.003-48.955Z" fill="#465C72"/><path opacity=".1" d="M239.757 284.846V257.26h19.247v6.756l7.183-7.775 46.96 50.995 18.376 12.239 28.491 207.968-42.969 42.928h-99.859V309.276l22.571-24.43Z" fill="#465C72"/><path d="M239.757 284.846V257.26h19.247v6.756l7.183-7.775 46.96 50.995 18.376 12.239 28.491 207.968-42.969 42.928h-99.859V309.276l22.571-24.43Z" fill="#EEF7FF"/><path d="M313.149 307.235H468.32V570.37H313.149V307.235Z" fill="#25323F"/><path d="M379.504 506.117h28.584v64.254h-28.584v-64.254Z" fill="#38495B"/><path d="M432.021 533.672h-12.055v-27.555h12.055v27.555ZM438.91 531.376v-25.259h12.055v27.555H438.91v-2.296Z" fill="#465C72"/><path d="M344.6 533.672h-12.055v-27.555H344.6v27.555Z" fill="#BBCFE2"/><path d="M351.488 531.376v-25.259h12.055v27.555h-12.055v-2.296Z" fill="#465C72"/><path d="M260.95 344.604h-10.333v-24.11h10.333v24.11ZM268.7 342.596v-22.102h10.333v24.11H268.7v-2.008ZM260.95 393.561h-10.333V369.45h10.333v24.111ZM268.7 391.552V369.45h10.333v24.111H268.7v-2.009ZM260.95 442.516h-10.333v-24.111h10.333v24.111ZM268.7 440.507v-22.102h10.333v24.111H268.7v-2.009ZM260.95 491.472h-10.333v-24.111h10.333v24.111ZM268.7 489.463v-22.102h10.333v24.111H268.7v-2.009Z" fill="#BBCFE2"/><path d="M332.545 320.494h118.42v24.478h-118.42v-24.478ZM332.545 369.45h118.42v24.478h-118.42V369.45ZM332.545 418.405h118.42v24.478h-118.42v-24.478ZM332.545 467.361h118.42v24.478h-118.42v-24.478Z" fill="#465C72"/><path d="M497.399 391.815h2.712v149.557h-2.712V391.815ZM494.827 569.351h8.682c1.21-8.004-1.865-23.736-2.591-27.264l-.152-.71h-3.473a2.533 2.533 0 0 0-.543.812c-2.388 5.103-1.923 27.162-1.923 27.162Z" fill="#38495B"/><path d="M498.757 542.107c-1.617 0-2.927-.777-2.927-1.736s1.31-1.736 2.927-1.736c1.616 0 2.926.777 2.926 1.736s-1.31 1.736-2.926 1.736Z" fill="#8597A8"/><path d="m511.619 367.725-10.305-4.936-15.199 3.637 11.792-8.916 13.712 10.215Z" fill="#0E8AFD"/><path d="m508.604 369.305 3.016-1.58-10.305-4.936-15.198 3.637 2.673 1.299 12.525-2.809 7.289 4.389Z" fill="#465C72"/><path opacity=".5" d="m509.018 368.138-8.3 23.244h-4.113l-7.679-24.684 12.389-2.88 7.703 4.32Z" fill="#FF6584"/><path d="m494.572 384.839 1.639 5.272.394 1.272h4.113l.308-.859 1.935-5.431-3.109-1.869-5.28 1.615Z" fill="#0E8AFD"/><path opacity=".5" d="m501.317 364.916-1.967 26.467h1.37l7.886-22.077-7.289-4.39Z" fill="#FF6584"/><path opacity=".1" d="m497.907 357.51 3.407 5.279 10.305 4.936-13.712-10.215ZM496.21 390.112l.391 1.272h4.12l.305-.859c-.465-.589-1.468-.995-2.638-.995a4.016 4.016 0 0 0-2.178.582Z" fill="#000"/><path d="M498.391 393.552c-1.617 0-2.927-.777-2.927-1.736s1.31-1.737 2.927-1.737c1.616 0 2.926.778 2.926 1.737 0 .959-1.31 1.736-2.926 1.736Z" fill="#8597A8"/><path opacity=".4" d="M222.073 570.343 489.62 366.558l7.045 23.9-47.566 179.885H222.073Z" fill="#FF6584"/><path d="M170.88 552.008C173.795 562.501 183.777 569 183.777 569s5.257-10.514 2.343-21.008C183.205 537.499 173.223 531 173.223 531s-5.257 10.514-2.343 21.008Z" fill="#8597A8"/><path d="M175.014 549.382C183.022 557.114 184 569 184 569s-12.006-.65-20.014-8.382C155.978 552.886 155 541 155 541s12.006.65 20.014 8.382Z" fill="#F5F9FE"/><path d="M322.594 117.185c-26.862.124-48.727.521-48.727.521s25.99-34.394 48.63-21.652c22.64 12.743 48.647 21.204 48.647 21.204s-21.687-.196-48.55-.073ZM72.824 169.584c-26.863.124-48.728.52-48.728.52s25.99-34.394 48.63-21.651c22.64 12.743 48.648 21.203 48.648 21.203s-21.688-.196-48.55-.072ZM344.258 274.261l11.856-9.476-66.391-59.222H121.374v52.116l109.071 73.435 113.813-56.853Z" fill="#38495B"/><path opacity=".1" d="m344.258 274.261 11.856-9.476-66.391-59.222H121.374v52.116l109.071 73.435 113.813-56.853Z" fill="#465C72"/><path opacity=".1" d="M90.678 238.783v-32.036h22.352v7.845l8.342-9.029 54.535 59.222 21.34 14.214 33.089 241.518-49.901 49.854H64.465V267.154l26.213-28.371Z" fill="#465C72"/><path d="M90.678 238.783v-32.036h22.352v7.845l8.342-9.029 54.535 59.222 21.34 14.214 33.089 241.518-49.901 49.854H64.465V267.154l26.213-28.371Z" fill="#465C72"/><path d="M175.91 264.785h180.204V570.37H175.91V264.785Z" fill="#25323F"/><path d="M252.969 495.751h33.196v74.62h-33.196v-74.62Z" fill="#38495B"/><path d="M313.959 527.751h-14v-32h14v32ZM321.959 525.085v-29.334h14v32h-14v-2.666ZM212.434 527.751h-14v-32h14v32ZM220.434 525.085v-29.334h14v32h-14v-2.666Z" fill="#465C72"/><path d="M115.29 308.183h-12v-28h12v28Z" fill="#FF6584"/><path d="M124.29 305.85v-25.667h12v28h-12v-2.333ZM115.29 365.036h-12v-28h12v28ZM124.29 362.703v-25.667h12v28h-12v-2.333ZM115.29 421.89h-12v-28h12v28ZM124.29 419.557V393.89h12v28h-12v-2.333ZM115.29 478.743h-12v-28h12v28ZM124.29 476.41v-25.667h12v28h-12v-2.333Z" fill="#38495B"/><path d="M198.434 280.183h137.525v28.426H198.434v-28.426Z" fill="#465C72"/><path d="M198.434 337.036h137.525v28.427H198.434v-28.427Z" fill="#FF6584"/><path d="M198.434 393.89h137.525v28.426H198.434V393.89ZM198.434 450.743h137.525v28.427H198.434v-28.427Z" fill="#465C72"/><path d="M387.657 350.334h3.342v184.308h-3.342V350.334ZM384.487 569.121h10.699c1.491-9.863-2.298-29.251-3.193-33.598-.12-.568-.187-.876-.187-.876h-4.28a3.118 3.118 0 0 0-.669 1.001c-2.943 6.289-2.37 33.473-2.37 33.473Z" fill="#38495B"/><path d="M389.329 535.547c-1.992 0-3.606-.958-3.606-2.14 0-1.181 1.614-2.139 3.606-2.139 1.992 0 3.607.958 3.607 2.139 0 1.182-1.615 2.14-3.607 2.14Z" fill="#8597A8"/><path d="m405.181 320.646-12.699-6.083-18.73 4.481 14.532-10.987 16.897 12.589Z" fill="#0E8AFD"/><path d="m401.465 322.593 3.717-1.947-12.7-6.084-18.73 4.482 3.294 1.602 15.436-3.463 8.983 5.41Z" fill="#465C72"/><path opacity=".5" d="m401.974 321.155-10.228 28.646h-5.068l-9.463-30.42 15.267-3.549 9.492 5.323Z" fill="#FF6584"/><path d="m384.173 341.737 2.02 6.497.485 1.567h5.069l.379-1.058 2.386-6.694-3.833-2.303-6.506 1.991Z" fill="#0E8AFD"/><path opacity=".5" d="m392.484 317.184-2.423 32.617h1.687l9.719-27.208-8.983-5.409Z" fill="#FF6584"/><path opacity=".1" d="m388.284 308.057 4.198 6.506 12.699 6.083-16.897-12.589ZM386.191 348.234l.481 1.567h5.078l.375-1.058c-.572-.726-1.808-1.226-3.25-1.226a4.936 4.936 0 0 0-2.684.717Z" fill="#000"/><path d="M388.878 352.474c-1.991 0-3.606-.958-3.606-2.14 0-1.182 1.615-2.14 3.606-2.14 1.992 0 3.607.958 3.607 2.14 0 1.182-1.615 2.14-3.607 2.14Z" fill="#8597A8"/><path opacity=".4" d="m48.355 570.342 329.714-251.136 8.682 29.454-58.618 221.682H48.355Z" fill="#FF6584"/><path d="M660 569H0v2h660v-2Z" fill="#465C72"/><path d="M100.927 431.789h-4.24V570h4.24V431.789Z" fill="#38495B"/><path d="M132.298 449.438c.221 48.235-33.516 87.493-33.516 87.493s-34.095-38.944-34.316-87.178c-.22-48.234 33.516-87.493 33.516-87.493s34.095 38.944 34.316 87.178Z" fill="#F5F9FE"/><path d="M132.298 449.438c.221 48.235-33.516 87.493-33.516 87.493s-34.095-38.944-34.316-87.178c-.22-48.234 33.516-87.493 33.516-87.493s34.095 38.944 34.316 87.178Z" fill="#38495B"/><path d="M52.594 419.07h-4.24V570h4.24V419.07Z" fill="#465C72"/><path d="M88.206 437.977c.246 52.683-37.286 95.563-37.286 95.563s-37.93-42.536-38.176-95.219c-.246-52.683 37.286-95.563 37.286-95.563s37.93 42.536 38.176 95.219Z" fill="#568DC4"/><path d="M468 159.998c17.413 0 31.529-14.103 31.529-31.499S485.413 97 468 97c20.972 13 23.972 49 0 62.998Z" fill="#FF6584"/></svg>