<svg width="660" height="777" viewBox="0 0 660 777" fill="none" xmlns="http://www.w3.org/2000/svg">
<path d="M315.53 448.16L314.375 446.16H316.684H335.373H337.682L336.528 448.159L327.188 464.347L326.034 466.348L324.878 464.348L315.53 448.16ZM307.496 442.19L323.263 469.497L324.418 471.497H322.108H305.411H304.641L304.256 470.83L284.494 436.601L264.736 470.83L264.351 471.497H263.581H63.1398H61.9383L61.8136 470.302L57.4667 428.626L57.3132 427.155H58.7929H87.6945V421.527H58.3314H56.998V420.194V379.389V378.055H58.3314H87.6945V372.428H58.7841H57.3074L57.4577 370.959L66.213 285.383L66.3356 284.186H67.5394H597.233H598.44L598.56 285.387L607.113 370.962L607.26 372.428H605.787H571.483V378.055H606.23H607.564V379.389V420.194V421.527H606.23H571.483V427.155H605.501H607.065L606.817 428.699L600.146 470.375L599.966 471.497H598.829H391.092H390.322L389.937 470.83L370.175 436.601L350.421 470.83L350.036 471.497H349.266H329.949H327.64L328.795 469.497L344.562 442.19H307.496ZM369.02 446.541L370.174 444.54L371.329 446.541L384.585 469.497L385.74 471.497H383.431H356.927H354.619L355.773 469.497L369.02 446.541ZM283.339 446.541L284.493 444.54L285.648 446.541L298.904 469.497L300.059 471.497H297.75H271.246H268.937L270.091 469.497L283.339 446.541ZM608.435 469.953L615.683 424.664V375.038L605.784 276.071H59.0035L48.8831 375.035V424.551L53.6228 470.025L53.6228 470.026L54.6233 479.612H606.891L608.435 469.953ZM333.064 448.826H318.994L326.033 461.014L333.064 448.826ZM381.121 468.83L370.175 449.874L359.236 468.83H381.121ZM295.44 468.83L284.494 449.874L273.555 468.83H295.44Z" fill="#BBCFE2" stroke="#38495B" stroke-width="2"/>
<path d="M187.241 372.424H173.316V378.051H187.241V372.424Z" fill="#BBCFE2" stroke="#38495B" stroke-width="2"/>
<path d="M336.546 372.424H322.625V378.051H336.546V372.424Z" fill="#BBCFE2" stroke="#38495B" stroke-width="2"/>
<path d="M123.541 378.051H162.352V372.424H123.541V378.051Z" fill="#BBCFE2" stroke="#38495B" stroke-width="2"/>
<path d="M460.976 372.424H422.165V378.051H460.976V372.424Z" fill="#BBCFE2" stroke="#38495B" stroke-width="2"/>
<path d="M112.578 372.424H98.6568V378.051H112.578V372.424Z" fill="#BBCFE2" stroke="#38495B" stroke-width="2"/>
<path d="M485.861 372.424H471.94V378.051H485.861V372.424Z" fill="#BBCFE2" stroke="#38495B" stroke-width="2"/>
<path d="M386.324 372.424H347.512V378.051H386.324V372.424Z" fill="#BBCFE2" stroke="#38495B" stroke-width="2"/>
<path d="M411.205 372.424H397.284V378.051H411.205V372.424Z" fill="#BBCFE2" stroke="#38495B" stroke-width="2"/>
<path d="M535.629 372.424H496.818V378.051H535.629V372.424Z" fill="#BBCFE2" stroke="#38495B" stroke-width="2"/>
<path d="M560.514 372.424H546.593V378.051H560.514V372.424Z" fill="#BBCFE2" stroke="#38495B" stroke-width="2"/>
<path d="M311.661 372.424H272.85V378.051H311.661V372.424Z" fill="#BBCFE2" stroke="#38495B" stroke-width="2"/>
<path d="M198.197 378.051H237.008V372.424H198.197V378.051Z" fill="#BBCFE2" stroke="#38495B" stroke-width="2"/>
<path d="M261.893 372.424H247.972V378.051H261.893V372.424Z" fill="#BBCFE2" stroke="#38495B" stroke-width="2"/>
<path d="M237.008 421.528H198.197V427.155H237.008V421.528Z" fill="#BBCFE2" stroke="#38495B" stroke-width="2"/>
<path d="M496.821 427.155H535.632V421.528H496.821V427.155Z" fill="#BBCFE2" stroke="#38495B" stroke-width="2"/>
<path d="M460.976 421.528H422.165V427.155H460.976V421.528Z" fill="#BBCFE2" stroke="#38495B" stroke-width="2"/>
<path d="M272.853 427.155H311.664V421.528H272.853V427.155Z" fill="#BBCFE2" stroke="#38495B" stroke-width="2"/>
<path d="M485.861 421.528H471.94V427.155H485.861V421.528Z" fill="#BBCFE2" stroke="#38495B" stroke-width="2"/>
<path d="M347.512 427.155H386.324V421.528H347.512V427.155Z" fill="#BBCFE2" stroke="#38495B" stroke-width="2"/>
<path d="M322.625 427.155H336.546V421.528H322.625V427.155Z" fill="#BBCFE2" stroke="#38495B" stroke-width="2"/>
<path d="M411.205 421.528H397.284V427.155H411.205V421.528Z" fill="#BBCFE2" stroke="#38495B" stroke-width="2"/>
<path d="M187.241 421.528H173.316V427.155H187.241V421.528Z" fill="#BBCFE2" stroke="#38495B" stroke-width="2"/>
<path d="M247.972 427.155H261.893V421.528H247.972V427.155Z" fill="#BBCFE2" stroke="#38495B" stroke-width="2"/>
<path d="M112.578 421.528H98.6568V427.155H112.578V421.528Z" fill="#BBCFE2" stroke="#38495B" stroke-width="2"/>
<path d="M123.541 427.155H162.352V421.528H123.541V427.155Z" fill="#BBCFE2" stroke="#38495B" stroke-width="2"/>
<path d="M560.514 421.528H546.593V427.155H560.514V421.528Z" fill="#BBCFE2" stroke="#38495B" stroke-width="2"/>
<path d="M290.244 408.986H287.935L289.089 406.986L293.242 399.787L294.396 397.787L295.551 399.785L299.714 406.985L300.87 408.986H298.559H290.244ZM281.059 412.956H307.743L294.397 389.85L281.059 412.956Z" fill="#BBCFE2" stroke="#38495B" stroke-width="2"/>
<path d="M353.291 399.786L354.446 397.786L355.6 399.787L359.754 406.986L360.908 408.986H358.599H350.288H347.978L349.133 406.986L353.291 399.786ZM354.445 389.846L341.104 412.952H367.787L354.445 389.846Z" fill="#BBCFE2" stroke="#38495B" stroke-width="2"/>
<path d="M329.633 392.945H331.941L330.788 394.944L326.634 402.144L325.481 404.143L324.325 402.145L320.163 394.945L319.006 392.945H321.317H329.633ZM312.137 388.974L325.479 412.084L338.817 388.974H312.137Z" fill="#BBCFE2" stroke="#38495B" stroke-width="2"/>
<path d="M233.199 399.787L234.354 397.785L235.509 399.787L239.663 406.986L240.816 408.986H238.508H230.201H227.892L229.046 406.986L233.199 399.787ZM234.354 389.846L221.012 412.952H247.696L234.354 389.846Z" fill="#BBCFE2" stroke="#38495B" stroke-width="2"/>
<path d="M260.119 394.944L258.966 392.944H261.274H269.59H271.901L270.744 394.945L266.582 402.144L265.426 404.143L264.273 402.143L260.119 394.944ZM252.09 388.974L265.428 412.08L278.774 388.974H252.09Z" fill="#BBCFE2" stroke="#38495B" stroke-width="2"/>
<path d="M208.923 399.809L207.769 401.813L206.613 399.81L204.477 396.109L203.323 394.109H205.632H209.9H212.206L211.055 396.108L208.923 399.809ZM196.443 390.139L207.768 409.75L219.088 390.139H196.443Z" fill="#BBCFE2" stroke="#38495B" stroke-width="2"/>
<path d="M177.008 400.66L178.162 398.656L179.318 400.659L181.454 404.36L182.608 406.36H180.299H176.031H173.724L174.876 404.361L177.008 400.66ZM178.163 390.718L166.842 410.33H189.487L178.163 390.718Z" fill="#BBCFE2" stroke="#38495B" stroke-width="2"/>
<path d="M152.187 393.974H136.483L144.335 407.573L152.187 393.974Z" fill="#BBCFE2" stroke="#38495B" stroke-width="2"/>
<path d="M106.879 406.495H122.584L114.731 392.896L106.879 406.495Z" fill="#BBCFE2" stroke="#38495B" stroke-width="2"/>
<path d="M555.933 393.975L563.785 407.574L571.641 393.975H555.933Z" fill="#BBCFE2" stroke="#38495B" stroke-width="2"/>
<path d="M534.187 392.896L526.335 406.495H542.04L534.187 392.896Z" fill="#BBCFE2" stroke="#38495B" stroke-width="2"/>
<path d="M595.019 405.337L589.465 395.712L583.907 405.337H595.019Z" fill="#BBCFE2" stroke="#38495B" stroke-width="2"/>
<path d="M76.5063 395.859L82.0643 405.485L87.6222 395.859H76.5063Z" fill="#BBCFE2" stroke="#38495B" stroke-width="2"/>
<path d="M591.8 352.808L586.246 343.183L580.688 352.808H591.8Z" fill="#BBCFE2" stroke="#38495B" stroke-width="2"/>
<path d="M76.5063 343.332L82.0643 352.958L87.6222 343.332H76.5063Z" fill="#BBCFE2" stroke="#38495B" stroke-width="2"/>
<path d="M591.804 315.562L586.246 305.937L580.688 315.562H591.804Z" fill="#BBCFE2" stroke="#38495B" stroke-width="2"/>
<path d="M76.5063 306.088L82.0643 315.713L87.6222 306.088H76.5063Z" fill="#BBCFE2" stroke="#38495B" stroke-width="2"/>
<path d="M504.845 399.81L503.689 401.813L502.534 399.809L500.403 396.108L499.251 394.109H501.558H505.826H508.135L506.981 396.109L504.845 399.81ZM492.369 390.139L503.69 409.75L515.014 390.139H492.369Z" fill="#BBCFE2" stroke="#38495B" stroke-width="2"/>
<path d="M471.953 406.359H469.644L470.799 404.359L472.935 400.658L474.088 398.659L475.244 400.657L477.384 404.358L478.541 406.359H476.23H471.953ZM462.769 410.329H485.414L474.09 390.722L462.769 410.329Z" fill="#BBCFE2" stroke="#38495B" stroke-width="2"/>
<path d="M389.426 392.945H391.735L390.581 394.944L386.428 402.144L385.273 404.144L384.118 402.144L379.96 394.945L378.805 392.945H381.115H389.426ZM371.93 388.974L385.272 412.084L398.611 388.974H371.93Z" fill="#BBCFE2" stroke="#38495B" stroke-width="2"/>
<path d="M413.367 399.786L414.522 397.786L415.677 399.787L419.83 406.986L420.984 408.986H418.675H410.364H408.054L409.209 406.986L413.367 399.786ZM414.522 389.846L401.18 412.952H427.864L414.522 389.846Z" fill="#BBCFE2" stroke="#38495B" stroke-width="2"/>
<path d="M440.042 394.944L438.889 392.944H441.197H449.509H451.818L450.663 394.944L446.505 402.144L445.35 404.144L444.196 402.143L440.042 394.944ZM432.013 388.974L445.351 412.079L458.693 388.974H432.013Z" fill="#BBCFE2" stroke="#38495B" stroke-width="2"/>
<path d="M230.199 458.367H227.891L229.044 456.368L233.198 449.168L234.352 447.168L235.508 449.168L239.665 456.367L240.821 458.367H238.511H230.199ZM221.015 462.338H247.695L234.353 439.228L221.015 462.338Z" fill="#BBCFE2" stroke="#38495B" stroke-width="2"/>
<path d="M204.476 445.492L203.321 443.492H205.631H209.903H212.212L211.058 445.492L208.921 449.193L207.767 451.194L206.612 449.193L204.476 445.492ZM196.446 439.522L207.767 459.129L219.087 439.522H196.446Z" fill="#BBCFE2" stroke="#38495B" stroke-width="2"/>
<path d="M176.03 455.74H173.723L174.875 453.742L177.007 450.041L178.16 448.039L179.316 450.039L181.457 453.74L182.614 455.74H180.302H176.03ZM166.845 459.711H189.486L178.162 440.1L166.845 459.711Z" fill="#BBCFE2" stroke="#38495B" stroke-width="2"/>
<path d="M136.48 443.358L144.332 456.957L152.188 443.358H136.48Z" fill="#BBCFE2" stroke="#38495B" stroke-width="2"/>
<path d="M114.735 442.274L106.879 455.877H122.584L114.735 442.274Z" fill="#BBCFE2" stroke="#38495B" stroke-width="2"/>
<path d="M555.933 443.358L563.785 456.957L571.641 443.358H555.933Z" fill="#BBCFE2" stroke="#38495B" stroke-width="2"/>
<path d="M534.187 442.274L526.335 455.877H542.04L534.187 442.274Z" fill="#BBCFE2" stroke="#38495B" stroke-width="2"/>
<path d="M589.465 445.093L583.907 454.718H595.023L589.465 445.093Z" fill="#BBCFE2" stroke="#38495B" stroke-width="2"/>
<path d="M76.5063 445.241L82.0643 454.867L87.6222 445.241H76.5063Z" fill="#BBCFE2" stroke="#38495B" stroke-width="2"/>
<path d="M504.845 449.192L503.689 451.194L502.534 449.191L500.403 445.49L499.251 443.491H501.558H505.826H508.135L506.981 445.491L504.845 449.192ZM492.369 439.521L503.69 459.132L515.014 439.521H492.369Z" fill="#BBCFE2" stroke="#38495B" stroke-width="2"/>
<path d="M471.953 455.74H469.644L470.799 453.741L472.935 450.04L474.088 448.041L475.244 450.039L477.384 453.74L478.541 455.74H476.23H471.953ZM462.769 459.711H485.414L474.09 440.099L462.769 459.711Z" fill="#BBCFE2" stroke="#38495B" stroke-width="2"/>
<path d="M410.366 458.367H408.056L409.212 456.367L413.369 449.168L414.524 447.169L415.679 449.168L419.837 456.367L420.992 458.367H418.682H410.366ZM401.186 462.338H427.866L414.524 439.228L401.186 462.338Z" fill="#BBCFE2" stroke="#38495B" stroke-width="2"/>
<path d="M440.042 444.325L438.889 442.325H441.197H449.509H451.818L450.663 444.326L446.505 451.525L445.35 453.525L444.196 451.524L440.042 444.325ZM432.013 438.355L445.351 461.465L458.693 438.355H432.013Z" fill="#BBCFE2" stroke="#38495B" stroke-width="2"/>
<path d="M287.025 356.371H284.716L285.87 354.372L290.023 347.172L291.177 345.173L292.332 347.171L296.495 354.371L297.651 356.371H295.34H287.025ZM277.84 360.341H304.524L291.178 337.232L277.84 360.341Z" fill="#BBCFE2" stroke="#38495B" stroke-width="2"/>
<path d="M350.072 347.172L351.227 345.171L352.381 347.172L356.535 354.372L357.689 356.371H355.38H347.069H344.759L345.914 354.371L350.072 347.172ZM351.226 337.232L337.884 360.341H364.569L351.226 337.232Z" fill="#BBCFE2" stroke="#38495B" stroke-width="2"/>
<path d="M316.943 342.329L315.788 340.328H318.098H326.414H328.724L327.569 342.329L323.411 349.528L322.256 351.527L321.101 349.528L316.943 342.329ZM308.918 336.358L322.256 359.468L335.598 336.358H308.918Z" fill="#BBCFE2" stroke="#38495B" stroke-width="2"/>
<path d="M229.98 347.172L231.135 345.17L232.29 347.172L236.443 354.372L237.597 356.371H235.288H226.981H224.673L225.826 354.372L229.98 347.172ZM231.135 337.232L217.793 360.341H244.477L231.135 337.232Z" fill="#BBCFE2" stroke="#38495B" stroke-width="2"/>
<path d="M256.901 342.329L255.745 340.328H258.055H266.371H268.681L267.526 342.329L263.368 349.528L262.213 351.527L261.058 349.528L256.901 342.329ZM248.871 336.358L262.213 359.468L275.555 336.358H248.871Z" fill="#BBCFE2" stroke="#38495B" stroke-width="2"/>
<path d="M206.681 341.493H208.987L207.836 343.492L205.704 347.193L204.551 349.194L203.395 347.195L201.254 343.494L200.097 341.493H202.408H206.681ZM193.224 337.523L204.548 357.134L215.865 337.523H193.224Z" fill="#BBCFE2" stroke="#38495B" stroke-width="2"/>
<path d="M173.789 348.043L174.943 346.039L176.099 348.042L178.235 351.743L179.389 353.742H177.08H172.812H170.506L171.657 351.744L173.789 348.043ZM174.944 338.101L163.624 357.713H186.269L174.944 338.101Z" fill="#BBCFE2" stroke="#38495B" stroke-width="2"/>
<path d="M141.112 354.96L148.968 341.357H133.263L141.112 354.96Z" fill="#BBCFE2" stroke="#38495B" stroke-width="2"/>
<path d="M111.515 340.28L103.663 353.879H119.364L111.515 340.28Z" fill="#BBCFE2" stroke="#38495B" stroke-width="2"/>
<path d="M560.565 354.96L568.421 341.357H552.716L560.565 354.96Z" fill="#BBCFE2" stroke="#38495B" stroke-width="2"/>
<path d="M538.825 353.878L530.969 340.278L523.116 353.878H538.825Z" fill="#BBCFE2" stroke="#38495B" stroke-width="2"/>
<path d="M502.61 341.493H504.919L503.765 343.493L501.628 347.194L500.474 349.194L499.319 347.194L497.183 343.493L496.028 341.493H498.338H502.61ZM489.153 337.523L500.474 357.134L511.794 337.523H489.153Z" fill="#BBCFE2" stroke="#38495B" stroke-width="2"/>
<path d="M469.719 348.042L470.874 346.041L472.028 348.042L474.164 351.743L475.319 353.742H473.01H468.737H466.428L467.583 351.743L469.719 348.042ZM470.874 338.101L459.553 357.713H482.198L470.874 338.101Z" fill="#BBCFE2" stroke="#38495B" stroke-width="2"/>
<path d="M383.208 349.526L382.053 351.528L380.898 349.526L376.745 342.327L375.591 340.327H377.9H386.207H388.515L387.362 342.327L383.208 349.526ZM368.711 336.362L382.053 359.467L395.395 336.362H368.711Z" fill="#BBCFE2" stroke="#38495B" stroke-width="2"/>
<path d="M407.151 356.371H404.843L405.996 354.372L410.15 347.172L411.304 345.171L412.459 347.172L416.617 354.371L417.772 356.371H415.462H407.151ZM397.967 360.341H424.647L411.305 337.232L397.967 360.341Z" fill="#BBCFE2" stroke="#38495B" stroke-width="2"/>
<path d="M446.286 340.328H448.595L447.441 342.328L443.288 349.527L442.134 351.528L440.978 349.528L436.82 342.329L435.665 340.328H437.975H446.286ZM428.791 336.358L442.133 359.468L455.471 336.358H428.791Z" fill="#BBCFE2" stroke="#38495B" stroke-width="2"/>
<path d="M296.492 315.417L297.647 317.417H295.337H287.021H284.711L285.867 315.417L290.024 308.218L291.179 306.218L292.334 308.218L296.492 315.417ZM277.837 321.387H304.521L291.179 298.282L277.837 321.387Z" fill="#BBCFE2" stroke="#38495B" stroke-width="2"/>
<path d="M356.535 315.418L357.689 317.417H355.38H347.064H344.753L345.91 315.417L350.072 308.217L351.228 306.218L352.381 308.218L356.535 315.418ZM337.885 321.387H364.564L351.226 298.282L337.885 321.387Z" fill="#BBCFE2" stroke="#38495B" stroke-width="2"/>
<path d="M326.414 301.376H328.722L327.569 303.375L323.415 310.575L322.262 312.574L321.106 310.576L316.944 303.376L315.787 301.376H318.098H326.414ZM308.918 297.406L322.26 320.511L335.598 297.406H308.918Z" fill="#BBCFE2" stroke="#38495B" stroke-width="2"/>
<path d="M236.443 315.418L237.597 317.417H235.288H226.977H224.667L225.822 315.417L229.98 308.218L231.135 306.217L232.29 308.218L236.443 315.418ZM217.793 321.387H244.473L231.134 298.282L217.793 321.387Z" fill="#BBCFE2" stroke="#38495B" stroke-width="2"/>
<path d="M266.368 301.376H268.676L267.522 303.375L263.369 310.575L262.215 312.574L261.06 310.576L256.897 303.376L255.741 301.376H258.052H266.368ZM248.868 297.406L262.214 320.511L275.552 297.406H248.868Z" fill="#BBCFE2" stroke="#38495B" stroke-width="2"/>
<path d="M206.681 302.541H208.987L207.836 304.54L205.704 308.24L204.551 310.242L203.395 308.243L201.254 304.542L200.097 302.541H202.408H206.681ZM193.224 298.571L204.548 318.182L215.865 298.571H193.224Z" fill="#BBCFE2" stroke="#38495B" stroke-width="2"/>
<path d="M173.789 309.091L174.943 307.087L176.099 309.09L178.235 312.79L179.389 314.79H177.08H172.812H170.506L171.657 312.791L173.789 309.091ZM174.944 299.149L163.624 318.76H186.269L174.944 299.149Z" fill="#BBCFE2" stroke="#38495B" stroke-width="2"/>
<path d="M141.112 316.004L148.968 302.405H133.263L141.112 316.004Z" fill="#BBCFE2" stroke="#38495B" stroke-width="2"/>
<path d="M119.369 314.925L111.513 301.326L103.66 314.925H119.369Z" fill="#BBCFE2" stroke="#38495B" stroke-width="2"/>
<path d="M560.565 316.004L568.421 302.405H552.716L560.565 316.004Z" fill="#BBCFE2" stroke="#38495B" stroke-width="2"/>
<path d="M538.825 314.925L530.969 301.326L523.116 314.925H538.825Z" fill="#BBCFE2" stroke="#38495B" stroke-width="2"/>
<path d="M502.61 302.541H504.919L503.765 304.541L501.628 308.242L500.474 310.242L499.319 308.242L497.183 304.541L496.028 302.541H498.338H502.61ZM489.153 298.571L500.474 318.182L511.794 298.571H489.153Z" fill="#BBCFE2" stroke="#38495B" stroke-width="2"/>
<path d="M474.164 312.79L475.319 314.79H473.01H468.733H466.422L467.579 312.789L469.719 309.089L470.875 307.091L472.028 309.09L474.164 312.79ZM459.553 318.76H482.194L470.874 299.153L459.553 318.76Z" fill="#BBCFE2" stroke="#38495B" stroke-width="2"/>
<path d="M386.207 301.376H388.515L387.362 303.375L383.208 310.575L382.054 312.576L380.899 310.575L376.741 303.376L375.586 301.376H377.895H386.207ZM368.711 297.406L382.053 320.511L395.391 297.406H368.711Z" fill="#BBCFE2" stroke="#38495B" stroke-width="2"/>
<path d="M416.614 315.418L417.768 317.417H415.46H407.148H404.838L405.994 315.417L410.151 308.218L411.307 306.217L412.461 308.218L416.614 315.418ZM397.964 321.387H424.644L411.306 298.282L397.964 321.387Z" fill="#BBCFE2" stroke="#38495B" stroke-width="2"/>
<path d="M446.286 301.376H448.595L447.441 303.375L443.288 310.575L442.134 312.576L440.978 310.575L436.82 303.376L435.665 301.376H437.975H446.286ZM428.791 297.406L442.133 320.511L455.471 297.406H428.791Z" fill="#BBCFE2" stroke="#38495B" stroke-width="2"/>
<path d="M660 478H0V480H660V478Z" fill="#8597A8"/>
<path d="M142.662 406.526C142.662 438.886 123.584 450.185 100.049 450.185C76.5149 450.185 57.4365 438.886 57.4365 406.526C57.4365 374.167 100.049 333 100.049 333C100.049 333 142.662 374.167 142.662 406.526Z" fill="#465C72"/>
<path d="M98.5633 438.586L98.9947 424.518L116.79 394.805L99.062 420.751L99.2541 409.951L111.518 388.453L99.3051 407.093L99.6508 387.67L108.918 375.377L99.6508 386.52L99.9213 361.614L98.5633 396.148L87.9517 380.662L98.4608 397.937L97.217 419.63L97.1799 419.054L81.7869 399.423L97.1332 421.088L96.9777 423.801L96.9498 423.842L96.9623 424.065L93.806 479.101H98.0233L98.5253 440.723L110.455 427.132L98.5633 438.586Z" fill="#38495B"/>
<path d="M568.678 391.639C568.678 430.637 545.686 444.254 517.324 444.254C488.962 444.254 465.97 430.637 465.97 391.639C465.97 352.642 517.324 303.03 517.324 303.03C517.324 303.03 568.678 352.642 568.678 391.639Z" fill="#465C72"/>
<path d="M515.533 430.275L516.053 413.322L537.499 377.513L516.134 408.782L516.365 395.767L531.145 369.859L516.427 392.322L516.843 368.915L528.012 354.1L516.843 367.529L517.169 337.515L515.533 379.133L502.744 360.47L515.409 381.288L513.91 407.431L513.866 406.737L495.315 383.08L513.809 409.189L513.622 412.458L513.588 412.507L513.603 412.775L509.8 479.101H514.882L515.487 432.851L529.864 416.473L515.533 430.275Z" fill="#38495B"/>
<path d="M321.5 561C399.096 561 462 555.18 462 548C462 540.82 399.096 535 321.5 535C243.904 535 181 540.82 181 548C181 555.18 243.904 561 321.5 561Z" fill="#25323F"/>
<path d="M342.595 251.846C338.341 239.228 324.658 232.445 312.032 236.694C299.407 240.943 292.62 254.616 296.874 267.234L306.543 295.916C310.797 308.534 324.48 315.318 337.106 311.069C349.731 306.819 356.518 293.146 352.264 280.528L342.595 251.846Z" fill="#FF6584"/>
<path opacity="0.1" d="M312.724 267.414C312.724 267.414 321.684 280.266 312.724 283.621C303.764 286.976 300.365 296.484 300.365 296.484C300.365 296.484 297.564 307.67 303.723 309.861C309.882 312.053 333.384 299.242 336.742 295.887C340.099 292.532 336.742 283.539 336.742 283.539C336.742 283.539 327.792 271.19 328.348 263.411C328.904 255.631 312.724 267.414 312.724 267.414Z" fill="black"/>
<path opacity="0.1" d="M317.205 410.007C317.205 410.007 308.78 440.724 313.291 445.231C313.847 445.787 328.956 449.707 339.039 460.893C345.183 467.672 352.597 473.182 360.862 477.111L351.902 486.609C351.902 486.609 332.334 470.957 319.975 468.158C307.616 465.359 294.794 455.81 294.794 452.506C294.794 449.203 303.188 407.229 303.188 407.229L317.205 410.007Z" fill="black"/>
<path d="M353.592 470.957C353.592 470.957 358.628 467.602 361.996 472.079C365.364 476.555 379.896 483.254 379.896 483.254C379.896 483.254 386.621 483.254 383.253 490.529L379.896 497.794L377.661 496.683C377.661 496.683 375.426 519.044 363.108 521.287C363.108 521.287 359.195 521.287 362.552 511.213C362.552 511.213 367.589 506.747 358.628 497.835C358.628 497.835 350.235 496.724 350.235 493.925C350.235 493.925 343.52 492.248 345.765 487.751C348.01 483.254 357.506 477.111 353.592 470.957Z" fill="#465C72"/>
<path d="M282.888 500.975C282.888 500.975 278.593 503.949 278.026 506.182C277.691 507.524 276.901 508.709 275.792 509.536C275.792 509.536 271.311 517.367 271.311 524.077C271.311 530.786 257.325 540.86 257.325 540.86C257.325 540.86 242.206 548.681 262.918 547.57C283.629 546.458 288.665 545.326 288.665 545.326V547.57C288.665 547.57 297.615 548.125 297.059 541.395C296.503 534.665 295.916 519.045 295.916 519.045C295.916 519.045 302.631 512.335 300.396 507.303C298.161 502.271 294.217 502.467 294.217 502.467C294.217 502.467 290.838 513.457 288.037 512.891C285.236 512.325 283.269 504.71 282.888 500.975Z" fill="#465C72"/>
<path d="M290.901 323.887L275.793 378.127C275.793 378.127 267.955 397.144 274.114 396.578C280.273 396.012 283.064 376.45 283.064 376.45L294.825 349.613L296.504 328.363L290.901 323.887Z" fill="#F3AEAE"/>
<path d="M318.05 271.601C326.394 271.601 333.159 264.843 333.159 256.505C333.159 248.168 326.394 241.409 318.05 241.409C309.706 241.409 302.941 248.168 302.941 256.505C302.941 264.843 309.706 271.601 318.05 271.601Z" fill="#FBBEBE"/>
<path opacity="0.1" d="M339.595 303.758L339.327 304.529C337.535 309.942 327.246 341.935 332.88 349.612C332.88 349.612 339.595 351.289 341.83 342.336C344.065 333.384 351.346 298.726 348.545 295.927C345.743 293.128 339.595 303.758 339.595 303.758Z" fill="black"/>
<path d="M327.021 238.446C325.841 238.389 324.66 238.535 323.53 238.878C322.673 237.301 321.413 235.98 319.879 235.047C318.344 234.115 316.59 233.605 314.795 233.57C312.999 233.535 311.227 233.976 309.657 234.848C308.088 235.72 306.777 236.992 305.859 238.534C304.942 240.076 304.449 241.834 304.432 243.628C304.415 245.422 304.874 247.189 305.762 248.748C306.65 250.308 307.936 251.604 309.488 252.506C311.041 253.408 312.805 253.882 314.6 253.882H315.115C315.843 253.837 316.571 253.955 317.248 254.225C317.924 254.495 318.533 254.912 319.029 255.446C320.155 256.679 321.568 257.617 323.143 258.174C324.718 258.732 326.407 258.894 328.059 258.644C329.711 258.394 331.276 257.742 332.616 256.744C333.956 255.746 335.028 254.433 335.739 252.922C336.45 251.411 336.777 249.748 336.691 248.08C336.606 246.413 336.11 244.792 335.248 243.362C334.386 241.932 333.184 240.736 331.749 239.88C330.314 239.024 328.69 238.535 327.021 238.456V238.446Z" fill="#FF6584"/>
<path d="M317.205 410.007C317.205 410.007 308.78 440.724 313.291 445.231C313.847 445.787 328.956 449.707 339.039 460.893C345.183 467.672 352.597 473.182 360.862 477.111L351.902 486.609C351.902 486.609 332.334 470.957 319.975 468.158C307.616 465.359 294.794 455.81 294.794 452.506C294.794 449.203 303.188 407.229 303.188 407.229L317.205 410.007Z" fill="#FBBEBE"/>
<path opacity="0.05" d="M317.205 410.007C317.205 410.007 308.78 440.724 313.291 445.231C313.847 445.787 328.956 449.707 339.039 460.893C345.183 467.672 352.597 473.182 360.862 477.111L351.902 486.609C351.902 486.609 332.334 470.957 319.975 468.158C307.616 465.359 294.794 455.81 294.794 452.506C294.794 449.203 303.188 407.229 303.188 407.229L317.205 410.007Z" fill="#25323F"/>
<path d="M288.1 421.748C288.1 421.748 285.865 432.934 284.186 434.611C282.507 436.289 282.507 441.876 284.186 447.989C285.865 454.101 286.987 489.367 281.385 506.706C275.782 524.045 289.222 516.214 289.222 516.214C289.222 516.214 306.576 473.149 304.331 452.414C302.086 431.679 323.899 409.349 323.899 409.349L297.06 404.409L288.1 421.748Z" fill="#FBBEBE"/>
<path d="M288.1 421.748C288.1 421.748 285.865 432.934 284.186 434.611C282.507 436.289 282.507 441.876 284.186 447.989C285.865 454.101 286.987 489.367 281.385 506.706C275.782 524.045 289.222 516.214 289.222 516.214C289.222 516.214 306.576 473.149 304.331 452.414C302.086 431.679 323.899 409.349 323.899 409.349L297.06 404.409L288.1 421.748Z" fill="#FBBEBE"/>
<path d="M305.454 302.081C305.454 302.081 303.167 290.247 309.903 284.979C309.903 284.979 301.54 284.186 299.861 286.419C299.861 286.419 289.778 286.975 289.778 293.694C289.778 300.414 288.666 308.791 288.1 309.902C287.533 311.013 285.309 316.076 288.666 327.797C292.024 339.518 297.935 344.858 294.536 351.012C293.475 353.178 292.606 355.434 291.941 357.752C288.82 367.849 287.547 378.425 288.182 388.973C288.779 398.955 288.439 413.228 283.032 422.283C274.083 437.379 337.885 413.341 339.008 408.309C340.131 403.277 341.799 389.848 339.564 382.583C338.216 377.861 337.834 372.916 338.441 368.043C338.441 368.043 342.922 347.915 331.17 336.729L346.835 290.319C346.835 290.319 340.12 283.044 335.084 283.6C330.048 284.155 305.454 302.081 305.454 302.081Z" fill="#0E8AFD"/>
<mask id="mask0" mask-type="alpha" maskUnits="userSpaceOnUse" x="282" y="283" width="65" height="145">
<path d="M305.454 302.081C305.454 302.081 303.167 290.247 309.903 284.979C309.903 284.979 301.54 284.186 299.861 286.419C299.861 286.419 289.778 286.975 289.778 293.694C289.778 300.414 288.666 308.791 288.1 309.902C287.533 311.013 285.309 316.076 288.666 327.797C292.024 339.518 297.935 344.858 294.536 351.012C293.475 353.178 292.606 355.434 291.941 357.752C288.82 367.849 287.547 378.425 288.182 388.973C288.779 398.955 288.439 413.228 283.032 422.283C274.083 437.379 337.885 413.341 339.008 408.309C340.131 403.277 341.799 389.848 339.564 382.583C338.216 377.861 337.834 372.916 338.441 368.043C338.441 368.043 342.922 347.915 331.17 336.729L346.835 290.319C346.835 290.319 340.12 283.044 335.084 283.6C330.048 284.155 305.454 302.081 305.454 302.081Z" fill="#0E8AFD"/>
</mask>
<g mask="url(#mask0)">
<path opacity="0.1" d="M325 380C306.5 390 288 409.5 280 427.5L309.5 431L338 378H335.5C335.5 378 343.5 370 325 380Z" fill="#25323F"/>
</g>
<path d="M339.595 303.758L339.327 304.529C337.535 309.942 327.246 341.935 332.88 349.612C332.88 349.612 339.595 351.289 341.83 342.336C344.065 333.384 351.346 298.726 348.545 295.927C345.743 293.128 339.595 303.758 339.595 303.758Z" fill="#F3AEAE"/>
<path d="M346.866 289.774C346.866 289.774 351.346 291.452 350.223 295.949C349.101 300.446 336.834 308.812 336.834 308.812L335.712 299.303L346.866 289.774Z" fill="#0E8AFD"/>
<path d="M336.794 366.942C336.794 366.942 356.939 408.886 363.664 411.685C370.39 414.484 388.289 412.796 382.687 428.458C377.084 444.12 371.492 436.845 376.507 448.01C381.523 459.175 401.699 475.413 385.467 468.694C369.236 461.974 350.203 446.333 339.575 448.566C328.946 450.799 302.272 441.805 296.319 442.947C290.366 444.089 292.58 418.374 292.58 418.374L309.368 393.769L336.794 366.942Z" fill="#0E8AFD"/>
<mask id="mask1" mask-type="alpha" maskUnits="userSpaceOnUse" x="292" y="366" width="100" height="105">
<path d="M336.794 366.942C336.794 366.942 356.939 408.886 363.664 411.685C370.39 414.484 388.289 412.796 382.687 428.458C377.084 444.12 371.492 436.845 376.507 448.01C381.523 459.175 401.699 475.413 385.467 468.694C369.236 461.974 350.203 446.333 339.575 448.566C328.946 450.799 302.272 441.805 296.319 442.947C290.366 444.089 292.58 418.374 292.58 418.374L309.368 393.769L336.794 366.942Z" fill="#0E8AFD"/>
</mask>
<g mask="url(#mask1)">
<path opacity="0.1" d="M343.5 449.5L337.5 451.5C337.5 451.5 336.171 438.917 334.5 431C331.262 415.654 326.5 403.5 326.5 403.5C326.5 403.5 331.424 414.022 336.5 428C339.514 436.3 343.5 449.5 343.5 449.5Z" fill="#25323F"/>
<path opacity="0.1" d="M379.145 449.315L383.989 445.249C383.989 445.249 373.963 437.531 368.091 431.964C356.709 421.174 351 414.5 351 414.5C351 414.5 355.233 420.458 364.488 432.099C369.983 439.01 379.145 449.315 379.145 449.315Z" fill="#25323F"/>
</g>
<path d="M312.724 267.414C312.724 267.414 321.684 280.266 312.724 283.621C303.764 286.976 300.365 296.484 300.365 296.484C300.365 296.484 297.564 307.67 303.723 309.861C309.882 312.053 333.384 299.242 336.742 295.887C340.099 292.532 336.742 283.539 336.742 283.539C336.742 283.539 327.792 271.19 328.348 263.411C328.904 255.631 312.724 267.414 312.724 267.414Z" fill="#FBBEBE"/>
<path d="M332.88 337.871C332.88 337.871 347.433 318.854 349.111 311.579C350.79 304.303 338.472 285.297 347.433 286.419C356.393 287.54 358.617 303.192 358.617 303.192C358.617 303.192 360.296 305.991 356.382 316.621C352.469 327.251 346.31 342.347 342.994 345.691C339.677 349.036 330.079 358.554 332.88 337.871Z" fill="#FBBEBE"/>
<path d="M27.4422 369.925H25.7888V461.147H27.4422V369.925Z" fill="#465C72"/>
<path d="M29.0108 478.212C28.2538 478.8 27.3226 479.119 26.3642 479.119C25.4057 479.119 24.4746 478.8 23.7176 478.212C22.9801 473.33 24.8547 463.734 25.2972 461.583C25.3567 461.302 25.39 461.149 25.39 461.149H27.5073C27.6486 461.291 27.761 461.459 27.838 461.644C29.2939 464.758 29.0108 478.212 29.0108 478.212Z" fill="#465C72"/>
<path opacity="0.1" d="M27.0695 459.179V461.149H26.1772V459.174C26.3212 459.151 26.4668 459.14 26.6127 459.141C26.7657 459.141 26.9185 459.154 27.0695 459.179Z" fill="black"/>
<path opacity="0.1" d="M27.8359 461.644C27.459 461.842 27.0384 461.941 26.6131 461.932C26.1495 461.943 25.6923 461.822 25.2952 461.583C25.3546 461.302 25.3879 461.149 25.3879 461.149H27.5052C27.6466 461.291 27.7589 461.459 27.8359 461.644Z" fill="black"/>
<path d="M26.6123 461.595C27.5977 461.595 28.3966 461.121 28.3966 460.536C28.3966 459.951 27.5977 459.477 26.6123 459.477C25.6269 459.477 24.8281 459.951 24.8281 460.536C24.8281 461.121 25.6269 461.595 26.6123 461.595Z" fill="#BBCFE2"/>
<path d="M18.7717 355.231L25.0545 352.22L34.3205 354.438L27.1313 349L18.7717 355.231Z" fill="#0E8AFD"/>
<path d="M20.6104 356.194L18.7715 355.23L25.0543 352.22L34.3203 354.438L32.6907 355.23L25.0543 353.517L20.6104 356.194Z" fill="#0E8AFD"/>
<path opacity="0.1" d="M20.6104 356.194L18.7715 355.23L25.0543 352.22L34.3203 354.438L32.6907 355.23L25.0543 353.517L20.6104 356.194Z" fill="black"/>
<path opacity="0.2" d="M20.3582 355.483L25.4181 369.661H27.9255L32.6073 354.605L25.0542 352.849L20.3582 355.483Z" fill="#F5F9FE"/>
<path d="M29.1646 365.67L28.1654 368.885L27.9251 369.661H25.4177L25.2298 369.138L24.0498 365.825L25.9458 364.685L29.1646 365.67Z" fill="#0E8AFD"/>
<path opacity="0.2" d="M25.0545 353.518L26.2535 369.661H25.4184L20.6106 356.195L25.0545 353.518Z" fill="#0E8AFD"/>
<path opacity="0.1" d="M27.1313 349L25.0545 352.22L18.7717 355.231L27.1313 349Z" fill="black"/>
<path opacity="0.1" d="M28.1641 368.885L27.9262 369.661H25.4141L25.2285 369.137C25.5116 368.778 26.123 368.53 26.8367 368.53C27.304 368.519 27.7647 368.642 28.1641 368.885Z" fill="black"/>
<path opacity="0.1" d="M27.071 369.925V371.307C26.9948 371.307 26.9163 371.307 26.8331 371.307C26.6111 371.309 26.3899 371.283 26.1741 371.231V369.915L27.071 369.925Z" fill="black"/>
<path d="M26.8379 370.984C27.8233 370.984 28.6222 370.51 28.6222 369.925C28.6222 369.34 27.8233 368.866 26.8379 368.866C25.8525 368.866 25.0537 369.34 25.0537 369.925C25.0537 370.51 25.8525 370.984 26.8379 370.984Z" fill="#BBCFE2"/>
<path d="M638.671 369.925H637.017V461.147H638.671V369.925Z" fill="#465C72"/>
<path d="M640.239 478.212C639.482 478.8 638.551 479.119 637.593 479.119C636.634 479.119 635.703 478.8 634.946 478.212C634.209 473.33 636.083 463.734 636.526 461.583C636.585 461.302 636.619 461.149 636.619 461.149H638.736C638.877 461.291 638.989 461.459 639.066 461.644C640.522 464.758 640.239 478.212 640.239 478.212Z" fill="#465C72"/>
<path opacity="0.1" d="M638.298 459.179V461.149H637.406V459.174C637.55 459.151 637.695 459.14 637.841 459.141C637.994 459.141 638.147 459.154 638.298 459.179Z" fill="black"/>
<path opacity="0.1" d="M639.064 461.644C638.687 461.842 638.267 461.941 637.842 461.932C637.378 461.943 636.921 461.822 636.524 461.583C636.583 461.302 636.616 461.149 636.616 461.149H638.734C638.875 461.291 638.987 461.459 639.064 461.644Z" fill="black"/>
<path d="M637.841 461.595C638.826 461.595 639.625 461.121 639.625 460.536C639.625 459.951 638.826 459.477 637.841 459.477C636.855 459.477 636.057 459.951 636.057 460.536C636.057 461.121 636.855 461.595 637.841 461.595Z" fill="#BBCFE2"/>
<path d="M630 355.231L636.283 352.22L645.549 354.438L638.36 349L630 355.231Z" fill="#0E8AFD"/>
<path d="M631.839 356.194L630 355.23L636.283 352.22L645.549 354.438L643.919 355.23L636.283 353.517L631.839 356.194Z" fill="#0E8AFD"/>
<path opacity="0.1" d="M631.839 356.194L630 355.23L636.283 352.22L645.549 354.438L643.919 355.23L636.283 353.517L631.839 356.194Z" fill="black"/>
<path opacity="0.2" d="M631.587 355.483L636.647 369.661H639.154L643.836 354.605L636.283 352.849L631.587 355.483Z" fill="#F5F9FE"/>
<path d="M640.393 365.67L639.394 368.885L639.154 369.661H636.646L636.458 369.138L635.278 365.825L637.174 364.685L640.393 365.67Z" fill="#0E8AFD"/>
<path opacity="0.2" d="M636.283 353.518L637.482 369.661H636.647L631.839 356.195L636.283 353.518Z" fill="#0E8AFD"/>
<path opacity="0.1" d="M638.36 349L636.283 352.22L630 355.231L638.36 349Z" fill="black"/>
<path opacity="0.1" d="M639.393 368.885L639.155 369.661H636.643L636.457 369.137C636.74 368.778 637.352 368.53 638.065 368.53C638.532 368.519 638.993 368.642 639.393 368.885Z" fill="black"/>
<path opacity="0.1" d="M638.299 369.925V371.307C638.223 371.307 638.145 371.307 638.062 371.307C637.84 371.309 637.618 371.283 637.403 371.231V369.915L638.299 369.925Z" fill="black"/>
<path d="M638.066 370.984C639.052 370.984 639.851 370.51 639.851 369.925C639.851 369.34 639.052 368.866 638.066 368.866C637.081 368.866 636.282 369.34 636.282 369.925C636.282 370.51 637.081 370.984 638.066 370.984Z" fill="#BBCFE2"/>
</svg>
