<svg width="660" height="777" viewBox="0 0 660 777" fill="none" xmlns="http://www.w3.org/2000/svg">
<path d="M75.3711 349.742C95.4583 349.742 111.742 333.458 111.742 313.371C111.742 293.284 95.4583 277 75.3711 277C55.2839 277 39 293.284 39 313.371C39 333.458 55.2839 349.742 75.3711 349.742Z" fill="#FF6584"/>
<path d="M141 242.898C141 239.492 136.077 236.731 130.003 236.731C129.883 236.731 129.764 236.734 129.645 236.736C127.813 231.196 119.152 227 108.743 227C99.8864 227 92.296 230.037 89.0997 234.356C86.7381 233.739 84.3046 233.432 81.8617 233.442C72.5492 233.442 65 237.676 65 242.898C65 247.643 71.2298 251.57 79.3515 252.25C85.2533 253.315 94.472 254 104.833 254C122.423 254 135.293 250.69 135.616 248.202C138.839 247.127 141 245.154 141 242.898Z" fill="#38495B"/>
<path d="M405 245.898C405 242.492 400.077 239.731 394.003 239.731C393.883 239.731 393.764 239.734 393.645 239.736C391.813 234.196 383.152 230 372.743 230C363.886 230 356.296 233.037 353.1 237.356C350.738 236.739 348.305 236.432 345.862 236.442C336.549 236.442 329 240.676 329 245.898C329 250.643 335.23 254.57 343.352 255.25C349.253 256.315 358.472 257 368.833 257C386.423 257 399.293 253.69 399.616 251.202C402.839 250.127 405 248.154 405 245.898Z" fill="#38495B"/>
<path d="M552 201.264C552 195.208 543.384 190.299 532.756 190.299C532.545 190.299 532.337 190.305 532.128 190.309C528.922 180.459 513.766 173 495.55 173C480.051 173 466.768 178.4 461.174 186.077C457.042 184.981 452.783 184.435 448.508 184.452C432.211 184.452 419 191.979 419 201.264C419 209.698 429.902 216.681 444.115 217.89C454.443 219.782 470.576 221 488.707 221C519.49 221 542.013 215.115 542.578 210.692C548.219 208.781 552 205.275 552 201.264Z" fill="#38495B"/>
<mask id="path-5-inside-1" fill="white">
<path fill-rule="evenodd" clip-rule="evenodd" d="M660 524.213L571.156 472.656L569.953 471.958H509.201V414.244L609.199 371.632L572.466 247L466.279 275.975V258.733L420.088 271.65V288.582L289.706 324.164H265.96V305.969L219.768 307.117V324.164H211.365V306.098H157.098L137.571 324.164H130.252V323.946H61.3005V324.164H56.1226V471.958H51.8341L4 534.569H420.014H538.586H660V524.213ZM420.014 524.213H538.586H639.373L567.166 482.31H282.092V488.558H285.72V494.928H282.092V500.077H285.72V506.451H282.092V511.595H285.72V517.969H282.092V524.213H420.014ZM228.751 482.31H56.953L24.9406 524.213H228.751V517.969H224.216V511.595H228.751V506.451H224.216V500.077H228.751V494.928H224.216V488.558H228.751V482.31ZM71.7635 334.519H66.4748V471.958H71.7635V334.519ZM201.013 316.454H161.154L152.821 324.164H201.013V316.454ZM255.608 316.583L230.12 317.214V324.164H255.608V316.583ZM455.927 272.38L430.44 279.503V285.759L455.927 278.802V272.38ZM569.584 298.012V273.849L565.402 259.659L561.206 260.807V301.005L554.832 303.275V262.545L546.454 264.829V306.26L540.084 308.537V266.568L531.703 268.856V311.523L525.333 313.797V270.594L516.955 272.879V316.786L510.582 319.056V274.621L502.204 276.905V322.045L495.834 324.319V278.647L487.453 280.932V327.304L481.079 329.581V282.67L472.701 284.958V332.567L466.331 334.837V286.696L457.95 288.985V337.83L451.58 340.1V290.719L443.202 293.011V343.089L436.828 345.362V294.746L428.451 297.034V348.352L422.077 350.625V298.772L413.699 301.057V353.611L407.329 355.884V302.799L398.948 305.083V358.87L392.578 361.144V306.825L384.196 309.109V364.133L377.826 366.406V310.848L369.449 313.136V369.396L363.075 371.665V314.871L354.697 317.159V374.659L348.324 376.928V318.897L339.946 321.185V379.914L333.576 382.191V322.923L325.195 325.212V385.177L318.824 387.447V326.95L310.447 329.234V390.44L304.073 392.709V330.976L295.695 333.261V395.699L290.292 397.625L289.322 397.219V334.519H280.944V393.676L274.57 390.986V334.519H266.193V387.443L259.823 384.756V334.519H251.441V381.213L245.071 378.523V334.519H236.693V374.98L230.32 372.293V334.519H221.942V368.75L215.572 366.059V334.519H207.191V362.516L200.817 359.83V334.519H192.439V356.287L186.069 353.6V334.519H177.688V350.057L171.318 347.366V334.519H162.94V343.823L156.566 341.137V334.519H148.189V337.594L141.819 334.903V334.519H133.437V334.678H127.067V334.519H118.69V334.678H112.316V334.519H103.938V405.357L97.5646 401.884V334.519H89.1869V397.323V471.958H230.32V387.782L236.693 390.499V471.958H245.071V394.068L251.441 396.784V471.958H259.823V400.353L266.193 403.069V471.958H274.57V406.641L280.944 409.354V471.958H289.322V411.878L295.695 410.173V471.958H304.073V407.933L310.447 406.232V471.958H318.824V403.995L325.195 402.294V471.958H333.576V400.054L339.946 398.352V471.958H348.324V396.116L354.697 394.414V471.958H363.075V392.178L369.449 390.473V471.958H377.826V388.233L384.196 386.531V471.958H392.578V384.295L398.948 382.593V471.958H407.329V380.357L413.699 378.655V471.958H422.077V376.415L428.451 374.714V471.958H436.828V372.477L443.202 370.776V471.958H451.58V368.536L457.95 366.831V471.958H466.331V364.594L472.701 362.893V471.958H481.079V360.656L487.453 358.955V471.958H495.834V356.715L502.204 355.013V405.973L510.582 402.401V352.777L516.955 351.076V399.688L525.333 396.116V348.835L531.703 347.134V393.403L540.084 389.831V344.894L546.454 343.192V387.118L554.832 383.546V340.956L561.206 339.254V380.826L569.584 377.26V337.014L575.954 335.313V374.54L584.335 370.975V323.901L575.954 295.473V295.742L569.584 298.012ZM590.709 345.517V368.255L596.662 365.72L590.709 345.517ZM82.8132 334.519H78.1335V397.323V471.958H82.8132V334.519ZM239.107 524.213H271.74V482.31H239.107V524.213Z"/>
<path fill-rule="evenodd" clip-rule="evenodd" d="M590.709 345.517V368.255L596.662 365.72L590.709 345.517Z"/>
<path d="M66.4748 334.519H71.7635V471.958H66.4748V334.519Z"/>
<path d="M78.1335 334.519H82.8132V471.958H78.1335V397.323V334.519Z"/>
<path d="M569.584 273.849V298.012L575.954 295.742V295.473L584.335 323.901V370.975L575.954 374.54V335.313L569.584 337.014V377.26L561.206 380.826V339.254L554.832 340.956V383.546L546.454 387.118V343.192L540.084 344.894V389.831L531.703 393.403V347.134L525.333 348.835V396.116L516.955 399.688V351.076L510.582 352.777V402.401L502.204 405.973V355.013L495.834 356.715V471.958H487.453V358.955L481.079 360.656V471.958H472.701V362.893L466.331 364.594V471.958H457.95V366.831L451.58 368.536V471.958H443.202V370.776L436.828 372.477V471.958H428.451V374.714L422.077 376.415V471.958H413.699V378.655L407.329 380.357V471.958H398.948V382.593L392.578 384.295V471.958H384.196V386.531L377.826 388.233V471.958H369.449V390.473L363.075 392.178V471.958H354.697V394.414L348.324 396.116V471.958H339.946V398.352L333.576 400.054V471.958H325.195V402.294L318.824 403.995V471.958H310.447V406.232L304.073 407.933V471.958H295.695V410.173L289.322 411.878V471.958H280.944V409.354L274.57 406.641V471.958H266.193V403.069L259.823 400.353V471.958H251.441V396.784L245.071 394.068V471.958H236.693V390.499L230.32 387.782V471.958H89.1869V397.323V334.519H97.5646V401.884L103.938 405.357V334.519H112.316V334.678H118.69V334.519H127.067V334.678H133.437V334.519H141.819V334.903L148.189 337.594V334.519H156.566V341.137L162.94 343.823V334.519H171.318V347.366L177.688 350.057V334.519H186.069V353.6L192.439 356.287V334.519H200.817V359.83L207.191 362.516V334.519H215.572V366.059L221.942 368.75V334.519H230.32V372.293L236.693 374.98V334.519H245.071V378.523L251.441 381.213V334.519H259.823V384.756L266.193 387.443V334.519H274.57V390.986L280.944 393.676V334.519H289.322V397.219L290.292 397.625L295.695 395.699V333.261L304.073 330.976V392.709L310.447 390.44V329.234L318.824 326.95V387.447L325.195 385.177V325.212L333.576 322.923V382.191L339.946 379.914V321.185L348.324 318.897V376.928L354.697 374.659V317.159L363.075 314.871V371.665L369.449 369.396V313.136L377.826 310.848V366.406L384.196 364.133V309.109L392.578 306.825V361.144L398.948 358.87V305.083L407.329 302.799V355.884L413.699 353.611V301.057L422.077 298.772V350.625L428.451 348.352V297.034L436.828 294.746V345.362L443.202 343.089V293.011L451.58 290.719V340.1L457.95 337.83V288.985L466.331 286.696V334.837L472.701 332.567V284.958L481.079 282.67V329.581L487.453 327.304V280.932L495.834 278.647V324.319L502.204 322.045V276.905L510.582 274.621V319.056L516.955 316.786V272.879L525.333 270.594V313.797L531.703 311.523V268.856L540.084 266.568V308.537L546.454 306.26V264.829L554.832 262.545V303.275L561.206 301.005V260.807L565.402 259.659L569.584 273.849Z"/>
</mask>
<path fill-rule="evenodd" clip-rule="evenodd" d="M660 524.213L571.156 472.656L569.953 471.958H509.201V414.244L609.199 371.632L572.466 247L466.279 275.975V258.733L420.088 271.65V288.582L289.706 324.164H265.96V305.969L219.768 307.117V324.164H211.365V306.098H157.098L137.571 324.164H130.252V323.946H61.3005V324.164H56.1226V471.958H51.8341L4 534.569H420.014H538.586H660V524.213ZM420.014 524.213H538.586H639.373L567.166 482.31H282.092V488.558H285.72V494.928H282.092V500.077H285.72V506.451H282.092V511.595H285.72V517.969H282.092V524.213H420.014ZM228.751 482.31H56.953L24.9406 524.213H228.751V517.969H224.216V511.595H228.751V506.451H224.216V500.077H228.751V494.928H224.216V488.558H228.751V482.31ZM71.7635 334.519H66.4748V471.958H71.7635V334.519ZM201.013 316.454H161.154L152.821 324.164H201.013V316.454ZM255.608 316.583L230.12 317.214V324.164H255.608V316.583ZM455.927 272.38L430.44 279.503V285.759L455.927 278.802V272.38ZM569.584 298.012V273.849L565.402 259.659L561.206 260.807V301.005L554.832 303.275V262.545L546.454 264.829V306.26L540.084 308.537V266.568L531.703 268.856V311.523L525.333 313.797V270.594L516.955 272.879V316.786L510.582 319.056V274.621L502.204 276.905V322.045L495.834 324.319V278.647L487.453 280.932V327.304L481.079 329.581V282.67L472.701 284.958V332.567L466.331 334.837V286.696L457.95 288.985V337.83L451.58 340.1V290.719L443.202 293.011V343.089L436.828 345.362V294.746L428.451 297.034V348.352L422.077 350.625V298.772L413.699 301.057V353.611L407.329 355.884V302.799L398.948 305.083V358.87L392.578 361.144V306.825L384.196 309.109V364.133L377.826 366.406V310.848L369.449 313.136V369.396L363.075 371.665V314.871L354.697 317.159V374.659L348.324 376.928V318.897L339.946 321.185V379.914L333.576 382.191V322.923L325.195 325.212V385.177L318.824 387.447V326.95L310.447 329.234V390.44L304.073 392.709V330.976L295.695 333.261V395.699L290.292 397.625L289.322 397.219V334.519H280.944V393.676L274.57 390.986V334.519H266.193V387.443L259.823 384.756V334.519H251.441V381.213L245.071 378.523V334.519H236.693V374.98L230.32 372.293V334.519H221.942V368.75L215.572 366.059V334.519H207.191V362.516L200.817 359.83V334.519H192.439V356.287L186.069 353.6V334.519H177.688V350.057L171.318 347.366V334.519H162.94V343.823L156.566 341.137V334.519H148.189V337.594L141.819 334.903V334.519H133.437V334.678H127.067V334.519H118.69V334.678H112.316V334.519H103.938V405.357L97.5646 401.884V334.519H89.1869V397.323V471.958H230.32V387.782L236.693 390.499V471.958H245.071V394.068L251.441 396.784V471.958H259.823V400.353L266.193 403.069V471.958H274.57V406.641L280.944 409.354V471.958H289.322V411.878L295.695 410.173V471.958H304.073V407.933L310.447 406.232V471.958H318.824V403.995L325.195 402.294V471.958H333.576V400.054L339.946 398.352V471.958H348.324V396.116L354.697 394.414V471.958H363.075V392.178L369.449 390.473V471.958H377.826V388.233L384.196 386.531V471.958H392.578V384.295L398.948 382.593V471.958H407.329V380.357L413.699 378.655V471.958H422.077V376.415L428.451 374.714V471.958H436.828V372.477L443.202 370.776V471.958H451.58V368.536L457.95 366.831V471.958H466.331V364.594L472.701 362.893V471.958H481.079V360.656L487.453 358.955V471.958H495.834V356.715L502.204 355.013V405.973L510.582 402.401V352.777L516.955 351.076V399.688L525.333 396.116V348.835L531.703 347.134V393.403L540.084 389.831V344.894L546.454 343.192V387.118L554.832 383.546V340.956L561.206 339.254V380.826L569.584 377.26V337.014L575.954 335.313V374.54L584.335 370.975V323.901L575.954 295.473V295.742L569.584 298.012ZM590.709 345.517V368.255L596.662 365.72L590.709 345.517ZM82.8132 334.519H78.1335V397.323V471.958H82.8132V334.519ZM239.107 524.213H271.74V482.31H239.107V524.213Z" fill="#38495B"/>
<path fill-rule="evenodd" clip-rule="evenodd" d="M590.709 345.517V368.255L596.662 365.72L590.709 345.517Z" fill="#38495B"/>
<path d="M66.4748 334.519H71.7635V471.958H66.4748V334.519Z" fill="#38495B"/>
<path d="M78.1335 334.519H82.8132V471.958H78.1335V397.323V334.519Z" fill="#38495B"/>
<path d="M569.584 273.849V298.012L575.954 295.742V295.473L584.335 323.901V370.975L575.954 374.54V335.313L569.584 337.014V377.26L561.206 380.826V339.254L554.832 340.956V383.546L546.454 387.118V343.192L540.084 344.894V389.831L531.703 393.403V347.134L525.333 348.835V396.116L516.955 399.688V351.076L510.582 352.777V402.401L502.204 405.973V355.013L495.834 356.715V471.958H487.453V358.955L481.079 360.656V471.958H472.701V362.893L466.331 364.594V471.958H457.95V366.831L451.58 368.536V471.958H443.202V370.776L436.828 372.477V471.958H428.451V374.714L422.077 376.415V471.958H413.699V378.655L407.329 380.357V471.958H398.948V382.593L392.578 384.295V471.958H384.196V386.531L377.826 388.233V471.958H369.449V390.473L363.075 392.178V471.958H354.697V394.414L348.324 396.116V471.958H339.946V398.352L333.576 400.054V471.958H325.195V402.294L318.824 403.995V471.958H310.447V406.232L304.073 407.933V471.958H295.695V410.173L289.322 411.878V471.958H280.944V409.354L274.57 406.641V471.958H266.193V403.069L259.823 400.353V471.958H251.441V396.784L245.071 394.068V471.958H236.693V390.499L230.32 387.782V471.958H89.1869V397.323V334.519H97.5646V401.884L103.938 405.357V334.519H112.316V334.678H118.69V334.519H127.067V334.678H133.437V334.519H141.819V334.903L148.189 337.594V334.519H156.566V341.137L162.94 343.823V334.519H171.318V347.366L177.688 350.057V334.519H186.069V353.6L192.439 356.287V334.519H200.817V359.83L207.191 362.516V334.519H215.572V366.059L221.942 368.75V334.519H230.32V372.293L236.693 374.98V334.519H245.071V378.523L251.441 381.213V334.519H259.823V384.756L266.193 387.443V334.519H274.57V390.986L280.944 393.676V334.519H289.322V397.219L290.292 397.625L295.695 395.699V333.261L304.073 330.976V392.709L310.447 390.44V329.234L318.824 326.95V387.447L325.195 385.177V325.212L333.576 322.923V382.191L339.946 379.914V321.185L348.324 318.897V376.928L354.697 374.659V317.159L363.075 314.871V371.665L369.449 369.396V313.136L377.826 310.848V366.406L384.196 364.133V309.109L392.578 306.825V361.144L398.948 358.87V305.083L407.329 302.799V355.884L413.699 353.611V301.057L422.077 298.772V350.625L428.451 348.352V297.034L436.828 294.746V345.362L443.202 343.089V293.011L451.58 290.719V340.1L457.95 337.83V288.985L466.331 286.696V334.837L472.701 332.567V284.958L481.079 282.67V329.581L487.453 327.304V280.932L495.834 278.647V324.319L502.204 322.045V276.905L510.582 274.621V319.056L516.955 316.786V272.879L525.333 270.594V313.797L531.703 311.523V268.856L540.084 266.568V308.537L546.454 306.26V264.829L554.832 262.545V303.275L561.206 301.005V260.807L565.402 259.659L569.584 273.849Z" fill="#38495B"/>
<path fill-rule="evenodd" clip-rule="evenodd" d="M660 524.213L571.156 472.656L569.953 471.958H509.201V414.244L609.199 371.632L572.466 247L466.279 275.975V258.733L420.088 271.65V288.582L289.706 324.164H265.96V305.969L219.768 307.117V324.164H211.365V306.098H157.098L137.571 324.164H130.252V323.946H61.3005V324.164H56.1226V471.958H51.8341L4 534.569H420.014H538.586H660V524.213ZM420.014 524.213H538.586H639.373L567.166 482.31H282.092V488.558H285.72V494.928H282.092V500.077H285.72V506.451H282.092V511.595H285.72V517.969H282.092V524.213H420.014ZM228.751 482.31H56.953L24.9406 524.213H228.751V517.969H224.216V511.595H228.751V506.451H224.216V500.077H228.751V494.928H224.216V488.558H228.751V482.31ZM71.7635 334.519H66.4748V471.958H71.7635V334.519ZM201.013 316.454H161.154L152.821 324.164H201.013V316.454ZM255.608 316.583L230.12 317.214V324.164H255.608V316.583ZM455.927 272.38L430.44 279.503V285.759L455.927 278.802V272.38ZM569.584 298.012V273.849L565.402 259.659L561.206 260.807V301.005L554.832 303.275V262.545L546.454 264.829V306.26L540.084 308.537V266.568L531.703 268.856V311.523L525.333 313.797V270.594L516.955 272.879V316.786L510.582 319.056V274.621L502.204 276.905V322.045L495.834 324.319V278.647L487.453 280.932V327.304L481.079 329.581V282.67L472.701 284.958V332.567L466.331 334.837V286.696L457.95 288.985V337.83L451.58 340.1V290.719L443.202 293.011V343.089L436.828 345.362V294.746L428.451 297.034V348.352L422.077 350.625V298.772L413.699 301.057V353.611L407.329 355.884V302.799L398.948 305.083V358.87L392.578 361.144V306.825L384.196 309.109V364.133L377.826 366.406V310.848L369.449 313.136V369.396L363.075 371.665V314.871L354.697 317.159V374.659L348.324 376.928V318.897L339.946 321.185V379.914L333.576 382.191V322.923L325.195 325.212V385.177L318.824 387.447V326.95L310.447 329.234V390.44L304.073 392.709V330.976L295.695 333.261V395.699L290.292 397.625L289.322 397.219V334.519H280.944V393.676L274.57 390.986V334.519H266.193V387.443L259.823 384.756V334.519H251.441V381.213L245.071 378.523V334.519H236.693V374.98L230.32 372.293V334.519H221.942V368.75L215.572 366.059V334.519H207.191V362.516L200.817 359.83V334.519H192.439V356.287L186.069 353.6V334.519H177.688V350.057L171.318 347.366V334.519H162.94V343.823L156.566 341.137V334.519H148.189V337.594L141.819 334.903V334.519H133.437V334.678H127.067V334.519H118.69V334.678H112.316V334.519H103.938V405.357L97.5646 401.884V334.519H89.1869V397.323V471.958H230.32V387.782L236.693 390.499V471.958H245.071V394.068L251.441 396.784V471.958H259.823V400.353L266.193 403.069V471.958H274.57V406.641L280.944 409.354V471.958H289.322V411.878L295.695 410.173V471.958H304.073V407.933L310.447 406.232V471.958H318.824V403.995L325.195 402.294V471.958H333.576V400.054L339.946 398.352V471.958H348.324V396.116L354.697 394.414V471.958H363.075V392.178L369.449 390.473V471.958H377.826V388.233L384.196 386.531V471.958H392.578V384.295L398.948 382.593V471.958H407.329V380.357L413.699 378.655V471.958H422.077V376.415L428.451 374.714V471.958H436.828V372.477L443.202 370.776V471.958H451.58V368.536L457.95 366.831V471.958H466.331V364.594L472.701 362.893V471.958H481.079V360.656L487.453 358.955V471.958H495.834V356.715L502.204 355.013V405.973L510.582 402.401V352.777L516.955 351.076V399.688L525.333 396.116V348.835L531.703 347.134V393.403L540.084 389.831V344.894L546.454 343.192V387.118L554.832 383.546V340.956L561.206 339.254V380.826L569.584 377.26V337.014L575.954 335.313V374.54L584.335 370.975V323.901L575.954 295.473V295.742L569.584 298.012ZM590.709 345.517V368.255L596.662 365.72L590.709 345.517ZM82.8132 334.519H78.1335V397.323V471.958H82.8132V334.519ZM239.107 524.213H271.74V482.31H239.107V524.213Z" stroke="#38495B" stroke-width="3" mask="url(#path-5-inside-1)"/>
<path fill-rule="evenodd" clip-rule="evenodd" d="M590.709 345.517V368.255L596.662 365.72L590.709 345.517Z" stroke="#38495B" stroke-width="3" mask="url(#path-5-inside-1)"/>
<path d="M66.4748 334.519H71.7635V471.958H66.4748V334.519Z" stroke="#38495B" stroke-width="3" mask="url(#path-5-inside-1)"/>
<path d="M78.1335 334.519H82.8132V471.958H78.1335V397.323V334.519Z" stroke="#38495B" stroke-width="3" mask="url(#path-5-inside-1)"/>
<path d="M569.584 273.849V298.012L575.954 295.742V295.473L584.335 323.901V370.975L575.954 374.54V335.313L569.584 337.014V377.26L561.206 380.826V339.254L554.832 340.956V383.546L546.454 387.118V343.192L540.084 344.894V389.831L531.703 393.403V347.134L525.333 348.835V396.116L516.955 399.688V351.076L510.582 352.777V402.401L502.204 405.973V355.013L495.834 356.715V471.958H487.453V358.955L481.079 360.656V471.958H472.701V362.893L466.331 364.594V471.958H457.95V366.831L451.58 368.536V471.958H443.202V370.776L436.828 372.477V471.958H428.451V374.714L422.077 376.415V471.958H413.699V378.655L407.329 380.357V471.958H398.948V382.593L392.578 384.295V471.958H384.196V386.531L377.826 388.233V471.958H369.449V390.473L363.075 392.178V471.958H354.697V394.414L348.324 396.116V471.958H339.946V398.352L333.576 400.054V471.958H325.195V402.294L318.824 403.995V471.958H310.447V406.232L304.073 407.933V471.958H295.695V410.173L289.322 411.878V471.958H280.944V409.354L274.57 406.641V471.958H266.193V403.069L259.823 400.353V471.958H251.441V396.784L245.071 394.068V471.958H236.693V390.499L230.32 387.782V471.958H89.1869V397.323V334.519H97.5646V401.884L103.938 405.357V334.519H112.316V334.678H118.69V334.519H127.067V334.678H133.437V334.519H141.819V334.903L148.189 337.594V334.519H156.566V341.137L162.94 343.823V334.519H171.318V347.366L177.688 350.057V334.519H186.069V353.6L192.439 356.287V334.519H200.817V359.83L207.191 362.516V334.519H215.572V366.059L221.942 368.75V334.519H230.32V372.293L236.693 374.98V334.519H245.071V378.523L251.441 381.213V334.519H259.823V384.756L266.193 387.443V334.519H274.57V390.986L280.944 393.676V334.519H289.322V397.219L290.292 397.625L295.695 395.699V333.261L304.073 330.976V392.709L310.447 390.44V329.234L318.824 326.95V387.447L325.195 385.177V325.212L333.576 322.923V382.191L339.946 379.914V321.185L348.324 318.897V376.928L354.697 374.659V317.159L363.075 314.871V371.665L369.449 369.396V313.136L377.826 310.848V366.406L384.196 364.133V309.109L392.578 306.825V361.144L398.948 358.87V305.083L407.329 302.799V355.884L413.699 353.611V301.057L422.077 298.772V350.625L428.451 348.352V297.034L436.828 294.746V345.362L443.202 343.089V293.011L451.58 290.719V340.1L457.95 337.83V288.985L466.331 286.696V334.837L472.701 332.567V284.958L481.079 282.67V329.581L487.453 327.304V280.932L495.834 278.647V324.319L502.204 322.045V276.905L510.582 274.621V319.056L516.955 316.786V272.879L525.333 270.594V313.797L531.703 311.523V268.856L540.084 266.568V308.537L546.454 306.26V264.829L554.832 262.545V303.275L561.206 301.005V260.807L565.402 259.659L569.584 273.849Z" stroke="#38495B" stroke-width="3" mask="url(#path-5-inside-1)"/>
<mask id="path-6-inside-2" fill="white">
<path fill-rule="evenodd" clip-rule="evenodd" d="M660 524.213L571.156 472.656L569.953 471.958H509.201V414.244L609.199 371.632L572.466 247L466.279 275.975V258.733L420.088 271.65V288.582L289.706 324.164H265.96V305.969L219.768 307.117V324.164H211.365V306.098H157.098L137.571 324.164H130.252V323.946H61.3005V324.164H56.1226V471.958H51.8341L4 534.569H420.014H538.586H660V524.213ZM420.014 524.213H538.586H639.373L567.166 482.31H282.092V488.558H285.72V494.928H282.092V500.077H285.72V506.451H282.092V511.595H285.72V517.969H282.092V524.213H420.014ZM228.751 482.31H56.953L24.9406 524.213H228.751V517.969H224.216V511.595H228.751V506.451H224.216V500.077H228.751V494.928H224.216V488.558H228.751V482.31ZM71.7635 334.519H66.4748V471.958H71.7635V334.519ZM201.013 316.454H161.154L152.821 324.164H201.013V316.454ZM255.608 316.583L230.12 317.214V324.164H255.608V316.583ZM455.927 272.38L430.44 279.503V285.759L455.927 278.802V272.38ZM569.584 298.012V273.849L565.402 259.659L561.206 260.807V301.005L554.832 303.275V262.545L546.454 264.829V306.26L540.084 308.537V266.568L531.703 268.856V311.523L525.333 313.797V270.594L516.955 272.879V316.786L510.582 319.056V274.621L502.204 276.905V322.045L495.834 324.319V278.647L487.453 280.932V327.304L481.079 329.581V282.67L472.701 284.958V332.567L466.331 334.837V286.696L457.95 288.985V337.83L451.58 340.1V290.719L443.202 293.011V343.089L436.828 345.362V294.746L428.451 297.034V348.352L422.077 350.625V298.772L413.699 301.057V353.611L407.329 355.884V302.799L398.948 305.083V358.87L392.578 361.144V306.825L384.196 309.109V364.133L377.826 366.406V310.848L369.449 313.136V369.396L363.075 371.665V314.871L354.697 317.159V374.659L348.324 376.928V318.897L339.946 321.185V379.914L333.576 382.191V322.923L325.195 325.212V385.177L318.824 387.447V326.95L310.447 329.234V390.44L304.073 392.709V330.976L295.695 333.261V395.699L290.292 397.625L289.322 397.219V334.519H280.944V393.676L274.57 390.986V334.519H266.193V387.443L259.823 384.756V334.519H251.441V381.213L245.071 378.523V334.519H236.693V374.98L230.32 372.293V334.519H221.942V368.75L215.572 366.059V334.519H207.191V362.516L200.817 359.83V334.519H192.439V356.287L186.069 353.6V334.519H177.688V350.057L171.318 347.366V334.519H162.94V343.823L156.566 341.137V334.519H148.189V337.594L141.819 334.903V334.519H133.437V334.678H127.067V334.519H118.69V334.678H112.316V334.519H103.938V405.357L97.5646 401.884V334.519H89.1869V397.323V471.958H230.32V387.782L236.693 390.499V471.958H245.071V394.068L251.441 396.784V471.958H259.823V400.353L266.193 403.069V471.958H274.57V406.641L280.944 409.354V471.958H289.322V411.878L295.695 410.173V471.958H304.073V407.933L310.447 406.232V471.958H318.824V403.995L325.195 402.294V471.958H333.576V400.054L339.946 398.352V471.958H348.324V396.116L354.697 394.414V471.958H363.075V392.178L369.449 390.473V471.958H377.826V388.233L384.196 386.531V471.958H392.578V384.295L398.948 382.593V471.958H407.329V380.357L413.699 378.655V471.958H422.077V376.415L428.451 374.714V471.958H436.828V372.477L443.202 370.776V471.958H451.58V368.536L457.95 366.831V471.958H466.331V364.594L472.701 362.893V471.958H481.079V360.656L487.453 358.955V471.958H495.834V356.715L502.204 355.013V405.973L510.582 402.401V352.777L516.955 351.076V399.688L525.333 396.116V348.835L531.703 347.134V393.403L540.084 389.831V344.894L546.454 343.192V387.118L554.832 383.546V340.956L561.206 339.254V380.826L569.584 377.26V337.014L575.954 335.313V374.54L584.335 370.975V323.901L575.954 295.473V295.742L569.584 298.012ZM590.709 345.517V368.255L596.662 365.72L590.709 345.517ZM82.8132 334.519H78.1335V397.323V471.958H82.8132V334.519ZM239.107 524.213H271.74V482.31H239.107V524.213Z"/>
<path fill-rule="evenodd" clip-rule="evenodd" d="M590.709 345.517V368.255L596.662 365.72L590.709 345.517Z"/>
</mask>
<path fill-rule="evenodd" clip-rule="evenodd" d="M660 524.213L571.156 472.656L569.953 471.958H509.201V414.244L609.199 371.632L572.466 247L466.279 275.975V258.733L420.088 271.65V288.582L289.706 324.164H265.96V305.969L219.768 307.117V324.164H211.365V306.098H157.098L137.571 324.164H130.252V323.946H61.3005V324.164H56.1226V471.958H51.8341L4 534.569H420.014H538.586H660V524.213ZM420.014 524.213H538.586H639.373L567.166 482.31H282.092V488.558H285.72V494.928H282.092V500.077H285.72V506.451H282.092V511.595H285.72V517.969H282.092V524.213H420.014ZM228.751 482.31H56.953L24.9406 524.213H228.751V517.969H224.216V511.595H228.751V506.451H224.216V500.077H228.751V494.928H224.216V488.558H228.751V482.31ZM71.7635 334.519H66.4748V471.958H71.7635V334.519ZM201.013 316.454H161.154L152.821 324.164H201.013V316.454ZM255.608 316.583L230.12 317.214V324.164H255.608V316.583ZM455.927 272.38L430.44 279.503V285.759L455.927 278.802V272.38ZM569.584 298.012V273.849L565.402 259.659L561.206 260.807V301.005L554.832 303.275V262.545L546.454 264.829V306.26L540.084 308.537V266.568L531.703 268.856V311.523L525.333 313.797V270.594L516.955 272.879V316.786L510.582 319.056V274.621L502.204 276.905V322.045L495.834 324.319V278.647L487.453 280.932V327.304L481.079 329.581V282.67L472.701 284.958V332.567L466.331 334.837V286.696L457.95 288.985V337.83L451.58 340.1V290.719L443.202 293.011V343.089L436.828 345.362V294.746L428.451 297.034V348.352L422.077 350.625V298.772L413.699 301.057V353.611L407.329 355.884V302.799L398.948 305.083V358.87L392.578 361.144V306.825L384.196 309.109V364.133L377.826 366.406V310.848L369.449 313.136V369.396L363.075 371.665V314.871L354.697 317.159V374.659L348.324 376.928V318.897L339.946 321.185V379.914L333.576 382.191V322.923L325.195 325.212V385.177L318.824 387.447V326.95L310.447 329.234V390.44L304.073 392.709V330.976L295.695 333.261V395.699L290.292 397.625L289.322 397.219V334.519H280.944V393.676L274.57 390.986V334.519H266.193V387.443L259.823 384.756V334.519H251.441V381.213L245.071 378.523V334.519H236.693V374.98L230.32 372.293V334.519H221.942V368.75L215.572 366.059V334.519H207.191V362.516L200.817 359.83V334.519H192.439V356.287L186.069 353.6V334.519H177.688V350.057L171.318 347.366V334.519H162.94V343.823L156.566 341.137V334.519H148.189V337.594L141.819 334.903V334.519H133.437V334.678H127.067V334.519H118.69V334.678H112.316V334.519H103.938V405.357L97.5646 401.884V334.519H89.1869V397.323V471.958H230.32V387.782L236.693 390.499V471.958H245.071V394.068L251.441 396.784V471.958H259.823V400.353L266.193 403.069V471.958H274.57V406.641L280.944 409.354V471.958H289.322V411.878L295.695 410.173V471.958H304.073V407.933L310.447 406.232V471.958H318.824V403.995L325.195 402.294V471.958H333.576V400.054L339.946 398.352V471.958H348.324V396.116L354.697 394.414V471.958H363.075V392.178L369.449 390.473V471.958H377.826V388.233L384.196 386.531V471.958H392.578V384.295L398.948 382.593V471.958H407.329V380.357L413.699 378.655V471.958H422.077V376.415L428.451 374.714V471.958H436.828V372.477L443.202 370.776V471.958H451.58V368.536L457.95 366.831V471.958H466.331V364.594L472.701 362.893V471.958H481.079V360.656L487.453 358.955V471.958H495.834V356.715L502.204 355.013V405.973L510.582 402.401V352.777L516.955 351.076V399.688L525.333 396.116V348.835L531.703 347.134V393.403L540.084 389.831V344.894L546.454 343.192V387.118L554.832 383.546V340.956L561.206 339.254V380.826L569.584 377.26V337.014L575.954 335.313V374.54L584.335 370.975V323.901L575.954 295.473V295.742L569.584 298.012ZM590.709 345.517V368.255L596.662 365.72L590.709 345.517ZM82.8132 334.519H78.1335V397.323V471.958H82.8132V334.519ZM239.107 524.213H271.74V482.31H239.107V524.213Z" fill="#BBCFE2"/>
<path fill-rule="evenodd" clip-rule="evenodd" d="M590.709 345.517V368.255L596.662 365.72L590.709 345.517Z" fill="#BBCFE2"/>
<path fill-rule="evenodd" clip-rule="evenodd" d="M660 524.213L571.156 472.656L569.953 471.958H509.201V414.244L609.199 371.632L572.466 247L466.279 275.975V258.733L420.088 271.65V288.582L289.706 324.164H265.96V305.969L219.768 307.117V324.164H211.365V306.098H157.098L137.571 324.164H130.252V323.946H61.3005V324.164H56.1226V471.958H51.8341L4 534.569H420.014H538.586H660V524.213ZM420.014 524.213H538.586H639.373L567.166 482.31H282.092V488.558H285.72V494.928H282.092V500.077H285.72V506.451H282.092V511.595H285.72V517.969H282.092V524.213H420.014ZM228.751 482.31H56.953L24.9406 524.213H228.751V517.969H224.216V511.595H228.751V506.451H224.216V500.077H228.751V494.928H224.216V488.558H228.751V482.31ZM71.7635 334.519H66.4748V471.958H71.7635V334.519ZM201.013 316.454H161.154L152.821 324.164H201.013V316.454ZM255.608 316.583L230.12 317.214V324.164H255.608V316.583ZM455.927 272.38L430.44 279.503V285.759L455.927 278.802V272.38ZM569.584 298.012V273.849L565.402 259.659L561.206 260.807V301.005L554.832 303.275V262.545L546.454 264.829V306.26L540.084 308.537V266.568L531.703 268.856V311.523L525.333 313.797V270.594L516.955 272.879V316.786L510.582 319.056V274.621L502.204 276.905V322.045L495.834 324.319V278.647L487.453 280.932V327.304L481.079 329.581V282.67L472.701 284.958V332.567L466.331 334.837V286.696L457.95 288.985V337.83L451.58 340.1V290.719L443.202 293.011V343.089L436.828 345.362V294.746L428.451 297.034V348.352L422.077 350.625V298.772L413.699 301.057V353.611L407.329 355.884V302.799L398.948 305.083V358.87L392.578 361.144V306.825L384.196 309.109V364.133L377.826 366.406V310.848L369.449 313.136V369.396L363.075 371.665V314.871L354.697 317.159V374.659L348.324 376.928V318.897L339.946 321.185V379.914L333.576 382.191V322.923L325.195 325.212V385.177L318.824 387.447V326.95L310.447 329.234V390.44L304.073 392.709V330.976L295.695 333.261V395.699L290.292 397.625L289.322 397.219V334.519H280.944V393.676L274.57 390.986V334.519H266.193V387.443L259.823 384.756V334.519H251.441V381.213L245.071 378.523V334.519H236.693V374.98L230.32 372.293V334.519H221.942V368.75L215.572 366.059V334.519H207.191V362.516L200.817 359.83V334.519H192.439V356.287L186.069 353.6V334.519H177.688V350.057L171.318 347.366V334.519H162.94V343.823L156.566 341.137V334.519H148.189V337.594L141.819 334.903V334.519H133.437V334.678H127.067V334.519H118.69V334.678H112.316V334.519H103.938V405.357L97.5646 401.884V334.519H89.1869V397.323V471.958H230.32V387.782L236.693 390.499V471.958H245.071V394.068L251.441 396.784V471.958H259.823V400.353L266.193 403.069V471.958H274.57V406.641L280.944 409.354V471.958H289.322V411.878L295.695 410.173V471.958H304.073V407.933L310.447 406.232V471.958H318.824V403.995L325.195 402.294V471.958H333.576V400.054L339.946 398.352V471.958H348.324V396.116L354.697 394.414V471.958H363.075V392.178L369.449 390.473V471.958H377.826V388.233L384.196 386.531V471.958H392.578V384.295L398.948 382.593V471.958H407.329V380.357L413.699 378.655V471.958H422.077V376.415L428.451 374.714V471.958H436.828V372.477L443.202 370.776V471.958H451.58V368.536L457.95 366.831V471.958H466.331V364.594L472.701 362.893V471.958H481.079V360.656L487.453 358.955V471.958H495.834V356.715L502.204 355.013V405.973L510.582 402.401V352.777L516.955 351.076V399.688L525.333 396.116V348.835L531.703 347.134V393.403L540.084 389.831V344.894L546.454 343.192V387.118L554.832 383.546V340.956L561.206 339.254V380.826L569.584 377.26V337.014L575.954 335.313V374.54L584.335 370.975V323.901L575.954 295.473V295.742L569.584 298.012ZM590.709 345.517V368.255L596.662 365.72L590.709 345.517ZM82.8132 334.519H78.1335V397.323V471.958H82.8132V334.519ZM239.107 524.213H271.74V482.31H239.107V524.213Z" stroke="#38495B" stroke-width="3" mask="url(#path-6-inside-2)"/>
<path fill-rule="evenodd" clip-rule="evenodd" d="M590.709 345.517V368.255L596.662 365.72L590.709 345.517Z" stroke="#38495B" stroke-width="3" mask="url(#path-6-inside-2)"/>
<path d="M447.2 498.395H563.105V490.706H447.2V498.395Z" fill="#BBCFE2" stroke="#38495B" stroke-width="2"/>
<path d="M389.694 493.594H394.991V489.887H389.694V493.594Z" fill="#C3C1D6" stroke="#38495B" stroke-width="2"/>
<path d="M301.714 493.594H313.71V489.887H301.714V493.594Z" fill="#C3C1D6" stroke="#38495B" stroke-width="2"/>
<path d="M331.045 493.594H343.041V489.887H331.045V493.594Z" fill="#C3C1D6" stroke="#38495B" stroke-width="2"/>
<path d="M360.37 493.594H372.367V489.887H360.37V493.594Z" fill="#C3C1D6" stroke="#38495B" stroke-width="2"/>
<path d="M389.694 505.113H394.991V501.406H389.694V505.113Z" fill="#C3C1D6" stroke="#38495B" stroke-width="2"/>
<path d="M301.714 505.113H313.71V501.406H301.714V505.113Z" fill="#C3C1D6" stroke="#38495B" stroke-width="2"/>
<path d="M331.045 505.113H343.041V501.406H331.045V505.113Z" fill="#C3C1D6" stroke="#38495B" stroke-width="2"/>
<path d="M360.37 505.113H372.367V501.406H360.37V505.113Z" fill="#C3C1D6" stroke="#38495B" stroke-width="2"/>
<path d="M389.694 516.634H394.991V512.927H389.694V516.634Z" fill="#C3C1D6" stroke="#38495B" stroke-width="2"/>
<path d="M360.37 516.634H372.367V512.927H360.37V516.634Z" fill="#C3C1D6" stroke="#38495B" stroke-width="2"/>
<path d="M331.045 516.634H343.041V512.927H331.045V516.634Z" fill="#C3C1D6" stroke="#38495B" stroke-width="2"/>
<path d="M301.714 516.634H313.71V512.927H301.714V516.634Z" fill="#C3C1D6" stroke="#38495B" stroke-width="2"/>
<path d="M137.566 493.594H149.562V489.887H137.566V493.594Z" fill="#C3C1D6" stroke="#38495B" stroke-width="2"/>
<path d="M166.892 493.594H178.888V489.887H166.892V493.594Z" fill="#C3C1D6" stroke="#38495B" stroke-width="2"/>
<path d="M196.223 493.594H208.22V489.887H196.223V493.594Z" fill="#C3C1D6" stroke="#38495B" stroke-width="2"/>
<path d="M114.941 493.594H120.239V489.887H114.941V493.594Z" fill="#C3C1D6" stroke="#38495B" stroke-width="2"/>
<path d="M137.566 505.113H149.562V501.406H137.566V505.113Z" fill="#C3C1D6" stroke="#38495B" stroke-width="2"/>
<path d="M196.223 505.113H208.22V501.406H196.223V505.113Z" fill="#C3C1D6" stroke="#38495B" stroke-width="2"/>
<path d="M166.892 505.113H178.888V501.406H166.892V505.113Z" fill="#C3C1D6" stroke="#38495B" stroke-width="2"/>
<path d="M114.941 505.113H120.239V501.406H114.941V505.113Z" fill="#C3C1D6" stroke="#38495B" stroke-width="2"/>
<path d="M196.223 516.634H208.22V512.927H196.223V516.634Z" fill="#C3C1D6" stroke="#38495B" stroke-width="2"/>
<path d="M166.892 516.634H178.888V512.927H166.892V516.634Z" fill="#C3C1D6" stroke="#38495B" stroke-width="2"/>
<path d="M137.566 516.634H149.562V512.927H137.566V516.634Z" fill="#C3C1D6" stroke="#38495B" stroke-width="2"/>
<path d="M114.941 516.634H120.239V512.927H114.941V516.634Z" fill="#C3C1D6" stroke="#38495B" stroke-width="2"/>
<path d="M434.27 515.816H550.176V508.127H434.27V515.816Z" fill="#BBCFE2" stroke="#38495B" stroke-width="2"/>
<path d="M216.902 383.515V465.379L220.605 467.396V385.092L216.902 383.515Z" fill="#C3C1D6" stroke="#38495B" stroke-width="2"/>
<path d="M202.151 377.228V457.343L205.858 459.363V378.807L202.151 377.228Z" fill="#C3C1D6" stroke="#38495B" stroke-width="2"/>
<path d="M157.898 358.37V433.238L161.605 435.255V359.948L157.898 358.37Z" fill="#C3C1D6" stroke="#38495B" stroke-width="2"/>
<path d="M143.15 352.086V425.201L146.853 427.218V353.663L143.15 352.086Z" fill="#C3C1D6" stroke="#38495B" stroke-width="2"/>
<path d="M172.651 364.656V441.272L176.355 443.289V366.235L172.651 364.656Z" fill="#C3C1D6" stroke="#38495B" stroke-width="2"/>
<path d="M187.403 370.942V449.309L191.11 451.327V372.52L187.403 370.942Z" fill="#C3C1D6" stroke="#38495B" stroke-width="2"/>
<path d="M128.4 345.798V417.162L132.107 419.18V347.378L128.4 345.798Z" fill="#C3C1D6" stroke="#38495B" stroke-width="2"/>
<path d="M113.65 339.513V409.129L117.357 411.147V341.091L113.65 339.513Z" fill="#C3C1D6" stroke="#38495B" stroke-width="2"/>
<path d="M311 601.148C420.393 601.148 509.073 597.233 509.073 592.404C509.073 587.574 420.393 583.659 311 583.659C201.607 583.659 112.927 587.574 112.927 592.404C112.927 597.233 201.607 601.148 311 601.148Z" fill="#38495B"/>
<path d="M454.841 399.267C458.504 399.267 461.474 396.297 461.474 392.634C461.474 388.97 458.504 386 454.841 386C451.177 386 448.207 388.97 448.207 392.634C448.207 396.297 451.177 399.267 454.841 399.267Z" fill="#25323F"/>
<path d="M442.563 400.455C445.133 400.455 447.217 398.372 447.217 395.802C447.217 393.232 445.133 391.148 442.563 391.148C439.993 391.148 437.91 393.232 437.91 395.802C437.91 398.372 439.993 400.455 442.563 400.455Z" fill="#25323F"/>
<path d="M140.798 424.106C148.471 424.106 154.692 417.886 154.692 410.213C154.692 402.54 148.471 396.319 140.798 396.319C133.125 396.319 126.905 402.54 126.905 410.213C126.905 417.886 133.125 424.106 140.798 424.106Z" fill="#25323F"/>
<path d="M115.086 426.595C120.468 426.595 124.832 422.231 124.832 416.849C124.832 411.466 120.468 407.103 115.086 407.103C109.703 407.103 105.34 411.466 105.34 416.849C105.34 422.231 109.703 426.595 115.086 426.595Z" fill="#25323F"/>
<path d="M341.505 406.66C332.308 391.121 314.113 390.397 314.113 390.397C314.113 390.397 296.383 388.129 285.01 411.796C274.409 433.855 259.778 455.154 282.654 460.318L286.787 447.457L289.346 461.276C292.603 461.51 295.87 461.566 299.134 461.443C323.632 460.652 346.964 461.674 346.213 452.883C345.214 441.196 350.354 421.612 341.505 406.66Z" fill="#25323F"/>
<path d="M281.348 542.746C281.078 544.456 280.686 546.143 280.175 547.797C279.599 549.415 278.711 550.911 278.184 552.546C276.507 557.758 278.832 563.568 282.546 567.591C285.767 571.065 289.924 573.534 294.516 574.699C297.866 575.541 301.349 575.662 304.802 575.78C314.362 576.104 324.169 576.394 333.228 573.321C336.09 572.327 338.854 571.071 341.486 569.57C342.317 569.174 343.049 568.597 343.629 567.882C344.32 566.899 344.408 565.623 344.402 564.421C344.382 560.368 343.56 556.336 343.755 552.287C343.863 550.045 344.283 547.805 344.077 545.569C343.791 543.03 342.727 540.642 341.032 538.731C339.336 536.82 337.091 535.479 334.605 534.893C332.035 534.341 329.369 534.642 326.753 534.893C319.962 535.546 313.141 535.851 306.319 535.807C299.348 535.763 292.42 534.699 285.484 534.587C283.433 534.555 283.474 535.187 282.821 537.172C282.22 538.999 281.728 540.861 281.348 542.746Z" fill="#465C72"/>
<path d="M301.131 442.67C300.796 444.424 300.434 446.242 299.38 447.684C298.167 449.342 296.19 450.29 294.885 451.877C292.921 454.266 292.808 457.628 292.8 460.72C292.793 463.569 292.851 466.608 294.439 468.972C295.47 470.507 297.039 471.583 298.573 472.617C304.531 476.632 310.969 480.719 318.152 480.851C321.128 480.906 324.32 480.137 326.278 477.896C327.124 476.842 327.788 475.656 328.245 474.385C330.082 469.858 331.196 465.069 331.545 460.196C331.709 457.903 331.693 455.543 330.917 453.38C330.044 450.946 328.28 448.945 327.114 446.638C325.735 443.895 325.231 440.795 325.669 437.756C325.727 437.542 325.709 437.315 325.618 437.113C325.522 437.004 325.403 436.92 325.269 436.866C325.135 436.811 324.99 436.789 324.846 436.8L310.602 435.774C309.276 435.708 307.955 435.557 306.647 435.322C305.88 435.166 303.852 434.075 303.119 434.365C301.764 434.902 301.409 441.216 301.131 442.67Z" fill="#FFB8B8"/>
<path d="M301.131 442.67C300.796 444.424 300.434 446.242 299.38 447.684C298.167 449.342 296.19 450.29 294.885 451.877C292.921 454.266 292.808 457.628 292.8 460.72C292.793 463.569 292.851 466.608 294.439 468.972C295.47 470.507 297.039 471.583 298.573 472.617C304.531 476.632 310.969 480.719 318.152 480.851C321.128 480.906 324.32 480.137 326.278 477.896C327.124 476.842 327.788 475.656 328.245 474.385C330.082 469.858 331.196 465.069 331.545 460.196C331.709 457.903 331.693 455.543 330.917 453.38C330.044 450.946 328.28 448.945 327.114 446.638C325.735 443.895 325.231 440.795 325.669 437.756C325.727 437.542 325.709 437.315 325.618 437.113C325.522 437.004 325.403 436.92 325.269 436.866C325.135 436.811 324.99 436.789 324.846 436.8L310.602 435.774C309.276 435.708 307.955 435.557 306.647 435.322C305.88 435.166 303.852 434.075 303.119 434.365C301.764 434.902 301.409 441.216 301.131 442.67Z" fill="#F3AEAE"/>
<path d="M314.752 444.581C326.293 444.581 335.649 435.225 335.649 423.684C335.649 412.143 326.293 402.787 314.752 402.787C303.211 402.787 293.855 412.143 293.855 423.684C293.855 435.225 303.211 444.581 314.752 444.581Z" fill="#FBBEBE"/>
<path d="M304.061 470.487C305.151 471.626 306.305 472.753 307.732 473.42C309.185 474.021 310.745 474.318 312.317 474.293C316.084 474.399 320.168 473.709 322.788 471.001C326.166 467.51 326.055 461.879 328.702 457.807C328.916 457.438 329.207 457.119 329.555 456.874C330 456.632 330.501 456.517 331.007 456.54C334.35 456.509 337.263 458.678 339.892 460.744C341.07 461.67 342.277 462.63 343.02 463.93C343.54 464.945 343.895 466.035 344.074 467.16C345.379 473.528 345.801 480.04 346.221 486.527C346.452 490.11 346.684 493.696 346.667 497.287C346.61 509.116 343.861 520.747 341.126 532.256C340.774 533.739 340.292 535.396 338.944 536.107C338.342 536.377 337.697 536.535 337.039 536.572C329.208 537.491 321.36 538.412 313.476 538.534C310.399 538.581 307.324 538.507 304.25 538.31C303.721 538.303 303.196 538.212 302.696 538.039C302.017 537.713 301.433 537.218 301.001 536.6C296.737 531.226 296.485 523.797 296.512 516.937C296.579 500.164 297.178 483.404 298.31 466.658C298.404 465.275 298.424 463.597 297.428 462.509C299.221 465.38 301.716 468.035 304.061 470.487Z" fill="#38495B"/>
<path d="M299.635 446.359C298.929 447.636 293.726 450.809 292.722 451.868C287.109 457.784 276.865 457.562 271.732 463.898C269.926 466.128 268.987 468.929 268.297 471.714C267.321 475.653 266.8 479.948 268.435 483.662C270.008 487.236 273.32 489.707 275.569 492.899C278.038 496.404 279.148 500.66 280.212 504.813C280.997 507.879 281.789 511.022 281.483 514.172C281.135 517.755 279.402 521.035 278.378 524.485C277.355 527.936 277.178 532.046 279.545 534.757C281.283 536.75 284.01 537.539 286.617 537.984C289.955 538.485 293.322 538.778 296.697 538.861C299.677 538.993 302.961 539.018 305.252 537.108C307.059 535.601 307.845 533.155 307.946 530.804C308.048 528.453 307.559 526.122 307.253 523.789C306.935 521.37 306.813 518.93 306.711 516.492C306.252 505.556 306.19 494.612 306.523 483.661C306.593 481.382 306.677 479.075 306.191 476.848C305.552 473.919 303.969 471.301 302.648 468.609C300.025 463.267 298.785 458.077 299.191 452.139C299.591 446.278 302.147 441.813 299.635 446.359Z" fill="#0E8AFD"/>
<path d="M328.98 446.804C330.055 447.909 333.708 448.273 335.075 448.985C336.361 449.579 337.704 450.044 339.082 450.372C344.07 451.811 348.815 453.989 353.158 456.832C354.061 457.36 354.859 458.05 355.512 458.866C356.277 459.93 356.555 461.258 356.814 462.543C357.484 465.86 358.157 469.217 358.007 472.597C357.847 476.185 356.766 479.661 355.694 483.089L351.687 495.898C348.697 505.459 345.687 515.114 344.845 525.096C344.38 530.629 344.587 536.197 345.462 541.68C345.55 542.231 345.624 542.863 345.26 543.286C344.996 543.547 344.649 543.707 344.279 543.737C342.345 544.04 340.474 543.054 338.722 542.181C333.367 539.516 327.652 537.646 321.757 536.63C324.061 533.302 325.838 529.638 327.026 525.769C327.701 523.312 328.233 520.817 328.618 518.299L330.482 507.519C331.24 503.579 331.774 499.599 332.081 495.598C332.222 494.097 332.134 492.583 331.822 491.108C331.392 489.704 330.822 488.347 330.119 487.058C327.048 480.669 325.606 473.378 326.815 466.392C327.344 463.335 328.372 460.274 327.943 457.201C327.531 454.247 327.959 451.951 327.201 449.027C324.089 437.022 326.957 444.725 328.98 446.804Z" fill="#0E8AFD"/>
<path d="M271.679 474C270.278 476.906 267.937 479.382 267.14 482.507C266.83 483.968 266.697 485.461 266.745 486.954C266.726 489.203 266.714 491.499 267.404 493.64C267.849 495.018 268.572 496.289 269.094 497.64C269.82 499.528 270.144 501.547 270.044 503.568C269.903 506.367 268.952 509.084 268.878 511.886C268.761 516.291 270.799 520.433 272.787 524.366C273.288 523.127 274.053 522.012 275.03 521.099C276.006 520.186 277.17 519.498 278.44 519.082C279.711 518.666 281.057 518.533 282.384 518.692C283.711 518.85 284.987 519.297 286.124 520C286.648 519.516 286.705 518.72 286.725 518.007C286.872 512.895 287.014 507.784 287.15 502.672C287.366 494.766 287.571 486.755 285.752 479.059C284.931 475.584 283.653 472.122 281.311 469.427C280.078 468.007 275.891 464.269 273.867 465.859C272.957 466.574 273.169 468.52 273.025 469.506C272.807 471.064 272.353 472.579 271.679 474Z" fill="#0E8AFD"/>
<path d="M358.416 465.626C359.078 467.689 359.118 469.892 359.131 472.058C359.158 476.477 359.099 480.895 358.955 485.313C358.881 487.574 358.78 489.867 358.094 492.023C357.642 493.445 356.944 494.779 356.477 496.196C355.077 500.443 355.842 505.05 355.962 509.52C356.047 510.967 355.923 512.419 355.595 513.831C354.857 516.602 352.872 518.841 351.486 521.353C350.171 523.738 349.377 526.411 347.805 528.636C346.234 530.861 343.513 532.623 340.876 531.94C338.878 531.423 337.459 529.655 336.477 527.839C334.334 523.848 333.601 519.25 334.397 514.791C335.383 509.365 338.57 504.551 339.719 499.158C341.298 491.751 338.899 484.108 338.97 476.536C338.938 475.349 339.099 474.164 339.447 473.029C340.05 471.299 341.345 469.918 342.541 468.531C344.036 466.797 345.424 464.975 346.699 463.073C347.555 461.796 348.719 458.511 350.237 458.238C353.627 457.628 357.575 463.007 358.416 465.626Z" fill="#0E8AFD"/>
<path d="M254.09 539.452C252.215 538.981 250.284 538.776 248.352 538.842C246.322 538.954 244.34 539.497 242.537 540.435C240.733 541.373 239.15 542.684 237.892 544.281C236.635 545.877 235.731 547.724 235.243 549.697C234.754 551.67 234.691 553.724 235.057 555.724C235.525 557.889 236.29 559.98 237.331 561.936C238.852 565.024 240.677 568.105 243.494 570.084C245.142 571.241 247.049 571.963 248.934 572.673L263.77 578.262C265.952 579.084 268.135 579.907 270.339 580.669C281.413 584.497 292.958 586.792 304.653 587.491C308.216 587.703 311.832 587.762 315.307 586.951C316.132 586.758 317.012 586.472 317.489 585.772C317.772 585.279 317.939 584.729 317.977 584.162L318.89 577.771C319.018 576.871 319.142 575.924 318.812 575.076C318.394 574.002 317.346 573.327 316.346 572.753C306.593 567.151 295.204 564.06 286.994 556.371C285.061 554.561 283.444 551.692 281.096 550.463C278.433 549.068 275.297 548.273 272.544 546.988C266.527 544.179 260.611 540.951 254.09 539.452Z" fill="#465C72"/>
<path opacity="0.1" d="M268.901 548.068C274.145 549.711 296.285 561.095 300.08 565.07C299.571 565.253 282.313 555.582 281.795 555.426C277.088 554.013 272.354 552.591 267.884 550.524C266.984 550.108 262.041 548.153 262.265 547.018C262.518 545.738 267.97 547.777 268.901 548.068Z" fill="black"/>
<path d="M334.323 590.806C334.621 590.828 334.916 590.741 335.155 590.561C335.259 590.427 335.336 590.273 335.381 590.109C335.425 589.945 335.437 589.773 335.414 589.604C335.406 586.702 335.398 583.8 335.39 580.897C332.886 579.705 330.085 579.322 327.336 578.955L314.51 577.24C314.805 577.28 312.505 582.765 312.857 583.497C313.479 584.788 318.229 585.931 319.57 586.541C324.231 588.659 329.074 590.988 334.323 590.806Z" fill="#FBBEBE"/>
<path d="M294.08 580.867C291.658 581.253 288.955 581.594 287.387 583.479C285.398 585.869 286.245 589.433 287.193 592.395C287.334 592.994 287.617 593.55 288.018 594.017C288.666 594.656 289.658 594.75 290.566 594.807C292.774 594.947 295.125 595.057 297.055 593.973C297.929 593.396 298.77 592.77 299.575 592.1C300.998 591.153 302.562 590.438 304.21 589.981C307.237 589.028 310.354 588.386 313.512 588.064C314.756 588.007 315.988 587.79 317.177 587.418C318.341 586.979 319.419 586.109 319.758 584.912C320.205 583.33 319.285 581.716 318.403 580.329C317.304 578.6 316.14 576.78 314.502 575.507C312.112 573.651 310.93 575.076 308.523 576.264C303.966 578.513 299.097 580.065 294.08 580.867Z" fill="#FBBEBE"/>
<path d="M287.751 583.048L272.374 578.503C270.504 577.951 268.602 577.393 266.651 577.395C264.701 577.396 262.661 578.035 261.396 579.52C260.204 580.919 259.862 582.832 259.565 584.646L258.929 588.528C258.606 590.5 258.282 592.51 258.573 594.488C258.864 596.465 259.874 598.441 261.628 599.398C263.756 600.559 266.364 599.992 268.739 599.506C273.536 598.526 278.415 598.002 283.311 597.943C285.152 597.921 287.082 597.945 288.709 597.083C290.642 596.058 291.799 593.891 291.997 591.712C292.3 588.397 291.195 584.066 287.751 583.048Z" fill="#25323F"/>
<path d="M340.367 579.088C342.361 578.738 344.12 577.605 346.03 576.937C348.719 575.995 351.632 575.995 354.481 576.006C355.527 576.01 356.64 576.033 357.511 576.613C358.765 577.448 359.087 579.12 359.3 580.612L360.588 589.615C360.83 591.309 361.07 593.047 360.693 594.716C360.315 596.384 359.178 597.993 357.522 598.423C355.511 598.946 353.54 597.661 351.642 596.817C346.896 594.708 341.38 595.247 336.432 593.671C335.514 593.379 334.531 592.931 334.156 592.043C333.987 591.543 333.927 591.013 333.979 590.488C334.064 587.594 333.453 583.642 334.325 580.876C335.108 578.389 338.142 579.088 340.367 579.088Z" fill="#25323F"/>
<path d="M372.909 535.828C375.982 535.058 379.167 534.84 382.316 535.186C384.831 535.463 387.422 536.162 389.258 537.903C391.492 540.022 392.21 543.298 392.27 546.377C392.369 552.509 390.335 558.485 386.516 563.284C385.584 564.498 384.475 565.565 383.227 566.451C381.88 567.293 380.444 567.985 378.946 568.513L345.721 581.618C336.981 585.066 328.209 588.524 319.092 590.796C318.843 590.917 318.572 590.986 318.296 591C318.019 591.014 317.743 590.973 317.482 590.879C317.222 590.784 316.984 590.639 316.78 590.451C316.577 590.263 316.414 590.036 316.299 589.784C313.388 585.626 310.946 581.158 309.017 576.463C308.926 576.352 308.863 576.22 308.833 576.079C308.804 575.938 308.809 575.791 308.848 575.652C308.887 575.514 308.958 575.386 309.057 575.281C309.156 575.176 309.278 575.096 309.414 575.048L332.914 561.546C334.598 560.578 336.3 559.597 337.698 558.25C338.713 557.266 339.545 556.108 340.153 554.831C340.64 553.814 340.686 551.413 341.308 550.661C341.917 549.924 344.001 549.865 344.964 549.576C346.321 549.16 347.65 548.658 348.943 548.071C354.2 545.72 358.881 542.303 363.921 539.549C366.747 537.933 369.768 536.683 372.909 535.828Z" fill="#465C72"/>
<path opacity="0.1" d="M359.587 545.912C355.549 548.945 350.321 551.732 346.32 554.844C344.954 555.907 322.188 568.706 321.866 570.406C325.599 571.035 349.38 554.398 352.783 552.738C356.185 551.078 359.201 548.737 362.19 546.414C362.952 545.821 366.179 544.041 363.993 543.379C362.761 543.007 360.496 545.306 359.587 545.912Z" fill="black"/>
<path d="M337.438 405.162L319.463 395.746L294.64 399.598L289.503 422.281L302.288 421.79L305.86 413.456V421.652L311.759 421.425L315.183 408.158L317.323 422.281L338.294 421.853L337.438 405.162Z" fill="#25323F"/>
<path d="M333.426 451.694H294.745V498.379H333.426V451.694Z" fill="#25323F"/>
<path d="M276.382 532.89C277.27 534.216 278.31 535.513 279.737 536.228C280.647 536.644 281.639 536.846 282.639 536.819C283.638 536.792 284.619 536.537 285.505 536.074C287.275 535.125 288.723 533.672 289.667 531.9C291.621 528.45 292.026 524.323 291.782 520.366C291.538 516.409 290.693 512.512 290.319 508.565C290.047 505.696 290.025 502.81 290.003 499.928C289.936 499.322 290.063 498.71 290.366 498.181C290.799 497.591 291.591 497.428 292.293 497.219C296.236 496.048 298.853 492.352 300.729 488.692C301.982 486.248 303.072 483.576 302.83 480.84C302.589 478.105 300.622 475.348 297.89 475.069C295.637 474.839 293.557 476.27 291.933 477.847C287.834 481.85 285.199 487.114 284.453 492.795C284.096 495.577 284.198 498.434 283.442 501.134C281.826 506.901 276.772 510.436 274.253 515.624C271.477 521.341 273.009 527.832 276.382 532.89Z" fill="#FBBEBE"/>
<path d="M350.762 510.862C350.188 512.199 349.351 513.408 348.301 514.416C347.252 515.425 346.011 516.213 344.652 516.734C342.962 517.412 341.099 517.527 339.339 517.059C338.467 516.817 337.662 516.377 336.987 515.773C336.312 515.17 335.785 514.419 335.448 513.578C335.178 512.732 335.031 511.852 335.009 510.964C334.756 507.075 334.854 503.068 336.266 499.437C336.811 498.036 337.546 496.708 337.976 495.268C338.398 493.604 338.614 491.895 338.619 490.179L339.084 479.57C339.16 478.8 339.107 478.022 338.926 477.269C338.463 475.734 337.028 474.737 335.712 473.821C332.532 471.61 329.391 469.03 327.85 465.477C327.321 464.408 327.131 463.202 327.307 462.021C327.741 459.915 329.867 458.551 331.969 458.091C333.344 457.791 334.765 457.771 336.148 458.035C337.53 458.298 338.845 458.839 340.013 459.624C341.182 460.409 342.179 461.423 342.945 462.603C343.711 463.784 344.23 465.108 344.47 466.494C344.678 467.692 344.675 468.915 344.797 470.124C345.055 472.689 345.869 475.161 346.379 477.688C347.634 483.912 346.983 490.347 348.224 496.57C349.262 501.773 353.173 505.169 350.762 510.862Z" fill="#FBBEBE"/>
<path d="M447.889 593.042L447 593.025C447.344 583.138 448.399 573.288 450.157 563.552C454.002 542.709 460.396 529.019 469.161 522.865L469.671 523.593C449.196 537.969 447.9 592.493 447.889 593.042Z" fill="#465C72"/>
<path d="M459.004 592.828L458.115 592.811C458.134 591.826 458.69 568.618 467.827 562.203L468.337 562.931C459.569 569.087 459.009 592.592 459.004 592.828Z" fill="#465C72"/>
<path d="M474.73 523.674C477.186 523.674 479.176 521.683 479.176 519.227C479.176 516.772 477.186 514.781 474.73 514.781C472.275 514.781 470.284 516.772 470.284 519.227C470.284 521.683 472.275 523.674 474.73 523.674Z" fill="#FF6584"/>
<path d="M472.528 561.91C474.984 561.91 476.974 559.919 476.974 557.464C476.974 555.008 474.984 553.018 472.528 553.018C470.073 553.018 468.082 555.008 468.082 557.464C468.082 559.919 470.073 561.91 472.528 561.91Z" fill="#FF6584"/>
<path d="M456.932 526.339C457.768 531.676 455.59 536.45 455.59 536.45C455.59 536.45 452.057 532.57 451.222 527.233C450.386 521.896 452.564 517.122 452.564 517.122C452.564 517.122 456.096 521.002 456.932 526.339Z" fill="#465C72"/>
<path d="M471.465 539.301C466.355 541.054 461.275 539.741 461.275 539.741C461.275 539.741 464.48 535.587 469.59 533.834C474.7 532.081 479.78 533.394 479.78 533.394C479.78 533.394 476.575 537.548 471.465 539.301Z" fill="#465C72"/>
<path d="M471.63 573.163C469.317 573.889 466.854 573.996 464.487 573.471C465.99 571.558 468.014 570.12 470.315 569.331C472.616 568.542 475.097 568.434 477.458 569.022C475.911 570.889 473.901 572.317 471.63 573.163Z" fill="#465C72"/>
<path d="M142.76 559.983C148.589 580.97 168.554 593.968 168.554 593.968C168.554 593.968 179.069 572.939 173.24 551.952C167.411 530.965 147.446 517.968 147.446 517.968C147.446 517.968 136.931 538.996 142.76 559.983Z" fill="#8597A8"/>
<path d="M151.337 555.433C167.077 570.621 169 593.968 169 593.968C169 593.968 145.403 592.691 129.663 577.503C113.923 562.315 112 538.968 112 538.968C112 538.968 135.597 540.245 151.337 555.433Z" fill="#38495B"/>
</svg>
