<svg width="652" height="575" viewBox="0 0 652 575" fill="none" xmlns="http://www.w3.org/2000/svg"><path d="M118 166c10.441 28.826 32.539 53.745 67.467 65.824 72.585 25.099 236.281 12.153 358.453-2.705 63.181-7.685 118.73-28.889 159.08-58.75L118 166ZM759.351 31.288h-67.093c-3.192 0-5.8-1.68-5.8-3.734 0-2.053 2.608-3.734 5.8-3.734h11.574c-3.185 0-5.8-1.68-5.8-3.733 0-2.054 2.615-3.734 5.8-3.734h-8.283c-3.186 0-5.8-1.68-5.8-3.734 0-2.054 2.614-3.734 5.8-3.734h35.021a133.804 133.804 0 0 0-27.322-4.848c-95.483-7.903-129.573-2.675-141.576 2.701a178.005 178.005 0 0 1-49.055 13.865c-58.946 7.816-169.127 17.238-268.988-3.006C193.996 7.522 157.112 24.548 135 53h636c-.832-8.27-3.316-15.906-7.88-22.59a7.834 7.834 0 0 1-3.769.878ZM112.439 106a123.437 123.437 0 0 0 2.607 50.137L704.076 170c16.305-12.079 30.12-25.575 40.924-40.165L112.439 106Zm232.976 35.765h-11.598c3.191 0 5.799 1.678 5.799 3.729 0 2.05-2.608 3.728-5.799 3.728h-67.114c-3.192 0-5.799-1.678-5.799-3.728 0-2.051 2.607-3.729 5.799-3.729h11.598c-3.191 0-5.799-1.677-5.799-3.728 0-2.05 2.608-3.728 5.799-3.728h-8.258c-3.191 0-5.799-1.678-5.799-3.728 0-2.051 2.608-3.728 5.799-3.728h67.089c3.186 0 5.793 1.684 5.793 3.728 0 2.044-2.607 3.728-5.793 3.728h8.283c3.186 0 5.793 1.684 5.793 3.728 0 2.045-2.607 3.728-5.793 3.728ZM770.702 53 128.38 63.104A119.183 119.183 0 0 0 113 106h646.446a126.21 126.21 0 0 0 9.303-27.342c1.96-8.95 2.729-17.6 1.953-25.658ZM243.423 86.105h-11.597c3.187 0 5.792 1.69 5.792 3.742s-2.605 3.742-5.792 3.742h-66.979c-3.182 0-5.787-1.684-5.787-3.742s2.605-3.742 5.787-3.742h11.585c-3.188 0-5.793-1.684-5.793-3.742s2.605-3.742 5.793-3.742h-8.305c-3.187 0-5.792-1.684-5.792-3.742 0-2.059 2.605-3.743 5.792-3.743h66.979c3.188 0 5.793 1.684 5.793 3.743 0 2.058-2.605 3.742-5.793 3.742h8.317c3.188 0 5.792 1.69 5.792 3.742s-2.617 3.742-5.792 3.742Z" fill="#38495B"/><path d="M295.42 207.694s-10.149 12.992-18.314 23.248c-5.232 6.597-9.631 12.042-9.948 12.157a6.756 6.756 0 0 1-1.006 0c-4.082-.374-19.664-2.564-26.737-3.543l-3.536-.519s.23-6.136 1.15-13.569c1.121-8.93 3.277-19.704 7.274-24.026a12.545 12.545 0 0 0 2.587-4.379 28.376 28.376 0 0 0 .633-12.877 49.12 49.12 0 0 0-1.869-7.807s25.875-15.268 24.495-1.354a26.516 26.516 0 0 0 .92 10.573 18.063 18.063 0 0 0 5.75 9.046l18.601 13.05Z" fill="#FBBEBE"/><path opacity=".1" d="M271.079 185.567a20.645 20.645 0 0 1-23.548-1.412 49.083 49.083 0 0 0-1.869-7.806s25.877-15.269 24.497-1.354a26.511 26.511 0 0 0 .92 10.572Z" fill="#fff"/><path d="M280.953 166.814a20.745 20.745 0 0 1-5.151 13.672 20.655 20.655 0 0 1-12.877 6.861 20.636 20.636 0 0 1-14.192-3.364 20.71 20.71 0 0 1-8.443-11.916 20.754 20.754 0 0 1 1.508-14.535 20.689 20.689 0 0 1 10.71-9.92 20.63 20.63 0 0 1 14.579-.366 20.683 20.683 0 0 1 11.192 9.37 20.753 20.753 0 0 1 2.674 10.198Z" fill="#FBBEBE"/><path opacity=".1" d="m278.3 156.612-.23.375a6.884 6.884 0 0 1-6.296 1.959 7.952 7.952 0 0 1-6.843-3.659c-1.064-2.276-.776-4.696-3.708-5.041-2.933-.346-5.952-2.075-8.424-1.066a5.987 5.987 0 0 0-2.875 5.329 16.123 16.123 0 0 1-.978 6.252c-.948 1.786-2.874 2.881-3.708 4.753a11.546 11.546 0 0 0-.575 6.684c.505 2.22.366 4.54-.403 6.683l-.287.519a20.74 20.74 0 0 1 5.505-29.247 20.626 20.626 0 0 1 15.863-2.926 20.661 20.661 0 0 1 13.131 9.385h-.172Z" fill="#fff"/><path d="M264.923 154.193a7.897 7.897 0 0 0 6.843 3.658 6.884 6.884 0 0 0 6.296-1.959c.45-.681.79-1.43 1.006-2.218l1.581-4.753a8.652 8.652 0 0 0 0-7.635c-1.322-1.93-4.168-2.736-4.772-5.012a31.057 31.057 0 0 1-.173-3.284 6.191 6.191 0 0 0-4.715-4.322 15.295 15.295 0 0 0-10.838.72 3.237 3.237 0 0 1-1.524.461c-.863 0-1.524-.72-2.271-1.181-2.387-1.383-5.405 0-7.705 1.642a12.508 12.508 0 0 0-3.076 2.68c-.748 1.037-1.179 2.275-1.869 3.341-2.214 3.4-6.642 4.495-9.833 6.972a16.799 16.799 0 0 0-5.75 11.524 32.657 32.657 0 0 0 1.668 12.963c.218.828.547 1.623.977 2.363 1.323 1.988 3.91 2.881 5.175 4.84 1.265 1.959 1.121 3.889 2.645 4.983a4.042 4.042 0 0 0 4.671-.69c.404-.391.723-.862.935-1.384.763-2.144.912-4.459.432-6.683a11.226 11.226 0 0 1 .546-6.684c.949-1.786 2.875-2.881 3.709-4.753a16.14 16.14 0 0 0 .977-6.252 6 6 0 0 1 2.875-5.33c2.473-1.008 5.75.778 8.424 1.066 2.674.289 2.674 2.651 3.766 4.927Z" fill="#25323F"/><g opacity=".1" fill="#fff"><path opacity=".1" d="M234.842 172.173c-1.265-2.017-3.852-2.881-5.146-4.84a1.599 1.599 0 0 0 0 .403c.218.828.547 1.623.977 2.363 1.323 1.988 3.91 2.881 5.175 4.84.084.115.152.241.202.374a19.385 19.385 0 0 0-1.208-3.14ZM274.891 133.543c.183.614.508 1.176.949 1.641.058-.728.058-1.46 0-2.189a3.993 3.993 0 0 0-1.036-2.131c-.072.893-.043 1.792.087 2.679ZM260.219 146.45c-2.559-.317-5.951-2.103-8.423-1.066a5.996 5.996 0 0 0-2.875 5.3 16.363 16.363 0 0 1-.978 6.281c-.948 1.786-2.874 2.881-3.708 4.753a11.108 11.108 0 0 0-.546 6.655 12.32 12.32 0 0 1-.432 6.712 4.058 4.058 0 0 1-2.336 2.258 4.055 4.055 0 0 1-1.64.248 4.055 4.055 0 0 1-1.601-.432 3.62 3.62 0 0 1-1.092-1.296c.604 1.44.92 3.111 2.156 4.004a4.038 4.038 0 0 0 3.258.199 4.054 4.054 0 0 0 2.348-2.273c.762-2.144.912-4.459.431-6.683a11.234 11.234 0 0 1 .546-6.684c.949-1.786 2.875-2.881 3.709-4.753a16.14 16.14 0 0 0 .977-6.252 6.008 6.008 0 0 1 .716-3.055 5.985 5.985 0 0 1 2.159-2.274c2.472-1.009 5.75.778 8.423 1.066a2.872 2.872 0 0 1 2.156 1.123c-.718-1.872-.948-3.572-3.248-3.831ZM280.75 141.291l-.258-.345a14.196 14.196 0 0 1-.949 5.272l-1.581 4.724a7.708 7.708 0 0 1-1.007 2.218 6.834 6.834 0 0 1-6.296 1.959 8.447 8.447 0 0 1-6.497-3.053c.189.73.439 1.443.748 2.131a7.906 7.906 0 0 0 6.842 3.659 6.884 6.884 0 0 0 6.296-1.959c.45-.681.79-1.43 1.006-2.218l1.581-4.754a8.646 8.646 0 0 0 .115-7.634Z"/></g><path d="m243.714 160.683-9.887 3.337a1.619 1.619 0 0 0-1.015 2.049l8.18 24.33a1.613 1.613 0 0 0 2.045 1.016l9.888-3.337a1.619 1.619 0 0 0 1.014-2.049l-8.18-24.329a1.613 1.613 0 0 0-2.045-1.017Z" fill="#464A5F"/><path d="m239.724 153.131-9.854 3.356a1.613 1.613 0 0 0-1.006 2.046l8.224 24.248a1.61 1.61 0 0 0 2.042 1.009l9.854-3.356a1.614 1.614 0 0 0 1.007-2.046l-8.224-24.248a1.61 1.61 0 0 0-2.043-1.009Z" fill="#9C9CA1"/><path d="M237.274 165.062a2.136 2.136 0 0 0 2.134-2.138c0-1.18-.955-2.137-2.134-2.137a2.135 2.135 0 0 0-2.133 2.137c0 1.181.955 2.138 2.133 2.138Z" fill="#939498"/><path d="M235.789 410.211s2.616 11.092 3.709 15.442c1.092 4.35 3.45 11.984 3.45 11.984s.259 9.91 1.897 11.811c1.639 1.902 1.265 20.627 8.165 32.064 6.9 11.437 15.842 37.134 15.842 37.134l1.178 8.642 11.5-13.54-9.602-49.492s-5.75-20.166-3.91-26.331c1.84-6.165-7.159-30.623-7.159-30.623l-25.07 2.909Z" fill="#F3AEAE"/><path opacity=".05" d="m282.099 512.395-11.499 13.54-1.179-8.642s-9.2-25.784-16.071-37.307c-6.871-11.524-6.526-30.163-8.165-32.064-1.639-1.902-1.897-11.812-1.897-11.812s-2.358-7.634-3.422-11.984c-.661-2.593-1.868-7.605-2.731-11.235l-1.006-4.206 25.299-2.881s.288.777.719 2.074c2.099 6.021 7.849 23.392 6.44 28.549-1.725 6.252 3.91 26.331 3.91 26.331l9.602 49.637Z" fill="#fff"/><path d="m285.625 536.456-10.12 7.634c-4.916 5.272-19.32 9.622-25.588 7.635-5.318-1.7-2.673-6.05-.431-7.692.322-.264.694-.46 1.093-.576a36.366 36.366 0 0 0 7.331-5.099 40.866 40.866 0 0 0 5.75-10.976c.805-4.091 6.612-7.462 6.612-7.462s7.791-7.605 11.328-6.078c2.3 1.008 4.715 9.276 6.095 14.894 0 .316 0 .633.23.95a6.548 6.548 0 0 1-2.3 6.77Z" fill="#465C72"/><path opacity=".1" d="m285.624 536.451-10.12 7.634c-4.916 5.272-19.319 9.622-25.587 7.634-5.318-1.699-2.673-6.049-.431-7.691 2.156 3.399 10.062 2.88 10.062 2.88l14.03-6.28 14.374-11.811c0 .317 0 .634.23.951a6.546 6.546 0 0 1-2.558 6.683Z" fill="#fff"/><path opacity=".05" d="M269.749 518.023s-9.056-25.726-15.956-37.163c-6.899-11.437-6.526-30.134-8.136-32.064-1.61-1.93-1.926-11.811-1.926-11.811s-2.357-7.606-3.421-11.985c-.661-2.593-1.869-7.605-2.875-11.206l-1.006-4.235 23.718-2.622v-.172l-25.299 2.88s.431 1.787 1.006 4.235c.862 3.601 2.07 8.643 2.875 11.207 1.092 4.379 3.45 11.984 3.45 11.984s.259 9.91 1.897 11.811c1.639 1.902 1.265 20.627 8.165 32.064 6.9 11.437 15.927 37.163 15.927 37.163l1.179 8.642 1.408-1.642-1.006-7.086Z" fill="#fff"/><path d="M329.726 247.422h-28.29v32.727h28.29v-32.727Z" fill="#0E8AFD"/><path d="M331.734 301.204c-.862 2.449-3.076 7.087-3.536 8.009v.173L307.9 328.342l-.488.461v-.432c-1.093-3.601-8.625-29.299-9.632-30.71a20.239 20.239 0 0 1 0-7.923v-1.325l-.661-17.775 2.875-5.762 27.916 8.874 3.91 7.691s.863 17.055-.086 19.763Z" fill="#0E8AFD"/><path opacity=".1" d="M328.202 309.212v.173l-20.297 18.956h-.604l-6.957.432-5.032-40.966s.834.778 2.214 1.902c3.996 3.313 12.65 9.852 19.263 10.716a15.688 15.688 0 0 1 6.771 3.006 15.716 15.716 0 0 1 4.642 5.781ZM330.308 298.899a13.04 13.04 0 0 1-6.037-2.075 53.294 53.294 0 0 0-6.468-4.35l6.583 7.289s5.031 1.613 5.922-.864Z" fill="#fff"/><path opacity=".1" d="M313.865 303.506s.403 7.433 4.887 7.491c4.485.057-4.887-7.491-4.887-7.491ZM318.482 303.506s3.392 6.222 5.031 5.387c1.638-.836-5.031-5.387-5.031-5.387Z" fill="#fff"/><path d="m223.853 243.097-4.743 1.786a55.78 55.78 0 0 0-13.944 2.478c-4.801 2.016-14.576 0-14.576 0s17.02-22.24 17.25-22.326l18.026-6.655-2.013 24.717Z" fill="#FF748E"/><path opacity=".03" d="m225.013 242.637-4.744 1.758a54.749 54.749 0 0 0-13.914 2.506c-4.801 1.988-14.605 0-14.605 0s17.048-22.268 17.25-22.355l18.054-6.654-2.041 24.745Z" fill="#FF6584"/><path d="M291.635 485.75c-1.006 3.082-5.002 23.335-7.158 26.619-2.156 3.284-4.715 22.067-4.715 22.067l-.489.346-1.064.749s-15.582-.749-13.77-3.543a8.495 8.495 0 0 0 .69-2.651c1.178-7.634 1.293-27.973 1.293-27.973l.201-32.237s4.083-10.399 1.265-18.063a39.596 39.596 0 0 1-2.529-14.173s.431-7.462-1.553-10.458c-1.61-2.42-1.926-15.24-1.984-19.964v-1.758l2.53-3.802 27.715 1.93s0 2.218-.202 5.128a85.969 85.969 0 0 1-1.063 10.112 116.223 116.223 0 0 0 0 18.639l1.552 17.515c3.536 8.47.259 28.463-.719 31.517Z" fill="#FBBEBE"/><path opacity=".05" d="M261.807 409.465v.201a32.533 32.533 0 0 1-25.012 4.754c-.604-2.42-1.006-4.206-1.006-4.206l25.271-2.881.747 2.132Z" fill="#fff"/><path d="m302.571 339.122-.345 7.029-.833 15.932-39.588 6.453v40.044a31.591 31.591 0 0 1-15.346 5.454 31.56 31.56 0 0 1-16.02-2.919s.259-13.511 0-14.894c-.259-1.383-1.093-6.885-1.093-6.885a27.783 27.783 0 0 1-1.351-7.462 28.19 28.19 0 0 0-2.558-9.075 65.215 65.215 0 0 1-1.725-8.901l-.892-7.98a4.47 4.47 0 0 1-1.466-1.729c-.144-.518.173-5.301.489-9.276.23-2.881.431-5.445.431-5.445l36.972-7.001 43.325 6.655Z" fill="#465C72"/><path opacity=".05" d="M260.609 373.391v31.373a4.554 4.554 0 0 1-1.869-4.148c-.173-4.178-.518-14.088-1.093-18.525a16.912 16.912 0 0 1 2.243-9.277l.719.577Z" fill="#fff"/><path opacity=".1" d="M237.943 360.634a10.282 10.282 0 0 0 3.239 3.499 10.244 10.244 0 0 0 4.466 1.657c5.951 1.095-7.705-5.156-7.705-5.156ZM232.266 368.784s12.506 2.103 15.496 2.017l-15.496-2.017ZM236.064 377.982a33.24 33.24 0 0 0 11.097-1.728l-11.097 1.728ZM234.621 399.331s18.114-6.943 20.299-10.572l-20.299 10.572ZM238.883 408.231c.632 0 16.588-9.737 17.94-12.272l-17.94 12.272ZM292.067 402.876s0 2.218-.201 5.127l-30.044-1.498v-1.757l2.53-3.802 27.715 1.93ZM267.531 366.892s15.267-3.773 18.487-1.354c3.22 2.42-18.487 1.354-18.487 1.354ZM252.291 340.09s3.076 28.808 5.75 30.796c2.674 1.988 13.311-30.796 13.311-30.796h-19.061Z" fill="#fff"/><path d="M252.816 339.008s3.105 28.808 5.75 30.796c2.645 1.988 13.168-30.796 13.168-30.796h-18.918Z" fill="#465C72"/><path opacity=".1" d="m302.586 339.121-.345 7.029a25.028 25.028 0 0 1-7.791-4.436l-.402-.288a10.727 10.727 0 0 0-9.775-.461c-.932.328-1.836.733-2.703 1.209 0 0-40.076 1.355-40.076.26s-5.75.432-9.459 1.469a27.783 27.783 0 0 0-3.047.98 18.89 18.89 0 0 1-7.015 0c.23-2.881.431-5.445.431-5.445l36.972-7.001 43.21 6.684Z" fill="#fff"/><path opacity=".1" d="M303.586 343.811c-.428-.091-.85-.206-1.265-.345a25.389 25.389 0 0 1-7.877-4.639l-.403-.288a10.73 10.73 0 0 0-9.775-.461 18.06 18.06 0 0 0-2.702 1.21s-40.077 1.354-40.077.26c0-1.095-5.75.432-9.459 1.498a29.514 29.514 0 0 0-3.047.95c-2.32.423-4.696.423-7.015 0-.891 0-1.495-.201-1.495-.201v-.087l1.983-50.386 5.75-44.855 2.07-18.812 6.785-3.313 6.814-3.313a17.882 17.882 0 0 0 2.616 2.881 15.16 15.16 0 0 0 19.205 1.786 29.08 29.08 0 0 0 2.875-1.93c3.076-2.391 5.951.288 8.625 6.079 10.379 22.528 17.25 92.187 17.25 92.187l10.263 6.626s.345 1.296.662 3.169c.488 3.803 1.092 10.083-1.783 11.984Z" fill="#fff"/><path d="M303.586 344.912a9.317 9.317 0 0 1-1.265-.375 25.125 25.125 0 0 1-7.877-4.523l-.403-.288a10.73 10.73 0 0 0-9.775-.461 18.06 18.06 0 0 0-2.702 1.21s-40.077 1.354-40.077.259c0-1.094-5.75.432-9.459 1.498a29.52 29.52 0 0 0-3.047.951 18.847 18.847 0 0 1-7.015 0l-1.495-.202v-.316l1.983-50.358 5.75-44.855 2.07-18.812 6.785-3.313 6.814-3.313a17.882 17.882 0 0 0 2.616 2.881 15.166 15.166 0 0 0 9.283 4.342c3.503.326 7.01-.577 9.922-2.556a29.53 29.53 0 0 0 2.875-1.959c3.076-2.362 5.951.317 8.625 6.108 10.379 22.528 17.25 92.187 17.25 92.187l10.263 6.655s.345 1.296.662 3.169c.488 3.86 1.092 10.169-1.783 12.071Z" fill="#fff"/><path opacity=".1" d="M305.187 332.835a23.68 23.68 0 0 1-11.126 6.885 47.408 47.408 0 0 1-9.114 2.103l-.661-2.563c-1.466-5.935-5.175-20.512-7.331-25.928a61.546 61.546 0 0 1-3.45-14.894 77.93 77.93 0 0 0-4.025-21.434c-1.754-5.099-2.875-19.59-3.306-33.907a963.911 963.911 0 0 1-.489-16.277c-.23-10.314-.23-18.034-.23-18.034l3.249-5.157a10.844 10.844 0 0 1 1.466-6.655 16.98 16.98 0 0 1 3.335-4.148l3.565 1.872 18.371 13.022s-10.149 12.992-18.314 23.248c10.379 22.528 17.25 92.187 17.25 92.187l10.263 6.655s.23 1.153.547 3.025Z" fill="#fff"/><path d="M302.506 298.242c-.546 10.515 6.153 28.146 6.153 28.146-1.064 12.531-22.655 14.894-22.655 14.894s-5.261-21.606-7.964-28.52a61.592 61.592 0 0 1-3.45-14.894 77.929 77.929 0 0 0-4.024-21.434c-3.853-11.264-4.054-68.218-4.054-68.218l3.277-5.157a10.65 10.65 0 0 1 1.466-6.654 17.027 17.027 0 0 1 3.335-4.149l7.188 3.745c2.099 1.095 3.91 1.931 5.491 2.651a44.428 44.428 0 0 0 15.295 3.572c.541.068 1.079.164 1.61.288 9.459 2.161 16.818 13.454 16.818 14.231.7 1.693 1.671 3.26 2.875 4.639 1.15 1.498-.805 4.004-.805 4.004s3.623 2.564 3.077 4.926c-.547 2.362 2.731 6.338 2.731 6.338l-20.326 15.441s-5.491 35.607-6.038 46.151Z" fill="#FF6584"/><path d="M269.674 219.509c.621 0 1.124-.505 1.124-1.127s-.503-1.127-1.124-1.127c-.62 0-1.123.505-1.123 1.127s.503 1.127 1.123 1.127ZM269.674 234.484c.621 0 1.124-.504 1.124-1.127 0-.622-.503-1.127-1.124-1.127-.62 0-1.123.505-1.123 1.127 0 .623.503 1.127 1.123 1.127ZM273.636 270.159a1.126 1.126 0 0 0 0-2.253 1.126 1.126 0 0 0 0 2.253ZM276.487 288.418a1.125 1.125 0 1 0 0-2.25 1.125 1.125 0 0 0 0 2.25ZM279.273 307.693c.621 0 1.124-.505 1.124-1.127a1.126 1.126 0 1 0-2.249 0c0 .622.504 1.127 1.125 1.127ZM271.915 252.032a1.126 1.126 0 0 0 0-2.254c-.621 0-1.124.505-1.124 1.127 0 .623.503 1.127 1.124 1.127Z" fill="#767D9F"/><path opacity=".1" d="M281.775 197.082a25.872 25.872 0 0 1-5.749 4.869c-1.007 0-3.479-2.881-4.801-4.465a17.486 17.486 0 0 1 3.334-4.177c2.933 1.469 5.175 2.736 7.216 3.773Z" fill="#fff"/><path d="M281.775 196.001a25.898 25.898 0 0 1-5.749 4.869c-1.007 0-3.479-2.881-4.801-4.465a17 17 0 0 1 3.334-4.149l7.216 3.745Z" fill="#FF6584"/><path opacity=".1" d="M251.849 213.684s-2.875 6.54-5.377 11.322a21.326 21.326 0 0 1-2.875 4.293 29.403 29.403 0 0 0-4.169 10.227c-1.092 3.975-1.811 7.576-1.811 7.576-1.552 2.363-1.552 31.69-1.552 31.69 2.645 11.264-2.185 43.212-2.185 43.212l-1.409 15.499-.431 4.696v.864h-2.876a65.946 65.946 0 0 1-6.986-.23l-1.524-.173 1.984-50.357 5.75-44.855 2.07-18.812 6.785-3.313c1.122-8.931 3.278-19.705 7.274-24.026a12.532 12.532 0 0 0 2.588-4.379 16.563 16.563 0 0 1 1.61-1.296l1.524 2.88 2.443 4.783c.777 2.218-.833 10.399-.833 10.399Z" fill="#fff"/><path d="M250.747 213.134s-5.261 12.618-8.251 15.614c-2.99 2.996-5.98 17.804-5.98 17.804-1.552 2.362-1.552 31.689-1.552 31.689 2.645 11.264-2.157 43.213-2.157 43.213l-1.954 21.059c-35.937 1.671-26.076-18.236-26.076-18.236l8.337-45.316a120.364 120.364 0 0 0 2.501-17.285c-.258-3.803 3.479-16.738 3.479-16.738s-6.612-34.339-5.922-35.895c.69-1.556 23.66-5.474 23.66-5.474.771.025 1.542-.033 2.3-.173a4.136 4.136 0 0 0 3.335-2.477 14.57 14.57 0 0 1 4.945-5.762l1.524 2.881 2.443 4.811c1.006 2.103-.632 10.285-.632 10.285Z" fill="#FF6584"/><path opacity=".1" d="M248.936 199.243c-3.564 3.198-7.387 14.779-7.387 14.779l-2.414-9.593a4.14 4.14 0 0 0 3.334-2.478 14.575 14.575 0 0 1 4.944-5.762l1.523 3.054Z" fill="#fff"/><path d="M248.936 198.162c-3.564 3.197-7.387 14.779-7.387 14.779l-2.414-9.594a4.13 4.13 0 0 0 3.334-2.477 14.575 14.575 0 0 1 4.944-5.762l1.523 3.054Z" fill="#FF6584"/><path opacity=".1" d="M206.707 325.914s.489 5.532 11.788 2.132c11.3-3.4-11.788-2.132-11.788-2.132Z" fill="#fff"/><path d="M346.487 273.982c-1.638 3.082-3.708 8.181-5.347 8.901a16.4 16.4 0 0 1-4.974.144c-3.392-.172-7.158-.605-7.158-.605s8.625-18.552-3.077-23.306h-10.522l-6.727-7.029 17.681-16.968 2.645 1.527 13.397 20.166s1.38 1.527 2.645 2.881c1.265 1.354.345 4.263.345 4.263s2.702 6.943 1.092 10.026Z" fill="#FF6584"/><path opacity=".1" d="M282.767 253.982s5.089-40.015 20.299-50.934c-.522-.123-1.05-.22-1.582-.288a44.427 44.427 0 0 1-15.324-3.572 39.796 39.796 0 0 0-8.428 13.695 39.862 39.862 0 0 0-2.325 15.92c1.122 20.426 0 25.179 0 25.179h1.783c3.249 6.598 17.02 33.937 24.639 39.67l.834-6.943s-19.838-23.047-21.563-32.727h1.667Z" fill="#fff"/><path opacity=".1" d="M284.966 253.443s5.088-40.015 20.124-50.934a14.123 14.123 0 0 0-1.581-.288 44.428 44.428 0 0 1-15.295-3.572 39.853 39.853 0 0 0-10.723 29.615c1.121 20.425 0 25.179 0 25.179h1.782c3.249 6.597 16.991 33.936 24.638 39.669l.805-6.943s-19.837-23.047-21.533-32.726h1.783Z" fill="#fff"/><path d="M277.482 252.032s16.617 34.571 25.328 41.082l.805-6.943s-23.315-26.995-21.562-34.888l-4.571.749Z" fill="#465C72"/><path d="M304.153 202.509c-15.209 10.919-20.298 50.934-20.298 50.934h-7.36s1.121-4.754 0-25.179a39.862 39.862 0 0 1 2.325-15.92 39.796 39.796 0 0 1 8.428-13.695 44.434 44.434 0 0 0 15.295 3.572c.541.068 1.079.164 1.61.288Z" fill="#465C72"/><path opacity=".1" d="m295.707 292.474-.488 27.799 4.715 2.392-4.227-30.191ZM306.031 233.816c3.134-.749 11.155-3.399 11.5-6.05.345-2.65-11.5 6.05-11.5 6.05ZM306.526 239.092a72.292 72.292 0 0 0 11.499-5.762c1.552-1.613-12.994 2.478-11.499 5.762ZM236.888 210.024s-4.342 8.643-1.725 9.478c2.616.836 1.725-9.478 1.725-9.478ZM270.037 303.506s-34.789 20.598-27.458 21.78c7.332 1.181 27.458-21.78 27.458-21.78ZM290.908 347.096s9.142 1.729 8.768 4.553l-8.768-4.553Z" fill="#fff"/><path d="m333.844 266.801-.402 10.63s-2.588 4.466-4.456 5.042a2.28 2.28 0 0 1-.69 0c-3.709-.202-17.653-4.293-18.889-6.626-1.237-2.333-21.965-11.523-21.965-11.523s-17.25-26.389-4.342-32.784c12.909-6.395 12.363 24.861 12.363 24.861a95.387 95.387 0 0 1 13.225 2.737c1.265.807 12.823.231 16.273 0h.949l3.679.663 4.255 7Z" fill="#FBBEBE"/><path opacity=".1" d="m333.837 266.813-.402 10.63s-2.588 4.465-4.457 5.041a2.28 2.28 0 0 1-.69 0h-.374s8.453-18.437-2.875-23.248h.949l3.68.663 4.169 6.914Z" fill="#fff"/><path opacity=".1" d="M336.678 283.031c-3.392-.173-7.159-.605-7.159-.605s8.625-18.552-3.076-23.305l9.114-.893c11.327 7.547 3.45 21.231 1.121 24.803Z" fill="#fff"/><path d="M336.141 283.025c-3.393-.172-7.159-.604-7.159-.604s8.625-18.553-3.076-23.306l9.085-.951c11.499 7.605 3.479 21.289 1.15 24.861Z" fill="#FF748E"/><path d="m199.627 215.677 26.277-23.422s7.072-6.655 6.526-8.643c-.546-1.987-6.44-20.54 3.45-21.606 9.89-1.066 6.613 30.854 6.613 30.854l-28.261 34.629-14.605-11.812Z" fill="#FBBEBE"/><path opacity=".1" d="M183.134 240.559s-1.897-8.988 1.007-12.272c2.903-3.284 16.042-14.722 16.042-14.722s6.584 10.285 18.314 8.787l-13.168 17.574s-5.75 7.634-14.231 6.885c-8.481-.749-7.964-6.252-7.964-6.252Z" fill="#fff"/><path d="M182.609 241.116s-1.898-8.989 1.006-12.273c2.904-3.284 16.043-14.721 16.043-14.721s11.242 11.35 17.682 12.733l-12.507 13.627s-5.75 7.605-14.375 6.885c-8.625-.72-7.849-6.251-7.849-6.251Z" fill="#FF6584"/><path opacity=".1" d="m204.977 219.615-11.731-1.037s5.233-6.539 8.022-6.741c2.789-.202 2.875.346 2.875.346l-3.68 3.313 4.514 4.119Z" fill="#fff"/><path d="m204.977 219.07-11.731-1.037s5.233-6.54 8.022-6.741c2.789-.202 2.875.345 2.875.345l-3.68 3.313 4.514 4.12Z" fill="#FF748E"/><path opacity=".1" d="M207.188 221.867s-3.047 10.688 7.418 11.524l3.335-10.4a18.505 18.505 0 0 1-10.753-1.124Z" fill="#fff"/><path d="M207.725 221.311s-3.048 10.688 7.42 11.524l3.336-10.401s-6.787 1.153-10.756-1.123Z" fill="#FF748E"/><path opacity=".1" d="m292.395 453.425-1.524-17.544a112.71 112.71 0 0 1 0-18.61c.528-3.35.873-6.725 1.035-10.112.173-2.881.23-5.128.23-5.128l-27.743-1.93 26.162 1.815s0 2.218-.23 5.128a81.084 81.084 0 0 1-1.035 10.112 115.863 115.863 0 0 0 0 18.61l1.553 17.544c3.622 8.441.344 28.434-.633 31.516-.978 3.083-5.003 23.335-7.188 26.619-2.185 3.285-4.686 22.068-4.686 22.068l-1.437.979h1.524l1.523-1.095s2.559-18.811 4.715-22.067c2.156-3.255 6.181-23.536 7.159-26.619.977-3.082 4.197-22.845.575-31.286Z" fill="#fff"/><path d="m295.802 358.623 5.635 3.457v45.316l-40.824-2.046-2.818-33.303 6.699-8.152 31.308-5.272Z" fill="#465C72"/><path opacity=".1" d="M265.98 384.318s17.25 14.088 22.454 15.01l-22.454-15.01ZM279.753 533.372a6.538 6.538 0 0 0-.488 1.44l-1.064.749s-15.583-.749-13.771-3.544c.372-.84.605-1.735.69-2.65 3.651-.836 9.832 3.371 9.832 3.371l4.801.634Z" fill="#fff"/><path d="M280.934 563.792a27.75 27.75 0 0 0-1.466 7.375s-3.335 5.07-8.05 3.543c-4.715-1.527-18.774-.922-19.579-1.296-2.645-1.182-1.495-3.976 0-6.54.863-1.469 1.84-2.881 2.271-3.802 1.179-2.651 3.882-9.536 3.882-9.536a16.578 16.578 0 0 1 3.823-10.457l1.812-11.812c3.047-3.082 11.327 2.564 11.327 2.564l4.801.634c-2.443 5.358 0 20.338 0 20.338s.403 1.268.777 2.881c.66 1.967.799 4.071.402 6.108Z" fill="#465C72"/><path opacity=".1" d="M280.933 563.795a27.75 27.75 0 0 0-1.466 7.375s-3.335 5.07-8.05 3.543c-4.715-1.527-18.773-.922-19.578-1.296-2.645-1.181-1.495-3.976 0-6.54 6.382.375 20.642 1.037 23.833-.173 4.082-1.555 4.974-6.856 4.945-9.017a11.98 11.98 0 0 1 .316 6.108Z" fill="#fff"/><path d="M272.985 547.122a.924.924 0 1 0-.001-1.847.924.924 0 0 0 .001 1.847ZM261.823 547.122a.924.924 0 1 0-.003-1.85.924.924 0 0 0 .003 1.85ZM272.985 552.213a.924.924 0 1 0-.001-1.847.924.924 0 0 0 .001 1.847ZM261.596 552.213a.924.924 0 0 0 0-1.849.924.924 0 0 0 0 1.849ZM270.188 563.709a.924.924 0 0 0 0-1.849.923.923 0 0 0-.922.925c0 .51.412.924.922.924ZM260.651 563.709a.924.924 0 1 0-.001-1.847.924.924 0 0 0 .001 1.847ZM270.602 561.114a.924.924 0 1 0-.001-1.847.924.924 0 0 0 .001 1.847ZM260.881 561.114a.924.924 0 1 0-.001-1.847.924.924 0 0 0 .001 1.847ZM271.099 558.153a.924.924 0 0 0 0-1.849.924.924 0 0 0 0 1.849ZM261.823 558.153a.924.924 0 1 0-.003-1.847.924.924 0 0 0 .003 1.847ZM272.044 555.187a.924.924 0 0 0 .922-.925.924.924 0 1 0-1.845 0c0 .511.413.925.923.925ZM261.823 555.187a.924.924 0 0 0 .922-.925.924.924 0 1 0-1.845 0c0 .511.413.925.923.925Z" fill="#605B89"/><path d="M263.789 539.279a7.41 7.41 0 0 0 10.523 1.181" stroke="#fff" stroke-width="10.409" stroke-miterlimit="10"/><g opacity=".8"><path d="M45.318 210.226c10.2 0 18.468-8.269 18.468-18.47 0-10.2-8.268-18.469-18.468-18.469s-18.468 8.269-18.468 18.469c0 10.201 8.268 18.47 18.468 18.47Z" fill="#25323F"/><path opacity=".1" d="M34.605 335.429c1.907 13.375-.418 27.014-4.04 40.027-.676 2.423-1.405 4.867-2.67 7.042-1.266 2.175-3.028 4.045-4.515 6.091-3.1 4.267-4.918 9.299-6.618 14.279A402.823 402.823 0 0 0 4.973 444.88c-.19.582-.19 1.21 0 1.793.45 1.033 1.813 1.167 2.935 1.162l14.495-.077c.517-.992-.439-2.067-1.033-3.017-2.066-3.214-.083-7.388 1.741-10.751a115.617 115.617 0 0 0 10.218-25.831c.992-3.787 1.798-7.657 3.41-11.227 1.948-4.329 5-8.054 7.48-12.104 2.883-4.707 4.985-9.816 7.072-14.946 2.914-7.119 5.854-14.326 7-21.931 1.08-7.139.548-14.413-.155-21.6a1.362 1.362 0 0 0-1.58-1.549l-19.45-1.003c-4.01-.206-4.96-1.085-4.35 2.852.423 2.94 1.426 5.802 1.85 8.778Z" fill="#000"/><path d="M38.427 302.912c-3.952 5.683-8.095 12.223-6.783 19.027.997 5.166 4.934 9.17 8.648 12.916 14.847 14.909 29.446 31.472 34.498 51.905 1.302 5.279 1.932 10.699 3.053 16.015 2.036 9.661 5.683 18.898 9.3 28.078l9.69 24.462a14.65 14.65 0 0 0 14-9.299c-1.27-.098-2.929-1.328-3.673-2.361-4.132-5.719-4.98-13.076-6.039-20.05-1.172-7.708-2.738-15.354-4.308-22.995l-6.943-33.808c-.8-3.9-1.602-7.806-2.645-11.649-4.04-14.889-11.696-28.931-12.879-44.326-.175-2.263-.284-4.748-1.818-6.427-1.612-1.772-4.257-2.067-6.649-2.206-9.676-.62-18.024-1.566-27.452.718Z" fill="#25323F"/><path d="M11.79 447.008a15.466 15.466 0 0 0-3.214-.414 6.67 6.67 0 0 0-5.249 2.868 13.045 13.045 0 0 0-1.41 3.099l-1.4 4.02c-.413 1.178-.816 2.536-.202 3.616a3.835 3.835 0 0 0 1.88 1.452c3.39 1.508 7.233 1.591 10.901 1.953 3.585.351 7.14.981 10.678 1.643 1.22.232 2.433.465 3.668.589 2.759.278 5.538 0 8.297-.248l2.846-.274a10.233 10.233 0 0 0 2.8-.517 3.535 3.535 0 0 0 2.066-1.855c.703-1.741-.806-3.802-2.65-4.164-.749-.144-1.55-.077-2.283-.175-.86-.148-1.7-.399-2.5-.749-3.617-1.431-7.32-2.878-10.524-5.13-.888-.625-1.818-1.499-1.72-2.583.092-.465.247-.915.46-1.339a4.887 4.887 0 0 0 .041-3.456c-.175-.475-.516-.976-.997-1.033-1.364-.165-1.198 1.824-1.4 2.583-.274 1.033-.77 1.126-1.74 1.033-2.79-.253-5.58-.392-8.349-.919ZM93.344 460.89a9.12 9.12 0 0 0 1.973 5.554c.384.472.863.857 1.406 1.131a5.623 5.623 0 0 0 2.583.408c2.459-.053 4.889-.545 7.175-1.451a20.353 20.353 0 0 1 2.48-.935 27.795 27.795 0 0 1 3.223-.465c4.273-.615 8.023-3.136 12.151-4.412a25.533 25.533 0 0 0 3.616-1.189c1.632-.769 2.955-2.066 4.252-3.321a10.203 10.203 0 0 0 1.952-2.341c.76-1.41.806-3.099.837-4.696a1.335 1.335 0 0 0-.124-.728 1.087 1.087 0 0 0-.465-.367c-1.255-.62-2.743-.31-4.133-.067-5.021.894-10.161.728-15.26.563a2.219 2.219 0 0 1-2.345-1.338l-1.937-3.1c-.553-.888-1.431-1.906-2.434-1.601-.8.242-1.126 1.224-1.095 2.066.031.842.289 1.679.129 2.501a3.413 3.413 0 0 1-1.653 2.149c-.814.442-1.682.776-2.583.992-2.851.806-6.168 1.72-8.374 3.817-1.622 1.488-1.472 4.821-1.374 6.83Z" fill="#0E8AFD"/><path d="M92.878 253.45a11.968 11.968 0 0 0 2.82-3.068 12.514 12.514 0 0 0 1.204-4.242l.811-5.125c.45-2.826.977-5.817 2.862-7.971 1.886-2.155 5.641-2.924 7.558-.796.837.925 1.167 2.196 1.374 3.43a24.976 24.976 0 0 1-6.106 20.665c-2.32 2.542-5.166 4.562-7.62 6.964-2.139 2.067-3.993 4.438-5.967 6.685A82.357 82.357 0 0 1 73.557 284.2c.072-3.844.563-7.967 0-11.785-.419-2.758-1.55-4.246 1.121-6.049 6.2-4.216 12.455-8.029 18.2-12.916ZM53.233 217.118c8.34 0 15.1-6.761 15.1-15.101s-6.76-15.1-15.1-15.1-15.1 6.76-15.1 15.1 6.76 15.101 15.1 15.101Z" fill="#FBBEBE"/><path d="M68.182 242.803a18.239 18.239 0 0 0-1.917-3.213c-2.738-3.932-5.548-7.858-9.061-11.113a56.389 56.389 0 0 0-8.601-6.318 19.523 19.523 0 0 0-5.383-2.583 21.074 21.074 0 0 0-3.456-.471l-3.921-.32a3.228 3.228 0 0 0-1.034.031c-1.064.269-1.55 1.591-1.322 2.661.227 1.069 1.033 1.937 1.746 2.748.176 8.003-3.384 15.897-3.864 23.889-.842 13.974 7.687 26.973 8.369 40.958.07.632.003 1.271-.197 1.875-.113.289-.284.553-.413.837-.403.878-.387 1.875-.46 2.841a14.433 14.433 0 0 1-4.251 9.103 6.317 6.317 0 0 0 2.397 1.829c1.648.718 3.616.78 5.367 1.281 4.567 1.333 9.248 2.676 13.995 2.392.59-1.283.955-2.659 1.08-4.066.671-.418 1.446.476 1.55 1.261.103.785-.047 1.7.516 2.268.563.568 1.276.48 1.963.393 2.898-.367 5.683-1.344 8.524-2 2.841-.656 5.879-.971 8.643-.031.558-.708.32-1.756-.135-2.531-.454-.775-1.1-1.457-1.358-2.32a5.21 5.21 0 0 1-.166-1.524c0-4.417.91-8.881.047-13.215-.253-1.271-.656-2.511-.914-3.787-.517-2.475-.44-5.027-.372-7.553.067-2.526-.238-5.259-.29-7.822a24.963 24.963 0 0 0-.206-3.167c-.176-1.1-.517-2.175-.61-3.285-.279-2.821.858-5.621.687-8.452-.284-4.298-5.28-6.634-6.953-10.596Z" fill="#FF6584"/><path d="M34.105 218.976c-3.658 9.702-5.445 19.994-7.233 30.212l-4.133 24.003c-1.172 6.783-2.35 13.607-2.304 20.489 0 1.932.124 3.9-.382 5.765-.661 2.449-2.304 4.49-3.549 6.716a22.103 22.103 0 0 0-2.376 14.946c.423 2.144 1.58 4.577 3.755 4.825 1.788.197 3.332-1.224 4.376-2.691 2.397-3.363 3.585-7.424 4.65-11.423a258.357 258.357 0 0 0 7.165-39.826c.127-1.702.367-3.393.718-5.063a35.914 35.914 0 0 1 1.746-5.042c1.58-3.92 3.163-7.839 4.747-11.758 3.653-9.057 7.326-18.154 12.342-26.534-4.96-1.426-10.12-3.1-15.08-4.51-1.43-.424-2.965-.171-4.442-.109Z" fill="#FBBEBE"/><path d="M42.7 226.348c-3.471-.749-7.062-.516-10.606-.604a2.291 2.291 0 0 1-1.425-.372c-.719-.615-.414-1.767-.052-2.64l1.715-4.133a6.008 6.008 0 0 1 1.374-2.283c.873-.775 2.103-.967 3.26-1.106 3.766-.434 7.64-.579 11.293.439 3.652 1.018 7.087 3.332 8.72 6.757.682 1.426.997 3.224.093 4.521-1.343 1.927-4.355 4.081-6.602 3.027-2.692-1.276-4.753-2.965-7.77-3.606Z" fill="#FF6584"/><path d="M61.157 178.561a15.248 15.248 0 0 0-8.42 2.428 18.464 18.464 0 0 0-18.133-4.246 10.552 10.552 0 0 0-17.867-5.645 10.551 10.551 0 0 0-2.589 10.653 10.558 10.558 0 0 0 8.264 7.205 18.469 18.469 0 1 0 35.45 10.378c1.089.224 2.198.336 3.31.336 7.285 0 13.195-4.727 13.195-10.554 0-5.828-5.936-10.555-13.21-10.555Z" fill="#568DC4"/><path opacity=".1" d="m112.556 234.337-7.334-5.234a1.303 1.303 0 0 0-1.816.304l-12.198 17.095a1.302 1.302 0 0 0 .304 1.816l7.334 5.233a1.302 1.302 0 0 0 1.816-.303l12.197-17.095a1.302 1.302 0 0 0-.303-1.816Z" fill="#fff"/><path d="m112.075 233.374-7.334-5.234a1.303 1.303 0 0 0-1.816.304l-12.197 17.095a1.302 1.302 0 0 0 .303 1.816l7.334 5.233a1.302 1.302 0 0 0 1.816-.303l12.198-17.095a1.303 1.303 0 0 0-.304-1.816Z" fill="#25323F"/><path d="m111.412 233.685-1.08-.775-.093.129a.751.751 0 0 1-1.033.181l-3.451-2.464a.761.761 0 0 1-.176-1.06l.093-.129-1.033-.723a.904.904 0 0 0-.328-.149.905.905 0 0 0-.359-.012.906.906 0 0 0-.599.373l-11.924 16.713a.923.923 0 0 0 .212 1.286l6.788 4.841a.923.923 0 0 0 1.287-.217l11.923-16.708a.907.907 0 0 0 .154-.69.921.921 0 0 0-.381-.596Z" fill="#0E8AFD"/></g><path d="m471.485 186.661-16.415.633.819 20.997 16.415-.633-.819-20.997Z" fill="#6C63FF"/><path d="M396.95 259.989s-29.415-11.03-28.944-1.504c.47 9.526 29.65 15.793 29.65 15.793l-.706-14.289Z" fill="#FBBEBE"/><path d="M409.911 339.156s-10.725 26.115-14.687 44.96c-3.963 18.845-9.997 44.779-2.235 63.171 7.763 18.393 29.832 72.448 30.059 78.281.228 5.832-1.89 11.755 2.8 11.574 4.69-.181 30.212-8.175 31.248-11.719 1.036-3.545-8.708-12.515-8.708-12.515l-24.06-75.008 25.103-48.866 18.107 72.901 3.546 90.986s17.406-5.345 19.933-.769c0 0 7.798-10.815 8.788-15.526.991-4.712-3.682-94.486-3.682-94.486s15.976-102.253 3.079-101.756c-12.897.498-63.415-30.264-89.291-1.228Z" fill="#25323F"/><path d="M425.67 532.476s-11.897 26.16-13.024 27.372c-1.127 1.212-8.88 13.193-3.018 12.967 5.863-.226 19.705-6.601 29.894-16.34s23.622-26.613 22.404-27.734c-1.218-1.122-9.562-4.304-9.562-4.304l-26.694 8.039ZM473.203 546.999s-.718 11.71-2.881 16.466c-2.163 4.757-1.89 11.756 3.972 11.53 5.863-.227 21.014-3.148 21.014-3.148s.9-7.044-.318-8.165c-1.218-1.121-6.408-13.772-4.2-17.361 2.209-3.59-17.587.678-17.587.678Z" fill="#38495B"/><path d="M481.875 166.985s12.498 19.378 17.37 23.863c4.871 4.485-8.835 14.359-8.835 14.359l-24.531 3.283s.309-22.208-.955-24.496c-1.263-2.288 16.951-17.009 16.951-17.009Z" fill="#FBBEBE"/><path d="M460.555 192.34s5.054 9.151 9.744 8.97c4.689-.181 28.948-10.463 29.984-14.008 1.036-3.544 8.035 25.392 8.035 25.392L448.96 316.621l-14.48-9.956 7.016-61.019 5.762-32.933 13.297-20.373Z" fill="#fff"/><path d="m438.159 250.449-18.578 5.389-25.795.996-2.653 22.299 42.391 3.037s10.588-29.614 4.635-31.721Z" fill="#38495B"/><path d="M502.471 285.351c-2.368 4.928-3.846 10.067-3.641 15.328.009.233.018.466.039.699.561 10.796 4.559 23.283 5.993 32.363 1.041 6.514.745 11.268-3.087 12.385-9.289 2.695 1.355 4.621-34.583 16.522-35.938 11.9-42.21 1.628-42.301-.705-.091-2.333 5.09-20.056 3.872-21.177-1.218-1.122-17.042 14.676-21.823 12.524-4.781-2.152-.545-13.998-.545-13.998s10.77-24.948 10.542-30.781c-.227-5.832 16.315-33.34 16.315-33.34l11.251-72.865s4.326-9.513 10.143-10.906c5.817-1.392 10.643 1.926 10.643 1.926l-9.734 21.404-10.27 37.78 1.718 13.953s11.943-24.994 19.786-34.643c7.844-9.648 24.568-32.49 24.568-32.49s3.904-13.106.957-17.023c-2.948-3.928 12.294-4.517 18.793 11.588 3.445 8.536 9.037 21.264 12.54 33.115 3.122 10.499 4.596 20.314 1.504 25.924-4.727 8.57-16.618 19.835-22.68 32.417Z" fill="#465C72"/><path opacity=".1" d="M525.15 252.934c-4.727 8.57-16.618 19.835-22.68 32.417-1.583-5.675-3.514-11.547-3.514-11.547s-7.409-39.434 14.505-49.625c3.631-.35 7.262.66 10.185 2.831 3.122 10.499 4.597 20.314 1.504 25.924Z" fill="#fff"/><path d="M468.452 325.424s-24.853 4.103-19.181 11.543c5.673 7.441 27.69-.382 27.69-.382l-8.509-11.161Z" fill="#FBBEBE"/><path opacity=".1" d="M498.869 301.378c.562 10.796 4.559 23.282 5.994 32.363-7.918 7.455-15.447 14.031-18.284 14.14-5.863.226-15.288-.578-18.76.724-3.472 1.302-5.508-20.816-5.508-20.816s2.072-7.09 11.315-10.951c6.239-2.612 18.199-9.698 25.243-15.46Z" fill="#fff"/><path d="M513.188 217.181s19.842-3.102 18.77 29.65c-1.072 32.752 2.091 53.658-5.889 59.807-7.98 6.149-33.901 34.019-39.764 34.245-5.862.226-15.288-.578-18.76.724-3.472 1.302-5.508-20.816-5.508-20.816s2.072-7.089 11.316-10.951c9.243-3.861 31.02-17.552 30.839-22.218-.182-4.666-5.509-20.816-5.509-20.816s-7.408-39.434 14.505-49.625Z" fill="#465C72"/><path d="M464.381 195.678c14.256 0 25.814-11.498 25.814-25.682s-11.558-25.682-25.814-25.682c-14.257 0-25.815 11.498-25.815 25.682s11.558 25.682 25.815 25.682Z" fill="#FBBEBE"/><path d="M446.998 133.187a4.995 4.995 0 0 1-2.17 1.083 1.551 1.551 0 0 1-1.795-1.237c-.591 1.219-1.257 2.518-2.463 3.143-1.206.625-3.07.101-3.244-1.241a5.648 5.648 0 0 1-1.31 2.751c-.748.71-2.105.889-2.758.092.528 2.871.202 5.824.368 8.738.166 2.914.947 6.003 3.16 7.919 3.227 2.795 8.08 2.105 12.326 1.576a3.757 3.757 0 0 1 1.931.105c1.59.674 1.518 2.875 1.539 4.594a12.737 12.737 0 0 0 3.386 8.108 12.857 12.857 0 0 0 7.849 4.014 6.455 6.455 0 0 0 4.78-1.161c1.206-1.016 1.821-2.673 3.203-3.436 2.246-1.243 4.971.569 6.614 2.536 1.643 1.966 3.261 4.386 5.806 4.746 3.366.476 5.929-2.936 7.187-6.078a35.268 35.268 0 0 0-.708-27.532c-7.027-15.24-31.033-17.651-43.701-8.72Z" fill="#25323F"/></svg>