<svg width="660" height="745" viewBox="0 0 660 745" fill="none" xmlns="http://www.w3.org/2000/svg"><path d="M623.578 504H20v2h603.578v-2Z" fill="#465C72"/><path d="M623.578 373.851c-9.977 27.415-31.091 51.114-64.464 62.602-69.355 23.871-225.764 11.559-342.499-2.572-60.368-7.309-113.445-27.475-152-55.875l558.963-4.155ZM11.425 244.803h64.05c3.046 0 5.536-1.6 5.536-3.556s-2.49-3.557-5.537-3.557H64.425c3.041 0 5.537-1.6 5.537-3.556 0-1.957-2.496-3.557-5.537-3.557h7.908c3.04 0 5.536-1.601 5.536-3.557s-2.495-3.556-5.536-3.556H38.9a127.927 127.927 0 0 1 26.082-4.618c91.151-7.528 123.694-2.549 135.153 2.573a170.24 170.24 0 0 0 46.829 13.207c56.272 7.445 161.454 16.419 256.783-2.864 47.381-9.597 82.592 6.622 103.7 33.723H.305c.794-7.878 3.165-15.151 7.522-21.517a7.487 7.487 0 0 0 3.598.835ZM629.016 316.63a117.692 117.692 0 0 1-2.49 47.831l-562.34 13.224c-15.567-11.523-28.756-24.398-39.07-38.316l603.9-22.739Zm-222.421 34.12h11.073c-3.047 0-5.536 1.6-5.536 3.557 0 1.956 2.489 3.556 5.536 3.556h64.073c3.047 0 5.537-1.6 5.537-3.556 0-1.957-2.49-3.557-5.537-3.557h-11.073c3.047 0 5.537-1.601 5.537-3.557s-2.49-3.556-5.537-3.556h7.884c3.047 0 5.537-1.601 5.537-3.557s-2.49-3.557-5.537-3.557h-64.049c-3.041 0-5.531 1.607-5.531 3.557s2.49 3.557 5.531 3.557h-7.908c-3.041 0-5.53 1.606-5.53 3.556s2.489 3.557 5.53 3.557ZM.285 265.71l613.941 9.603a112.881 112.881 0 0 1 14.701 40.771H11.043a119.5 119.5 0 0 1-8.891-25.987C.279 281.59-.456 273.369.285 265.71Zm503.982 31.464h11.084c-3.046 0-5.536 1.607-5.536 3.557s2.49 3.557 5.536 3.557h64.02c3.041 0 5.53-1.601 5.53-3.557s-2.489-3.557-5.53-3.557h-11.073c3.047 0 5.536-1.6 5.536-3.556s-2.489-3.557-5.536-3.557h7.937c3.047 0 5.537-1.6 5.537-3.557 0-1.956-2.49-3.556-5.537-3.556h-64.019c-3.047 0-5.537 1.6-5.537 3.556 0 1.957 2.49 3.557 5.537 3.557h-7.949c-3.047 0-5.537 1.607-5.537 3.557s2.501 3.556 5.537 3.556Z" fill="#38495B"/><path d="M607.447 350.402c0 48.231-32.38 65.071-72.323 65.071-39.943 0-72.324-16.84-72.324-65.071 0-48.231 72.324-109.588 72.324-109.588s72.323 61.357 72.323 109.588Z" fill="#568DC4"/><path d="m532.391 398.815.745-36.859 31.015-45.599-30.898 39.817.335-16.573 21.376-32.99-21.288 28.605.603-29.808 13.39-19.33-13.39 17.375.471-40.991-2.366 55.958-15.218-18.566 15.04 21.311-2.169 33.289-.064-.883-26.829-30.125 26.747 33.246-.271 4.163-.048.063.022.342L524.092 506h7.35l.883-103.906 26.681-33.165-26.615 29.886Z" fill="#465C72"/><path d="M200.06 394.797s-5.111 9.687-5.517 11.068a1.872 1.872 0 0 1-1.725 1.382s-5.101 1.219-6.32 1.381c-1.219.163-11.784 1.057-11.784 1.057s-2.682.081-3.007-.894c-.297-.891-5.477-5.581-8.477-1.489a2.987 2.987 0 0 0-.434 2.662c.552 1.754 1.684 4.543 2.898 2.809 1.706-2.438 3.689-1.754 3.689-.454s2.731.816 3.625 1.001c.481.099 2.163.545 3.614.936 1.684.454 3.409.74 5.149.854 2.88.189 7.125.346 8.627-.224a23.445 23.445 0 0 1 6.341-.883 2.096 2.096 0 0 0 1.236-.445 19.311 19.311 0 0 0 4.694-5.336c2.113-3.657 6.462-11.23 6.168-13.425-.294-2.194-8.777 0-8.777 0Z" fill="#FBBEBE"/><path opacity=".05" d="M200.06 394.797s-5.111 9.687-5.517 11.068a1.872 1.872 0 0 1-1.725 1.382s-5.101 1.219-6.32 1.381c-1.219.163-11.784 1.057-11.784 1.057s-2.682.081-3.007-.894c-.297-.891-5.477-5.581-8.477-1.489a2.987 2.987 0 0 0-.434 2.662c.552 1.754 1.684 4.543 2.898 2.809 1.706-2.438 3.689-1.754 3.689-.454s2.731.816 3.625 1.001c.481.099 2.163.545 3.614.936 1.684.454 3.409.74 5.149.854 2.88.189 7.125.346 8.627-.224a23.445 23.445 0 0 1 6.341-.883 2.096 2.096 0 0 0 1.236-.445 19.311 19.311 0 0 0 4.694-5.336c2.113-3.657 6.462-11.23 6.168-13.425-.294-2.194-8.777 0-8.777 0Z" fill="#000"/><path d="M121.384 485.516a20.114 20.114 0 0 0 33.389 15.109 20.112 20.112 0 0 0 6.822-14.367v-.017a20.113 20.113 0 1 0-40.211-.725Z" fill="#8597A8"/><path d="M141.497 496.488c6.059 0 10.971-4.912 10.971-10.971s-4.912-10.971-10.971-10.971-10.971 4.912-10.971 10.971 4.912 10.971 10.971 10.971Z" fill="#EEF7FF"/><path d="M141.498 492.099a6.583 6.583 0 1 0-.002-13.166 6.583 6.583 0 0 0 .002 13.166ZM194.317 447.321l48.433.975v-7.151c-.434-5.746-6.327-7.762-11.705-8.394a33.597 33.597 0 0 0-12.514.939c-10.276 2.721-16.829 3.247-20.047 3.299a3.074 3.074 0 0 0-2.974 2.501 103.927 103.927 0 0 0-.749 4.581c-.266 1.831-.444 3.25-.444 3.25Z" fill="#465C72"/><path d="M155.679 486.816h100.612a3.966 3.966 0 0 0 3.669-2.372c.758-1.811-.303-2.967-1.434-3.645a11.397 11.397 0 0 1-4.954-6.061c-1.072-3.157-2.121-8.128-2.533-15.876-.424-8.013-3.325-11.975-6.46-13.893h-.003a12.794 12.794 0 0 0-8.489-1.549l-40.794.327a7.834 7.834 0 0 0-1.992 1.3c-3.635 3.383 1.665 7.801 1.665 7.801 11.378 12.026 2.765 24.216 2.765 24.216h-20.874c-3.9.02-7.714-1.147-10.934-3.347a10.929 10.929 0 0 1-4.335-4.976c-.322-.873-.648-1.743-1.038-2.587-5.476-11.875 1.128-31.193 3.978-38.417.707-1.797 1.183-2.845 1.183-2.845l-6.546-.495-4.14-.314-.041-.003a108.435 108.435 0 0 0-13.655 43.883 117.712 117.712 0 0 0-.266 3.275 14.623 14.623 0 0 0 3.93 10.958 14.638 14.638 0 0 0 10.686 4.62Z" fill="#465C72"/><path opacity=".1" d="M194.762 444.071h47.988v-1.997h-47.686c-.107.688-.21 1.365-.302 1.997Z" fill="#000"/><path opacity=".1" d="M193.301 445.046h50.89a.964.964 0 0 0 .385-.078 12.789 12.789 0 0 0-8.489-1.548l-40.794.327a7.813 7.813 0 0 0-1.992 1.299Z" fill="#000"/><path d="M242.132 442.828h-49.569c-.395 0-.715.448-.715 1s.32 1 .715 1h49.569c.395 0 .716-.448.716-1s-.321-1-.716-1Z" fill="#25323F"/><path opacity=".1" d="M141.328 467.963c2.319 2.521 4.025 3.513 3.945.854-.244-8.046 13.891-44.42 13.891-44.42l-4.181-.317a108.435 108.435 0 0 0-13.655 43.883Z" fill="#000"/><path opacity=".1" d="M121.506 483.313c2.401.575 5.371 1.16 9.032 1.696 1.361.2 2.82.392 4.379.576 3.737.443 8.06.831 13.053 1.128 1.414.086 2.882.163 4.405.232 2.853.129 5.906.228 9.16.298l.061-.985v-.017c-4.547-1.836-11.7-6.734-12.853-19.492a20.132 20.132 0 0 0-24.207 7.964 20.136 20.136 0 0 0-3.03 8.6Z" fill="#000"/><path d="M165.387 486.815s-23.088-2.5-15.14-37.682c0 0-11.409 10.457-18.504 16.27-7.096 5.813-19.743 13.826-19.743 13.826s7.553 7.058 53.387 7.586Z" fill="#465C72"/><path opacity=".1" d="M165.387 486.815s-23.088-2.5-15.14-37.682c0 0-11.409 10.457-18.504 16.27-7.096 5.813-19.743 13.826-19.743 13.826s7.553 7.058 53.387 7.586Z" fill="#000"/><path d="M227.066 505.63c11.108 0 20.113-9.005 20.113-20.114 0-11.108-9.005-20.113-20.113-20.113-11.108 0-20.113 9.005-20.113 20.113 0 11.109 9.005 20.114 20.113 20.114Z" fill="#8597A8"/><path d="M227.067 496.488c6.059 0 10.97-4.912 10.97-10.971s-4.911-10.971-10.97-10.971c-6.059 0-10.971 4.912-10.971 10.971s4.912 10.971 10.971 10.971Z" fill="#EEF7FF"/><path d="M227.067 492.099a6.583 6.583 0 1 0-.002-13.166 6.583 6.583 0 0 0 .002 13.166Z" fill="#465C72"/><path opacity=".1" d="M204.516 479.477a23.04 23.04 0 0 1 23.038-23.519 23.04 23.04 0 0 1 16.462 6.918 23.063 23.063 0 0 1 4.962 7.637 23.058 23.058 0 0 1 1.615 8.964c0 .548-.02 1.091-.056 1.63h-45.965a24.441 24.441 0 0 1-.056-1.63Z" fill="#000"/><path d="M205.369 479.071a22.18 22.18 0 0 1 6.334-15.985 22.191 22.191 0 0 1 38.037 15.985c0 .528-.019 1.051-.054 1.57h-44.263a23.317 23.317 0 0 1-.054-1.57Z" fill="#465C72"/><path opacity=".1" d="M205.369 479.071c0 .363.01.724.027 1.082.007.164.017.325.027.488h44.263c.01-.163.02-.324.027-.488.017-.358.027-.719.027-1.082a22.194 22.194 0 0 0-13.589-20.913 22.182 22.182 0 0 0-17.194 0 22.199 22.199 0 0 0-12.032 12.282 22.18 22.18 0 0 0-1.556 8.631Z" fill="#000"/><path opacity=".1" d="M205.396 480.153c.007.164.017.325.026.488h44.264a38.8 38.8 0 0 0 .027-.488h-44.317ZM202.443 486.329h54.403a2.6 2.6 0 1 0 0-5.201h-54.403a2.6 2.6 0 0 0 0 5.201Z" fill="#000"/><path d="M202.443 485.842h54.403a2.6 2.6 0 0 0 0-5.201h-54.403a2.6 2.6 0 1 0 0 5.201Z" fill="#25323F"/><path opacity=".1" d="M150.984 441.216c1.674-3.701 1.839-7.239.37-7.903-1.469-.665-4.017 1.796-5.69 5.497-1.674 3.7-1.839 7.238-.37 7.903 1.469.664 4.017-1.797 5.69-5.497Z" fill="#000"/><path d="M150.74 440.972c1.674-3.701 1.839-7.239.37-7.904-1.47-.664-4.017 1.797-5.691 5.498-1.673 3.7-1.838 7.238-.369 7.903 1.469.664 4.017-1.797 5.69-5.497Z" fill="#0E8AFD"/><path opacity=".1" d="M155.025 424.082v3.82h7.436c.693.001 1.384-.054 2.068-.165.707-1.797 1.182-2.846 1.182-2.846l-6.546-.494-4.14-.315Z" fill="#000"/><path d="M155.025 427.415h7.436c6.53 0 11.824-4.886 11.824-10.913v-1.013c0-6.027-5.294-10.913-11.824-10.913l-7.436.675v22.164Z" fill="#465C72"/><path d="M167.276 411.037s-4.449 2.377-1.889 6.399c0 0 3.139 5.151 8.075 4.663l1.798-11.062s-5.912-.549-7.984 0Z" fill="#465C72"/><path opacity=".1" d="M168.984 410.822a4.732 4.732 0 0 0-3.612 1.906 3.892 3.892 0 0 0 .015 4.709s3.139 5.15 8.076 4.662l1.798-11.062a55.03 55.03 0 0 0-6.277-.215ZM155.269 427.415a5.972 5.972 0 0 1-5.973-5.973v-10.217a5.972 5.972 0 0 1 5.973-5.973v22.163Z" fill="#000"/><path d="M155.025 427.415a5.972 5.972 0 0 1-5.973-5.973v-10.217a5.973 5.973 0 0 1 5.973-5.973v22.163Z" fill="#FF6584"/><path d="M207.816 433.718s-1.148.42-2.674 1.005a60.345 60.345 0 0 0-7.078 3.06c-1.182.738-5.648 1.984-8.984 2.852-2.472.64-5.018.954-7.572.934-2.594-.025-5.736-.049-6.604-.049a2.76 2.76 0 0 0-.454.034c-.912.151-.875.763-.853.909l.007.032c5.364 3.25 11.866 17.797 12.271 20.235.304 1.829 2.984 6.897 4.305 9.32.444.812.734 1.327.734 1.327l-1.626 1.867-4.713 2.114-4.469 1.95s-4.715.244-4.795 0c-.081-.244-.081-2.762-.081-2.762.574-.37 1.119-.784 1.629-1.238a26.874 26.874 0 0 0 3.003-3.07c2.599-3.089-2.601-9.02-2.601-9.02l-9.995-13.002s-.812-1.463-4.713-7.314 0-9.02 0-9.02l6.866-2.852c11.907-4.455 26.268-8.026 26.268-8.026l.205-.027 3.045-.38 8.879 11.121Z" fill="#EFB7B9"/><path d="M177.139 477.357s-.853 1.006-.213 1.097c.78-.005 1.556-.097 2.316-.274l10.636-5.607s1.158-.823 1.432.792.457 1.463.457 1.463 1.402 3.016 0 3.641-9.813 3.094-9.813 3.094-12.22 2.773-13.378-.427c-1.158-3.2 2.072-2.651 2.072-2.651s4.023-.975 5.394-2.926c0 0 1.981.549 1.097 1.798Z" fill="#25323F"/><path opacity=".05" d="m162.552 433.882 6.866-2.852c11.907-4.455 26.268-8.026 26.268-8.026l.205-.027 3.045-.38 8.879 11.121s-1.148.42-2.674 1.005a60.345 60.345 0 0 0-7.078 3.06c-1.182.738-5.648 1.984-8.984 2.852-2.472.64-5.018.954-7.572.934-2.594-.025-5.736-.049-6.604-.049a2.76 2.76 0 0 0-.454.034c-.912.151-.875.763-.853.909l.007.032c5.364 3.25 11.866 17.797 12.271 20.235.304 1.829 2.984 6.897 4.305 9.32l.179.326c.352-.059.795.07.951.99.274 1.615.457 1.463.457 1.463s1.402 3.015 0 3.641c-1.402.625-9.813 3.093-9.813 3.093s-12.22 2.774-13.378-.426c-1.158-3.2 2.072-2.652 2.072-2.652s4.023-.975 5.394-2.925c.122.036.241.08.357.131.143-.115.296-.242.46-.383a26.967 26.967 0 0 0 3.004-3.07c2.598-3.089-2.602-9.02-2.602-9.02l-9.995-13.002s-.812-1.463-4.713-7.314 0-9.02 0-9.02Z" fill="#000"/><path d="m216.003 379.346-.371.468-.207.261-1.292 1.626s-3.084.99-5.788 1.631c-2.816.666-5.217.956-3.308-.636 1.185-.987 1.263-2.64.831-4.413a18.26 18.26 0 0 0-1.55-3.927 32.293 32.293 0 0 0-2.295-3.786 57.786 57.786 0 0 1 5.386-3.309c2.233-1.155 4.066-1.66 2.903.627a5.348 5.348 0 0 0 .196 4.678c.053.125.112.249.173.373a16.757 16.757 0 0 0 2.301 3.387 26.756 26.756 0 0 0 3.021 3.02Z" fill="#FBBEBE"/><path d="m200.562 416.483-1.654 1.509-1.596 6.143h2.663l2.944-3.826-2.357-3.826Z" fill="#444053"/><path opacity=".1" d="m202.919 420.308-1.78 2.314-1.163 1.514h-2.664l.273-1.051 1.163-4.476.161-.617 1.652-1.509 2.258 3.662.1.163Z" fill="#000"/><path opacity=".1" d="m202.919 420.308-1.78 2.314-1.163 1.514h-2.664l.273-1.051 1.163-4.476.161-.617 1.652-1.509 2.258 3.662.1.163Z" fill="#000"/><path d="M211.776 436.475s-1.148.419-2.674 1.004a60.345 60.345 0 0 0-7.078 3.06c-1.182.738-5.649 1.984-8.984 2.852-2.472.64-5.018.954-7.572.934-2.594-.025-5.736-.049-6.604-.049a2.76 2.76 0 0 0-.454.034c-.912.151-.875.763-.853.909l.007.032c5.364 3.25 11.866 17.797 12.27 20.235.305 1.829 2.985 6.897 4.306 9.321.444.811.734 1.326.734 1.326L193.248 478l-4.713 2.114-4.469 1.95s-4.715.244-4.795 0c-.081-.243-.081-2.762-.081-2.762.574-.37 1.119-.784 1.629-1.238a26.874 26.874 0 0 0 3.003-3.07c2.599-3.089-2.601-9.02-2.601-9.02l-9.995-13.002s-.812-1.463-4.713-7.314 0-9.02 0-9.02l6.256-3.577c9.752-5.931 23.487-9.344 23.487-9.344l.205-.027 3.045-.38 12.27 13.165Z" fill="#FBBEBE"/><path opacity=".1" d="M194.873 476.133 193.247 478l-4.713 2.114-4.469 1.95s-4.715.244-4.795 0c-.081-.243-.081-2.762-.081-2.762.574-.37 1.119-.784 1.629-1.238.505.27 1.078.777.524 1.563 0 0-.853 1.004-.214 1.097a10.509 10.509 0 0 0 2.316-.273l10.637-5.608.058-.036c.444.811.734 1.326.734 1.326Z" fill="#000"/><path d="M181.099 480.114s-.853 1.006-.213 1.097c.78-.005 1.556-.097 2.316-.274l10.636-5.607s1.158-.823 1.432.792.457 1.463.457 1.463 1.402 3.016 0 3.641-9.813 3.094-9.813 3.094-12.22 2.773-13.378-.427c-1.158-3.2 2.072-2.651 2.072-2.651s4.023-.975 5.394-2.926c0 0 1.981.549 1.097 1.798Z" fill="#25323F"/><path opacity=".1" d="M211.126 371.95c-1.409.965-3.559 2.517-5.394 2.517-.474 0-.947-.037-1.414-.112a32.908 32.908 0 0 0-2.295-3.786s10.727-7.477 8.289-2.682c-.804 1.583-.013 2.378.814 4.063Z" fill="#000"/><path d="M214.508 365.203a8.763 8.763 0 0 1-4.001 7.363 8.775 8.775 0 0 1-11.259-1.444 8.775 8.775 0 0 1-.982-10.535 8.773 8.773 0 0 1 9.864-3.826 8.779 8.779 0 0 1 6.378 8.442Z" fill="#FBBEBE"/><path opacity=".1" d="M211.776 436.475s-1.148.419-2.674 1.004a13.176 13.176 0 0 0-2.363-1.816c-.895-.327-3.82-2.034-3.74-2.521a4.26 4.26 0 0 0-2.355-2.682c-1.138-.324-.487-2.031-.487-2.031s-2.194-.812-2.741-1.95c-.546-1.139-2.218-2.601-1.648-2.519.248-.04.484-.132.693-.27l3.045-.38 12.27 13.165Z" fill="#000"/><path d="M218.441 433.549s-3.74 3.089-3.913 4.469c-.171 1.382-2.669 1.302-2.669 1.302s-3.74-3.577-4.633-3.901c-.894-.327-3.82-2.033-3.739-2.521a4.285 4.285 0 0 0-.884-1.599 4.284 4.284 0 0 0-1.471-1.083c-1.139-.324-.488-2.03-.488-2.03s-2.194-.812-2.74-1.951c-.546-1.138-2.219-2.601-1.648-2.518a4.063 4.063 0 0 0 1.328-.632 59.185 59.185 0 0 0 2.648-1.709c.878-.595 1.548-1.068 1.548-1.068s.383-.068 1.039-.163c3.537-.512 15.059-1.819 17.733 2.433.357.563.624 1.177.793 1.821 1.197 4.542-2.904 9.15-2.904 9.15Z" fill="#25323F"/><path opacity=".1" d="M214.529 423.695s3.82 2.154 5.242 2.154c1.422 0-5.242-2.154-5.242-2.154ZM211.979 425.341s5.685 1.91 5.687 3.413c.002 1.504.53-4.022-5.687-3.413ZM198.369 416.732l.081.11a.227.227 0 0 1-.081-.11ZM216.003 379.346l-.371.468-.207.261-1.292 1.626s-3.084.99-5.788 1.631c-2.816.665-5.217.956-3.308-.636 1.185-.988 1.263-2.641.831-4.413.054-.071.086-.11.086-.11s-.086 1.643.887 1.675c1.312.041 1.329-.4 2.538-.909a8.156 8.156 0 0 0 3.603-2.614 26.765 26.765 0 0 0 3.021 3.021Z" fill="#000"/><path opacity=".1" d="M221.345 424.399a2.813 2.813 0 0 1-2.092.049c-2.519-.814-6.502-2.774-8.37-1.916-1.497.687-7.526.668-9.744.09-.554-.144-.871-.322-.822-.531a1.465 1.465 0 0 0-.085-.715 13.168 13.168 0 0 0-1.485-2.767l.161-.617 1.653-1.509 2.258 3.662c3.537-.512 15.059-1.818 17.733 2.433.357.563.624 1.177.793 1.821Z" fill="#000"/><path d="M222.99 422.498a2.764 2.764 0 0 1-3.494 1.463c-2.518-.815-6.502-2.775-8.369-1.917-1.87.859-10.81.615-10.566-.441.244-1.055-2.194-4.388-2.194-4.388s1.331-.246 2.155-4.591c.122-.634.231-1.355.324-2.174.201-1.678.249-3.371.142-5.057-.33-4.698-1.97-6.626-1.97-6.626a5.47 5.47 0 0 1-.325-6.175c1.022-1.875 5.145-7.071 5.201-9.387.051-2.101 2.06-4.544 2.06-4.544s-.086 1.643.887 1.675c1.312.041 1.329-.4 2.538-.909 1.777-.751 3.603-2.075 3.723-2.96 0 0 7.45-.373 9.076 7.185 1.626 7.557 1.056 11.702.812 12.596-.244.895-2.355 12.434-.648 17.31a16.753 16.753 0 0 1 .648 8.94Z" fill="#465C72"/><path opacity=".1" d="M210.841 409.227a19.108 19.108 0 0 1-5.281 5.77 36.44 36.44 0 0 0-4.266.286c.122-.634.232-1.356.324-2.175.202-1.678.249-3.37.142-5.056a1.84 1.84 0 0 0 .955-1.18c.407-1.383 4.033-7.965 4.033-7.965s8.481-2.194 8.776 0c.293 2.194-2.569 6.663-4.683 10.32Z" fill="#000"/><path d="M208.03 394.797s-5.111 9.687-5.517 11.068a1.872 1.872 0 0 1-1.725 1.382s-5.102 1.219-6.321 1.381c-1.219.163-11.783 1.057-11.783 1.057s-2.682.081-3.007-.894c-.297-.891-5.478-5.581-8.478-1.489a2.985 2.985 0 0 0-.433 2.662c.552 1.754 1.684 4.543 2.897 2.809 1.707-2.438 3.69-1.754 3.69-.454s2.73.816 3.624 1.001c.482.099 2.164.545 3.615.936 1.684.454 3.409.74 5.149.854 2.879.189 7.124.346 8.627-.224a23.44 23.44 0 0 1 6.341-.883 2.096 2.096 0 0 0 1.236-.445 19.311 19.311 0 0 0 4.694-5.336c2.113-3.657 6.462-11.23 6.168-13.425-.294-2.194-8.777 0-8.777 0Z" fill="#FBBEBE"/><path opacity=".1" d="M209.745 381.377a65.478 65.478 0 0 0-4.013 7.801c-1.269 3.251-2.813 8.94-2.813 8.94l7.639-.894.641-1.057s5.454 3.413 4.804 4.876a12.773 12.773 0 0 0 1.3-6.339c-.163-4.144.587-11.539.009-13.327-.578-1.788-5.779-1.382-7.567 0Z" fill="#000"/><path d="M217.303 394.217c.118 2.19-.33 4.373-1.3 6.339.649-1.463-4.805-4.876-4.805-4.876l-.641 1.056-7.638.895s1.543-5.691 2.813-8.94a49.76 49.76 0 0 1 2.614-5.359c.782-1.421 1.399-2.443 1.399-2.443a8.606 8.606 0 0 1 5.061-1.175c.278.016.554.049.827.1a2.292 2.292 0 0 1 1.582.861c.04.067.073.139.098.214.577 1.787-.173 9.184-.01 13.328Z" fill="#465C72"/><path opacity=".1" d="M220.715 405.573s-3.23 4.45-4.205 4.571c0 0 4.144-.914 4.205-4.571ZM220.716 411.912s-6.095 6.156-8.046 6.217c-1.95.061 8.046-6.217 8.046-6.217ZM220.716 414.472s-3.91 4.571-4.149 4.571c-.24 0 4.21-1.585 4.149-4.571ZM217.215 380.674a5.407 5.407 0 0 1-1.79-.599 8.376 8.376 0 0 1-.619-.361 14.709 14.709 0 0 1-2.224-1.829 9.469 9.469 0 0 1-2.703-3.774 6.745 6.745 0 0 1-.229-1.053c-.278-1.875-.044-3.945-1.385-5.22a3.183 3.183 0 0 0-.856-.577c-1.901-.905-4.659-.32-6.078-1.946-.902-1.034-.88-2.47-1.572-3.593a7.392 7.392 0 0 0-1.351-1.358 8.767 8.767 0 0 1 6.459-3.897 8.781 8.781 0 0 1 9.591 9.673 8.767 8.767 0 0 1-1.25 3.659 8.794 8.794 0 0 1-2.7 2.767c.053.124.112.248.173.373a23.216 23.216 0 0 0 5.322 6.407l-.371.468a2.268 2.268 0 0 1 1.583.86Z" fill="#000"/><path d="M201.818 365.071c1.652 1.894 5.115.791 6.936 2.524 1.595 1.518.96 4.169 1.613 6.273a9.469 9.469 0 0 0 2.703 3.774c1.634 1.59 3.722 3.204 5.955 2.748 1.325-.271 2.623-1.261 3.896-.804.611.298 1.146.73 1.567 1.264a10.795 10.795 0 0 0 5.992 3.098c.449.103.919.082 1.357-.061.682-.278 1.052-1.026 1.672-1.423 1.216-.78 2.784.02 4.05.716a28.334 28.334 0 0 0 23.278 1.677l-1.973-.979c.421-.856 1.554-1.043 2.275-1.669 1.486-1.29.612-3.87-.961-5.053-1.573-1.183-3.608-1.594-5.237-2.699a1.35 1.35 0 0 1-.699-.917c.005-.292.098-.576.265-.815.868-1.53 1.83-3.171 1.636-4.919-.299-2.678-3.226-4.33-5.915-4.516-2.689-.186-5.352.621-8.047.668a5.27 5.27 0 0 1-2.832-.582c-1.168-.703-1.754-2.042-2.465-3.205a13.085 13.085 0 0 0-5.236-4.825c-2.439-1.23-5.199-1.662-7.734-2.677-2.589-1.036-4.944-2.68-7.653-3.342-3.932-.963-8.144.3-11.54 2.503-1.637 1.062-6.861 4.466-6.817 6.641.026 1.294 1.717 1.993 2.342 3.008.693 1.124.671 2.559 1.572 3.592Z" fill="#FF6584"/><g opacity=".1" fill="#000"><path opacity=".1" d="M254.752 371.506c-.167.239-.26.523-.266.815.01.102.038.202.085.293a10.1 10.1 0 0 0 1.582-4.01 15.552 15.552 0 0 1-1.401 2.902ZM261.383 380.99c-.72.626-1.854.812-2.275 1.669l.697.345c.47-.22.917-.486 1.335-.795a2.306 2.306 0 0 0 .76-1.896 2.128 2.128 0 0 1-.517.677ZM237.803 381.961c-1.266-.697-2.833-1.497-4.049-.717-.62.398-.99 1.145-1.672 1.423a2.548 2.548 0 0 1-1.358.062 10.802 10.802 0 0 1-5.991-3.098 4.52 4.52 0 0 0-1.568-1.264c-1.273-.457-2.57.532-3.895.803-2.233.457-4.321-1.158-5.955-2.747a9.495 9.495 0 0 1-2.704-3.774c-.652-2.104-.017-4.755-1.613-6.274-1.82-1.732-5.283-.63-6.935-2.523-.901-1.033-.88-2.469-1.572-3.592-.586-.95-2.102-1.623-2.317-2.765a2.088 2.088 0 0 0-.27.976c.026 1.293 1.717 1.993 2.343 3.008.693 1.123.671 2.559 1.572 3.592 1.652 1.893 5.115.791 6.936 2.523 1.595 1.519.96 4.17 1.613 6.274a9.483 9.483 0 0 0 2.703 3.774c1.634 1.589 3.722 3.204 5.955 2.747 1.325-.271 2.623-1.26 3.896-.803.61.298 1.146.73 1.567 1.264a10.802 10.802 0 0 0 5.992 3.098c.449.103.918.081 1.357-.062.682-.278 1.052-1.025 1.672-1.423 1.216-.78 2.784.02 4.05.717a28.334 28.334 0 0 0 23.277 1.676l-1.362-.676a28.372 28.372 0 0 1-21.672-2.219Z"/></g><path opacity=".1" d="m177.556 445.22-2.05-.993v-.377c.984.027 1.959.182 2.903.46-.911.152-.875.763-.853.91Z" fill="#000"/><path d="M175.775 422.8c2.728 0 4.94-2.691 4.94-6.01s-2.212-6.01-4.94-6.01-4.94 2.691-4.94 6.01 2.212 6.01 4.94 6.01Z" fill="#465C72"/><path d="M347.696 587.913c51.186 0 92.68-5.138 92.68-11.477 0-6.338-41.494-11.476-92.68-11.476-51.185 0-92.68 5.138-92.68 11.476 0 6.339 41.495 11.477 92.68 11.477Z" fill="#38495B"/><path d="m310.984 545.653 25.987-4.699h38.917l-5.561 8.572h-54.048l-5.295-3.873Z" fill="#33323D"/><path d="M330.727 269.922c2.916-1.482 6.718 0 10.189.349 4.499.436 8.956-1.181 13.484-1.057a16.913 16.913 0 0 1 11.063 4.569 13.52 13.52 0 0 1 4.074 9.275 10.788 10.788 0 0 1-1.423 5.962c-2.161 3.596-7.084 6.034-12.191 6.441a22.813 22.813 0 0 1-14.239-3.737c-3.354-2.279-5.691-5.313-8.531-7.946-2.019-1.895-7.332-4.286-7.373-6.748-.03-1.706 3.105-6.187 4.947-7.108Z" fill="#38495B"/><path opacity=".1" d="M330.727 269.922c2.916-1.482 6.718 0 10.189.349 4.499.436 8.956-1.181 13.484-1.057a16.913 16.913 0 0 1 11.063 4.569 13.52 13.52 0 0 1 4.074 9.275 10.788 10.788 0 0 1-1.423 5.962c-2.161 3.596-7.084 6.034-12.191 6.441a22.813 22.813 0 0 1-14.239-3.737c-3.354-2.279-5.691-5.313-8.531-7.946-2.019-1.895-7.332-4.286-7.373-6.748-.03-1.706 3.105-6.187 4.947-7.108Z" fill="#000"/><path d="m341.543 523.338-.402 8.265c3.904-.281 7.819-.356 11.73-.224.319-1.24 0-2.545-.259-3.808a28.726 28.726 0 0 1-.478-7.392c.047-.678-7.262-1.375-8-1.41-.897-.036-1.83-.16-2.261.779-.478 1.027-.277 2.668-.33 3.79Z" fill="#FBBEBE"/><path d="m331.917 526.001-.395 8.265c3.901-.281 7.815-.356 11.724-.224.319-1.24 0-2.545-.26-3.808-.472-2.434-.631-4.918-.472-7.391.042-.685-7.261-1.376-7.999-1.411-.903-.036-1.83-.16-2.261.779-.484 1.027-.284 2.668-.337 3.79Z" fill="#FBBEBE"/><path d="M350.135 523.055a4.398 4.398 0 0 0-1.5.933l-2.951 2.468c-.992.832-2.297 1.712-3.484 1.181a8.092 8.092 0 0 1-1.381-1.087 1.361 1.361 0 0 0-1.618-.183 1.668 1.668 0 0 0-.454 1.022 78.766 78.766 0 0 0-1.281 15.892 9.433 9.433 0 0 0 2.875.638.506.506 0 0 0 .319-.059c.171-.142.076-.414.053-.632-.083-.762.98-1.21 1.671-.88a3.301 3.301 0 0 1 1.357 1.771c.1.294.275.557.508.762.213.135.453.222.703.254 1.341.233 2.7.357 4.061.372 6.297.216 12.595.216 18.892 0a6.281 6.281 0 0 0 1.936-.272 3.68 3.68 0 0 0 2.255-2.857 5.086 5.086 0 0 0-.897-3.619 6.206 6.206 0 0 0-2.072-1.901 12.156 12.156 0 0 0-1.954-.827l-2.952-1.062c-2.155-.768-4.386-1.588-5.992-3.212a15.248 15.248 0 0 1-2.255-3.259c-1.116-1.895-2.858-6.316-5.839-5.443Z" fill="#465C72"/><path opacity=".1" d="M350.135 523.055a4.398 4.398 0 0 0-1.5.933l-2.951 2.468c-.992.832-2.297 1.712-3.484 1.181a8.092 8.092 0 0 1-1.381-1.087 1.361 1.361 0 0 0-1.618-.183 1.668 1.668 0 0 0-.454 1.022 78.766 78.766 0 0 0-1.281 15.892 9.433 9.433 0 0 0 2.875.638.506.506 0 0 0 .319-.059c.171-.142.076-.414.053-.632-.083-.762.98-1.21 1.671-.88a3.301 3.301 0 0 1 1.357 1.771c.1.294.275.557.508.762.213.135.453.222.703.254 1.341.233 2.7.357 4.061.372 6.297.216 12.595.216 18.892 0a6.281 6.281 0 0 0 1.936-.272 3.68 3.68 0 0 0 2.255-2.857 5.086 5.086 0 0 0-.897-3.619 6.206 6.206 0 0 0-2.072-1.901 12.156 12.156 0 0 0-1.954-.827l-2.952-1.062c-2.155-.768-4.386-1.588-5.992-3.212a15.248 15.248 0 0 1-2.255-3.259c-1.116-1.895-2.858-6.316-5.839-5.443Z" fill="#000"/><path d="M378.337 389.551c0 1.685-.035 3.371-.106 5.059a254.77 254.77 0 0 1-2.775 30.858c-.354 2.297-.738 4.587-1.298 6.837-.809 3.217-2.002 6.352-2.362 9.658-.49 4.723.773 9.593-.295 14.221-.549 2.362-1.694 4.564-2.362 6.902a37.036 37.036 0 0 0-.932 4.244c-.595 3.306-1.185 6.606-1.771 9.901-.065.336-.124.673-.183 1.009a40.666 40.666 0 0 1-3.873 11.158 35.301 35.301 0 0 0-2.362 6.836l-3.152 11.736c-1.423 5.284-2.852 10.804-1.771 16.17a37.582 37.582 0 0 1-6.4-.956 36.088 36.088 0 0 1-7.751-2.846c-.555-9.109-.148-18.242.254-27.363.26-5.779.519-11.571 1.493-17.273 1.057-6.217 2.504-12.15 3.767-18.331 1.895-9.251 3.802-18.578 3.619-28.018-.225-12.226.094-24.677 5.425-35.675a8.15 8.15 0 0 1 2.468-3.342 8.496 8.496 0 0 1 3.542-1.181 66.988 66.988 0 0 1 12.852-.92 8.975 8.975 0 0 1 3.973 1.316Z" fill="#465C72"/><path opacity=".1" d="M378.334 389.552c0 1.682-12.775.395-12.834 2.078-15.692-1.818-8.342 1.83-9.032 2.32-1.488 1.045 5.655-1.057 4.167 0-1.292.915-3.3 4.469-4.634 5.313-3.111 2.037 7.262 8.307 4.953 11.217-2.095 2.633-2.585 6.222-2.308 9.564.277 3.341 1.252 6.594 1.771 9.918a37.113 37.113 0 0 1-1.954 18.702c-1.346 3.572-3.235 6.902-4.953 10.308-1.877 3.749-5.349 7.474-4.935 11.654.95 9.41-.691 18.891-1.134 28.337-.171 3.613-.165 7.297.838 10.774.378 1.328.904 2.615 1.181 3.967.703 3.135.148 6.382-.779 9.493a36.116 36.116 0 0 1-7.752-2.846c-.554-9.109-.147-18.242.254-27.363.26-5.779.52-11.571 1.494-17.273 1.057-6.217 2.503-12.15 3.766-18.331 1.895-9.251 3.802-18.579 3.619-28.018-.224-12.227.095-24.677 5.426-35.676a8.15 8.15 0 0 1 2.467-3.341 8.491 8.491 0 0 1 3.542-1.181 66.99 66.99 0 0 1 12.852-.921 8.992 8.992 0 0 1 3.985 1.305Z" fill="#000"/><path d="M379.275 381.151c0 2.999 1.676 9.635-.62 11.559-1.529 1.293-3.418 2.079-5.06 3.23-1.487 1.045-2.757 2.361-4.238 3.442-1.293.915-2.734 1.599-4.062 2.467-3.117 2.037-4.481 5.738-6.795 8.643-2.09 2.633-2.58 6.222-2.302 9.564.277 3.341 1.251 6.594 1.771 9.918a37.202 37.202 0 0 1-1.954 18.702c-1.352 3.572-3.236 6.901-4.953 10.308-1.878 3.749-5.355 7.474-4.936 11.653.951 9.411-.696 18.892-1.133 28.338-.171 3.612-.166 7.296.838 10.774.378 1.328.897 2.615 1.181 3.967.82 3.701-.101 7.568-1.311 11.163-4.168-.732-8.383-1.458-12.598-1.145-3.702.278-7.379 1.346-11.063.903-.443-9.941.466-19.895 1.363-29.807.178-2.025.366-4.05.549-6.08.709-7.764 1.411-15.533 1.831-23.325.106-1.966-.591-4.05-.036-5.945 1.153-3.971 2.306-7.925 3.46-11.861a39.237 39.237 0 0 0 1.381-6.027c.52-4.221-.342-8.478-1.181-12.64-1.18-5.698-2.361-11.405-3.542-17.12-.389-1.895-.785-3.796-1.322-5.667a36.257 36.257 0 0 1-.998-3.767 48.166 48.166 0 0 1-.33-5.396c-.178-3.111-.904-6.157-1.134-9.262a18.933 18.933 0 0 1 .142-4.475 11.327 11.327 0 0 1 1.67-4.511 138.077 138.077 0 0 1 26.897-7.674 37.806 37.806 0 0 1 6.494-.756 43.43 43.43 0 0 1 7.403.821c3.412.59 6.889 1.181 10.036 2.715a14.867 14.867 0 0 1 4.073 2.834c1.583 1.588.591-2.078 1.099.106.141.756-.632 3.596-.62 4.351ZM340.512 525.712a4.43 4.43 0 0 0-1.5.939l-2.951 2.467c-.998.833-2.303 1.713-3.484 1.181a7.83 7.83 0 0 1-1.381-1.086 1.35 1.35 0 0 0-1.618-.183 1.668 1.668 0 0 0-.454 1.021 77.91 77.91 0 0 0-1.281 15.893 9.423 9.423 0 0 0 2.869.637.487.487 0 0 0 .319-.059c.177-.141.082-.413.059-.631-.083-.762.98-1.217 1.665-.88a3.301 3.301 0 0 1 1.357 1.771c.103.293.277.554.508.762.213.135.453.222.703.253 1.343.234 2.703.358 4.067.372 6.293.219 12.604.225 18.892 0a6.327 6.327 0 0 0 1.942-.271 3.686 3.686 0 0 0 2.249-2.863 5.05 5.05 0 0 0-.897-3.613 6.23 6.23 0 0 0-2.067-1.901 12.31 12.31 0 0 0-1.96-.827l-2.951-1.063c-2.149-.773-4.381-1.588-5.992-3.217a15.299 15.299 0 0 1-2.261-3.259c-1.116-1.889-2.858-6.311-5.833-5.443Z" fill="#465C72"/><path d="M369.514 285.366a5.904 5.904 0 0 1-1.234 2.527c-1.275 1.771-2.686 3.643-4.752 4.345a9.563 9.563 0 0 1-3.542.319 46.574 46.574 0 0 1-27.936-11.122c3.702-2.444 5.673-6.896 6.158-11.3a37.09 37.09 0 0 0-.591-10.237 248.76 248.76 0 0 0-.525-2.951c-.331-1.807-1.181-3.206.879-3.708 1.6-.395 3.773-.118 5.408 0 3.595.201 7.267.98 10.189 3.182a6.875 6.875 0 0 1 1.966 2.143c1.258 2.362.236 5.142-.059 7.852-.066.614-.08 1.232-.041 1.848.23 3.005 2.249 5.596 4.569 7.515 2.32 1.919 5.001 3.395 7.262 5.372 1.263 1.063 2.473 2.556 2.249 4.215Z" fill="#FBBEBE"/><path opacity=".1" d="M355.473 266.38a17.458 17.458 0 0 1-17.859-6.494c-.171-.998-.348-1.99-.525-2.952-.331-1.806-1.181-3.206.879-3.707 1.6-.396 3.773-.119 5.408 0 3.595.2 7.267.98 10.19 3.182.8.566 1.47 1.296 1.966 2.143 1.257 2.331.236 5.112-.059 7.828Z" fill="#000"/><path d="M351.563 266.008c9.661 0 17.492-7.832 17.492-17.492 0-9.661-7.831-17.493-17.492-17.493-9.661 0-17.492 7.832-17.492 17.493 0 9.66 7.831 17.492 17.492 17.492Z" fill="#FBBEBE"/><path opacity=".1" d="M380.345 378.3c-.106.236-.939 4.257-1.069 4.487-5.82-1.181-9.445-1.269-15.349-1.181a24.17 24.17 0 0 0-4.469.372c-1.24.248-2.45.655-3.701.85-6.742 1.039-13.124-4.233-19.931-3.713-2.273.171-4.445.986-6.576 1.771-2.362.897-4.723 1.582-7.026 2.361a11.324 11.324 0 0 1 1.671-4.51 138.08 138.08 0 0 1 26.897-7.675 37.706 37.706 0 0 1 6.494-.755 43.44 43.44 0 0 1 7.403.82c3.412.591 6.889 1.181 10.036 2.716a14.824 14.824 0 0 1 4.073 2.834c1.547 1.623 1.069-.561 1.547 1.623Z" fill="#000"/><path d="M345.723 284.233c-.366-1.771-1.576-3.182-2.769-4.517a173.573 173.573 0 0 0-6.978-7.361 9.971 9.971 0 0 0-2.715-2.12 3.55 3.55 0 0 0-3.324.03c-.909.59-1.37 1.629-2.096 2.42-1.57 1.718-4.304 2.126-5.626 4.044-.292.538-.63 1.049-1.009 1.529a4.487 4.487 0 0 1-1.978.974l-8.336 2.498c-.98.289-2.066.667-2.533 1.576a5.118 5.118 0 0 0-.372 1.517c-.661 3.772-3.984 6.394-6.907 8.855-1.015.856-2.042 1.801-2.473 3.053-.431 1.251-.207 2.579.059 3.855.667 3.241 1.641 6.493 3.542 9.215 1.251 1.842 2.893 3.424 3.926 5.396a18.47 18.47 0 0 1 1.629 5.962c.59 3.879.897 7.787 1.228 11.695.289 3.436-.124 7.297.874 10.627 1.216 4.044 5.555 6.346 7.48 10.107a18.887 18.887 0 0 1 1.481 4.971l1.848 9.363c.335 1.419.519 2.869.549 4.327-.047 3.442-1.812 6.795-1.257 10.189 3.123-1.18 6.134-1.989 9.251-3.164 2.137-.809 4.309-1.629 6.588-1.801 6.801-.507 13.183 4.759 19.925 3.72 1.251-.189 2.461-.591 3.701-.844a24.53 24.53 0 0 1 4.469-.384 84.63 84.63 0 0 1 17.711 1.6c1.181-1.978 1.375-4.404 1.086-6.689-.289-2.285-1.027-4.481-1.606-6.712a49.69 49.69 0 0 1-1.31-17.953c.224-1.512.36-3.036.407-4.564 0-5.702-3.459-11.045-3.141-16.742.313-5.603 6.713-8.737 9.358-13.696a5.949 5.949 0 0 0 .879-3.295c-.13-1.18-.874-2.243-1.352-3.353-1.18-2.721-.744-5.856-1.417-8.737-.242-1.01-.59-1.984-.838-2.999-.59-2.798-.053-5.774-.767-8.548-.555-2.149-1.842-4.032-3.212-5.774-2.314-2.952-5.018-5.709-8.395-7.338-3.377-1.63-7.533-1.978-10.833-.195a4.141 4.141 0 0 0-1.334 1.057 5.262 5.262 0 0 0-.732 1.724 53.537 53.537 0 0 1-4.847 11.293 5.244 5.244 0 0 1-4.286-1.281c-1.192-1.015-3.235-2.019-3.548-3.53Z" fill="#0E8AFD"/><path d="M343.136 253.764a5.69 5.69 0 0 0 .425-2.48 3.898 3.898 0 0 1 .661-2.396c.685-.833 1.913-1.057 2.568-1.901.75-.963.496-2.326.72-3.542a4.446 4.446 0 0 1 4.133-3.543c1.464-.041 2.839.656 4.28.939 1.871.372 3.802.036 5.679-.295 1.399-.248 2.952-.561 3.826-1.659a5.78 5.78 0 0 0 1.015-2.503c.313-1.411.549-2.981-.177-4.227-.726-1.246-2.261-1.854-3.07-3.064-.703-1.057-.762-2.45-1.476-3.501-1.11-1.641-3.424-1.93-5.39-1.682-1.966.248-3.961.873-5.904.454-2.137-.46-4.25-2.143-6.263-1.299-1.482.626-2.102 2.332-3.011 3.661a7.95 7.95 0 0 1-3.111 2.668c-1.925.927-4.18 1.057-6.028 2.131a6.767 6.767 0 0 0-2.105 1.965 6.773 6.773 0 0 0-1.095 2.664c-.086.348-.073.714.036 1.056.133.262.289.511.466.744.768 1.216.272 2.84-.472 4.068-.744 1.228-1.736 2.361-1.972 3.808-.236 1.446.325 2.857 1.051 4.103a29.437 29.437 0 0 1 2.178 3.725c.632 1.541.75 3.247 1.382 4.782a7.745 7.745 0 0 0 5.779 4.593 1.78 1.78 0 0 0 1.411-.213 1.8 1.8 0 0 0 .526-1.004 11.34 11.34 0 0 0 .336-1.989c.101-1.322 0-2.851.591-4.074.732-1.529 2.219-.495 3.011-1.989Z" fill="#465C72"/><path opacity=".1" d="M366.24 232.205c-.732-1.252-2.261-1.854-3.07-3.064-.702-1.057-.761-2.45-1.476-3.501a3.831 3.831 0 0 0-2.207-1.494c.714 1.051.767 2.445 1.475 3.501.803 1.211 2.332 1.807 3.064 3.064.732 1.258.49 2.816.178 4.227a5.808 5.808 0 0 1-1.01 2.503c-.909 1.092-2.432 1.411-3.831 1.659-1.878.331-3.808.661-5.68.295-1.434-.289-2.81-.98-4.28-.938a4.43 4.43 0 0 0-4.097 3.512c-.224 1.181 0 2.562-.72 3.542-.661.845-1.889 1.069-2.568 1.895a3.937 3.937 0 0 0-.667 2.403 5.633 5.633 0 0 1-.419 2.474c-.797 1.499-2.285.46-3.035 1.989-.59 1.222-.49 2.751-.59 4.074a11.424 11.424 0 0 1-.337 1.995 1.837 1.837 0 0 1-.519 1.004 1.767 1.767 0 0 1-1.411.212 7.455 7.455 0 0 1-1.771-.543 7.673 7.673 0 0 0 3.985 2.025 1.77 1.77 0 0 0 1.411-.212 1.81 1.81 0 0 0 .525-1.004c.171-.652.283-1.318.337-1.99.1-1.322 0-2.851.59-4.073.756-1.529 2.243-.496 3.034-1.989a5.664 5.664 0 0 0 .425-2.48 3.908 3.908 0 0 1 .662-2.397c.684-.832 1.912-1.057 2.568-1.901.749-.962.496-2.326.72-3.542a4.43 4.43 0 0 1 4.132-3.507c1.465-.047 2.84.65 4.281.933 1.871.372 3.801.036 5.679-.295 1.399-.248 2.952-.561 3.825-1.659a5.77 5.77 0 0 0 1.016-2.503c.271-1.399.507-2.97-.219-4.215Z" fill="#000"/><path d="M328.474 559.233c0 5.957-4.168 10.786-9.304 10.786s-9.298-4.829-9.298-10.786v-.083c.041-5.903 4.191-10.703 9.298-10.703 3.158 0 5.945 1.819 7.622 4.617a11.853 11.853 0 0 1 1.682 6.169ZM402.611 563.577c0 11.47-5.933 20.774-13.248 20.774-7.314 0-13.235-9.304-13.235-20.774 0-6.494 1.889-12.274 4.852-16.076 2.291-2.952 5.196-4.723 8.383-4.723.439-.001.877.031 1.311.095 2.627.407 5.042 2.019 6.984 4.487.274.338.53.691.767 1.056 2.574 3.814 4.186 9.198 4.186 15.161ZM394.723 539.797l-11.577 1.157-1.488-12.374-.1-.809-2.102-17.439-.094-.809-10.633-88.217-.23-1.877-6.34-52.654-.154-1.257-.661-5.502-.443-3.655h9.269l.502 3.785.082.602.23 1.694 7.952 59.425.213 1.594 11.341 84.722 2.485 18.567 1.748 13.047Z" fill="#8597A8"/><path opacity=".1" d="M389.353 542.809c.439-.001.877.03 1.311.094l-.331.224a7.428 7.428 0 0 0-2.951 6.878l1.877 17.852c.006.093.006.185 0 .278a2.693 2.693 0 0 1-4.264 2.086 2.698 2.698 0 0 1-1.049-1.578c-.774-4.092-2.238-12.451-2.899-20.002a13.202 13.202 0 0 1-.059-1.139c2.273-2.928 5.178-4.693 8.365-4.693ZM392.693 548.446l-.407-.118c-.124-.324-.236-.643-.36-.938.274.339.53.691.767 1.056Z" fill="#000"/><path d="M388.698 537.943s-9.416-.59-8.489 9.883c.667 7.55 2.131 15.904 2.899 19.995a2.691 2.691 0 0 0 4.781 1.141c.424-.55.618-1.242.544-1.932l-1.878-17.853a7.424 7.424 0 0 1 2.952-6.883c2.226-1.565 5.195-1.659 7.675 5.207l1.7.466s2.172-11.264-10.184-10.024Z" fill="#465C72"/><path opacity=".1" d="M378.931 421.868a7.582 7.582 0 0 1-1.417.142h-3.318a7.62 7.62 0 0 1-7.551-6.778l-5.077-46.207a7.622 7.622 0 0 1 5.617-8.183 7.61 7.61 0 0 1 3.569-.082l8.177 61.108Z" fill="#000"/><path opacity=".1" d="M379.145 423.462a7.09 7.09 0 0 1-1.629.183h-3.318a7.522 7.522 0 0 1-5.466-2.361l-.231-1.883-6.34-52.648a7.57 7.57 0 0 1 8.826-4.339l7.946 59.431.212 1.617Z" fill="#000"/><path d="m361.571 369.84 5.077 46.219a7.59 7.59 0 0 0 7.551 6.765h3.312a7.454 7.454 0 0 0 7.172-5.095 6.5 6.5 0 0 0 .313-1.972c0-3.542-3.802-35.627-4.982-45.522a7.505 7.505 0 0 0-2.799-5.024 26.715 26.715 0 0 0-5.024-3.146c-5.307-2.468-11.258 1.954-10.62 7.775Z" fill="#FF6584"/><path opacity=".1" d="m326.792 553.064-2.492-.106a11.568 11.568 0 0 0-6.334 1.552l-7.793 4.487c-.1.053-.207.112-.301.153.041-5.903 4.191-10.703 9.298-10.703 3.153 0 5.945 1.819 7.622 4.617ZM392.978 527.565l-11.317 1.015-.1-.809-2.102-17.439 11.034-1.328 2.485 18.561Z" fill="#000"/><path d="M381.546 527.772c1.818 26.566-16.784 26.076-16.784 26.076l-40.457-1.736a11.69 11.69 0 0 0-6.34 1.553l-7.793 4.492a4.055 4.055 0 0 1-6.048-2.996 4.06 4.06 0 0 1 .776-2.954l3.294-4.393a6.888 6.888 0 0 1 5.904-2.739l42.334 2.415c17.121.307 22.93-37.99 22.93-37.99l11.134-1.34 2.479 18.567-11.411 1.021-.018.024Z" fill="#F5F9FE"/><path opacity=".1" d="m370.671 360.146-9.327-.13-.443-3.655h9.269l.501 3.785Z" fill="#000"/><path d="m325.654 352.932 78.269 1.96a2.451 2.451 0 0 1 1.633 4.191 2.443 2.443 0 0 1-1.751.703l-78.263-1.092a2.45 2.45 0 0 1-1.706-.728 2.449 2.449 0 0 1-.703-1.716v-.874a2.452 2.452 0 0 1 .743-1.756 2.46 2.46 0 0 1 .819-.525c.306-.118.632-.173.959-.163Z" fill="#25323F"/><path d="M331.054 345.972c2.727.555 5.744.407 8.029 2.007 2.036 1.423 3.022 3.991 3.134 6.494.112 2.503-.543 4.929-1.18 7.332-.201.756-.591 1.671-1.382 1.695-.791.023-1.181-.78-1.812-1.181-1.358-.827-3.277.395-4.646-.408a7.52 7.52 0 0 1-1.075-.974 3.536 3.536 0 0 0-1.913-.85 3.537 3.537 0 0 0-2.06.378 6.375 6.375 0 0 0-6.446-7.551c-1.063.036-2.202.313-3.129-.2-1.494-.815-1.37-3.058-.591-4.558 1.134-2.107 1.996-4.174 4.57-4.174 2.951.012 5.673 1.417 8.501 1.99ZM384.364 348.906l-.036 5.739c0 2.16 0 4.427 1.069 6.31.555.98 1.511 1.866 2.645 1.842.425 0 .838-.141 1.263-.124 1.234.048 2.361 1.346 3.513.915.389-.147.702-.478 1.104-.59.59-.177 1.269.154 1.865-.029.596-.183.951-.868 1.181-1.47 1.181-2.881 2.361-6.057 1.505-9.045a13.927 13.927 0 0 0-2.013-3.748l-3.825-5.662a1.941 1.941 0 0 0-.626-.667 1.694 1.694 0 0 0-.856-.154c-1.901 0-3.678.898-5.378 1.772-1.701.873-1.399 3.264-1.411 4.911Z" fill="#FBBEBE"/><path d="M388.111 317.003c.212 1.26.573 2.491 1.075 3.666.673 1.34 1.865 2.468 2.078 3.956.254 1.771-.904 3.813.2 5.212.449.591 1.181.868 1.653 1.435 1.134 1.399.054 3.459.219 5.248.147 1.635 1.369 2.993 1.706 4.605.336 1.612-.23 3.607.797 4.965-1.045-1.647-3.336-1.972-5.26-1.653a11.926 11.926 0 0 0-7.834 5.071c.288-2.34.037-4.714-.732-6.943-.691-1.995-1.801-3.931-1.706-6.039.059-1.246.543-2.468.425-3.713-.183-1.948-1.771-3.43-3.141-4.806-1.665-1.659-3.288-3.63-3.453-5.98-.154-2.178.997-4.239 2.314-5.986a11.285 11.285 0 0 1 3.902-3.542c1.033-.508 4.162-2.633 4.847-2.362 1.47.555 2.586 5.52 2.91 6.866ZM301.659 299.233a6.736 6.736 0 0 0-3.749 3.112 26 26 0 0 0-1.966 4.581 60.617 60.617 0 0 1-4.604 9.729c-1.382 2.361-2.952 4.628-3.696 7.232-.667 2.278-.714 4.758-1.812 6.86-.538 1.027-1.305 1.936-1.712 3.022-.532 1.405-.396 2.952-.248 4.463l.383 3.991c.046 1.312.342 2.602.874 3.802.738 1.411 2.084 2.361 3.383 3.312l6.004 4.256a15.61 15.61 0 0 0 3.76 2.167c3.908 1.376 8.124-.519 12.232-1.039 2.834-.354 5.703-.053 8.543.254-.236-2.32-.16-4.776.962-6.819 1.122-2.042 4.54-4.723 6.801-4.168-2.243-1.895-5.957-.838-8.442-2.414-.998-.632-1.848-1.47-2.828-2.137-3.087-2.09-7.515-2.444-9.505-5.603a1.255 1.255 0 0 1-.236-.59c-.035-.467.36-.838.703-1.181 2.491-2.361 3.737-5.768 4.044-9.174.307-3.406-.236-6.819-.856-10.184-.502-2.698-1.063-5.431-2.291-7.887-1.228-2.456-3.17-4.67-5.744-5.585Z" fill="#0E8AFD"/><path d="M57.139 583.283c11.187 0 20.255-1.533 20.255-3.424s-9.069-3.424-20.255-3.424c-11.187 0-20.255 1.533-20.255 3.424s9.068 3.424 20.255 3.424Z" fill="#38495B"/><path d="M43.532 563.948s11.554-.354 15.037-2.834c3.483-2.479 17.775-5.443 18.637-1.464.862 3.979 17.363 19.777 4.316 19.883-13.047.107-30.31-2.036-33.78-4.132-3.472-2.096-4.21-11.453-4.21-11.453Z" fill="#465C72"/><path opacity=".2" d="M81.758 578.147c-13.047.107-30.309-2.031-33.786-4.132-2.645-1.612-3.702-7.397-4.05-10.066h-.39s.732 9.316 4.21 11.435c3.477 2.12 20.739 4.251 33.78 4.133 3.766-.036 5.07-1.376 4.994-3.359-.52 1.216-1.954 1.966-4.758 1.989Z" fill="#000"/><g opacity=".1" fill="#0E8AFD"><path opacity=".1" d="M464.909 306.417c1.299 4.038-2.243 18.094-2.243 18.094s-11.075-9.351-12.398-13.389a7.68 7.68 0 0 1 14.617-4.723l.024.018ZM464.552 255.198c-2.161 3.648-15.025 10.331-15.025 10.331s-.354-14.493 1.771-18.142a7.68 7.68 0 0 1 13.224 7.811h.03ZM461.86 437.54c-1.323 2.249-9.245 6.358-9.245 6.358s-.219-8.92 1.11-11.163a4.723 4.723 0 1 1 8.135 4.805ZM548.085 415.184c-1.328 2.243-9.245 6.358-9.245 6.358s-.218-8.92 1.11-11.169a4.728 4.728 0 0 1 6.473-1.662 4.726 4.726 0 0 1 1.662 6.473ZM455.418 379.355c-2.155 3.654-15.019 10.331-15.019 10.331s-.36-14.487 1.771-18.141a7.684 7.684 0 0 1 4.697-3.53 7.673 7.673 0 0 1 5.817.826 7.671 7.671 0 0 1 3.53 4.697 7.673 7.673 0 0 1-.826 5.817h.03Z"/></g><path opacity=".3" d="M155.268 427.299v-21.5l-141-35.5v98.5l141-41.5Z" fill="url(#paint0_linear)"/><defs><linearGradient id="paint0_linear" x1="155.268" y1="419.299" x2="14.268" y2="419.299" gradientUnits="userSpaceOnUse"><stop stop-color="#FF6584"/><stop offset="1" stop-color="#FF6584" stop-opacity="0"/></linearGradient></defs></svg>