<svg width="630" height="494" viewBox="0 0 630 494" fill="none" xmlns="http://www.w3.org/2000/svg"><path d="m153.81 330.203 51.717-83.974-115.823-76.044-59.814 97.12 95.8 62.898h28.12Z" fill="#38495B"/><path d="M227.098 356.399H98.991v-26.626h128.107v26.626Zm-126.443-1.717h124.779v-23.191H100.655v23.191Z" fill="#465C72"/><path d="M211.293 351.675c4.595 0 8.319-3.845 8.319-8.589s-3.724-8.589-8.319-8.589c-4.594 0-8.318 3.845-8.318 8.589s3.724 8.589 8.318 8.589ZM188.001 351.675c4.594 0 8.318-3.845 8.318-8.589s-3.724-8.589-8.318-8.589c-4.594 0-8.319 3.845-8.319 8.589s3.725 8.589 8.319 8.589ZM164.709 351.675c4.594 0 8.318-3.845 8.318-8.589s-3.724-8.589-8.318-8.589c-4.594 0-8.319 3.845-8.319 8.589s3.725 8.589 8.319 8.589ZM141.417 351.675c4.594 0 8.318-3.845 8.318-8.589s-3.724-8.589-8.318-8.589c-4.594 0-8.319 3.845-8.319 8.589s3.725 8.589 8.319 8.589ZM118.124 351.675c4.595 0 8.319-3.845 8.319-8.589s-3.724-8.589-8.319-8.589c-4.594 0-8.318 3.845-8.318 8.589s3.724 8.589 8.318 8.589Z" fill="#0E8AFD"/><path d="M379.44 74.012V24.234h31.4V0H257.145v121.826H388.53v-11.912c0-2.22.551-4.419 1.623-6.47s2.644-3.915 4.624-5.485c1.981-1.57 4.333-2.816 6.921-3.665a26.248 26.248 0 0 1 8.163-1.287h.979V74.012h-31.4Z" fill="#38495B"/><path d="M550.693 375.725H447.542v22.331h103.151v-22.331Z" fill="#FF6584"/><path d="M573.153 265.785H421.754v20.614h151.399v-20.614Z" fill="#38495B"/><path d="M599.095 493.394H409.953c-5.913-.007-11.583-2.436-15.765-6.753-4.181-4.318-6.534-10.172-6.541-16.278V107.589c.007-6.107 2.359-11.96 6.541-16.278 4.182-4.318 9.852-6.746 15.765-6.753h189.142c5.914.007 11.583 2.435 15.765 6.753 4.182 4.317 6.534 10.171 6.541 16.278v362.774c-.007 6.106-2.359 11.96-6.541 16.278-4.182 4.317-9.851 6.746-15.765 6.753ZM409.953 86.275c-5.472.007-10.719 2.254-14.589 6.25-3.87 3.996-6.047 9.413-6.053 15.064v362.774c.006 5.651 2.183 11.068 6.053 15.064 3.87 3.995 9.117 6.243 14.589 6.249h189.142c5.472-.006 10.719-2.254 14.589-6.249 3.87-3.996 6.047-9.413 6.053-15.064V107.589c-.006-5.651-2.183-11.068-6.053-15.064-3.87-3.996-9.117-6.243-14.589-6.25H409.953Z" fill="#465C72"/><path d="M482.064 101.736a4.884 4.884 0 0 1-2.773-.869 5.126 5.126 0 0 1-1.838-2.313 5.312 5.312 0 0 1-.284-2.977 5.21 5.21 0 0 1 1.366-2.639 4.943 4.943 0 0 1 2.556-1.41 4.843 4.843 0 0 1 2.883.293 5.027 5.027 0 0 1 2.24 1.898 5.27 5.27 0 0 1 .842 2.863 5.249 5.249 0 0 1-1.464 3.643 4.92 4.92 0 0 1-3.528 1.511Zm0-8.59c-.658 0-1.301.202-1.848.58a3.418 3.418 0 0 0-1.226 1.541 3.533 3.533 0 0 0-.189 1.985c.128.667.445 1.279.911 1.76.465.48 1.058.807 1.703.94a3.235 3.235 0 0 0 1.923-.196c.608-.26 1.127-.7 1.493-1.265.366-.565.561-1.23.561-1.909a3.496 3.496 0 0 0-.976-2.428 3.278 3.278 0 0 0-2.352-1.007ZM531.144 95.723h-36.602v1.717h36.602v-1.717Z" fill="#3F3D56"/><path d="M606.427 109.466v68.712c-17.649-.001-34.576-7.241-47.056-20.126-12.48-12.886-19.492-30.363-19.493-48.586h66.549Z" fill="#0E8AFD"/><path d="M607.26 470.203H401.79V108.606h205.47v361.597Zm-203.807-1.718h202.143V110.324H403.453v358.161Z" fill="#465C72"/><path opacity=".1" d="M558.179 173.883c12.405 0 22.461-10.382 22.461-23.19 0-12.807-10.056-23.19-22.461-23.19-12.404 0-22.46 10.383-22.46 23.19 0 12.808 10.056 23.19 22.46 23.19Z" fill="#000"/><path d="M554.852 176.46c12.405 0 22.46-10.383 22.46-23.191 0-12.807-10.055-23.19-22.46-23.19-12.405 0-22.46 10.383-22.46 23.19 0 12.808 10.055 23.191 22.46 23.191ZM442.551 123.208H410.94v12.025h31.611v-12.025ZM460.02 237.441h-31.611v12.025h31.611v-12.025Z" fill="#38495B"/><path d="M581.472 282.104H428.409v-22.332h153.063v22.332Zm-151.399-1.718h149.735V261.49H430.073v18.896Z" fill="#8597A8"/><path d="M573.153 331.062H421.754v20.613h151.399v-20.613ZM460.02 302.718h-31.611v12.024h31.611v-12.024Z" fill="#38495B"/><path d="M581.472 347.38H428.409v-22.331h153.063v22.331Zm-151.399-1.718h149.735v-18.895H430.073v18.895Z" fill="#8597A8"/><path d="M557.347 392.903H452.533v-24.049h104.814v24.049Zm-103.151-1.718h101.488v-20.614H454.196v20.614Z" fill="#465C72"/><path d="M577.312 273.516a8.785 8.785 0 0 1-1.514 4.94 8.361 8.361 0 0 1-3.989 3.142 8.071 8.071 0 0 1-5.015.201 8.298 8.298 0 0 1-4.214-2.812l-.008-.009a8.707 8.707 0 0 1-1.661-3.417 8.856 8.856 0 0 1-.059-3.824 8.719 8.719 0 0 1 1.554-3.47 8.378 8.378 0 0 1 2.859-2.431 8.089 8.089 0 0 1 7.22-.114 8.356 8.356 0 0 1 2.93 2.338 8.696 8.696 0 0 1 1.657 3.423l.001.003.003.002.003.001a9.03 9.03 0 0 1 .233 2.027Z" fill="#0E8AFD"/><path opacity=".1" d="M577.312 273.516a8.778 8.778 0 0 1-1.513 4.939 8.36 8.36 0 0 1-3.99 3.143 8.071 8.071 0 0 1-5.015.201 8.298 8.298 0 0 1-4.214-2.812l-.008-.009a9.03 9.03 0 0 1-.233-2.027 8.78 8.78 0 0 1 1.514-4.939 8.355 8.355 0 0 1 3.99-3.143 8.068 8.068 0 0 1 5.014-.201 8.298 8.298 0 0 1 4.219 2.82l.003.001a9.03 9.03 0 0 1 .233 2.027Z" fill="#000"/><path d="M572.321 287.258c4.594 0 8.319-3.845 8.319-8.589 0-4.743-3.725-8.589-8.319-8.589-4.594 0-8.319 3.846-8.319 8.589 0 4.744 3.725 8.589 8.319 8.589ZM577.312 338.792a8.785 8.785 0 0 1-1.514 4.94 8.356 8.356 0 0 1-3.989 3.142 8.072 8.072 0 0 1-5.015.202 8.306 8.306 0 0 1-4.214-2.813l-.008-.008a8.704 8.704 0 0 1-1.661-3.418 8.852 8.852 0 0 1-.059-3.823 8.723 8.723 0 0 1 1.554-3.471 8.389 8.389 0 0 1 2.859-2.431 8.11 8.11 0 0 1 3.597-.908 8.102 8.102 0 0 1 3.623.794 8.36 8.36 0 0 1 2.93 2.339 8.692 8.692 0 0 1 1.657 3.423l.001.003.003.001.003.001a9.03 9.03 0 0 1 .233 2.027Z" fill="#0E8AFD"/><path opacity=".1" d="M577.312 338.792a8.784 8.784 0 0 1-1.513 4.94 8.358 8.358 0 0 1-3.99 3.142 8.072 8.072 0 0 1-5.015.202 8.306 8.306 0 0 1-4.214-2.813l-.008-.008a9.037 9.037 0 0 1-.233-2.027 8.78 8.78 0 0 1 1.514-4.94 8.347 8.347 0 0 1 3.99-3.142 8.068 8.068 0 0 1 5.014-.202 8.298 8.298 0 0 1 4.219 2.82l.003.001a9.03 9.03 0 0 1 .233 2.027Z" fill="#000"/><path d="M572.321 352.534c4.594 0 8.319-3.846 8.319-8.589 0-4.744-3.725-8.59-8.319-8.59-4.594 0-8.319 3.846-8.319 8.59 0 4.743 3.725 8.589 8.319 8.589Z" fill="#0E8AFD"/><path d="M431.53 30.456h-41.379v36.548h41.379V30.456Z" fill="#38495B"/><path d="M558.18 37.318a9.758 9.758 0 0 1-5.546-1.737 10.245 10.245 0 0 1-3.677-4.626 10.625 10.625 0 0 1-.568-5.955c.385-2 1.336-3.836 2.732-5.277a9.89 9.89 0 0 1 5.111-2.82 9.692 9.692 0 0 1 5.768.586 10.06 10.06 0 0 1 4.48 3.796 10.545 10.545 0 0 1 1.682 5.726c-.003 2.733-1.056 5.352-2.927 7.284-1.871 1.933-4.409 3.02-7.055 3.023Zm0-18.896a8.133 8.133 0 0 0-4.622 1.447 8.539 8.539 0 0 0-3.064 3.855 8.854 8.854 0 0 0-.473 4.962 8.681 8.681 0 0 0 2.276 4.398 8.244 8.244 0 0 0 4.26 2.35 8.074 8.074 0 0 0 4.806-.488 8.382 8.382 0 0 0 3.733-3.163 8.79 8.79 0 0 0 1.402-4.772 8.738 8.738 0 0 0-2.439-6.07 8.197 8.197 0 0 0-5.879-2.52ZM338.568 180.754h-21.629v-22.331h21.629v22.331Zm-19.965-1.718h18.301v-18.895h-18.301v18.895Z" fill="#BBCFE2"/><path d="m241.242 197.645 3.712 2.064 12.629 7.028 20.389 11.343 11.882-22.763a18.92 18.92 0 0 0 2.059-6.902c.24-2.418.016-4.862-.66-7.19a18.686 18.686 0 0 0-3.277-6.381 18.041 18.041 0 0 0-5.395-4.597 23.142 23.142 0 0 0-14.498-2.726c-4.991.699-9.638 3.016-13.271 6.616l-.006.007a24.488 24.488 0 0 0-4.472 6.076l-9.092 17.425Z" fill="#25323F"/><path d="m296.892 429.781-2.491 28.292-9.342 1.286-6.227-32.15 18.06 2.572Z" fill="#FBBEBE"/><path d="M282.568 459.359s11.833-6.43 14.324-1.286c0 0-1.869 15.432 5.604 17.361 7.474 1.929 10.587 15.431 0 16.717-10.586 1.286-17.437-2.572-21.173-2.572-3.737 0 0-13.502 0-13.502l1.245-16.718Z" fill="#25323F"/><path d="m221.538 429.781 2.492 28.292 9.34 1.286 6.228-32.15-18.06 2.572Z" fill="#FBBEBE"/><path d="M235.862 459.359s-11.833-6.43-14.324-1.286c0 0 1.868 15.432-5.605 17.361-7.473 1.929-10.586 15.431 0 16.717 10.587 1.286 17.438-2.572 21.174-2.572 3.737 0 0-13.502 0-13.502l-1.245-16.718Z" fill="#25323F"/><path d="M272.604 202.802c8.943 0 16.192-7.485 16.192-16.718s-7.249-16.718-16.192-16.718c-8.942 0-16.191 7.485-16.191 16.718s7.249 16.718 16.191 16.718Z" fill="#FBBEBE"/><path d="m220.916 218.878 13.077 21.219 15.569-1.286 25.533 1.929s2.41-4.977 4.378-9.819a38.915 38.915 0 0 0 2.473-7.542c.622-4.501-8.096-9.002-8.096-9.002s-.343-.064-.916-.206a34.894 34.894 0 0 1-3.213-.945c-2.896-1.016-6.377-2.739-7.081-5.279-1.245-4.501 8.096-10.931 8.096-10.931l-11.21-10.931s-9.957 14.281-22.051 17.534c-.702.192-1.413.342-2.13.451l-.106.019c-13.078 1.929-14.323 14.789-14.323 14.789Z" fill="#FBBEBE"/><path d="m227.765 213.091-6.85 5.787s-5.605 27.649-3.736 35.365c1.868 7.716-.623 14.789-.623 16.075 0 1.286-5.605 49.51-5.605 49.51s-11.21 25.72.623 23.148c11.832-2.572 7.473-28.292 7.473-28.292l14.323-45.009v-37.937l-5.605-18.647ZM276.964 218.234l4.982 3.858 2.491 54.012 18.682 46.296s13.701 22.505 4.982 23.148c-8.718.643-14.323-23.148-14.323-23.148l-16.814-44.367-2.491-43.081 2.491-16.718Z" fill="#FBBEBE"/><path d="M245.825 222.092s12.455 9.002 32.384 5.787c0 0 5.604 11.574 2.491 18.004-3.114 6.43 3.736 21.862 4.982 23.791 1.245 1.929 15.569 41.794 20.551 84.875 4.982 43.081 18.682 72.659 6.85 76.517-11.832 3.858-36.12 8.359-38.611 4.501-2.491-3.858-6.228-99.665-6.228-99.665l-6.85 36.651s9.342 62.371 2.491 63.657c-6.85 1.286-49.82-2.572-48.575-10.288 1.246-7.716 13.701-48.225 13.701-48.225s-.623-81.018 11.832-96.449c0 0 4.982-8.359-1.868-19.29-6.85-10.931-6.228-28.292-6.228-28.292s4.982 0 13.078-11.574Z" fill="#465C72"/><path d="m235.344 204.068 10.482 23.811 2.49-1.286-10.842-22.975-2.13.45ZM269.721 213.226l7.866 17.869 1.887-.174-.642-3.041-5.897-13.709a35.127 35.127 0 0 1-3.214-.945Z" fill="#FF6584"/><path d="M244.954 199.71a10.609 10.609 0 0 0 3.317 5.066 10.086 10.086 0 0 0 5.478 2.326 9.976 9.976 0 0 0 5.81-1.191 10.419 10.419 0 0 0 4.202-4.311c-7.878-10.635-1.121-17.316 11.677-22.37a10.858 10.858 0 0 0 1.177-6.037 10.755 10.755 0 0 0-2.28-5.691 23.15 23.15 0 0 0-10.489 1.036 23.72 23.72 0 0 0-9.034 5.6l-.006.006-9.092 17.412a10.852 10.852 0 0 0-.76 8.154Z" fill="#25323F"/><path d="M262.951 191.871c1.204 0 2.18-1.727 2.18-3.858 0-2.13-.976-3.858-2.18-3.858-1.204 0-2.18 1.728-2.18 3.858 0 2.131.976 3.858 2.18 3.858Z" fill="#FFB8B8"/><path d="m269.447 181.719 18.72 8.757 3.431-7.819a18.78 18.78 0 0 0-3.612-7.799l-12.884-6.025-5.655 12.886Z" fill="#25323F"/><path d="M314.444 354.252c4.594 0 8.318-3.845 8.318-8.589 0-4.743-3.724-8.589-8.318-8.589-4.595 0-8.319 3.846-8.319 8.589 0 4.744 3.724 8.589 8.319 8.589Z" fill="#0E8AFD"/><path d="M47.38 405.31c3.002 0 5.436-2.513 5.436-5.613 0-3.1-2.434-5.613-5.436-5.613-3.003 0-5.437 2.513-5.437 5.613 0 3.1 2.434 5.613 5.437 5.613Z" fill="#FF6584"/><path d="M74.847 428.953h-1.664v63.912h1.664v-63.912Z" fill="#465C72"/><path d="M74.015 437.99c4.835 0 8.754-4.046 8.754-9.038 0-4.991-3.92-9.038-8.754-9.038s-8.753 4.047-8.753 9.038c0 4.992 3.919 9.038 8.753 9.038ZM74.015 468.342s-1.25-27.77-26.886-24.542l26.886 24.542ZM630 491.541H0v1.853h630v-1.853Z" fill="#465C72"/></svg>