<svg width="56" height="56" viewBox="0 0 56 56" fill="none" xmlns="http://www.w3.org/2000/svg">
<path d="M36.985 0H7.963C7.155 0 6.5 0.655 6.5 1.926V55C6.5 55.345 7.155 56 7.963 56H48.037C48.845 56 49.5 55.345 49.5 55V12.978C49.5 12.282 49.407 12.058 49.243 11.893L37.607 0.257C37.442 0.093 37.218 0 36.985 0Z" fill="#E9E9E0"/>
<path d="M37.5 0.150879V11.9999H49.349L37.5 0.150879Z" fill="#D9D7CA"/>
<path d="M18.5 13H12.5C11.948 13 11.5 12.552 11.5 12C11.5 11.448 11.948 11 12.5 11H18.5C19.052 11 19.5 11.448 19.5 12C19.5 12.552 19.052 13 18.5 13Z" fill="#8697CB"/>
<path d="M21.5 18H12.5C11.948 18 11.5 17.552 11.5 17C11.5 16.448 11.948 16 12.5 16H21.5C22.052 16 22.5 16.448 22.5 17C22.5 17.552 22.052 18 21.5 18Z" fill="#8697CB"/>
<path d="M25.5 18.0002C25.24 18.0002 24.98 17.8902 24.79 17.7102C24.61 17.5202 24.5 17.2602 24.5 17.0002C24.5 16.7402 24.61 16.4802 24.79 16.2902C25.16 15.9202 25.84 15.9202 26.21 16.2902C26.39 16.4802 26.5 16.7402 26.5 17.0002C26.5 17.2602 26.39 17.5202 26.21 17.7102C26.02 17.8902 25.76 18.0002 25.5 18.0002Z" fill="#8697CB"/>
<path d="M37.5 18H29.5C28.948 18 28.5 17.552 28.5 17C28.5 16.448 28.948 16 29.5 16H37.5C38.052 16 38.5 16.448 38.5 17C38.5 17.552 38.052 18 37.5 18Z" fill="#8697CB"/>
<path d="M12.5 33.0002C12.24 33.0002 11.98 32.8902 11.79 32.7102C11.61 32.5202 11.5 32.2602 11.5 32.0002C11.5 31.7402 11.61 31.4802 11.79 31.2902C12.16 30.9202 12.84 30.9202 13.21 31.2902C13.39 31.4802 13.5 31.7302 13.5 32.0002C13.5 32.2602 13.39 32.5202 13.21 32.7102C13.02 32.8902 12.76 33.0002 12.5 33.0002Z" fill="#8697CB"/>
<path d="M24.5 33H16.5C15.948 33 15.5 32.552 15.5 32C15.5 31.448 15.948 31 16.5 31H24.5C25.052 31 25.5 31.448 25.5 32C25.5 32.552 25.052 33 24.5 33Z" fill="#8697CB"/>
<path d="M43.5 18H41.5C40.948 18 40.5 17.552 40.5 17C40.5 16.448 40.948 16 41.5 16H43.5C44.052 16 44.5 16.448 44.5 17C44.5 17.552 44.052 18 43.5 18Z" fill="#8697CB"/>
<path d="M34.5 23H12.5C11.948 23 11.5 22.552 11.5 22C11.5 21.448 11.948 21 12.5 21H34.5C35.052 21 35.5 21.448 35.5 22C35.5 22.552 35.052 23 34.5 23Z" fill="#8697CB"/>
<path d="M43.5 23H37.5C36.948 23 36.5 22.552 36.5 22C36.5 21.448 36.948 21 37.5 21H43.5C44.052 21 44.5 21.448 44.5 22C44.5 22.552 44.052 23 43.5 23Z" fill="#8697CB"/>
<path d="M16.5 28H12.5C11.948 28 11.5 27.552 11.5 27C11.5 26.448 11.948 26 12.5 26H16.5C17.052 26 17.5 26.448 17.5 27C17.5 27.552 17.052 28 16.5 28Z" fill="#8697CB"/>
<path d="M30.5 28H20.5C19.948 28 19.5 27.552 19.5 27C19.5 26.448 19.948 26 20.5 26H30.5C31.052 26 31.5 26.448 31.5 27C31.5 27.552 31.052 28 30.5 28Z" fill="#8697CB"/>
<path d="M43.5 28H34.5C33.948 28 33.5 27.552 33.5 27C33.5 26.448 33.948 26 34.5 26H43.5C44.052 26 44.5 26.448 44.5 27C44.5 27.552 44.052 28 43.5 28Z" fill="#8697CB"/>
<path d="M48.037 56H7.963C7.155 56 6.5 55.345 6.5 54.537V39H49.5V54.537C49.5 55.345 48.845 56 48.037 56Z" fill="#0E8AFD"/>
<path d="M23.5002 47.6818C23.5002 48.5108 23.4112 49.2198 23.2332 49.8078C23.0552 50.3958 22.8302 50.8878 22.5562 51.2848C22.2822 51.6818 21.9752 51.9938 21.6332 52.2218C21.2912 52.4498 20.9612 52.6198 20.6422 52.7348C20.3232 52.8488 20.0312 52.9218 19.7672 52.9538C19.5032 52.9838 19.3072 52.9998 19.1802 52.9998H15.3662V42.9238H18.4002C19.2482 42.9238 19.9932 43.0588 20.6352 43.3268C21.2772 43.5948 21.8112 43.9538 22.2352 44.3998C22.6592 44.8458 22.9752 45.3548 23.1852 45.9238C23.3952 46.4938 23.5002 47.0798 23.5002 47.6818ZM18.6332 51.7968C19.7452 51.7968 20.5472 51.4418 21.0392 50.7308C21.5312 50.0198 21.7772 48.9898 21.7772 47.6408C21.7772 47.2218 21.7272 46.8068 21.6272 46.3968C21.5262 45.9868 21.3332 45.6158 21.0462 45.2828C20.7592 44.9498 20.3692 44.6808 19.8772 44.4758C19.3852 44.2708 18.7472 44.1678 17.9632 44.1678H17.0062V51.7968H18.6332Z" fill="white"/>
<path d="M33.4751 47.9138C33.4751 48.7618 33.3681 49.5088 33.1541 50.1558C32.9401 50.8028 32.6431 51.3408 32.2651 51.7688C31.8871 52.1978 31.4451 52.5208 30.9391 52.7398C30.4331 52.9588 29.8791 53.0678 29.2781 53.0678C28.6771 53.0678 28.1231 52.9588 27.6171 52.7398C27.1111 52.5208 26.6691 52.1978 26.2911 51.7688C25.9131 51.3398 25.6161 50.8028 25.4021 50.1558C25.1881 49.5088 25.0811 48.7608 25.0811 47.9138C25.0811 47.0668 25.1881 46.3208 25.4021 45.6788C25.6161 45.0358 25.9121 44.5008 26.2911 44.0728C26.6691 43.6438 27.1111 43.3188 27.6171 43.0948C28.1231 42.8708 28.6771 42.7598 29.2781 42.7598C29.8791 42.7598 30.4331 42.8708 30.9391 43.0948C31.4451 43.3188 31.8871 43.6438 32.2651 44.0728C32.6431 44.5018 32.9391 45.0368 33.1541 45.6788C33.3671 46.3208 33.4751 47.0658 33.4751 47.9138ZM29.2361 51.7288C29.5731 51.7288 29.8941 51.6628 30.2001 51.5308C30.5051 51.3988 30.7791 51.1818 31.0201 50.8818C31.2611 50.5808 31.4511 50.1868 31.5871 49.6988C31.7231 49.2108 31.7961 48.6168 31.8061 47.9148C31.7971 47.2308 31.7261 46.6498 31.5941 46.1718C31.4621 45.6928 31.2801 45.2988 31.0471 44.9888C30.8141 44.6788 30.5501 44.4558 30.2541 44.3188C29.9581 44.1818 29.6461 44.1138 29.3171 44.1138C28.9801 44.1138 28.6581 44.1768 28.3531 44.3048C28.0471 44.4328 27.7741 44.6488 27.5331 44.9538C27.2911 45.2598 27.1021 45.6528 26.9661 46.1368C26.8301 46.6208 26.7561 47.2118 26.7471 47.9138C26.7561 48.5978 26.8271 49.1808 26.9591 49.6638C27.0911 50.1468 27.2731 50.5408 27.5061 50.8468C27.7391 51.1528 28.0031 51.3748 28.2991 51.5168C28.5961 51.6578 28.9081 51.7288 29.2361 51.7288Z" fill="white"/>
<path d="M42.6074 51.9748C42.2334 52.3388 41.8094 52.6128 41.3364 52.7948C40.8624 52.9778 40.3524 53.0678 39.8054 53.0678C39.2034 53.0678 38.6504 52.9588 38.1444 52.7398C37.6384 52.5208 37.1964 52.1978 36.8184 51.7688C36.4404 51.3398 36.1434 50.8028 35.9294 50.1558C35.7154 49.5088 35.6084 48.7608 35.6084 47.9138C35.6084 47.0668 35.7154 46.3208 35.9294 45.6788C36.1434 45.0358 36.4394 44.5008 36.8184 44.0728C37.1964 43.6438 37.6404 43.3188 38.1514 43.0948C38.6614 42.8708 39.2134 42.7598 39.8054 42.7598C40.3524 42.7598 40.8624 42.8508 41.3364 43.0328C41.8104 43.2158 42.2334 43.4888 42.6074 43.8528L41.4724 44.8648C41.2444 44.5998 40.9914 44.4088 40.7134 44.2908C40.4354 44.1728 40.1464 44.1128 39.8454 44.1128C39.5084 44.1128 39.1864 44.1758 38.8814 44.3038C38.5754 44.4318 38.3024 44.6478 38.0614 44.9528C37.8194 45.2588 37.6304 45.6518 37.4944 46.1358C37.3584 46.6198 37.2844 47.2108 37.2754 47.9128C37.2844 48.5968 37.3554 49.1798 37.4874 49.6628C37.6194 50.1458 37.8014 50.5398 38.0344 50.8458C38.2674 51.1518 38.5314 51.3738 38.8274 51.5158C39.1234 51.6578 39.4354 51.7278 39.7644 51.7278C40.0934 51.7278 40.4004 51.6678 40.6874 51.5498C40.9744 51.4318 41.2364 51.2398 41.4734 50.9758L42.6074 51.9748Z" fill="white"/>
</svg>
