<svg width="56" height="56" viewBox="0 0 56 56" fill="none" xmlns="http://www.w3.org/2000/svg">
<path d="M36.985 0H7.963C7.155 0 6.5 0.655 6.5 1.926V55C6.5 55.345 7.155 56 7.963 56H48.037C48.845 56 49.5 55.345 49.5 55V12.978C49.5 12.282 49.407 12.058 49.243 11.893L37.607 0.257C37.442 0.093 37.218 0 36.985 0Z" fill="#E9E9E0"/>
<path d="M37.5 0.150879V11.9999H49.349L37.5 0.150879Z" fill="#D9D7CA"/>
<path d="M48.037 56H7.963C7.155 56 6.5 55.345 6.5 54.537V39H49.5V54.537C49.5 55.345 48.845 56 48.037 56Z" fill="#84D197"/>
<path d="M20.3792 48.1049L22.9362 52.9999H21.0362L19.4362 49.1989H19.2992L17.5762 52.9999H15.6762L18.2332 48.1049L15.5122 42.9229H17.3852L19.1622 47.0249H19.2992L21.2272 42.9229H23.1002L20.3792 48.1049Z" fill="white"/>
<path d="M27.0371 42.9238V51.7558H31.6721V52.9998H25.3691V42.9238H27.0371Z" fill="white"/>
<path d="M39.041 50.2378C39.041 50.6018 38.966 50.9558 38.815 51.2978C38.664 51.6398 38.453 51.9398 38.18 52.1998C37.907 52.4598 37.569 52.6668 37.168 52.8218C36.767 52.9768 36.311 53.0538 35.801 53.0538C35.582 53.0538 35.357 53.0418 35.124 53.0198C34.891 52.9978 34.657 52.9578 34.42 52.9038C34.183 52.8488 33.957 52.7738 33.743 52.6778C33.529 52.5818 33.344 52.4658 33.189 52.3288L33.476 51.1528C33.603 51.2258 33.765 51.2968 33.961 51.3648C34.157 51.4328 34.359 51.4968 34.569 51.5558C34.778 51.6158 34.988 51.6628 35.198 51.6998C35.407 51.7358 35.603 51.7548 35.786 51.7548C36.342 51.7548 36.768 51.6248 37.064 51.3648C37.36 51.1048 37.508 50.7198 37.508 50.2098C37.508 49.8998 37.403 49.6358 37.194 49.4168C36.984 49.1978 36.722 48.9998 36.408 48.8218C36.094 48.6438 35.754 48.4668 35.389 48.2888C35.024 48.1108 34.682 47.9008 34.364 47.6598C34.045 47.4188 33.781 47.1338 33.571 46.8058C33.361 46.4778 33.257 46.0678 33.257 45.5758C33.257 45.1298 33.339 44.7328 33.503 44.3868C33.667 44.0408 33.888 43.7458 34.166 43.5048C34.444 43.2638 34.768 43.0788 35.137 42.9508C35.506 42.8228 35.896 42.7598 36.306 42.7598C36.725 42.7598 37.149 42.7988 37.577 42.8758C38.005 42.9528 38.351 43.0788 38.616 43.2518C38.561 43.3698 38.497 43.4998 38.425 43.6418C38.352 43.7838 38.283 43.9148 38.22 44.0378C38.156 44.1608 38.101 44.2638 38.056 44.3458C38.01 44.4278 37.983 44.4738 37.974 44.4828C37.919 44.4558 37.858 44.4198 37.789 44.3738C37.72 44.3278 37.622 44.2828 37.495 44.2368C37.367 44.1908 37.199 44.1598 36.989 44.1408C36.779 44.1218 36.51 44.1268 36.182 44.1548C35.999 44.1738 35.827 44.2248 35.662 44.3118C35.497 44.3988 35.352 44.5048 35.224 44.6328C35.096 44.7608 34.996 44.9038 34.923 45.0638C34.85 45.2228 34.814 45.3768 34.814 45.5218C34.814 45.8858 34.918 46.1798 35.128 46.4038C35.337 46.6278 35.597 46.8228 35.907 46.9918C36.217 47.1608 36.554 47.3248 36.919 47.4838C37.283 47.6428 37.623 47.8378 37.938 48.0648C38.253 48.2918 38.514 48.5778 38.724 48.9188C38.936 49.2608 39.041 49.6998 39.041 50.2378Z" fill="white"/>
<path d="M23.5 16V12H11.5V16V18V20V22V24V26V28V30V34H21.5H23.5H44.5V30V28V26V24V22V20V16H23.5ZM13.5 14H21.5V16H13.5V14ZM13.5 18H21.5V20H13.5V18ZM13.5 22H21.5V24H13.5V22ZM13.5 26H21.5V28H13.5V26ZM21.5 32H13.5V30H21.5V32ZM42.5 32H23.5V30H42.5V32ZM42.5 28H23.5V26H42.5V28ZM42.5 24H23.5V22H42.5V24ZM23.5 20V18H42.5V20H23.5Z" fill="#C8BDB8"/>
</svg>
