<svg width="56" height="56" viewBox="0 0 56 56" fill="none" xmlns="http://www.w3.org/2000/svg">
<circle cx="28" cy="28" r="28" fill="#FFF4E8"/>
<path fill-rule="evenodd" clip-rule="evenodd" d="M28 17.3999C28.5705 17.3999 28.9574 17.8554 29.0122 18.343C29.9666 18.7775 30.6 19.7956 30.6 20.9281V20.9832C30.6 21.2822 30.4779 21.5706 30.2641 21.7719L29.8423 24.2503C29.7723 24.6609 29.4602 25.0303 29.0189 25.1104V36.4757C29.6313 36.4801 30.0302 37.0102 30.0302 37.5378C30.0302 38.0676 29.628 38.5999 29.0112 38.5999H26.9888C26.3721 38.5999 25.9699 38.0676 25.9699 37.5378C25.9699 37.0102 26.3687 36.4801 26.9811 36.4757V25.1104C26.5399 25.0303 26.2277 24.6608 26.1578 24.2503L25.736 21.7719C25.5221 21.5706 25.4 21.2822 25.4 20.9832V20.9281C25.4 19.7957 26.0335 18.7775 26.9878 18.343C27.0427 17.8554 27.4296 17.3999 28 17.3999ZM27.1415 21.4453L27.5087 23.6022H28.4914L28.8586 21.4453H27.1415ZM29.1022 20.521C28.9475 20.0132 28.5119 19.6462 28.0001 19.6462C27.4882 19.6462 27.0526 20.0132 26.898 20.521H29.1022Z" fill="#FFA63E"/>
</svg>
