<svg width="56" height="56" viewBox="0 0 56 56" fill="none" xmlns="http://www.w3.org/2000/svg">
<circle cx="28" cy="28" r="28" fill="#FFF4E8"/>
<path fill-rule="evenodd" clip-rule="evenodd" d="M33.517 17.3999C34.0874 17.3999 34.4743 17.8554 34.5292 18.343C35.4835 18.7775 36.117 19.7956 36.117 20.9281V20.9832C36.117 21.2822 35.9949 21.5706 35.781 21.7719L35.3592 24.2503C35.2893 24.6609 34.9771 25.0303 34.5359 25.1104V36.4757C35.1482 36.4801 35.5471 37.0102 35.5471 37.5378C35.5471 38.0676 35.1449 38.5999 34.5282 38.5999H32.5058C31.889 38.5999 31.4868 38.0676 31.4868 37.5378C31.4868 37.0102 31.8857 36.4801 32.498 36.4757V25.1104C32.0568 25.0303 31.7446 24.6608 31.6747 24.2503L31.2529 21.7719C31.039 21.5706 30.917 21.2822 30.917 20.9832V20.9281C30.917 19.7957 31.5504 18.7775 32.5048 18.343C32.5596 17.8554 32.9465 17.3999 33.517 17.3999ZM32.6585 21.4453L33.0256 23.6022H34.0084L34.3755 21.4453H32.6585ZM34.6191 20.521C34.4644 20.0132 34.0288 19.6462 33.517 19.6462C33.0051 19.6462 32.5695 20.0132 32.4149 20.521H34.6191Z" fill="#FFA63E"/>
<path fill-rule="evenodd" clip-rule="evenodd" d="M26.8811 22C27.3278 22 27.6307 22.3566 27.6737 22.7384C28.421 23.0787 28.9169 23.8759 28.9169 24.7627V24.8058C28.9169 25.0399 28.8214 25.2657 28.6539 25.4234L28.3236 27.364C28.2689 27.6855 28.0244 27.9748 27.6789 28.0375V36.9367C28.1584 36.9402 28.4707 37.3553 28.4707 37.7684C28.4707 38.1832 28.1558 38.6 27.6729 38.6H26.0893C25.6064 38.6 25.2915 38.1832 25.2915 37.7684C25.2915 37.3553 25.6038 36.9402 26.0833 36.9367V28.0375C25.7378 27.9748 25.4933 27.6855 25.4386 27.364L25.1083 25.4234C24.9408 25.2657 24.8452 25.0399 24.8452 24.8058V24.7627C24.8452 23.876 25.3412 23.0787 26.0885 22.7384C26.1315 22.3566 26.4344 22 26.8811 22ZM26.2089 25.1677L26.4963 26.8565H27.2659L27.5533 25.1677H26.2089ZM27.7441 24.4439C27.623 24.0462 27.2819 23.7589 26.8811 23.7589C26.4803 23.7589 26.1392 24.0462 26.0182 24.4439H27.7441Z" fill="#FFA63E"/>
<path fill-rule="evenodd" clip-rule="evenodd" d="M21.4226 27C21.7348 27 21.9465 27.2492 21.9765 27.516C22.4987 27.7538 22.8453 28.3109 22.8453 28.9306V28.9607C22.8453 29.1243 22.7785 29.2821 22.6615 29.3922L22.4307 30.7484C22.3924 30.973 22.2216 31.1751 21.9802 31.219V37.4377C22.3152 37.4401 22.5335 37.7302 22.5335 38.0189C22.5335 38.3087 22.3134 38.6 21.9759 38.6H20.8693C20.5319 38.6 20.3118 38.3087 20.3118 38.0189C20.3118 37.7302 20.5301 37.4401 20.8651 37.4377V31.219C20.6237 31.1751 20.4529 30.973 20.4146 30.7483L20.1838 29.3922C20.0668 29.2821 20 29.1243 20 28.9607V28.9306C20 28.3109 20.3466 27.7538 20.8688 27.516C20.8988 27.2492 21.1105 27 21.4226 27ZM20.9529 29.2135L21.1538 30.3937H21.6915L21.8924 29.2135H20.9529ZM22.0257 28.7078C21.9411 28.4299 21.7027 28.2291 21.4227 28.2291C21.1426 28.2291 20.9042 28.4299 20.8197 28.7078H22.0257Z" fill="#FFA63E"/>
</svg>
