<svg width="56" height="56" viewBox="0 0 56 56" fill="none" xmlns="http://www.w3.org/2000/svg">
<circle cx="28" cy="28" r="28" fill="#FFF4E8"/>
<path d="M36.5761 24.8208C36.7725 24.414 36.8748 23.9682 36.8748 23.507C36.8748 21.9288 35.6624 20.6283 34.1199 20.4883C33.8633 19.075 32.6235 18 31.1373 18C29.6529 18 28.4142 19.0725 28.1556 20.4834C27.2297 20.5494 26.3936 21.0377 25.8765 21.7854C25.4899 21.5551 25.0388 21.4222 24.5571 21.4222C23.3185 21.4222 22.2805 22.2972 22.0286 23.4614C20.7262 23.5946 19.7066 24.698 19.7066 26.0348C19.7066 26.4019 19.7825 26.7578 19.9288 27.0858C19.3398 27.6658 19 28.4623 19 29.3031C19 30.4034 19.5746 31.4047 20.4958 31.9635C20.4935 32.072 20.4977 32.1786 20.5057 32.2738C20.534 32.6013 20.6325 33.0926 20.9418 33.5742C21.6141 34.6211 22.826 34.9528 23.8668 35.0236V37.4141C23.8668 37.7377 24.1291 38 24.4527 38C24.7762 38 25.0387 37.7377 25.0387 37.4141V35.0059C26.5215 34.8596 27.3707 34.2523 27.8527 33.6558C28.5427 34.0918 29.4366 34.3327 30.5222 34.375V37.4141C30.5222 37.7377 30.7845 38 31.1082 38C31.4316 38 31.6941 37.7377 31.6941 37.4141V34.3432C33.7527 34.145 34.788 33.2097 35.3014 32.4101C35.6861 31.8109 35.8532 31.1738 35.8758 30.6984C37.0196 30.0515 37.7384 28.8383 37.7384 27.5012C37.7383 26.4781 37.3118 25.5104 36.5761 24.8208ZM25.0385 33.8275V32.2845L26.4844 30.8387C26.7133 30.6099 26.7133 30.2389 26.4844 30.01C26.2556 29.7813 25.8846 29.7812 25.6557 30.01L25.0385 30.6273V29.0887C25.0385 28.7651 24.7762 28.5028 24.4526 28.5028C24.1291 28.5028 23.8666 28.7651 23.8666 29.0887V33.8492C22.994 33.7808 22.3705 33.5162 22.0115 33.0586C21.6259 32.5671 21.6509 31.976 21.6805 31.8316C21.729 31.6986 21.7278 31.5518 21.6761 31.4187C21.6186 31.2712 21.504 31.1531 21.3579 31.0914C20.6374 30.7872 20.1719 30.0851 20.1719 29.3031C20.1719 28.6644 20.4868 28.0664 21.0142 27.7035C21.1449 27.6135 21.2336 27.4745 21.2598 27.3179C21.2862 27.1614 21.2479 27.0009 21.1536 26.8731C20.9736 26.6288 20.8785 26.3389 20.8785 26.0348C20.8785 25.2546 21.5133 24.6199 22.2935 24.6199C22.3531 24.6199 22.416 24.6241 22.4807 24.6327C22.6496 24.655 22.8203 24.6023 22.9476 24.4885C23.0749 24.3748 23.1461 24.2112 23.1429 24.0406C23.1428 24.032 23.1425 24.0234 23.1422 24.0147L23.142 24.0091C23.142 23.2289 23.7768 22.5941 24.5571 22.5941C25.3362 22.5941 25.9704 23.2272 25.972 24.006L25.9719 24.0097C25.9716 24.0185 25.9714 24.0274 25.9713 24.0361C25.9685 24.2039 26.038 24.3647 26.1619 24.478C26.2858 24.5912 26.4522 24.6458 26.6192 24.628C26.6704 24.6225 26.7216 24.6197 26.7711 24.6197C27.5513 24.6197 28.1862 25.2546 28.1862 26.0348C28.1862 26.3389 28.091 26.6288 27.911 26.8731C27.8168 27.0009 27.7785 27.1614 27.8048 27.3178C27.831 27.4743 27.9197 27.6135 28.0504 27.7035C28.5779 28.0664 28.8929 28.6644 28.8929 29.3029C28.8929 30.0851 28.4272 30.787 27.7067 31.0914C27.5608 31.1531 27.446 31.2712 27.3885 31.4187C27.342 31.5385 27.3363 31.6694 27.3711 31.7915C27.3768 31.894 27.3508 32.1907 27.1889 32.5277C27.1839 32.537 27.1795 32.5464 27.175 32.5558C27.1042 32.6974 27.0096 32.8451 26.8828 32.9881C26.475 33.4486 25.8556 33.7292 25.0385 33.8275ZM35.0373 29.8069C34.8914 29.8686 34.7767 29.9865 34.7191 30.1342C34.6709 30.2581 34.6665 30.394 34.7054 30.5197C34.7187 30.6794 34.668 31.4059 34.1007 32.0643C33.4456 32.8245 32.36 33.2101 30.8736 33.2101C29.8096 33.2101 28.9831 33.0104 28.4075 32.6173C28.4777 32.3953 28.5204 32.1782 28.5357 31.9833C29.4762 31.4286 30.0648 30.4164 30.0648 29.3031C30.0648 28.4623 29.7249 27.6658 29.136 27.0857C29.2823 26.7576 29.3581 26.4019 29.3581 26.0348C29.3581 24.7152 28.3649 23.6233 27.0869 23.4671C27.0212 23.1608 26.9008 22.8747 26.7371 22.619C27.0588 22.028 27.6833 21.6476 28.3709 21.6476C28.4495 21.6476 28.5322 21.6533 28.6167 21.6644C28.7861 21.6867 28.957 21.6339 29.0842 21.5196C29.2116 21.4055 29.2827 21.2414 29.2789 21.0705L29.2777 21.0315C29.2777 20.0061 30.1119 19.1719 31.1373 19.1719C32.1627 19.1719 32.9967 20.0061 32.9967 21.0292L32.9966 21.0379C32.9963 21.047 32.996 21.056 32.9957 21.0652C32.9928 21.2332 33.0619 21.3945 33.1859 21.5078C33.3098 21.6214 33.4768 21.6763 33.6437 21.6584C33.711 21.6513 33.7781 21.6476 33.8431 21.6476C34.8685 21.6476 35.7027 22.4818 35.7027 23.5072C35.7027 23.9068 35.5776 24.2878 35.3409 24.6089C35.2468 24.7366 35.2085 24.8971 35.2347 25.0535C35.261 25.2101 35.3498 25.3492 35.4804 25.4393C36.1603 25.9071 36.5664 26.678 36.5664 27.5013C36.5664 28.5095 35.9662 29.4145 35.0373 29.8069Z" fill="#FFA63E"/>
<path d="M35.3014 32.4102C34.788 33.2098 33.7527 34.1451 31.6941 34.3433V37.4142C31.6941 37.7378 31.4316 38.0001 31.1082 38.0001C30.7845 38.0001 30.5222 37.7378 30.5222 37.4142V34.3751C29.4366 34.3328 28.5427 34.0919 27.8527 33.6559C27.3707 34.2524 26.5215 34.8597 25.0387 35.006V37.4142C25.0387 37.7378 24.7762 38.0001 24.4527 38.0001C24.1291 38.0001 23.8668 37.7378 23.8668 37.4142V35.0237C22.826 34.9529 21.6141 34.6212 20.9418 33.5743L20.6053 33.7904C21.2949 34.8643 22.4575 35.2602 23.4668 35.3869V37.4142C23.4668 37.9587 23.9082 38.4001 24.4527 38.4001C24.9971 38.4001 25.4387 37.9588 25.4387 37.4142V35.3584C26.6223 35.1737 27.4138 34.6955 27.9348 34.1643C28.5551 34.4887 29.2897 34.681 30.1222 34.7512V37.4142C30.1222 37.9587 30.5636 38.4001 31.1082 38.4001C31.6525 38.4001 32.0941 37.9588 32.0941 37.4142V34.6982C34.0442 34.4176 35.0929 33.4752 35.638 32.6263C36.0069 32.0518 36.197 31.4427 36.257 30.9359C37.4179 30.1961 38.1384 28.9103 38.1384 27.5012C38.1383 26.4631 37.7423 25.4766 37.0503 24.7308C37.1984 24.3433 37.2748 23.9303 37.2748 23.5071C37.2748 21.821 36.0533 20.4158 34.4483 20.1292C34.0512 18.6734 32.7181 17.6001 31.1373 17.6001C29.5603 17.6001 28.2297 18.6684 27.8292 20.1189C27.019 20.2488 26.2883 20.6653 25.7637 21.2776C25.3946 21.1138 24.9862 21.0223 24.5571 21.0223C23.2241 21.0223 22.0938 21.899 21.71 23.1053C20.3413 23.3776 19.3066 24.5871 19.3066 26.0349C19.3066 26.3655 19.3601 26.6891 19.4644 26.9962C18.9134 27.6286 18.6 28.4454 18.6 29.3032C18.6 30.4672 19.1704 31.5338 20.0989 32.1822C20.101 32.2254 20.1038 32.268 20.1072 32.3083C20.1391 32.6778 20.2504 33.2378 20.6053 33.7904L20.9418 33.5743C20.6325 33.0927 20.534 32.6014 20.5057 32.2739L21.6855 32.2848C21.6533 32.0715 21.6664 31.9007 21.6805 31.8317C21.7269 31.7045 21.7278 31.5647 21.6826 31.4364L20.4958 31.9636C19.5747 31.4048 19 30.4035 19 29.3032C19 28.4624 19.3398 27.6659 19.9288 27.0859C19.7825 26.7579 19.7066 26.402 19.7066 26.0349C19.7066 24.6981 20.7262 23.5947 22.0286 23.4615C22.2805 22.2973 23.3185 21.4223 24.5571 21.4223C25.0388 21.4223 25.4899 21.5552 25.8765 21.7855C26.3937 21.0378 27.2297 20.5495 28.1556 20.4835C28.4142 19.0726 29.6529 18.0001 31.1373 18.0001C32.6235 18.0001 33.8633 19.0751 34.1199 20.4883C35.6625 20.6284 36.8748 21.9289 36.8748 23.5071C36.8748 23.9683 36.7725 24.4141 36.5761 24.8209C37.3118 25.5105 37.7383 26.4782 37.7384 27.5013C37.7384 28.8384 37.0196 30.0516 35.8758 30.6985C35.8532 31.1739 35.6861 31.811 35.3014 32.4102Z" fill="#FFA63E"/>
<path d="M34.8816 29.4386L35.0373 29.807C35.9663 29.4146 36.5664 28.5096 36.5664 27.5014C36.5664 26.6781 36.1603 25.9072 35.4804 25.4394C35.4436 25.414 35.41 25.3846 35.3803 25.3521L35.0033 25.5196C35.0705 25.6162 35.1551 25.7009 35.2537 25.7689C35.8255 26.1623 36.1664 26.8102 36.1664 27.5014C36.1664 28.3488 35.6625 29.1087 34.8816 29.4386Z" fill="#FFA63E"/>
<path d="M30.8736 33.2102C32.1257 33.2102 33.0934 32.9366 33.7589 32.396L33.0325 32.3893C32.4922 32.661 31.7792 32.8102 30.8736 32.8102C30.0072 32.8102 29.347 32.6714 28.8719 32.4283C28.8776 32.4025 28.8829 32.3767 28.8879 32.3511L28.4801 32.3474C28.4606 32.4358 28.4364 32.5262 28.4075 32.6174C28.9831 33.0105 29.8096 33.2102 30.8736 33.2102Z" fill="#FFA63E"/>
<path d="M34.8816 29.4386C34.6363 29.5423 34.4432 29.7407 34.3464 29.9892C34.2728 30.1784 34.2598 30.3844 34.3071 30.5791L34.3067 30.5916C34.3059 30.6164 34.3037 30.6495 34.299 30.6897C34.2896 30.77 34.271 30.8747 34.2365 30.9942C34.1675 31.2332 34.0372 31.5253 33.7977 31.8033C33.5973 32.0359 33.3435 32.2329 33.0325 32.3893L33.7589 32.396C33.8835 32.2948 33.9974 32.1843 34.1007 32.0644C34.668 31.406 34.7187 30.6795 34.7054 30.5198C34.6665 30.394 34.6709 30.2582 34.7192 30.1343C34.7767 29.9866 34.8914 29.8687 35.0373 29.807L34.8816 29.4386Z" fill="#FFA63E"/>
<path d="M30.0648 29.3032C30.0648 30.4165 29.4762 31.4287 28.5357 31.9834C28.5267 32.0982 28.5082 32.2207 28.4801 32.3474L28.8879 32.3511C28.8965 32.307 28.9041 32.2632 28.9107 32.2198C29.8717 31.5756 30.4648 30.4899 30.4648 29.3032C30.4648 28.7396 30.3295 28.1938 30.0804 27.7062L29.7143 27.8689C29.9413 28.3058 30.0648 28.7965 30.0648 29.3032Z" fill="#FFA63E"/>
<path d="M27.269 32.3362C27.3598 32.0824 27.3757 31.8741 27.3711 31.7916C27.3363 31.6695 27.342 31.5386 27.3885 31.4188C27.4461 31.2713 27.5608 31.1532 27.7067 31.0915C28.4272 30.7871 28.8929 30.0852 28.8929 29.303C28.8929 28.9627 28.8034 28.6339 28.64 28.346L28.2722 28.5094C28.4146 28.746 28.4929 29.0196 28.4929 29.303C28.4929 29.9244 28.1235 30.4812 27.551 30.7231C27.3055 30.8268 27.1124 31.0259 27.0157 31.274C26.9451 31.4557 26.9304 31.6528 26.9712 31.8406C26.9708 31.8483 26.9702 31.8573 26.9693 31.8675C26.9665 31.9001 26.9608 31.9426 26.9507 31.9928C26.9316 32.0877 26.8973 32.2056 26.8389 32.3323L27.269 32.3362Z" fill="#FFA63E"/>
<path d="M25.0385 33.8276C25.1776 33.8109 25.311 33.7888 25.4385 33.7616C26.0603 33.6286 26.5444 33.3703 26.8828 32.9882C27.0096 32.8452 27.1043 32.6975 27.1751 32.5559C27.1795 32.5465 27.1839 32.5371 27.1889 32.5278C27.2205 32.462 27.247 32.3978 27.269 32.3362L26.8389 32.3323L26.8315 32.3482C26.8247 32.3612 26.8191 32.3729 26.8152 32.3812C26.7587 32.4934 26.6835 32.6101 26.5834 32.723C26.3286 33.0106 25.9546 33.2279 25.4385 33.3515V32.4503L25.5683 32.3206L25.0385 32.3157V33.8276Z" fill="#FFA63E"/>
<path d="M26.4844 30.8388L25.0385 32.2846V32.3157L25.5683 32.3206L26.7673 31.1217C27.1524 30.7366 27.1523 30.1123 26.7672 29.7272C26.6 29.5601 26.3876 29.4655 26.1693 29.4435L25.0385 29.9458V30.6274L25.6557 30.0101C25.8846 29.7813 26.2556 29.7814 26.4844 30.0101C26.7133 30.239 26.7133 30.61 26.4844 30.8388Z" fill="#FFA63E"/>
<path d="M23.9582 28.7742C24.0623 28.611 24.2448 28.5029 24.4526 28.5029C24.7762 28.5029 25.0385 28.7652 25.0385 29.0888V29.4259L25.4385 29.6673V29.0888C25.4385 28.5443 24.9971 28.1029 24.4526 28.1029C24.0996 28.1029 23.7898 28.2885 23.6156 28.5675L23.9582 28.7742Z" fill="#FFA63E"/>
<path d="M23.4666 29.0888V30.644L23.8666 30.4663V29.0888C23.8666 28.973 23.9002 28.8651 23.9582 28.7742L23.6156 28.5675C23.5212 28.7187 23.4666 28.8974 23.4666 29.0888Z" fill="#FFA63E"/>
<path d="M23.4666 32.3012L23.8666 32.3049V30.4663L23.4666 30.644V32.3012Z" fill="#FFA63E"/>
<path d="M22.0115 33.0587C22.313 33.443 22.8011 33.6912 23.4666 33.8013C23.5935 33.8223 23.7269 33.8383 23.8666 33.8492V32.3049L23.4666 32.3012V33.3954C22.9011 33.2913 22.5378 33.0814 22.3262 32.8118C22.1949 32.6444 22.1255 32.4575 22.0921 32.2885L21.6855 32.2848C21.7207 32.518 21.8101 32.802 22.0115 33.0587Z" fill="#FFA63E"/>
<path d="M31.6941 34.3433C33.7527 34.1451 34.788 33.2098 35.3014 32.4102L33.7589 32.396C33.0934 32.9366 32.1257 33.2102 30.8736 33.2102C29.8096 33.2102 28.9831 33.0105 28.4075 32.6174C28.4364 32.5262 28.4606 32.4358 28.4801 32.3474L27.269 32.3362C27.247 32.3978 27.2205 32.462 27.1889 32.5278C27.1839 32.5371 27.1795 32.5465 27.1751 32.5559C27.1043 32.6975 27.0096 32.8452 26.8828 32.9882C26.5444 33.3703 26.0603 33.6286 25.4385 33.7616C25.311 33.7888 25.1776 33.8109 25.0385 33.8276V32.3157L23.8666 32.3049V33.8492C23.7269 33.8383 23.5935 33.8223 23.4666 33.8013C22.8011 33.6912 22.313 33.443 22.0115 33.0587C21.8101 32.802 21.7207 32.518 21.6855 32.2848L20.5057 32.2739C20.534 32.6014 20.6325 33.0927 20.9418 33.5743C21.6141 34.6212 22.826 34.9529 23.8668 35.0237V37.4142C23.8668 37.7378 24.1291 38.0001 24.4527 38.0001C24.7762 38.0001 25.0387 37.7378 25.0387 37.4142V35.006C26.5215 34.8597 27.3707 34.2524 27.8527 33.6559C28.5427 34.0919 29.4366 34.3328 30.5222 34.3751V37.4142C30.5222 37.7378 30.7845 38.0001 31.1082 38.0001C31.4316 38.0001 31.6941 37.7378 31.6941 37.4142V34.3433Z" fill="#FFA63E"/>
<path d="M25.0385 32.2846L26.4844 30.8388C26.7133 30.61 26.7133 30.239 26.4844 30.0101C26.2556 29.7814 25.8846 29.7813 25.6557 30.0101L25.0385 30.6274V29.9458L23.8666 30.4663V32.3049L25.0385 32.3157V32.2846Z" fill="#FFA63E"/>
<path d="M25.0385 29.4259L23.9582 28.7742C23.9002 28.8651 23.8666 28.973 23.8666 29.0888V30.4663L25.0385 29.9458V29.4259Z" fill="#FFA63E"/>
<path d="M25.0385 29.0888C25.0385 28.7652 24.7762 28.5029 24.4526 28.5029C24.2448 28.5029 24.0623 28.611 23.9582 28.7742L25.0385 29.4259V29.0888Z" fill="#FFA63E"/>
<path d="M36.5761 24.8209C36.7725 24.4141 36.8748 23.9683 36.8748 23.5071C36.8748 21.9289 35.6625 20.6284 34.1199 20.4883C33.8633 19.0751 32.6235 18.0001 31.1373 18.0001C29.6529 18.0001 28.4142 19.0726 28.1556 20.4835C27.2297 20.5495 26.3937 21.0378 25.8765 21.7855C25.4899 21.5552 25.0388 21.4223 24.5571 21.4223C23.3185 21.4223 22.2805 22.2973 22.0286 23.4615C20.7262 23.5947 19.7066 24.6981 19.7066 26.0349C19.7066 26.402 19.7825 26.7579 19.9288 27.0859C19.3398 27.6659 19 28.4624 19 29.3032C19 30.4035 19.5747 31.4048 20.4958 31.9636L21.6826 31.4364C21.6805 31.4305 21.6784 31.4247 21.6761 31.4188C21.6186 31.2713 21.504 31.1532 21.3579 31.0915C20.6374 30.7873 20.1719 30.0852 20.1719 29.3032C20.1719 28.6645 20.4868 28.0665 21.0142 27.7036C21.1449 27.6136 21.2336 27.4746 21.2598 27.318C21.2862 27.1615 21.2479 27.001 21.1536 26.8732C20.9736 26.6289 20.8785 26.339 20.8785 26.0349C20.8785 25.2547 21.5133 24.62 22.2935 24.62C22.3531 24.62 22.416 24.6242 22.4807 24.6328C22.6496 24.6551 22.8203 24.6024 22.9476 24.4886C23.0749 24.3749 23.1461 24.2113 23.1429 24.0407C23.1428 24.032 23.1425 24.0235 23.1422 24.0148L23.142 24.0092C23.142 23.229 23.7768 22.5942 24.5571 22.5942C25.3362 22.5942 25.9704 23.2273 25.9721 24.0061L25.9719 24.0098L25.9713 24.0362C25.9685 24.204 26.038 24.3648 26.1619 24.4781C26.2858 24.5913 26.4522 24.6459 26.6192 24.6281C26.6704 24.6226 26.7216 24.6198 26.7712 24.6198C27.5513 24.6198 28.1863 25.2547 28.1863 26.0349C28.1863 26.339 28.091 26.6289 27.911 26.8732C27.8168 27.001 27.7785 27.1615 27.8048 27.3179C27.831 27.4744 27.9197 27.6136 28.0505 27.7036C28.2968 27.8731 28.4968 28.0938 28.64 28.346L29.7143 27.8689C29.5646 27.5809 29.37 27.3163 29.136 27.0858C29.2823 26.7577 29.3581 26.402 29.3581 26.0349C29.3581 24.7153 28.3649 23.6234 27.0869 23.4672C27.0212 23.1609 26.9009 22.8748 26.7371 22.6191C27.0588 22.0281 27.6833 21.6477 28.3709 21.6477C28.4495 21.6477 28.5322 21.6534 28.6167 21.6645C28.7861 21.6868 28.957 21.634 29.0842 21.5197C29.2116 21.4056 29.2828 21.2415 29.2789 21.0706L29.2777 21.0316C29.2777 20.0062 30.1119 19.172 31.1373 19.172C32.1627 19.172 32.9967 20.0062 32.9967 21.0293L32.9966 21.038L32.9957 21.0653C32.9928 21.2333 33.0619 21.3946 33.1859 21.5079C33.3099 21.6215 33.4768 21.6764 33.6437 21.6585C33.711 21.6514 33.7781 21.6477 33.8431 21.6477C34.8685 21.6477 35.7027 22.4819 35.7027 23.5073C35.7027 23.9069 35.5776 24.2879 35.3409 24.609C35.2468 24.7367 35.2085 24.8972 35.2347 25.0536C35.2536 25.166 35.3047 25.2694 35.3803 25.3521L36.5761 24.8209Z" fill="#FFA63E"/>
<path d="M27.3885 31.4188C27.342 31.5386 27.3363 31.6695 27.3711 31.7916C27.3757 31.8741 27.3598 32.0824 27.269 32.3362L28.4801 32.3474C28.5082 32.2207 28.5267 32.0982 28.5357 31.9834C29.4762 31.4287 30.0648 30.4165 30.0648 29.3032C30.0648 28.7965 29.9413 28.3058 29.7143 27.8689L28.64 28.346C28.8034 28.6339 28.8929 28.9627 28.8929 29.303C28.8929 30.0852 28.4272 30.7871 27.7067 31.0915C27.5608 31.1532 27.4461 31.2713 27.3885 31.4188Z" fill="#FFA63E"/>
<path d="M35.3014 32.4102L35.8758 30.6985L37.7384 27.5013L36.5761 24.8209L35.3803 25.3521C35.41 25.3846 35.4436 25.414 35.4804 25.4394C36.1603 25.9072 36.5664 26.6781 36.5664 27.5014C36.5664 28.5096 35.9663 29.4146 35.0373 29.807C34.8914 29.8687 34.7767 29.9866 34.7192 30.1343C34.6709 30.2582 34.6665 30.394 34.7054 30.5198C34.7187 30.6795 34.668 31.406 34.1007 32.0644C33.9974 32.1843 33.8835 32.2948 33.7589 32.396L35.3014 32.4102Z" fill="#FFA63E"/>
<path d="M35.8758 30.6985C37.0196 30.0516 37.7384 28.8384 37.7384 27.5013L35.8758 30.6985Z" fill="#FFA63E"/>
<path d="M37.7384 27.5013C37.7383 26.4782 37.3118 25.5105 36.5761 24.8209L37.7384 27.5013Z" fill="#FFA63E"/>
<path d="M35.3014 32.4102C35.6861 31.811 35.8532 31.1739 35.8758 30.6985L35.3014 32.4102Z" fill="#FFA63E"/>
<path d="M25.0385 29.9458L26.1693 29.4435C25.9127 29.4177 25.6479 29.4922 25.4385 29.6673L25.0385 29.4259V29.9458Z" fill="#FFA63E"/>
<path fill-rule="evenodd" clip-rule="evenodd" d="M28.0505 27.7036C28.2968 27.8731 28.4968 28.0938 28.64 28.346L28.2722 28.5094C28.1602 28.3233 28.0084 28.1602 27.8238 28.0332C27.6038 27.8818 27.4545 27.6476 27.4103 27.3841C27.3662 27.1209 27.4306 26.8508 27.589 26.6359C27.7183 26.4605 27.7863 26.2538 27.7863 26.0349C27.7863 25.4756 27.3304 25.0198 26.7712 25.0198C26.7362 25.0198 26.6992 25.0218 26.6617 25.0258C26.3808 25.0558 26.1006 24.9639 25.892 24.7733C25.6836 24.5829 25.5667 24.3117 25.5714 24.0292L25.5714 24.0278L25.572 23.9998C25.5669 23.4448 25.1132 22.9942 24.5571 22.9942C23.9994 22.9942 23.5449 23.447 23.542 24.0038C23.5008 24.3782 23.4148 24.5377 23.2141 24.7869C23 24.9783 22.7128 25.0669 22.4283 25.0293C22.3796 25.0229 22.3343 25.02 22.2935 25.02C21.7342 25.02 21.2785 25.4756 21.2785 26.0349C21.2785 26.2538 21.3464 26.4604 21.4754 26.6356C21.634 26.9401 21.6584 27.102 21.6543 27.3842C21.6101 27.6478 21.4607 27.8818 21.2409 28.0331C20.8217 28.3216 20.5719 28.7965 20.5719 29.3032C20.5719 29.9244 20.9411 30.4813 21.5135 30.723C21.7594 30.8268 21.9523 31.026 22.0489 31.2739L21.6826 31.4364C21.6805 31.4305 21.6784 31.4247 21.6761 31.4188C21.6186 31.2713 21.504 31.1532 21.3579 31.0915C20.6374 30.7873 20.1719 30.0852 20.1719 29.3032C20.1719 28.6645 20.4868 28.0665 21.0142 27.7036C21.1449 27.6136 21.2336 27.4746 21.2598 27.318C21.2862 27.1615 21.2479 27.001 21.1536 26.8732C20.9736 26.6289 20.8785 26.339 20.8785 26.0349C20.8785 25.2547 21.5133 24.62 22.2935 24.62C22.3531 24.62 22.416 24.6242 22.4807 24.6328C22.6496 24.6551 22.8203 24.6024 22.9476 24.4886C23.0749 24.3749 23.1461 24.2113 23.1429 24.0407C23.1428 24.032 23.1425 24.0235 23.1422 24.0148L23.142 24.0092C23.142 23.229 23.7768 22.5942 24.5571 22.5942C25.3362 22.5942 25.9704 23.2273 25.9721 24.0061L25.9719 24.0098L25.9713 24.0362C25.9685 24.204 26.038 24.3648 26.1619 24.4781C26.2858 24.5913 26.4522 24.6459 26.6192 24.6281C26.6704 24.6226 26.7216 24.6198 26.7712 24.6198C27.5513 24.6198 28.1863 25.2547 28.1863 26.0349C28.1863 26.339 28.091 26.6289 27.911 26.8732C27.8168 27.001 27.7785 27.1615 27.8048 27.3179C27.831 27.4744 27.9197 27.6136 28.0505 27.7036Z" fill="#FFA63E"/>
<path d="M32.9159 21.803L32.5974 21.0295L32.6877 21.4918C32.7418 21.6082 32.8188 21.7143 32.9159 21.803Z" fill="#FFA63E"/>
<path d="M32.5959 21.052L32.5957 21.0584C32.5931 21.2095 32.6252 21.3575 32.6877 21.4918L32.5974 21.0295L32.5959 21.052Z" fill="#FFA63E"/>
<path d="M32.9159 21.803C33.1243 21.9939 33.405 22.0863 33.6861 22.0563L32.9159 21.803Z" fill="#FFA63E"/>
<path fill-rule="evenodd" clip-rule="evenodd" d="M29.136 27.0858C29.2823 26.7577 29.3581 26.402 29.3581 26.0349C29.3581 24.7153 28.3649 23.6234 27.0869 23.4672C27.0212 23.1609 26.9009 22.8748 26.7371 22.6191C27.0588 22.0281 27.6833 21.6477 28.3709 21.6477C28.4495 21.6477 28.5322 21.6534 28.6167 21.6645C28.7861 21.6868 28.957 21.634 29.0842 21.5197C29.2116 21.4056 29.2828 21.2415 29.2789 21.0706L29.2777 21.0316C29.2777 20.0062 30.1119 19.172 31.1373 19.172C32.1627 19.172 32.9967 20.0062 32.9967 21.0293L32.9966 21.038L32.9957 21.0653C32.9928 21.2333 33.0619 21.3946 33.1859 21.5079C33.3099 21.6215 33.4768 21.6764 33.6437 21.6585C33.711 21.6514 33.7781 21.6477 33.8431 21.6477C34.8685 21.6477 35.7027 22.4819 35.7027 23.5073C35.7027 23.9069 35.5776 24.2879 35.3409 24.609L35.019 24.3716C35.2048 24.1195 35.3027 23.8217 35.3027 23.5073C35.3027 22.7028 34.6476 22.0477 33.8431 22.0477L33.6861 22.0563L32.9159 21.803L32.5974 21.0295L32.5967 21.0259C32.5949 20.2256 31.9409 19.572 31.1373 19.572C30.3348 19.572 29.6809 20.2239 29.6777 21.0257L29.6789 21.0617C29.6853 21.3495 29.5655 21.6256 29.3511 21.8176C29.1369 22.0099 28.8494 22.0985 28.5645 22.0611C28.4959 22.052 28.4306 22.0477 28.3709 22.0477C27.9056 22.0477 27.4764 22.2701 27.2052 22.6293C27.2862 22.784 27.3542 22.9468 27.4075 23.1163C28.75 23.4088 29.7581 24.6056 29.7581 26.0349C29.7581 26.3655 29.7047 26.6891 29.6003 26.9961C29.7893 27.213 29.9504 27.4517 30.0804 27.7062L29.7143 27.8689C29.5646 27.5809 29.37 27.3163 29.136 27.0858Z" fill="#FFA63E"/>
<path d="M35.3409 24.609L35.019 24.3716C34.8605 24.5866 34.7961 24.8566 34.8403 25.1198L35.2347 25.0536C35.2085 24.8972 35.2468 24.7367 35.3409 24.609Z" fill="#FFA63E"/>
<path d="M35.2347 25.0536L34.8403 25.1198C34.8646 25.2649 34.9209 25.4012 35.0033 25.5196L35.3803 25.3521C35.3047 25.2694 35.2536 25.166 35.2347 25.0536Z" fill="#FFA63E"/>
<path d="M22.0848 32.2487C22.0698 32.1597 22.0651 32.08 22.0655 32.0175C22.0657 31.9864 22.0671 31.9607 22.0688 31.9413L22.0702 31.928C22.1375 31.715 22.1307 31.4842 22.0489 31.2739L21.6826 31.4364C21.7278 31.5647 21.7269 31.7045 21.6805 31.8317C21.6664 31.9007 21.6533 32.0715 21.6855 32.2848L22.0921 32.2885C22.0894 32.2751 22.087 32.2618 22.0848 32.2487Z" fill="#FFA63E"/>
</svg>
