<svg width="56" height="56" viewBox="0 0 56 56" fill="none" xmlns="http://www.w3.org/2000/svg">
<circle cx="28" cy="28" r="28" fill="#FFF4E8"/>
<path fill-rule="evenodd" clip-rule="evenodd" d="M30 33.6624C29.3675 33.8869 28.6993 34 28 34C27.3007 34 26.6325 33.8869 26 33.6624V34C26 35.1046 26.8954 36 28 36C29.1046 36 30 35.1046 30 34V33.6624ZM25.9612 31.4423C26.5844 31.8163 27.258 32 28 32C28.7439 32 29.4192 31.8153 30.0437 31.4393C30.0947 31.1627 30.1895 30.8913 30.3238 30.6191C30.4817 30.2991 30.6824 29.9943 30.9772 29.6022C31.0407 29.5177 31.547 28.8635 31.6944 28.663C32.583 27.4548 33 26.4279 33 25C33 22.2386 30.7614 20 28 20C25.2386 20 23 22.2386 23 25C23 26.3785 23.4067 27.3566 24.3037 28.5682C24.4327 28.7425 24.877 29.3197 24.9135 29.3679C25.1647 29.7003 25.3425 29.9566 25.4957 30.2196C25.7342 30.6291 25.8926 31.0283 25.9612 31.4423ZM32 31.915V34C32 36.2091 30.2091 38 28 38C25.7909 38 24 36.2091 24 34V31.915C24 31.7197 23.9308 31.5067 23.7675 31.2262C23.6625 31.046 23.5252 30.848 23.318 30.5739C23.2917 30.5392 22.8387 29.9506 22.6963 29.7583C21.5664 28.2322 21 26.8699 21 25C21 21.134 24.134 18 28 18C31.866 18 35 21.134 35 25C35 26.9108 34.4258 28.3248 33.3056 29.848C33.1404 30.0726 32.6252 30.7382 32.5759 30.8039C32.3495 31.105 32.2089 31.3185 32.1175 31.5039C32.0347 31.6717 32 31.8013 32 31.915Z" fill="#FFA63E"/>
</svg>
