<svg width="140" height="125" viewBox="0 0 140 125" fill="none" xmlns="http://www.w3.org/2000/svg">
<path d="M62.4184 43.2273L60.9032 77.148C60.9032 77.148 64.8427 109.251 63.9335 110.16C63.0244 111.069 60.6002 112.886 62.4184 115.006C64.2366 117.126 70.9034 118.64 71.2064 117.429C71.5094 116.217 72.1155 81.6909 72.1155 81.6909L74.2367 40.8044L62.4184 43.2273Z" fill="#2F2E41"/>
<path d="M62.4184 43.2273L60.9032 77.148C60.9032 77.148 64.8427 109.251 63.9335 110.16C63.0244 111.069 60.6002 112.886 62.4184 115.006C64.2366 117.126 70.9034 118.64 71.2064 117.429C71.5094 116.217 72.1155 81.6909 72.1155 81.6909L74.2367 40.8044L62.4184 43.2273Z" fill="#38495B"/>
<path d="M63.9394 114.4C63.9394 114.4 56.3635 120.154 55.4544 120.154C54.5453 120.154 46.3633 122.88 52.121 124.091C57.8787 125.303 71.8183 124.697 72.1213 122.88C72.4243 121.063 71.2122 115.548 71.2122 115.548L63.9394 114.4Z" fill="#2F2E41"/>
<path opacity="0.2" d="M63.9394 114.4C63.9394 114.4 56.3635 120.154 55.4544 120.154C54.5453 120.154 46.3633 122.88 52.121 124.091C57.8787 125.303 71.8183 124.697 72.1213 122.88C72.4243 121.063 71.2122 115.548 71.2122 115.548L63.9394 114.4Z" fill="#25323F"/>
<path d="M45.1505 17.787C45.1505 17.787 41.8171 18.9984 41.8171 19.907C41.8171 20.8156 38.7868 32.3244 38.1807 32.9301C37.5747 33.5359 37.2716 36.2616 37.2716 36.2616C37.2716 36.2616 34.2413 43.2275 34.8474 43.2275C35.4534 43.2275 40.605 42.016 40.9081 43.2275C41.2111 44.4389 43.6354 35.6559 43.6354 35.6559L48.7869 25.3586L45.1505 17.787Z" fill="#0E8AFD"/>
<path d="M34.8531 44.4389C34.8531 44.4389 35.7623 51.1018 38.1865 51.7076C40.6108 52.3133 38.1865 43.2274 38.1865 43.2274L34.8531 44.4389Z" fill="#FBBEBE"/>
<path d="M42.7264 14.1525C42.7264 14.1525 44.5446 18.0897 45.4537 20.2098C46.3628 22.3298 54.8478 14.7583 54.8478 14.7583C54.8478 14.7583 50.3023 11.4268 50.3023 9.91244C50.3023 8.39813 42.7264 14.1525 42.7264 14.1525Z" fill="#FBBEBE"/>
<path d="M27.5762 125C22.1221 125 16.7906 123.384 12.2557 120.355C7.7208 117.327 4.1863 113.022 2.09912 107.986C0.0119444 102.95 -0.534151 97.4088 0.529882 92.0626C1.59392 86.7164 4.22029 81.8056 8.07689 77.9512C11.9335 74.0968 16.8471 71.4719 22.1963 70.4084C27.5456 69.345 33.0903 69.8908 38.1291 71.9768C43.168 74.0628 47.4748 77.5953 50.505 82.1276C53.5351 86.6599 55.1524 91.9884 55.1524 97.4394C55.1441 104.746 52.2361 111.752 47.0664 116.919C41.8966 122.085 34.8873 124.992 27.5762 125ZM27.5762 70.4846C22.242 70.4846 17.0276 72.0655 12.5924 75.0273C8.15719 77.9891 4.70037 82.1989 2.65906 87.1243C0.617758 92.0496 0.0836615 97.4693 1.12431 102.698C2.16496 107.927 4.7336 112.73 8.50544 116.499C12.2773 120.269 17.0829 122.836 22.3146 123.876C27.5463 124.916 32.9691 124.383 37.8972 122.342C42.8254 120.302 47.0375 116.847 50.001 112.415C52.9645 107.982 54.5463 102.771 54.5463 97.4394C54.5382 90.293 51.6942 83.4416 46.638 78.3884C41.5819 73.3351 34.7266 70.4926 27.5762 70.4846Z" fill="#25323F"/>
<path d="M112.423 125C106.969 125 101.638 123.384 97.1029 120.355C92.568 117.327 89.0335 113.022 86.9463 107.986C84.8591 102.95 84.313 97.4089 85.377 92.0627C86.4411 86.7165 89.0675 81.8056 92.9241 77.9512C96.7807 74.0968 101.694 71.4719 107.044 70.4085C112.393 69.3451 117.937 69.8909 122.976 71.9769C128.015 74.0628 132.322 77.5953 135.352 82.1276C138.382 86.66 140 91.9885 140 97.4395C139.991 104.746 137.083 111.752 131.914 116.919C126.744 122.085 119.734 124.992 112.423 125ZM112.423 70.4846C107.089 70.4846 101.875 72.0655 97.4396 75.0273C93.0044 77.9892 89.5475 82.199 87.5062 87.1243C85.4649 92.0497 84.9308 97.4694 85.9715 102.698C87.0121 107.927 89.5808 112.73 93.3526 116.499C97.1244 120.269 101.93 122.836 107.162 123.876C112.393 124.916 117.816 124.383 122.744 122.342C127.673 120.302 131.885 116.847 134.848 112.415C137.812 107.982 139.393 102.771 139.393 97.4395C139.385 90.2931 136.541 83.4417 131.485 78.3884C126.429 73.3351 119.574 70.4927 112.423 70.4846Z" fill="#25323F"/>
<path d="M27.5743 99.2561C28.5779 99.2561 29.3915 98.4427 29.3915 97.4393C29.3915 96.436 28.5779 95.6226 27.5743 95.6226C26.5706 95.6226 25.757 96.436 25.757 97.4393C25.757 98.4427 26.5706 99.2561 27.5743 99.2561Z" fill="#25323F"/>
<path d="M113.027 99.2561C114.031 99.2561 114.844 98.4427 114.844 97.4393C114.844 96.436 114.031 95.6226 113.027 95.6226C112.023 95.6226 111.21 96.436 111.21 97.4393C111.21 98.4427 112.023 99.2561 113.027 99.2561Z" fill="#25323F"/>
<path d="M30.2805 94.8331L29.7229 94.5954L45.561 57.458L90.4738 58.3739L90.5608 58.5102L112.682 93.0366L112.172 93.3634L90.1375 58.9732L45.958 58.0719L30.2805 94.8331Z" fill="#25323F"/>
<path d="M77.4623 101.736L89.1028 60.7111L89.6859 60.8761L78.2957 101.019L108.75 97.1394L108.827 97.7406L77.4623 101.736Z" fill="#25323F"/>
<path d="M44.4563 66.6384L44.0236 67.0626L75.2362 98.8632L75.6688 98.439L44.4563 66.6384Z" fill="#25323F"/>
<path d="M92.1328 51.0225L90.3174 57.6864L90.9023 57.8456L92.7177 51.1817L92.1328 51.0225Z" fill="#25323F"/>
<path d="M46.6608 55.7122L46.0692 55.5781L47.5005 49.2852H42.4255V45.3479H43.0316V48.6794H48.2599L46.6608 55.7122Z" fill="#25323F"/>
<path d="M81.2173 45.0444C81.2173 45.0444 81.2173 43.2273 85.1567 44.1359C89.0962 45.0445 101.218 47.4673 102.127 47.1645C103.036 46.8616 102.733 48.9817 98.7933 49.8903C94.8539 50.7988 90.3083 48.6788 89.3992 48.0731C88.4901 47.4673 81.2173 45.0444 81.2173 45.0444Z" fill="#25323F"/>
<path d="M70.3021 99.2575H62.4232V102.286H70.3021V99.2575Z" fill="#0E8AFD"/>
<path d="M77.8809 107.435C76.6822 107.435 75.5104 107.079 74.5137 106.414C73.5171 105.748 72.7402 104.802 72.2815 103.695C71.8228 102.588 71.7028 101.371 71.9367 100.196C72.1705 99.0206 72.7477 97.9413 73.5953 97.0941C74.4429 96.247 75.5228 95.6701 76.6985 95.4364C77.8742 95.2027 79.0928 95.3226 80.2002 95.7811C81.3077 96.2395 82.2542 97.0159 82.9202 98.012C83.5861 99.0081 83.9416 100.179 83.9416 101.377C83.9398 102.983 83.3007 104.523 82.1645 105.658C81.0283 106.794 79.4877 107.433 77.8809 107.435ZM77.8809 95.9257C76.8021 95.9257 75.7475 96.2455 74.8505 96.8445C73.9534 97.4435 73.2543 98.2949 72.8415 99.291C72.4286 100.287 72.3206 101.383 72.5311 102.441C72.7415 103.498 73.261 104.47 74.0239 105.232C74.7867 105.994 75.7587 106.514 76.8167 106.724C77.8748 106.934 78.9716 106.826 79.9683 106.414C80.965 106.001 81.8169 105.302 82.4162 104.406C83.0156 103.509 83.3355 102.455 83.3355 101.377C83.3338 99.9319 82.7586 98.5463 81.736 97.5243C80.7135 96.5023 79.327 95.9274 77.8809 95.9257Z" fill="#25323F"/>
<path d="M45.4511 17.1807C49.4678 17.1807 52.724 13.9264 52.724 9.91202C52.724 5.89762 49.4678 2.6433 45.4511 2.6433C41.4344 2.6433 38.1783 5.89762 38.1783 9.91202C38.1783 13.9264 41.4344 17.1807 45.4511 17.1807Z" fill="#FBBEBE"/>
<path d="M68.4858 43.8333C68.4858 43.8333 47.5764 55.9478 47.8795 59.885C48.1825 63.8222 63.9403 85.3255 63.9403 85.3255C63.9403 85.3255 65.1525 91.6856 66.3646 91.6856C67.5767 91.6856 75.1526 94.4114 75.4556 92.5942C75.7587 90.7771 73.0314 88.657 73.3344 87.4456C73.6374 86.2341 60.0009 64.1251 60.0009 64.1251C60.0009 64.1251 89.1853 53.222 83.0781 43.8333C76.9708 34.4445 68.4858 43.8333 68.4858 43.8333Z" fill="#465C72"/>
<path d="M69.0884 90.4738C69.0884 90.4738 65.452 91.3823 64.8459 92.5938C64.2399 93.8053 53.6337 97.7425 56.664 98.6511C59.6944 99.5597 77.2704 99.8625 77.8764 99.2568C78.4825 98.6511 77.8764 91.6208 75.4522 91.653C73.0279 91.6852 70.3006 92.5938 69.0884 90.4738Z" fill="#25323F"/>
<path d="M45.4537 21.1189L52.272 12.7901C52.272 12.7901 59.9994 10.5187 63.3328 15.0616C66.6661 19.6046 75.7572 30.8105 78.7875 33.2334C81.8179 35.6563 86.0604 45.0451 84.5452 45.3479C83.03 45.6508 74.545 42.0164 71.2117 44.4394C67.8783 46.8623 61.5145 47.1651 61.2115 45.9537C60.9085 44.7422 42.7264 24.4504 42.7264 21.7246C42.7264 18.9988 44.6639 18.414 44.6639 18.414L45.4537 21.1189Z" fill="#0E8AFD"/>
<path d="M49.1196 45.1978L39.977 41.9673C39.5037 41.8001 38.9843 42.048 38.8169 42.5211C38.6495 42.9942 38.8976 43.5133 39.371 43.6806L48.5135 46.911C48.9869 47.0783 49.5063 46.8304 49.6737 46.3573C49.841 45.8842 49.593 45.365 49.1196 45.1978Z" fill="#25323F"/>
<path d="M28.4918 41.41C28.4918 41.41 17.8856 44.4386 18.7947 47.7701C19.7038 51.1016 29.4009 43.8329 29.4009 43.8329L28.4918 41.41Z" fill="#FBBEBE"/>
<path d="M56.0608 15.0607C56.0608 15.0607 51.8183 18.6951 50.9092 22.9352C50.0001 27.1752 45.4545 34.7468 45.4545 34.7468L26.9694 40.8041C26.9694 40.8041 25.7573 46.5585 27.5755 46.5585C29.3937 46.5585 49.697 42.3184 50.3031 41.4098C50.9092 40.5012 63.9397 23.238 63.9397 23.238C63.9397 23.238 65.1518 13.8493 56.0608 15.0607Z" fill="#0E8AFD"/>
<path d="M40.9329 1.49941C40.7537 1.6537 40.5391 1.76131 40.3083 1.81267C40.1924 1.83332 40.073 1.80731 39.9762 1.74032C39.8795 1.67332 39.8131 1.57078 39.7918 1.45508C39.6582 1.82554 39.4099 2.14379 39.083 2.36356C38.736 2.54432 38.1994 2.39275 38.1494 2.00487C38.0988 2.29938 37.9684 2.57441 37.7724 2.80014C37.6703 2.90812 37.5297 2.97147 37.3811 2.97643C37.2325 2.98139 37.0879 2.92758 36.9788 2.82665C37.1307 3.65666 37.0369 4.51023 37.0846 5.35267C37.1324 6.19511 37.3571 7.08822 37.994 7.64218C38.9227 8.45007 40.3194 8.25068 41.5411 8.09762C41.7258 8.05887 41.9175 8.06935 42.0969 8.12801C42.5544 8.32279 42.5336 8.95922 42.5398 9.45613C42.5771 10.328 42.9224 11.1585 43.5143 11.8C44.1062 12.4416 44.9064 12.8527 45.7729 12.9605C46.2579 13.0353 46.7526 12.9146 47.1486 12.6249C47.4954 12.3311 47.6726 11.8521 48.0701 11.6314C48.7166 11.2723 49.5008 11.796 49.9735 12.3646C50.4462 12.9331 50.9121 13.6326 51.6444 13.7366C52.6129 13.8743 53.3506 12.8878 53.7125 11.9795C54.2118 10.7064 54.451 9.34627 54.416 7.97931C54.381 6.61235 54.0726 5.26622 53.5088 4.0203C51.4865 -0.385439 44.5784 -1.08229 40.9329 1.49941Z" fill="#2F2E41"/>
</svg>
