<svg width="140" height="125" viewBox="0 0 140 125" fill="none" xmlns="http://www.w3.org/2000/svg">
<path d="M62.4243 43.2276L60.9091 77.1481C60.9091 77.1481 64.8485 109.252 63.9394 110.16C63.0303 111.069 60.6061 112.886 62.4243 115.006C64.2425 117.126 70.9091 118.64 71.2122 117.429C71.5152 116.217 72.1212 81.6911 72.1212 81.6911L74.2425 40.8047L62.4243 43.2276Z" fill="#2F2E41"/>
<path d="M62.4243 43.2276L60.9091 77.1481C60.9091 77.1481 64.8485 109.252 63.9394 110.16C63.0303 111.069 60.6061 112.886 62.4243 115.006C64.2425 117.126 70.9091 118.64 71.2122 117.429C71.5152 116.217 72.1212 81.6911 72.1212 81.6911L74.2425 40.8047L62.4243 43.2276Z" fill="#38495B"/>
<path d="M63.9393 114.4C63.9393 114.4 56.3635 120.155 55.4544 120.155C54.5453 120.155 46.3635 122.881 52.1211 124.092C57.8787 125.303 71.8181 124.698 72.1211 122.881C72.4241 121.063 71.212 115.549 71.212 115.549L63.9393 114.4Z" fill="#2F2E41"/>
<path opacity="0.2" d="M63.9393 114.4C63.9393 114.4 56.3635 120.155 55.4544 120.155C54.5453 120.155 46.3635 122.881 52.1211 124.092C57.8787 125.303 71.8181 124.698 72.1211 122.881C72.4241 121.063 71.212 115.549 71.212 115.549L63.9393 114.4Z" fill="#25323F"/>
<path d="M45.1515 17.7871C45.1515 17.7871 41.8181 18.9986 41.8181 19.9071C41.8181 20.8157 38.7878 32.3245 38.1818 32.9302C37.5757 33.5359 37.2727 36.2617 37.2727 36.2617C37.2727 36.2617 34.2424 43.2275 34.8485 43.2275C35.4545 43.2275 40.606 42.0161 40.9091 43.2275C41.2121 44.439 43.6363 35.656 43.6363 35.656L48.7878 25.3587L45.1515 17.7871Z" fill="#0E8AFD"/>
<path d="M34.8484 44.44C34.8484 44.44 35.7575 51.1029 38.1817 51.7086C40.606 52.3144 38.1817 43.2285 38.1817 43.2285L34.8484 44.44Z" fill="#FBBEBE"/>
<path d="M42.7273 14.1522C42.7273 14.1522 44.5455 18.0894 45.4546 20.2094C46.3637 22.3294 54.8485 14.7579 54.8485 14.7579C54.8485 14.7579 50.3031 11.4264 50.3031 9.91209C50.3031 8.39778 42.7273 14.1522 42.7273 14.1522Z" fill="#FBBEBE"/>
<path d="M27.5758 125C22.1218 125 16.7903 123.383 12.2555 120.355C7.72069 117.327 4.18623 113.022 2.09909 107.986C0.0119442 102.95 -0.534142 97.4088 0.529874 92.0626C1.59389 86.7164 4.22022 81.8056 8.07676 77.9512C11.9333 74.0968 16.8468 71.4719 22.196 70.4085C27.5452 69.3451 33.0897 69.8909 38.1286 71.9768C43.1674 74.0628 47.4741 77.5953 50.5042 82.1276C53.5342 86.6599 55.1515 91.9884 55.1515 97.4394C55.1433 104.746 52.2353 111.752 47.0657 116.918C41.896 122.085 34.8868 124.992 27.5758 125ZM27.5758 70.4846C22.2417 70.4846 17.0273 72.0655 12.5922 75.0273C8.15706 77.9892 4.70029 82.1989 2.65902 87.1243C0.617748 92.0496 0.0836602 97.4693 1.12429 102.698C2.16492 107.927 4.73353 112.73 8.50531 116.499C12.2771 120.269 17.0826 122.836 22.3142 123.876C27.5459 124.916 32.9686 124.382 37.8966 122.342C42.8247 120.302 47.0368 116.847 50.0002 112.415C52.9637 107.982 54.5455 102.771 54.5455 97.4394C54.5374 90.293 51.6934 83.4417 46.6373 78.3884C41.5813 73.3352 34.7261 70.4927 27.5758 70.4846Z" fill="#8597A8"/>
<path d="M112.424 125C106.97 125 101.639 123.383 97.104 120.355C92.5692 117.327 89.0348 113.022 86.9476 107.986C84.8605 102.95 84.3144 97.4088 85.3784 92.0626C86.4424 86.7164 89.0687 81.8056 92.9253 77.9512C96.7818 74.0968 101.695 71.4719 107.045 70.4085C112.394 69.3451 117.938 69.8909 122.977 71.9768C128.016 74.0628 132.323 77.5953 135.353 82.1276C138.383 86.6599 140 91.9884 140 97.4394C139.992 104.746 137.084 111.752 131.914 116.918C126.744 122.085 119.735 124.992 112.424 125ZM112.424 70.4846C107.09 70.4846 101.876 72.0655 97.4407 75.0273C93.0056 77.9892 89.5488 82.1989 87.5075 87.1243C85.4663 92.0496 84.9322 97.4693 85.9728 102.698C87.0134 107.927 89.582 112.73 93.3538 116.499C97.1256 120.269 101.931 122.836 107.163 123.876C112.394 124.916 117.817 124.382 122.745 122.342C127.673 120.302 131.885 116.847 134.849 112.415C137.812 107.982 139.394 102.771 139.394 97.4394C139.386 90.293 136.542 83.4416 131.486 78.3884C126.43 73.3351 119.575 70.4927 112.424 70.4846Z" fill="#8597A8"/>
<path d="M27.5757 99.2574C28.5798 99.2574 29.3939 98.4438 29.3939 97.4402C29.3939 96.4366 28.5798 95.623 27.5757 95.623C26.5715 95.623 25.7575 96.4366 25.7575 97.4402C25.7575 98.4438 26.5715 99.2574 27.5757 99.2574Z" fill="#8597A8"/>
<path d="M113.03 99.2574C114.034 99.2574 114.848 98.4438 114.848 97.4402C114.848 96.4366 114.034 95.623 113.03 95.623C112.026 95.623 111.212 96.4366 111.212 97.4402C111.212 98.4438 112.026 99.2574 113.03 99.2574Z" fill="#8597A8"/>
<path d="M30.2787 94.832L29.7211 94.5943L45.559 57.457L90.4711 58.3729L90.5581 58.5092L112.679 93.0355L112.169 93.3623L90.1348 58.9722L45.956 58.0709L30.2787 94.832Z" fill="#8597A8"/>
<path d="M77.462 101.735L89.1023 60.7109L89.6854 60.876L78.2954 101.019L108.75 97.1392L108.826 97.7404L77.462 101.735Z" fill="#8597A8"/>
<path d="M44.4587 66.6384L44.0261 67.0625L75.2382 98.863L75.6708 98.4389L44.4587 66.6384Z" fill="#8597A8"/>
<path d="M92.1304 51.0238L90.3151 57.6875L90.8998 57.8466L92.7151 51.1829L92.1304 51.0238Z" fill="#8597A8"/>
<path d="M46.6594 55.7119L46.0679 55.5777L47.4991 49.2849H42.4243V45.3477H43.0303V48.6791H48.2585L46.6594 55.7119Z" fill="#8597A8"/>
<path d="M81.212 45.0458C81.212 45.0458 81.212 43.2286 85.1514 44.1372C89.0908 45.0458 101.212 47.4687 102.121 47.1658C103.03 46.863 102.727 48.983 98.7878 49.8916C94.8484 50.8002 90.3029 48.6801 89.3938 48.0744C88.4847 47.4687 81.212 45.0458 81.212 45.0458Z" fill="#8597A8"/>
<path d="M70.303 99.2559H62.4242V102.284H70.303V99.2559Z" fill="#0E8AFD"/>
<path d="M77.8788 107.435C76.6802 107.435 75.5084 107.08 74.5117 106.414C73.5151 105.748 72.7383 104.802 72.2796 103.696C71.8209 102.589 71.7008 101.371 71.9347 100.196C72.1685 99.0208 72.7458 97.9416 73.5934 97.0944C74.4409 96.2473 75.5208 95.6704 76.6965 95.4367C77.8721 95.203 79.0907 95.3229 80.1981 95.7814C81.3056 96.2398 82.2521 97.0162 82.918 98.0123C83.584 99.0084 83.9394 100.18 83.9394 101.378C83.9376 102.983 83.2985 104.523 82.1624 105.659C81.0262 106.794 79.4857 107.433 77.8788 107.435ZM77.8788 95.926C76.8 95.926 75.7455 96.2458 74.8485 96.8448C73.9515 97.4438 73.2523 98.2952 72.8395 99.2913C72.4267 100.287 72.3186 101.384 72.5291 102.441C72.7396 103.499 73.2591 104.47 74.0219 105.232C74.7847 105.995 75.7566 106.514 76.8147 106.724C77.8728 106.935 78.9695 106.827 79.9662 106.414C80.9629 106.001 81.8148 105.303 82.4141 104.406C83.0135 103.51 83.3334 102.456 83.3334 101.378C83.3317 99.9322 82.7565 98.5466 81.7339 97.5246C80.7114 96.5026 79.325 95.9277 77.8788 95.926Z" fill="#8597A8"/>
<path d="M45.4545 17.18C49.4712 17.18 52.7273 13.9257 52.7273 9.91128C52.7273 5.89689 49.4712 2.64258 45.4545 2.64258C41.4379 2.64258 38.1818 5.89689 38.1818 9.91128C38.1818 13.9257 41.4379 17.18 45.4545 17.18Z" fill="#FBBEBE"/>
<path d="M68.4849 43.8329C68.4849 43.8329 47.5758 55.9474 47.8788 59.8846C48.1818 63.8218 63.9394 85.325 63.9394 85.325C63.9394 85.325 65.1515 91.6851 66.3636 91.6851C67.5758 91.6851 75.1515 94.4109 75.4546 92.5937C75.7576 90.7765 73.0303 88.6565 73.3333 87.445C73.6364 86.2336 60 64.1247 60 64.1247C60 64.1247 89.184 53.2216 83.0768 43.8329C76.9697 34.4442 68.4849 43.8329 68.4849 43.8329Z" fill="#465C72"/>
<path d="M69.091 90.4727C69.091 90.4727 65.4546 91.3812 64.8486 92.5927C64.2425 93.8041 53.6364 97.7414 56.6667 98.6499C59.697 99.5585 77.2728 99.8614 77.8789 99.2557C78.4849 98.6499 77.8789 91.6197 75.4546 91.6519C73.0304 91.6841 70.3031 92.5927 69.091 90.4727Z" fill="#25323F"/>
<path d="M45.4546 21.1192L52.2727 12.7905C52.2727 12.7905 60 10.5191 63.3333 15.062C66.6667 19.6049 75.7576 30.8108 78.7879 33.2337C81.8182 35.6566 86.0606 45.0453 84.5455 45.3482C83.0303 45.6511 74.5455 42.0167 71.2121 44.4396C67.8788 46.8625 61.5152 47.1654 61.2121 45.9539C60.9091 44.7425 42.7273 24.4507 42.7273 21.725C42.7273 18.9992 44.6648 18.4143 44.6648 18.4143L45.4546 21.1192Z" fill="#0E8AFD"/>
<path d="M49.1167 45.1974L39.9743 41.9669C39.5009 41.7997 38.9815 42.0476 38.8142 42.5207C38.6468 42.9938 38.8949 43.5129 39.3682 43.6802L48.5107 46.9106C48.984 47.0779 49.5034 46.8299 49.6708 46.3568C49.8381 45.8837 49.5901 45.3646 49.1167 45.1974Z" fill="#8597A8"/>
<path d="M28.4848 41.4102C28.4848 41.4102 17.8788 44.4388 18.7879 47.7703C19.697 51.1017 29.3939 43.8331 29.3939 43.8331L28.4848 41.4102Z" fill="#FBBEBE"/>
<path d="M56.0605 15.061C56.0605 15.061 51.8181 18.6954 50.909 22.9354C49.9999 27.1755 45.4545 34.7471 45.4545 34.7471L26.9696 40.8043C26.9696 40.8043 25.7575 46.5587 27.5757 46.5587C29.3939 46.5587 49.6969 42.3186 50.303 41.41C50.909 40.5014 63.9393 23.2383 63.9393 23.2383C63.9393 23.2383 65.1514 13.8496 56.0605 15.061Z" fill="#0E8AFD"/>
<path d="M40.9374 1.49942C40.7582 1.65371 40.5437 1.76132 40.3128 1.81268C40.1969 1.83333 40.0776 1.80732 39.9808 1.74033C39.884 1.67333 39.8177 1.57079 39.7963 1.45509C39.6628 1.82555 39.4145 2.1438 39.0876 2.36357C38.7406 2.54432 38.204 2.39276 38.154 2.00488C38.1033 2.29939 37.9729 2.57441 37.777 2.80014C37.6749 2.90812 37.5342 2.97147 37.3856 2.97643C37.237 2.9814 37.0925 2.92758 36.9833 2.82666C37.1353 3.65666 37.0415 4.51023 37.0892 5.35267C37.1369 6.1951 37.3617 7.08821 37.9985 7.64217C38.9273 8.45005 40.3239 8.25066 41.5456 8.09761C41.7303 8.05886 41.922 8.06934 42.1014 8.12799C42.5589 8.32277 42.5381 8.9592 42.5443 9.45611C42.5816 10.328 42.9268 11.1584 43.5188 11.8C44.1107 12.4415 44.9109 12.8527 45.7774 12.9604C46.2623 13.0352 46.7571 12.9145 47.153 12.6249C47.4998 12.331 47.677 11.8521 48.0745 11.6314C48.721 11.2723 49.5052 11.796 49.9779 12.3645C50.4506 12.9331 50.9165 13.6325 51.6488 13.7366C52.6172 13.8743 53.3549 12.8878 53.7168 11.9795C54.2161 10.7064 54.4553 9.34626 54.4203 7.9793C54.3854 6.61234 54.0769 5.26622 53.5131 4.02031C51.4909 -0.385422 44.5829 -1.08227 40.9374 1.49942Z" fill="#2F2E41"/>
</svg>
