<svg width="1377" height="470" viewBox="0 0 1377 470" fill="none" xmlns="http://www.w3.org/2000/svg">
<path d="M554.391 232.798H551.702V238.174H554.391V232.798Z" fill="white"/>
<path fill-rule="evenodd" clip-rule="evenodd" d="M552.09 233.185H554.003V237.787H552.09V233.185ZM554.391 232.798V238.174H551.702V232.798H554.391Z" fill="white"/>
<path d="M554.391 256.994H551.702V262.37H554.391V256.994Z" fill="white"/>
<path fill-rule="evenodd" clip-rule="evenodd" d="M552.09 257.381H554.003V261.983H552.09V257.381ZM554.391 256.994V262.37H551.702V256.994H554.391Z" fill="white"/>
<path d="M632.196 267.038H629.508V272.415H632.196V267.038Z" fill="white"/>
<path fill-rule="evenodd" clip-rule="evenodd" d="M629.895 267.426H631.809V272.028H629.895V267.426ZM632.196 267.038V272.415H629.508V267.038H632.196Z" fill="white"/>
<path d="M625.938 264.825H623.25V270.202H625.938V264.825Z" fill="white"/>
<path fill-rule="evenodd" clip-rule="evenodd" d="M623.637 265.212H625.551V269.814H623.637V265.212ZM625.938 264.825V270.202H623.25V264.825H625.938Z" fill="white"/>
<path d="M476.63 264.825H473.941V270.202H476.63V264.825Z" fill="white"/>
<path fill-rule="evenodd" clip-rule="evenodd" d="M474.329 265.212H476.242V269.814H474.329V265.212ZM476.63 264.825V270.202H473.941V264.825H476.63Z" fill="white"/>
<path d="M617.311 262.991H614.621V268.368H617.311V262.991Z" fill="white"/>
<path fill-rule="evenodd" clip-rule="evenodd" d="M615.008 263.378H616.923V267.981H615.008V263.378ZM617.311 262.991V268.368H614.621V262.991H617.311Z" fill="white"/>
<path d="M608.677 261.474H605.989V266.85H608.677V261.474Z" fill="white"/>
<path fill-rule="evenodd" clip-rule="evenodd" d="M606.376 261.861H608.29V266.463H606.376V261.861ZM608.677 261.474V266.85H605.989V261.474H608.677Z" fill="white"/>
<path d="M597.771 260.336H595.083V265.713H597.771V260.336Z" fill="white"/>
<path fill-rule="evenodd" clip-rule="evenodd" d="M595.47 260.724H597.384V265.326H595.47V260.724ZM597.771 260.336V265.713H595.083V260.336H597.771Z" fill="white"/>
<path d="M586.865 257.933H584.177V263.309H586.865V257.933Z" fill="white"/>
<path fill-rule="evenodd" clip-rule="evenodd" d="M584.564 258.32H586.478V262.922H584.564V258.32ZM586.865 257.933V263.309H584.177V257.933H586.865Z" fill="white"/>
<path d="M586.865 233.737H584.177V239.113H586.865V233.737Z" fill="white"/>
<path fill-rule="evenodd" clip-rule="evenodd" d="M584.564 234.124H586.478V238.726H584.564V234.124ZM586.865 233.737V239.113H584.177V233.737H586.865Z" fill="white"/>
<path d="M574.915 232.798H572.226V238.174H574.915V232.798Z" fill="white"/>
<path fill-rule="evenodd" clip-rule="evenodd" d="M572.614 233.185H574.527V237.787H572.614V233.185ZM574.915 232.798V238.174H572.226V232.798H574.915Z" fill="white"/>
<path d="M574.915 256.994H572.226V262.37H574.915V256.994Z" fill="white"/>
<path fill-rule="evenodd" clip-rule="evenodd" d="M572.614 257.381H574.527V261.983H572.614V257.381ZM574.915 256.994V262.37H572.226V256.994H574.915Z" fill="white"/>
<path fill-rule="evenodd" clip-rule="evenodd" d="M648.277 273.146V273.059V263.576C649.088 263.162 649.791 262.544 649.791 261.589C649.791 260.621 649.058 260.004 648.277 259.606V254.626C649.052 254.043 649.791 253.202 649.791 252.076C649.791 250.926 649.026 250.085 648.277 249.525V245.718C649.283 244.729 649.791 243.672 649.791 242.561C649.791 241.45 649.289 240.405 648.277 239.415V236.851C649.283 235.633 649.791 234.359 649.791 233.047C649.791 231.735 649.283 230.461 648.277 229.242V226.958C648.507 226.804 648.691 226.637 648.835 226.48C649.835 225.389 649.814 223.862 649.791 223.484C649.78 221.967 649.273 220.49 648.277 219.058V217.087C648.277 214.761 647.676 212.46 646.539 210.433C645.396 208.399 643.739 206.687 641.748 205.483C639.01 203.83 635.638 202.276 631.725 200.864C628.699 199.774 625.336 198.765 621.679 197.849V190.375L602.678 186V194.283C588.372 192.323 571.362 191.332 551.918 191.332C532.772 191.332 515.75 192.344 501.076 194.346V186L482.074 190.375V197.799C468.566 200.979 460.855 204.653 456.718 207.232C455.292 208.12 454.108 209.367 453.294 210.838C452.482 212.306 452.053 213.968 452.053 215.646V219.784C451.353 221.004 451 222.254 451 223.533C451 224.803 451.353 226.055 452.053 227.276V229.857C451.355 230.888 451 231.955 451 233.047C451 234.14 451.353 235.208 452.053 236.239V239.911C451.35 240.753 451 241.634 451 242.561C451 243.488 451.353 244.375 452.053 245.218V249.91C451.48 250.447 451 251.165 451 252.076C451 252.987 451.48 253.704 452.053 254.24V259.875C451.468 260.268 451 260.817 451 261.589C451 262.381 451.478 262.929 452.053 263.311V273.059V273.146V276.642H648.277V273.146ZM458.033 214.219V210.568C456.474 211.777 455.548 213.649 455.548 215.646V215.94C456.287 215.357 457.115 214.783 458.033 214.219ZM497.58 194.848V190.391L485.57 193.157V197.017C489.365 196.208 493.37 195.486 497.58 194.848ZM618.183 193.157L606.173 190.391V194.789C609.127 195.241 611.96 195.737 614.663 196.277C615.862 196.517 617.035 196.765 618.183 197.021V193.157ZM640.512 212.95V208.849C640.327 208.719 640.136 208.594 639.94 208.475C639.487 208.201 638.993 207.919 638.459 207.628V211.942C639.177 212.273 639.86 212.61 640.512 212.95ZM643.202 214.496C643.716 214.825 644.201 215.156 644.655 215.49C644.436 214.118 643.936 212.816 643.202 211.662V214.496ZM643.202 232.148V236.389C643.766 236.624 644.291 236.86 644.783 237.101V229.608C644.317 229.245 643.789 228.885 643.202 228.528V229.46H640.512V227.113C639.871 226.815 639.186 226.52 638.459 226.228V226.677H635.771V225.23C634.579 224.819 633.301 224.416 631.942 224.023H629.512V223.35C624.446 222.013 618.414 220.797 611.564 219.743C594.313 217.091 572.59 215.631 550.396 215.631C524.287 215.631 499.753 217.574 481.316 221.102C475.224 222.267 470.038 223.559 465.819 224.962V226.489H463.131V225.92C462.278 226.247 461.474 226.579 460.722 226.917V229.334H458.033V228.273C457.041 228.843 456.209 229.418 455.548 229.988V237.333C456.285 236.951 457.112 236.577 458.033 236.209V232.021H460.722V235.246C461.483 234.998 462.285 234.753 463.131 234.514V229.177H465.819V233.8C468.245 233.196 470.956 232.619 473.942 232.072V224.498H476.631V231.6C477.992 231.372 479.403 231.149 480.865 230.931C499.447 228.17 524.142 226.651 550.396 226.651C550.831 226.651 551.268 226.651 551.702 226.652V216.666H554.391V226.663C560.451 226.699 566.415 226.815 572.226 227.01V216.666H574.914V227.107C578.052 227.225 581.143 227.368 584.176 227.533V217.605H586.864V227.685C589.658 227.851 592.401 228.036 595.082 228.239V220.008H597.771V228.452C600.584 228.682 603.327 228.934 605.99 229.206V221.147H608.678V229.492C610.71 229.715 612.693 229.95 614.62 230.198V222.664H617.31V230.556C618.194 230.678 619.068 230.804 619.927 230.931C621.065 231.101 622.174 231.274 623.252 231.449V224.498H625.939V231.909C627.175 232.128 628.366 232.353 629.512 232.582V226.711H632.199V233.149C633.454 233.427 634.645 233.71 635.771 234.002V229.367H638.459V234.745C639.177 234.958 639.861 235.173 640.512 235.392V232.148H643.202ZM458.033 249.99C456.965 250.318 456.158 250.621 455.548 250.89V258.638C456.275 258.471 457.104 258.308 458.033 258.147V256.218H460.722V257.73C461.48 257.623 462.284 257.518 463.131 257.415V253.373H465.819V257.109C468.239 256.851 470.95 256.606 473.942 256.372V248.694H476.631V256.171C478.026 256.072 479.475 255.974 480.978 255.88C499.525 254.711 524.178 254.067 550.396 254.067H551.702V243.047C551.485 243.047 551.268 243.047 551.05 243.047C550.832 243.046 550.613 243.046 550.396 243.046C524.927 243.046 500.812 244.076 482.493 245.944C475.921 246.614 470.337 247.367 465.819 248.19V250.686H463.131V248.715C462.553 248.834 461.996 248.958 461.462 249.081C461.207 249.139 460.961 249.199 460.722 249.257V253.53H458.033V249.99ZM595.451 244.204C592.653 244.05 589.788 243.912 586.864 243.789V254.506C589.658 254.577 592.401 254.655 595.082 254.741V244.204H595.451ZM584.176 243.679C581.143 243.562 578.052 243.459 574.914 243.374V254.261C578.053 254.312 581.143 254.372 584.176 254.441V243.679ZM572.226 254.22V243.305C566.411 243.166 560.448 243.082 554.391 243.056V254.072C560.451 254.087 566.416 254.136 572.226 254.22ZM640.512 257.794V256.344H643.202V258.225C643.769 258.327 644.296 258.431 644.783 258.535V250.696C644.343 250.519 643.821 250.329 643.202 250.129V253.657H640.512V249.367C640.14 249.272 639.746 249.178 639.329 249.081C639.045 249.016 638.754 248.949 638.459 248.884V250.874H635.771V248.337C634.65 248.127 633.459 247.918 632.199 247.715V248.22H629.512V247.304C626.178 246.82 622.434 246.365 618.299 245.944C612.07 245.309 605.167 244.77 597.771 244.337V254.832C600.584 254.93 603.327 255.036 605.99 255.153V245.344H608.678V255.275C610.711 255.369 612.693 255.47 614.62 255.575V246.861H617.31V255.727C618.156 255.777 618.99 255.828 619.813 255.88C620.993 255.954 622.139 256.03 623.252 256.107V248.694H625.939V256.302C627.177 256.395 628.367 256.492 629.512 256.59V250.907H632.199V256.832C633.455 256.949 634.647 257.071 635.771 257.196V253.564H638.459V257.514C639.179 257.605 639.863 257.699 640.512 257.794ZM458.033 239.124C457.004 239.577 456.186 240.017 455.548 240.429V247.995C456.704 247.563 458.1 247.141 459.723 246.734C460.766 246.473 461.904 246.217 463.131 245.968V245.307H465.819V245.458C468.242 245.027 470.953 244.614 473.942 244.225V240.629H476.631V243.888C478.009 243.723 479.439 243.562 480.921 243.404C499.486 241.441 524.16 240.359 550.396 240.359C566.189 240.359 581.414 240.751 595.082 241.491V236.14H597.771V241.517H595.553C599.148 241.714 602.632 241.935 605.99 242.18V237.277H608.678V242.383C610.711 242.543 612.693 242.711 614.62 242.886V238.796H617.31V243.143C618.175 243.229 619.029 243.315 619.87 243.404C621.029 243.528 622.156 243.652 623.252 243.781V240.629H625.939V244.107C627.177 244.263 628.366 244.424 629.512 244.589V242.842H632.199V244.993C633.454 245.191 634.647 245.395 635.771 245.603V245.497H638.459V246.134C639.385 246.331 640.255 246.531 641.068 246.734C642.482 247.087 643.722 247.454 644.783 247.828V240.145C644.332 239.88 643.807 239.605 643.202 239.324V245.592H640.512V238.237C640.441 238.211 640.37 238.186 640.297 238.159C639.715 237.955 639.102 237.753 638.459 237.554V242.809H635.771V236.781C634.653 236.481 633.461 236.19 632.199 235.903V240.153H629.512V235.324C628.37 235.091 627.179 234.862 625.939 234.64V237.94H623.252V234.175C622.051 233.975 620.811 233.782 619.531 233.591C618.8 233.482 618.059 233.377 617.31 233.271V236.106H614.62V232.91C612.694 232.659 610.712 232.422 608.678 232.196V234.589H605.99V231.909C603.328 231.634 600.585 231.381 597.771 231.149V233.452H595.082V230.935C592.401 230.73 589.66 230.544 586.864 230.378V231.049H584.176V230.225C581.144 230.059 578.053 229.916 574.914 229.796V230.109H572.226V229.701C566.417 229.505 560.452 229.387 554.391 229.351V230.109H551.702V229.34C551.268 229.339 550.831 229.339 550.396 229.339C524.27 229.339 499.716 230.849 481.26 233.591C479.653 233.83 478.111 234.075 476.631 234.328V237.94H473.942V234.805C470.932 235.366 468.221 235.955 465.819 236.572V242.619H463.131V237.312C462.279 237.564 461.475 237.821 460.722 238.081V245.465H458.033V239.124ZM460.722 215.761V221.268H458.033V217.438C457.123 218.086 456.261 218.802 455.548 219.574V226.643C456.286 226.161 457.116 225.685 458.033 225.219V223.956H460.722V223.988C461.483 223.671 462.285 223.358 463.131 223.05V221.112H465.819V222.135C468.247 221.36 470.959 220.619 473.942 219.917V216.433H476.631V219.311C477.975 219.02 479.368 218.737 480.81 218.461C499.411 214.902 524.124 212.942 550.396 212.942C550.831 212.942 551.268 212.942 551.702 212.944V208.601H554.391V212.958C560.48 213.004 566.443 213.158 572.226 213.408V208.601H574.914V213.532C578.06 213.686 581.152 213.87 584.176 214.081V209.54H586.864V214.278C589.667 214.492 592.409 214.731 595.082 214.992V211.943H597.771V215.264C600.595 215.562 603.338 215.886 605.99 216.234V213.081H608.678V216.6C610.718 216.888 612.7 217.19 614.62 217.507V214.599H617.31V217.968C619.371 218.335 621.353 218.718 623.252 219.119V216.433H625.939V219.711C627.172 219.992 628.362 220.282 629.512 220.578V218.646H632.199V221.308C633.449 221.665 634.642 222.03 635.771 222.404V221.302H638.459V223.356C639.175 223.628 639.86 223.903 640.512 224.184V224.083H643.202V225.454C643.763 225.749 644.291 226.048 644.783 226.351V219.102C644.298 218.631 643.762 218.184 643.202 217.761V221.395H640.512V216.012C640.371 215.931 640.23 215.851 640.091 215.774C639.572 215.487 639.028 215.202 638.459 214.922V218.612H635.771V213.69C634.654 213.216 633.462 212.75 632.199 212.296V215.957H629.512V211.378C628.37 211.009 627.18 210.647 625.939 210.294V213.744H623.252V209.559C622.018 209.235 620.741 208.919 619.422 208.61C618.727 208.447 618.021 208.288 617.31 208.13V211.91H614.62V207.558C612.694 207.164 610.712 206.787 608.678 206.433V210.393H605.99V205.979C603.329 205.546 600.586 205.146 597.771 204.779V209.254H595.082V204.441C592.403 204.118 589.66 203.824 586.864 203.562V206.852H584.176V203.32C581.144 203.059 578.053 202.833 574.914 202.645V205.913H572.226V202.492C566.417 202.184 560.454 201.999 554.391 201.942V205.913H551.702V201.925C551.268 201.924 550.831 201.922 550.396 201.922C524.305 201.922 499.791 204.297 481.369 208.61C479.723 208.996 478.143 209.392 476.631 209.8V213.744H473.942V210.558C470.927 211.444 468.216 212.38 465.819 213.357V218.423H463.131V214.535C462.276 214.937 461.474 215.346 460.722 215.761ZM460.722 212.721C461.483 212.335 462.286 211.955 463.131 211.581V207.738C462.238 208.161 461.437 208.567 460.722 208.952V212.721ZM465.819 210.466C468.249 209.518 470.961 208.616 473.942 207.759V203.619C470.752 204.611 468.066 205.602 465.819 206.542V210.466ZM550.396 199.234C550.831 199.234 551.268 199.235 551.702 199.236V194.827C514.505 194.842 491.052 198.713 476.631 202.819V207.017C477.958 206.668 479.334 206.325 480.757 205.993C499.374 201.634 524.105 199.234 550.396 199.234ZM554.391 199.252C560.45 199.309 566.415 199.494 572.226 199.8V195.224C566.702 194.997 560.767 194.861 554.391 194.832V199.252ZM574.914 199.951C578.052 200.139 581.143 200.363 584.176 200.622V195.897C581.23 195.684 578.145 195.498 574.914 195.344V199.951ZM586.864 200.863C589.658 201.123 592.4 201.414 595.082 201.735V196.876C592.479 196.594 589.741 196.335 586.864 196.103V200.863ZM597.771 202.069C600.584 202.431 603.327 202.827 605.99 203.256V198.298C603.419 197.899 600.682 197.526 597.771 197.181V202.069ZM608.678 203.705C610.71 204.055 612.693 204.425 614.62 204.814V199.833C612.754 199.453 610.774 199.084 608.678 198.731V203.705ZM620.036 205.993C621.137 206.25 622.208 206.513 623.252 206.781V201.87C621.424 201.372 619.447 200.882 617.31 200.406V205.378C618.231 205.578 619.14 205.783 620.036 205.993ZM635.771 206.283C634.704 205.791 633.517 205.285 632.199 204.773V209.446C633.452 209.881 634.644 210.326 635.771 210.781V206.283ZM625.939 207.501C627.175 207.846 628.366 208.198 629.512 208.558V203.789C628.4 203.406 627.21 203.022 625.939 202.64V207.501ZM458.033 273.059V272.349H460.722V273.059H463.131V269.503H465.819V273.059H473.942V272.89H476.631V273.059H551.702V265.059H554.391V273.059H572.226V265.059H574.914V273.059H584.176V265.998H586.864V273.059H595.082V268.401H597.771V273.059H605.99V269.54H608.678V273.059H614.62V271.057H617.31V273.059H623.252V272.89H625.939V273.059H635.771V269.695H638.459V273.059H640.512V272.476H643.202V273.059H644.783V261.293C644.337 261.19 643.814 261.081 643.202 260.965V269.788H640.512V260.516C639.888 260.424 639.203 260.327 638.459 260.231V267.005H635.771V259.905C634.685 259.783 633.497 259.659 632.199 259.534V264.35H629.512V259.289C628.393 259.192 627.202 259.096 625.939 258.999V262.137H623.252V258.803C621.414 258.673 619.437 258.546 617.31 258.419V260.303H614.62V258.267C612.695 258.162 610.712 258.061 608.678 257.966V258.786H605.99V257.846C603.328 257.728 600.585 257.622 597.771 257.524V257.647H595.082V257.433C581.39 256.99 566.129 256.754 550.396 256.754C525.465 256.754 501.716 257.346 483.522 258.417C481.023 258.565 478.732 258.715 476.631 258.867V262.137H473.942V259.069C470.77 259.319 468.088 259.57 465.819 259.818V266.816H463.131V260.129C462.25 260.238 461.45 260.346 460.722 260.451V269.661H458.033V260.883C456.983 261.073 456.174 261.247 455.548 261.404V273.059H458.033Z" fill="white"/>
<path d="M-4 480H1377C1377 480 1197.55 368.927 1045.4 301.75C893.26 234.574 770.764 273.605 610.818 273.606C450.872 273.606 356.464 202.462 194.958 204.025C33.4508 205.589 -4 273.606 -4 273.606V480Z" fill="url(#paint0_linear)"/>
<path d="M703.759 243.622C703.759 254.278 696.605 257.999 687.78 257.999C678.955 257.999 671.801 254.278 671.801 243.622C671.801 232.966 687.78 219.41 687.78 219.41C687.78 219.41 703.759 232.966 703.759 243.622Z" fill="white"/>
<path d="M687.177 254.319L687.341 246.175L694.194 236.101L687.367 244.898L687.441 241.236L692.164 233.948L687.461 240.267L687.594 233.682L690.553 229.411L687.594 233.25L687.698 224.193L687.175 236.557L683.813 232.455L687.136 237.163L686.657 244.518L686.643 244.323L680.715 237.667L686.625 245.012L686.565 245.932L686.554 245.946L686.559 246.022L685.343 278H686.967L687.162 255.043L693.057 247.716L687.177 254.319Z" fill="#FFBE83"/>
<path d="M236 190.85C236 198.852 230.627 201.646 224 201.646C217.373 201.646 212 198.852 212 190.85C212 182.847 224 172.667 224 172.667C224 172.667 236 182.847 236 190.85Z" fill="white"/>
<path d="M223.549 198.882L223.672 192.767L228.818 185.201L223.692 191.807L223.747 189.058L227.294 183.584L223.762 188.33L223.862 183.384L226.084 180.177L223.862 183.06L223.94 176.258L223.548 185.543L221.022 182.463L223.518 185.999L223.158 191.522L223.147 191.375L218.696 186.377L223.134 191.893L223.089 192.584L223.081 192.594L223.085 192.651L222.172 216.667H223.391L223.538 199.426L227.965 193.924L223.549 198.882Z" fill="#FFB672"/>
<path d="M83 189.032C83 201.369 74.7173 205.677 64.5 205.677C54.2827 205.677 46 201.369 46 189.032C46 176.695 64.5 161 64.5 161C64.5 161 83 176.695 83 189.032Z" fill="white"/>
<path d="M63.7976 201.416L63.9882 191.988L71.9218 180.324L64.0181 190.509L64.1039 186.269L69.5717 177.831L64.1265 185.148L64.2806 177.523L67.7059 172.578L64.2806 177.023L64.4012 166.538L63.7959 180.851L59.9031 176.102L63.7503 181.553L63.1955 190.069L63.1791 189.843L56.3164 182.137L63.1583 190.641L63.0889 191.706L63.0765 191.722L63.0822 191.81L61.6749 228.833H63.555L63.7807 202.255L70.6057 193.771L63.7976 201.416Z" fill="#FFB571"/>
<path opacity="0.2" d="M230.938 134.352C268.038 134.352 298.114 104.276 298.114 67.176C298.114 30.0757 268.038 0 230.938 0C193.837 0 163.762 30.0757 163.762 67.176C163.762 104.276 193.837 134.352 230.938 134.352Z" fill="white"/>
<path opacity="0.3" d="M230.935 122.966C261.747 122.966 286.725 97.9881 286.725 67.176C286.725 36.3639 261.747 11.3858 230.935 11.3858C200.123 11.3858 175.145 36.3639 175.145 67.176C175.145 97.9881 200.123 122.966 230.935 122.966Z" fill="white"/>
<path d="M230.936 111.581C255.46 111.581 275.34 91.7 275.34 67.176C275.34 42.6521 255.46 22.7715 230.936 22.7715C206.412 22.7715 186.531 42.6521 186.531 67.176C186.531 91.7 206.412 111.581 230.936 111.581Z" fill="white"/>
<path d="M244.599 118.021C244.599 112.406 243.018 106.903 240.036 102.139C237.054 97.3756 232.791 93.5423 227.731 91.0757C222.672 88.6092 217.019 87.6083 211.418 88.1871C205.816 88.7659 200.489 90.9011 196.045 94.3497C192.262 89.985 187.38 86.7045 181.903 84.8462C176.426 82.9878 170.551 82.6187 164.883 83.7769C159.215 84.9351 153.959 87.5787 149.656 91.4355C145.354 95.2924 142.16 100.223 140.403 105.72C137.465 103.115 133.936 101.261 130.12 100.317C126.303 99.3732 122.314 99.3678 118.496 100.301C114.677 101.235 111.143 103.079 108.197 105.676C105.251 108.272 102.982 111.543 101.585 115.208C100.187 118.872 99.7037 122.821 100.175 126.713C100.647 130.605 102.059 134.325 104.292 137.552C106.524 140.779 109.509 143.418 112.99 145.24C116.471 147.063 120.344 148.015 124.276 148.015C124.653 148.015 125.028 148.005 125.401 147.988C125.786 148.005 126.173 148.015 126.563 148.015H217.685C224.241 148.015 230.563 145.581 235.418 141.187C240.273 136.793 243.314 130.755 243.948 124.248C244.382 122.201 244.6 120.114 244.599 118.021Z" fill="url(#paint1_linear)"/>
<path d="M403.999 74.9461C403.999 71.4979 403.04 68.1191 401.232 65.194C399.424 62.269 396.839 59.9152 393.771 58.4006C390.704 56.8861 387.277 56.2715 383.881 56.6269C380.484 56.9823 377.255 58.2934 374.56 60.411C372.266 57.7309 369.307 55.7165 365.986 54.5754C362.665 53.4343 359.103 53.2077 355.666 53.9189C352.23 54.6301 349.043 56.2533 346.435 58.6216C343.826 60.9898 341.89 64.0174 340.825 67.3925C339.043 65.7932 336.903 64.6547 334.59 64.0751C332.276 63.4956 329.857 63.4922 327.542 64.0654C325.227 64.6385 323.084 65.771 321.298 67.3654C319.512 68.9598 318.136 70.9685 317.289 73.2186C316.442 75.4688 316.148 77.893 316.434 80.283C316.72 82.6729 317.577 84.9569 318.93 86.9386C320.283 88.9203 322.093 90.5404 324.204 91.6596C326.314 92.7787 328.663 93.3634 331.047 93.3633C331.275 93.3633 331.503 93.3573 331.729 93.3469C331.962 93.3571 332.197 93.3633 332.433 93.3633H387.68C391.656 93.3631 395.488 91.8685 398.432 89.1707C401.376 86.4729 403.219 82.7651 403.604 78.7696C403.867 77.5124 403.999 76.231 403.999 74.9461Z" fill="url(#paint2_linear)"/>
<path d="M171.731 20.916C171.731 18.65 171.121 16.4296 169.97 14.5075C168.82 12.5853 167.175 11.0385 165.223 10.0432C163.271 9.04795 161.09 8.6441 158.929 8.87765C156.767 9.11121 154.712 9.97279 152.997 11.3643C151.538 9.6031 149.654 8.27941 147.541 7.52955C145.428 6.77968 143.161 6.63075 140.974 7.0981C138.787 7.56544 136.76 8.63216 135.1 10.1884C133.439 11.7447 132.207 13.7342 131.53 15.9522C130.396 14.9012 129.034 14.1531 127.562 13.7722C126.089 13.3913 124.55 13.3891 123.077 13.7658C121.604 14.1424 120.24 14.8866 119.103 15.9344C117.967 16.9821 117.091 18.3021 116.552 19.7808C116.013 21.2594 115.826 22.8525 116.008 24.4231C116.19 25.9936 116.735 27.4945 117.597 28.7968C118.458 30.0991 119.61 31.1637 120.953 31.8991C122.296 32.6345 123.79 33.0188 125.307 33.0187C125.453 33.0187 125.597 33.0148 125.741 33.0079C125.89 33.0146 126.039 33.0187 126.189 33.0187H161.347C163.876 33.0186 166.315 32.0364 168.189 30.2636C170.062 28.4907 171.235 26.0542 171.48 23.4286C171.647 22.6024 171.731 21.7603 171.731 20.916Z" fill="url(#paint3_linear)"/>
<defs>
<linearGradient id="paint0_linear" x1="481.062" y1="204" x2="481.062" y2="480" gradientUnits="userSpaceOnUse">
<stop stop-color="#FFB36C"/>
<stop offset="1" stop-color="#FFDFC1"/>
</linearGradient>
<linearGradient id="paint1_linear" x1="150.789" y1="83.1161" x2="150.789" y2="148.015" gradientUnits="userSpaceOnUse">
<stop stop-color="#FFC289"/>
<stop offset="1" stop-color="#FFECDA"/>
</linearGradient>
<linearGradient id="paint2_linear" x1="347.121" y1="53.5131" x2="347.121" y2="93.3633" gradientUnits="userSpaceOnUse">
<stop stop-color="#FFC289"/>
<stop offset="1" stop-color="#FFECDA"/>
</linearGradient>
<linearGradient id="paint3_linear" x1="135.537" y1="6.83145" x2="135.537" y2="33.0187" gradientUnits="userSpaceOnUse">
<stop stop-color="#FFC289"/>
<stop offset="1" stop-color="#FFECDA"/>
</linearGradient>
</defs>
</svg>
