<svg width="210" height="125" viewBox="0 0 210 125" fill="none" xmlns="http://www.w3.org/2000/svg">
<path d="M70.7323 125H0V81.2842H80.5144V111.927" fill="#465C72"/>
<path d="M74.581 121.785H3.52783V77.4268H84.6837V108.391H84.0422V78.0696H4.16938V121.142H74.581V121.785Z" fill="#8597A8"/>
<path d="M103.56 121.947H84.3604V121.304H101.088L84.3648 111.977L84.6766 111.415L103.56 121.947Z" fill="#8597A8"/>
<path d="M75.3838 92.8555H12.8328V93.4983H75.3838V92.8555Z" fill="#8597A8"/>
<path d="M75.3838 99.2852H12.8328V99.9281H75.3838V99.2852Z" fill="#8597A8"/>
<path d="M75.3838 105.713H12.8328V106.356H75.3838V105.713Z" fill="#8597A8"/>
<path d="M102.321 124.148C103.775 124.148 104.954 122.967 104.954 121.51C104.954 120.052 103.775 118.871 102.321 118.871C100.867 118.871 99.688 120.052 99.688 121.51C99.688 122.967 100.867 124.148 102.321 124.148Z" fill="#60A7E9"/>
<path d="M50.7112 73.8374L49.3939 73.4052C44.6921 71.8167 41.6032 70.8023 40.503 68.3171C40.2854 67.8479 40.1639 67.3398 40.1458 66.8228C40.1276 66.3057 40.2132 65.7903 40.3974 65.307C40.5816 64.8237 40.8607 64.3823 41.2181 64.009C41.5756 63.6357 42.0042 63.3381 42.4785 63.1337C43.0367 62.8891 43.6414 62.7691 44.2505 62.7822C44.8596 62.7953 45.4586 62.941 46.0059 63.2094C46.1746 62.6227 46.4688 62.0799 46.8679 61.6186C47.267 61.1573 47.7615 60.7886 48.3171 60.538C48.7866 60.3228 49.2944 60.2042 49.8105 60.1891C50.3266 60.1741 50.8404 60.263 51.3216 60.4505C51.8028 60.638 52.2416 60.9203 52.6119 61.2808C52.9823 61.6412 53.2767 62.0725 53.4777 62.549C54.578 65.0342 53.2556 68.0097 51.2755 72.5687L50.7112 73.8374Z" fill="#FF6584"/>
<path d="M74.5259 16.4346H44.6029V37.0643H74.5259V16.4346Z" fill="#465C72"/>
<path d="M76.9996 35.2286H46.435V13.9561H76.9996V35.2286ZM47.0766 34.5858H76.358V14.5989H47.0766V34.5858Z" fill="#8597A8"/>
<path d="M61.5985 24.9821L46.5754 14.5415L46.941 14.013L61.6014 24.202L76.5004 14.0117L76.8622 14.5427L61.5985 24.9821Z" fill="#8597A8"/>
<path d="M61.6009 27.2305C63.0552 27.2305 64.2341 26.0491 64.2341 24.5918C64.2341 23.1345 63.0552 21.9531 61.6009 21.9531C60.1466 21.9531 58.9677 23.1345 58.9677 24.5918C58.9677 26.0491 60.1466 27.2305 61.6009 27.2305Z" fill="#60A7E9"/>
<path d="M57.3745 9.29124L56.4778 8.99704C53.2774 7.9158 51.1749 7.22527 50.4259 5.53368C50.2778 5.21433 50.1952 4.86845 50.1828 4.5165C50.1705 4.16456 50.2287 3.81372 50.3541 3.48474C50.4795 3.15575 50.6694 2.85532 50.9127 2.60123C51.1561 2.34713 51.4478 2.14453 51.7706 2.00542C52.1506 1.83892 52.5622 1.75728 52.9768 1.76618C53.3914 1.77508 53.7992 1.87429 54.1717 2.05694C54.2865 1.65762 54.4868 1.28813 54.7584 0.974132C55.0301 0.660133 55.3667 0.40915 55.7449 0.238607C56.0645 0.0921126 56.4101 0.0113531 56.7614 0.00111328C57.1127 -0.00912653 57.4624 0.0513585 57.79 0.17899C58.1175 0.306621 58.4162 0.498805 58.6683 0.744162C58.9204 0.989519 59.1208 1.28307 59.2576 1.60742C60.0066 3.29905 59.1064 5.32446 57.7586 8.42766L57.3745 9.29124Z" fill="#FF6584"/>
<path d="M169.029 93.6367H139.106V114.266H169.029V93.6367Z" fill="#465C72"/>
<path d="M167.979 95.9619H161.564V97.8906H167.979V95.9619Z" fill="#60A7E9"/>
<path d="M167.985 101.425H153.229V102.71H167.985V101.425Z" fill="#8597A8"/>
<path d="M167.981 103.997H146.489V105.283H167.981V103.997Z" fill="#8597A8"/>
<path d="M167.981 106.567H146.489V107.853H167.981V106.567Z" fill="#8597A8"/>
<path d="M160.091 89.8874L159.796 89.2747C158.757 87.0721 158.064 85.6351 158.565 84.4012C158.656 84.1647 158.794 83.949 158.97 83.7668C159.146 83.5846 159.356 83.4397 159.589 83.3405C159.822 83.2413 160.072 83.19 160.325 83.1895C160.578 83.1889 160.829 83.2393 161.062 83.3375C161.338 83.4518 161.586 83.6248 161.788 83.8446C161.99 84.0645 162.143 84.3258 162.234 84.6105C162.498 84.4708 162.789 84.3902 163.088 84.3745C163.386 84.3588 163.684 84.4084 163.961 84.5196C164.196 84.6125 164.411 84.7517 164.591 84.9291C164.772 85.1065 164.915 85.3183 165.013 85.5522C165.111 85.7861 165.16 86.0373 165.159 86.2908C165.158 86.5442 165.106 86.795 165.007 87.028C164.506 88.262 163.009 88.8059 160.73 89.6556L160.091 89.8874Z" fill="#FF6584"/>
<path d="M137.447 71.0995H208.18V27.3838H127.665V58.0266" fill="#465C72"/>
<path d="M204.654 67.885H133.601V67.2421H204.012V24.1692H124.14V54.4906H123.498V23.5264H204.654V67.885Z" fill="#8597A8"/>
<path d="M123.811 68.0466H104.611L123.494 57.5146L123.806 58.0762L107.083 67.4037H123.811V68.0466Z" fill="#8597A8"/>
<path d="M195.35 38.9551H132.799V39.598H195.35V38.9551Z" fill="#8597A8"/>
<path d="M195.35 45.3867H132.799V46.0296H195.35V45.3867Z" fill="#8597A8"/>
<path d="M195.35 51.8145H132.799V52.4573H195.35V51.8145Z" fill="#8597A8"/>
<path d="M105.845 70.2491C107.299 70.2491 108.478 69.0677 108.478 67.6104C108.478 66.1531 107.299 64.9717 105.845 64.9717C104.391 64.9717 103.212 66.1531 103.212 67.6104C103.212 69.0677 104.391 70.2491 105.845 70.2491Z" fill="#60A7E9"/>
<path d="M199.881 14.9048L199.68 13.7607C198.995 9.65933 198.524 6.97635 199.919 5.18324C200.179 4.83741 200.505 4.54727 200.878 4.32999C201.252 4.11271 201.665 3.97271 202.093 3.91828C202.522 3.86384 202.957 3.89608 203.372 4.01308C203.788 4.13008 204.176 4.32947 204.513 4.59944C204.914 4.91557 205.24 5.31518 205.471 5.77054C205.701 6.22589 205.83 6.72608 205.849 7.23636C206.347 7.12975 206.862 7.13311 207.359 7.2462C207.856 7.35928 208.323 7.5794 208.726 7.89125C209.07 8.15339 209.357 8.48193 209.572 8.85742C209.786 9.23291 209.924 9.64773 209.975 10.0773C210.027 10.5069 209.992 10.9425 209.873 11.3584C209.754 11.7742 209.552 12.1619 209.281 12.4984C207.886 14.2915 205.174 14.4874 201.038 14.8216L199.881 14.9048Z" fill="#FF6584"/>
</svg>
