<svg width="210" height="125" viewBox="0 0 210 125" fill="none" xmlns="http://www.w3.org/2000/svg">
<path d="M70.7323 125H0V81.2843H80.5144V111.927" fill="#F2F2F2"/>
<path d="M74.581 121.785H3.52785V77.4265H84.6838V108.391H84.0422V78.0694H4.1694V121.142H74.581V121.785Z" fill="black"/>
<path d="M103.56 121.947H84.3604V121.304H101.088L84.3648 111.977L84.6766 111.415L103.56 121.947Z" fill="black"/>
<path d="M75.3838 92.8553H12.8328V93.4981H75.3838V92.8553Z" fill="black"/>
<path d="M75.3838 99.2848H12.8328V99.9277H75.3838V99.2848Z" fill="black"/>
<path d="M75.3838 105.713H12.8328V106.356H75.3838V105.713Z" fill="black"/>
<path d="M102.321 124.149C103.775 124.149 104.954 122.968 104.954 121.51C104.954 120.053 103.775 118.872 102.321 118.872C100.867 118.872 99.688 120.053 99.688 121.51C99.688 122.968 100.867 124.149 102.321 124.149Z" fill="#0E8AFD"/>
<path d="M50.7112 73.8371L49.3939 73.4049C44.6921 71.8165 41.6032 70.802 40.503 68.3169C40.2854 67.8477 40.1639 67.3396 40.1458 66.8225C40.1276 66.3055 40.2132 65.79 40.3974 65.3067C40.5816 64.8234 40.8607 64.3821 41.2181 64.0088C41.5756 63.6355 42.0042 63.3378 42.4785 63.1334C43.0367 62.8888 43.6414 62.7689 44.2505 62.782C44.8596 62.795 45.4586 62.9408 46.0059 63.2091C46.1746 62.6225 46.4688 62.0797 46.8679 61.6184C47.267 61.1571 47.7615 60.7883 48.3171 60.5378C48.7866 60.3226 49.2944 60.2039 49.8105 60.1889C50.3266 60.1738 50.8404 60.2627 51.3216 60.4502C51.8028 60.6377 52.2416 60.9201 52.6119 61.2805C52.9823 61.641 53.2767 62.0722 53.4778 62.5487C54.578 65.0339 53.2556 68.0095 51.2755 72.5684L50.7112 73.8371Z" fill="#FF6584"/>
<path d="M74.5259 16.4344H44.6029V37.0641H74.5259V16.4344Z" fill="#F2F2F2"/>
<path d="M76.9996 35.2288H46.435V13.9562H76.9996V35.2288ZM47.0766 34.5859H76.358V14.5991H47.0766V34.5859Z" fill="black"/>
<path d="M61.5985 24.9821L46.5754 14.5414L46.941 14.0129L61.6014 24.2019L76.5004 14.0117L76.8622 14.5427L61.5985 24.9821Z" fill="black"/>
<path d="M61.6009 27.2307C63.0552 27.2307 64.2341 26.0493 64.2341 24.592C64.2341 23.1347 63.0552 21.9533 61.6009 21.9533C60.1466 21.9533 58.9677 23.1347 58.9677 24.592C58.9677 26.0493 60.1466 27.2307 61.6009 27.2307Z" fill="#0E8AFD"/>
<path d="M57.3745 9.29124L56.4778 8.99704C53.2774 7.9158 51.1749 7.22527 50.4259 5.53368C50.2778 5.21433 50.1951 4.86845 50.1828 4.5165C50.1705 4.16456 50.2287 3.81372 50.3541 3.48474C50.4795 3.15575 50.6694 2.85532 50.9127 2.60123C51.1561 2.34713 51.4478 2.14453 51.7706 2.00542C52.1506 1.83892 52.5622 1.75728 52.9768 1.76618C53.3914 1.77508 53.7992 1.87429 54.1717 2.05694C54.2865 1.65762 54.4867 1.28813 54.7584 0.974132C55.0301 0.660133 55.3667 0.40915 55.7449 0.238607C56.0645 0.0921126 56.4101 0.0113531 56.7614 0.00111328C57.1127 -0.00912653 57.4624 0.0513585 57.79 0.17899C58.1175 0.306621 58.4162 0.498805 58.6683 0.744162C58.9204 0.989519 59.1208 1.28307 59.2576 1.60742C60.0066 3.29905 59.1064 5.32446 57.7586 8.42766L57.3745 9.29124Z" fill="#FF6584"/>
<path d="M169.029 93.6364H139.106V114.266H169.029V93.6364Z" fill="#F2F2F2"/>
<path d="M167.979 95.9616H161.564V97.8903H167.979V95.9616Z" fill="#0E8AFD"/>
<path d="M167.985 101.425H153.229V102.711H167.985V101.425Z" fill="white"/>
<path d="M167.981 103.997H146.489V105.283H167.981V103.997Z" fill="white"/>
<path d="M167.981 106.567H146.489V107.853H167.981V106.567Z" fill="white"/>
<path d="M160.091 89.8869L159.796 89.2742C158.757 87.0716 158.064 85.6346 158.565 84.4007C158.656 84.1642 158.794 83.9485 158.97 83.7663C159.146 83.5842 159.356 83.4392 159.589 83.34C159.822 83.2408 160.072 83.1895 160.325 83.189C160.578 83.1885 160.829 83.2388 161.062 83.3371C161.338 83.4513 161.586 83.6243 161.788 83.8441C161.99 84.064 162.143 84.3253 162.234 84.6101C162.498 84.4703 162.789 84.3898 163.088 84.3741C163.386 84.3584 163.684 84.4079 163.961 84.5192C164.196 84.612 164.411 84.7512 164.591 84.9286C164.772 85.106 164.915 85.3179 165.013 85.5518C165.111 85.7856 165.16 86.0368 165.159 86.2903C165.158 86.5438 165.106 86.7945 165.007 87.0276C164.506 88.2615 163.009 88.8055 160.73 89.6551L160.091 89.8869Z" fill="#FF6584"/>
<path d="M137.447 71.0999H208.18V27.3842H127.665V58.0269" fill="#F2F2F2"/>
<path d="M204.654 67.8851H133.601V67.2422H204.012V24.1694H124.14V54.4907H123.498V23.5265H204.654V67.8851Z" fill="black"/>
<path d="M123.811 68.0466H104.611L123.494 57.5146L123.806 58.0762L107.083 67.4037H123.811V68.0466Z" fill="black"/>
<path d="M195.35 38.9553H132.799V39.5982H195.35V38.9553Z" fill="black"/>
<path d="M195.35 45.3864H132.799V46.0292H195.35V45.3864Z" fill="black"/>
<path d="M195.35 51.8141H132.799V52.457H195.35V51.8141Z" fill="black"/>
<path d="M105.845 70.2491C107.299 70.2491 108.478 69.0677 108.478 67.6104C108.478 66.1531 107.299 64.9717 105.845 64.9717C104.391 64.9717 103.212 66.1531 103.212 67.6104C103.212 69.0677 104.391 70.2491 105.845 70.2491Z" fill="#0E8AFD"/>
<path d="M199.881 14.9051L199.68 13.761C198.995 9.65964 198.524 6.97665 199.919 5.18354C200.179 4.83772 200.505 4.54758 200.878 4.3303C201.252 4.11302 201.665 3.97302 202.093 3.91858C202.522 3.86415 202.957 3.89639 203.372 4.01339C203.788 4.13039 204.176 4.32977 204.513 4.59974C204.914 4.91587 205.24 5.31549 205.471 5.77084C205.701 6.2262 205.83 6.72638 205.849 7.23667C206.347 7.13006 206.862 7.13341 207.359 7.2465C207.856 7.35959 208.323 7.5797 208.726 7.89155C209.07 8.15369 209.357 8.48223 209.572 8.85773C209.786 9.23322 209.924 9.64803 209.975 10.0776C210.027 10.5072 209.992 10.9428 209.873 11.3587C209.754 11.7745 209.552 12.1622 209.281 12.4987C207.886 14.2918 205.174 14.4877 201.038 14.8219L199.881 14.9051Z" fill="#FF6584"/>
</svg>
