<svg width="204" height="125" viewBox="0 0 204 125" fill="none" xmlns="http://www.w3.org/2000/svg">
<path d="M24.6517 124.334L24.3016 124.255C28.2051 106.918 38.0147 91.1743 51.9235 79.9242C62.439 71.432 74.9456 65.7524 88.2656 63.4201C101.586 61.0879 115.281 62.1797 128.062 66.5928C140.843 71.0059 152.289 78.5951 161.322 88.6458C170.356 98.6964 176.68 110.878 179.698 124.043L179.348 124.123C171.085 87.8885 139.288 62.582 102.024 62.582C65.2476 62.582 32.7079 88.5522 24.6517 124.334Z" fill="#465C72"/>
<path d="M167.644 120.223C167.008 122.441 164.83 123.815 164.83 123.815C164.83 123.815 163.683 121.592 164.319 119.374C164.955 117.155 167.133 115.781 167.133 115.781C167.133 115.781 168.28 118.004 167.644 120.223Z" fill="#465C72"/>
<path d="M166.661 119.702C164.954 121.323 164.745 123.815 164.745 123.815C164.745 123.815 167.305 123.679 169.012 122.058C170.719 120.436 170.927 117.944 170.927 117.944C170.927 117.944 168.368 118.081 166.661 119.702Z" fill="#568DC4"/>
<path d="M52.8175 118.564C53.7183 121.807 56.8038 123.815 56.8038 123.815C56.8038 123.815 58.4288 120.566 57.528 117.324C56.6272 114.081 53.5417 112.073 53.5417 112.073C53.5417 112.073 51.9167 115.322 52.8175 118.564Z" fill="#465C72"/>
<path d="M54.0952 117.753C56.5704 120.142 56.8728 123.815 56.8728 123.815C56.8728 123.815 53.1619 123.614 50.6867 121.225C48.2115 118.836 47.9091 115.163 47.9091 115.163C47.9091 115.163 51.6199 115.364 54.0952 117.753Z" fill="#568DC4"/>
<path d="M60.5916 32.7445L56.9271 29.8165L77.448 11.5176H129.483V27.6207L95.7702 50.3114L60.5916 32.7445Z" fill="#38495B"/>
<path opacity="0.1" d="M60.5917 32.7445L56.9272 29.8165L77.4482 11.5176H129.483V27.6207L95.7703 50.3114L60.5917 32.7445Z" fill="#38495B"/>
<path opacity="0.1" d="M138.971 21.7822V11.8831H132.062V14.3074L129.484 11.5176L112.627 29.8165L106.031 34.2083L95.804 108.835L111.228 124.239H147.073V30.5485L138.971 21.7822Z" fill="#465C72"/>
<path d="M138.971 21.7822V11.8831H132.062V14.3074L129.484 11.5176L112.627 29.8165L106.031 34.2083L95.804 108.835L111.228 124.239H147.073V30.5485L138.971 21.7822Z" fill="#465C72"/>
<path d="M112.627 29.8154H56.9272V124.238H112.627V29.8154Z" fill="#25323F"/>
<path d="M88.8081 101.182H78.5476V124.238H88.8081V101.182Z" fill="#38495B"/>
<path d="M69.9569 111.069L74.2842 111.069L74.2842 101.182L69.9569 101.182L69.9569 110.245L69.9569 111.069Z" fill="#465C72"/>
<path d="M67.4841 110.245L67.4841 101.182L63.1568 101.182L63.1568 111.069L67.4841 111.069L67.4841 110.245Z" fill="#465C72"/>
<path d="M101.337 111.069L105.664 111.069L105.664 101.182L101.337 101.182L101.337 110.245L101.337 111.069Z" fill="#465C72"/>
<path d="M98.8644 110.245L98.8644 101.182L94.5371 101.182L94.5371 111.069L98.8644 111.069L98.8644 110.245Z" fill="#465C72"/>
<path d="M131.364 43.225L135.073 43.225L135.073 34.5732L131.364 34.5732L131.364 42.5041L131.364 43.225Z" fill="#38495B"/>
<path d="M128.582 42.5041L128.582 34.5732L124.873 34.5732L124.873 43.225L128.582 43.225L128.582 42.5041Z" fill="#FF6584"/>
<path d="M131.364 60.7923L135.073 60.7923L135.073 52.1406L131.364 52.1406L131.364 60.0715L131.364 60.7923Z" fill="#38495B"/>
<path d="M128.582 60.0715L128.582 52.1406L124.873 52.1406L124.873 60.7923L128.582 60.7923L128.582 60.0715Z" fill="#38495B"/>
<path d="M131.364 78.3597L135.073 78.3597L135.073 69.708L131.364 69.708L131.364 77.6389L131.364 78.3597Z" fill="#FF6584"/>
<path d="M128.582 77.6389L128.582 69.708L124.873 69.708L124.873 78.3597L128.582 78.3597L128.582 77.6389Z" fill="#38495B"/>
<path d="M131.364 95.9271L135.073 95.9271L135.073 87.2754L131.364 87.2754L131.364 95.2063L131.364 95.9271Z" fill="#38495B"/>
<path d="M128.582 95.2063L128.582 87.2754L124.873 87.2754L124.873 95.9271L128.582 95.9271L128.582 95.2063Z" fill="#38495B"/>
<path d="M105.664 34.5732H63.1568V43.3568H105.664V34.5732Z" fill="#465C72"/>
<path d="M105.664 52.1406H63.1568V60.9241H105.664V52.1406Z" fill="#FF6584"/>
<path d="M105.664 69.708H63.1568V78.4915H105.664V69.708Z" fill="#465C72"/>
<path d="M105.664 87.2754H63.1568V96.0589H105.664V87.2754Z" fill="#465C72"/>
<path d="M204 123.815H0V124.433H204V123.815Z" fill="#465C72"/>
<path d="M39.8727 73.7588H38.3273V124.124H39.8727V73.7588Z" fill="#465C72"/>
<path d="M51.3087 80.1905C51.3892 97.7675 39.0913 112.074 39.0913 112.074C39.0913 112.074 26.6627 97.8821 26.5822 80.3051C26.5016 62.7281 38.7996 48.4219 38.7996 48.4219C38.7996 48.4219 51.2281 62.6136 51.3087 80.1905Z" fill="#F5F9FE"/>
<path d="M51.3087 80.1905C51.3892 97.7675 39.0913 112.074 39.0913 112.074C39.0913 112.074 26.6627 97.8821 26.5822 80.3051C26.5016 62.7281 38.7996 48.4219 38.7996 48.4219C38.7996 48.4219 51.2281 62.6136 51.3087 80.1905Z" fill="#465C72"/>
<path d="M22.2546 69.124H20.7091V124.124H22.2546V69.124Z" fill="#465C72"/>
<path d="M35.2359 76.0142C35.3256 95.2124 21.6441 110.838 21.6441 110.838C21.6441 110.838 7.81735 95.3376 7.72773 76.1394C7.63812 56.9412 21.3196 41.3154 21.3196 41.3154C21.3196 41.3154 35.1463 56.8161 35.2359 76.0142Z" fill="#568DC4"/>
<path d="M169.651 29.7568C161.348 29.795 154.59 29.9175 154.59 29.9175C154.59 29.9175 162.623 19.2902 169.621 23.2275C176.619 27.1649 184.657 29.7791 184.657 29.7791C184.657 29.7791 177.954 29.7186 169.651 29.7568Z" fill="#38495B"/>
<path d="M31.3185 30.7978C23.0156 30.836 16.2573 30.9586 16.2573 30.9586C16.2573 30.9586 24.2906 20.3312 31.2884 24.2685C38.2862 28.2059 46.325 30.8202 46.325 30.8202C46.325 30.8202 39.6215 30.7596 31.3185 30.7978Z" fill="#38495B"/>
<path d="M61.4612 7.53708C53.1582 7.5753 46.4 7.69782 46.4 7.69782C46.4 7.69782 54.4332 -2.92957 61.431 1.0078C68.4289 4.94517 76.4676 7.55942 76.4676 7.55942C76.4676 7.55942 69.7641 7.49886 61.4612 7.53708Z" fill="#38495B"/>
<path d="M187 70.0508H185.455V124.124H187V70.0508Z" fill="#465C72"/>
<path d="M199.672 76.7869C199.76 95.7291 186.386 111.147 186.386 111.147C186.386 111.147 172.87 95.8526 172.782 76.9104C172.695 57.9682 186.069 42.5508 186.069 42.5508C186.069 42.5508 199.585 57.8447 199.672 76.7869Z" fill="#568DC4"/>
<path d="M151.848 98.245H160.107V95.6992H161.936V98.245H172.277V103.848H161.936V123.908H160.107V103.848H151.848L148.352 100.959L151.848 98.245Z" fill="#0E8AFD"/>
<ellipse cx="160.925" cy="100.965" rx="1.62165" ry="1.62112" fill="#EEF7FF"/>
</svg>
