<svg width="205" height="125" viewBox="0 0 205 125" fill="none" xmlns="http://www.w3.org/2000/svg">
<path d="M24.7698 124.899L24.418 124.82C28.3405 107.385 38.1983 91.5532 52.1752 80.2398C62.7423 71.6998 75.3102 65.9882 88.6955 63.6428C102.081 61.2974 115.843 62.3953 128.687 66.8333C141.53 71.2712 153.033 78.9032 162.11 89.0105C171.188 99.1178 177.543 111.368 180.576 124.607L180.225 124.687C171.921 88.2489 139.968 62.7999 102.521 62.7999C65.5646 62.7999 32.8654 88.9164 24.7698 124.899Z" fill="#BBCFE2"/>
<path d="M75.207 22.2946C80.6155 22.2946 85 17.9125 85 12.5069C85 7.10135 80.6155 2.71927 75.207 2.71927C69.7985 2.71927 65.4141 7.10135 65.4141 12.5069C65.4141 17.9125 69.7985 22.2946 75.207 22.2946Z" fill="#FF6584"/>
<path d="M168.463 120.766C167.824 122.997 165.636 124.379 165.636 124.379C165.636 124.379 164.483 122.143 165.122 119.912C165.761 117.681 167.95 116.3 167.95 116.3C167.95 116.3 169.102 118.535 168.463 120.766Z" fill="#8597A8"/>
<path d="M167.478 120.242C165.763 121.873 165.554 124.379 165.554 124.379C165.554 124.379 168.125 124.242 169.841 122.611C171.556 120.981 171.766 118.475 171.766 118.475C171.766 118.475 169.194 118.612 167.478 120.242Z" fill="#F5F9FE"/>
<path d="M53.0781 119.099C53.9833 122.359 57.0839 124.379 57.0839 124.379C57.0839 124.379 58.7169 121.112 57.8116 117.851C56.9064 114.59 53.8058 112.571 53.8058 112.571C53.8058 112.571 52.1728 115.838 53.0781 119.099Z" fill="#8597A8"/>
<path d="M54.3648 118.283C56.8522 120.685 57.156 124.379 57.156 124.379C57.156 124.379 53.427 124.177 50.9396 121.774C48.4523 119.372 48.1484 115.678 48.1484 115.678C48.1484 115.678 51.8774 115.88 54.3648 118.283Z" fill="#F5F9FE"/>
<path d="M60.8855 32.7944L57.2031 29.8499L77.8246 11.4479H130.115V27.6417L96.2366 50.4602L60.8855 32.7944Z" fill="#EEF7FF"/>
<path opacity="0.1" d="M60.8855 32.7944L57.2031 29.8499L77.8246 11.4479H130.115V27.6417L96.2366 50.4602L60.8855 32.7944Z" fill="#465C72"/>
<path opacity="0.1" d="M139.648 21.7704V11.8155H132.705V14.2535L130.114 11.4479L113.175 29.8499L106.547 34.2664L96.2695 109.314L111.769 124.805H147.79V30.586L139.648 21.7704Z" fill="#465C72"/>
<path d="M139.648 21.7704V11.8155H132.705V14.2535L130.114 11.4479L113.175 29.8499L106.547 34.2664L96.2695 109.314L111.769 124.805H147.79V30.586L139.648 21.7704Z" fill="#EEF7FF"/>
<path d="M113.176 29.8497H57.2031V124.804H113.176V29.8497Z" fill="white"/>
<path d="M89.2483 101.618H78.9375V124.805H89.2483V101.618Z" fill="#8597A8"/>
<path d="M70.3 111.561L74.6484 111.561L74.6484 101.618L70.3 101.618L70.3 110.733L70.3 111.561Z" fill="#BBCFE2"/>
<path d="M67.8125 110.733L67.8125 101.618L63.464 101.618L63.464 111.561L67.8125 111.561L67.8125 110.733Z" fill="#BBCFE2"/>
<path d="M101.835 111.561L106.184 111.561L106.184 101.618L101.835 101.618L101.835 110.733L101.835 111.561Z" fill="#BBCFE2"/>
<path d="M99.3477 110.733L99.3477 101.618L94.9992 101.618L94.9992 111.561L99.3477 111.561L99.3477 110.733Z" fill="#BBCFE2"/>
<path d="M132.011 43.3348L135.738 43.3348L135.738 34.6343L132.011 34.6343L132.011 42.6099L132.011 43.3348Z" fill="#BBCFE2"/>
<path d="M129.211 42.6099L129.211 34.6343L125.484 34.6343L125.484 43.3348L129.211 43.3348L129.211 42.6099Z" fill="#BBCFE2"/>
<path d="M132.011 61.0009L135.738 61.0009L135.738 52.3004L132.011 52.3004L132.011 60.276L132.011 61.0009Z" fill="#BBCFE2"/>
<path d="M129.211 60.276L129.211 52.3004L125.484 52.3004L125.484 61.0009L129.211 61.0009L129.211 60.276Z" fill="#BBCFE2"/>
<path d="M132.011 78.6671L135.738 78.6671L135.738 69.9666L132.011 69.9666L132.011 77.9422L132.011 78.6671Z" fill="#BBCFE2"/>
<path d="M129.211 77.9422L129.211 69.9666L125.484 69.9666L125.484 78.6671L129.211 78.6671L129.211 77.9422Z" fill="#BBCFE2"/>
<path d="M132.011 96.3332L135.738 96.3332L135.738 87.6328L132.011 87.6328L132.011 95.6083L132.011 96.3332Z" fill="#BBCFE2"/>
<path d="M129.211 95.6083L129.211 87.6328L125.484 87.6328L125.484 96.3332L129.211 96.3332L129.211 95.6083Z" fill="#BBCFE2"/>
<path d="M106.185 34.6343H63.4688V43.4673H106.185V34.6343Z" fill="#BBCFE2"/>
<path d="M106.185 52.3004H63.4688V61.1334H106.185V52.3004Z" fill="#BBCFE2"/>
<path d="M106.185 69.9666H63.4688V78.7996H106.185V69.9666Z" fill="#BBCFE2"/>
<path d="M106.185 87.6328H63.4688V96.4657H106.185V87.6328Z" fill="#BBCFE2"/>
<path d="M205 124.379H0V125H205V124.379Z" fill="#8597A8"/>
<path d="M40.0687 74.0402H38.5156V124.689H40.0687V74.0402Z" fill="#465C72"/>
<path d="M51.559 80.508C51.64 98.184 39.2818 112.571 39.2818 112.571C39.2818 112.571 26.7923 98.2992 26.7113 80.6232C26.6304 62.9472 38.9886 48.5604 38.9886 48.5604C38.9886 48.5604 51.4781 62.832 51.559 80.508Z" fill="#F5F9FE"/>
<path d="M51.559 80.508C51.64 98.184 39.2818 112.571 39.2818 112.571C39.2818 112.571 26.7923 98.2992 26.7113 80.6232C26.6304 62.9472 38.9886 48.5604 38.9886 48.5604C38.9886 48.5604 51.4781 62.832 51.559 80.508Z" fill="#8597A8"/>
<path d="M22.3655 69.3794H20.8125V124.689H22.3655V69.3794Z" fill="#465C72"/>
<path d="M35.4091 76.3079C35.4992 95.6142 21.7507 111.328 21.7507 111.328C21.7507 111.328 7.85612 95.7401 7.76607 76.4338C7.67601 57.1275 21.4245 41.4137 21.4245 41.4137C21.4245 41.4137 35.3191 57.0016 35.4091 76.3079Z" fill="#F5F9FE"/>
<path d="M170.483 29.7908C162.139 29.8292 155.348 29.9524 155.348 29.9524C155.348 29.9524 163.42 19.2652 170.452 23.2247C177.485 27.1843 185.563 29.8132 185.563 29.8132C185.563 29.8132 178.826 29.7524 170.483 29.7908Z" fill="#EEF7FF"/>
<path d="M31.471 30.8372C23.1273 30.8756 16.3359 30.9988 16.3359 30.9988C16.3359 30.9988 24.4086 20.3116 31.4407 24.2712C38.4728 28.2307 46.551 30.8597 46.551 30.8597C46.551 30.8597 39.8146 30.7988 31.471 30.8372Z" fill="#EEF7FF"/>
<path d="M61.764 7.44598C53.4203 7.48442 46.6289 7.60762 46.6289 7.60762C46.6289 7.60762 54.7015 -3.07963 61.7337 0.879917C68.7658 4.83947 76.8439 7.46844 76.8439 7.46844C76.8439 7.46844 70.1076 7.40755 61.764 7.44598Z" fill="#EEF7FF"/>
<path d="M187.916 70.3116H186.363V124.689H187.916V70.3116Z" fill="#465C72"/>
<path d="M200.651 77.0856C200.739 96.1345 187.3 111.639 187.3 111.639C187.3 111.639 173.717 96.2587 173.629 77.2098C173.541 58.1609 186.981 42.6566 186.981 42.6566C186.981 42.6566 200.563 58.0367 200.651 77.0856Z" fill="#F5F9FE"/>
<path d="M152.591 98.6648H160.89V96.1046H162.728V98.6648H173.12V104.299H162.728V124.472H160.89V104.299H152.591L149.078 101.394L152.591 98.6648Z" fill="#0E8AFD"/>
<ellipse cx="161.712" cy="101.4" rx="1.6296" ry="1.63025" fill="#EEF7FF"/>
</svg>
