<svg width="340" height="125" viewBox="0 0 340 125" fill="none" xmlns="http://www.w3.org/2000/svg">
<path d="M273.888 55.2471C283.45 55.2471 291.202 47.5122 291.202 37.9707C291.202 28.4292 283.45 20.6943 273.888 20.6943C264.326 20.6943 256.574 28.4292 256.574 37.9707C256.574 47.5122 264.326 55.2471 273.888 55.2471Z" fill="#FF6584"/>
<path d="M301.382 91.4629H300.363V124.491H301.382V91.4629Z" fill="#465C72"/>
<path d="M309.026 95.9979C309.079 107.504 300.974 116.869 300.974 116.869C300.974 116.869 292.784 107.579 292.731 96.0729C292.678 84.567 300.782 75.2021 300.782 75.2021C300.782 75.2021 308.972 84.492 309.026 95.9979Z" fill="#F5F9FE"/>
<path d="M309.026 95.9979C309.079 107.504 300.974 116.869 300.974 116.869C300.974 116.869 292.784 107.579 292.731 96.0729C292.678 84.567 300.782 75.2021 300.782 75.2021C300.782 75.2021 308.972 84.492 309.026 95.9979Z" fill="#465C72"/>
<path d="M143.778 26.4227C150.95 26.4227 156.764 20.5078 156.764 13.2114C156.764 5.91493 150.95 0 143.778 0C136.607 0 130.793 5.91493 130.793 13.2114C130.793 20.5078 136.607 26.4227 143.778 26.4227Z" fill="#38495B"/>
<path d="M119.584 28.4548C124.646 28.4548 128.75 24.3598 128.75 19.3084C128.75 14.2571 124.646 10.1621 119.584 10.1621C114.522 10.1621 110.418 14.2571 110.418 19.3084C110.418 24.3598 114.522 28.4548 119.584 28.4548Z" fill="#38495B"/>
<path d="M213.496 120.91C214.194 123.436 216.587 125 216.587 125C216.587 125 217.846 122.469 217.148 119.943C216.45 117.418 214.058 115.854 214.058 115.854C214.058 115.854 212.798 118.384 213.496 120.91Z" fill="#465C72"/>
<path d="M214.643 120.371C216.611 122.195 216.852 124.999 216.852 124.999C216.852 124.999 213.9 124.846 211.932 123.022C209.963 121.198 209.723 118.394 209.723 118.394C209.723 118.394 212.674 118.547 214.643 120.371Z" fill="#568DC4"/>
<path d="M129.461 101.242L127.734 98.3295L143.846 84.3496H185.277V88.4268L170.316 104.737L153.053 108.232L129.461 101.242Z" fill="#38495B"/>
<path opacity="0.1" d="M129.461 101.242L127.734 98.3295L143.846 84.3496H185.277V88.4268L170.316 104.737L153.053 108.232L129.461 101.242Z" fill="#465C72"/>
<path d="M192.492 92.8396V83.8408H187.08V86.6784L185.377 84.7391L171.6 98.5427L169.304 100.843L166.434 112.346L171.6 124.999H198.006V99.1179L192.492 92.8396Z" fill="#465C72"/>
<path d="M171.528 98.5762H127.734V124.999H171.528V98.5762Z" fill="#25323F"/>
<path d="M152.683 106.198H144.535V124.999H152.683V106.198Z" fill="#38495B"/>
<path d="M137.703 112.724L140.973 112.724L140.973 106.198L137.703 106.198L137.703 112.18L137.703 112.724Z" fill="#465C72"/>
<path d="M135.375 112.18L135.375 106.198L132.105 106.198L132.105 112.724L135.375 112.724L135.375 112.18Z" fill="#465C72"/>
<path d="M161.847 112.724L165.117 112.724L165.117 106.198L161.847 106.198L161.847 112.18L161.847 112.724Z" fill="#465C72"/>
<path d="M159.523 112.18L159.523 106.198L156.253 106.198L156.253 112.724L159.523 112.724L159.523 112.18Z" fill="#465C72"/>
<path d="M186.578 112.724L189.848 112.724L189.848 106.198L186.578 106.198L186.578 112.18L186.578 112.724Z" fill="#465C72"/>
<path d="M184.766 112.18L184.766 106.198L181.496 106.198L181.496 112.724L184.766 112.724L184.766 112.18Z" fill="#465C72"/>
<path d="M51.6811 52.99L48.8008 50.7271L64.9315 36.5859H105.834V49.0303L79.334 66.5655L51.6811 52.99Z" fill="#38495B"/>
<path opacity="0.1" d="M51.6811 52.99L48.8008 50.7271L64.9315 36.5859H105.834V49.0303L79.334 66.5655L51.6811 52.99Z" fill="#465C72"/>
<path d="M113.235 44.6373V36.8728H107.814V38.7745L105.791 36.5859L92.5638 50.939L87.3884 54.3839L79.3633 112.918L91.4658 125H119.592V51.513L113.235 44.6373Z" fill="#465C72"/>
<path d="M92.5944 50.8125H48.8008V124.999H92.5944V50.8125Z" fill="#25323F"/>
<path d="M73.7609 106.707H65.6133V125H73.7609V106.707Z" fill="#38495B"/>
<path d="M58.9878 113.233L62.2578 113.233L62.2578 106.707L58.9878 106.707L58.9878 112.689L58.9878 113.233Z" fill="#465C72"/>
<path d="M57.1641 112.689L57.1641 106.707L53.8941 106.707L53.8941 113.233L57.1641 113.233L57.1641 112.689Z" fill="#465C72"/>
<path d="M83.7261 113.233L86.9961 113.233L86.9961 106.707L83.7261 106.707L83.7261 112.689L83.7261 113.233Z" fill="#465C72"/>
<path d="M81.9062 112.689L81.9062 106.707L78.6363 106.707L78.6363 113.233L81.9062 113.233L81.9062 112.689Z" fill="#465C72"/>
<path d="M107.55 61.4397L110.82 61.4397L110.82 54.3701L107.55 54.3701L107.55 60.851L107.55 61.4397Z" fill="#38495B"/>
<path d="M105.215 60.851L105.215 54.3701L101.945 54.3701L101.945 61.4397L105.215 61.4397L105.215 60.851Z" fill="#38495B"/>
<path d="M107.55 75.1585L110.82 75.1585L110.82 68.0889L107.55 68.0889L107.55 74.5698L107.55 75.1585Z" fill="#FF6584"/>
<path d="M105.215 74.5698L105.215 68.0889L101.945 68.0889L101.945 75.1585L105.215 75.1585L105.215 74.5698Z" fill="#38495B"/>
<path d="M107.55 88.8782L110.82 88.8782L110.82 81.8086L107.55 81.8086L107.55 88.2895L107.55 88.8782Z" fill="#38495B"/>
<path d="M105.215 88.2895L105.215 81.8086L101.945 81.8086L101.945 88.8782L105.215 88.8782L105.215 88.2895Z" fill="#38495B"/>
<path d="M107.55 103.106L110.82 103.106L110.82 96.0361L107.55 96.0361L107.55 102.517L107.55 103.106Z" fill="#38495B"/>
<path d="M105.215 102.517L105.215 96.0361L101.945 96.0361L101.945 103.106L105.215 103.106L105.215 102.517Z" fill="#FF6584"/>
<path d="M86.9983 54.3701H53.8984V61.4839H86.9983V54.3701Z" fill="#FF6584"/>
<path d="M86.9983 68.0889H53.8984V75.2027H86.9983V68.0889Z" fill="#465C72"/>
<path d="M86.9983 81.8086H53.8984V88.9224H86.9983V81.8086Z" fill="#465C72"/>
<path d="M86.9983 96.0361H53.8984V102.642H86.9983V96.0361Z" fill="#465C72"/>
<path d="M219.728 52.99L216.848 50.7271L232.978 36.5859H273.881V49.0303L247.381 66.5655L219.728 52.99Z" fill="#38495B"/>
<path opacity="0.1" d="M219.728 52.99L216.848 50.7271L232.978 36.5859H273.881V49.0303L247.381 66.5655L219.728 52.99Z" fill="#465C72"/>
<path d="M281.274 44.6373V36.8728H275.853V38.7745L273.83 36.5859L260.603 50.939L255.427 54.3839L247.402 112.918L259.505 125H287.631V51.513L281.274 44.6373Z" fill="#465C72"/>
<path d="M260.641 50.8125H216.848V124.999H260.641V50.8125Z" fill="#25323F"/>
<path d="M241.8 106.707H233.652V125H241.8V106.707Z" fill="#38495B"/>
<path d="M227.035 113.233L230.305 113.233L230.305 106.707L227.035 106.707L227.035 112.689L227.035 113.233Z" fill="#465C72"/>
<path d="M225.207 112.689L225.207 106.707L221.937 106.707L221.937 113.233L225.207 113.233L225.207 112.689Z" fill="#465C72"/>
<path d="M251.773 113.233L255.043 113.233L255.043 106.707L251.773 106.707L251.773 112.689L251.773 113.233Z" fill="#465C72"/>
<path d="M249.945 112.689L249.945 106.707L246.675 106.707L246.675 113.233L249.945 113.233L249.945 112.689Z" fill="#465C72"/>
<path d="M274.863 60.8959L278.133 60.8959L278.133 54.3701L274.863 54.3701L274.863 60.3525L274.863 60.8959Z" fill="#FF6584"/>
<path d="M272.535 60.3525L272.535 54.3701L269.265 54.3701L269.265 60.8959L272.535 60.8959L272.535 60.3525Z" fill="#38495B"/>
<path d="M274.863 74.6147L278.133 74.6147L278.133 68.0889L274.863 68.0889L274.863 74.0713L274.863 74.6147Z" fill="#38495B"/>
<path d="M272.535 74.0713L272.535 68.0889L269.265 68.0889L269.265 74.6147L272.535 74.6147L272.535 74.0713Z" fill="#38495B"/>
<path d="M274.863 88.3344L278.133 88.3344L278.133 81.8086L274.863 81.8086L274.863 87.791L274.863 88.3344Z" fill="#38495B"/>
<path d="M272.535 87.791L272.535 81.8086L269.265 81.8086L269.265 88.3344L272.535 88.3344L272.535 87.791Z" fill="#FF6584"/>
<path d="M274.863 102.562L278.133 102.562L278.133 96.0361L274.863 96.0361L274.863 102.019L274.863 102.562Z" fill="#38495B"/>
<path d="M272.535 102.019L272.535 96.0361L269.265 96.0361L269.265 102.562L272.535 102.562L272.535 102.019Z" fill="#38495B"/>
<path d="M255.037 54.3701H221.938V61.4839H255.037V54.3701Z" fill="#465C72"/>
<path d="M255.037 68.0889H221.938V75.2027H255.037V68.0889Z" fill="#465C72"/>
<path d="M255.037 81.8086H221.938V88.9224H255.037V81.8086Z" fill="#FF6584"/>
<path d="M255.037 96.0361H221.938V102.642H255.037V96.0361Z" fill="#465C72"/>
<path d="M40.6552 91.4629H39.6367V124.491H40.6552V91.4629Z" fill="#465C72"/>
<path d="M48.2911 95.9979C48.3442 107.504 40.2399 116.869 40.2399 116.869C40.2399 116.869 32.0494 107.579 31.9964 96.0729C31.9433 84.567 40.0476 75.2021 40.0476 75.2021C40.0476 75.2021 48.238 84.492 48.2911 95.9979Z" fill="#568DC4"/>
<path d="M124.167 91.4629H123.148V124.491H124.167V91.4629Z" fill="#465C72"/>
<path d="M131.811 95.9979C131.864 107.504 123.759 116.869 123.759 116.869C123.759 116.869 115.569 107.579 115.516 96.0729C115.463 84.567 123.567 75.2021 123.567 75.2021C123.567 75.2021 131.758 84.492 131.811 95.9979Z" fill="#568DC4"/>
<path d="M290.679 91.4629H289.66V124.491H290.679V91.4629Z" fill="#465C72"/>
<path d="M298.322 95.9979C298.375 107.504 290.271 116.869 290.271 116.869C290.271 116.869 282.081 107.579 282.028 96.0729C281.975 84.567 290.079 75.2021 290.079 75.2021C290.079 75.2021 298.269 84.492 298.322 95.9979Z" fill="#568DC4"/>
<path d="M340 123.983H0V125H340V123.983Z" fill="#465C72"/>
</svg>
