<svg width="340" height="125" viewBox="0 0 340 125" fill="none" xmlns="http://www.w3.org/2000/svg">
<path d="M273.888 55.2471C283.45 55.2471 291.202 47.5122 291.202 37.9707C291.202 28.4293 283.45 20.6944 273.888 20.6944C264.326 20.6944 256.574 28.4293 256.574 37.9707C256.574 47.5122 264.326 55.2471 273.888 55.2471Z" fill="#FF6584"/>
<path d="M301.382 91.463H300.363V124.491H301.382V91.463Z" fill="#465C72"/>
<path d="M309.026 95.9984C309.079 107.504 300.974 116.869 300.974 116.869C300.974 116.869 292.784 107.579 292.731 96.0734C292.678 84.5675 300.782 75.2026 300.782 75.2026C300.782 75.2026 308.972 84.4925 309.026 95.9984Z" fill="#F5F9FE"/>
<path d="M309.026 95.9984C309.079 107.504 300.974 116.869 300.974 116.869C300.974 116.869 292.784 107.579 292.731 96.0734C292.678 84.5675 300.782 75.2026 300.782 75.2026C300.782 75.2026 308.972 84.4925 309.026 95.9984Z" fill="#8597A8"/>
<path d="M143.778 26.4227C150.95 26.4227 156.764 20.5078 156.764 13.2114C156.764 5.91493 150.95 0 143.778 0C136.607 0 130.793 5.91493 130.793 13.2114C130.793 20.5078 136.607 26.4227 143.778 26.4227Z" fill="#EEF7FF"/>
<path d="M119.584 28.4548C124.646 28.4548 128.75 24.3599 128.75 19.3085C128.75 14.2571 124.646 10.1622 119.584 10.1622C114.522 10.1622 110.418 14.2571 110.418 19.3085C110.418 24.3599 114.522 28.4548 119.584 28.4548Z" fill="#EEF7FF"/>
<path d="M213.496 120.91C214.194 123.435 216.587 124.999 216.587 124.999C216.587 124.999 217.846 122.469 217.148 119.943C216.45 117.417 214.058 115.853 214.058 115.853C214.058 115.853 212.798 118.384 213.496 120.91Z" fill="#465C72"/>
<path d="M214.643 120.372C216.611 122.196 216.852 125 216.852 125C216.852 125 213.9 124.846 211.932 123.022C209.963 121.198 209.723 118.394 209.723 118.394C209.723 118.394 212.674 118.547 214.643 120.372Z" fill="#F5F9FE"/>
<path d="M129.461 101.242L127.734 98.3294L143.846 84.3495H185.277V88.4267L170.316 104.737L153.053 108.232L129.461 101.242Z" fill="#EEF7FF"/>
<path opacity="0.1" d="M129.461 101.242L127.734 98.3294L143.846 84.3495H185.277V88.4267L170.316 104.737L153.053 108.232L129.461 101.242Z" fill="#465C72"/>
<path d="M192.492 92.8397V83.841H187.08V86.6786L185.377 84.7393L171.6 98.5429L169.304 100.843L166.434 112.346L171.6 124.999H198.006V99.118L192.492 92.8397Z" fill="#EEF7FF"/>
<path d="M171.528 98.5764H127.734V124.999H171.528V98.5764Z" fill="white"/>
<path d="M152.683 106.199H144.535V124.999H152.683V106.199Z" fill="#8597A8"/>
<path d="M137.703 112.724L140.973 112.724L140.973 106.199L137.703 106.199L137.703 112.18L137.703 112.724Z" fill="#8597A8"/>
<path d="M135.375 112.18L135.375 106.199L132.105 106.199L132.105 112.724L135.375 112.724L135.375 112.18Z" fill="#8597A8"/>
<path d="M161.847 112.724L165.117 112.724L165.117 106.199L161.847 106.199L161.847 112.18L161.847 112.724Z" fill="#8597A8"/>
<path d="M159.523 112.18L159.523 106.199L156.253 106.199L156.253 112.724L159.523 112.724L159.523 112.18Z" fill="#8597A8"/>
<path d="M186.578 112.724L189.848 112.724L189.848 106.199L186.578 106.199L186.578 112.18L186.578 112.724Z" fill="#8597A8"/>
<path d="M184.766 112.18L184.766 106.199L181.496 106.199L181.496 112.724L184.766 112.724L184.766 112.18Z" fill="#8597A8"/>
<path d="M51.6811 52.9896L48.8008 50.7267L64.9315 36.5855H105.834V49.0299L79.334 66.5651L51.6811 52.9896Z" fill="#EEF7FF"/>
<path opacity="0.1" d="M51.6811 52.9896L48.8008 50.7267L64.9315 36.5855H105.834V49.0299L79.334 66.5651L51.6811 52.9896Z" fill="#465C72"/>
<path d="M113.235 44.6369V36.8724H107.814V38.774L105.791 36.5855L92.5638 50.9385L87.3884 54.3835L79.3633 112.917L91.4658 125H119.592V51.5126L113.235 44.6369Z" fill="#EEF7FF"/>
<path d="M92.5944 50.8126H48.8008V124.999H92.5944V50.8126Z" fill="white"/>
<path d="M73.7609 106.707H65.6133V125H73.7609V106.707Z" fill="#8597A8"/>
<path d="M58.9878 113.233L62.2578 113.233L62.2578 106.707L58.9878 106.707L58.9878 112.689L58.9878 113.233Z" fill="#8597A8"/>
<path d="M57.1641 112.689L57.1641 106.707L53.8941 106.707L53.8941 113.233L57.1641 113.233L57.1641 112.689Z" fill="#8597A8"/>
<path d="M83.7261 113.233L86.9961 113.233L86.9961 106.707L83.7261 106.707L83.7261 112.689L83.7261 113.233Z" fill="#8597A8"/>
<path d="M81.9062 112.689L81.9062 106.707L78.6363 106.707L78.6363 113.233L81.9062 113.233L81.9062 112.689Z" fill="#8597A8"/>
<path d="M107.55 61.4394L110.82 61.4394L110.82 54.3698L107.55 54.3698L107.55 60.8507L107.55 61.4394Z" fill="#8597A8"/>
<path d="M105.215 60.8507L105.215 54.3698L101.945 54.3698L101.945 61.4394L105.215 61.4394L105.215 60.8507Z" fill="#8597A8"/>
<path d="M107.55 75.1588L110.82 75.1588L110.82 68.0891L107.55 68.0891L107.55 74.5701L107.55 75.1588Z" fill="#8597A8"/>
<path d="M105.215 74.5701L105.215 68.0891L101.945 68.0891L101.945 75.1588L105.215 75.1588L105.215 74.5701Z" fill="#8597A8"/>
<path d="M107.55 88.8781L110.82 88.8781L110.82 81.8085L107.55 81.8085L107.55 88.2894L107.55 88.8781Z" fill="#8597A8"/>
<path d="M105.215 88.2894L105.215 81.8085L101.945 81.8085L101.945 88.8781L105.215 88.8781L105.215 88.2894Z" fill="#8597A8"/>
<path d="M107.55 103.106L110.82 103.106L110.82 96.0364L107.55 96.0364L107.55 102.517L107.55 103.106Z" fill="#8597A8"/>
<path d="M105.215 102.517L105.215 96.0364L101.945 96.0364L101.945 103.106L105.215 103.106L105.215 102.517Z" fill="#8597A8"/>
<path d="M86.9983 54.3698H53.8984V61.4836H86.9983V54.3698Z" fill="#8597A8"/>
<path d="M86.9983 68.0891H53.8984V75.2029H86.9983V68.0891Z" fill="#8597A8"/>
<path d="M86.9983 81.8085H53.8984V88.9223H86.9983V81.8085Z" fill="#8597A8"/>
<path d="M86.9983 96.0364H53.8984V102.642H86.9983V96.0364Z" fill="#8597A8"/>
<path d="M219.728 52.9896L216.848 50.7267L232.978 36.5855H273.881V49.0299L247.381 66.5651L219.728 52.9896Z" fill="#EEF7FF"/>
<path opacity="0.1" d="M219.728 52.9896L216.848 50.7267L232.978 36.5855H273.881V49.0299L247.381 66.5651L219.728 52.9896Z" fill="#465C72"/>
<path d="M281.274 44.6369V36.8724H275.853V38.774L273.83 36.5855L260.603 50.9385L255.427 54.3835L247.402 112.917L259.505 125H287.631V51.5126L281.274 44.6369Z" fill="#EEF7FF"/>
<path d="M260.641 50.8126H216.848V124.999H260.641V50.8126Z" fill="white"/>
<path d="M241.8 106.707H233.652V125H241.8V106.707Z" fill="#8597A8"/>
<path d="M227.035 113.233L230.305 113.233L230.305 106.707L227.035 106.707L227.035 112.689L227.035 113.233Z" fill="#8597A8"/>
<path d="M225.207 112.689L225.207 106.707L221.937 106.707L221.937 113.233L225.207 113.233L225.207 112.689Z" fill="#8597A8"/>
<path d="M251.773 113.233L255.043 113.233L255.043 106.707L251.773 106.707L251.773 112.689L251.773 113.233Z" fill="#8597A8"/>
<path d="M249.945 112.689L249.945 106.707L246.675 106.707L246.675 113.233L249.945 113.233L249.945 112.689Z" fill="#8597A8"/>
<path d="M274.863 60.8956L278.133 60.8956L278.133 54.3698L274.863 54.3698L274.863 60.3522L274.863 60.8956Z" fill="#8597A8"/>
<path d="M272.535 60.3522L272.535 54.3698L269.265 54.3698L269.265 60.8956L272.535 60.8956L272.535 60.3522Z" fill="#8597A8"/>
<path d="M274.863 74.615L278.133 74.615L278.133 68.0891L274.863 68.0891L274.863 74.0716L274.863 74.615Z" fill="#8597A8"/>
<path d="M272.535 74.0716L272.535 68.0891L269.265 68.0891L269.265 74.615L272.535 74.615L272.535 74.0716Z" fill="#8597A8"/>
<path d="M274.863 88.3343L278.133 88.3343L278.133 81.8085L274.863 81.8085L274.863 87.7909L274.863 88.3343Z" fill="#8597A8"/>
<path d="M272.535 87.7909L272.535 81.8085L269.265 81.8085L269.265 88.3343L272.535 88.3343L272.535 87.7909Z" fill="#8597A8"/>
<path d="M274.863 102.562L278.133 102.562L278.133 96.0364L274.863 96.0364L274.863 102.019L274.863 102.562Z" fill="#8597A8"/>
<path d="M272.535 102.019L272.535 96.0364L269.265 96.0364L269.265 102.562L272.535 102.562L272.535 102.019Z" fill="#8597A8"/>
<path d="M255.037 54.3698H221.938V61.4836H255.037V54.3698Z" fill="#8597A8"/>
<path d="M255.037 68.0891H221.938V75.2029H255.037V68.0891Z" fill="#8597A8"/>
<path d="M255.037 81.8085H221.938V88.9223H255.037V81.8085Z" fill="#8597A8"/>
<path d="M255.037 96.0364H221.938V102.642H255.037V96.0364Z" fill="#8597A8"/>
<path d="M40.6552 91.463H39.6367V124.491H40.6552V91.463Z" fill="#465C72"/>
<path d="M48.2911 95.9984C48.3442 107.504 40.2399 116.869 40.2399 116.869C40.2399 116.869 32.0494 107.579 31.9964 96.0734C31.9433 84.5675 40.0476 75.2026 40.0476 75.2026C40.0476 75.2026 48.238 84.4925 48.2911 95.9984Z" fill="#F5F9FE"/>
<path d="M124.167 91.463H123.148V124.491H124.167V91.463Z" fill="#465C72"/>
<path d="M131.811 95.9984C131.864 107.504 123.759 116.869 123.759 116.869C123.759 116.869 115.569 107.579 115.516 96.0734C115.463 84.5675 123.567 75.2026 123.567 75.2026C123.567 75.2026 131.758 84.4925 131.811 95.9984Z" fill="#F5F9FE"/>
<path d="M290.679 91.463H289.66V124.491H290.679V91.463Z" fill="#465C72"/>
<path d="M298.322 95.9984C298.375 107.504 290.271 116.869 290.271 116.869C290.271 116.869 282.081 107.579 282.028 96.0734C281.975 84.5675 290.079 75.2026 290.079 75.2026C290.079 75.2026 298.269 84.4925 298.322 95.9984Z" fill="#F5F9FE"/>
<path d="M340 123.984H0V125H340V123.984Z" fill="#8597A8"/>
</svg>
