<svg width="40" height="40" viewBox="0 0 40 40" fill="none" xmlns="http://www.w3.org/2000/svg">
<path d="M28.0148 31.9387C28.0148 32.9942 27.5926 34.0064 26.8411 34.7527C26.0896 35.4991 25.0703 35.9183 24.0074 35.9183C22.9446 35.9183 21.9253 35.4991 21.1737 34.7527C20.4222 34.0064 20 32.9942 20 31.9387V22.653M34.6939 22.653C34.345 19.0231 32.6461 15.6526 29.9291 13.1997C27.2121 10.7469 23.672 9.38773 20 9.38773C16.328 9.38773 12.7879 10.7469 10.0709 13.1997C7.35387 15.6526 5.65504 19.0231 5.30612 22.653H34.6939Z" stroke="#60A7E9" stroke-width="2" stroke-linecap="round" stroke-linejoin="round"/>
<line x1="10.3877" y1="5.89798" x2="10.3877" y2="8.79594" stroke="#60A7E9" stroke-width="2" stroke-linecap="round"/>
<line x1="20.1837" y1="3.44899" x2="20.1837" y2="6.34695" stroke="#60A7E9" stroke-width="2" stroke-linecap="round"/>
<line x1="29.9796" y1="5.89798" x2="29.9796" y2="8.79594" stroke="#60A7E9" stroke-width="2" stroke-linecap="round"/>
</svg>
