<svg width="375" height="160" viewBox="0 0 375 160" fill="none" xmlns="http://www.w3.org/2000/svg">
<path fill-rule="evenodd" clip-rule="evenodd" d="M32.2919 132.637L43.385 126.18L43.5352 126.093H51.1206V118.866L38.635 113.53L43.2214 97.9233L56.4798 101.552V99.3925L62.2473 101.01V103.13L78.5267 107.586H81.4916V105.308L87.2591 105.451V107.586H88.3083V105.324H95.0841L97.5222 107.586H98.436V107.559H107.045V107.586H107.692V126.093H108.227L114.2 133.933H62.2565H47.4516H32.2919V132.637ZM62.2565 132.637H47.4516H34.8674L43.8831 127.389H79.4774V128.172H79.0244V128.97H79.4774V129.614H79.0244V130.412H79.4774V131.057H79.0244V131.855H79.4774V132.637H62.2565ZM86.1375 127.389H107.588L111.585 132.637H86.1375V131.855H86.7038V131.057H86.1375V130.412H86.7038V129.614H86.1375V128.97H86.7038V128.172H86.1375V127.389ZM105.739 108.883H106.399V126.093H105.739V108.883ZM89.6009 106.621H94.5777L95.6182 107.586H89.6009V106.621ZM82.7842 106.637L85.9665 106.716V107.586H82.7842V106.637ZM57.7724 101.102L60.9547 101.993V102.777L57.7724 101.906V101.102ZM43.5813 104.311V101.285L44.1034 99.5085L44.6273 99.6522V104.686L45.4231 104.97V99.8699L46.4692 100.156V105.344L47.2645 105.629V100.374L48.311 100.66V106.003L49.1064 106.288V100.878L50.1524 101.164V106.662L50.9482 106.946V101.382L51.9943 101.668V107.321L52.7896 107.605V101.886L53.8361 102.172V107.979L54.632 108.264V102.39L55.678 102.677V108.638L56.4733 108.922V102.894L57.5198 103.181V109.297L58.3152 109.581V103.398L59.3612 103.685V109.956L60.1571 110.241V103.902L61.2031 104.189V110.615L61.9989 110.9V104.406L63.045 104.692V111.273L63.8403 111.558V104.911L64.8868 105.197V111.932L65.6822 112.217V105.415L66.7287 105.701V112.591L67.524 112.876V105.918L68.57 106.205V113.25L69.3659 113.534V106.422L70.4119 106.709V113.909L71.2077 114.193V106.926L72.2538 107.213V114.567L73.0491 114.852V107.431L74.0956 107.717V115.226L74.891 115.51V107.935L75.937 108.221V115.885L76.7328 116.169V108.439L77.7789 108.725V116.544L78.4535 116.785L78.5747 116.734V108.883H79.6207V116.29L80.4165 115.954V108.883H81.4626V115.51L82.2579 115.173V108.883H83.3044V114.73L84.0998 114.393V108.883H85.1458V113.949L85.9416 113.613V108.883H86.9877V113.169L87.783 112.832V108.883H88.8295V112.389L89.6253 112.052V108.883H90.6714V111.608L91.4667 111.272V108.883H92.5132V110.828L93.3086 110.491V108.883H94.3546V110.048L95.1504 109.711V108.883H96.1965V109.268L96.9918 108.931V108.883H98.0383V108.903H98.8337V108.883H99.8797V108.903H100.676V108.883H101.722V117.753L102.517 117.318V108.883H103.563V116.747V126.093H85.9416V115.552L85.1458 115.893V126.093H84.0998V116.339L83.3044 116.68V126.093H82.2579V117.127L81.4626 117.467V126.093H80.4165V117.914L79.6207 118.254V126.093H78.5747V118.57L77.7789 118.356V126.093H76.7328V118.076L75.937 117.863V126.093H74.891V117.583L74.0956 117.37V126.093H73.0491V117.089L72.2538 116.876V126.093H71.2077V116.596L70.4119 116.383V126.093H69.3659V116.103L68.57 115.889V126.093H67.524V115.609L66.7287 115.396V126.093H65.6822V115.116L64.8868 114.903V126.093H63.8403V114.623L63.045 114.41V126.093H61.9989V114.129L61.2031 113.916V126.093H60.1571V113.636L59.3612 113.423V126.093H58.3152V113.142L57.5198 112.929V126.093H56.4733V112.649L55.678 112.436V126.093H54.632V112.156L53.8361 111.943V126.093H52.7896V111.662L51.9943 111.449V117.83L50.9482 117.383V111.169L50.1524 110.956V117.043L49.1064 116.596V110.675L48.311 110.462V116.256L47.2645 115.809V110.182L46.4692 109.969V115.469L45.4231 115.022V109.689L44.6273 109.476V114.681L43.5813 114.235V109.195L42.7859 108.982V113.894L41.7394 113.448V107.553L42.7859 103.993V104.027L43.5813 104.311ZM40.9436 110.26V113.107L40.2003 112.79L40.9436 110.26ZM104.359 108.883H104.944V116.747V126.093H104.359V108.883ZM84.8444 132.637H80.77V127.389H84.8444V132.637Z" fill="white"/>
<path fill-rule="evenodd" clip-rule="evenodd" d="M40.9436 110.26V113.107L40.2003 112.79L40.9436 110.26Z" fill="white"/>
<path d="M59.0287 129.571H44.2238V128.274H59.0287V129.571Z" fill="white"/>
<path d="M66.2089 128.97H65.2145V128.171H66.2089V128.97Z" fill="white"/>
<path d="M77.1937 128.97H75.3628V128.171H77.1937V128.97Z" fill="white"/>
<path d="M73.5316 128.97H71.7007V128.171H73.5316V128.97Z" fill="white"/>
<path d="M69.8701 128.97H68.0393V128.171H69.8701V128.97Z" fill="white"/>
<path d="M66.2089 130.412H65.2145V129.614H66.2089V130.412Z" fill="white"/>
<path d="M77.1937 130.412H75.3628V129.614H77.1937V130.412Z" fill="white"/>
<path d="M73.5316 130.412H71.7007V129.614H73.5316V130.412Z" fill="white"/>
<path d="M69.8701 130.412H68.0393V129.614H69.8701V130.412Z" fill="white"/>
<path d="M66.2089 131.855H65.2145V131.056H66.2089V131.855Z" fill="white"/>
<path d="M69.8701 131.855H68.0393V131.056H69.8701V131.855Z" fill="white"/>
<path d="M73.5316 131.855H71.7007V131.056H73.5316V131.855Z" fill="white"/>
<path d="M77.1937 131.855H75.3628V131.056H77.1937V131.855Z" fill="white"/>
<path d="M97.6894 128.97H95.8586V128.171H97.6894V128.97Z" fill="white"/>
<path d="M94.0275 128.97H92.1967V128.171H94.0275V128.97Z" fill="white"/>
<path d="M90.3652 128.97H88.5344V128.171H90.3652V128.97Z" fill="white"/>
<path d="M100.514 128.97H99.52V128.171H100.514V128.97Z" fill="white"/>
<path d="M97.6894 130.412H95.8586V129.614H97.6894V130.412Z" fill="white"/>
<path d="M90.3652 130.412H88.5344V129.614H90.3652V130.412Z" fill="white"/>
<path d="M94.0275 130.412H92.1967V129.614H94.0275V130.412Z" fill="white"/>
<path d="M100.514 130.412H99.52V129.614H100.514V130.412Z" fill="white"/>
<path d="M90.3652 131.855H88.5344V131.056H90.3652V131.855Z" fill="white"/>
<path d="M94.0275 131.855H92.1967V131.056H94.0275V131.855Z" fill="white"/>
<path d="M97.6894 131.855H95.8586V131.056H97.6894V131.855Z" fill="white"/>
<path d="M100.514 131.855H99.52V131.056H100.514V131.855Z" fill="white"/>
<path d="M60.6429 131.752H45.8381V130.455H60.6429V131.752Z" fill="white"/>
<path d="M87.7835 125.369L86.9882 125.803V115.105L87.7835 114.766V125.369Z" fill="white"/>
<path d="M89.6255 124.362L88.8297 124.797V114.318L89.6255 113.978V124.362Z" fill="white"/>
<path d="M95.1505 121.344L94.3547 121.778V111.957L95.1505 111.617V121.344Z" fill="white"/>
<path d="M96.9922 120.337L96.1969 120.772V111.17L96.9922 110.83V120.337Z" fill="white"/>
<path d="M93.3085 122.35L92.5131 122.784V112.744L93.3085 112.404V122.35Z" fill="white"/>
<path d="M91.4665 123.356L90.6707 123.791V113.531L91.4665 113.191V123.356Z" fill="white"/>
<path d="M98.8337 119.331L98.0379 119.765V110.383L98.8337 110.043V119.331Z" fill="white"/>
<path d="M100.675 118.325L99.8797 118.759V109.595L100.675 109.256V118.325Z" fill="white"/>
<path d="M-27.7368 188.263H391.474C391.474 188.263 334.158 151.772 287.974 131.421C241.79 111.07 207.447 114.368 158.895 114.368C110.342 114.368 81.6842 125.974 32.6579 126.447C-16.3684 126.921 -27.7368 113.895 -27.7368 113.895V188.263Z" fill="url(#paint0_linear)"/>
<path d="M232.127 110.13C232.127 113.76 229.697 115.028 226.7 115.028C223.702 115.028 221.272 113.76 221.272 110.13C221.272 106.5 226.7 101.882 226.7 101.882C226.7 101.882 232.127 106.5 232.127 110.13Z" fill="white"/>
<path d="M226.495 113.774L226.55 111L228.878 107.568L226.559 110.565L226.584 109.317L228.189 106.834L226.591 108.987L226.636 106.744L227.641 105.289L226.636 106.597L226.672 103.511L226.494 107.723L225.352 106.326L226.481 107.93L226.318 110.435L226.313 110.369L224.3 108.101L226.307 110.604L226.287 110.917L226.283 110.922L226.285 110.947L225.872 121.841H226.423L226.49 114.021L228.492 111.525L226.495 113.774Z" fill="#44D8EE"/>
<path d="M129.496 117.268C129.496 119.248 128.17 119.939 126.535 119.939C124.9 119.939 123.575 119.248 123.575 117.268C123.575 115.288 126.535 112.769 126.535 112.769C126.535 112.769 129.496 115.288 129.496 117.268Z" fill="white"/>
<path d="M126.423 119.255L126.454 117.742L127.724 115.87L126.459 117.505L126.472 116.824L127.347 115.47L126.476 116.644L126.501 115.421L127.049 114.627L126.501 115.34L126.52 113.658L126.423 115.955L125.8 115.193L126.416 116.067L126.327 117.434L126.324 117.398L125.226 116.161L126.321 117.526L126.31 117.697L126.308 117.699L126.309 117.714L126.084 123.656H126.385L126.421 119.39L127.513 118.028L126.423 119.255Z" fill="#2AB6D4"/>
<path d="M19.2714 120.512C19.2714 124.573 16.5529 125.991 13.1994 125.991C9.84587 125.991 7.12732 124.573 7.12732 120.512C7.12732 116.451 13.1994 111.284 13.1994 111.284C13.1994 111.284 19.2714 116.451 19.2714 120.512Z" fill="white"/>
<path d="M12.9695 124.588L13.0321 121.485L15.636 117.645L13.0419 120.998L13.07 119.602L14.8647 116.825L13.0775 119.233L13.128 116.723L14.2523 115.096L13.128 116.559L13.1676 113.107L12.969 117.819L11.6913 116.256L12.954 118.05L12.7719 120.853L12.7665 120.779L10.514 118.242L12.7597 121.041L12.7369 121.392L12.7328 121.397L12.7347 121.426L12.2728 133.613H12.8899L12.964 124.864L15.2041 122.072L12.9695 124.588Z" fill="#2AB6D4"/>
<path d="M60.316 52.0769C60.316 50.3964 59.855 48.7497 58.9856 47.3242C58.1162 45.8987 56.8732 44.7516 55.3981 44.0134C53.923 43.2753 52.2751 42.9758 50.6419 43.149C49.0087 43.3222 47.4558 43.9612 46.1599 44.9932C45.057 43.687 43.6337 42.7054 42.0368 42.1492C40.4399 41.5931 38.7271 41.4827 37.0746 41.8293C35.4221 42.1759 33.8898 42.967 32.6354 44.1211C31.3809 45.2753 30.4497 46.7508 29.9377 48.3957C29.081 47.6162 28.052 47.0614 26.9394 46.7789C25.8268 46.4965 24.6638 46.4948 23.5505 46.7742C22.4371 47.0535 21.4067 47.6054 20.5479 48.3824C19.6891 49.1595 19.0275 50.1384 18.6201 51.235C18.2127 52.3316 18.0717 53.5131 18.2092 54.6778C18.3466 55.8426 18.7585 56.9557 19.4093 57.9215C20.0601 58.8873 20.9304 59.6768 21.9453 60.2222C22.9602 60.7677 24.0894 61.0526 25.2357 61.0526C25.3457 61.0526 25.455 61.0496 25.5638 61.0445C25.6761 61.0495 25.7889 61.0526 25.9024 61.0526H52.4691C54.3806 61.0525 56.2237 60.3241 57.6392 59.0093C59.0547 57.6945 59.9413 55.8875 60.1262 53.9403C60.2526 53.3276 60.3162 52.7031 60.316 52.0769Z" fill="url(#paint1_linear)"/>
<path d="M229.895 63.2302C229.895 62.0416 229.558 60.8769 228.923 59.8686C228.288 58.8603 227.381 58.0489 226.303 57.5268C225.226 57.0047 224.022 56.7929 222.83 56.9154C221.637 57.0379 220.503 57.4899 219.556 58.2198C218.751 57.2959 217.711 56.6016 216.545 56.2082C215.379 55.8149 214.128 55.7368 212.921 55.9819C211.714 56.2271 210.595 56.7866 209.679 57.603C208.763 58.4193 208.083 59.463 207.709 60.6264C207.083 60.0751 206.331 59.6827 205.519 59.4829C204.706 59.2831 203.857 59.282 203.044 59.4795C202.231 59.6771 201.478 60.0675 200.851 60.6171C200.224 61.1667 199.74 61.8591 199.443 62.6348C199.145 63.4104 199.042 64.2461 199.143 65.0699C199.243 65.8938 199.544 66.6811 200.019 67.3642C200.495 68.0473 201.13 68.6058 201.871 68.9916C202.613 69.3774 203.437 69.5789 204.275 69.5789C204.355 69.5789 204.435 69.5768 204.514 69.5732C204.596 69.5767 204.679 69.5789 204.761 69.5789H224.164C225.56 69.5788 226.906 69.0636 227.94 68.1336C228.974 67.2037 229.621 65.9255 229.756 64.5483C229.849 64.1149 229.895 63.6732 229.895 63.2302Z" fill="url(#paint2_linear)"/>
<path d="M167.842 57.208C167.842 54.6259 167.112 52.0956 165.735 49.9052C164.357 47.7147 162.388 45.9521 160.051 44.8179C157.714 43.6837 155.103 43.2235 152.516 43.4896C149.928 43.7558 147.468 44.7376 145.415 46.3233C143.668 44.3163 141.413 42.8079 138.883 41.9534C136.353 41.0988 133.64 40.9291 131.022 41.4617C128.404 41.9943 125.976 43.2099 123.989 44.9833C122.001 46.7568 120.526 49.024 119.715 51.5515C118.358 50.3538 116.728 49.5013 114.965 49.0673C113.202 48.6333 111.36 48.6308 109.596 49.0599C107.832 49.4891 106.2 50.3372 104.839 51.5312C103.478 52.7252 102.43 54.2294 101.785 55.9144C101.139 57.5995 100.916 59.4149 101.134 61.2046C101.351 62.9943 102.004 64.7047 103.035 66.1888C104.066 67.6728 105.445 68.886 107.053 69.7241C108.661 70.5621 110.45 71 112.266 70.9999C112.44 70.9999 112.613 70.9954 112.785 70.9876C112.963 70.9953 113.142 70.9999 113.322 70.9999H155.411C158.439 70.9998 161.359 69.8805 163.602 67.8602C165.844 65.84 167.249 63.0634 167.542 60.0714C167.742 59.1299 167.843 58.1703 167.842 57.208Z" fill="url(#paint3_linear)"/>
<path d="M188.211 27.9984C188.211 27.2196 187.998 26.4565 187.598 25.7959C187.197 25.1353 186.625 24.6037 185.945 24.2617C185.266 23.9196 184.506 23.7808 183.754 23.8611C183.002 23.9413 182.286 24.2374 181.689 24.7157C181.181 24.1104 180.526 23.6555 179.79 23.3977C179.054 23.14 178.265 23.0889 177.504 23.2495C176.743 23.4101 176.037 23.7767 175.459 24.3115C174.881 24.8464 174.452 25.5302 174.216 26.2924C173.822 25.9312 173.348 25.6741 172.835 25.5432C172.322 25.4123 171.787 25.4116 171.274 25.541C170.761 25.6704 170.286 25.9262 169.891 26.2863C169.495 26.6464 169.19 27.1001 169.003 27.6082C168.815 28.1164 168.75 28.6639 168.813 29.2037C168.877 29.7434 169.066 30.2593 169.366 30.7068C169.666 31.1544 170.067 31.5203 170.534 31.773C171.002 32.0258 171.522 32.1578 172.05 32.1578C172.101 32.1578 172.151 32.1565 172.201 32.1541C172.253 32.1564 172.305 32.1578 172.357 32.1578H184.596C185.476 32.1578 186.326 31.8202 186.978 31.2109C187.63 30.6017 188.038 29.7643 188.123 28.8619C188.182 28.578 188.211 28.2886 188.211 27.9984Z" fill="url(#paint4_linear)"/>
<path d="M98.6844 38.9648C98.6844 38.0221 98.4306 37.0984 97.9519 36.2987C97.4733 35.499 96.7889 34.8555 95.9768 34.4414C95.1647 34.0273 94.2574 33.8593 93.3582 33.9565C92.459 34.0536 91.6041 34.4121 90.8906 34.991C90.2834 34.2583 89.4998 33.7076 88.6206 33.3956C87.7414 33.0837 86.7984 33.0217 85.8886 33.2161C84.9788 33.4106 84.1352 33.8543 83.4445 34.5018C82.7539 35.1493 82.2412 35.977 81.9593 36.8997C81.4876 36.4625 80.9211 36.1512 80.3086 35.9928C79.696 35.8343 79.0557 35.8334 78.4427 35.9901C77.8298 36.1468 77.2625 36.4564 76.7896 36.8923C76.3168 37.3282 75.9525 37.8774 75.7282 38.4925C75.504 39.1077 75.4263 39.7705 75.502 40.4239C75.5777 41.0772 75.8044 41.7017 76.1627 42.2435C76.521 42.7853 77.0002 43.2282 77.559 43.5341C78.1177 43.8401 78.7394 43.9999 79.3705 43.9999C79.4311 43.9999 79.4913 43.9983 79.5512 43.9954C79.613 43.9982 79.6751 43.9999 79.7376 43.9999H94.3642C95.4166 43.9999 96.4313 43.5913 97.2107 42.8537C97.99 42.1161 98.4781 41.1025 98.5799 40.0101C98.6495 39.6664 98.6845 39.3161 98.6844 38.9648Z" fill="url(#paint5_linear)"/>
<g opacity="0.5">
<path d="M184.502 4.02098C184.178 5.3834 183.767 5.70768 183.379 5.61472C182.99 5.52177 182.77 5.04677 183.095 3.68434C183.42 2.32192 184.555 0.680946 184.555 0.680946C184.555 0.680946 184.827 2.65855 184.502 4.02098Z" fill="white"/>
<path d="M264.517 23.9865C264.192 25.3489 263.782 25.6732 263.393 25.5802C263.005 25.4873 262.785 25.0123 263.11 23.6498C263.435 22.2874 264.57 20.6464 264.57 20.6464C264.57 20.6464 264.842 22.624 264.517 23.9865Z" fill="white"/>
<path d="M44.4954 22.5681C44.1706 23.9305 43.7604 24.2548 43.3718 24.1619C42.9832 24.0689 42.7635 23.5939 43.0882 22.2315C43.413 20.8691 44.5479 19.2281 44.5479 19.2281C44.5479 19.2281 44.8202 21.2057 44.4954 22.5681Z" fill="white"/>
<path d="M37.0118 72.987C36.6576 74.3494 36.2102 74.6737 35.7865 74.5807C35.3627 74.4878 35.1231 74.0128 35.4773 72.6503C35.8315 71.2879 37.069 69.6469 37.069 69.6469C37.069 69.6469 37.366 71.6245 37.0118 72.987Z" fill="white"/>
<path d="M12.2552 37.836C11.9304 39.1984 11.5201 39.5227 11.1315 39.4297C10.743 39.3368 10.5232 38.8618 10.848 37.4994C11.1728 36.1369 12.3077 34.496 12.3077 34.496C12.3077 34.496 12.58 36.4736 12.2552 37.836Z" fill="white"/>
<path d="M203.059 33.7253C202.734 35.0877 202.324 35.412 201.935 35.319C201.547 35.2261 201.327 34.7511 201.652 33.3887C201.976 32.0262 203.111 30.3853 203.111 30.3853C203.111 30.3853 203.384 32.3629 203.059 33.7253Z" fill="white"/>
<path d="M107.51 17.283C107.185 18.6454 106.775 18.9697 106.386 18.8767C105.998 18.7838 105.778 18.3088 106.103 16.9463C106.428 15.5839 107.563 13.9429 107.563 13.9429C107.563 13.9429 107.835 15.9205 107.51 17.283Z" fill="white"/>
<path d="M199.248 64.2608C198.924 65.6232 198.513 65.9475 198.125 65.8546C197.736 65.7616 197.516 65.2866 197.841 63.9242C198.166 62.5618 199.301 60.9208 199.301 60.9208C199.301 60.9208 199.573 62.8984 199.248 64.2608Z" fill="white"/>
<path d="M238.816 3.77693C238.491 5.13936 238.081 5.46364 237.693 5.37068C237.304 5.27772 237.084 4.80272 237.409 3.4403C237.734 2.07788 238.869 0.436905 238.869 0.436905C238.869 0.436905 239.141 2.41451 238.816 3.77693Z" fill="white"/>
<path d="M241.95 48.0628C241.625 49.4252 241.215 49.7495 240.826 49.6565C240.438 49.5636 240.218 49.0886 240.543 47.7261C240.867 46.3637 242.002 44.7228 242.002 44.7228C242.002 44.7228 242.274 46.7004 241.95 48.0628Z" fill="white"/>
<path d="M151.383 48.0628C151.059 49.4252 150.648 49.7495 150.26 49.6565C149.871 49.5636 149.652 49.0886 149.976 47.7261C150.301 46.3637 151.436 44.7228 151.436 44.7228C151.436 44.7228 151.708 46.7004 151.383 48.0628Z" fill="white"/>
<path d="M203.847 94.747C203.523 96.1095 203.112 96.4337 202.724 96.3408C202.335 96.2478 202.115 95.7728 202.44 94.4104C202.765 93.048 203.9 91.407 203.9 91.407C203.9 91.407 204.172 93.3846 203.847 94.747Z" fill="white"/>
<path d="M20.0773 6.36972C19.7525 7.73215 19.3423 8.05643 18.9537 7.96347C18.5651 7.87052 18.3454 7.39552 18.6701 6.03309C18.9949 4.67066 20.1298 3.02969 20.1298 3.02969C20.1298 3.02969 20.4021 5.0073 20.0773 6.36972Z" fill="white"/>
<path d="M-0.146195 83.8834C-0.470977 85.2459 -0.881249 85.5701 -1.26983 85.4772C-1.6584 85.3842 -1.87814 84.9092 -1.55336 83.5468C-1.22858 82.1844 -0.0936891 80.5434 -0.0936891 80.5434C-0.0936891 80.5434 0.178589 82.521 -0.146195 83.8834Z" fill="white"/>
<path d="M33.2627 104.199C32.938 105.562 32.5277 105.886 32.1391 105.793C31.7505 105.7 31.5308 105.225 31.8556 103.863C32.1804 102.5 33.3152 100.859 33.3152 100.859C33.3152 100.859 33.5875 102.837 33.2627 104.199Z" fill="white"/>
<path d="M15.681 66.8538C15.3562 68.2163 14.9459 68.5406 14.5573 68.4476C14.1687 68.3546 13.949 67.8796 14.2738 66.5172C14.5986 65.1548 15.7335 63.5138 15.7335 63.5138C15.7335 63.5138 16.0057 65.4914 15.681 66.8538Z" fill="white"/>
<path d="M52.611 38.6672C52.2862 40.0296 51.8759 40.3539 51.4873 40.2609C51.0987 40.168 50.879 39.693 51.2038 38.3306C51.5286 36.9681 52.6635 35.3272 52.6635 35.3272C52.6635 35.3272 52.9357 37.3048 52.611 38.6672Z" fill="white"/>
<path d="M38.6749 131.793C38.3501 133.155 37.9399 133.48 37.5513 133.387C37.1627 133.294 36.943 132.819 37.2677 131.456C37.5925 130.094 38.7274 128.453 38.7274 128.453C38.7274 128.453 38.9997 130.431 38.6749 131.793Z" fill="white"/>
<path d="M142.298 126.457C141.973 127.819 141.563 128.144 141.174 128.051C140.785 127.958 140.566 127.483 140.89 126.12C141.215 124.758 142.35 123.117 142.35 123.117C142.35 123.117 142.622 125.095 142.298 126.457Z" fill="white"/>
<path d="M137.901 76.8366C137.576 78.199 137.166 78.5233 136.777 78.4303C136.388 78.3374 136.169 77.8624 136.493 76.5C136.818 75.1375 137.953 73.4966 137.953 73.4966C137.953 73.4966 138.225 75.4742 137.901 76.8366Z" fill="white"/>
<path d="M225.83 131.448C225.505 132.811 225.095 133.135 224.706 133.042C224.317 132.949 224.098 132.474 224.422 131.112C224.747 129.749 225.882 128.108 225.882 128.108C225.882 128.108 226.154 130.086 225.83 131.448Z" fill="white"/>
<path d="M69.7968 89.7241C69.472 91.0865 69.0617 91.4108 68.6731 91.3178C68.2845 91.2249 68.0648 90.7499 68.3896 89.3874C68.7144 88.025 69.8493 86.384 69.8493 86.384C69.8493 86.384 70.1215 88.3616 69.7968 89.7241Z" fill="white"/>
<path d="M165.836 146.766C165.511 148.128 165.101 148.452 164.712 148.359C164.323 148.266 164.104 147.792 164.428 146.429C164.753 145.067 165.888 143.426 165.888 143.426C165.888 143.426 166.16 145.403 165.836 146.766Z" fill="white"/>
<path d="M248.195 98.9071C247.871 100.27 247.46 100.594 247.072 100.501C246.683 100.408 246.463 99.9329 246.788 98.5705C247.113 97.2081 248.248 95.5671 248.248 95.5671C248.248 95.5671 248.52 97.5447 248.195 98.9071Z" fill="white"/>
<path d="M252.794 136.146C252.47 137.509 252.059 137.833 251.671 137.74C251.282 137.647 251.062 137.172 251.387 135.81C251.712 134.447 252.847 132.806 252.847 132.806C252.847 132.806 253.119 134.784 252.794 136.146Z" fill="white"/>
<path d="M228.564 84.2959C228.239 85.6583 227.829 85.9826 227.44 85.8896C227.052 85.7967 226.832 85.3217 227.157 83.9593C227.482 82.5968 228.617 80.9559 228.617 80.9559C228.617 80.9559 228.889 82.9335 228.564 84.2959Z" fill="white"/>
<path d="M134.97 8.13144C134.645 9.49387 134.234 9.81814 133.846 9.72519C133.457 9.63223 133.238 9.15723 133.562 7.7948C133.887 6.43238 135.022 4.7914 135.022 4.7914C135.022 4.7914 135.294 6.76901 134.97 8.13144Z" fill="white"/>
</g>
<defs>
<linearGradient id="paint0_linear" x1="119.507" y1="113.895" x2="119.507" y2="188.263" gradientUnits="userSpaceOnUse">
<stop stop-color="#42D7EE"/>
<stop offset="1" stop-color="#B1F5FF"/>
</linearGradient>
<linearGradient id="paint1_linear" x1="32.9656" y1="41.6315" x2="32.9656" y2="61.0526" gradientUnits="userSpaceOnUse">
<stop stop-color="#6AEBFF"/>
<stop offset="1" stop-color="#B1F5FF"/>
</linearGradient>
<linearGradient id="paint2_linear" x1="209.92" y1="55.842" x2="209.92" y2="69.5789" gradientUnits="userSpaceOnUse">
<stop stop-color="#6AEBFF"/>
<stop offset="1" stop-color="#B1F5FF"/>
</linearGradient>
<linearGradient id="paint3_linear" x1="124.512" y1="41.1578" x2="124.512" y2="70.9999" gradientUnits="userSpaceOnUse">
<stop stop-color="#6AEBFF"/>
<stop offset="1" stop-color="#B1F5FF"/>
</linearGradient>
<linearGradient id="paint4_linear" x1="175.611" y1="23.1578" x2="175.611" y2="32.1578" gradientUnits="userSpaceOnUse">
<stop stop-color="#6AEBFF"/>
<stop offset="1" stop-color="#B1F5FF"/>
</linearGradient>
<linearGradient id="paint5_linear" x1="83.6263" y1="33.1052" x2="83.6263" y2="43.9999" gradientUnits="userSpaceOnUse">
<stop stop-color="#6AEBFF"/>
<stop offset="1" stop-color="#B1F5FF"/>
</linearGradient>
</defs>
</svg>
