<svg width="350" height="157" viewBox="0 0 350 157" fill="none" xmlns="http://www.w3.org/2000/svg">
<path d="M188.781 94.7141V96.8383M188.781 98.9626V96.8383M188.781 96.8383L187.033 97.9004M188.781 96.8383L190.529 95.7762M188.781 96.8383L187.033 95.7762M188.781 96.8383L190.529 97.9004" stroke="white" stroke-width="0.584211" stroke-linecap="round" stroke-linejoin="round"/>
<path d="M150.908 76.5062V78.6304M150.908 80.7547V78.6304M150.908 78.6304L149.16 79.6925M150.908 78.6304L152.656 77.5683M150.908 78.6304L149.16 77.5683M150.908 78.6304L152.656 79.6925" stroke="white" stroke-width="0.584211" stroke-linecap="round" stroke-linejoin="round"/>
<path d="M113.618 99.5695V101.694M113.618 103.818V101.694M113.618 101.694L111.87 102.756M113.618 101.694L115.366 100.632M113.618 101.694L111.87 100.632M113.618 101.694L115.366 102.756" stroke="white" stroke-width="0.584211" stroke-linecap="round" stroke-linejoin="round"/>
<path d="M106.044 41.9111V44.0354M106.044 46.1597V44.0354M106.044 44.0354L104.296 45.0975M106.044 44.0354L107.792 42.9733M106.044 44.0354L104.296 42.9733M106.044 44.0354L107.792 45.0975" stroke="white" stroke-width="0.584211" stroke-linecap="round" stroke-linejoin="round"/>
<path d="M33.2115 11.5647V13.6889M33.2115 15.8132V13.6889M33.2115 13.6889L31.4635 14.7511M33.2115 13.6889L34.9594 12.6268M33.2115 13.6889L31.4635 12.6268M33.2115 13.6889L34.9594 14.7511" stroke="white" stroke-width="0.584211" stroke-linecap="round" stroke-linejoin="round"/>
<path d="M34.9595 80.7547V82.8789M34.9595 85.0032V82.8789M34.9595 82.8789L33.2115 83.941M34.9595 82.8789L36.7074 81.8168M34.9595 82.8789L33.2115 81.8168M34.9595 82.8789L36.7074 83.941" stroke="white" stroke-width="0.584211" stroke-linecap="round" stroke-linejoin="round"/>
<path d="M72.2494 62.5468V64.671M72.2494 66.7953V64.671M72.2494 64.671L70.5015 65.7332M72.2494 64.671L73.9974 63.6089M72.2494 64.671L70.5015 63.6089M72.2494 64.671L73.9974 65.7332" stroke="white" stroke-width="0.584211" stroke-linecap="round" stroke-linejoin="round"/>
<path d="M175.38 1.24686V3.37112M175.38 5.49537V3.37112M175.38 3.37112L173.632 4.43325M175.38 3.37112L177.128 2.30899M175.38 3.37112L173.632 2.30899M175.38 3.37112L177.128 4.43325" stroke="white" stroke-width="0.584211" stroke-linecap="round" stroke-linejoin="round"/>
<path d="M229.567 80.1477V82.272M229.567 84.3962V82.272M229.567 82.272L227.819 83.3341M229.567 82.272L231.315 81.2099M229.567 82.272L227.819 81.2099M229.567 82.272L231.315 83.3341" stroke="white" stroke-width="0.584211" stroke-linecap="round" stroke-linejoin="round"/>
<path d="M233.063 36.4488V38.573M233.063 40.6973V38.573M233.063 38.573L231.315 39.6352M233.063 38.573L234.811 37.5109M233.063 38.573L231.315 37.5109M233.063 38.573L234.811 39.6352" stroke="white" stroke-width="0.584211" stroke-linecap="round" stroke-linejoin="round"/>
<path d="M270.935 105.032V107.156M270.935 109.28V107.156M270.935 107.156L269.187 108.218M270.935 107.156L272.683 106.094M270.935 107.156L269.187 106.094M270.935 107.156L272.683 108.218" stroke="white" stroke-width="0.584211" stroke-linecap="round" stroke-linejoin="round"/>
<path d="M287.25 73.4715V75.5958M287.25 77.72V75.5958M287.25 75.5958L285.502 76.6579M287.25 75.5958L288.998 74.5336M287.25 75.5958L285.502 74.5336M287.25 75.5958L288.998 76.6579" stroke="white" stroke-width="0.584211" stroke-linecap="round" stroke-linejoin="round"/>
<path d="M279.093 11.5647V13.6889M279.093 15.8132V13.6889M279.093 13.6889L277.345 14.7511M279.093 13.6889L280.841 12.6268M279.093 13.6889L277.345 12.6268M279.093 13.6889L280.841 14.7511" stroke="white" stroke-width="0.584211" stroke-linecap="round" stroke-linejoin="round"/>
<path d="M330.949 32.8072V34.9315M330.949 37.0557V34.9315M330.949 34.9315L329.201 35.9936M330.949 34.9315L332.697 33.8693M330.949 34.9315L329.201 33.8693M330.949 34.9315L332.697 35.9936" stroke="white" stroke-width="0.584211" stroke-linecap="round" stroke-linejoin="round"/>
<path d="M334.445 84.3962V86.5205M334.445 88.6447V86.5205M334.445 86.5205L332.697 87.5826M334.445 86.5205L336.193 85.4584M334.445 86.5205L332.697 85.4584M334.445 86.5205L336.193 87.5826" stroke="white" stroke-width="0.584211" stroke-linecap="round" stroke-linejoin="round"/>
<path d="M309.973 120.812V122.936M309.973 125.061V122.936M309.973 122.936L308.225 123.998M309.973 122.936L311.721 121.874M309.973 122.936L308.225 121.874M309.973 122.936L311.721 123.998" stroke="white" stroke-width="0.584211" stroke-linecap="round" stroke-linejoin="round"/>
<path d="M72.2494 115.957V118.081M72.2494 120.205V118.081M72.2494 118.081L70.5015 119.143M72.2494 118.081L73.9974 117.019M72.2494 118.081L70.5015 117.019M72.2494 118.081L73.9974 119.143" stroke="white" stroke-width="0.584211" stroke-linecap="round" stroke-linejoin="round"/>
<path fill-rule="evenodd" clip-rule="evenodd" d="M230.368 135.968L231.342 129.628V122.673L229.998 108.673H156.361L154.987 122.672V129.607L155.623 135.968L155.774 137.474H230.137L230.368 135.968ZM191.073 132.802L192.326 135.063L193.579 132.802H191.073ZM198.245 130.908L201.05 135.968H228.904L229.798 130.147H225.058V128.989H229.896V123.29H225.058V122.131H229.836L228.69 110.179H157.667L156.493 122.131H160.548V123.29H156.432V128.989H160.548V130.147H156.494L157.077 135.968H183.953L186.757 130.908L189.561 135.968H191.8L189.531 131.875H195.12L192.852 135.968H195.442L198.245 130.908ZM198.245 132.762L196.469 135.968H200.022L198.245 132.762ZM186.757 132.762L184.981 135.968H188.534L186.757 132.762Z" fill="white"/>
<path fill-rule="evenodd" clip-rule="evenodd" d="M191.073 132.802L192.326 135.063L193.579 132.802H191.073ZM198.245 132.762L196.469 135.968H200.022L198.245 132.762ZM186.757 132.762L184.981 135.968H188.534L186.757 132.762Z" fill="white"/>
<path d="M173.895 122.131H171.67V123.289H173.895V122.131Z" fill="white"/>
<path d="M193.915 122.131H191.691V123.289H193.915V122.131Z" fill="white"/>
<path d="M164.997 123.289H170.558V122.131H164.997V123.289Z" fill="white"/>
<path d="M210.599 122.131H205.038V123.289H210.599V122.131Z" fill="white"/>
<path d="M163.884 122.131H161.66V123.289H163.884V122.131Z" fill="white"/>
<path d="M213.935 122.131H211.711V123.289H213.935V122.131Z" fill="white"/>
<path d="M200.589 122.131H195.028V123.289H200.589V122.131Z" fill="white"/>
<path d="M203.926 122.131H201.701V123.289H203.926V122.131Z" fill="white"/>
<path d="M220.608 122.131H215.047V123.289H220.608V122.131Z" fill="white"/>
<path d="M223.944 122.131H221.72V123.289H223.944V122.131Z" fill="white"/>
<path d="M190.578 122.131H185.017V123.289H190.578V122.131Z" fill="white"/>
<path d="M175.007 123.289H180.568V122.131H175.007V123.289Z" fill="white"/>
<path d="M183.906 122.131H181.681V123.289H183.906V122.131Z" fill="white"/>
<path d="M180.568 128.989H175.007V130.147H180.568V128.989Z" fill="white"/>
<path d="M215.047 130.147H220.609V128.989H215.047V130.147Z" fill="white"/>
<path d="M210.599 128.989H205.038V130.147H210.599V128.989Z" fill="white"/>
<path d="M185.018 130.147H190.579V128.989H185.018V130.147Z" fill="white"/>
<path d="M213.935 128.989H211.711V130.147H213.935V128.989Z" fill="white"/>
<path d="M195.028 130.147H200.589V128.989H195.028V130.147Z" fill="white"/>
<path d="M191.691 130.147H193.915V128.989H191.691V130.147Z" fill="white"/>
<path d="M203.926 128.989H201.701V130.147H203.926V128.989Z" fill="white"/>
<path d="M173.895 128.989H171.67V130.147H173.895V128.989Z" fill="white"/>
<path d="M181.681 130.147H183.906V128.989H181.681V130.147Z" fill="white"/>
<path d="M163.884 128.989H161.66V130.147H163.884V128.989Z" fill="white"/>
<path d="M164.997 130.147H170.558V128.989H164.997V130.147Z" fill="white"/>
<path d="M223.944 128.989H221.72V130.147H223.944V128.989Z" fill="white"/>
<path d="M187.528 127.237L188.085 126.232L188.643 127.237H187.528ZM185.987 128.164H190.184L188.085 124.378L185.987 128.164Z" fill="white"/>
<path d="M196.136 126.232L196.693 127.237H195.578L196.136 126.232ZM196.136 124.378L194.037 128.164H198.234L196.136 124.378Z" fill="white"/>
<path d="M192.809 125.369L192.252 126.375L191.694 125.369H192.809ZM194.35 124.442H190.154L192.252 128.229L194.35 124.442Z" fill="white"/>
<path d="M180.033 126.232L180.59 127.237H179.476L180.033 126.232ZM180.033 124.378L177.935 128.164H182.132L180.033 124.378Z" fill="white"/>
<path d="M183.643 125.369H184.758L184.2 126.375L183.643 125.369ZM182.102 124.442L184.2 128.228L186.299 124.442H182.102Z" fill="white"/>
<path d="M176.469 126.049L176.182 125.532H176.755L176.469 126.049ZM176.469 127.903L178.296 124.605H174.641L176.469 127.903Z" fill="white"/>
<path d="M172.499 126.354L172.785 126.871H172.213L172.499 126.354ZM172.499 124.5L170.672 127.797H174.327L172.499 124.5Z" fill="white"/>
<path d="M166.601 125.141L167.963 127.599L169.326 125.141H166.601Z" fill="white"/>
<path d="M165.357 127.262L163.995 124.804L162.632 127.262H165.357Z" fill="white"/>
<path d="M224.205 127.599L225.568 125.141H222.842L224.205 127.599Z" fill="white"/>
<path d="M218.874 127.262H221.599L220.236 124.804L218.874 127.262Z" fill="white"/>
<path d="M227.648 125.197L226.593 127.1H228.702L227.648 125.197Z" fill="white"/>
<path d="M159.615 127.307L160.67 125.404H158.56L159.615 127.307Z" fill="white"/>
<path d="M227.216 117.861L226.161 119.764H228.27L227.216 117.861Z" fill="white"/>
<path d="M159.615 119.971L160.67 118.068H158.56L159.615 119.971Z" fill="white"/>
<path d="M227.216 112.658L226.161 114.562H228.271L227.216 112.658Z" fill="white"/>
<path d="M159.615 114.769L160.67 112.866H158.56L159.615 114.769Z" fill="white"/>
<path d="M216.147 126.049L215.862 125.532H216.434L216.147 126.049ZM216.147 127.903L217.976 124.605H214.32L216.147 127.903Z" fill="white"/>
<path d="M211.892 126.87L212.179 126.353L212.466 126.87H211.892ZM210.351 127.797H214.007L212.179 124.5L210.351 127.797Z" fill="white"/>
<path d="M200.827 125.369L200.27 126.375L199.712 125.369H200.827ZM202.368 124.442H198.171L200.27 128.229L202.368 124.442Z" fill="white"/>
<path d="M204.191 126.232L204.748 127.237H203.634L204.191 126.232ZM204.191 124.378L202.093 128.164H206.29L204.191 124.378Z" fill="white"/>
<path d="M207.768 125.369H208.883L208.325 126.375L207.768 125.369ZM206.227 124.442L208.325 128.228L210.424 124.442H206.227Z" fill="white"/>
<path d="M179.477 134.134L180.034 133.129L180.592 134.134H179.477ZM177.936 135.061H182.133L180.034 131.275L177.936 135.061Z" fill="white"/>
<path d="M176.183 132.429H176.756L176.47 132.946L176.183 132.429ZM174.642 131.502L176.47 134.8L178.297 131.502H174.642Z" fill="white"/>
<path d="M172.214 133.768L172.5 133.251L172.787 133.768H172.214ZM170.673 134.695H174.328L172.5 131.397L170.673 134.695Z" fill="white"/>
<path d="M167.963 134.496L169.327 132.038H166.601L167.963 134.496Z" fill="white"/>
<path d="M162.632 134.159H165.357L163.995 131.701L162.632 134.159Z" fill="white"/>
<path d="M224.205 134.496L225.568 132.038H222.842L224.205 134.496Z" fill="white"/>
<path d="M218.874 134.159H221.599L220.236 131.701L218.874 134.159Z" fill="white"/>
<path d="M226.593 133.997H228.703L227.648 132.094L226.593 133.997Z" fill="white"/>
<path d="M159.615 134.204L160.67 132.301H158.56L159.615 134.204Z" fill="white"/>
<path d="M216.147 132.946L215.862 132.429H216.434L216.147 132.946ZM216.147 134.8L217.976 131.502H214.32L216.147 134.8Z" fill="white"/>
<path d="M211.892 133.768L212.179 133.251L212.466 133.768H211.892ZM210.351 134.695H214.007L212.179 131.397L210.351 134.695Z" fill="white"/>
<path d="M203.634 134.134L204.192 133.129L204.749 134.134H203.634ZM202.094 135.061H206.29L204.192 131.275L202.094 135.061Z" fill="white"/>
<path d="M207.768 132.266H208.883L208.325 133.272L207.768 132.266ZM206.227 131.339L208.325 135.126L210.424 131.339H206.227Z" fill="white"/>
<path d="M187.096 119.889L187.653 118.883L188.211 119.889H187.096ZM185.555 120.816H189.752L187.653 117.029L185.555 120.816Z" fill="white"/>
<path d="M195.704 118.883L196.261 119.889H195.147L195.704 118.883ZM195.704 117.029L193.606 120.816H197.803L195.704 117.029Z" fill="white"/>
<path d="M191.263 118.021H192.378L191.82 119.026L191.263 118.021ZM189.722 117.094L191.82 120.88L193.919 117.094H189.722Z" fill="white"/>
<path d="M179.603 118.883L180.16 119.889H179.046L179.603 118.883ZM179.603 117.029L177.504 120.816H181.702L179.603 117.029Z" fill="white"/>
<path d="M183.212 118.021H184.327L183.77 119.026L183.212 118.021ZM181.671 117.094L183.77 120.88L185.868 117.094H181.671Z" fill="white"/>
<path d="M176.324 118.183L176.038 118.7L175.751 118.183H176.324ZM177.865 117.256H174.21L176.038 120.554L177.865 117.256Z" fill="white"/>
<path d="M172.067 119.005L172.354 119.522H171.781L172.067 119.005ZM172.067 117.151L170.24 120.449H173.895L172.067 117.151Z" fill="white"/>
<path d="M168.895 117.792H166.17L167.532 120.25L168.895 117.792Z" fill="white"/>
<path d="M162.2 119.913H164.925L163.563 117.455L162.2 119.913Z" fill="white"/>
<path d="M225.136 117.792H222.411L223.773 120.25L225.136 117.792Z" fill="white"/>
<path d="M219.805 117.455L218.442 119.913H221.168L219.805 117.455Z" fill="white"/>
<path d="M216.003 118.183L215.716 118.7L215.43 118.183H216.003ZM217.544 117.256H213.889L215.716 120.554L217.544 117.256Z" fill="white"/>
<path d="M211.746 119.005L212.033 119.522H211.46L211.746 119.005ZM211.746 117.151L209.919 120.449H213.575L211.746 117.151Z" fill="white"/>
<path d="M199.838 119.026L199.281 118.02H200.395L199.838 119.026ZM199.838 120.88L201.936 117.094H197.739L199.838 120.88Z" fill="white"/>
<path d="M203.203 119.889L203.76 118.883L204.317 119.889H203.203ZM201.662 120.816H205.859L203.76 117.029L201.662 120.816Z" fill="white"/>
<path d="M208.45 118.021L207.893 119.026L207.336 118.021H208.45ZM209.991 117.094H205.795L207.893 120.88L209.991 117.094Z" fill="white"/>
<path d="M188.211 114.448H187.096L187.653 113.443L188.211 114.448ZM189.752 115.375L187.653 111.589L185.555 115.375H189.752Z" fill="white"/>
<path d="M196.261 114.448H195.146L195.704 113.443L196.261 114.448ZM197.802 115.375L195.704 111.589L193.606 115.375H197.802Z" fill="white"/>
<path d="M192.378 112.58L191.821 113.586L191.263 112.58H192.378ZM193.919 111.653H189.722L191.821 115.439L193.919 111.653Z" fill="white"/>
<path d="M180.16 114.448H179.046L179.603 113.443L180.16 114.448ZM181.701 115.375L179.603 111.589L177.504 115.375H181.701Z" fill="white"/>
<path d="M184.326 112.58L183.77 113.586L183.211 112.58H184.326ZM185.868 111.653H181.67L183.77 115.439L185.868 111.653Z" fill="white"/>
<path d="M176.324 112.743L176.038 113.26L175.751 112.743H176.324ZM177.865 111.816H174.21L176.038 115.114L177.865 111.816Z" fill="white"/>
<path d="M172.067 113.564L172.354 114.081H171.781L172.067 113.564ZM172.067 111.71L170.24 115.008H173.895L172.067 111.71Z" fill="white"/>
<path d="M168.895 112.351H166.17L167.532 114.809L168.895 112.351Z" fill="white"/>
<path d="M163.563 112.015L162.2 114.473H164.926L163.563 112.015Z" fill="white"/>
<path d="M225.136 112.351H222.411L223.773 114.809L225.136 112.351Z" fill="white"/>
<path d="M219.805 112.015L218.442 114.473H221.168L219.805 112.015Z" fill="white"/>
<path d="M216.003 112.743L215.716 113.26L215.43 112.743H216.003ZM217.544 111.816H213.889L215.716 115.114L217.544 111.816Z" fill="white"/>
<path d="M212.033 114.081H211.459L211.746 113.564L212.033 114.081ZM213.574 115.008L211.746 111.711L209.919 115.008H213.574Z" fill="white"/>
<path d="M200.395 112.58L199.838 113.586L199.28 112.58H200.395ZM201.936 111.653H197.739L199.838 115.439L201.936 111.653Z" fill="white"/>
<path d="M204.316 114.448H203.202L203.759 113.443L204.316 114.448ZM205.857 115.375L203.759 111.589L201.661 115.375H205.857Z" fill="white"/>
<path d="M208.45 112.58L207.893 113.586L207.336 112.58H208.45ZM209.991 111.653H205.795L207.893 115.439L209.991 111.653Z" fill="white"/>
<path d="M-4 212.258H513.026C513.026 212.258 445.258 113.819 385.376 138.063C325.495 162.308 281.387 131.929 216.247 129.884C151.108 127.84 121.897 138.063 70.4868 138.063C19.0763 138.063 -4 103.303 -4 103.303V212.258Z" fill="url(#paint0_linear)"/>
<path d="M268.022 129.714C268.022 134.166 265.153 135.721 261.613 135.721C258.073 135.721 255.204 134.166 255.204 129.714C255.204 125.262 261.613 119.598 261.613 119.598C261.613 119.598 268.022 125.262 268.022 129.714Z" fill="#0E8AFD"/>
<path d="M261.37 134.183L261.436 130.781L264.185 126.572L261.447 130.247L261.477 128.717L263.371 125.672L261.484 128.312L261.538 125.561L262.724 123.776L261.538 125.38L261.58 121.596L261.37 126.762L260.021 125.048L261.354 127.015L261.162 130.088L261.156 130.007L258.779 127.226L261.149 130.295L261.125 130.679L261.121 130.685L261.123 130.716L260.635 144.078H261.286L261.365 134.486L263.729 131.424L261.37 134.183Z" fill="#D7EBFF"/>
<path d="M131.522 128.816C131.522 132.606 129.079 133.93 126.066 133.93C123.053 133.93 120.61 132.606 120.61 128.816C120.61 125.026 126.066 120.205 126.066 120.205C126.066 120.205 131.522 125.026 131.522 128.816Z" fill="#0E8AFD"/>
<path d="M125.859 132.62L125.915 129.724L128.255 126.141L125.924 129.27L125.949 127.968L127.562 125.375L125.956 127.623L126.002 125.281L127.012 123.762L126.002 125.127L126.037 121.906L125.859 126.303L124.711 124.844L125.845 126.519L125.682 129.135L125.677 129.065L123.653 126.698L125.671 129.311L125.65 129.638L125.646 129.643L125.648 129.669L125.233 141.043H125.788L125.854 132.878L127.867 130.272L125.859 132.62Z" fill="#F5F9FE"/>
<path d="M42.255 129.476C42.255 133.021 39.9696 134.259 37.1506 134.259C34.3315 134.259 32.0461 133.021 32.0461 129.476C32.0461 125.93 37.1506 121.419 37.1506 121.419C37.1506 121.419 42.255 125.93 42.255 129.476Z" fill="#0E8AFD"/>
<path d="M36.9579 133.035L37.0104 130.325L39.1994 126.973L37.0187 129.9L37.0423 128.681L38.551 126.256L37.0486 128.359L37.0911 126.168L38.0362 124.747L37.0911 126.024L37.1244 123.01L36.9574 127.124L35.8833 125.759L36.9448 127.326L36.7917 129.773L36.7872 129.708L34.8937 127.494L36.7815 129.938L36.7623 130.244L36.7589 130.249L36.7605 130.274L36.3722 140.915H36.8909L36.9532 133.276L38.8363 130.838L36.9579 133.035Z" fill="#E6F2FF"/>
<path d="M92.8897 43.3615C92.8897 41.2889 92.3212 39.258 91.2489 37.4999C90.1766 35.7417 88.6436 34.3269 86.8243 33.4166C85.005 32.5062 82.9726 32.1368 80.9583 32.3505C78.944 32.5641 77.0288 33.3521 75.4306 34.6249C74.0702 33.014 72.3149 31.8033 70.3454 31.1174C68.3759 30.4315 66.2634 30.2953 64.2253 30.7228C62.1873 31.1502 60.2974 32.1259 58.7503 33.5494C57.2031 34.9728 56.0547 36.7926 55.4232 38.8213C54.3665 37.86 53.0975 37.1757 51.7253 36.8273C50.3531 36.479 48.9187 36.477 47.5456 36.8215C46.1724 37.166 44.9016 37.8466 43.8424 38.805C42.7832 39.7634 41.9672 40.9707 41.4648 42.3232C40.9623 43.6757 40.7884 45.1328 40.958 46.5693C41.1275 48.0058 41.6354 49.3787 42.4381 50.5698C43.2407 51.761 44.3141 52.7347 45.5658 53.4074C46.8176 54.0801 48.2102 54.4315 49.624 54.4315C49.7597 54.4315 49.8945 54.4279 50.0286 54.4216C50.1672 54.4277 50.3063 54.4315 50.4463 54.4315H83.2118C85.5694 54.4314 87.8425 53.533 89.5883 51.9114C91.3341 50.2899 92.4276 48.0612 92.6556 45.6597C92.8115 44.904 92.8899 44.1338 92.8897 43.3615Z" fill="url(#paint1_linear)"/>
<path d="M302.037 57.1173C302.037 55.6513 301.622 54.2148 300.839 52.9712C300.056 51.7277 298.936 50.727 297.607 50.0831C296.279 49.4392 294.794 49.1779 293.323 49.329C291.852 49.4801 290.453 50.0375 289.286 50.9378C288.292 49.7983 287.011 48.9419 285.572 48.4568C284.134 47.9717 282.591 47.8753 281.102 48.1777C279.614 48.48 278.234 49.1702 277.104 50.177C275.974 51.1838 275.135 52.471 274.674 53.9059C273.902 53.226 272.975 52.742 271.973 52.4956C270.971 52.2492 269.923 52.2477 268.921 52.4914C267.918 52.7351 266.99 53.2165 266.216 53.8944C265.442 54.5723 264.846 55.4262 264.48 56.3829C264.113 57.3395 263.986 58.3702 264.109 59.3862C264.233 60.4023 264.604 61.3733 265.19 62.2159C265.777 63.0584 266.56 63.7471 267.475 64.2229C268.389 64.6987 269.406 64.9473 270.438 64.9473C270.538 64.9473 270.636 64.9447 270.734 64.9403C270.835 64.9446 270.937 64.9473 271.039 64.9473H294.969C296.691 64.9472 298.351 64.3118 299.626 63.1648C300.901 62.0178 301.7 60.4415 301.866 58.7428C301.98 58.2084 302.037 57.6636 302.037 57.1173Z" fill="url(#paint2_linear)"/>
<path d="M225.505 49.6899C225.505 46.5053 224.605 43.3846 222.906 40.683C221.207 37.9815 218.778 35.8076 215.896 34.4087C213.014 33.0099 209.794 32.4423 206.603 32.7705C203.412 33.0988 200.377 34.3097 197.845 36.2655C195.69 33.7901 192.91 31.9297 189.789 30.8758C186.669 29.8219 183.322 29.6126 180.093 30.2694C176.865 30.9262 173.87 32.4255 171.419 34.6128C168.968 36.8 167.149 39.5963 166.148 42.7136C164.474 41.2364 162.464 40.1849 160.29 39.6496C158.116 39.1144 155.844 39.1113 153.668 39.6406C151.493 40.1699 149.479 41.2159 147.801 42.6885C146.123 44.1611 144.831 46.0163 144.035 48.0945C143.239 50.1727 142.963 52.4117 143.232 54.619C143.5 56.8263 144.305 58.9358 145.577 60.7661C146.848 62.5964 148.549 64.0927 150.532 65.1263C152.515 66.16 154.721 66.7 156.961 66.6999C157.176 66.6999 157.389 66.6943 157.602 66.6847C157.821 66.6942 158.042 66.6999 158.264 66.6999H210.173C213.908 66.6997 217.509 65.3193 220.275 62.8276C223.041 60.336 224.773 56.9115 225.135 53.2213C225.382 52.0602 225.506 50.8766 225.505 49.6899Z" fill="url(#paint3_linear)"/>
<path d="M250.627 13.6646C250.627 12.7042 250.365 11.763 249.871 10.9483C249.377 10.1335 248.67 9.4779 247.832 9.05603C246.994 8.63416 246.058 8.46298 245.13 8.56197C244.202 8.66097 243.32 9.02617 242.584 9.616C241.957 8.86947 241.148 8.3084 240.241 7.99055C239.334 7.67271 238.36 7.60958 237.422 7.80767C236.483 8.00576 235.612 8.45792 234.899 9.11757C234.187 9.77722 233.658 10.6205 233.367 11.5607C232.88 11.1152 232.295 10.7981 231.663 10.6366C231.031 10.4752 230.37 10.4743 229.738 10.6339C229.105 10.7935 228.52 11.109 228.032 11.5531C227.544 11.9972 227.168 12.5567 226.936 13.1835C226.705 13.8102 226.625 14.4855 226.703 15.1512C226.781 15.8169 227.015 16.4531 227.385 17.0051C227.755 17.5571 228.249 18.0084 228.826 18.3201C229.402 18.6318 230.044 18.7947 230.695 18.7947C230.758 18.7947 230.82 18.793 230.882 18.7901C230.945 18.7929 231.009 18.7947 231.074 18.7947H246.168C247.254 18.7946 248.301 18.3783 249.106 17.6268C249.91 16.8754 250.414 15.8426 250.519 14.7297C250.591 14.3795 250.627 14.0226 250.627 13.6646Z" fill="url(#paint4_linear)"/>
<path d="M140.211 27.1899C140.211 26.0273 139.898 24.888 139.307 23.9017C138.717 22.9154 137.873 22.1218 136.871 21.6111C135.87 21.1004 134.751 20.8932 133.642 21.013C132.533 21.1328 131.478 21.5749 130.598 22.2889C129.849 21.3852 128.883 20.706 127.799 20.3213C126.714 19.9365 125.551 19.8601 124.429 20.0999C123.307 20.3397 122.267 20.887 121.415 21.6856C120.563 22.4841 119.931 23.5049 119.583 24.643C119.001 24.1037 118.303 23.7198 117.547 23.5244C116.792 23.329 116.002 23.3279 115.246 23.5211C114.49 23.7144 113.79 24.0962 113.207 24.6338C112.624 25.1715 112.175 25.8487 111.898 26.6075C111.622 27.3662 111.526 28.1836 111.619 28.9894C111.712 29.7953 111.992 30.5654 112.434 31.2336C112.876 31.9018 113.467 32.4481 114.156 32.8254C114.845 33.2028 115.612 33.3999 116.39 33.3999C116.465 33.3999 116.539 33.3979 116.613 33.3944C116.689 33.3978 116.766 33.3999 116.843 33.3999H134.882C136.18 33.3998 137.432 32.8959 138.393 31.9862C139.354 31.0766 139.956 29.8264 140.082 28.4792C140.168 28.0553 140.211 27.6232 140.211 27.1899Z" fill="url(#paint5_linear)"/>
<defs>
<linearGradient id="paint0_linear" x1="215.371" y1="205.54" x2="215.371" y2="120.537" gradientUnits="userSpaceOnUse">
<stop stop-color="#64B1FF"/>
<stop offset="1" stop-color="white"/>
</linearGradient>
<linearGradient id="paint1_linear" x1="59.1576" y1="30.4789" x2="59.1576" y2="54.4315" gradientUnits="userSpaceOnUse">
<stop stop-color="#7BBDFF"/>
<stop offset="1" stop-color="#CCE6FF"/>
</linearGradient>
<linearGradient id="paint2_linear" x1="277.401" y1="48.0052" x2="277.401" y2="64.9473" gradientUnits="userSpaceOnUse">
<stop stop-color="#7BBDFF"/>
<stop offset="1" stop-color="#CCE6FF"/>
</linearGradient>
<linearGradient id="paint3_linear" x1="172.065" y1="29.8947" x2="172.065" y2="66.6999" gradientUnits="userSpaceOnUse">
<stop stop-color="#7BBDFF"/>
<stop offset="1" stop-color="#CCE6FF"/>
</linearGradient>
<linearGradient id="paint4_linear" x1="235.087" y1="7.69465" x2="235.087" y2="18.7946" gradientUnits="userSpaceOnUse">
<stop stop-color="#7BBDFF"/>
<stop offset="1" stop-color="#CCE6FF"/>
</linearGradient>
<linearGradient id="paint5_linear" x1="121.639" y1="19.9631" x2="121.639" y2="33.3999" gradientUnits="userSpaceOnUse">
<stop stop-color="#7BBDFF"/>
<stop offset="1" stop-color="#CCE6FF"/>
</linearGradient>
</defs>
</svg>
