<svg width="56" height="56" viewBox="0 0 56 56" fill="none" xmlns="http://www.w3.org/2000/svg">
<circle cx="28" cy="28" r="28" fill="#EEF7FF"/>
<path d="M36.5 35V35.5H37H38C38.2761 35.5 38.5 35.7239 38.5 36C38.5 36.2761 38.2761 36.5 38 36.5H18C17.7239 36.5 17.5 36.2761 17.5 36C17.5 35.7239 17.7239 35.5 18 35.5H19H19.5V35L19.5 20C19.5 19.8674 19.5527 19.7402 19.6464 19.6464C19.7402 19.5527 19.8674 19.5 20 19.5L30 19.5C30.1326 19.5 30.2598 19.5527 30.3536 19.6464C30.4473 19.7402 30.5 19.8674 30.5 20V35V35.5H31H35H35.5V35V27V26.5H35H33.5V25.5H36C36.1326 25.5 36.2598 25.5527 36.3536 25.6464C36.4473 25.7402 36.5 25.8674 36.5 26V35ZM21 20.5H20.5V21L20.5 35V35.5H21H29H29.5V35V21V20.5H29L21 20.5ZM23.5 27.5H26.5V28.5H23.5V27.5ZM23.5 23.5H26.5V24.5H23.5V23.5Z" fill="#8FD93A" stroke="#60A7E9"/>
</svg>
