<?xml version="1.0" standalone="no"?>
<!DOCTYPE svg PUBLIC "-//W3C//DTD SVG 1.1//EN" "http://www.w3.org/Graphics/SVG/1.1/DTD/svg11.dtd" >
<svg xmlns="http://www.w3.org/2000/svg" xmlns:xlink="http://www.w3.org/1999/xlink" version="1.1">
<metadata></metadata>
<defs>
<font id="letosansbold" horiz-adv-x="1331" >
<font-face units-per-em="2048" ascent="1487" descent="-561" />
<missing-glyph horiz-adv-x="622" />
<glyph horiz-adv-x="0" />
<glyph horiz-adv-x="682" />
<glyph unicode=" "  horiz-adv-x="622" />
<glyph unicode="&#x09;" horiz-adv-x="622" />
<glyph unicode="&#xa0;" horiz-adv-x="622" />
<glyph unicode="!" horiz-adv-x="524" d="M88 160q0 77 51 125q56 47 123 47q70 0 123 -47q51 -45 51 -125q0 -77 -51 -125q-56 -47 -123 -47q-68 0 -121 47t-53 125zM117 430v1051h291v-1051h-291z" />
<glyph unicode="&#x22;" horiz-adv-x="800" d="M86 940v461h262v-146l-43 -315h-219zM451 940v461h262v-146l-45 -315h-217z" />
<glyph unicode="#" horiz-adv-x="1245" d="M98 387v234h170l27 184h-166v231l205 6l35 189l229 -35l-27 -154h193l37 189l221 -37l-16 -154l147 -6v-229h-184l-29 -184h186v-232l-225 -6l-37 -197l-227 31l27 166h-191l-33 -186l-219 28l15 158zM508 621h192l29 184h-192z" />
<glyph unicode="$" horiz-adv-x="1310" d="M94 127l125 244q113 -67 223 -101q108 -30 232 -30q133 0 198 39q64 42 64 108q0 56 -43 90q-43 32 -143 47l-211 27q-198 24 -306 121q-108 96 -108 278q0 167 106 267q108 99 285 126v232h295v-227q119 -15 209 -58q95 -39 170 -102l-148 -213q-161 112 -370 112 q-134 0 -189 -34q-57 -34 -57 -90q0 -58 41 -82q37 -27 133 -43l203 -27q211 -27 323 -133q111 -105 111 -275q0 -161 -107 -274q-109 -115 -319 -145v-228h-297v221q-106 11 -219 48q-99 35 -201 102z" />
<glyph unicode="%" horiz-adv-x="1669" d="M80 997q0 72 26 131q28 64 74 107q41 43 109 72q65 24 139 24t139 -24q67 -28 111 -72q48 -48 74 -107t26 -131q0 -74 -26 -133q-26 -56 -74 -104q-44 -44 -111 -72q-65 -24 -139 -24t-141 24q-64 28 -111 72q-49 52 -70 104q-26 59 -26 133zM250 88l989 1229l176 -141 l-985 -1231zM315 997q0 -50 33 -79q31 -31 80 -31t80 31q33 26 33 79q0 54 -33 80q-31 31 -80 31q-44 0 -80 -31q-33 -29 -33 -80zM920 297q0 72 26 131t74 107q43 43 110 71q67 25 140 25q72 0 139 -25q64 -27 111 -71q45 -48 71 -107q27 -61 27 -131q0 -71 -27 -133 q-27 -57 -71 -105q-47 -44 -111 -71q-67 -25 -139 -25q-76 0 -140 25q-70 28 -110 71q-45 42 -74 105q-26 59 -26 133zM1157 297q0 -49 31 -80q36 -31 82 -31t82 31q30 30 30 80q0 53 -30 80q-36 31 -82 31t-82 -31q-31 -28 -31 -80z" />
<glyph unicode="&#x26;" horiz-adv-x="1552" d="M121 455q0 120 51 219q49 100 145 160q-17 40 -22 71q-8 33 -8 78q0 77 30 147q31 69 93 119q58 55 147 82q88 31 199 31q149 0 264 -47q116 -46 203 -133l-174 -201q-60 60 -123 88q-60 35 -162 35q-95 0 -146 -45q-49 -46 -49 -107q0 -77 52 -129l403 -417 q56 75 78 167q28 85 28 211h283q0 -177 -53 -325q-52 -140 -146 -248l144 -148l-215 -192l-156 170q-149 -70 -319 -70q-135 0 -236 37q-105 38 -172 103q-68 60 -104 151q-35 90 -35 193zM401 489q0 -115 74 -186q78 -72 207 -72q53 0 119 17l-348 385q-52 -61 -52 -144z " />
<glyph unicode="'" horiz-adv-x="432" d="M82 928v473h266v-172l-47 -301h-219z" />
<glyph unicode="(" horiz-adv-x="704" d="M96 545q0 253 105 481q106 229 303 391l186 -178q-151 -132 -223 -305q-78 -175 -78 -389q0 -205 72 -381q71 -168 229 -314l-184 -176q-193 141 -303 363q-107 215 -107 508z" />
<glyph unicode=")" horiz-adv-x="704" d="M14 -147q301 270 301 694q0 209 -73 383q-71 169 -228 311l185 176q192 -147 303 -373q106 -221 106 -497q0 -271 -104 -494q-100 -220 -303 -379z" />
<glyph unicode="*" horiz-adv-x="907" d="M90 956l178 111l-178 129l150 186l157 -145l58 203l233 -76l-90 -188l205 12v-232l-207 15l92 -187l-235 -79l-58 202l-162 -141z" />
<glyph unicode="+" horiz-adv-x="1071" d="M119 569v256h280v295h273v-295h280v-256h-280v-295h-273v295h-280z" />
<glyph unicode="," horiz-adv-x="544" d="M96 162q0 79 51 127q56 47 125 47t123 -45q51 -48 51 -129q0 -52 -18 -90l-139 -291l-164 63l51 166q-36 22 -57 60q-23 44 -23 92z" />
<glyph unicode="-" horiz-adv-x="860" d="M119 432v260h622v-260h-622z" />
<glyph unicode="." horiz-adv-x="548" d="M96 164q0 79 54 127q52 49 124 49q73 0 125 -49q54 -48 54 -127q0 -81 -54 -129q-53 -47 -125 -47q-69 0 -122 47q-56 47 -56 129z" />
<glyph unicode="/" horiz-adv-x="845" d="M-41 -84l676 1600l242 -101l-678 -1601z" />
<glyph unicode="0" horiz-adv-x="1619" d="M115 686q0 149 49 277q51 128 141 229q89 95 219 151q125 58 285 58q161 0 289 -55t219 -152q90 -96 139 -227q49 -128 49 -281q0 -145 -49 -276q-51 -133 -141 -226q-84 -94 -219 -155q-128 -58 -287 -58q-158 0 -285 56q-130 56 -219 151q-87 93 -141 228 q-49 128 -49 280zM418 686q0 -94 24 -174q28 -82 76 -139q46 -54 121 -94q81 -33 170 -33q95 0 170 35q72 34 123 94q50 59 74 139q24 79 24 172q0 96 -24 178q-27 79 -76 140q-50 56 -123 90q-68 32 -168 32q-92 0 -170 -32q-74 -39 -121 -95q-49 -60 -76 -141 q-24 -80 -24 -172z" />
<glyph unicode="1" horiz-adv-x="833" d="M68 1044l405 340l201 -16v-1368h-303v946l-162 -100z" />
<glyph unicode="2" horiz-adv-x="1327" d="M117 1208q115 101 250 148q128 45 297 45q124 0 219 -33q98 -30 170 -90q68 -56 106 -139q39 -77 39 -176q0 -144 -72 -263q-70 -111 -225 -217l-299 -207h596v-276h-1053v246l562 418q97 73 143 139q47 68 47 143q0 83 -61 135q-61 49 -191 49q-108 0 -199 -36 q-101 -44 -176 -109z" />
<glyph unicode="3" horiz-adv-x="1349" d="M70 174l163 225q56 -47 101 -71q63 -34 100 -47q53 -18 107 -27q47 -8 116 -8q136 0 203 49q66 54 66 133q0 68 -47 109q-44 38 -140 38h-329v267h301q72 0 112 32q41 35 41 95q0 77 -57 116q-53 39 -178 39q-79 0 -178 -26q-99 -35 -172 -92l-154 215q113 91 244 135 q128 45 280 45q117 0 219 -29q97 -28 164 -80q68 -53 103 -121q36 -71 36 -157q0 -93 -36 -158q-40 -72 -111 -113v-18q97 -34 154 -115q55 -76 55 -194q0 -97 -39 -174q-41 -84 -113 -144q-73 -56 -186 -94q-122 -33 -252 -33q-164 0 -307 45q-141 51 -266 158z" />
<glyph unicode="4" horiz-adv-x="1419" d="M78 219v236l723 917h375v-878h174v-263l-174 -10v-221h-297v219h-801zM457 494h422v532h-21z" />
<glyph unicode="5" horiz-adv-x="1335" d="M90 182l172 219q174 -155 389 -155q122 0 201 55q76 57 76 158q0 105 -68 155q-63 54 -182 54q-90 0 -166 -17q-58 -12 -125 -45l-188 68l63 698h891v-276h-641l-12 -213q53 20 102 28q68 11 127 11q106 0 201 -31q87 -29 155 -88q68 -64 103 -148q37 -84 37 -198 q0 -104 -39 -189q-41 -90 -113 -153q-71 -65 -182 -107q-107 -37 -246 -37q-163 0 -297 49q-132 46 -258 162z" />
<glyph unicode="6" horiz-adv-x="1359" d="M100 645q0 190 52 330q51 140 139 237q93 96 211 142q121 47 262 47q134 0 256 -43q121 -44 215 -123l-154 -217q-147 112 -329 112q-148 0 -240 -77q-95 -77 -113 -224q71 47 154 68q89 25 195 25q123 0 213 -33q90 -29 161 -90q65 -62 103 -146q35 -84 35 -188 q0 -112 -43 -199q-46 -93 -119 -155q-75 -66 -176 -103q-104 -37 -224 -37q-137 0 -252 45q-117 51 -188 136q-74 80 -119 210q-39 131 -39 283zM401 586q3 -184 84 -262q81 -84 213 -84q49 0 103 14q48 19 82 45q31 25 55 70q20 39 20 94q0 104 -65 160q-64 55 -182 55 q-87 0 -170 -25q-84 -25 -140 -67z" />
<glyph unicode="7" horiz-adv-x="1241" d="M90 1098v274h1061v-221l-547 -1151h-340l545 1098h-719z" />
<glyph unicode="8" horiz-adv-x="1376" d="M96 399q0 121 51 207q55 93 144 144q-60 48 -86 110q-31 70 -31 148q0 92 39 163q42 73 109 123q75 56 163 78q91 29 205 29q117 0 215 -29q96 -26 162 -80q67 -54 100 -125q35 -75 35 -161q0 -78 -35 -150q-38 -69 -102 -115q105 -50 160 -131q55 -82 55 -202 q0 -87 -39 -170q-49 -87 -119 -138q-75 -59 -186 -94q-113 -35 -252 -35q-152 0 -258 33q-116 36 -184 90q-72 57 -109 135q-37 75 -37 170zM399 438q0 -93 76 -145q77 -53 213 -53q138 0 209 47q72 47 72 125q0 64 -47 100q-43 34 -152 55l-145 29q-31 5 -64 12 q-32 7 -53 15q-54 -24 -82 -74q-27 -47 -27 -111zM469 997q0 -62 43 -92q35 -32 113 -49l118 -20q8 -1 23 -4.5t20 -4.5l39 -10q43 25 68 70q20 48 20 96q0 70 -55 113t-168 43t-166 -39q-55 -40 -55 -103z" />
<glyph unicode="9" horiz-adv-x="1355" d="M100 905q0 111 43 201q42 92 115 156q76 64 176 102q104 37 221 37q136 0 254 -45q113 -50 189 -135q77 -90 116 -211q41 -128 41 -283q0 -190 -49 -330q-47 -138 -137 -237q-94 -97 -213 -142q-121 -47 -264 -47q-135 0 -260 41q-128 43 -223 123l153 217 q73 -55 166 -84q85 -26 176 -26q148 0 240 77q92 74 110 224q-137 -94 -348 -94q-118 0 -213 30q-97 36 -157 94q-66 60 -101 144t-35 188zM401 907q0 -104 62 -157q65 -56 182 -56q87 0 170 25q80 25 139 67q-3 183 -86 263q-81 84 -213 84q-110 0 -182 -60t-72 -166z" />
<glyph unicode=":" horiz-adv-x="530" d="M96 154q0 77 51 122q52 46 117 46q68 0 117 -46q51 -45 51 -122q0 -76 -51 -121t-117 -45t-117 45t-51 121zM96 825q0 79 51 121q51 45 117 45q69 0 117 -45q51 -42 51 -121q0 -78 -51 -123t-117 -45t-117 45t-51 123z" />
<glyph unicode=";" horiz-adv-x="530" d="M96 152q0 80 51 122q48 48 117 48q71 0 119 -48q49 -43 49 -122q0 -48 -18 -86l-131 -285l-158 59l51 168q-36 22 -57 60q-23 41 -23 84zM96 825q0 79 51 121q51 45 117 45q69 0 117 -45q51 -42 51 -121q0 -78 -51 -123t-117 -45t-117 45t-51 123z" />
<glyph unicode="&#x3c;" horiz-adv-x="884" d="M80 664v81l510 433l174 -195l-318 -283l318 -276l-174 -203z" />
<glyph unicode="=" horiz-adv-x="1005" d="M121 377v248h764v-248h-764zM121 776v248h764v-248h-764z" />
<glyph unicode="&#x3e;" horiz-adv-x="884" d="M121 416l317 282l-317 277l174 203l510 -441v-82l-510 -434z" />
<glyph unicode="?" horiz-adv-x="1257" d="M98 1315q115 92 242 135q128 43 274 43q115 0 217 -31q102 -27 173 -86q69 -55 114 -143q39 -89 39 -197q0 -160 -94 -270q-94 -114 -272 -166q-52 -17 -70 -43q-25 -25 -25 -63q0 -31 6 -52l-264 -26q-6 13 -14 51q-6 30 -6 65q0 99 59 170q61 73 185 107 q200 56 200 211q0 98 -65 151q-66 54 -195 54q-201 0 -354 -123zM410 160q0 81 53 125q50 47 121 47q70 0 123 -47q51 -45 51 -125q0 -81 -53 -125q-50 -47 -121 -47q-68 0 -121 47t-53 125z" />
<glyph unicode="@" horiz-adv-x="1804" d="M111 510q0 172 65 317q69 143 184 244q114 102 271 158q152 57 334 57q154 0 282 -45q135 -47 228 -129q96 -80 153 -203q55 -116 55 -264q0 -118 -26 -203q-28 -96 -76 -155q-50 -64 -123 -103q-72 -34 -166 -34q-71 0 -125 28q-55 28 -82 84q-39 -57 -102 -92 q-59 -33 -139 -33q-67 0 -131 25q-68 26 -107 71q-45 40 -74 115q-26 65 -26 158q0 85 31 164q35 78 90 133q61 58 135 86q70 33 168 33q94 0 176 -21q93 -23 156 -59v-400q0 -61 53 -61q40 0 74 57q32 51 32 193q0 95 -28 166q-22 71 -82 131q-59 56 -144 86 q-86 30 -202 30q-126 0 -230 -36q-111 -42 -184 -109q-79 -73 -121 -168q-45 -96 -45 -221q0 -228 135 -363q136 -133 389 -133q115 0 265 15q129 19 235 57l64 -215q-122 -48 -265 -76q-138 -24 -299 -24q-180 0 -323 51q-149 53 -254 145q-103 97 -164 234 q-57 142 -57 309zM774 522q0 -87 33 -116q31 -31 78 -31q59 0 94 41t35 100v174q-17 7 -39 10q-25 7 -51 7q-69 0 -111 -48q-39 -45 -39 -137z" />
<glyph unicode="A" horiz-adv-x="1624" d="M78 0l563 1374h338l567 -1374h-340l-104 272h-588l-102 -272h-334zM614 543h387l-182 522h-20z" />
<glyph unicode="B" horiz-adv-x="1421" d="M160 0v1372h606q231 0 352 -100q125 -101 125 -275q0 -85 -35 -153q-37 -67 -98 -101v-18q102 -35 160 -119q61 -82 61 -196q0 -81 -28 -160q-30 -73 -95 -129q-57 -52 -157 -88q-90 -33 -228 -33h-663zM465 262h362q203 0 203 162q0 79 -53 117q-49 41 -152 41h-360 v-320zM465 831h313q77 0 123 37q43 40 43 105q0 137 -176 137h-303v-279z" />
<glyph unicode="C" horiz-adv-x="1501" d="M98 682q0 151 54 279q48 128 149 229q96 96 238 153q137 58 315 58q162 0 293 -49q128 -45 237 -140l-170 -223q-73 67 -165 96q-85 35 -207 35q-100 0 -183 -30q-81 -35 -137 -91q-59 -62 -88 -139q-31 -82 -31 -174q0 -96 31 -178q37 -84 90 -135q53 -53 138 -90 q82 -31 176 -31q110 0 219 39q107 47 180 117l174 -215q-236 -222 -590 -222q-162 0 -293 49q-128 51 -229 144q-98 101 -147 225q-54 136 -54 293z" />
<glyph unicode="D" horiz-adv-x="1507" d="M160 0v1372h506q172 0 309 -49q141 -53 233 -143q95 -85 150 -217q51 -119 51 -277q0 -146 -53 -276q-54 -126 -152 -217q-103 -92 -237 -142q-131 -51 -308 -51h-499zM465 276h197q89 0 174 29q78 25 139 80q55 50 94 129q33 84 33 172q0 202 -115 305 q-111 105 -328 105h-194v-820z" />
<glyph unicode="E" d="M160 0v1372h1026v-276h-723v-258h645v-269h-645v-293h758v-276h-1061z" />
<glyph unicode="F" horiz-adv-x="1265" d="M160 0v1372h1007v-276h-704v-291h604v-270h-604v-535h-303z" />
<glyph unicode="G" horiz-adv-x="1511" d="M98 682q0 150 54 276q47 125 147 230q94 94 238 155q137 58 315 58q151 0 287 -47q129 -46 235 -142l-172 -221q-70 65 -162 99q-88 30 -198 30q-98 0 -178 -30q-80 -29 -140 -86q-54 -54 -90 -140q-31 -82 -31 -178q0 -106 33 -182q37 -85 92 -135q55 -58 138 -86 q82 -31 174 -31q145 0 254 53v209l-242 14v256h534v-634q-115 -93 -256 -136q-136 -43 -299 -43q-165 0 -299 49q-136 50 -231 142q-98 95 -149 223q-54 136 -54 297z" />
<glyph unicode="H" horiz-adv-x="1538" d="M160 0v1372h309v-536h600v536h309v-1372h-309v551h-600v-551h-309z" />
<glyph unicode="I" horiz-adv-x="630" d="M160 0v1372h309v-1372h-309z" />
<glyph unicode="J" horiz-adv-x="1130" d="M66 90l133 242q66 -44 129 -62q69 -16 129 -16q98 0 153 61q54 60 54 189v868h307v-858q0 -263 -125 -403q-128 -140 -371 -140q-117 0 -215 25q-96 24 -194 94z" />
<glyph unicode="K" horiz-adv-x="1507" d="M160 0v1372h303v-522l149 16l387 506h379l-510 -641l559 -731h-395l-418 586h-151v-586h-303z" />
<glyph unicode="L" horiz-adv-x="1292" d="M160 0v1372h307v-1091h741v-281h-1048z" />
<glyph unicode="M" horiz-adv-x="1753" d="M160 0v1372h336l385 -622l381 622h329v-1372h-301v905h-18l-318 -522h-159l-318 522h-18v-905h-299z" />
<glyph unicode="N" horiz-adv-x="1558" d="M160 0v1372h276l666 -926v926h297v-1372h-307l-633 877v-877h-299z" />
<glyph unicode="O" horiz-adv-x="1652" d="M98 686q0 143 54 279q53 134 151 227q94 94 229 151q131 58 293 58q161 0 297 -53q138 -57 230 -152q94 -90 149 -225q53 -133 53 -285q0 -146 -53 -276q-50 -127 -149 -230q-94 -94 -230 -151q-134 -58 -297 -58q-157 0 -293 54q-135 57 -229 151q-98 93 -151 227 q-54 136 -54 283zM403 686q0 -85 29 -174q27 -79 84 -139q51 -54 133 -94q84 -33 176 -33q101 0 179 35q80 35 135 96q51 57 82 139q26 86 26 170q0 92 -28 174q-26 80 -84 141q-51 57 -131 93q-74 32 -179 32q-100 0 -178 -34q-77 -35 -131 -95q-57 -60 -84 -139 q-29 -85 -29 -172z" />
<glyph unicode="P" horiz-adv-x="1415" d="M160 0v1372h610q122 0 223 -37q95 -32 174 -98q71 -67 111 -156q39 -88 39 -204q0 -120 -43 -213q-51 -100 -123 -156q-74 -68 -180 -98q-98 -35 -226 -35h-278v-375h-307zM467 647h278q122 0 193 62q70 61 70 165q0 103 -62 162q-65 62 -188 62h-291v-451z" />
<glyph unicode="Q" horiz-adv-x="1652" d="M98 686q0 143 54 279q53 134 151 227q94 94 229 151q131 58 293 58q161 0 297 -53q138 -57 230 -152q94 -90 149 -225q53 -133 53 -285q0 -180 -71 -319q-66 -141 -197 -244l268 -201l-186 -239l-375 307q-84 -19 -168 -19q-157 0 -293 54q-135 57 -229 151 q-98 93 -151 227q-54 136 -54 283zM403 686q0 -85 29 -174q27 -79 84 -139q51 -54 133 -94q84 -33 176 -33q101 0 179 35q80 35 135 96q51 57 82 139q26 86 26 170q0 92 -28 174q-26 80 -84 141q-51 57 -131 93q-74 32 -179 32q-100 0 -178 -34q-77 -35 -131 -95 q-57 -60 -84 -139q-29 -85 -29 -172z" />
<glyph unicode="R" horiz-adv-x="1447" d="M160 0v1372h620q122 0 217 -33q99 -34 170 -94q69 -63 109 -147q39 -82 39 -193q0 -141 -74 -250q-72 -106 -207 -163l334 -492h-373l-252 410h-276v-410h-307zM467 682h291q112 0 176 55q67 55 67 154t-63 153t-172 54h-299v-416z" />
<glyph unicode="S" horiz-adv-x="1370" d="M94 129l129 252q117 -72 230 -102q118 -31 241 -31q135 0 203 41q66 41 66 110q0 62 -45 95q-46 34 -150 49l-211 26q-201 27 -311 125q-111 99 -111 285q0 108 41 180q37 78 111 133q76 57 172 80q101 29 225 29q169 0 305 -43q141 -45 244 -131l-152 -219 q-88 62 -182 90q-102 30 -209 30q-134 0 -192 -34q-58 -37 -58 -101q0 -61 43 -88q45 -31 138 -43l200 -26q225 -30 338 -140q111 -105 111 -280q0 -104 -39 -183q-42 -85 -113 -139q-75 -60 -188 -90q-106 -33 -254 -33q-169 0 -309 35q-143 36 -273 123z" />
<glyph unicode="T" horiz-adv-x="1419" d="M88 1094v278h1243v-278h-469v-1094h-305v1094h-469z" />
<glyph unicode="U" horiz-adv-x="1562" d="M160 604v768h309v-764q0 -164 80 -264q78 -96 231 -96q157 0 234 92q78 90 78 264v768h309v-762q0 -149 -41 -262q-37 -116 -119 -201q-74 -80 -192 -131q-121 -45 -269 -45q-154 0 -264 45q-121 45 -197 127q-77 80 -118 199q-41 118 -41 262z" />
<glyph unicode="V" horiz-adv-x="1589" d="M68 1372h358l369 -1063h20l352 1063h353l-545 -1376h-363z" />
<glyph unicode="W" horiz-adv-x="2082" d="M68 1372h338l235 -1003h21l243 966h279l254 -966h20l223 1003h334l-385 -1376h-370l-211 809h-21l-194 -809h-377z" />
<glyph unicode="X" horiz-adv-x="1558" d="M68 0l481 713l-438 659h383l282 -489h21l272 489h379l-438 -676l481 -696h-397l-308 528h-20l-303 -528h-395z" />
<glyph unicode="Y" horiz-adv-x="1509" d="M68 1372h368l312 -610h20l307 610h365l-533 -913v-459h-307v459z" />
<glyph unicode="Z" horiz-adv-x="1374" d="M111 0v223l729 871h-701v278h1108v-223l-721 -866h738v-283h-1153z" />
<glyph unicode="[" horiz-adv-x="669" d="M129 -264v1630h471v-244h-188v-1138h188v-248h-471z" />
<glyph unicode="\" horiz-adv-x="886" d="M-10 1382l239 105l676 -1540l-237 -105z" />
<glyph unicode="]" horiz-adv-x="669" d="M70 -18h186v1138h-186v246h471v-1630h-471v246z" />
<glyph unicode="^" horiz-adv-x="727" d="M33 1075v25l295 280h71l295 -280v-25l-151 -153l-181 155l-178 -155z" />
<glyph unicode="_" horiz-adv-x="890" d="M18 -74h854v-252h-854v252z" />
<glyph unicode="`" horiz-adv-x="509" d="M-55 1536l237 143l197 -432h-258z" />
<glyph unicode="a" horiz-adv-x="1255" d="M74 324q0 82 35 147t100 107q53 37 151 65q107 21 201 21q65 0 115 -9q61 -10 100 -20v33q0 65 -47 106q-46 37 -145 37q-171 0 -338 -78l-115 213q119 69 221 94q122 29 234 29q129 0 217 -33q93 -36 147 -90q63 -63 86 -141q29 -80 29 -182v-316q0 -82 61 -82 q23 0 35 6l27 -231q-33 -11 -62 -16q-40 -7 -73 -7q-88 0 -146 37q-61 39 -76 125q-57 -83 -149 -125q-85 -39 -211 -39q-181 0 -291 91q-106 86 -106 258zM373 338q0 -53 37 -80q36 -31 112 -31q126 0 191 56q65 53 65 125v24q-103 23 -209 23q-104 0 -151 -33 q-45 -31 -45 -84z" />
<glyph unicode="b" horiz-adv-x="1314" d="M139 55v1393h293v-465q65 45 129 64q74 22 154 22q99 0 203 -33q97 -40 159 -102q66 -63 107 -166q39 -98 39 -236q0 -130 -47 -233q-49 -103 -134 -176q-82 -70 -194 -111q-112 -37 -240 -37q-117 0 -237 19q-118 19 -232 61zM432 258q86 -27 184 -27q59 0 121 19 q62 22 99 59q44 41 67 97q25 58 25 129q0 135 -72 204q-69 72 -180 72q-149 0 -244 -92v-461z" />
<glyph unicode="c" horiz-adv-x="1196" d="M92 520q0 118 43 219q41 96 119 174q83 76 180 115q103 41 223 41q147 0 246 -41q102 -37 191 -119l-164 -198q-101 94 -266 94q-54 0 -109 -19q-52 -21 -88 -57q-40 -34 -61 -86q-23 -58 -23 -115q0 -130 76 -209q73 -79 203 -79q84 0 155 30q66 25 121 80l170 -194 q-99 -99 -207 -140q-115 -41 -252 -41q-138 0 -239 43q-102 42 -177 117q-70 76 -106 172q-35 103 -35 213z" />
<glyph unicode="d" horiz-adv-x="1353" d="M92 520q0 127 43 228t119 174q73 67 176 108q98 39 219 39q75 0 146 -18q73 -19 125 -56v453h292v-1448h-231l-23 143q-58 -85 -147 -127q-93 -41 -203 -41q-121 0 -211 37q-92 35 -164 107q-68 74 -104 172q-37 101 -37 229zM385 524q0 -68 21 -123q19 -47 53 -90 q37 -40 82 -59q43 -21 96 -21q102 0 178 52q79 54 105 149v305q-98 76 -242 76q-133 0 -215 -76q-78 -81 -78 -213z" />
<glyph unicode="e" horiz-adv-x="1257" d="M92 520q0 109 39 215q44 103 115 174q78 75 180 117q107 43 236 43q112 0 202 -37q95 -34 160 -100q65 -62 104 -158q37 -87 37 -203q0 -35 -6 -73q-3 -35 -12 -70h-762q15 -84 90 -141q71 -56 203 -56q196 0 340 99l125 -213q-105 -74 -223 -109q-112 -33 -258 -33 q-140 0 -244 39q-107 40 -178 111q-72 72 -109 172q-39 98 -39 223zM393 643h473q-3 78 -55 127t-158 49q-108 0 -170 -47q-63 -45 -90 -129z" />
<glyph unicode="f" horiz-adv-x="874" d="M76 784v244l155 14v82q0 79 27 162q30 77 84 131q56 56 135 86q82 31 185 31q223 0 368 -115l-123 -209q-95 62 -217 62q-85 0 -125 -43q-41 -47 -41 -121v-64h303v-260h-303v-784h-293v784h-155z" />
<glyph unicode="g" horiz-adv-x="1298" d="M88 -201q0 150 98 254q-90 78 -90 211q0 73 37 137q39 64 113 109q-53 74 -53 182q0 75 28 148q29 66 90 118q53 50 144 82q89 29 196 29h185l354 31l22 -221l-163 -41q47 -65 47 -154q0 -72 -31 -139q-27 -67 -86 -117q-61 -52 -139 -80q-89 -29 -189 -29q-79 0 -143 15 q-63 15 -113 41q-37 -30 -37 -88q0 -97 131 -97h297q206 0 301 -92q95 -95 95 -241q0 -97 -43 -179q-47 -84 -125 -141q-76 -56 -195 -94q-122 -33 -250 -33q-242 0 -360 103q-121 103 -121 286zM365 -172q0 -81 57 -123q56 -47 170 -47q151 0 233 51q80 56 80 131 q0 99 -131 99h-289l-84 10q-36 -45 -36 -121zM467 686q0 -63 43 -100q41 -41 131 -41q83 0 129 37q47 41 47 108q0 88 -57 139h-127q-87 0 -125 -38q-41 -41 -41 -105z" />
<glyph unicode="h" horiz-adv-x="1329" d="M139 0v1448h293v-522q48 61 129 106q78 37 189 37q207 0 323 -119q115 -118 115 -344v-606h-291v582q0 116 -53 172q-48 57 -146 57q-90 0 -161 -53q-70 -52 -105 -156v-602h-293z" />
<glyph unicode="i" horiz-adv-x="575" d="M106 1391q0 82 56 129t125 47q71 0 127 -47q53 -47 53 -129q0 -79 -53 -129q-57 -48 -127 -48q-31 0 -68 13q-28 10 -57 35q-29 29 -39 57q-17 28 -17 72zM139 0v1044h295v-1044h-295z" />
<glyph unicode="j" horiz-adv-x="581" d="M-289 -403l101 237q53 -28 92 -35q52 -10 98 -10q63 0 104 41t41 127v1087h293v-1087q0 -92 -26 -178q-29 -80 -82 -139q-50 -56 -131 -91q-74 -30 -176 -30q-91 0 -168 18q-72 18 -146 60zM113 1391q0 83 55 129q53 47 125 47t125 -47q55 -46 55 -129q0 -80 -55 -129 q-54 -48 -125 -48t-125 48q-55 49 -55 129z" />
<glyph unicode="k" horiz-adv-x="1269" d="M139 0v1448h293v-774l115 22l264 348h375l-393 -471l438 -573h-365l-305 424h-129v-424h-293z" />
<glyph unicode="l" horiz-adv-x="571" d="M139 0v1448h293v-1448h-293z" />
<glyph unicode="m" horiz-adv-x="1951" d="M139 0v1044h236l18 -153q51 82 135 133q85 45 199 45q106 0 186 -45q82 -43 129 -121q56 77 146 121q86 45 201 45q215 0 319 -119q102 -123 102 -332v-618h-294v606q0 103 -46 152q-42 53 -127 53q-140 0 -217 -121q11 -57 11 -88v-602h-295v604q0 99 -43 154 q-41 53 -129 53q-78 0 -146 -53q-64 -57 -90 -144v-614h-295z" />
<glyph unicode="n" horiz-adv-x="1329" d="M139 0v1044h234l20 -167q45 89 139 143q88 49 211 49q210 0 326 -119q119 -116 119 -344v-606h-291v582q0 116 -53 172q-48 57 -146 57q-93 0 -161 -53q-71 -56 -105 -160v-598h-293z" />
<glyph unicode="o" horiz-adv-x="1327" d="M92 522q0 121 43 219q40 103 117 174q81 75 180 113q106 41 232 41q128 0 229 -39q107 -40 182 -112q76 -70 117 -173q43 -101 43 -223q0 -120 -43 -221q-41 -96 -119 -174q-87 -77 -182 -111q-99 -41 -227 -41q-131 0 -232 39q-102 40 -180 111q-77 71 -117 174 q-43 98 -43 223zM383 522q0 -135 76 -211q77 -80 205 -80q130 0 204 80q74 77 74 211q0 131 -74 211q-78 78 -204 78q-131 0 -205 -80q-76 -79 -76 -209z" />
<glyph unicode="p" d="M139 -381v1425h236l22 -137q63 83 148 125q84 37 203 37q113 0 200 -37q100 -46 154 -110q62 -62 102 -168q35 -103 35 -222q0 -137 -45 -239q-47 -106 -121 -174q-79 -73 -176 -107q-101 -37 -209 -37q-70 0 -135 15q-66 15 -123 49v-420h-291zM430 305q56 -32 111 -49 q62 -18 127 -18q122 0 198 79t76 222q0 126 -63 198q-65 74 -179 74q-100 0 -168 -47q-66 -46 -102 -125v-334z" />
<glyph unicode="q" horiz-adv-x="1304" d="M92 514q0 126 47 229q49 107 131 175q74 69 193 112q107 39 239 39q126 0 248 -25q118 -21 213 -65v-1360h-293v449q-52 -46 -125 -68q-73 -25 -165 -25q-104 0 -189 33q-90 35 -153 98q-65 65 -107 168q-39 101 -39 240zM391 522q0 -139 64 -209q65 -71 174 -71 q164 0 241 133v409q-42 18 -79 23q-43 6 -91 6q-142 0 -225 -80q-84 -81 -84 -211z" />
<glyph unicode="r" horiz-adv-x="1132" d="M139 0v1044h236l18 -167q48 89 139 143q88 49 224 49q99 0 186 -35t145 -90l-169 -225q-36 33 -99 59q-65 21 -127 21q-92 0 -160 -56q-70 -55 -100 -141v-602h-293z" />
<glyph unicode="s" horiz-adv-x="1181" d="M90 102l111 217q95 -55 184 -75q100 -23 190 -23q109 0 170 21q54 25 54 65q0 35 -27 53q-31 17 -86 23l-235 27q-152 15 -240 94q-86 77 -86 223q0 156 121 248q122 94 348 94q260 0 448 -111l-116 -219q-149 82 -336 82q-178 0 -178 -82q0 -59 94 -71l199 -23 q173 -20 278 -96q100 -72 100 -225q0 -167 -137 -258q-139 -91 -377 -91q-140 0 -250 29q-107 23 -229 98z" />
<glyph unicode="t" horiz-adv-x="978" d="M72 784v244l151 12l29 279l278 -14l-12 -261h348v-260h-346v-407q0 -67 37 -101q40 -34 105 -34q55 0 96 14q42 14 82 39l98 -225q-80 -52 -156 -72q-87 -23 -178 -23q-180 0 -278 101q-99 102 -99 305v403h-155z" />
<glyph unicode="u" horiz-adv-x="1314" d="M139 438v606h293v-581q0 -232 193 -232q89 0 157 56q68 59 101 157v600h293v-1044h-234l-20 168q-45 -89 -136 -143q-89 -50 -204 -50q-211 0 -328 117q-115 118 -115 346z" />
<glyph unicode="v" horiz-adv-x="1329" d="M70 1044h348l244 -759h20l244 759h334l-441 -1048h-309z" />
<glyph unicode="w" horiz-adv-x="1830" d="M70 1044h331l181 -731h18l193 691h270l199 -691h18l174 731h307l-342 -1048h-340l-155 588h-19l-145 -588h-340z" />
<glyph unicode="x" horiz-adv-x="1372" d="M70 0l383 539l-359 505h377l205 -370h20l207 370h354l-350 -509l396 -535h-383l-238 391h-20l-218 -391h-374z" />
<glyph unicode="y" horiz-adv-x="1355" d="M70 1044h344l299 -737h18l232 737h323l-467 -1153q-52 -130 -139 -208q-85 -76 -217 -76q-147 0 -236 65l82 219q31 -13 64 -20q30 -6 59 -6q102 0 129 80l17 41z" />
<glyph unicode="z" horiz-adv-x="1159" d="M106 0v236l578 552h-547v256h910v-245l-558 -543h564v-256h-947z" />
<glyph unicode="{" horiz-adv-x="673" d="M49 424v256h55q66 0 66 72v20l-20 285v20q0 136 75 211q78 78 219 78h160v-250l-117 -4q-57 -3 -57 -68v-20l21 -270v-21q0 -60 -25 -108q-28 -48 -76 -74q101 -52 101 -180v-21l-21 -274v-21q0 -60 57 -63l117 -4v-250h-164q-142 0 -217 78q-73 76 -73 209v22l20 287v20 q0 70 -66 70h-55z" />
<glyph unicode="|" horiz-adv-x="471" d="M98 -102v1577h275v-1577h-275z" />
<glyph unicode="}" horiz-adv-x="673" d="M70 -12l116 4q58 3 58 67v21l-21 270v21q0 61 27 108q24 47 74 74q-101 49 -101 180v21l21 274v21q0 60 -58 63l-116 4v250h163q143 0 218 -78q73 -76 73 -209v-22l-20 -287v-20q0 -70 65 -70h56v-256h-56q-65 0 -65 -72v-20l20 -285v-20q0 -136 -75 -211 q-78 -78 -220 -78h-159v250z" />
<glyph unicode="~" horiz-adv-x="1034" d="M90 690q42 97 107 154q69 57 170 57q45 0 79 -12q36 -16 62 -33q33 -18 57 -29q25 -14 70 -14q56 0 86 18q33 19 59 62l162 -156q-33 -96 -100 -147q-63 -51 -152 -51q-57 0 -92 14q-36 15 -66 31l-61 30q-27 15 -72 15q-55 0 -94 -23q-36 -16 -63 -55z" />
<glyph unicode="&#xa1;" horiz-adv-x="524" d="M88 885q0 78 53 125t121 47t121 -47t53 -125q0 -80 -51 -125q-53 -47 -123 -47t-123 47q-51 45 -51 125zM117 -436v1050h291v-1050h-291z" />
<glyph unicode="&#xa3;" horiz-adv-x="1454" d="M100 205l88 45q73 36 111 86q41 52 41 108q0 19 -2 27q-3 15 -6 27l-172 -37l-54 241l142 33q-24 49 -37 101q-14 52 -14 125q0 80 28 153q26 71 82 127t135 86q79 33 187 33q139 0 237 -49q96 -45 162 -133l-197 -181q-69 93 -190 93q-77 0 -117 -43q-41 -44 -41 -111 q0 -74 35 -133l297 71l57 -268l-241 -51q12 -37 12 -80q0 -47 -16 -86q-10 -40 -49 -82q41 0 86 -10l81 -23l86 -20q45 -10 89 -10q77 0 120 37q41 38 41 102q0 63 -30 121l245 80q38 -54 58 -117q20 -59 20 -131q0 -81 -31 -148t-88 -112q-62 -49 -137 -72 q-76 -27 -176 -27q-58 0 -115 13l-110 26l-109 25q-55 12 -119 12q-151 0 -290 -71z" />
<glyph unicode="&#xa5;" horiz-adv-x="1495" d="M63 1331h347l346 -586h20l332 586h336l-373 -586l146 -10v-229h-924v229l149 10zM340 184v215h827v-213l-266 -12v-174h-295v174z" />
<glyph unicode="&#xa7;" horiz-adv-x="1169" d="M100 678q0 85 41 156q37 65 119 108q-40 34 -65 82q-25 52 -25 111q0 71 33 127q35 59 88 98q65 45 133 61q73 23 162 23q134 0 239 -31q113 -38 187 -96l-131 -215q-131 84 -283 84q-135 0 -135 -80q0 -67 96 -88l225 -51q139 -35 211 -113q74 -80 74 -199 q0 -89 -43 -153q-44 -65 -121 -109q44 -30 62 -78q22 -48 22 -106q0 -71 -31 -131q-27 -59 -86 -103t-139 -67q-83 -25 -180 -25q-123 0 -231 27t-209 88l112 231q83 -44 168 -67q76 -21 168 -21q68 0 109 23q37 24 37 63q0 63 -78 84l-240 51q-140 30 -215 111 q-74 80 -74 205zM371 700q0 -37 22 -65t68 -37l260 -57q78 21 78 96q0 82 -90 100l-260 58q-37 -9 -58 -33q-20 -26 -20 -62z" />
<glyph unicode="&#xa8;" horiz-adv-x="870" d="M33 1360q0 75 49 121q51 45 115 45q66 0 114 -45q51 -45 51 -121q0 -71 -51 -119q-51 -45 -114 -45q-32 0 -62 12q-22 10 -53 33q-25 28 -37 53q-12 27 -12 66zM508 1360q0 75 49 121q51 45 115 45q66 0 114 -45q52 -46 52 -121q0 -70 -52 -119q-51 -45 -114 -45 q-32 0 -62 12q-22 10 -53 33q-24 28 -37 53q-12 27 -12 66z" />
<glyph unicode="&#xa9;" horiz-adv-x="1818" d="M111 694q0 168 65 310q67 140 178 245q117 108 256 160q135 59 299 59q169 0 312 -55q145 -56 254 -156q110 -107 172 -245q61 -143 61 -318q0 -169 -61 -309q-65 -145 -172 -246q-107 -104 -254 -164q-148 -57 -312 -57q-176 0 -319 55q-150 56 -254 158 q-107 98 -166 244q-59 145 -59 319zM365 694q0 -126 38 -219q42 -101 111 -168q65 -67 172 -110q98 -39 223 -39q110 0 213 39q103 44 172 110q77 77 115 170q43 98 43 217q0 129 -39 224q-40 100 -110 167q-69 69 -173 107q-101 37 -221 37q-111 0 -209 -39 q-96 -39 -172 -109q-75 -72 -118 -170q-45 -96 -45 -217zM496 696q0 92 32 160q30 74 88 129q59 56 138 86q82 31 174 31q199 0 321 -131l-147 -160q-31 31 -74 47q-38 14 -92 14q-85 0 -133 -51q-45 -54 -45 -125q0 -82 49 -131q48 -45 127 -45q107 0 178 68l141 -160 q-135 -141 -338 -141q-89 0 -165 28q-77 26 -136 82q-56 50 -86 127q-32 71 -32 172z" />
<glyph unicode="&#xab;" horiz-adv-x="1114" d="M80 500v63l313 361l185 -150l-195 -237l195 -246l-185 -152zM532 500v63l318 371l184 -150l-190 -247l190 -256l-184 -150z" />
<glyph unicode="&#xac;" horiz-adv-x="958" d="M111 662v264h757v-508h-250l-24 244h-483z" />
<glyph unicode="&#xad;" horiz-adv-x="860" d="M119 432v260h622v-260h-622z" />
<glyph unicode="&#xae;" horiz-adv-x="1226" d="M78 1020q0 110 39 201q41 96 108 163q72 72 168 111q100 41 219 41t219 -41q98 -39 173 -111q71 -74 106 -163q39 -91 39 -201q0 -105 -39 -203q-43 -93 -111 -164q-74 -71 -170 -110q-100 -41 -217 -41q-119 0 -219 41q-98 40 -168 110q-66 66 -108 164q-39 91 -39 203z M283 1020q0 -70 22 -131q19 -55 64 -107q42 -45 104 -69q61 -27 139 -27q80 0 142 27q63 25 102 69q46 50 66 107q22 61 22 131q0 67 -22 131q-19 56 -66 106q-40 46 -102 70q-62 27 -142 27q-78 0 -139 -27q-61 -24 -104 -70q-45 -48 -64 -104q-22 -64 -22 -133zM424 797 v465h227q96 0 144 -54q53 -47 53 -123q0 -50 -25 -92q-23 -39 -63 -57l82 -139h-168l-51 106h-56v-106h-143zM567 1034h70q55 0 55 45t-55 45h-70v-90z" />
<glyph unicode="&#xb0;" horiz-adv-x="862" d="M80 1061q0 77 26 139q26 59 74 107q42 42 111 69q70 25 139 25t139 -25q69 -27 111 -69q49 -46 76 -107q26 -62 26 -139q0 -76 -26 -135q-25 -60 -74 -109q-45 -45 -113 -69q-64 -25 -139 -25q-69 0 -139 25q-68 26 -111 67q-48 48 -74 107q-26 62 -26 139zM317 1061 q0 -44 31 -80q29 -33 82 -33t82 33q33 33 33 80q0 49 -33 82q-31 31 -82 31t-82 -31q-31 -36 -31 -82z" />
<glyph unicode="&#xb1;" horiz-adv-x="1067" d="M119 784v252h280v295h269v-295h280v-252h-280v-274h-269v274h-280zM143 170v252h781v-252h-781z" />
<glyph unicode="&#xb4;" horiz-adv-x="509" d="M47 1247l197 432l237 -143l-176 -289h-258z" />
<glyph unicode="&#xb6;" horiz-adv-x="1159" d="M68 711q0 70 26 137q29 63 78 106q56 47 121 66q70 24 151 24h344q26 0 138 5q50 2 127 14l30 -199l-120 -37v-536q0 -153 -58 -287q-55 -138 -203 -240l-327 -229l-123 158l182 155v576q-40 -21 -88 -21q-124 0 -201 80t-77 228zM303 715q0 -43 25 -68q20 -26 55 -26 q24 0 51 10v186h-28q-47 0 -76 -29q-27 -27 -27 -73zM655 -18l33 34q25 25 37 74q14 43 14 100v627h-84v-835z" />
<glyph unicode="&#xb7;" horiz-adv-x="548" d="M96 633q0 78 54 129q53 47 124 47q72 0 125 -47q54 -51 54 -129q0 -81 -54 -129q-53 -47 -125 -47q-69 0 -122 47q-56 47 -56 129z" />
<glyph unicode="&#xb8;" horiz-adv-x="485" d="M63 -469q70 25 117 68q37 43 37 82q0 48 -33 65q-34 21 -98 21v51l45 94v143h234l-19 -159q54 -19 90 -68q33 -47 33 -119q0 -125 -82 -219q-83 -95 -256 -147z" />
<glyph unicode="&#xbb;" horiz-adv-x="1114" d="M80 279l190 249l-190 256l184 150l318 -371v-63l-318 -369zM537 289l194 237l-194 246l184 152l313 -361v-63l-313 -361z" />
<glyph unicode="&#xbf;" horiz-adv-x="1097" d="M90 8q0 160 94 273q94 110 273 163q46 15 71 43q23 30 23 64q0 30 -6 51l264 27q6 -13 14 -51q6 -30 6 -66q0 -99 -59 -170q-60 -72 -184 -106q-201 -56 -201 -211q0 -98 66 -152q65 -53 194 -53q201 0 354 123l150 -213q-117 -94 -242 -136q-128 -43 -274 -43 q-115 0 -217 31q-100 27 -172 86q-72 57 -113 144t-41 196zM489 885q0 77 54 125q53 47 121 47q67 0 120 -47q54 -48 54 -125q0 -79 -52 -125q-53 -47 -122 -47q-70 0 -123 47q-52 46 -52 125z" />
<glyph unicode="&#xf7;" horiz-adv-x="1017" d="M119 567v258h780v-258h-780zM338 299q0 38 14 70q12 25 37 53q31 24 55 33q30 12 64 12q33 0 63 -12q26 -10 56 -33q25 -28 37 -53q14 -32 14 -70t-14 -70q-12 -25 -37 -53q-30 -23 -56 -33q-30 -12 -63 -12q-34 0 -64 12q-24 9 -55 33q-25 28 -37 53q-14 32 -14 70z M338 1094q0 72 51 123q57 45 119 45t119 -45q51 -51 51 -123q0 -38 -14 -70q-12 -25 -37 -53q-30 -23 -56 -33q-30 -12 -63 -12q-34 0 -64 12q-24 9 -55 33q-24 28 -37 53q-14 32 -14 70z" />
<glyph unicode="&#x2c6;" horiz-adv-x="661" d="M8 1335v33l287 268h61l297 -268v-33l-139 -147l-190 153l-174 -153z" />
<glyph unicode="&#x2da;" horiz-adv-x="606" d="M39 1432q0 52 18 96q17 39 56 82q39 34 84 53q44 20 106 20q60 0 107 -20q50 -21 82 -53q36 -36 53 -82q20 -41 20 -96q0 -54 -20 -101q-21 -50 -53 -78q-24 -31 -82 -55q-47 -20 -107 -20q-62 0 -106 20q-55 23 -84 55q-32 27 -56 78q-18 49 -18 101zM225 1432 q0 -28 21 -56q27 -20 57 -20t57 20q21 28 21 56q0 29 -21 53q-25 22 -57 22t-57 -22q-21 -24 -21 -53z" />
<glyph unicode="&#x2dc;" horiz-adv-x="890" d="M35 1368q41 81 108 127q65 47 154 47q50 0 82 -14q23 -10 65 -31l62 -31q28 -14 69 -14q43 0 78 18q34 15 58 46l145 -146q-40 -82 -102 -129q-61 -43 -150 -43q-49 0 -84 14q-25 10 -69 33q-49 24 -64 31q-32 14 -70 14q-90 0 -141 -63z" />
<glyph unicode="&#x3bc;" horiz-adv-x="1300" d="M139 -381v1425h293v-589q0 -224 193 -224q89 0 157 56q68 59 101 157v600h293v-1044h-234l-20 160q-41 -90 -115 -137q-76 -48 -166 -48q-139 0 -215 64v-420h-287z" />
<glyph unicode="&#x401;" d="M160 0v1372h1026v-276h-723v-258h645v-269h-645v-293h758v-276h-1061zM250 1698q0 42 14 74q15 34 39 55q26 26 57 37q30 12 64 12q73 0 125 -49q53 -47 53 -129q0 -75 -53 -125q-53 -47 -125 -47q-34 0 -64 12q-28 10 -57 35q-25 25 -39 57q-14 28 -14 68zM774 1698 q0 42 14 74q15 34 39 55q26 26 58 37q30 12 63 12q70 0 125 -49q51 -48 51 -129q0 -74 -51 -125q-56 -47 -125 -47q-33 0 -63 12q-30 10 -58 35q-25 25 -39 57q-14 28 -14 68z" />
<glyph unicode="&#x402;" horiz-adv-x="1798" d="M88 1094v278h1243v-278h-479v-273q133 121 326 121q100 0 194 -33q95 -39 154 -98q62 -59 98 -152q35 -93 35 -206v-355q0 -112 -37 -196q-36 -86 -96 -140q-62 -59 -144 -86q-86 -28 -174 -28q-89 0 -159 20q-74 21 -148 68l103 223q90 -43 184 -43q84 0 131 47 q45 48 45 137v340q0 113 -61 174q-62 62 -170 62q-98 0 -166 -45q-74 -44 -115 -121v-510h-305v1094h-459z" />
<glyph unicode="&#x403;" horiz-adv-x="1273" d="M160 0v1372h1038v-278h-731v-1094h-307zM571 1556l195 449l256 -125l-176 -324h-275z" />
<glyph unicode="&#x404;" horiz-adv-x="1501" d="M98 682q0 150 54 276q47 125 147 230q94 94 238 155q140 58 317 58q317 0 530 -189l-172 -223q-143 131 -366 131q-161 0 -268 -76q-108 -76 -148 -204h547v-281h-555q34 -143 145 -225q110 -82 277 -82q227 0 393 158l174 -211q-234 -228 -588 -228q-164 0 -295 49 q-139 54 -229 144q-98 93 -147 225q-54 128 -54 293z" />
<glyph unicode="&#x405;" horiz-adv-x="1370" d="M94 129l129 252q117 -72 230 -102q118 -31 241 -31q135 0 203 41q66 41 66 110q0 62 -45 95q-46 34 -150 49l-211 26q-201 27 -311 125q-111 99 -111 285q0 108 41 180q37 78 111 133q76 57 172 80q101 29 225 29q169 0 305 -43q141 -45 244 -131l-152 -219 q-88 62 -182 90q-102 30 -209 30q-134 0 -192 -34q-58 -37 -58 -101q0 -61 43 -88q45 -31 138 -43l200 -26q225 -30 338 -140q111 -105 111 -280q0 -104 -39 -183q-42 -85 -113 -139q-75 -60 -188 -90q-106 -33 -254 -33q-169 0 -309 35q-143 36 -273 123z" />
<glyph unicode="&#x406;" horiz-adv-x="630" d="M160 0v1372h309v-1372h-309z" />
<glyph unicode="&#x407;" horiz-adv-x="630" d="M-80 1700q0 80 51 125q50 47 119 47q70 0 123 -47q49 -46 49 -125q0 -73 -49 -119q-52 -49 -123 -49q-70 0 -119 49q-51 45 -51 119zM160 0v1372h309v-1372h-309zM373 1700q0 80 51 125q53 47 119 47q71 0 121 -47q51 -45 51 -125q0 -74 -51 -119q-49 -49 -121 -49 q-67 0 -119 49q-51 45 -51 119z" />
<glyph unicode="&#x408;" horiz-adv-x="1130" d="M66 90l133 242q66 -44 129 -62q69 -16 129 -16q98 0 153 61q54 60 54 189v868h307v-858q0 -263 -125 -403q-128 -140 -371 -140q-117 0 -215 25q-96 24 -194 94z" />
<glyph unicode="&#x409;" horiz-adv-x="2297" d="M25 18l69 265q46 -21 101 -21q43 0 71 17q31 14 51 53q33 57 45 110q14 59 27 158q8 119 10 221q2 84 2 295v256h1016v-422h256q126 0 221 -32q97 -28 172 -91q72 -63 111 -151q39 -82 39 -203q0 -109 -39 -194q-43 -90 -109 -148q-65 -59 -167 -98q-109 -33 -215 -33 h-576v1098h-401q0 -226 -4 -328q0 -95 -17 -274q-21 -140 -49 -222q-30 -93 -86 -165q-54 -66 -131 -101q-84 -33 -182 -33q-53 0 -117 11q-39 7 -98 32zM1417 274h248q244 0 244 201q0 103 -64 152q-63 51 -182 51h-246v-404z" />
<glyph unicode="&#x40a;" horiz-adv-x="2236" d="M160 0v1372h309v-536h580v536h309v-422h252q126 0 221 -32q97 -28 172 -91q76 -67 111 -151q40 -79 40 -203q0 -111 -38 -194q-41 -86 -109 -148q-65 -57 -168 -98q-109 -33 -217 -33h-573v551h-580v-551h-309zM1358 274h244q243 0 243 201q0 104 -63 152q-63 51 -180 51 h-244v-404z" />
<glyph unicode="&#x40b;" horiz-adv-x="1798" d="M88 1094v278h1243v-278h-479v-273q133 121 326 121q100 0 194 -33q95 -39 154 -98q62 -59 98 -152q35 -93 35 -206v-453h-295v440q0 113 -61 174q-62 62 -170 62q-98 0 -166 -45q-74 -44 -115 -121v-510h-305v1094h-459z" />
<glyph unicode="&#x40c;" horiz-adv-x="1507" d="M160 0v1372h303v-522l149 16l387 506h379l-510 -641l559 -731h-395l-418 586h-151v-586h-303zM604 1556l195 449l256 -125l-176 -324h-275z" />
<glyph unicode="&#x40e;" horiz-adv-x="1495" d="M68 1372h372l338 -686h21l284 686h342l-538 -1134q-66 -137 -150 -201q-81 -66 -196 -66q-141 0 -250 47l69 261q30 -13 62 -19q30 -6 59 -6q104 0 131 76l17 41zM416 1878h229q0 -55 35 -90t88 -35q55 0 84 33q35 32 35 92h229q0 -75 -22 -143q-25 -68 -70 -113 q-49 -49 -111 -74q-59 -26 -145 -26q-88 0 -150 26q-61 23 -110 72q-45 45 -70 113q-22 68 -22 145z" />
<glyph unicode="&#x40f;" horiz-adv-x="1515" d="M160 0v1372h309v-1091h575v1091h310v-1372h-447l-16 -287h-266l-19 287h-446z" />
<glyph unicode="&#x410;" horiz-adv-x="1624" d="M78 0l563 1374h338l567 -1374h-340l-104 272h-588l-102 -272h-334zM614 543h387l-182 522h-20z" />
<glyph unicode="&#x411;" horiz-adv-x="1404" d="M160 0v1372h1028v-276h-723v-213h315q116 0 215 -27q98 -26 172 -82q65 -50 111 -135q39 -89 39 -195q0 -101 -39 -190q-45 -83 -113 -139q-71 -56 -170 -86q-106 -29 -215 -29h-620zM465 274h315q113 0 170 45q58 49 58 125q0 82 -58 125q-57 45 -162 45h-323v-340z" />
<glyph unicode="&#x412;" horiz-adv-x="1421" d="M160 0v1372h606q231 0 352 -100q125 -101 125 -275q0 -85 -35 -153q-37 -67 -98 -101v-18q102 -35 160 -119q61 -82 61 -196q0 -81 -28 -160q-30 -73 -95 -129q-57 -52 -157 -88q-90 -33 -228 -33h-663zM465 262h362q203 0 203 162q0 79 -53 117q-49 41 -152 41h-360 v-320zM465 831h313q77 0 123 37q43 40 43 105q0 137 -176 137h-303v-279z" />
<glyph unicode="&#x413;" horiz-adv-x="1273" d="M160 0v1372h1038v-278h-731v-1094h-307z" />
<glyph unicode="&#x414;" horiz-adv-x="1734" d="M90 190v84h57q41 0 86 31t72 96q56 124 80 318q25 202 25 430v223h1036v-1096h199v-83l-27 -480h-277l-12 287h-928l-16 -287h-279zM582 276h557v822h-426q-3 -296 -37 -498q-34 -205 -94 -324z" />
<glyph unicode="&#x415;" d="M160 0v1372h1026v-276h-723v-258h645v-269h-645v-293h758v-276h-1061z" />
<glyph unicode="&#x416;" horiz-adv-x="2220" d="M63 0l500 741l-444 631h373l315 -498l151 -12v510h304v-510l153 12l311 498h373l-440 -631l498 -741h-371l-363 592h-161v-592h-304v592h-159l-365 -592h-371z" />
<glyph unicode="&#x417;" horiz-adv-x="1366" d="M90 174l162 225q112 -85 211 -118q110 -35 235 -35q136 0 203 49q66 54 66 133q0 143 -187 143h-346v267h314q72 0 112 34q41 35 41 97q0 78 -53 116q-52 41 -178 41q-192 0 -361 -129l-159 211q116 101 247 146q130 47 291 47q117 0 219 -29q97 -28 164 -80t105 -121 q34 -72 34 -157q0 -91 -34 -158q-36 -71 -109 -113v-18q98 -34 154 -111q55 -79 55 -194q0 -99 -39 -178q-38 -84 -111 -142q-80 -61 -188 -94q-113 -35 -260 -35q-84 0 -170 13q-78 9 -152 34q-77 26 -137 64q-68 40 -129 92z" />
<glyph unicode="&#x418;" horiz-adv-x="1556" d="M160 0v1372h303v-913l663 913h271v-1372h-305v862l-631 -862h-301z" />
<glyph unicode="&#x419;" horiz-adv-x="1556" d="M160 0v1372h303v-913l663 913h271v-1372h-305v862l-631 -862h-301zM426 1878h229q0 -55 35 -90t88 -35q50 0 86 33q33 38 33 92h229q0 -78 -24 -143q-22 -67 -68 -113q-47 -47 -108 -74q-65 -26 -148 -26q-87 0 -149 26q-62 23 -111 72q-45 45 -67 113q-25 67 -25 145z " />
<glyph unicode="&#x41a;" horiz-adv-x="1507" d="M160 0v1372h303v-522l149 16l387 506h379l-510 -641l559 -731h-395l-418 586h-151v-586h-303z" />
<glyph unicode="&#x41b;" horiz-adv-x="1593" d="M25 18l69 265q37 -14 51 -17q36 -4 50 -4q43 0 71 17q31 14 51 53q32 56 45 110q15 63 27 160q8 115 10 219q2 84 2 295v256h1033v-1372h-308v1098h-417q0 -226 -4 -328q0 -95 -17 -274q-21 -140 -49 -222q-30 -93 -86 -165q-54 -66 -131 -101q-84 -33 -182 -33 q-53 0 -117 11q-39 7 -98 32z" />
<glyph unicode="&#x41c;" horiz-adv-x="1753" d="M160 0v1372h336l385 -622l381 622h329v-1372h-301v905h-18l-318 -522h-159l-318 522h-18v-905h-299z" />
<glyph unicode="&#x41d;" horiz-adv-x="1538" d="M160 0v1372h309v-536h600v536h309v-1372h-309v551h-600v-551h-309z" />
<glyph unicode="&#x41e;" horiz-adv-x="1652" d="M98 686q0 143 54 279q53 134 151 227q94 94 229 151q131 58 293 58q161 0 297 -53q138 -57 230 -152q94 -90 149 -225q53 -133 53 -285q0 -146 -53 -276q-50 -127 -149 -230q-94 -94 -230 -151q-134 -58 -297 -58q-157 0 -293 54q-135 57 -229 151q-98 93 -151 227 q-54 136 -54 283zM403 686q0 -85 29 -174q27 -79 84 -139q51 -54 133 -94q84 -33 176 -33q101 0 179 35q80 35 135 96q51 57 82 139q26 86 26 170q0 92 -28 174q-26 80 -84 141q-51 57 -131 93q-74 32 -179 32q-100 0 -178 -34q-77 -35 -131 -95q-57 -60 -84 -139 q-29 -85 -29 -172z" />
<glyph unicode="&#x41f;" horiz-adv-x="1521" d="M160 0v1372h1200v-1372h-309v1087h-582v-1087h-309z" />
<glyph unicode="&#x420;" horiz-adv-x="1415" d="M160 0v1372h610q122 0 223 -37q95 -32 174 -98q71 -67 111 -156q39 -88 39 -204q0 -120 -43 -213q-51 -100 -123 -156q-74 -68 -180 -98q-98 -35 -226 -35h-278v-375h-307zM467 647h278q122 0 193 62q70 61 70 165q0 103 -62 162q-65 62 -188 62h-291v-451z" />
<glyph unicode="&#x421;" horiz-adv-x="1501" d="M98 682q0 151 54 279q48 128 149 229q96 96 238 153q137 58 315 58q162 0 293 -49q128 -45 237 -140l-170 -223q-73 67 -165 96q-85 35 -207 35q-100 0 -183 -30q-81 -35 -137 -91q-59 -62 -88 -139q-31 -82 -31 -174q0 -96 31 -178q37 -84 90 -135q53 -53 138 -90 q82 -31 176 -31q110 0 219 39q107 47 180 117l174 -215q-236 -222 -590 -222q-162 0 -293 49q-128 51 -229 144q-98 101 -147 225q-54 136 -54 293z" />
<glyph unicode="&#x422;" horiz-adv-x="1419" d="M88 1094v278h1243v-278h-469v-1094h-305v1094h-469z" />
<glyph unicode="&#x423;" horiz-adv-x="1495" d="M68 1372h372l338 -686h21l284 686h342l-538 -1134q-66 -137 -150 -201q-81 -66 -196 -66q-141 0 -250 47l69 261q30 -13 62 -19q30 -6 59 -6q104 0 131 76l17 41z" />
<glyph unicode="&#x424;" horiz-adv-x="1847" d="M90 694q0 128 45 224q49 101 123 163q73 67 176 103q107 35 215 35h121v182h305v-182h121q130 0 225 -35q96 -27 181 -99q73 -67 114 -163t41 -220q0 -127 -45 -223q-50 -102 -123 -164q-72 -66 -178 -102q-103 -35 -215 -35h-121v-178h-305v178h-121q-129 0 -227 35 q-97 28 -176 98q-74 68 -115 164t-41 219zM395 696q0 -123 72 -186q69 -66 192 -66h111v510h-111q-130 0 -196 -69q-68 -71 -68 -189zM1075 442h111q129 0 196 70q68 71 68 188q0 120 -70 187q-74 65 -194 65h-111v-510z" />
<glyph unicode="&#x425;" horiz-adv-x="1558" d="M68 0l481 713l-438 659h383l282 -489h21l272 489h379l-438 -676l481 -696h-397l-308 528h-20l-303 -528h-395z" />
<glyph unicode="&#x426;" horiz-adv-x="1595" d="M160 0v1372h309v-1096h555v1096h309v-1096h183v-94l-25 -469h-277l-14 287h-1040z" />
<glyph unicode="&#x427;" horiz-adv-x="1472" d="M133 887v485h305v-452q0 -138 62 -209q64 -70 198 -70q84 0 168 23q81 26 140 67v641h307v-1372h-307v459q-145 -92 -359 -92q-117 0 -211 30q-89 28 -162 95q-68 68 -104 163q-37 98 -37 232z" />
<glyph unicode="&#x428;" horiz-adv-x="2074" d="M160 0v1372h305v-1098h420v1098h305v-1098h420v1098h305v-1372h-1755z" />
<glyph unicode="&#x429;" horiz-adv-x="2177" d="M160 0v1372h305v-1098h420v1098h305v-1098h420v1098h305v-1098h182v-92l-24 -469h-277l-14 287h-1622z" />
<glyph unicode="&#x42a;" horiz-adv-x="1552" d="M47 1108v264h615v-422h270q123 0 215 -32q97 -28 172 -91q76 -67 111 -151q40 -79 40 -203q0 -113 -40 -194q-38 -86 -109 -148q-62 -57 -166 -98q-109 -33 -211 -33h-590v1098zM662 274h258q243 0 243 201q0 104 -63 152q-63 51 -182 51h-256v-404z" />
<glyph unicode="&#x42b;" horiz-adv-x="1880" d="M160 0v1372h307v-422h258q126 0 221 -32q91 -27 172 -91q71 -64 109 -151q39 -82 39 -203q0 -109 -39 -194q-43 -90 -109 -148q-64 -59 -168 -98q-104 -33 -213 -33h-577zM467 274h248q243 0 243 201q0 104 -63 152q-63 51 -182 51h-246v-404zM1413 0v1372h307v-1372 h-307z" />
<glyph unicode="&#x42c;" horiz-adv-x="1368" d="M160 0v1372h307v-422h276q127 0 222 -32q97 -28 172 -91q70 -61 110 -151q39 -82 39 -203q0 -109 -39 -194q-43 -92 -108 -148q-64 -59 -168 -98q-109 -33 -215 -33h-596zM467 274h268q244 0 244 201q0 103 -64 152q-63 51 -182 51h-266v-404z" />
<glyph unicode="&#x42d;" horiz-adv-x="1488" d="M90 188l172 213q168 -149 391 -149q163 0 275 80q112 77 139 225h-506v279h506q-24 131 -129 208q-107 76 -266 76q-222 0 -369 -129l-170 219q116 99 250 144q139 47 293 47q163 0 291 -49q129 -47 227 -142q90 -87 145 -223q52 -134 52 -297q0 -153 -52 -284 q-56 -141 -147 -228q-91 -94 -229 -151q-133 -56 -299 -56q-179 0 -316 49q-137 50 -258 168z" />
<glyph unicode="&#x42e;" horiz-adv-x="2082" d="M162 0v1372h303v-549h160q22 135 80 234q50 98 143 184q93 77 203 119q115 41 247 41q162 0 279 -53q125 -48 217 -146q93 -96 141 -227q50 -130 50 -289q0 -152 -52 -283q-49 -131 -139 -227q-91 -94 -217 -151q-133 -54 -279 -54q-284 0 -460 156q-172 153 -213 432 h-160v-559h-303zM915 686q0 -97 27 -186q30 -85 78 -142q54 -60 123 -88q67 -30 155 -30q173 0 277 116q104 119 104 330q0 214 -102 328q-98 116 -279 116q-84 0 -155 -30q-68 -29 -121 -88q-49 -54 -80 -140q-27 -93 -27 -186z" />
<glyph unicode="&#x42f;" horiz-adv-x="1441" d="M68 0l352 477q-129 49 -207 158q-76 110 -76 256q0 112 39 194q39 88 111 154q69 63 172 98t223 35h600v-1372h-307v408h-258l-268 -408h-381zM446 887q0 -97 66 -154q67 -55 178 -55h285v418h-289q-112 0 -174 -56q-66 -54 -66 -153z" />
<glyph unicode="&#x430;" horiz-adv-x="1255" d="M74 324q0 82 35 147t100 107q53 37 151 65q107 21 201 21q65 0 115 -9q61 -10 100 -20v33q0 65 -47 106q-46 37 -145 37q-171 0 -338 -78l-115 213q119 69 221 94q122 29 234 29q129 0 217 -33q93 -36 147 -90q63 -63 86 -141q29 -80 29 -182v-316q0 -82 61 -82 q23 0 35 6l27 -231q-33 -11 -62 -16q-40 -7 -73 -7q-88 0 -146 37q-61 39 -76 125q-57 -83 -149 -125q-85 -39 -211 -39q-181 0 -291 91q-106 86 -106 258zM373 338q0 -53 37 -80q36 -31 112 -31q126 0 191 56q65 53 65 125v24q-103 23 -209 23q-104 0 -151 -33 q-45 -31 -45 -84z" />
<glyph unicode="&#x431;" horiz-adv-x="1333" d="M102 643q0 341 142 524q140 180 393 224l188 32q82 15 82 88q0 31 -8 50l242 38q26 -68 26 -157q0 -113 -69 -185q-76 -73 -183 -90l-245 -34q-129 -21 -209 -97q-79 -82 -96 -188h18q66 66 147 100q84 35 209 35q110 0 203 -35q96 -38 156 -100q64 -58 104 -156 q37 -93 37 -211q0 -120 -45 -211q-47 -93 -123 -157q-80 -68 -182 -101q-101 -37 -221 -37q-136 0 -242 50q-107 46 -178 135q-72 91 -109 211q-37 121 -37 272zM389 559q3 -152 80 -244t201 -92t194 70q74 71 74 186q0 130 -68 201q-67 70 -184 70q-106 0 -180 -54 q-75 -49 -117 -137z" />
<glyph unicode="&#x432;" horiz-adv-x="1179" d="M139 0v1044h506q90 0 154 -20q68 -17 123 -53q53 -40 77 -90q29 -53 29 -117q0 -67 -29 -117q-31 -51 -81 -74v-12q75 -23 126 -86q46 -62 46 -151q0 -148 -107 -238q-112 -86 -326 -86h-518zM424 242h262q46 0 84 24q33 26 33 72q0 94 -121 94h-258v-190zM424 641h219 q37 0 70 23q26 23 26 59q0 39 -26 59q-28 25 -80 25h-209v-166z" />
<glyph unicode="&#x433;" horiz-adv-x="1071" d="M139 0v1044h846v-258h-553v-786h-293z" />
<glyph unicode="&#x434;" horiz-adv-x="1386" d="M59 176v72l64 4q48 3 90 51q40 49 61 129q35 116 41 268q11 143 11 344h848v-788h153v-70l-16 -426h-254l-17 240h-688l-30 -240h-246zM500 256h385v537h-297q0 -105 -6 -197q-8 -81 -25 -168q-8 -47 -25 -96q-14 -46 -32 -76z" />
<glyph unicode="&#x435;" horiz-adv-x="1257" d="M92 520q0 109 39 215q44 103 115 174q78 75 180 117q107 43 236 43q112 0 202 -37q95 -34 160 -100q65 -62 104 -158q37 -87 37 -203q0 -35 -6 -73q-3 -35 -12 -70h-762q15 -84 90 -141q71 -56 203 -56q196 0 340 99l125 -213q-105 -74 -223 -109q-112 -33 -258 -33 q-140 0 -244 39q-107 40 -178 111q-72 72 -109 172q-39 98 -39 223zM393 643h473q-3 78 -55 127t-158 49q-108 0 -170 -47q-63 -45 -90 -129z" />
<glyph unicode="&#x436;" horiz-adv-x="1845" d="M59 0l412 549l-387 495h352l269 -364l79 -4v368h287v-368l80 4l266 364h355l-388 -477l402 -567h-340l-289 432h-86v-432h-287v432h-86l-282 -432h-357z" />
<glyph unicode="&#x437;" horiz-adv-x="1163" d="M63 135l142 207q78 -61 164 -90q79 -27 172 -27q225 0 225 113q0 84 -113 84h-260v219h230q49 0 73 21q29 20 29 61q0 45 -37 72q-36 26 -135 26q-86 0 -166 -22q-70 -19 -147 -70l-123 199q102 72 207 106q110 35 237 35q105 0 184 -20q88 -19 144 -58q60 -41 92 -96 q33 -56 33 -133q0 -58 -29 -111q-27 -46 -78 -71v-17q67 -25 113 -88q39 -58 39 -139q0 -70 -29 -139q-27 -65 -92 -115q-65 -52 -160 -78q-106 -29 -237 -29q-141 0 -254 35q-112 33 -224 125z" />
<glyph unicode="&#x438;" horiz-adv-x="1292" d="M139 0v1044h291v-618l463 618h260v-1044h-291v606l-456 -606h-267z" />
<glyph unicode="&#x439;" horiz-adv-x="1292" d="M139 0v1044h291v-618l463 618h260v-1044h-291v606l-456 -606h-267zM291 1548h225q0 -56 31 -92q30 -35 90 -35q58 0 88 35q33 33 33 92h225q-3 -159 -98 -262q-102 -94 -248 -94q-72 0 -139 25q-68 22 -109 69q-44 38 -74 111q-24 67 -24 151z" />
<glyph unicode="&#x43a;" horiz-adv-x="1261" d="M139 0v1044h293v-372l109 18l272 354h367l-398 -475l437 -569h-357l-313 426h-117v-426h-293z" />
<glyph unicode="&#x43b;" horiz-adv-x="1357" d="M31 18l55 238q14 -5 49 -14q9 0 26 -1t23 -1q42 0 66 24t39 62q26 64 41 190q14 118 14 322v206h873v-1044h-293v793h-301q0 -95 -2 -144q-3 -75 -9 -145q-5 -57 -16 -137q-8 -58 -25 -117q-41 -132 -118 -197q-78 -69 -215 -69q-68 0 -109 8q-49 6 -98 26z" />
<glyph unicode="&#x43c;" horiz-adv-x="1464" d="M139 0v1044h328l266 -436l273 436h319v-1044h-278v645h-19l-231 -362h-135l-228 362h-16v-645h-279z" />
<glyph unicode="&#x43d;" horiz-adv-x="1282" d="M139 0v1044h295v-389h412v389h295v-1044h-295v399h-412v-399h-295z" />
<glyph unicode="&#x43e;" horiz-adv-x="1327" d="M92 522q0 121 43 219q40 103 117 174q81 75 180 113q106 41 232 41q128 0 229 -39q107 -40 182 -112q76 -70 117 -173q43 -101 43 -223q0 -120 -43 -221q-41 -96 -119 -174q-87 -77 -182 -111q-99 -41 -227 -41q-131 0 -232 39q-102 40 -180 111q-77 71 -117 174 q-43 98 -43 223zM383 522q0 -135 76 -211q77 -80 205 -80q130 0 204 80q74 77 74 211q0 131 -74 211q-78 78 -204 78q-131 0 -205 -80q-76 -79 -76 -209z" />
<glyph unicode="&#x43f;" horiz-adv-x="1277" d="M139 0v1044h998v-1044h-295v788h-408v-788h-295z" />
<glyph unicode="&#x440;" d="M139 -381v1425h236l22 -137q63 83 148 125q84 37 203 37q113 0 200 -37q100 -46 154 -110q62 -62 102 -168q35 -103 35 -222q0 -137 -45 -239q-47 -106 -121 -174q-79 -73 -176 -107q-101 -37 -209 -37q-70 0 -135 15q-66 15 -123 49v-420h-291zM430 305q56 -32 111 -49 q62 -18 127 -18q122 0 198 79t76 222q0 126 -63 198q-65 74 -179 74q-100 0 -168 -47q-66 -46 -102 -125v-334z" />
<glyph unicode="&#x441;" horiz-adv-x="1196" d="M92 520q0 118 43 219q41 96 119 174q83 76 180 115q103 41 223 41q147 0 246 -41q102 -37 191 -119l-164 -198q-101 94 -266 94q-54 0 -109 -19q-52 -21 -88 -57q-40 -34 -61 -86q-23 -58 -23 -115q0 -130 76 -209q73 -79 203 -79q84 0 155 30q66 25 121 80l170 -194 q-99 -99 -207 -140q-115 -41 -252 -41q-138 0 -239 43q-102 42 -177 117q-70 76 -106 172q-35 103 -35 213z" />
<glyph unicode="&#x442;" horiz-adv-x="1146" d="M76 786v258h995v-258h-350v-786h-293v786h-352z" />
<glyph unicode="&#x443;" horiz-adv-x="1355" d="M70 1044h344l299 -737h18l232 737h323l-467 -1153q-52 -130 -139 -208q-85 -76 -217 -76q-147 0 -236 65l82 219q31 -13 64 -20q30 -6 59 -6q102 0 129 80l17 41z" />
<glyph unicode="&#x444;" horiz-adv-x="1880" d="M90 526q0 128 43 232q45 102 117 168q70 68 172 106q93 37 203 37q96 0 178 -31v389h289v-426q89 68 221 68q229 0 358 -141q131 -140 131 -410q0 -127 -43 -231q-44 -100 -117 -170q-74 -71 -172 -105q-93 -37 -202 -37q-46 0 -97 7q-35 6 -79 22v-385h-289v422 q-91 -66 -223 -66q-227 0 -359 144q-131 140 -131 407zM383 524q0 -149 63 -221q66 -72 168 -72q60 0 109 19q48 22 80 59v477q-65 27 -148 27q-124 0 -198 -74t-74 -215zM1092 256q31 -11 67 -18q44 -7 80 -7q125 0 199 74q71 74 71 215q0 149 -63 221t-166 72 q-62 0 -109 -18q-45 -20 -79 -60v-479z" />
<glyph unicode="&#x445;" horiz-adv-x="1372" d="M70 0l383 539l-359 505h377l205 -370h20l207 370h354l-350 -509l396 -535h-383l-238 391h-20l-218 -391h-374z" />
<glyph unicode="&#x446;" horiz-adv-x="1333" d="M139 0v1044h291v-790h404v790h290v-790h150v-80l-19 -414h-254l-14 240h-848z" />
<glyph unicode="&#x447;" horiz-adv-x="1216" d="M98 692v352h291v-325q0 -191 176 -191q60 0 123 17q50 17 96 49v450h291v-1044h-291v344q-56 -37 -125 -51q-77 -17 -149 -17q-192 0 -301 109q-111 111 -111 307z" />
<glyph unicode="&#x448;" horiz-adv-x="1757" d="M141 0v1044h285v-790h311v790h285v-790h311v790h285v-1044h-1477z" />
<glyph unicode="&#x449;" horiz-adv-x="1826" d="M141 0v1044h285v-790h311v790h285v-790h311v790h285v-790h149v-80l-18 -414h-254l-14 240h-1340z" />
<glyph unicode="&#x44a;" horiz-adv-x="1296" d="M47 793v251h549v-292q58 23 111 34q59 15 118 15q75 0 156 -23q74 -24 129 -73q51 -48 86 -123q31 -76 31 -172q0 -95 -35 -166q-29 -73 -94 -129t-156 -86q-95 -29 -207 -29h-430v793h-258zM596 254h141q98 0 148 41q47 41 47 117q0 145 -160 145q-53 0 -92 -8 q-40 -8 -84 -31v-264z" />
<glyph unicode="&#x44b;" horiz-adv-x="1617" d="M139 0v1044h293v-292q58 23 111 34q59 15 121 15q76 0 153 -23q74 -25 125 -73q56 -47 86 -121q31 -76 31 -174q0 -94 -33 -164q-36 -79 -96 -131q-63 -54 -152 -84q-91 -31 -207 -31h-432zM432 254h143q98 0 142 41q47 41 47 117q0 145 -156 145q-102 0 -176 -39v-264z M1182 0v1044h295v-1044h-295z" />
<glyph unicode="&#x44c;" horiz-adv-x="1150" d="M139 0v1044h293v-294q105 51 236 51q73 0 157 -23q74 -23 133 -73q51 -43 91 -121q32 -78 32 -174q0 -93 -34 -168q-36 -76 -101 -127q-61 -55 -155 -86q-95 -29 -205 -29h-447zM432 254h156q99 0 149 41q49 43 49 117q0 145 -168 145q-102 0 -186 -41v-262z" />
<glyph unicode="&#x44d;" horiz-adv-x="1193" d="M86 160l162 188q121 -115 293 -115q105 0 176 50t86 141h-348v217h340q-15 82 -82 125q-58 47 -168 47q-151 0 -273 -104l-159 196q173 164 432 164q135 0 239 -43q107 -45 174 -117q72 -72 107 -172q37 -101 37 -213q0 -119 -41 -225q-45 -103 -117 -172 q-72 -72 -176 -113q-98 -39 -223 -39q-144 0 -254 43q-108 45 -205 142z" />
<glyph unicode="&#x44e;" horiz-adv-x="1718" d="M127 0v1044h291v-389h114q21 89 68 166q45 75 117 131q72 57 155 86q91 31 191 31q128 0 229 -39q106 -41 178 -110q77 -71 117 -175q41 -100 41 -225q0 -118 -41 -221q-40 -98 -117 -172q-79 -76 -178 -111q-99 -41 -229 -41q-118 0 -203 33q-99 37 -160 90 q-66 57 -110 135q-45 83 -60 173h-112v-406h-291zM788 524q0 -136 76 -215q77 -80 199 -80t199 80q73 79 73 215q0 133 -71 213q-72 78 -201 78q-118 0 -199 -78q-76 -82 -76 -213z" />
<glyph unicode="&#x44f;" horiz-adv-x="1226" d="M66 0l286 346q-99 34 -155 121q-60 80 -60 192q0 187 133 287q128 98 361 98h448v-1044h-293v328q-76 -31 -159 -37l-213 -291h-348zM430 651q0 -67 47 -102q46 -37 135 -37q97 0 174 41v240h-165q-93 0 -142 -37t-49 -105z" />
<glyph unicode="&#x451;" horiz-adv-x="1257" d="M92 520q0 109 39 215q44 103 115 174q78 75 180 117q107 43 236 43q112 0 202 -37q95 -34 160 -100q65 -62 104 -158q37 -87 37 -203q0 -35 -6 -73q-3 -35 -12 -70h-762q15 -84 90 -141q71 -56 203 -56q196 0 340 99l125 -213q-105 -74 -223 -109q-112 -33 -258 -33 q-140 0 -244 39q-107 40 -178 111q-72 72 -109 172q-39 98 -39 223zM258 1360q0 75 49 121q51 45 115 45q67 0 115 -45q51 -45 51 -121q0 -71 -51 -119q-51 -45 -115 -45q-32 0 -62 12q-22 10 -53 33q-25 28 -37 53q-12 27 -12 66zM393 643h473q-3 78 -55 127t-158 49 q-108 0 -170 -47q-63 -45 -90 -129zM733 1360q0 75 49 121q51 45 115 45q67 0 115 -45q51 -45 51 -121q0 -71 -51 -119q-51 -45 -115 -45q-31 0 -61 12q-25 11 -54 33q-25 28 -37 53q-12 27 -12 66z" />
<glyph unicode="&#x452;" horiz-adv-x="1359" d="M25 1147v235h151l19 117h268v-117h295v-235h-295v-221q51 65 131 106q73 37 186 37q209 0 322 -119q117 -117 117 -344v-545q0 -101 -31 -180q-30 -80 -86 -133q-56 -56 -127 -82q-79 -28 -164 -28q-81 0 -145 18q-59 14 -134 63l109 224q37 -22 70 -31q31 -8 80 -8 q67 0 102 41t35 112v525q0 112 -51 172q-54 57 -148 57q-91 0 -162 -53q-68 -51 -104 -156v-602h-293v1147h-145z" />
<glyph unicode="&#x453;" horiz-adv-x="1071" d="M139 0v1044h846v-258h-553v-786h-293zM465 1247l197 432l237 -143l-176 -289h-258z" />
<glyph unicode="&#x454;" horiz-adv-x="1196" d="M92 520q0 118 43 219q41 96 119 174q83 76 180 115q103 41 223 41q139 0 248 -41q106 -41 189 -121l-168 -198q-59 52 -115 73q-62 29 -147 29q-89 0 -160 -45q-72 -46 -98 -121h364v-219h-373q24 -88 95 -141q67 -52 170 -52q81 0 157 29q64 27 121 84l168 -190 q-99 -99 -207 -140q-112 -41 -252 -41q-138 0 -239 43q-102 42 -177 117q-70 76 -106 172q-35 103 -35 213z" />
<glyph unicode="&#x455;" horiz-adv-x="1181" d="M90 102l111 217q95 -55 184 -75q100 -23 190 -23q109 0 170 21q54 25 54 65q0 35 -27 53q-31 17 -86 23l-235 27q-152 15 -240 94q-86 77 -86 223q0 156 121 248q122 94 348 94q260 0 448 -111l-116 -219q-149 82 -336 82q-178 0 -178 -82q0 -59 94 -71l199 -23 q173 -20 278 -96q100 -72 100 -225q0 -167 -137 -258q-139 -91 -377 -91q-140 0 -250 29q-107 23 -229 98z" />
<glyph unicode="&#x456;" horiz-adv-x="575" d="M106 1391q0 82 56 129t125 47q71 0 127 -47q53 -47 53 -129q0 -79 -53 -129q-57 -48 -127 -48q-31 0 -68 13q-28 10 -57 35q-29 29 -39 57q-17 28 -17 72zM139 0v1044h295v-1044h-295z" />
<glyph unicode="&#x457;" horiz-adv-x="575" d="M-70 1366q0 70 50 117q46 43 108 43q67 0 113 -43q47 -47 47 -117q0 -68 -47 -115q-45 -45 -113 -45q-63 0 -108 45q-50 47 -50 115zM139 0v1044h297v-1044h-297zM334 1366q0 70 47 117q49 43 111 43q66 0 112 -43q47 -47 47 -117t-47 -117q-46 -43 -112 -43 q-62 0 -111 43q-47 47 -47 117z" />
<glyph unicode="&#x458;" horiz-adv-x="581" d="M-289 -403l101 237q53 -28 92 -35q52 -10 98 -10q63 0 104 41t41 127v1087h293v-1087q0 -92 -26 -178q-29 -80 -82 -139q-50 -56 -131 -91q-74 -30 -176 -30q-91 0 -168 18q-72 18 -146 60zM113 1391q0 83 55 129q53 47 125 47t125 -47q55 -46 55 -129q0 -80 -55 -129 q-54 -48 -125 -48t-125 48q-55 49 -55 129z" />
<glyph unicode="&#x459;" horiz-adv-x="1908" d="M31 18l55 238q14 -5 49 -14q9 0 26 -1t23 -1q42 0 66 24t39 62q26 65 41 194q14 115 14 324v200h862v-294q96 51 219 51q76 0 160 -23q73 -24 131 -73q53 -42 90 -121q33 -70 33 -174q0 -90 -35 -168q-36 -78 -100 -127q-61 -55 -156 -86q-95 -29 -205 -29h-430v793h-290 q0 -95 -2 -144q-3 -75 -9 -145q-5 -57 -16 -137q-8 -58 -25 -117q-41 -132 -118 -197q-78 -69 -215 -69q-68 0 -109 8q-49 6 -98 26zM1206 254h140q99 0 149 41q49 43 49 117q0 145 -168 145q-93 0 -170 -41v-262z" />
<glyph unicode="&#x45a;" horiz-adv-x="1839" d="M139 0v1044h295v-387h408v387h293v-294q92 51 219 51q76 0 157 -23q76 -24 134 -73q53 -42 90 -121q32 -68 32 -174q0 -99 -34 -168q-30 -73 -99 -127q-61 -55 -155 -86q-98 -29 -207 -29h-430v403h-408v-403h-295zM1135 254h141q97 0 147 41q50 44 50 117 q0 145 -166 145q-95 0 -172 -41v-262z" />
<glyph unicode="&#x45b;" horiz-adv-x="1359" d="M25 1147v235h151l19 117h268v-117h295v-235h-295v-221q51 65 131 106q73 37 186 37q209 0 322 -119q117 -117 117 -344v-606h-291v582q0 112 -51 172q-54 57 -148 57q-91 0 -162 -53q-68 -51 -104 -156v-602h-293v1147h-145z" />
<glyph unicode="&#x45c;" horiz-adv-x="1261" d="M139 0v1044h293v-372l109 18l272 354h367l-398 -475l437 -569h-357l-313 426h-117v-426h-293zM518 1247l197 432l237 -143l-176 -289h-258z" />
<glyph unicode="&#x45e;" horiz-adv-x="1355" d="M70 1044h344l299 -737h18l232 737h323l-467 -1153q-52 -130 -139 -208q-85 -76 -217 -76q-147 0 -236 65l82 219q31 -13 64 -20q30 -6 59 -6q102 0 129 80l17 41zM354 1548h226q0 -58 30 -92q30 -35 90 -35q56 0 91 35q30 34 30 92h226q-3 -164 -101 -262 q-94 -94 -246 -94q-72 0 -139 25q-61 20 -110 69q-46 46 -70 111q-27 67 -27 151z" />
<glyph unicode="&#x45f;" horiz-adv-x="1282" d="M139 0v1044h295v-790h414v790h295v-1044h-357l-16 -240h-260l-16 240h-355z" />
<glyph unicode="&#x490;" horiz-adv-x="1273" d="M160 0v1372h739l33 301h266v-579h-731v-1094h-307z" />
<glyph unicode="&#x491;" horiz-adv-x="1058" d="M139 0v1044h563l29 242h248v-500h-547v-786h-293z" />
<glyph unicode="&#x2000;" horiz-adv-x="1002" />
<glyph unicode="&#x2001;" horiz-adv-x="2005" />
<glyph unicode="&#x2002;" horiz-adv-x="1002" />
<glyph unicode="&#x2003;" horiz-adv-x="2005" />
<glyph unicode="&#x2004;" horiz-adv-x="668" />
<glyph unicode="&#x2005;" horiz-adv-x="501" />
<glyph unicode="&#x2006;" horiz-adv-x="334" />
<glyph unicode="&#x2007;" horiz-adv-x="334" />
<glyph unicode="&#x2008;" horiz-adv-x="250" />
<glyph unicode="&#x2009;" horiz-adv-x="401" />
<glyph unicode="&#x200a;" horiz-adv-x="111" />
<glyph unicode="&#x2010;" horiz-adv-x="860" d="M119 432v260h622v-260h-622z" />
<glyph unicode="&#x2011;" horiz-adv-x="860" d="M119 432v260h622v-260h-622z" />
<glyph unicode="&#x2012;" horiz-adv-x="860" d="M119 432v260h622v-260h-622z" />
<glyph unicode="&#x2013;" horiz-adv-x="1343" d="M184 432v260h975v-260h-975z" />
<glyph unicode="&#x2014;" horiz-adv-x="2076" d="M322 432v260h1433v-260h-1433z" />
<glyph unicode="&#x2018;" horiz-adv-x="477" d="M78 1044q0 51 16 101l105 274l166 -39l-39 -194q33 -14 55 -51q20 -36 20 -91q0 -73 -49 -116t-114 -43q-67 0 -113 43q-47 41 -47 116z" />
<glyph unicode="&#x2019;" horiz-adv-x="477" d="M76 1231q0 74 49 117t115 43t112 -43q47 -41 47 -117q0 -51 -16 -101l-104 -274l-166 39l39 195q-35 15 -56 53q-20 33 -20 88z" />
<glyph unicode="&#x201a;" horiz-adv-x="477" d="M76 123q0 74 49 117t115 43q65 0 112 -41q47 -44 47 -119q0 -50 -16 -100l-104 -275l-166 39l39 195q-34 15 -56 51q-20 36 -20 90z" />
<glyph unicode="&#x201c;" horiz-adv-x="819" d="M57 1044q0 57 19 103l110 289l176 -50l-51 -200q70 -40 70 -142q0 -73 -49 -116t-115 -43q-67 0 -113 43q-47 44 -47 116zM440 1044q0 57 19 103l96 239l160 -40l-29 -160q35 -15 57 -51q21 -38 21 -91q0 -72 -47 -116q-49 -43 -115 -43q-67 0 -113 43q-49 40 -49 116z " />
<glyph unicode="&#x201d;" horiz-adv-x="819" d="M55 1231q0 73 47 117q49 43 115 43t115 -43q47 -41 47 -117q0 -57 -19 -103l-96 -239l-160 41l29 160q-37 16 -55 53q-23 33 -23 88zM438 1231q0 74 49 117t115 43t115 -43q45 -45 45 -117q0 -57 -19 -103l-110 -288l-176 49l51 201q-70 40 -70 141z" />
<glyph unicode="&#x201e;" horiz-adv-x="819" d="M55 123q0 73 47 117q49 43 115 43q65 0 115 -41q47 -44 47 -119q0 -57 -19 -103l-96 -239l-160 41l29 160q-37 16 -55 51q-23 36 -23 90zM438 123q0 74 49 117t115 43t115 -43q45 -45 45 -117q0 -57 -19 -103l-110 -288l-176 49l51 201q-70 40 -70 141z" />
<glyph unicode="&#x2020;" horiz-adv-x="950" d="M100 801v254h250l-16 270h282l-18 -270h252v-254l-252 16l18 -817h-284l18 817z" />
<glyph unicode="&#x2021;" horiz-adv-x="950" d="M100 395v248h250v178l-250 -14v248h250l-16 270h282l-18 -270h252v-248l-252 14v-178h252v-248l-254 15l20 -410h-284l20 410z" />
<glyph unicode="&#x2022;" horiz-adv-x="681" d="M147 692q0 87 58 142q60 51 137 51q78 0 135 -51q58 -52 58 -142q0 -39 -17 -78q-14 -32 -43 -61q-29 -26 -61 -37q-32 -14 -72 -14t-72 14q-33 11 -63 37q-29 29 -43 61q-17 39 -17 78z" />
<glyph unicode="&#x2026;" horiz-adv-x="1429" d="M96 154q0 75 51 120q54 48 119 48t117 -46q51 -45 51 -122q0 -76 -51 -121t-117 -45q-33 0 -63 12q-26 10 -56 33q-22 25 -36 53q-15 30 -15 68zM545 154q0 78 53 120q48 48 117 48q64 0 116 -46t52 -122q0 -75 -52 -121q-51 -45 -116 -45q-34 0 -64 12q-27 11 -53 33 q-25 25 -39 53t-14 68zM993 154q0 75 51 120q54 48 119 48t117 -46q51 -45 51 -122q0 -76 -51 -121t-117 -45q-33 0 -63 12q-26 10 -56 33q-22 25 -36 53q-15 30 -15 68z" />
<glyph unicode="&#x202f;" horiz-adv-x="401" />
<glyph unicode="&#x2030;" horiz-adv-x="2433" d="M80 997q0 72 26 131q28 64 74 107q41 43 109 72q65 24 139 24t139 -24q67 -28 111 -72q48 -48 74 -107t26 -131q0 -74 -26 -133q-26 -56 -74 -104q-44 -44 -111 -72q-65 -24 -139 -24t-141 24q-64 28 -111 72q-49 52 -70 104q-26 59 -26 133zM250 88l989 1229l176 -141 l-985 -1231zM315 997q0 -50 33 -79q31 -31 80 -31t80 31q33 26 33 79q0 54 -33 80q-31 31 -80 31q-44 0 -80 -31q-33 -29 -33 -80zM920 297q0 72 26 131t74 107q43 43 110 71q67 25 140 25q72 0 139 -25q64 -27 111 -71q45 -48 71 -107q27 -61 27 -131q0 -71 -27 -133 q-27 -57 -71 -105q-47 -44 -111 -71q-67 -25 -139 -25q-76 0 -140 25q-70 28 -110 71q-45 42 -74 105q-26 59 -26 133zM1157 297q0 -49 31 -80q36 -31 82 -31t82 31q30 30 30 80q0 53 -30 80q-36 31 -82 31t-82 -31q-31 -28 -31 -80zM1686 297q0 72 26 131q28 64 74 107 q40 42 108 71q67 25 140 25q72 0 139 -25q69 -29 111 -71q46 -46 73 -107t27 -131q0 -71 -27 -133q-27 -59 -73 -105q-42 -42 -111 -71q-67 -25 -139 -25t-142 25q-65 28 -110 71q-48 51 -70 105q-26 59 -26 133zM1921 297q0 -51 33 -80q31 -31 80 -31t80 31q32 28 32 80 q0 55 -32 80q-31 31 -80 31q-44 0 -80 -31q-33 -26 -33 -80z" />
<glyph unicode="&#x2039;" horiz-adv-x="708" d="M72 494v75l368 369l183 -164l-215 -237l215 -238l-183 -176z" />
<glyph unicode="&#x203a;" horiz-adv-x="706" d="M84 287l215 237l-215 238l182 176l369 -371v-75l-369 -369z" />
<glyph unicode="&#x205f;" horiz-adv-x="501" />
<glyph unicode="&#x20ac;" horiz-adv-x="1486" d="M80 401v220h842l-23 -226l-332 -12q47 -65 125 -100q78 -37 185 -37q111 0 198 37q96 44 166 114l174 -204q-114 -111 -248 -166q-136 -56 -309 -56q-240 0 -407 111q-169 108 -240 305zM80 715v217l141 14q40 93 98 166q57 71 146 131q84 57 190 86q108 31 232 31 q149 0 276 -45q128 -50 228 -137l-172 -217q-65 60 -152 96q-83 30 -188 30q-109 0 -187 -34q-80 -38 -127 -103l391 -12l-26 -223h-850z" />
<glyph unicode="&#x2122;" horiz-adv-x="1429" d="M47 1178v196h778l150 -182l139 182h211v-608h-195v340l-139 -168h-49l-131 170v-342h-197v412h-180v-412h-196v412h-191z" />
<glyph unicode="&#x2248;" horiz-adv-x="1001" d="M92 489q40 82 105 134q68 47 157 47q50 0 80 -15q38 -15 66 -32l61 -31q25 -14 66 -14q89 0 135 69l147 -143q-38 -84 -102 -135q-70 -45 -156 -45q-50 0 -82 14q-36 16 -65 33q-10 6 -62 32q-30 15 -67 15q-47 0 -82 -21q-38 -20 -57 -51zM92 895q39 80 105 133 q68 47 157 47q52 0 80 -14q33 -13 66 -33l61 -31q25 -14 66 -14q89 0 135 70l147 -144q-38 -84 -102 -135q-70 -45 -156 -45q-50 0 -82 14q-36 16 -65 33q-20 12 -62 33q-28 14 -67 14q-49 0 -82 -20q-38 -20 -57 -51z" />
<glyph unicode="&#x2260;" horiz-adv-x="1015" d="M121 377v248h239l41 151h-280v248h348l45 168l242 -66l-29 -102h168v-248h-233l-44 -151h277v-248h-342l-45 -166l-242 70l27 96h-172z" />
<glyph unicode="&#x2264;" horiz-adv-x="897" d="M80 410v57l117 158l497 -371l-149 -201zM127 797v96l535 403l155 -198l-321 -246l321 -250l-153 -199z" />
<glyph unicode="&#x2265;" horiz-adv-x="897" d="M80 602l321 246l-321 248l156 200l534 -403v-96l-537 -394zM203 254l497 371l117 -158v-57l-465 -357z" />
<glyph unicode="&#x25fc;" horiz-adv-x="1044" d="M0 0v1044h1044v-1044h-1044z" />
</font>
</defs>
</svg>
