<svg width="56" height="56" viewBox="0 0 56 56" fill="none" xmlns="http://www.w3.org/2000/svg">
<circle cx="28" cy="28" r="28" fill="#FFECF0"/>
<path d="M24.4241 20.0059L31.2929 26.8747C31.6834 27.2652 31.6814 27.9004 31.2909 28.2909C30.9004 28.6814 30.2652 28.6835 29.8747 28.293L23.0059 21.4251V24.0207C23.0059 24.573 22.5552 25.0207 22.003 25.0207C21.4507 25.0207 21 24.573 21 24.0207L21 18L27.0207 18C27.573 18 28.0207 18.4507 28.0207 19.003C28.0207 19.5552 27.573 20.0059 27.0207 20.0059H24.4241Z" fill="#FF6584"/>
<path d="M31.5759 35.994L24.7071 29.1252C24.3166 28.7346 24.3186 28.0995 24.7091 27.7089C25.0996 27.3184 25.7348 27.3164 26.1253 27.7069L32.9941 34.5748V31.9792C32.9941 31.4269 33.4448 30.9792 33.9971 30.9792C34.5493 30.9792 35 31.4269 35 31.9792V37.9999H28.9793C28.427 37.9999 27.9793 37.5492 27.9793 36.9969C27.9793 36.4446 28.427 35.994 28.9793 35.994H31.5759Z" fill="#FF6584"/>
</svg>
