<svg width="56" height="56" viewBox="0 0 56 56" fill="none" xmlns="http://www.w3.org/2000/svg">
<circle cx="28" cy="28" r="28" fill="#FFECF0"/>
<path fill-rule="evenodd" clip-rule="evenodd" d="M21.6856 30.8034C22.0961 31.3656 22.5535 31.9373 23.0575 32.519C21.1953 32.9384 20 33.5337 20 34C20 34.807 23.5791 36 28 36C32.4209 36 36 34.807 36 34C36 33.5337 34.8047 32.9384 32.9425 32.519C33.4465 31.9373 33.9039 31.3656 34.3144 30.8034C36.5633 31.4858 38 32.5804 38 34C38 36.5068 33.5203 38 28 38C22.4797 38 18 36.5068 18 34C18 32.5804 19.4367 31.4858 21.6856 30.8034ZM29.0962 34.2554L28 35.2126L26.9038 34.2554C22.9884 30.8366 21 27.8112 21 25C21 21.0214 24.1035 18 28 18C31.8965 18 35 21.0214 35 25C35 27.8112 33.0116 30.8366 29.0962 34.2554ZM33 25C33 22.1382 30.8038 20 28 20C25.1962 20 23 22.1382 23 25C23 27.047 24.6273 29.5659 28 32.556C31.3727 29.5659 33 27.047 33 25ZM28 22C29.6569 22 31 23.3431 31 25C31 26.6569 29.6569 28 28 28C26.3431 28 25 26.6569 25 25C25 23.3431 26.3431 22 28 22ZM28 24C27.4477 24 27 24.4477 27 25C27 25.5523 27.4477 26 28 26C28.5523 26 29 25.5523 29 25C29 24.4477 28.5523 24 28 24Z" fill="#FF6584"/>
</svg>
