<svg width="56" height="56" viewBox="0 0 56 56" fill="none" xmlns="http://www.w3.org/2000/svg">
<circle cx="28" cy="28" r="28" fill="#FFECF0"/>
<path fill-rule="evenodd" clip-rule="evenodd" d="M22.937 21.8454C23.0079 21.7469 23.0866 21.6263 23.1869 21.4637C23.2431 21.3726 23.4483 21.0333 23.4818 20.9784C24.3108 19.6224 24.9134 19 26 19H30C31.0866 19 31.6892 19.6224 32.5182 20.9784C32.5517 21.0333 32.7569 21.3726 32.8131 21.4637C32.9134 21.6263 32.9921 21.7469 33.063 21.8454C33.1097 21.9103 33.1505 21.9619 33.1838 22H36C37.6569 22 39 23.3431 39 25V34C39 35.6569 37.6569 37 36 37H20C18.3431 37 17 35.6569 17 34V25C17 23.3431 18.3431 22 20 22H22.8162C22.8495 21.9619 22.8903 21.9103 22.937 21.8454ZM20 24C19.4477 24 19 24.4477 19 25V34C19 34.5523 19.4477 35 20 35H36C36.5523 35 37 34.5523 37 34V25C37 24.4477 36.5523 24 36 24H33C32.3357 24 31.8876 23.6364 31.4394 23.0133C31.3363 22.8699 31.2341 22.7133 31.1111 22.5141C31.049 22.4135 30.8408 22.0691 30.8118 22.0216C30.3595 21.2817 30.0867 21 30 21H26C25.9133 21 25.6405 21.2817 25.1882 22.0216C25.1592 22.0691 24.951 22.4135 24.8889 22.5141C24.7659 22.7133 24.6637 22.8699 24.5606 23.0133C24.1124 23.6364 23.6643 24 23 24H20ZM35 27C35.5523 27 36 26.5523 36 26C36 25.4477 35.5523 25 35 25C34.4477 25 34 25.4477 34 26C34 26.5523 34.4477 27 35 27ZM28 34C25.2386 34 23 31.7614 23 29C23 26.2386 25.2386 24 28 24C30.7614 24 33 26.2386 33 29C33 31.7614 30.7614 34 28 34ZM28 32C29.6569 32 31 30.6569 31 29C31 27.3431 29.6569 26 28 26C26.3431 26 25 27.3431 25 29C25 30.6569 26.3431 32 28 32Z" fill="#FF6584"/>
</svg>
