<svg width="56" height="56" viewBox="0 0 56 56" fill="none" xmlns="http://www.w3.org/2000/svg">
<mask id="path-1-inside-1" fill="white">
<path fill-rule="evenodd" clip-rule="evenodd" d="M28 52C41.2548 52 52 41.2548 52 28C52 14.7452 41.2548 4 28 4C14.7452 4 4 14.7452 4 28C4 41.2548 14.7452 52 28 52ZM28 56C43.464 56 56 43.464 56 28C56 12.536 43.464 0 28 0C12.536 0 0 12.536 0 28C0 43.464 12.536 56 28 56Z"/>
</mask>
<path fill-rule="evenodd" clip-rule="evenodd" d="M28 52C41.2548 52 52 41.2548 52 28C52 14.7452 41.2548 4 28 4C14.7452 4 4 14.7452 4 28C4 41.2548 14.7452 52 28 52ZM28 56C43.464 56 56 43.464 56 28C56 12.536 43.464 0 28 0C12.536 0 0 12.536 0 28C0 43.464 12.536 56 28 56Z" fill="#C0C8CF"/>
<path d="M48 28C48 39.0457 39.0457 48 28 48V56C43.464 56 56 43.464 56 28H48ZM28 8C39.0457 8 48 16.9543 48 28H56C56 12.536 43.464 0 28 0V8ZM8 28C8 16.9543 16.9543 8 28 8V0C12.536 0 0 12.536 0 28H8ZM28 48C16.9543 48 8 39.0457 8 28H0C0 43.464 12.536 56 28 56V48ZM52 28C52 41.2548 41.2548 52 28 52V60C45.6731 60 60 45.6731 60 28H52ZM28 4C41.2548 4 52 14.7452 52 28H60C60 10.3269 45.6731 -4 28 -4V4ZM4 28C4 14.7452 14.7452 4 28 4V-4C10.3269 -4 -4 10.3269 -4 28H4ZM28 52C14.7452 52 4 41.2548 4 28H-4C-4 45.6731 10.3269 60 28 60V52Z" fill="#C0C8CF" mask="url(#path-1-inside-1)"/>
<mask id="path-3-inside-2" fill="white">
<path d="M28 2.00021C28 0.895524 28.8968 -0.00743827 29.9986 0.071397C35.4927 0.464479 40.7654 2.47139 45.1437 5.86198C50.0507 9.66196 53.5561 14.9846 55.1092 20.9934C56.6622 27.0023 56.1749 33.3569 53.7237 39.0586C51.2725 44.7604 46.9964 49.4862 41.5673 52.4934C36.1383 55.5007 29.8639 56.6189 23.7302 55.6725C17.5964 54.7261 11.951 51.7686 7.68085 47.2648C3.41073 42.761 0.757973 36.9661 0.139414 30.7906C-0.412504 25.2806 0.682982 19.7462 3.26395 14.8802C3.78158 13.9043 5.02272 13.623 5.95919 14.209C6.89566 14.7949 7.17164 16.0258 6.66567 17.0078C4.5485 21.1169 3.65639 25.7644 4.11991 30.3919C4.6501 35.6851 6.92385 40.652 10.5839 44.5124C14.2439 48.3727 19.0828 50.9077 24.3402 51.7189C29.5976 52.5301 34.9755 51.5716 39.6289 48.994C44.2823 46.4164 47.9475 42.3658 50.0485 37.4786C52.1495 32.5915 52.5672 27.1448 51.236 21.9945C49.9049 16.8441 46.9003 12.282 42.6944 9.02488C39.0173 6.17736 34.6043 4.46844 29.9979 4.0837C28.8971 3.99175 28 3.10489 28 2.00021Z"/>
</mask>
<path d="M28 2.00021C28 0.895524 28.8968 -0.00743827 29.9986 0.071397C35.4927 0.464479 40.7654 2.47139 45.1437 5.86198C50.0507 9.66196 53.5561 14.9846 55.1092 20.9934C56.6622 27.0023 56.1749 33.3569 53.7237 39.0586C51.2725 44.7604 46.9964 49.4862 41.5673 52.4934C36.1383 55.5007 29.8639 56.6189 23.7302 55.6725C17.5964 54.7261 11.951 51.7686 7.68085 47.2648C3.41073 42.761 0.757973 36.9661 0.139414 30.7906C-0.412504 25.2806 0.682982 19.7462 3.26395 14.8802C3.78158 13.9043 5.02272 13.623 5.95919 14.209C6.89566 14.7949 7.17164 16.0258 6.66567 17.0078C4.5485 21.1169 3.65639 25.7644 4.11991 30.3919C4.6501 35.6851 6.92385 40.652 10.5839 44.5124C14.2439 48.3727 19.0828 50.9077 24.3402 51.7189C29.5976 52.5301 34.9755 51.5716 39.6289 48.994C44.2823 46.4164 47.9475 42.3658 50.0485 37.4786C52.1495 32.5915 52.5672 27.1448 51.236 21.9945C49.9049 16.8441 46.9003 12.282 42.6944 9.02488C39.0173 6.17736 34.6043 4.46844 29.9979 4.0837C28.8971 3.99175 28 3.10489 28 2.00021Z" fill="#0E8AFD" stroke="#0E8AFD" stroke-width="32" mask="url(#path-3-inside-2)"/>
<path fill-rule="evenodd" clip-rule="evenodd" d="M34.4967 19C34.7932 18.9999 35.0743 19.1312 35.2644 19.3587L38.448 23.1671C38.448 23.1672 38.4479 23.1671 38.448 23.1671C39.2008 24.0673 39.699 25.1951 39.8997 26.4008C40.1005 27.607 39.9988 28.8586 39.6027 30.003C39.2068 31.1472 38.5269 32.1523 37.6248 32.8736C36.7197 33.5972 35.6323 34 34.5 34C33.3677 34 32.2803 33.5972 31.3752 32.8736C30.4731 32.1523 29.7932 31.1472 29.3973 30.003C29.0012 28.8586 28.8995 27.607 29.1003 26.4008C29.301 25.1952 29.7988 24.0678 30.5516 23.1677C30.5517 23.1675 30.5514 23.1679 30.5516 23.1677L33.7294 19.3593C33.9193 19.1317 34.2003 19.0001 34.4967 19ZM34.4979 21.56L32.0861 24.4503C31.5798 25.0556 31.2201 25.8464 31.0731 26.7293C30.9262 27.6119 31.0023 28.5255 31.2873 29.3489C31.5723 30.1725 32.046 30.8493 32.6241 31.3114C33.1992 31.7712 33.852 32 34.5 32C35.1479 32 35.8008 31.7712 36.3759 31.3114C36.954 30.8493 37.4277 30.1725 37.7127 29.3489C37.9977 28.5255 38.0738 27.6119 37.9269 26.7293C37.7799 25.8464 37.4202 25.0556 36.9139 24.4503L34.4979 21.56Z" fill="#0E8AFD"/>
<path fill-rule="evenodd" clip-rule="evenodd" d="M21.4967 19C21.7932 18.9999 22.0743 19.1312 22.2644 19.3587L25.448 23.1671C25.448 23.1672 25.4479 23.1671 25.448 23.1671C26.2008 24.0673 26.699 25.1951 26.8997 26.4008C27.1005 27.607 26.9988 28.8586 26.6027 30.003C26.2068 31.1472 25.5269 32.1523 24.6248 32.8736C23.7197 33.5972 22.6323 34 21.5 34C20.3677 34 19.2803 33.5972 18.3752 32.8736C17.4731 32.1523 16.7932 31.1472 16.3973 30.003C16.0012 28.8586 15.8995 27.607 16.1003 26.4008C16.301 25.1952 16.7988 24.0678 17.5516 23.1677C17.5517 23.1675 17.5514 23.1679 17.5516 23.1677L20.7294 19.3593C20.9193 19.1317 21.2003 19.0001 21.4967 19ZM21.4979 21.56L19.0861 24.4503C18.5798 25.0556 18.2201 25.8464 18.0731 26.7293C17.9262 27.6119 18.0023 28.5255 18.2873 29.3489C18.5723 30.1725 19.046 30.8493 19.6241 31.3114C20.1992 31.7712 20.852 32 21.5 32C22.1479 32 22.8008 31.7712 23.3759 31.3114C23.954 30.8493 24.4277 30.1725 24.7127 29.3489C24.9977 28.5255 25.0738 27.6119 24.9269 26.7293C24.7799 25.8464 24.4202 25.0556 23.9139 24.4503L21.4979 21.56Z" fill="#0E8AFD"/>
<path d="M27.9974 21L31.5349 25.6877C32.2345 26.6141 32.711 27.7947 32.9042 29.0801C33.0974 30.3655 32.9986 31.6979 32.6202 32.9088C32.2419 34.1198 31.601 35.1548 30.7787 35.8831C29.9564 36.6113 28.9896 37 28.0005 37C27.0115 37 26.0446 36.6113 25.2223 35.8831C24.4 35.1548 23.7592 34.1198 23.3808 32.9088C23.0025 31.6979 22.9036 30.3655 23.0968 29.0801C23.29 27.7947 23.7666 26.6141 24.4661 25.6877L27.9974 21Z" fill="white"/>
<path fill-rule="evenodd" clip-rule="evenodd" d="M27.9952 18C28.2808 17.9999 28.5529 18.1219 28.7427 18.3353L33.695 23.9017C33.6951 23.9018 33.6949 23.9016 33.695 23.9017C34.804 25.1475 35.5488 26.722 35.8498 28.4206C36.1508 30.1193 35.9976 31.8812 35.406 33.4874C34.8142 35.0939 33.8053 36.4852 32.4901 37.4732C31.173 38.4625 29.6104 39 28 39C26.3896 39 24.827 38.4625 23.5099 37.4732C22.1947 36.4852 21.1858 35.0939 20.594 33.4874C20.0024 31.8812 19.8492 30.1193 20.1502 28.4206C20.4512 26.722 21.1957 25.1478 22.3047 23.9019C22.3048 23.9019 22.3047 23.902 22.3047 23.9019L27.2479 18.336C27.4376 18.1224 27.7095 18.0001 27.9952 18ZM27.9963 20.5052L23.7988 25.2316C22.9491 26.186 22.3594 27.4155 22.1195 28.7696C21.8796 30.1237 22.0031 31.5263 22.4708 32.7961C22.9384 34.0656 23.7239 35.1325 24.7111 35.8741C25.6966 36.6143 26.841 37 28 37C29.159 37 30.3034 36.6143 31.2889 35.8741C32.2761 35.1325 33.0616 34.0656 33.5292 32.7961C33.9969 31.5263 34.1204 30.1237 33.8805 28.7696C33.6406 27.4155 33.0509 26.186 32.2012 25.2316L27.9963 20.5052Z" fill="white"/>
<path fill-rule="evenodd" clip-rule="evenodd" d="M27.9967 20C28.3106 19.9999 28.6063 20.1471 28.7953 20.3976L32.3326 25.0851C32.3327 25.0852 32.3326 25.085 32.3326 25.0851C33.1442 26.1598 33.6779 27.5014 33.8928 28.9315C34.1079 30.3627 33.999 31.8481 33.5744 33.2071C33.1503 34.5645 32.4201 35.765 31.4414 36.6317C30.458 37.5026 29.2611 38 28.0002 38C26.7393 38 25.5425 37.5026 24.5591 36.6317C23.5804 35.765 22.8501 34.5645 22.426 33.2071C22.0014 31.8481 21.8926 30.3627 22.1077 28.9315C22.3226 27.5015 22.8561 26.1603 23.6675 25.0856C23.6676 25.0854 23.6673 25.0857 23.6675 25.0856L27.1984 20.3983C27.3872 20.1476 27.6828 20.0001 27.9967 20ZM27.9978 22.6611L25.2639 26.2903C24.6763 27.0684 24.2569 28.0882 24.0854 29.2287C23.9142 30.3683 24.0029 31.5477 24.335 32.6106C24.6676 33.6751 25.2191 34.5447 25.885 35.1344C26.5462 35.72 27.2831 36 28.0002 36C28.7174 36 29.4542 35.72 30.1154 35.1344C30.7814 34.5447 31.3329 33.6751 31.6655 32.6106C31.9975 31.5477 32.0863 30.3683 31.915 29.2287C31.7436 28.0882 31.3242 27.0684 30.7366 26.2903L27.9978 22.6611Z" fill="#0E8AFD"/>
</svg>
