<svg width="56" height="56" viewBox="0 0 56 56" fill="none" xmlns="http://www.w3.org/2000/svg">
<path d="M39.2208 44.714C39.2208 46.1916 38.6297 47.6088 37.5776 48.6536C36.5254 49.6984 35.0984 50.2854 33.6104 50.2854C32.1224 50.2854 30.6954 49.6984 29.6433 48.6536C28.5911 47.6088 28 46.1916 28 44.714V31.714M48.5715 31.714C48.083 26.6321 45.7046 21.9134 41.9008 18.4794C38.0969 15.0454 33.1408 13.1426 28 13.1426C22.8593 13.1426 17.9031 15.0454 14.0993 18.4794C10.2954 21.9134 7.91707 26.6321 7.42859 31.714H48.5715Z" stroke="#60A7E9" stroke-width="3" stroke-linecap="round" stroke-linejoin="round"/>
<line x1="14.6428" y1="8.35742" x2="14.6428" y2="12.2146" stroke="#60A7E9" stroke-width="3" stroke-linecap="round"/>
<line x1="28.3571" y1="4.92871" x2="28.3571" y2="8.78585" stroke="#60A7E9" stroke-width="3" stroke-linecap="round"/>
<line x1="42.0714" y1="8.35742" x2="42.0714" y2="12.2146" stroke="#60A7E9" stroke-width="3" stroke-linecap="round"/>
</svg>
