<svg width="56" height="56" viewBox="0 0 56 56" fill="none" xmlns="http://www.w3.org/2000/svg">
<path d="M13.7332 48.3701C13.7332 48.3701 35.4345 26.6688 36.3387 25.7646C38.328 23.7753 40.9646 26.4119 38.9753 28.4012C38.4103 28.9662 37.7806 29.1647 37.0502 29.008" stroke="#FFA63E" stroke-width="2" stroke-linecap="round" stroke-linejoin="round"/>
<path d="M8.4599 43.0967C8.4599 43.0967 25.8209 25.7356 26.7252 24.8314C28.7145 22.8421 26.0778 20.2055 24.0885 22.1948C23.5235 22.7598 23.3251 23.3895 23.4818 24.1198" stroke="#FFA63E" stroke-width="2" stroke-linecap="round" stroke-linejoin="round"/>
<path d="M10.3894 45.0263C9.99887 45.4168 9.99887 46.05 10.3894 46.4405C10.7799 46.831 11.4131 46.831 11.8036 46.4405L10.3894 45.0263ZM46.8186 11.0113C46.8186 10.459 46.3709 10.0113 45.8186 10.0113L36.8186 10.0113C36.2663 10.0113 35.8186 10.459 35.8186 11.0113C35.8186 11.5636 36.2663 12.0113 36.8186 12.0113L44.8186 12.0113L44.8186 20.0113C44.8186 20.5636 45.2663 21.0113 45.8186 21.0113C46.3709 21.0113 46.8186 20.5636 46.8186 20.0113L46.8186 11.0113ZM11.8036 46.4405L46.5257 11.7184L45.1115 10.3042L10.3894 45.0263L11.8036 46.4405Z" fill="#FFA63E"/>
</svg>
