<svg width="660" height="442" viewBox="0 0 660 442" fill="none" xmlns="http://www.w3.org/2000/svg"><path opacity=".4" d="M330 400.672c179.493 0 325-9.626 325-21.499 0-11.874-145.507-21.499-325-21.499S5 367.299 5 379.173c0 11.873 145.507 21.499 325 21.499z" fill="#BBCFE2"/><path d="M317.544 143.816c-52.952 0-90.97 33.946-90.97 113.152 0 89.767 38.018 113.529 90.97 113.529 52.951 0 93.234-26.025 93.234-113.529 0-93.539-40.283-113.152-93.234-113.152zm.348 196.885c-36.676 0-55.836-21.5-55.836-83.675 0-54.86 19.945-83.79 56.62-83.79s56.62 19.003 56.62 83.79c0 60.607-20.729 83.675-57.404 83.675z" fill="#465C72"/><path d="M194.866 307.887h-21.893v-64.419c0-3.422-1.36-6.703-3.781-9.123a12.92 12.92 0 00-9.13-3.778h-5.13a12.927 12.927 0 00-9.13 3.778 12.904 12.904 0 00-3.781 9.123v64.419H80.268a7.38 7.38 0 01-6.313-3.563 7.363 7.363 0 01-.204-7.242l65.358-123.607a12.888 12.888 0 00.833-10.107 12.904 12.904 0 00-6.735-7.586l-3.858-1.82a12.921 12.921 0 00-9.567-.583 12.905 12.905 0 00-7.333 6.167L32.735 308.549a17.482 17.482 0 003.06 20.616 17.5 17.5 0 0012.38 5.124h93.846v40.735a15.448 15.448 0 004.533 10.935 15.47 15.47 0 0010.943 4.529 15.486 15.486 0 0010.943-4.529 15.472 15.472 0 004.533-10.935v-40.735h21.893c3.504 0 6.865-1.391 9.342-3.866a13.196 13.196 0 000-18.669 13.215 13.215 0 00-9.342-3.867zM600.267 307.887h-21.893v-64.419a12.9 12.9 0 00-3.782-9.123 12.916 12.916 0 00-9.129-3.778h-5.13a12.923 12.923 0 00-9.13 3.778 12.907 12.907 0 00-3.782 9.123v64.419h-61.753a7.378 7.378 0 01-6.313-3.563 7.372 7.372 0 01-1.055-3.594 7.373 7.373 0 01.851-3.648l65.359-123.607a12.888 12.888 0 00-1.758-14.589 12.919 12.919 0 00-4.145-3.104l-3.858-1.82a12.919 12.919 0 00-16.899 5.584l-79.714 149.003a17.486 17.486 0 003.06 20.616 17.512 17.512 0 0012.38 5.124h93.845v40.735a15.46 15.46 0 004.533 10.935 15.484 15.484 0 0021.887 0 15.46 15.46 0 004.533-10.935v-40.735h21.893a13.22 13.22 0 009.342-3.866 13.196 13.196 0 000-18.669 13.217 13.217 0 00-9.342-3.867z" fill="#AFD7FF"/><path d="M200.906 300.342h-21.893v-64.419a12.89 12.89 0 00-3.782-9.122 12.904 12.904 0 00-9.129-3.779h-5.13a12.913 12.913 0 00-9.13 3.779 12.895 12.895 0 00-3.782 9.122v64.419H86.307a7.378 7.378 0 01-6.313-3.563 7.358 7.358 0 01-.204-7.242L145.15 165.93a12.888 12.888 0 00-1.758-14.589 12.919 12.919 0 00-4.145-3.104l-3.858-1.82a12.919 12.919 0 00-16.899 5.584L38.775 301.004a17.48 17.48 0 00-2.068 8.247v0c0 4.639 1.845 9.089 5.128 12.37a17.516 17.516 0 0012.38 5.123h93.845v40.735a15.467 15.467 0 0015.477 15.464h0c4.104 0 8.041-1.629 10.943-4.529a15.46 15.46 0 004.533-10.935v-40.735h21.893a13.22 13.22 0 0012.206-8.149 13.187 13.187 0 001.005-5.052v0a13.186 13.186 0 00-3.869-9.334 13.22 13.22 0 00-9.342-3.867v0zM611.591 300.342h-21.893v-64.419c0-3.422-1.36-6.703-3.782-9.122a12.913 12.913 0 00-9.129-3.779h-5.13a12.923 12.923 0 00-9.13 3.779 12.903 12.903 0 00-3.781 9.122v64.419h-61.753a7.36 7.36 0 01-6.517-10.805l65.358-123.607a12.888 12.888 0 00.833-10.107 12.92 12.92 0 00-2.59-4.482 12.94 12.94 0 00-4.145-3.104l-3.859-1.82a12.919 12.919 0 00-16.899 5.584L449.46 301.004a17.486 17.486 0 003.06 20.617 17.52 17.52 0 0012.38 5.123h93.846v40.735a15.46 15.46 0 004.532 10.935 15.484 15.484 0 0010.944 4.529v0c4.104 0 8.041-1.629 10.943-4.529a15.46 15.46 0 004.533-10.935v-40.735h21.893a13.22 13.22 0 0012.206-8.149 13.187 13.187 0 001.005-5.052v0c0-3.501-1.391-6.858-3.869-9.334a13.217 13.217 0 00-9.342-3.867v0zM329.623 137.027c-52.952 0-90.97 33.946-90.97 113.152 0 89.767 38.018 113.529 90.97 113.529 52.951 0 93.234-26.025 93.234-113.529 0-93.539-40.283-113.152-93.234-113.152zm.348 196.884c-36.676 0-55.836-21.499-55.836-83.674 0-54.86 19.945-83.79 56.62-83.79s56.62 19.003 56.62 83.79c0 60.607-20.729 83.674-57.404 83.674v0z" stroke="#38495B" stroke-miterlimit="10"/><path d="M287.179 60.178c4.389 0 7.948-3.556 7.948-7.943 0-4.386-3.559-7.942-7.948-7.942-4.39 0-7.949 3.556-7.949 7.942 0 4.387 3.559 7.943 7.949 7.943z" fill="#25323F"/><path d="M306.565 98.728c12.313 0 22.295-12.923 22.295-28.864S318.878 41 306.565 41c-12.313 0-22.294 12.923-22.294 28.864 0 15.94 9.981 28.864 22.294 28.864z" fill="#25323F"/><path opacity=".1" d="M306.565 90.011c-11.168 0-20.418-10.632-22.042-24.505a37.563 37.563 0 00-.252 4.359c0 15.94 9.981 28.863 22.294 28.863s22.295-12.922 22.295-28.863a37.344 37.344 0 00-.253-4.36c-1.623 13.874-10.873 24.506-22.042 24.506z" fill="#000"/><path d="M351.933 154.392c-.479 1.966-2.543 3.54-4.83 4.64-4.807 2.313-10.736 3.003-16.487 3.235a27.89 27.89 0 01-4.402-.081 12.658 12.658 0 01-7.547-3.467 1.038 1.038 0 01-.334-1.381c.087-.152.211-.279.361-.37 3.061-3.361 8.171-5.421 13.318-6.905 3.902-1.125 10.708-4.039 14.965-3.646 4.123.381 5.56 5.492 4.956 7.975z" fill="#3F3D56"/><path opacity=".1" d="M351.933 154.392c-.479 1.966-2.543 3.54-4.83 4.64-4.807 2.313-10.736 3.003-16.487 3.235a27.89 27.89 0 01-4.402-.081 12.658 12.658 0 01-7.547-3.467 1.038 1.038 0 01-.334-1.381c.087-.152.211-.279.361-.37 3.061-3.361 8.171-5.421 13.318-6.905 3.902-1.125 10.708-4.039 14.965-3.646 4.123.381 5.56 5.492 4.956 7.975z" fill="#000"/><path d="M290.815 139.698a12.162 12.162 0 00-.738 9.281 16.205 16.205 0 005.44 7.693c6.219 4.982 14.779 5.667 22.749 5.598a175.597 175.597 0 0020.89-1.43 24.993 24.993 0 006.778-1.573c2.602-1.125 4.888-3.188 5.814-5.864.926-2.677.269-5.955-1.931-7.742-1.933-1.569-4.598-1.785-7.084-1.934l-14.225-.855c1.406-1.421 3.277-2.224 4.988-3.258 2.271-1.37 3.779-3.671 5.43-5.746a79.466 79.466 0 018.28-8.506c.463 2.653 2.143 4.832 4.12 6.663 1.977 1.831 4.257 3.305 6.312 5.048 4.977 4.223 8.561 9.953 13.796 13.852a26.993 26.993 0 009.887-4.932l-2.034-3.683a2.434 2.434 0 00-.767-.956c-.576-.354-1.318-.171-1.987-.271-1.787-.268-2.568-2.33-3.269-3.994-1.925-4.569-5.611-8.114-8.76-11.946a60.303 60.303 0 01-6.158-9.064c-1.058-1.909-2.026-3.897-3.461-5.542s-3.447-2.939-5.631-2.943c-1.929-.004-3.709.975-5.369 1.959-5.053 3-9.915 6.31-14.558 9.911-2.43 1.885-4.845 3.877-7.695 5.033-1.2.486-2.465.819-3.616 1.411-2.017 1.037-3.547 2.791-5.195 4.349-5.876 5.555-13.922 9.154-22.006 9.441z" fill="#25323F"/><path d="M320.559 100.161a14.638 14.638 0 01-1.068 4.945 6.178 6.178 0 01-1.42 2.085 6.164 6.164 0 01-2.134 1.346 7.622 7.622 0 01-3.464.112 6.702 6.702 0 01-2.823-.96c-1.334-.917-1.999-2.552-2.241-4.152-.242-1.598-.134-3.231-.289-4.84a26.398 26.398 0 00-.741-3.852c-.104-.42-.211-.839-.316-1.257a63.298 63.298 0 01-.296-1.255 26.427 26.427 0 01-.233-1.186 17.962 17.962 0 01-.143-1.011 11.326 11.326 0 00-.499-2.962 8.96 8.96 0 00-1.039-1.757 13.237 13.237 0 01-.504-.765 3.626 3.626 0 01-.599-2.307 2.047 2.047 0 01.144-.508 1.11 1.11 0 00.758-.707 2.123 2.123 0 00-.091-1.094 6.981 6.981 0 00-.592-1.409c-.163-.294-.715-.825-.719-1.162-.008-.678 1.318-1.224 1.855-1.492 1.64-.82 3.467-1.19 5.297-1.073 1.173.08 2.445.44 3.092 1.422.582.885.504 2.032.752 3.06.026.15.09.29.184.41a.829.829 0 00.456.209c.287.057.582.069.872.035h.002a3.061 3.061 0 001.482-.573 7.71 7.71 0 01.756-.164c.971 3.063 1.097 6.347 1.892 9.465.393 1.552.957 3.084 1.037 4.68.006.07.008.142.01.214.011.513-.029 1.03-.008 1.542.007.23.033.46.077.685.087.364.196.722.324 1.074l.006.017a5.116 5.116 0 01.157.589l.002.006c.144.856.165 1.728.064 2.59z" fill="#FBBEBE"/><path d="M306.953 80.13c6.317 0 11.438-5.117 11.438-11.43 0-6.312-5.121-11.428-11.438-11.428s-11.438 5.117-11.438 11.429 5.121 11.429 11.438 11.429zM379.572 130.974a18.73 18.73 0 00-3.226-8.683l.892 5.287c-.37.107-.764.104-1.132-.01a1.972 1.972 0 01-.942-.628 6.369 6.369 0 01-1.088-2.016 41.508 41.508 0 00-5.058-9.072c-7.282-.606-14.48-3.622-20.883-7.138-6.406-3.514-12.4-7.728-18.72-11.39a26.878 26.878 0 00-3.416-1.744c-1.978-.793-4.198-1.203-6.072-2.135a9.87 9.87 0 01-.376-.196c-.424-.23-.825-.5-1.198-.804a6.322 6.322 0 01-.574-.527 12.525 12.525 0 01-2.193-3.665c-1.006-2.224-1.365-4.907-2.369-7.13.462-.431.98-.797 1.541-1.087h.002a7.39 7.39 0 012.237-.736 7.13 7.13 0 013.383.267c1.594.539 2.938 1.614 4.277 2.63a70.076 70.076 0 016.252 4.956c1.105 1.058 2.114 2.22 3.302 3.18a26.065 26.065 0 003.115 2.064c6.431 3.828 12.862 7.655 19.294 11.481 2.177 1.296 4.356 2.592 6.485 3.964 3.234 2.084 6.351 4.343 9.467 6.6l5.506 3.988c.602.384 1.13.872 1.56 1.442a5.21 5.21 0 01.692 2.113 19.303 19.303 0 01-.758 8.989z" fill="#FBBEBE"/><path d="M323.395 108.755c-.771 3.458-4.269 5.548-6.097 8.586-2.272 3.77-1.345 8.151-.492 12.469l-4.678 4.028c-.861.738-1.722 1.48-2.649 2.133a35.368 35.368 0 01-4.226 2.425l-4.141 2.129a19.811 19.811 0 01-4.054 1.716c-2.72.698-5.608.209-8.299-.598a3.8 3.8 0 01-.908-.37 1.47 1.47 0 01-.43-.39 2.402 2.402 0 01-.273-1.563c.273-4.525 1.38-8.956 2.483-13.353a52.467 52.467 0 012.371-7.743 52.356 52.356 0 013.337-6.249 42.038 42.038 0 014.885-7.088 11.346 11.346 0 002.264-2.918c.689-1.569.423-3.368.563-5.077a10.52 10.52 0 011.006-3.698v-.002c.298-.625.658-1.22 1.074-1.774a1322.828 1322.828 0 00.932 2.17c.159.368.317.734.473 1.1l1.354 3.148a13.253 13.253 0 002.055 3.659 4.007 4.007 0 006.853-.525 13.13 13.13 0 001.4-3.702c.382-1.58.435-3.222.155-4.823-.468-3.084-1.78-6.234-2.734-9.1a9.203 9.203 0 01-.665-2.998 2.1 2.1 0 01.052-.434 7.39 7.39 0 011.962-.608l2.523 13.622.06.321c.12.651.242 1.302.378 1.951.122.589.254 1.176.401 1.76l.006.016c.05.198.103.394.157.59l.002.005c.149.535.316 1.066.504 1.589 1.14 3.151 3.127 6.324 2.396 9.596z" fill="#0E8AFD"/><path d="M369.816 157.349a4.047 4.047 0 00.376 1.935c.715 1.307 2.433 1.605 3.919 1.727 8.683.713 17.418.447 26.041-.793a3.01 3.01 0 001.325-.411c1.226-.859.471-2.952-.868-3.622-1.339-.67-2.927-.509-4.396-.799a13.86 13.86 0 01-4.115-1.783 209.92 209.92 0 01-8.806-5.348c-1.721-1.105-3.753-2.284-5.692-1.629-5.253 1.775-7.819 5.061-7.784 10.723z" fill="#38495B"/><path d="M305.811 92.09v.002c-.013.082-.027.161-.045.24-.021.132-.046.266-.071.398a47.76 47.76 0 01-.875 3.67c-.93 3.362-2.177 6.668-3.414 9.927l-9.959 26.211c-.837 2.201-1.673 4.404-2.625 6.56-.318.718-.645 1.443-.971 2.175-1.167 2.621-2.287 5.327-2.66 8.117a16.878 16.878 0 00-.118 5.565c.372 1.829 1.483 3.615 3.222 4.291.849.331 2.065.775 1.832 1.656-.126.485-.676.721-1.171.802a4.514 4.514 0 01-3.676-1.057c-.928-.824-1.642-2.104-2.877-2.242-.855-.093-1.642.419-2.425.777-3.195 1.459-6.917.438-10.273-.598.264-1.358 1.629-2.253 2.984-2.525 1.355-.273 2.756-.079 4.139-.116.442.024.882-.089 1.258-.323.337-.31.574-.713.678-1.159a48.542 48.542 0 001.98-8.093c.446-2.873.632-5.79 1.268-8.628.494-2.215 1.258-4.359 1.913-6.532a138.393 138.393 0 003.118-13.592c.409-1.902.702-3.828.878-5.767.11-1.607.058-3.223.213-4.825.26-2.084.696-4.143 1.301-6.154l1.778-6.58c.878-3.246 1.82-6.616 4.046-9.139a8.598 8.598 0 016.178-2.948c.442 0 .882.047 1.313.141.072.018.143.035.215.055.47.123.921.309 1.34.554.686-.436 1.035-.283 1.491.39.399.71.587 1.52.542 2.335a32.208 32.208 0 01-.527 6.412z" fill="#FBBEBE"/><path d="M306.565 94.66l-.029.028-.157.157-1.558 1.556-.764-3.206-2.619-10.992c.441 0 .881.047 1.312.142.019-.126.049-.25.091-.37l.124.424.888 3.018 1.681 5.73.277.944v.001l.754 2.567z" fill="#0E8AFD"/><path d="M316.456 59.593a7.738 7.738 0 01-3.118 6.2 7.72 7.72 0 01-4.642 1.554h-9.301a7.763 7.763 0 01-5.478-2.274 7.748 7.748 0 010-10.953 7.764 7.764 0 015.478-2.274h9.301a7.784 7.784 0 015.479 2.274 7.77 7.77 0 012.281 5.473zM325.177 60.178a7.945 7.945 0 007.948-7.943 7.945 7.945 0 00-7.948-7.942c-4.39 0-7.949 3.556-7.949 7.942 0 4.387 3.559 7.943 7.949 7.943z" fill="#25323F"/><path opacity=".1" d="M324.983 44.293c-.098 0-.194.004-.291.007a7.952 7.952 0 015.432 2.424 7.938 7.938 0 01-5.432 13.446c.097.004.193.008.291.008a7.95 7.95 0 007.949-7.943 7.95 7.95 0 00-7.949-7.942zM287.178 44.293c.098 0 .195.004.291.007a7.948 7.948 0 00-7.658 7.935 7.948 7.948 0 007.658 7.935c-.097.004-.193.008-.291.008a7.955 7.955 0 01-5.616-2.329 7.94 7.94 0 010-11.227 7.955 7.955 0 015.616-2.329zM313.338 65.795a7.719 7.719 0 01-4.642 1.554h-9.301a7.722 7.722 0 01-4.643-1.554h18.586z" fill="#000"/><path d="M373.4 123.345s2.004 5.77 3.838 4.233l-1.462-7.541-2.376 3.308z" fill="#FBBEBE"/><path d="M293.22 251.002c5.784 0 10.474-6.064 10.474-13.544s-4.69-13.544-10.474-13.544c-5.785 0-10.474 6.064-10.474 13.544s4.689 13.544 10.474 13.544zM350.21 251.308c5.785 0 10.474-6.063 10.474-13.543 0-7.48-4.689-13.544-10.474-13.544s-10.474 6.064-10.474 13.544 4.689 13.543 10.474 13.543zM342.2 277.781c0 6.119-8.551 11.081-19.099 11.081s-19.1-4.962-19.1-11.081c0-5.301 6.414-9.733 14.984-10.817 1.365-.18 2.74-.268 4.116-.265a31.306 31.306 0 016.857.739c7.16 1.595 12.242 5.627 12.242 10.343z" fill="#465C72"/><path d="M295.684 247.924c5.785 0 10.474-6.064 10.474-13.544s-4.689-13.544-10.474-13.544c-5.784 0-10.474 6.064-10.474 13.544s4.69 13.544 10.474 13.544zM352.674 248.23c5.785 0 10.474-6.063 10.474-13.544 0-7.48-4.689-13.543-10.474-13.543-5.784 0-10.474 6.063-10.474 13.543 0 7.481 4.69 13.544 10.474 13.544zM325.565 285.784c10.549 0 19.1-4.961 19.1-11.082 0-6.12-8.551-11.081-19.1-11.081-10.548 0-19.099 4.961-19.099 11.081 0 6.121 8.551 11.082 19.099 11.082z" stroke="#38495B" stroke-miterlimit="10"/><path d="M330.186 268.363a3.034 3.034 0 01-.813 2.088 2.667 2.667 0 01-1.959.867h-6.161a2.876 2.876 0 01-2.773-2.955c-.003-.6.173-1.188.505-1.688a28.92 28.92 0 014.116-.282 29.364 29.364 0 016.857.788c.153.375.23.777.228 1.182zM295.684 233.764a3.08 3.08 0 003.081-3.078 3.08 3.08 0 00-6.161 0c0 1.7 1.379 3.078 3.08 3.078zM352.983 233.764a3.079 3.079 0 100-6.157 3.08 3.08 0 100 6.157z" fill="#fff"/><path d="M356.063 262.699a3.08 3.08 0 003.081-3.078 3.08 3.08 0 00-3.081-3.078 3.08 3.08 0 00-3.081 3.078 3.08 3.08 0 003.081 3.078zM280.897 262.699a3.08 3.08 0 100-6.156 3.079 3.079 0 100 6.156z" fill="#FF6584"/></svg>