<svg width="185" height="185" viewBox="0 0 185 185" fill="none" xmlns="http://www.w3.org/2000/svg">
<g opacity="0.5">
<path opacity="0.5" d="M90.7528 182.15C141.343 182.15 182.355 140.737 182.355 89.6504C182.355 38.5641 141.343 -2.84961 90.7528 -2.84961C40.1622 -2.84961 -0.849609 38.5641 -0.849609 89.6504C-0.849609 140.737 40.1622 182.15 90.7528 182.15Z" fill="url(#paint0_linear)"/>
</g>
<path d="M92.5195 185.019C143.606 185.019 185.02 143.605 185.02 92.5186C185.02 41.4322 143.606 0.0185547 92.5195 0.0185547C41.4332 0.0185547 0.0195312 41.4322 0.0195312 92.5186C0.0195312 143.605 41.4332 185.019 92.5195 185.019Z" fill="#F5F5F5"/>
<path d="M92.7824 182.132C110.648 182.162 128.128 176.78 143.041 166.656C139.671 147.71 126.849 146.631 126.849 146.631H56.1412C56.1412 146.631 44.0416 147.653 40.2627 165.081C55.6378 176.209 73.9845 182.166 92.7824 182.132Z" fill="#0E8AFD"/>
<path d="M91.6505 131.683C115.904 131.683 135.565 112.024 135.565 87.7731C135.565 63.5224 115.904 43.8633 91.6505 43.8633C67.3974 43.8633 47.7363 63.5224 47.7363 87.7731C47.7363 112.024 67.3974 131.683 91.6505 131.683Z" fill="#333333"/>
<path opacity="0.1" d="M77.6348 124.208H105.665V147.205C105.665 151.016 104.189 154.671 101.562 157.366C98.9348 160.062 95.3714 161.577 91.6552 161.578C87.9382 161.578 84.3734 160.064 81.745 157.368C79.1167 154.673 77.6401 151.017 77.6401 147.205V124.208H77.6348Z" fill="#333333"/>
<path d="M78.518 124.208H104.777C105.012 124.208 105.238 124.299 105.405 124.462C105.571 124.624 105.665 124.844 105.665 125.074V146.054C105.665 147.847 105.303 149.623 104.599 151.281C103.894 152.938 102.862 154.443 101.56 155.711C100.258 156.98 98.7127 157.985 97.0119 158.671C95.311 159.357 93.4881 159.71 91.6473 159.709C87.9309 159.709 84.3668 158.271 81.7389 155.711C79.1111 153.15 77.6348 149.677 77.6348 146.056V125.074C77.6348 124.845 77.7276 124.626 77.8931 124.463C78.0586 124.301 78.2833 124.209 78.518 124.208Z" fill="#FDB797"/>
<path opacity="0.1" d="M77.6348 134.874C86.6687 138.068 96.6128 138.094 105.665 134.946V131.683H77.6348V134.874Z" fill="#333333"/>
<path d="M91.6504 137.288C113.839 137.288 131.827 119.302 131.827 97.1152C131.827 74.9283 113.839 56.9424 91.6504 56.9424C69.4614 56.9424 51.4736 74.9283 51.4736 97.1152C51.4736 119.302 69.4614 137.288 91.6504 137.288Z" fill="#FDB797"/>
<path opacity="0.1" d="M62.6855 59.906C62.6855 59.906 79.8036 95.4169 128.09 74.7945L116.848 56.7787L96.9189 49.4688L62.6855 59.906Z" fill="#333333"/>
<path d="M62.6855 59.2963C62.6855 59.2963 79.8036 92.7152 128.09 73.3025L116.848 56.348L96.9189 49.4688L62.6855 59.2963Z" fill="#333333"/>
<path d="M63.5343 57.6098C64.6897 53.9518 66.6866 50.6308 69.3572 47.9259C77.3545 39.84 90.466 38.1349 97.1908 28.915C98.8016 31.474 97.5559 35.4085 94.7747 36.5067C101.218 36.4628 108.683 35.8862 112.326 30.4663C113.227 32.6099 113.514 34.9708 113.154 37.2746C112.794 39.5784 111.803 41.7305 110.294 43.4807C116.004 43.7552 122.106 47.709 122.466 53.5435C122.713 57.4313 120.318 61.1105 117.207 63.3399C114.096 65.5694 110.305 66.5935 106.587 67.4309C95.7304 69.8828 56.4497 80.1433 63.5343 57.6098Z" fill="#333333"/>
<path d="M51.4737 103.655C53.5378 103.655 55.2111 100.727 55.2111 97.1149C55.2111 93.5031 53.5378 90.5752 51.4737 90.5752C49.4096 90.5752 47.7363 93.5031 47.7363 97.1149C47.7363 100.727 49.4096 103.655 51.4737 103.655Z" fill="#FDB797"/>
<path d="M131.828 103.655C133.892 103.655 135.566 100.727 135.566 97.1149C135.566 93.5031 133.892 90.5752 131.828 90.5752C129.764 90.5752 128.091 93.5031 128.091 97.1149C128.091 100.727 129.764 103.655 131.828 103.655Z" fill="#FDB797"/>
<defs>
<linearGradient id="paint0_linear" x1="90.7528" y1="182.15" x2="90.7528" y2="-2.84961" gradientUnits="userSpaceOnUse">
<stop stop-color="#808080" stop-opacity="0.25"/>
<stop offset="0.54" stop-color="#808080" stop-opacity="0.12"/>
<stop offset="1" stop-color="#808080" stop-opacity="0.1"/>
</linearGradient>
</defs>
</svg>
