<svg width="256" height="289" viewBox="0 0 256 289" fill="none" xmlns="http://www.w3.org/2000/svg"><path d="M147.605 55.274l-86.721.21a3.564 3.564 0 00-3.556 3.572l.394 162.199a3.563 3.563 0 003.573 3.555l86.721-.211a3.568 3.568 0 002.518-1.05 3.562 3.562 0 001.038-2.522l-.394-162.198a3.567 3.567 0 00-3.573-3.555z" fill="#BBCFE2"/><path d="M146.35 57.49l-84.201.205A3.556 3.556 0 0058.6 61.26l.383 157.709a3.557 3.557 0 003.565 3.548l84.201-.205a3.556 3.556 0 003.548-3.565l-.383-157.71a3.557 3.557 0 00-3.565-3.547z" fill="#fff"/><path d="M127.198 61.669a7.404 7.404 0 01-7.281 6.314l-31.54.077a7.403 7.403 0 01-7.31-6.28l-16.707.041a3.468 3.468 0 00-3.46 3.477l.052 21.4 62.375 2.21 4.414-27.24h-.543zM83.339 109.532l-22.336-1.716-.04-16.61 22.376 18.326z" fill="#F5F9FE"/><path d="M119.535 112.314l3.792-23.405-62.375-2.21.011 4.508 22.376 18.325 36.196 2.782z" fill="#F5F9FE"/><path d="M147.635 65.087a3.472 3.472 0 00-2.148-3.199 3.473 3.473 0 00-1.328-.26l-16.418.04-4.414 27.24-3.792 23.406 28.22 2.168-.12-49.395z" fill="#F5F9FE"/><path d="M119.535 112.314l-3.665 22.621 31.916-8.044-.031-12.409-28.22-2.168z" fill="#F5F9FE"/><path d="M83.339 109.532l31.373 25.694 1.158-.291 3.665-22.621-36.196-2.782z" fill="#F5F9FE"/><path d="M61.003 107.816l.1 40.921 53.609-13.511-31.373-25.694-22.336-1.716zM115.87 134.935l-.178 1.094 32.18 26.355-.086-35.493-31.916 8.044zM115.692 136.029l-6.628 40.906 38.874 12.618-.066-27.169-32.18-26.355zM145.866 217.919a3.47 3.47 0 01-1.327.267l-42.252.102 1.492-8.736 44.214 2.629.006 2.528a3.473 3.473 0 01-2.133 3.21zM61.531 216.247a3.474 3.474 0 01-.267-1.327l-.02-7.896 42.535 2.528-1.492 8.736-37.547.092a3.476 3.476 0 01-2.454-1.01 3.47 3.47 0 01-.755-1.123z" fill="#F5F9FE"/><path d="M109.064 176.935l38.874 12.618.055 22.628-44.214-2.629 5.285-32.617z" fill="#F5F9FE"/><path d="M61.134 161.377l47.93 15.558-5.285 32.617-42.534-2.528-.111-45.647z" fill="#F5F9FE"/><path d="M114.712 135.226l-53.61 13.511.032 12.64 47.93 15.558 6.628-40.906-.98-.803z" fill="#F5F9FE"/><path opacity=".15" d="M127.198 61.669a7.4 7.4 0 01-7.28 6.314l-31.54.077a7.403 7.403 0 01-7.312-6.279l-11.785.029-4.92.012a3.468 3.468 0 00-3.46 3.476l.051 21.4 62.375 2.211 4.414-27.241h-.543z" fill="#465C72"/><path opacity=".1" d="M83.339 109.532l-22.335-1.716-.04-16.61 22.375 18.326z" fill="#25323F"/><path opacity=".2" d="M119.535 112.314l3.792-23.405-62.375-2.21.011 4.508 22.376 18.325 36.196 2.782z" fill="#fff"/><path opacity=".1" d="M123.327 88.909l-3.792 23.405 28.22 2.168-.06-24.697-24.368-.876z" fill="#25323F"/><path opacity=".25" d="M147.368 63.76c.176.421.266.872.268 1.327l.059 24.698-24.368-.876 4.414-27.242 16.418-.04a3.473 3.473 0 012.455 1.01c.323.322.579.703.754 1.124z" fill="#fff"/><path opacity=".2" d="M119.535 112.314l-3.666 22.621 31.916-8.044-.03-12.409-28.22-2.168z" fill="#0E8AFD"/><path opacity=".1" d="M83.339 109.532l31.373 25.694 1.158-.291 3.665-22.621-36.196-2.782z" fill="#25323F"/><path opacity=".3" d="M61.003 107.816l.1 40.921 53.609-13.511-31.373-25.694-22.336-1.716z" fill="#fff"/><path opacity=".15" d="M115.869 134.935l-.177 1.094 32.18 26.355-.087-35.493-31.916 8.044z" fill="#fff"/><path opacity=".1" d="M115.692 136.029l-6.628 40.906 38.874 12.618-.066-27.169-32.18-26.355z" fill="#465C72"/><path opacity=".2" d="M145.866 217.918c-.42.176-.871.267-1.327.268l-42.252.102 1.492-8.736 44.214 2.629.006 2.528a3.455 3.455 0 01-1.01 2.455 3.459 3.459 0 01-1.123.754z" fill="#0E8AFD"/><path opacity=".15" d="M61.531 216.247a3.474 3.474 0 01-.267-1.327l-.02-7.896 42.535 2.528-1.492 8.736-37.547.092a3.476 3.476 0 01-2.454-1.01 3.47 3.47 0 01-.755-1.123z" fill="#25323F"/><path opacity=".4" d="M109.064 176.935l38.874 12.618.055 22.628-44.214-2.629 5.285-32.617z" fill="#fff"/><path opacity=".1" d="M61.134 161.377l47.93 15.558-5.285 32.617-42.534-2.528-.111-45.647z" fill="#fff"/><path opacity=".3" d="M114.712 135.226l-53.609 13.511.03 12.639 47.931 15.559 6.628-40.906-.98-.803z" fill="#0E8AFD"/><path d="M37.328 71.85l124.185 101.706 1.632-83.236-140.252-4.97 22.148 21.239 140.469 10.795L39.2 154.257l132.495 43.007-.497 16.296-136.718-8.127 4.14 41.098 60.035-5.357 32.198-198.712" stroke="#F5F9FE" stroke-width="4" stroke-miterlimit="10"/><mask id="mask0" maskUnits="userSpaceOnUse" x="57" y="55" width="95" height="170"><path d="M147.604 55.274l-86.721.21a3.564 3.564 0 00-3.556 3.572l.395 162.199a3.563 3.563 0 003.573 3.555l86.721-.211a3.563 3.563 0 003.556-3.572l-.395-162.198a3.561 3.561 0 00-3.573-3.555z" fill="#BBCFE2"/></mask><g mask="url(#mask0)"><path d="M37.328 71.85l124.185 101.706 1.632-83.236-140.252-4.97 22.148 21.239 140.469 10.795L39.2 154.257l132.495 43.007-.497 16.296-136.718-8.127 4.14 41.098 60.035-5.357 32.198-198.712" stroke="#fff" stroke-width="4" stroke-miterlimit="10"/></g><path d="M113.081 63.558l-19.303.29a.522.522 0 00-.514.53l.004.228a.522.522 0 00.53.514l19.302-.29a.522.522 0 00.514-.53l-.003-.228a.523.523 0 00-.53-.514zM117.934 64.757a.763.763 0 100-1.525.763.763 0 000 1.525z" fill="#DBDBDB"/><g opacity=".5" fill="#568DC4"><path opacity=".5" d="M45.737 76.483h-.782v4.434h.782v-4.434z"/><path opacity=".5" d="M47.563 79.091v-.782H43.13v.782h4.433z"/></g><g opacity=".5" fill="#568DC4"><path opacity=".5" d="M51.998 104.282h-.783v4.434h.782v-4.434z"/><path opacity=".5" d="M53.823 106.89v-.783H49.39v.783h4.434z"/></g><g opacity=".5" fill="#568DC4"><path opacity=".5" d="M171.973 68.137h-.782v4.434h.782v-4.434z"/><path opacity=".5" d="M173.799 70.745v-.782h-4.434v.782h4.434z"/></g><g opacity=".5" fill="#568DC4"><path opacity=".5" d="M235.091 84.46h-.783v4.434h.783V84.46z"/><path opacity=".5" d="M236.916 87.068v-.783h-4.434v.783h4.434z"/></g><path opacity=".5" d="M22.289 102.275a.958.958 0 01-.534-1.158.482.482 0 00-.594-.597.477.477 0 00-.302.266.96.96 0 01-1.158.534.48.48 0 00-.597.594.478.478 0 00.266.302.96.96 0 01.534 1.158.466.466 0 00.057.398.48.48 0 00.786.027.464.464 0 00.053-.094.956.956 0 011.158-.534.48.48 0 00.586-.293.482.482 0 00-.16-.55.48.48 0 00-.095-.053zM219.466 152.091a.958.958 0 01-.534-1.158.494.494 0 00.021-.107.487.487 0 00-.077-.292.486.486 0 00-.538-.198.476.476 0 00-.301.266.96.96 0 01-1.159.534.474.474 0 00-.106-.021.48.48 0 00-.224.917.965.965 0 01.488.477.965.965 0 01.046.681.482.482 0 00.594.597.482.482 0 00.302-.266.954.954 0 011.158-.534.471.471 0 00.398-.057.48.48 0 00.027-.786.49.49 0 00-.095-.053zM205.643 72.542a.96.96 0 01-.534-1.159.48.48 0 00-.594-.597.478.478 0 00-.302.267.96.96 0 01-1.158.534.463.463 0 00-.398.056.48.48 0 00-.027.787c.029.021.061.039.094.053a.956.956 0 01.534 1.158.472.472 0 00.057.398.479.479 0 00.839-.067.958.958 0 011.158-.534.483.483 0 00.587-.293.48.48 0 00-.256-.603zM211.903 117.924a.96.96 0 01-.534-1.158.494.494 0 00.021-.107.487.487 0 00-.077-.292.486.486 0 00-.538-.198.476.476 0 00-.302.266.954.954 0 01-1.158.534.474.474 0 00-.106-.021.479.479 0 00-.48.314.48.48 0 00.161.55.49.49 0 00.095.053.96.96 0 01.534 1.158.482.482 0 00.594.597.476.476 0 00.302-.266.954.954 0 011.158-.534c.034.011.07.018.106.021a.48.48 0 00.224-.917z" fill="#0E8AFD"/><path opacity=".5" d="M37.913 153.576a1.564 1.564 0 10.001-3.129 1.564 1.564 0 000 3.129z" fill="#F3AEAE"/><path opacity=".5" d="M171.452 101.934a1.565 1.565 0 100-3.13 1.565 1.565 0 000 3.13z" fill="#4D8AF0"/><path opacity=".5" d="M184.231 141.579a1.565 1.565 0 100-3.13 1.565 1.565 0 000 3.13z" fill="#47E6B1"/><path opacity=".5" d="M22.525 59.16a1.565 1.565 0 100-3.13 1.565 1.565 0 000 3.13z" fill="#F3AEAE"/><path d="M176.571 102.136l-5.797.224.289 7.454 5.797-.225-.289-7.453z" fill="#6C63FF"/><path d="M150.248 128.164s-10.388-3.915-10.221-.534c.166 3.382 10.47 5.606 10.47 5.606l-.249-5.072z" fill="#FBBEBE"/><path d="M154.826 156.265s-3.787 9.27-5.187 15.959c-1.399 6.69-3.53 15.895-.789 22.424 2.742 6.528 10.535 25.716 10.615 27.787.081 2.07-.667 4.172.989 4.108 1.656-.064 10.669-2.902 11.035-4.16.366-1.258-3.075-4.442-3.075-4.442l-8.497-26.625 8.865-17.346 6.395 25.877 1.252 32.297s6.147-1.897 7.039-.273c0 0 2.754-3.839 3.104-5.511.35-1.673-1.301-33.539-1.301-33.539s5.642-36.296 1.088-36.12c-4.555.177-22.395-10.742-31.533-.436z" fill="#25323F"/><path d="M160.39 224.887s-4.202 9.286-4.6 9.716c-.398.43-3.135 4.683-1.065 4.603 2.07-.081 6.959-2.344 10.557-5.801 3.598-3.457 8.342-9.446 7.911-9.844-.43-.398-3.376-1.528-3.376-1.528l-9.427 2.854zM177.177 230.041s-.254 4.157-1.018 5.845c-.764 1.689-.667 4.173 1.403 4.093 2.07-.081 7.421-1.117 7.421-1.117s.318-2.501-.112-2.899c-.431-.398-2.263-4.888-1.483-6.162.78-1.275-6.211.24-6.211.24z" fill="#38495B"/><path d="M180.239 95.151s4.414 6.879 6.134 8.471c1.721 1.592-3.12 5.097-3.12 5.097l-8.663 1.165s.109-7.883-.337-8.695c-.446-.812 5.986-6.038 5.986-6.038z" fill="#FBBEBE"/><path d="M172.71 104.151s1.785 3.249 3.441 3.185c1.656-.065 10.223-3.714 10.589-4.973.366-1.258 2.838 9.013 2.838 9.013l-20.963 36.89-5.113-3.533 2.478-21.66 2.035-11.69 4.695-7.232z" fill="#fff"/><path d="M164.802 124.778l-6.561 1.913-9.109.353-.937 7.915 14.97 1.078s3.739-10.512 1.637-11.259z" fill="#38495B"/><path d="M187.513 137.167c-.836 1.749-1.359 3.573-1.286 5.44.003.083.006.166.014.249.198 3.832 1.61 8.264 2.116 11.487.368 2.312.263 4-1.09 4.397-3.28.956.478 1.64-12.213 5.864-12.691 4.224-14.906.578-14.938-.25-.032-.828 1.797-7.119 1.367-7.517-.43-.398-6.018 5.209-7.707 4.445-1.688-.764-.192-4.968-.192-4.968s3.803-8.856 3.723-10.926c-.08-2.071 5.761-11.835 5.761-11.835l3.973-25.864s1.528-3.377 3.582-3.871c2.055-.495 3.759.683 3.759.683l-3.437 7.598-3.627 13.41.607 4.953s4.217-8.872 6.987-12.297c2.77-3.425 8.676-11.533 8.676-11.533s1.379-4.652.338-6.042c-1.041-1.395 4.341-1.603 6.636 4.113 1.217 3.03 3.192 7.548 4.429 11.755 1.102 3.726 1.623 7.21.531 9.202-1.669 3.042-5.868 7.04-8.009 11.507z" fill="#465C72"/><path opacity=".1" d="M195.522 125.66c-1.67 3.042-5.869 7.04-8.01 11.507-.559-2.015-1.241-4.099-1.241-4.099s-2.616-13.998 5.123-17.615a5.18 5.18 0 013.597 1.005c1.102 3.726 1.623 7.21.531 9.202z" fill="#000"/><path d="M175.499 151.391s-8.777 1.456-6.773 4.098c2.003 2.641 9.778-.136 9.778-.136l-3.005-3.962z" fill="#FBBEBE"/><path opacity=".1" d="M186.24 142.856c.199 3.832 1.611 8.264 2.117 11.487-2.796 2.646-5.455 4.981-6.457 5.019-2.07.081-5.399-.205-6.625.257-1.226.463-1.945-7.389-1.945-7.389s.732-2.516 3.996-3.887c2.203-.927 6.427-3.442 8.914-5.487z" fill="#000"/><path d="M191.297 112.968s7.007-1.101 6.629 10.525c-.379 11.626.738 19.047-2.08 21.229-2.818 2.183-11.972 12.076-14.042 12.156-2.071.08-5.399-.205-6.625.257-1.226.462-1.946-7.389-1.946-7.389s.732-2.516 3.996-3.887c3.265-1.371 10.955-6.23 10.891-7.887-.064-1.656-1.945-7.388-1.945-7.388s-2.616-13.998 5.122-17.616z" fill="#465C72"/><path d="M174.061 105.336a9.116 9.116 0 009.116-9.116 9.116 9.116 0 00-9.116-9.116 9.116 9.116 0 00-9.116 9.116 9.116 9.116 0 009.116 9.116z" fill="#FBBEBE"/><path d="M167.923 83.154c-.22.19-.484.322-.767.385a.545.545 0 01-.634-.44c-.208.433-.444.894-.869 1.116-.426.222-1.085.036-1.146-.44-.062.361-.222.699-.463.976-.264.252-.743.316-.974.033.187 1.019.072 2.067.13 3.101.059 1.035.335 2.131 1.116 2.811 1.14.993 2.854.748 4.353.56a1.32 1.32 0 01.682.037c.561.24.536 1.02.544 1.63a4.528 4.528 0 003.967 4.304 2.271 2.271 0 001.688-.412c.426-.361.643-.95 1.131-1.22.794-.441 1.756.202 2.336.9.58.698 1.152 1.557 2.05 1.685 1.189.169 2.094-1.043 2.538-2.158a12.572 12.572 0 00-.25-9.773c-2.481-5.41-10.959-6.265-15.432-3.095z" fill="#25323F"/><path d="M133.641 93.68c-.854 6.164-13.533 19.054-13.533 19.054s-9.587-15.976-8.732-22.14a11.239 11.239 0 1122.265 3.086z" fill="url(#paint0_linear)"/><path d="M132.91 93.875c-.801 5.782-12.694 17.872-12.694 17.872s-8.991-14.985-8.19-20.766a10.547 10.547 0 014.075-6.978 10.546 10.546 0 0111.71-.691 10.546 10.546 0 015.099 10.563z" fill="#FF6584"/><path d="M127.805 92.314a5.277 5.277 0 00-4.496-5.957c-2.883-.4-5.545 1.62-5.946 4.51a5.277 5.277 0 004.496 5.958c2.883.4 5.545-1.62 5.946-4.51z" fill="#fff"/><defs><linearGradient id="paint0_linear" x1="10879.8" y1="14583.1" x2="11640.1" y2="9097.26" gradientUnits="userSpaceOnUse"><stop stop-color="gray" stop-opacity=".25"/><stop offset=".535" stop-color="gray" stop-opacity=".12"/><stop offset="1" stop-color="gray" stop-opacity=".1"/></linearGradient></defs></svg>