<svg width="256" height="290" viewBox="0 0 256 290" fill="none" xmlns="http://www.w3.org/2000/svg"><g clip-path="url(#clip0)"><path d="M30.936 221.571l-.44-.099c4.9-21.785 17.21-41.567 34.663-55.703a99.996 99.996 0 0195.547-16.752 99.98 99.98 0 0141.738 27.711 99.99 99.99 0 0123.06 44.478l-.439.1c-10.369-45.53-50.271-77.329-97.034-77.329-46.151 0-86.985 32.633-97.095 77.594z" fill="#BBCFE2"/><path d="M93.92 93.365c6.754 0 12.229-5.475 12.229-12.23 0-6.754-5.475-12.23-12.23-12.23-6.753 0-12.229 5.476-12.229 12.23 0 6.755 5.476 12.23 12.23 12.23z" fill="#FF6584"/><path d="M210.378 216.406c-.798 2.788-3.531 4.514-3.531 4.514s-1.44-2.793-.642-5.58c.798-2.788 3.531-4.514 3.531-4.514s1.44 2.793.642 5.58z" fill="#8597A8"/><path d="M209.144 215.752c-2.142 2.037-2.404 5.168-2.404 5.168s3.212-.171 5.354-2.208c2.142-2.037 2.404-5.168 2.404-5.168s-3.212.171-5.354 2.208z" fill="#F5F9FE"/><path d="M66.281 214.323c1.13 4.074 5.003 6.597 5.003 6.597s2.039-4.082.908-8.156c-1.13-4.074-5.002-6.597-5.002-6.597s-2.04 4.082-.909 8.156z" fill="#8597A8"/><path d="M67.885 213.304c3.106 3.002 3.485 7.616 3.485 7.616s-4.656-.252-7.763-3.254c-3.106-3.002-3.485-7.617-3.485-7.617s4.656.253 7.763 3.255z" fill="#F5F9FE"/><path d="M76.037 106.485l-4.598-3.679L97.19 79.812h65.298v20.235l-42.306 28.512-44.146-22.074z" fill="#EEF7FF"/><path opacity=".1" d="M76.037 106.485l-4.598-3.679 25.752-22.994h65.299v20.235l-42.307 28.512-44.146-22.074z" fill="#465C72"/><path opacity=".1" d="M174.395 92.71V80.272h-8.67v3.046l-3.235-3.506-21.154 22.994-8.277 5.518-12.834 93.773 19.355 19.356h44.983V103.726L174.395 92.71z" fill="#465C72"/><path d="M174.395 92.71V80.272h-8.67v3.046l-3.235-3.506-21.154 22.994-8.277 5.518-12.834 93.773 19.355 19.356h44.983V103.726L174.395 92.71z" fill="#EEF7FF"/><path d="M141.336 102.806H71.439v118.646h69.897V102.806z" fill="#fff"/><path d="M111.446 192.481H98.57v28.972h12.876v-28.972z" fill="#8597A8"/><path d="M87.79 204.905h5.43v-12.424h-5.43v12.424zM84.686 203.87v-11.389h-5.43v12.424h5.43v-1.035zM127.169 204.905h5.43v-12.424h-5.43v12.424zM124.065 203.87v-11.389h-5.43v12.424h5.43v-1.035zM164.849 119.655h4.654v-10.871h-4.654v10.871zM161.358 118.749v-9.965h-4.655v10.871h4.655v-.906zM164.849 141.729h4.654v-10.871h-4.654V141.729zM161.358 140.824v-9.966h-4.655v10.871h4.655v-.905zM164.849 163.803h4.654v-10.871h-4.654V163.803zM161.358 162.898v-9.966h-4.655v10.871h4.655v-.905zM164.849 185.877h4.654v-10.871h-4.654v10.871zM161.358 184.971v-9.965h-4.655v10.871h4.655v-.906zM132.599 108.784H79.256v11.037h53.343v-11.037zM132.599 130.858H79.256v11.037h53.343v-11.037zM132.599 152.932H79.256v11.037h53.343v-11.037zM132.599 175.006H79.256v11.037h53.343v-11.037z" fill="#BBCFE2"/><path d="M256.001 220.92h-256v.777h256v-.777z" fill="#8597A8"/><path d="M50.037 158.022h-1.94v63.287h1.94v-63.287z" fill="#465C72"/><path d="M64.388 166.104c.1 22.086-15.332 40.063-15.332 40.063s-15.596-17.833-15.698-39.919c-.1-22.087 15.332-40.063 15.332-40.063s15.597 17.832 15.698 39.919z" fill="#F5F9FE"/><path d="M64.388 166.104c.1 22.086-15.332 40.063-15.332 40.063s-15.596-17.833-15.698-39.919c-.1-22.087 15.332-40.063 15.332-40.063s15.597 17.832 15.698 39.919z" fill="#8597A8"/><path d="M27.928 152.198h-1.94v69.111h1.94v-69.111z" fill="#465C72"/><path d="M44.218 160.856c.112 24.123-17.057 43.758-17.057 43.758s-17.35-19.478-17.463-43.601c-.113-24.124 17.056-43.758 17.056-43.758s17.351 19.477 17.464 43.601z" fill="#F5F9FE"/><path d="M212.896 102.732c-10.419.048-18.9.202-18.9.202s10.081-13.354 18.862-8.406c8.782 4.947 18.87 8.232 18.87 8.232s-8.412-.076-18.832-.028zM39.302 104.039c-10.42.049-18.9.202-18.9.202s10.08-13.353 18.862-8.406c8.781 4.948 18.87 8.233 18.87 8.233s-8.413-.077-18.832-.029zM77.129 74.812c-10.42.048-18.9.202-18.9.202s10.08-13.354 18.862-8.407c8.781 4.948 18.87 8.233 18.87 8.233s-8.413-.076-18.832-.028z" fill="#EEF7FF"/><path d="M234.667 153.363h-1.939v67.946h1.939v-67.946z" fill="#465C72"/><path d="M250.57 161.827c.11 23.802-16.673 43.175-16.673 43.175s-16.962-19.218-17.072-43.02c-.109-23.801 16.674-43.174 16.674-43.174s16.961 19.217 17.071 43.019z" fill="#F5F9FE"/><path d="M190.555 188.791h10.364v-3.199h2.295v3.199h12.977v7.04h-12.977v25.206h-2.295v-25.206h-10.364l-4.387-3.63 4.387-3.41z" fill="#0E8AFD"/><ellipse cx="201.946" cy="192.208" rx="2.035" ry="2.037" fill="#EEF7FF"/></g><defs><clipPath id="clip0"><path fill="#fff" d="M0 0h256v289.006H0z"/></clipPath></defs></svg>