<svg width="254" height="287" viewBox="0 0 254 287" fill="none" xmlns="http://www.w3.org/2000/svg"><path d="M206.665 157.186c-6.808 9.273-4.163 22.818.163 33.667 1.448 3.632 3.086 7.475 2.475 11.37-.747 4.763-4.715 8.246-8.882 10.092-7.595 3.365-16.684 2.563-23.663-2.088-6.031-4.019-10.35-10.555-16.484-14.391-10.265-6.421-23.331-3.996-34.477.426-7.886 3.129-16.508 7.198-24.344 3.928-5.514-2.301-9.325-7.9-11.401-13.836-1.003-2.866-1.73-5.968-3.646-8.24-1.138-1.35-4.644.808-6.165 0-13.896-7.38-29.414 5.069-42.91-3.117-9.116-5.529-14.962-27.572-17.546-38.446-2.584-10.875-2.283-22.277-1.627-33.476.466-7.959 1.303-16.456 6.05-22.598 5.022-6.498 13.64-8.914 21.43-7.68 7.79 1.236 14.85 5.638 21.062 10.822 7.763 6.48 14.963 14.549 24.495 17.174 6.49 1.787 13.319.81 20.014.471 11.192-.566 22.388.693 33.519 2.071 10.655 1.32 21.388 2.772 31.539 6.485 7.183 2.628 12.942 7.398 19.725 10.73 4.422 2.173 9.243 2.772 13.429 5.539 5.157 3.408 9.885 9.336 8.564 16.273-1.257 6.595-7.707 9.903-11.32 14.824z" fill="#EEF7FF"/><path d="M93.516 213.766c.112 6.097-3.467 8.292-7.929 8.375-.103.002-.207.003-.31.002a12.462 12.462 0 01-.614-.017c-4.032-.211-7.203-2.391-7.307-8.061-.108-5.868 7.24-13.411 7.792-13.969l.032-.032s8.223 7.606 8.336 13.702z" fill="#F5F9FE"/><path d="M85.276 221.415l2.879-3.285-2.878 3.641v.372c-.206 0-.41-.005-.614-.013l.206-4.784-.003-.037.005-.008.02-.452-3.055-3.563 3.056 3.225.01.096.155-3.615-2.63-3.69 2.646 3.055.075-7.491v-.025.025l.098 5.905 2.476-2.378-2.475 2.886.01 3.235 2.29-3.138-2.29 3.613.006 1.799 3.33-4.369-3.329 4.996.012 4z" fill="#465C72"/><path d="M186.518 68.362c5.877 0 10.641-4.773 10.641-10.661 0-5.889-4.764-10.662-10.641-10.662-5.878 0-10.642 4.773-10.642 10.662 0 5.888 4.764 10.661 10.642 10.661z" fill="#FF6584"/><path opacity=".1" d="M137.776 214.172c.126.513.193.848.193.848l3.545 2.053s2.578-5.843 1.289-6.001c-.2-.024-.419-.228-.648-.553a.892.892 0 00-.372.424.876.876 0 00-.04.56 2.4 2.4 0 00.254.674c.484.79-1.611 2.054-1.611 2.054-.706.889-1.851.42-2.61-.059z" fill="#000"/><path d="M142.046 211.676c-.216-.932.922-1.557 1.562-.858.162.175.305.369.424.578.631 1.131 5.367 2.101 6.314 1.778.947-.324 4.262-.647 3.473 1.777-.789 2.423-14.996 5.978-14.996 5.978s-1.579-2.262-1.421-3.878a18.946 18.946 0 000-3.231s2.21 2.1 3.315.646c0 0 2.052-1.292 1.579-2.1a2.557 2.557 0 01-.25-.69z" fill="#DCE6F2"/><path opacity=".1" d="M96.982 210.665l1.26 2.938 5.667-.618a12.73 12.73 0 01-.289-2.428.772.772 0 00-.585-.416.788.788 0 00-.68.238c-.293.309-.589.635-.807.905-.63.773-2.677.309-2.677.309-.53.173-1.16-.579-1.61-1.273a2.257 2.257 0 01-.28.345z" fill="#000"/><path d="M102.008 210.52a.765.765 0 011.12-.028c.099.1.171.226.207.364.288 1.152.921 2.639 2.299 3.202 2.378.972 5.707 2.592 4.598 4.049-1.11 1.457-4.915 2.753-8.244 1.619-3.33-1.133-8.085-3.886-8.085-3.886l2.378-6.478s1.268 2.753 2.22 2.429c0 0 2.06.486 2.694-.324.221-.282.519-.622.813-.947z" fill="#DCE6F2"/><path d="M133.486 161.714l2.386 8.955 2.242 10.492s1.208 2.235 0 6.879l3.968 12.9s2.242 8.256 3.622 8.428c1.38.172-1.38 6.536-1.38 6.536l-3.795-2.236s-1.035-5.16-2.415-6.364c-1.38-1.204-5.865-13.244-5.865-13.244l-1.379-8.428s-4.313-11.523-8.108-14.275c-3.795-2.752-5.002-7.224-5.002-7.224l15.726-2.419zM113.275 132.142l-1.38 8.6s-1.725 5.676-1.553 8.427c.173 2.752 0 6.536 0 6.536s-4.14 7.568-.69 10.664c3.45 3.096 4.485-9.804 4.485-9.804s-.517-5.504.69-8.428c1.208-2.923 1.38-9.287 1.38-9.287l-2.932-6.708z" fill="#FBBEBE"/><path opacity=".05" d="M113.275 132.142l-1.38 8.6s-1.725 5.676-1.553 8.427c.173 2.752 0 6.536 0 6.536s-4.14 7.568-.69 10.664c3.45 3.096 4.485-9.804 4.485-9.804s-.517-5.504.69-8.428c1.208-2.923 1.38-9.287 1.38-9.287l-2.932-6.708zM117.76 164.133s1.207 4.472 5.002 7.224 8.108 14.275 8.108 14.275l1.379 8.428s4.485 12.04 5.865 13.244c1.013.884 1.841 3.899 2.208 5.44.135.559.207.924.207.924l3.795 2.236s2.76-6.364 1.38-6.536c-.214-.026-.448-.248-.693-.602-1.329-1.93-2.929-7.826-2.929-7.826l-3.968-12.9c1.208-4.643 0-6.879 0-6.879l-2.242-10.492-2.386-8.954-15.726 2.418z" fill="#000"/><path d="M95.68 208.852l1.38 3.268 6.21-.688a14.342 14.342 0 01-.317-2.701c-.055-1.952.245-4.587 1.87-6.587 2.932-3.612 7.417-12.556 7.417-12.556s4.485-4.815 5.52-6.707l8.635-14.443-.269-1.295 2.328-2.15h-14.489l-3.45 13.416-2.76 5.504s-5.865 4.987-8.107 15.479c0 0-2.238 6.99-3.662 9.076a2.512 2.512 0 01-.306.384zM124.832 112.191s-4.14 5.675-3.105 9.631c1.035 3.956-8.28-2.58-8.28-2.58s4.83-4.3 3.968-11.351l7.417 4.3z" fill="#FBBEBE"/><path d="M111.206 166.025c6.899 4.128 15.179 2.408 15.179 2.408l-.172-1.204c.12.012.241.024.358.034 6.595.582 8.094-1.41 8.094-1.41-1.032-2.891-1.841-9.021-2.344-13.76-.073-.681-.138-1.333-.199-1.943a217.955 217.955 0 01-.389-4.42l-.69-5.16s-1.898-6.192-1.035-10.32c.734-3.516-1.659-4.786-2.386-5.085a2.267 2.267 0 00-.35-.104c-.946-.224-2-1.188-2.896-2.222a11.625 11.625 0 00-4.839-3.292 24.988 24.988 0 01-1.604-.649c-1.208-1.376-4.485-.516-4.485-.516-3.967 2.58-1.897 11.008-1.897 11.008l1.649 4.699c.919 2.616 2.228 5.065 3.739 7.392 2.536 3.901-.904 9.236-.904 9.236-5.347 4.3-4.829 15.308-4.829 15.308z" fill="#FF6584"/><path opacity=".05" d="M125.953 158.027l.617 9.236c6.595.582 8.094-1.41 8.094-1.41-1.032-2.891-1.841-9.021-2.344-13.76-.073-.681-.138-1.333-.199-1.943l-6.168 7.877z" fill="#000"/><path opacity=".1" d="M115 133.862s3.105 5.848 4.14 8.428c1.035 2.58 1.035 1.72 1.552 2.58.518.86 6.038 4.643 6.038 4.643l5.59 2.58c-.236-2.222-.407-4.14-.502-5.273l-5.261-3.498s-3.622-2.236-3.795-5.16c-.172-2.924-2.415-8.256-2.415-8.256s-4.484-4.816-6.382-2.58c-1.897 2.236 1.035 6.536 1.035 6.536z" fill="#000"/><path d="M120.347 129.046s2.243 5.332 2.415 8.256c.173 2.924 3.795 5.16 3.795 5.16l11.385 7.567s9.832 3.268 6.555 7.052c-3.278 3.784-8.453-4.128-8.453-4.128l-9.314-4.3s-5.52-3.783-6.038-4.643c-.517-.86-.517 0-1.552-2.58-1.035-2.58-4.14-8.428-4.14-8.428s-2.932-4.3-1.035-6.536c1.898-2.236 6.382 2.58 6.382 2.58z" fill="#FBBEBE"/><path opacity=".1" d="M121.727 131.282s-3.45-2.58-4.14-3.44c-.305-.38-.778-.323-1.211-.142a5.452 5.452 0 01-2.563.422c-.754-.065-1.487-.022-1.401.408.172.86-.518-4.472-.518-4.472l2.933-1.032 3.795 2.064 3.105 6.192z" fill="#000"/><path d="M121.727 130.938s-3.45-2.58-4.14-3.44c-.305-.38-.778-.323-1.211-.142a5.452 5.452 0 01-2.563.422c-.754-.065-1.487-.022-1.401.408.172.86-.518-4.472-.518-4.472l2.933-1.032 3.795 2.064 3.105 6.192z" fill="#FF6584"/><path opacity=".1" d="M129.85 131.282a4.246 4.246 0 01-3.897-.258M118.536 108.321c.129-1.029-1.148 1.107-1.294-.086l7.417 4.299s-.423.582-.965 1.5a7.47 7.47 0 01-.846.048c-2.232 0-2.938-4.22-4.312-5.761z" fill="#000"/><path d="M123.02 113.738c4.145 0 7.504-3.349 7.504-7.481s-3.359-7.482-7.504-7.482c-4.144 0-7.503 3.35-7.503 7.482s3.359 7.481 7.503 7.481z" fill="#FBBEBE"/><path opacity=".1" d="M126.387 106.387c-.056.47-.045.966-.27 1.383-.313.584-.99.85-1.555 1.197-2.293 1.408-2.972 4.576-2.242 7.159.258.915.666 1.843.497 2.777-.291 1.607-2.126 2.44-3.757 2.582-1.631.143-3.339-.121-4.864.473-2.561.996-3.69 3.992-5.867 5.666-2.533 1.947-6.021 1.826-9.211 2.052-1.18.083-2.377.225-3.535-.011-1.16-.235-2.302-.931-2.712-2.038-.577-1.56.475-3.253 1.696-4.386 1.222-1.133 2.713-2.088 3.405-3.602.93-2.035.178-4.605 1.347-6.514a2 2 0 01.952-.869c.515-.193 1.086-.06 1.636-.041 2.131.073 3.947-1.621 4.937-3.504.989-1.882 1.41-4.013 2.314-5.937 1.024-2.178 2.731-4.1 4.949-5.045 1.299-.554 2.718-.757 4.075-1.152 1.542-.447 3.014-1.145 4.594-1.435 1.58-.29 3.369-.099 4.524 1.015 1.087 1.047 1.404 2.691 2.443 3.786.393.414.897.764 1.086 1.302.448 1.274-1.724 1.381-2.449 1.891a4.762 4.762 0 00-1.993 3.251z" fill="#000"/><path d="M126.042 106.215c-.056.47-.045.967-.27 1.383-.313.584-.99.85-1.555 1.197-2.293 1.408-2.972 4.576-2.242 7.16.258.914.666 1.842.497 2.776-.291 1.607-2.126 2.44-3.757 2.582-1.631.143-3.339-.121-4.864.473-2.561.996-3.689 3.992-5.867 5.666-2.533 1.947-6.021 1.826-9.211 2.052-1.18.083-2.377.225-3.535-.011-1.16-.235-2.302-.931-2.712-2.037-.577-1.561.475-3.254 1.696-4.386 1.222-1.133 2.713-2.089 3.405-3.603.93-2.035.178-4.605 1.347-6.513.213-.388.547-.693.952-.87.515-.193 1.086-.06 1.636-.041 2.131.073 3.947-1.621 4.937-3.504.989-1.882 1.41-4.013 2.314-5.937 1.024-2.178 2.731-4.1 4.949-5.045 1.299-.554 2.718-.757 4.075-1.151 1.542-.448 3.014-1.145 4.594-1.436 1.58-.29 3.369-.098 4.524 1.015 1.087 1.047 1.404 2.691 2.443 3.786.393.414.898.764 1.087 1.302.447 1.274-1.725 1.381-2.45 1.891a4.754 4.754 0 00-1.993 3.251zM44.295 222.458s-5.155-9.319 1.25-16.743c6.404-7.423 13.902-3.317 13.902-3.317s9.373 4.423 7.186 15.006c0 0-1.25 5.37-4.999 5.054h-17.34z" fill="#0E8AFD"/><path opacity=".2" d="M44.295 222.458s-5.155-9.319 1.25-16.743c6.404-7.423 13.902-3.317 13.902-3.317s9.373 4.423 7.186 15.006c0 0-1.25 5.37-4.999 5.054h-17.34z" fill="#fff"/><path d="M52.724 222.471l5.388-17.35M63.115 207.82s-2.804-1.372-5.618-.608c0 0-1.46-3.778-4.773-4.404M64.654 213.603s-4.923-3.522-8.525-2.453c0 0-4.07-4.78-6.868-4.473M63.5 220.158s-4.166-3.107-9.318-2.903c0 0-3.92-4.876-7.615-5.194M54.648 222.471a10.734 10.734 0 00-1.975-.723s-3.188-4.236-9.57-2.856" stroke="#535461" stroke-miterlimit="10"/><path d="M60.747 150.737c-3.2-3.159-8.108-3.366-8.108-3.366s.28 4.914 3.479 8.073c3.2 3.159 8.108 3.366 8.108 3.366s-.28-4.914-3.479-8.073zM85.724 162.255c1.042-4.04-1.073-8.081-1.073-8.081s-3.804 2.508-4.847 6.548c-1.042 4.039 1.073 8.08 1.073 8.08s3.804-2.508 4.847-6.547z" fill="#F5F9FE"/><path d="M175.56 165.641c-2.231 2.343-2.378 5.936-2.378 5.936s3.472-.205 5.703-2.547c2.232-2.343 2.379-5.936 2.379-5.936s-3.472.205-5.704 2.547z" fill="#6C63FF"/><path d="M143.356 171.191c.744 0 1.347-.604 1.347-1.349a1.348 1.348 0 10-2.694 0c0 .745.603 1.349 1.347 1.349zM146.435 185.843a1.349 1.349 0 000-2.699 1.349 1.349 0 000 2.699z" fill="#FC6681"/><path d="M108.142 196.959s5.02 4.344 13.225 2.14 6.182-7.858 6.182-7.858M142.779 210.519s-11.084-5.432-16.656-3.407c-14.507 5.275-25.293-8.931-25.293-8.931" stroke="#535461" stroke-width="2" stroke-miterlimit="10"/><path d="M110.631 222.471s6.664-5.02-1.705-22.594c0 0-11.16-13.964 0-27.144 0 0-24.333.628-23.868 23.536.465 22.907 12.166 26.202 12.166 26.202h13.407z" fill="#F5F9FE"/><path opacity=".1" d="M110.631 222.471s6.664-5.02-1.705-22.594c0 0-11.16-13.964 0-27.144 0 0-24.333.628-23.868 23.536.465 22.907 12.166 26.202 12.166 26.202h13.407z" fill="#000"/><path fill-rule="evenodd" clip-rule="evenodd" d="M101.096 177.31l-2.782 7.663s-2.941 6.682-1.467 13.24v.003a15.56 15.56 0 001.846 4.708c2.26 3.707 3.804 8.58 4.784 12.511a80.44 80.44 0 011.319 6.422 34.184 34.184 0 01.076.5l.004.027.001.007v.002l-.274.039-.275.039-.001-.008-.004-.025-.007-.048-.008-.053a69.097 69.097 0 00-.309-1.847 80.338 80.338 0 00-1.061-4.918c-.975-3.915-2.503-8.722-4.718-12.354l-.002-.003a16.123 16.123 0 01-1.913-4.879c-1.518-6.754 1.793-13.526 1.793-13.526l2.998-7.5z" fill="#465C72"/><path d="M127.385 222.471s12.721-18.338 6.243-35.472" stroke="#535461" stroke-miterlimit="10"/><path d="M197.551 222.181s-22.998-5.135 6.264-35.182c0 0 12.613 11.94 7.986 26.782-1.861 5.967-7.846 9.651-13.907 8.471a14.953 14.953 0 01-.343-.071z" fill="#F5F9FE"/><path opacity=".4" d="M197.503 222.181c-.506-.113-22.572-5.643 6.283-35.182 0 0 12.653 11.94 8.012 26.782-1.867 5.967-7.87 9.651-13.951 8.471a16.23 16.23 0 01-.344-.071z" fill="#fff"/><path d="M154.833 222.181s-22.998-5.135 6.264-35.182c0 0 12.613 11.94 7.986 26.782-1.861 5.967-7.846 9.651-13.907 8.471a14.953 14.953 0 01-.343-.071z" fill="#0E8AFD"/><path opacity=".4" d="M154.785 222.181c-.506-.113-22.572-5.643 6.283-35.182 0 0 12.653 11.94 8.012 26.782-1.867 5.967-7.87 9.651-13.951 8.471a16.23 16.23 0 01-.344-.071z" fill="#fff"/><path d="M75.03 220.427c.676-.523 1.31-1.14 1.505-1.891.1-.397.047-.818-.148-1.177a1.575 1.575 0 00-.903-.748c-.966-.307-1.998.25-2.78.813-.783.562-1.68 1.204-2.704 1.085 1.06-.781 1.565-2.052 1.272-3.205a1.248 1.248 0 00-.354-.651c-.536-.477-1.508-.273-2.15.103-2.041 1.195-2.61 3.503-2.622 5.58-.206-.749-.032-1.53-.037-2.298-.006-.769-.259-1.621-1.038-2.034-.462-.245-1.034-.292-1.582-.309-.917-.028-1.94.048-2.566.607-.779.694-.577 1.859.1 2.623.678.764 1.708 1.242 2.657 1.77.723.402 1.454.872 1.898 1.507.057.084.104.175.141.269h5.753a16.487 16.487 0 003.558-2.044z" fill="#0E8AFD"/><path d="M111.245 209.08c4.97 9.369 15.516 13.391 15.516 13.391s2.49-11.168-2.479-20.538c-4.97-9.369-15.516-13.391-15.516-13.391s-2.49 11.168 2.479 20.538z" fill="#465C72"/><path d="M114.761 211.181c6.057 3.7 8.39 11.05 8.39 11.05s-7.488 1.35-13.546-2.35c-6.057-3.7-8.39-11.05-8.39-11.05s7.488-1.35 13.546 2.35z" fill="#F5F9FE"/><path d="M76.068 201.139c-5.758 8.837-4.329 20.176-4.329 20.176s10.765-2.989 16.523-11.826c5.758-8.837 4.33-20.176 4.33-20.176s-10.766 2.989-16.524 11.826z" fill="#465C72"/><path d="M80.4 202.831c-.574 10.647-8.51 18.869-8.51 18.869s-7.006-9.04-6.433-19.687c.574-10.647 8.51-18.869 8.51-18.869s7.006 9.04 6.433 19.687z" fill="#F5F9FE"/><path opacity=".1" d="M80.4 202.831c-.574 10.647-8.51 18.869-8.51 18.869s-7.006-9.04-6.433-19.687c.574-10.647 8.51-18.869 8.51-18.869s7.006 9.04 6.433 19.687z" fill="#000"/><path d="M205.501 197.656c.329 17.78-10.15 24.182-23.218 24.423a39.308 39.308 0 01-2.706-.043c-11.81-.616-21.095-6.973-21.401-23.508-.317-17.112 21.205-39.11 22.82-40.737l.002-.002.093-.093s24.081 22.182 24.41 39.96z" fill="#0E8AFD"/><path d="M181.447 219.761l8.528-10.486-8.525 11.622.002 1.189a43.751 43.751 0 01-1.82-.043l.61-15.273-.01-.118.016-.023.058-1.443-9.048-11.377 9.051 10.296.029.306.461-11.54-7.791-11.781 7.839 9.753.22-23.915.002-.079.001.078.288 18.852 7.333-7.59-7.33 9.214.027 10.326 6.786-10.016-6.781 11.535.015 5.741 9.862-13.948-9.858 15.952.035 12.768z" fill="#3F3D56"/><path d="M168.767 199.297c.306 16.627-9.453 22.615-21.623 22.84a34.338 34.338 0 01-2.52-.04c-10.998-.576-19.645-6.522-19.93-21.985-.295-16.003 19.748-36.576 21.251-38.098l.003-.001.086-.087s22.427 20.744 22.733 37.371z" fill="#F5F9FE"/><path d="M146.295 220.252l7.852-8.527-7.849 9.451.002.967a46.318 46.318 0 01-1.676-.035l.562-12.42-.009-.096.014-.019.054-1.173-8.332-9.252 8.335 8.373.026.248.424-9.384-7.173-9.58 7.218 7.931.203-19.447.001-.065.001.064.265 15.331 6.752-6.173-6.749 7.493.025 8.397 6.248-8.145-6.243 9.38.014 4.669 9.079-11.343-9.076 12.972.032 10.383zM216.17 204.761c.237 12.878-7.321 17.515-16.747 17.69a28.587 28.587 0 01-1.952-.032c-8.518-.446-15.214-5.05-15.435-17.027-.228-12.394 15.294-28.327 16.459-29.506l.002-.001.067-.067s17.369 16.066 17.606 28.943z" fill="#465C72"/><path d="M198.766 220.914l6.081-6.95-6.079 7.703.002.788c-.437-.001-.87-.01-1.298-.028l.435-10.124-.007-.078.011-.015.042-.957-6.453-7.54 6.455 6.824.02.203.329-7.649-5.556-7.809 5.59 6.465.157-15.852.001-.052.001.052.206 12.495 5.229-5.031-5.227 6.108.019 6.844 4.839-6.639-4.835 7.645.011 3.806 7.032-9.245-7.029 10.573.024 8.463z" fill="#F5F9FE"/><path d="M252.076 229.085a610.658 610.658 0 00-22.213-3.367l2.81-5.459c-.948-.33-5.111 2.797-5.111 2.797l3.688-15.848c-4.766.576-7.19 16.757-7.19 16.757l-5.325-5.47 2.578 6.15c-21.759-2.567-40.551-3.519-56.358-3.553l2.406-4.673c-.948-.33-5.112 2.797-5.112 2.797l3.689-15.848c-4.767.576-7.19 16.757-7.19 16.757l-5.326-5.47 2.731 6.514c-13.251.266-24.057 1.172-32.397 2.205 2.433-7.279 10.698-14.203 10.698-14.203-6.312 1.881-9.623 5.033-11.353 7.971a127.848 127.848 0 017.363-44.099s-13.047 28.444-11.382 47.538l.199 3.39c-11.061 1.587-17.104 2.163-17.104 2.163l149.899 2.951z" fill="#8597A8"/><path d="M74.317 202.373c.265 14.389-8.18 19.57-18.711 19.765a30.163 30.163 0 01-2.18-.035c-9.518-.498-17-5.643-17.247-19.024-.256-13.849 17.088-31.651 18.39-32.968l.002-.001.074-.076s19.407 17.952 19.672 32.339z" fill="#F5F9FE"/><path d="M54.87 220.424l6.795-7.752-6.792 8.592.002.879a38.536 38.536 0 01-1.45-.031l.486-11.292-.008-.087.012-.017.047-1.067-7.21-8.41 7.212 7.612.023.225.367-8.531-6.207-8.708 6.245 7.21.176-17.679v-.059l.002.058.23 13.936 5.842-5.611-5.84 6.812.022 7.633 5.407-7.404-5.403 8.527.012 4.244 7.857-10.311-7.854 11.792.028 9.439z" fill="#465C72"/><path d="M157.288 226.942a608.474 608.474 0 00-22.213-3.367l2.81-5.46c-.947-.329-5.111 2.797-5.111 2.797l3.688-15.847c-4.766.576-7.19 16.757-7.19 16.757l-5.325-5.471 2.578 6.151c-21.759-2.568-40.551-3.52-56.358-3.554l2.406-4.673c-.948-.329-5.111 2.797-5.111 2.797l3.688-15.847c-4.767.576-7.19 16.757-7.19 16.757l-5.325-5.471 2.73 6.514c-13.25.266-24.057 1.172-32.397 2.205 2.433-7.279 10.698-14.202 10.698-14.202-6.312 1.881-9.623 5.032-11.353 7.971a127.85 127.85 0 017.363-44.1s-13.047 28.445-11.382 47.538l.199 3.391c-11.061 1.586-16.622 3.237-16.622 3.237l149.417 1.877z" fill="#8597A8"/></svg>