<svg width="257" height="290" viewBox="0 0 257 290" fill="none" xmlns="http://www.w3.org/2000/svg"><g clip-path="url(#clip0)"><path d="M256.799 165.034L90.081 66.244l-5.014 8.461 166.718 98.791 5.014-8.462zM220.563 173.316L53.844 74.526l-5.014 8.46 166.719 98.792 5.014-8.462zM188.469 182.375L21.749 83.584l-5.013 8.461 166.719 98.791 5.014-8.461z" fill="#EEF7FF"/><path d="M199.905 129.853c0 28.552-23.146 51.698-51.698 51.698-28.551 0-51.697-23.146-51.697-51.698s23.146-51.698 51.697-51.698c28.552 0 51.698 23.146 51.698 51.698z" fill="#fff" stroke="#568DC4"/><path d="M148.207 139.383a9.307 9.307 0 01-9.126-11.12 9.306 9.306 0 0118.431 1.815 9.32 9.32 0 01-2.728 6.577 9.32 9.32 0 01-6.577 2.728zm0-18.156a8.855 8.855 0 00-8.681 10.578 8.855 8.855 0 006.954 6.954 8.854 8.854 0 009.086-3.763 8.85 8.85 0 001.492-4.918 8.862 8.862 0 00-8.851-8.851z" fill="#568DC4"/><path d="M148.206 147.781a17.705 17.705 0 01-17.362-21.156 17.698 17.698 0 0113.908-13.908 17.706 17.706 0 0121.155 17.362 17.723 17.723 0 01-17.701 17.702zm0-34.95a17.244 17.244 0 00-15.935 10.647 17.25 17.25 0 003.738 18.797 17.25 17.25 0 0029.444-12.196 17.266 17.266 0 00-17.247-17.248z" fill="#568DC4"/><path d="M148.207 155.044a24.967 24.967 0 01-23.064-15.411 24.96 24.96 0 015.411-27.206 24.963 24.963 0 0142.617 17.653 24.996 24.996 0 01-24.964 24.964zm0-49.474a24.508 24.508 0 00-17.332 41.841 24.51 24.51 0 0041.842-17.331 24.54 24.54 0 00-24.51-24.51z" fill="#568DC4"/><path d="M148.206 164.575c-19.021 0-34.496-15.474-34.496-34.495 0-19.021 15.475-34.496 34.496-34.496s34.496 15.475 34.496 34.496-15.475 34.495-34.496 34.495zm0-68.537c-18.771 0-34.042 15.271-34.042 34.042 0 18.77 15.271 34.041 34.042 34.041s34.042-15.271 34.042-34.041c0-18.771-15.271-34.042-34.042-34.042z" fill="#568DC4"/><path d="M148.208 172.518c-23.401 0-42.439-19.038-42.439-42.439s19.038-42.439 42.439-42.439 42.439 19.038 42.439 42.439-19.038 42.439-42.439 42.439zm0-84.424c-23.151 0-41.985 18.834-41.985 41.985s18.834 41.985 41.985 41.985c23.15 0 41.985-18.834 41.985-41.985s-18.835-41.985-41.985-41.985z" fill="#568DC4"/><path d="M148.205 134.164a4.312 4.312 0 100-8.624 4.312 4.312 0 000 8.624z" fill="#FF6584"/><path d="M159.327 146.646a4.313 4.313 0 10-.001-8.625 4.313 4.313 0 00.001 8.625zM129.143 144.83a4.313 4.313 0 10-.001-8.625 4.313 4.313 0 00.001 8.625z" fill="#0E8AFD"/><path d="M243.524 108.973a2.042 2.042 0 100-4.083 2.042 2.042 0 000 4.083z" fill="#FF6584"/><path d="M148.321 129.967h-.454v-23.376h90.097v.454h-89.643v22.922z" fill="#8597A8"/><path d="M243.524 112.832a5.904 5.904 0 01-5.451-3.642 5.894 5.894 0 011.279-6.431 5.906 5.906 0 016.43-1.279c1.079.447 2 1.203 2.649 2.173.648.971.994 2.112.994 3.279a5.908 5.908 0 01-5.901 5.9zm0-11.347a5.444 5.444 0 00-5.342 6.509 5.444 5.444 0 004.28 4.28 5.45 5.45 0 005.591-2.316 5.444 5.444 0 00-.679-6.876 5.456 5.456 0 00-3.85-1.597z" fill="#BBCFE2"/><path d="M229.908 167.753a2.042 2.042 0 100-4.083 2.042 2.042 0 000 4.083z" fill="#FF6584"/><path d="M229.908 171.61a5.902 5.902 0 01-5.787-7.051 5.902 5.902 0 0111.688 1.151 5.908 5.908 0 01-5.901 5.9zm0-11.347a5.452 5.452 0 00-5.032 3.363 5.447 5.447 0 1010.479 2.084 5.456 5.456 0 00-5.447-5.447z" fill="#BBCFE2"/><path d="M73.088 118.505a2.042 2.042 0 100-4.084 2.042 2.042 0 000 4.084z" fill="#FF6584"/><path d="M73.088 122.362a5.903 5.903 0 01-5.451-3.642 5.9 5.9 0 1111.352-2.258 5.907 5.907 0 01-5.9 5.9zm0-11.347a5.443 5.443 0 00-5.032 3.362 5.448 5.448 0 009.561 5.111 5.448 5.448 0 00.918-3.026 5.454 5.454 0 00-5.447-5.447z" fill="#BBCFE2"/><path d="M129.371 140.519h-.426v-22.925l-53.815-.904.006-.454 54.235.911v23.372zM224.235 165.937h-65.133v-23.376h.454v22.922h64.679v.454z" fill="#8597A8"/><path d="M256.005 117.597h-24.964v1.588h24.964v-1.588zM256.005 122.136h-24.964v1.589h24.964v-1.589zM256.005 126.676h-24.964v1.588h24.964v-1.588zM242.389 176.377h-24.964v1.589h24.964v-1.589zM242.389 180.915h-24.964v1.588h24.964v-1.588zM242.389 185.454h-24.964v1.589h24.964v-1.589zM85.572 127.356H60.606v1.589h24.965v-1.589zM85.572 131.894H60.606v1.588h24.965v-1.588zM85.572 136.433H60.606v1.589h24.965v-1.589z" fill="#465C72"/><path d="M150.248 216.774c27.45 0 49.702-.711 49.702-1.588 0-.878-22.252-1.589-49.702-1.589-27.449 0-49.701.711-49.701 1.589 0 .877 22.252 1.588 49.701 1.588z" fill="#EEF7FF"/><path d="M168.364 223.83H.801v.776h167.563v-.776z" fill="#8597A8"/><path d="M132.545 213.605h-6.729v-6.73h6.729v6.73zm-6.212-.518h5.695v-5.694h-5.695v5.694z" fill="#BBCFE2"/><path d="M136.686 213.604a2.588 2.588 0 100-5.176 2.588 2.588 0 000 5.176z" fill="#0E8AFD"/><path d="M148.206 131.894a2.043 2.043 0 100-4.085 2.043 2.043 0 000 4.085zM129.142 142.562a2.043 2.043 0 10-.001-4.085 2.043 2.043 0 00.001 4.085zM159.328 144.603a2.043 2.043 0 100-4.087 2.043 2.043 0 000 4.087z" fill="#fff"/><path d="M34.204 118.34s-2.359-.698-2.864.061c-.506.759.69 6.26.69 6.26l5.196.316-1.813-4.58-1.21-2.057z" fill="#2F2E41"/><path d="M16.022 163.513s4.729 10.381 1.087 10.055c-3.642-.326-5.055-10.055-5.055-10.055h3.968zM46.949 162.432s-2.075 11.217 1.38 10.019c3.454-1.198 2.47-10.98 2.47-10.98l-3.85.961z" fill="#FBBEBE"/><path d="M33.197 115.737s-.054 5.218 1.957 5.489c2.011.272-1.141 3.044-1.141 3.044l-3.588.707-5.163-.381-2.283-2.935s4.022-1.902 2.283-7.827l7.935 1.903z" fill="#A0616A"/><path d="M33.197 115.737s-.054 5.218 1.957 5.489c2.011.272-1.141 3.044-1.141 3.044l-3.588.707-5.163-.381-2.283-2.935s4.022-1.902 2.283-7.827l7.935 1.903z" fill="#F3AEAE"/><path d="M42.438 159.871s2.554 5.49.543 22.72c0 0 .598 6.088.109 7.229-.49 1.141-4.511 16.632-4.511 16.632s-5.164 1.141-5.87-2.283c0 0 .706-4.892.652-5.652-.055-.761 1.141-9.077 1.141-9.077l-2.446-16.089-1.848 14.512s0 4.185-.598 5.109c-.598.924 0 19.513 0 19.513s1.685 2.827-.87 2.881c-2.554.054-4.837-.054-5.054-1.848-.218-1.794-.326-3.587-.87-4.674-.543-1.087-1.25-13.534-1.087-17.883.163-4.348-3.587-26.687-2.391-29.024 1.195-2.337 23.1-2.066 23.1-2.066z" fill="#25323F"/><path d="M30.426 117.693a6.522 6.522 0 100-13.044 6.522 6.522 0 000 13.044z" fill="#FBBEBE"/><path d="M23.903 121.77s3.968 2.935 9.73.598c0 0 1.902-.924 1.739-2.337-.163-1.414 3.968 11.359 3.968 11.359l4.185 22.231-.218 9.077s-1.848-.924-7.61 1.141c-5.76 2.066-15.164-2.337-15.164-2.337l.326-23.318.327-13.588.87-2.989s.434-.816 1.847.163z" fill="#FF6584"/><path d="M33.379 118.121s.96-.156 1.884 1.312c.924 1.467 3.098 2.391 3.098 2.391s5.273.326 6.034 3.153c.76 2.826 2.663 6.685 3.587 13.805.924 7.121 2.772 18.48 3.044 19.404.271.924-.38 3.751.38 4.62.761.87-5.38.87-5.38.87s-.544-4.457-.925-4.457c-.38 0-.272 2.99.109 5.164.38 2.174-2.772 0-2.772 0s-2.446-9.947-4.783-18.915-3.696-13.915-3.261-15.926c.434-2.011 1.63-7.772.76-8.316-.87-.543-1.775-3.105-1.775-3.105zM25.54 118.116s-1.42.773-5.007 3.328c-3.587 2.554-6.033 4.511-6.033 4.511s-1.413 1.087-2.283 7.555c-.87 6.468-2.826 23.209-2.065 25.329.76 2.119 1.033 3.37.76 4.62-.27 1.25 5.708 1.195 5.817.924.108-.272-.163-5.218.108-5.327.272-.109 1.74 2.935 2.011 5.49.272 2.554 3.425 4.565 4.131 4.565.707 0 4.349-14.729 4.403-24.785.054-10.055-1.196-18.534-2.12-19.73-.924-1.196.279-6.48.279-6.48zM35.1 206.941s.435-1.196 1.957-.815c1.521.38 2.554-.978 2.554-.978s.816-.109.272.924c-.544 1.032-.978 1.739-.978 1.739s3.26 7.446 1.141 9.24c-2.12 1.794-4.566.706-4.566.706s-2.391-1.684-2.282-6.141c0 0-.11-1.414-1.414-3.696-1.304-2.283-2.282-5.762-.706-6.414 1.576-.652 1.982-.677 1.982-.677s-.738 3.374 1.167 4.553l.873 1.559zM24.99 215.366s-1.304-2.446.87-2.718c2.174-.272 4.511-.435 4.402.707-.108 1.141-.38 2.881-.38 2.881l.38 1.25s.109 3.098.49 3.478c.38.381 2.445 3.642-1.957 3.642-4.403 0-5.707-.489-5.327-1.522.38-1.033.49-6.142.49-6.142l1.032-1.576z" fill="#465C72"/><path d="M28.36 105.953s3.044.815 4.62 1.142c1.576.326 1.413-.598 1.413-.598s2.066.271 1.957.054c-.109-.217.87-1.359-.272-2.663-1.141-1.305-.815-2.283-.815-2.283h-.978l-.272-.381H32.49s-1.142-.434-4.13 0c-2.99.435-7.067.544-7.393 2.338-.326 1.793-2.011 4.022-1.413 5.054.598 1.033 4.022 5.273 4.348 7.066.326 1.794 1.849 2.192 1.794 1.069-.055-1.123-1.576-5.036-.272-5.2 1.305-.163 3.533-3.478 2.935-5.598z" fill="#2F2E41"/></g><defs><clipPath id="clip0"><path fill="#fff" transform="translate(.8 .8)" d="M0 0h256v288.722H0z"/></clipPath></defs></svg>