<svg width="256" height="289" viewBox="0 0 256 289" fill="none" xmlns="http://www.w3.org/2000/svg"><path d="M201.934 171.736c6.806 0 12.323-5.517 12.323-12.322 0-6.805-5.517-12.322-12.323-12.322-6.805 0-12.322 5.517-12.322 12.322 0 6.805 5.517 12.322 12.322 12.322z" fill="#FF6584"/><path d="M221.506 197.568h-.725v23.557h.725v-23.557z" fill="#465C72"/><path d="M226.942 200.803c.038 8.206-5.73 14.886-5.73 14.886s-5.83-6.626-5.867-14.833c-.038-8.206 5.73-14.886 5.73-14.886s5.829 6.626 5.867 14.833z" fill="#F5F9FE"/><path d="M226.942 200.803c.038 8.206-5.73 14.886-5.73 14.886s-5.83-6.626-5.867-14.833c-.038-8.206 5.73-14.886 5.73-14.886s5.829 6.626 5.867 14.833z" fill="#8597A8"/><path d="M109.335 151.178c5.105 0 9.242-4.219 9.242-9.423 0-5.205-4.137-9.423-9.242-9.423-5.104 0-9.241 4.218-9.241 9.423 0 5.204 4.137 9.423 9.241 9.423zM92.12 152.627a6.523 6.523 0 100-13.047 6.524 6.524 0 000 13.047z" fill="#EEF7FF"/><path d="M158.956 218.571c.497 1.801 2.2 2.917 2.2 2.917s.896-1.805.399-3.607c-.497-1.801-2.199-2.917-2.199-2.917s-.897 1.805-.4 3.607z" fill="#465C72"/><path d="M159.771 218.187c1.401 1.301 1.572 3.301 1.572 3.301s-2.1-.11-3.502-1.411c-1.401-1.301-1.572-3.301-1.572-3.301s2.101.11 3.502 1.411z" fill="#F5F9FE"/><path d="M99.147 204.542l-1.228-2.077 11.467-9.971h29.486v2.908l-10.648 11.633-12.286 2.493-16.79-4.986z" fill="#EEF7FF"/><path opacity=".1" d="M99.147 204.542l-1.228-2.077 11.467-9.971h29.486v2.908l-10.648 11.633-12.286 2.493-16.79-4.986z" fill="#465C72"/><path d="M144.009 198.55v-6.419h-3.851v2.024l-1.212-1.383-9.806 9.846-1.634 1.64-2.043 8.205 3.677 9.025h18.794v-18.46l-3.925-4.478z" fill="#EEF7FF"/><path d="M129.087 202.642H97.919v18.846h31.168v-18.846z" fill="#fff"/><path d="M115.678 208.078h-5.799v13.41h5.799v-13.41zM105.015 212.733h2.327v-4.655h-2.327v4.655zM103.355 212.344v-4.266h-2.328v4.655h2.328v-.389zM122.201 212.733h2.327v-4.655h-2.327v4.655zM120.541 212.344v-4.266h-2.327v4.655h2.327v-.389zM139.803 212.733h2.327v-4.655h-2.327v4.655zM138.506 212.344v-4.266h-2.327v4.655h2.327v-.389z" fill="#8597A8"/><path d="M43.793 170.126l-2.05-1.614 11.48-10.086h29.112v8.876l-18.861 12.507-19.68-9.683z" fill="#EEF7FF"/><path opacity=".1" d="M43.793 170.126l-2.05-1.614 11.48-10.086h29.112v8.876l-18.861 12.507-19.68-9.683z" fill="#465C72"/><path d="M87.595 164.169v-5.538h-3.858v1.356l-1.44-1.561-9.414 10.237-3.683 2.457-5.712 41.75 8.614 8.618H92.12v-52.415l-4.525-4.904z" fill="#EEF7FF"/><path d="M72.912 168.574H41.743v52.914h31.169v-52.914z" fill="#fff"/><path d="M59.502 208.44h-5.799v13.048h5.8V208.44zM48.992 213.095h2.327v-4.655h-2.327v4.655zM47.695 212.707v-4.267h-2.328v4.655h2.328v-.388zM66.597 213.095h2.328v-4.655h-2.328v4.655zM65.3 212.707v-4.267h-2.327v4.655h2.328v-.388zM83.552 176.153h2.328v-5.042h-2.328v5.042zM81.892 175.733v-4.622h-2.327v5.042h2.327v-.42zM83.552 185.939h2.328v-5.043h-2.328v5.043zM81.892 185.519v-4.623h-2.327v5.043h2.327v-.42zM83.552 195.724h2.328v-5.042h-2.328v5.042zM81.892 195.304v-4.622h-2.327v5.042h2.327v-.42zM83.552 205.872h2.328v-5.042h-2.328v5.042zM81.892 205.452v-4.622h-2.327v5.042h2.327v-.42zM68.925 171.111H45.367v5.074h23.558v-5.074zM68.925 180.896H45.367v5.074h23.558v-5.074zM68.925 190.682H45.367v5.074h23.558v-5.074zM68.925 200.83H45.367v4.711h23.558v-4.711z" fill="#8597A8"/><path d="M163.393 170.126l-2.05-1.614 11.48-10.086h29.111v8.876l-18.861 12.507-19.68-9.683z" fill="#EEF7FF"/><path opacity=".1" d="M163.393 170.126l-2.05-1.614 11.48-10.086h29.111v8.876l-18.861 12.507-19.68-9.683z" fill="#465C72"/><path d="M207.195 164.169v-5.538h-3.858v1.356l-1.44-1.561-9.414 10.237-3.683 2.457-5.712 41.75 8.614 8.618h20.017v-52.415l-4.524-4.904z" fill="#EEF7FF"/><path d="M192.511 168.574h-31.168v52.914h31.168v-52.914z" fill="#fff"/><path d="M179.102 208.44h-5.799v13.048h5.799V208.44zM168.591 213.095h2.327v-4.655h-2.327v4.655zM167.294 212.707v-4.267h-2.327v4.655h2.327v-.388zM186.197 213.095h2.327v-4.655h-2.327v4.655zM184.9 212.707v-4.267h-2.327v4.655h2.327v-.388zM202.633 175.765h2.327v-4.654h-2.327v4.654zM200.974 175.378v-4.267h-2.327v4.654h2.327v-.387zM202.633 185.551h2.327v-4.655h-2.327v4.655zM200.974 185.163v-4.267h-2.327v4.655h2.327v-.388zM202.633 195.336h2.327v-4.654h-2.327v4.654zM200.974 194.949v-4.267h-2.327v4.654h2.327v-.387zM202.633 205.484h2.327v-4.654h-2.327v4.654zM200.974 205.097v-4.267h-2.327v4.654h2.327v-.387zM188.524 171.111h-23.557v5.074h23.557v-5.074zM188.524 180.896h-23.557v5.074h23.557v-5.074zM188.524 190.682h-23.557v5.074h23.557v-5.074zM188.524 200.83h-23.557v4.711h23.557v-4.711z" fill="#8597A8"/><path d="M35.944 197.568h-.725v23.557h.725v-23.557z" fill="#465C72"/><path d="M41.38 200.803c.038 8.206-5.73 14.886-5.73 14.886s-5.83-6.626-5.867-14.833c-.038-8.206 5.73-14.886 5.73-14.886s5.83 6.626 5.867 14.833z" fill="#F5F9FE"/><path d="M95.382 197.568h-.725v23.557h.725v-23.557z" fill="#465C72"/><path d="M100.818 200.803c.038 8.206-5.73 14.886-5.73 14.886s-5.83-6.626-5.867-14.833c-.038-8.206 5.73-14.886 5.73-14.886s5.83 6.626 5.867 14.833z" fill="#F5F9FE"/><path d="M213.894 197.568h-.725v23.557h.725v-23.557z" fill="#465C72"/><path d="M219.33 200.803c.038 8.206-5.73 14.886-5.73 14.886s-5.829-6.626-5.867-14.833c-.038-8.206 5.73-14.886 5.73-14.886s5.83 6.626 5.867 14.833z" fill="#F5F9FE"/><path opacity=".1" d="M135.635 85.458h-1.529v-2.97c0-3.351-2.672-6.138-6.024-6.188a6.125 6.125 0 00-6.189 6.106v3.052h-1.526a2.553 2.553 0 00-2.545 2.545v12.212a2.552 2.552 0 002.545 2.544h15.268a2.552 2.552 0 002.543-2.544V88.003a2.55 2.55 0 00-2.543-2.545zm-6.743 7.939v4.373a.911.911 0 01-.846.917.889.889 0 01-.862-.54.884.884 0 01-.072-.352v-4.4a2.027 2.027 0 01-1.089-2.283 2.027 2.027 0 011.979-1.575 2.03 2.03 0 011.833 2.906c-.197.415-.53.75-.943.951v.003zm3.435-7.939h-8.654v-3.052a4.326 4.326 0 018.651 0l.003 3.052z" fill="#000"/><path d="M135.635 85.233h-1.529v-2.97c0-3.352-2.673-6.138-6.024-6.189a6.123 6.123 0 00-6.189 6.106v3.053h-1.526a2.553 2.553 0 00-2.545 2.544V99.99a2.552 2.552 0 002.545 2.545h15.268a2.548 2.548 0 002.543-2.545V87.777a2.55 2.55 0 00-2.543-2.544zm-6.743 7.938v4.374a.91.91 0 01-.846.916.892.892 0 01-.934-.891v-4.4a2.027 2.027 0 01-1.089-2.283 2.03 2.03 0 112.869 2.282v.002zm3.435-7.938h-8.654V82.18a4.326 4.326 0 018.651 0l.003 3.053z" fill="#0E8AFD"/><path d="M248.991 220.763H7.009v.725H248.99v-.725z" fill="#8597A8"/><mask id="path-71-inside-1" fill="#fff"><path d="M127.5 111C66.27 111 16.463 160 15 221h.75c1.463-60.585 50.935-109.248 111.75-109.248 60.811 0 110.28 48.656 111.749 109.235H240C238.53 159.992 188.725 111 127.5 111z"/></mask><path d="M15 221l-2-.048-.049 2.048H15v-2zm.75 0v2h1.953l.047-1.952-2-.048zm223.499-.013l-1.999.048.047 1.952h1.952v-2zm.751 0v2h2.049l-.05-2.048-1.999.048zm-223 .061C18.435 161.127 67.362 113 127.5 113v-4C65.178 109 14.49 158.872 13 220.952l4 .096zm.75 0c1.437-59.506 50.027-107.296 109.75-107.296v-4c-61.907 0-112.26 49.536-113.749 111.2l4 .096zM15 223h.75v-4H15v4zm112.5-109.248c59.719 0 108.307 47.783 109.75 107.283l3.999-.097c-1.496-61.658-51.846-111.186-113.749-111.186v4zm0-.752c60.133 0 109.057 48.12 110.501 108.035l3.998-.096C240.504 158.865 189.817 109 127.5 109v4zm111.749 109.987H240v-4h-.751v4z" fill="#F5F9FE" mask="url(#path-71-inside-1)"/></svg>