<svg width="650" height="454" viewBox="0 0 650 454" fill="none" xmlns="http://www.w3.org/2000/svg"><path d="M259.224 57.978A153.253 153.253 0 0075.074 37.24c59.022 21.128 124.146 21.905 184.15 20.737z" fill="#fff"/><path d="M649.919 240.662v-.293a78.88 78.88 0 00-3.784-20.699c-.125-.379-.249-.764-.379-1.137a79.265 79.265 0 00-30.294-39.727 78.796 78.796 0 00-103.255 12.764 111.445 111.445 0 00-6.282-22.042 353.894 353.894 0 01-62.533 2.33 252.316 252.316 0 0039.646 14.399l-.485 1.802a254.675 254.675 0 01-44.319-16.592l-4.294-2.082 4.76.311a354.086 354.086 0 0066.492-1.908 112.123 112.123 0 00-19.587-31.12c-35.769-3.604-71.258-11.111-104.398-25.994l.764-1.697c32.258 14.498 66.827 21.949 101.726 25.615a111.71 111.71 0 00-93.489-34.882 111.712 111.712 0 00-84.068 53.755 153.423 153.423 0 00-38.055-86.315 358.34 358.34 0 01-58.892 17.84 356.163 356.163 0 01-92.056 7.327 252.355 252.355 0 0039.646 14.399l-.485 1.802a254.652 254.652 0 01-44.307-16.592l-4.294-2.082 4.76.31a353.717 353.717 0 00154.335-24.452 159.29 159.29 0 00-5.692-5.916c-61.16 1.243-127.769.622-188.071-21.333A153.82 153.82 0 000 169.491c0 28.871 7.936 68.573 21.75 108.406a460.698 460.698 0 0021.693 52.199c4.22 8.575 8.7 16.908 13.404 24.887a282.473 282.473 0 0018.699 27.964 206.598 206.598 0 003.697 4.723 170.6 170.6 0 0023.291 24.154 122.14 122.14 0 005.213 4.12 99.336 99.336 0 0014.914 9.321c9.116 4.568 18.525 7.246 28.15 7.631.771.031 1.548.05 2.318.05v.317H570.72v-.317h.311a21.132 21.132 0 007.059-1.243c14.765-5.238 28.361-26.273 39.665-52.858a359.366 359.366 0 007.165-18.4 448.513 448.513 0 005.704-17.045 525.443 525.443 0 0013.143-51.304c3.983-19.711 6.214-36.943 6.214-47.849.019-1.218.019-2.399-.062-3.585z" fill="#fff"/><path d="M601.307 401.111l-64.453-111.638a2.057 2.057 0 00-2.81-.756 2.063 2.063 0 00-.751.756L468.84 401.111a2.047 2.047 0 00-.023 2.074c.182.317.444.579.76.761.317.181.676.275 1.04.272h19.227a2.06 2.06 0 012.057 2.057V430.1a2.06 2.06 0 002.05 2.057h25.087a2.055 2.055 0 002.057-2.057v-11.515a2.051 2.051 0 012.05-2.051h23.85a2.057 2.057 0 012.057 2.051V430.1a2.057 2.057 0 002.057 2.057h25.08a2.057 2.057 0 002.057-2.057v-23.85a2.057 2.057 0 012.057-2.057h19.227a2.06 2.06 0 002.051-2.056c0-.36-.094-.714-.274-1.026zm-89.881 12.353a2.044 2.044 0 01-1.455.622h-9.029a2.057 2.057 0 010-4.114h9.048a2.054 2.054 0 011.9 1.27 2.06 2.06 0 01-.446 2.241l-.018-.019zm59.208 0a2.047 2.047 0 01-1.454.622h-9.023a2.057 2.057 0 010-4.114h9.06a2.054 2.054 0 011.9 1.27 2.053 2.053 0 01-.446 2.241l-.037-.019zM202.925 402.093l-64.453-111.638a2.062 2.062 0 00-1.781-1.026 2.055 2.055 0 00-1.78 1.026L79.238 386.88a170.008 170.008 0 0023.297 24.055h9.073a2.057 2.057 0 010 4.114h-3.828a99.605 99.605 0 0014.914 9.278v-4.754a2.058 2.058 0 012.057-2.057h23.85a2.056 2.056 0 012.05 2.057v11.509a2 2 0 00.193.863 2.06 2.06 0 001.864 1.194h25.087a2.011 2.011 0 001.634-.827c.276-.355.423-.793.416-1.243v-23.831a2.057 2.057 0 012.057-2.057h19.227a2.051 2.051 0 001.794-1.023 2.055 2.055 0 00.002-2.065zm-42.598 9.445a2.035 2.035 0 011.454-.621h9.048a2.056 2.056 0 110 4.113h-9.054a2.056 2.056 0 01-1.455-3.511l.007.019zm-40.485-41.312a2.056 2.056 0 01-2.057-2.056v-15.623a2.056 2.056 0 012.057-2.057h33.711a2.058 2.058 0 012.051 2.057v15.623a2.06 2.06 0 01-2.051 2.056h-33.711zM249.642 389.043a.83.83 0 01-.832.833h-31.22a.828.828 0 01-.839-.833v-10.645a.836.836 0 01.839-.839h31.22a.842.842 0 01.832.839v10.645zM323.659 389.037a.838.838 0 01-.518.771.84.84 0 01-.321.061H291.6a.839.839 0 01-.839-.832v-10.639a.846.846 0 01.839-.839h31.22a.839.839 0 01.839.839v10.639zM374.236 389.03a.843.843 0 01-.246.591.841.841 0 01-.272.181.84.84 0 01-.321.061h-31.22a.839.839 0 01-.839-.833v-10.632a.846.846 0 01.839-.839h31.22a.839.839 0 01.839.839v10.632zM448.253 389.024a.84.84 0 01-.839.833h-31.22a.823.823 0 01-.593-.242.819.819 0 01-.246-.591v-10.626a.836.836 0 01.839-.839h31.226a.846.846 0 01.839.839l-.006 10.626z" fill="#F5F9FE"/><path fill-rule="evenodd" clip-rule="evenodd" d="M377.933 201.55h79.759a.84.84 0 01.839.839v229.003a.849.849 0 01-.839.839h-50.546a.84.84 0 01-.839-.839v-30.809a.842.842 0 00-.245-.594.842.842 0 00-.594-.245h-21.351a.837.837 0 00-.833.839v30.809a.849.849 0 01-.839.839h-99.893a.837.837 0 01-.832-.839v-30.809a.849.849 0 00-.839-.839h-21.352a.84.84 0 00-.839.839v30.809a.839.839 0 01-.839.839h-50.546a.837.837 0 01-.832-.839v-229.01a.839.839 0 01.832-.839h76.055v-17.25a4.128 4.128 0 014.127-4.126h27.534v-18.369a2.599 2.599 0 012.598-2.598h30.17a2.598 2.598 0 012.597 2.598v18.375h23.421a4.127 4.127 0 014.126 4.126v17.251zM249.398 389.632a.83.83 0 00.244-.589v-10.645a.839.839 0 00-.832-.839h-31.22a.839.839 0 00-.839.839v10.645a.835.835 0 00.839.833h31.22c.22 0 .432-.088.588-.244zm.183-27.822a.84.84 0 00.061-.321v-38.21a.837.837 0 00-.832-.839h-31.22a.838.838 0 00-.839.839v38.21a.824.824 0 00.244.595.837.837 0 00.595.244h31.22a.82.82 0 00.591-.246.844.844 0 00.18-.272zm0-55.101a.84.84 0 00.061-.321v-38.21a.83.83 0 00-.832-.833h-31.22a.823.823 0 00-.593.242.819.819 0 00-.246.591V306.388a.824.824 0 00.244.596.835.835 0 00.595.243h31.22a.82.82 0 00.591-.246.844.844 0 00.18-.272zm-.183-54.826a.83.83 0 00.244-.589v-38.192a.84.84 0 00-.241-.593.84.84 0 00-.591-.246h-31.22a.824.824 0 00-.595.244.837.837 0 00-.244.595v38.192a.835.835 0 00.839.833h31.22c.22 0 .432-.088.588-.244zm74.197 137.474a.838.838 0 00.064-.32v-10.639a.836.836 0 00-.839-.839H291.6a.846.846 0 00-.839.839v10.639a.842.842 0 00.839.832h31.22a.84.84 0 00.593-.241.84.84 0 00.182-.271zm.002-27.552a.824.824 0 00.062-.322v-38.204a.839.839 0 00-.839-.839H291.6a.84.84 0 00-.839.839v38.204a.843.843 0 00.518.775.843.843 0 00.321.064h31.22a.824.824 0 00.595-.244.837.837 0 00.182-.273zm0-55.101a.824.824 0 00.062-.322v-38.204a.835.835 0 00-.839-.833H291.6a.84.84 0 00-.839.833v38.204a.84.84 0 00.839.839h31.22a.824.824 0 00.595-.244.837.837 0 00.182-.273zm-.002-55.096a.838.838 0 00.064-.32v-38.186a.824.824 0 00-.244-.595.837.837 0 00-.595-.244H291.6a.843.843 0 00-.775.518.84.84 0 00-.064.321v38.186a.842.842 0 00.839.832h31.22a.84.84 0 00.593-.241.84.84 0 00.182-.271zm50.577 137.743a.843.843 0 00.064-.321v-10.632a.836.836 0 00-.839-.839h-31.22a.846.846 0 00-.839.839v10.632a.842.842 0 00.839.833h31.22a.84.84 0 00.321-.061.841.841 0 00.454-.451zm.002-27.552a.828.828 0 00.062-.322v-38.198a.839.839 0 00-.839-.839h-31.22a.84.84 0 00-.839.839v38.198a.843.843 0 00.518.775.843.843 0 00.321.064h31.22a.824.824 0 00.595-.244.837.837 0 00.182-.273zm0-55.101a.828.828 0 00.062-.322l-.001-27.511a.433.433 0 00.001-.036v-10.651a.835.835 0 00-.839-.833h-31.22a.84.84 0 00-.839.833v9.643l-.001.037.001 28.518a.843.843 0 00.518.775.843.843 0 00.321.064h31.22a.824.824 0 00.595-.244.837.837 0 00.182-.273zm-.002-55.096a.843.843 0 00.064-.321V240.63a.838.838 0 00-.839-.839h-31.22a.846.846 0 00-.839.839v10.651a.842.842 0 00.839.833h31.22a.84.84 0 00.321-.061.841.841 0 00.454-.451zm.002-27.552a.828.828 0 00.062-.322v-10.626a.824.824 0 00-.244-.595.837.837 0 00-.595-.244h-31.22a.843.843 0 00-.775.518.84.84 0 00-.064.321v10.626a.843.843 0 00.518.775.843.843 0 00.321.064h31.22a.843.843 0 00.595-.244.837.837 0 00.182-.273zm73.831 165.563a.84.84 0 00.248-.589l.006-10.626a.846.846 0 00-.839-.839h-31.226a.839.839 0 00-.839.839v10.626a.835.835 0 00.839.833h31.22a.84.84 0 00.591-.244zm.002-27.549a.84.84 0 00.246-.593l.006-10.639a.69.69 0 00-.003-.065l-.001-.018-.002-.015.006-27.455a.849.849 0 00-.839-.839h-31.226a.838.838 0 00-.839.839v38.192a.828.828 0 00.517.776.847.847 0 00.322.063h31.22a.84.84 0 00.593-.246zm0-55.101a.84.84 0 00.246-.593l.006-10.62v-.016l-.001-.016a.435.435 0 00-.005-.068l.006-27.472a.84.84 0 00-.839-.833h-31.226a.823.823 0 00-.593.242.819.819 0 00-.246.591V306.37a.828.828 0 00.517.777.846.846 0 00.322.062h31.22a.84.84 0 00.593-.246zm.186-55.364a.855.855 0 00.06-.324l.006-10.645a.742.742 0 00-.006-.094l.006-27.434a.834.834 0 00-.246-.593.834.834 0 00-.593-.246h-31.226a.828.828 0 00-.777.517.824.824 0 00-.062.322v38.192a.835.835 0 00.839.833h31.226a.848.848 0 00.594-.253.848.848 0 00.179-.275z" fill="#F5F9FE"/><path d="M248.692 114.595l-9.644 6.115 5.853-10.645a9.534 9.534 0 00-5.835-2.082h-.155c-.67.01-1.34-.04-2.001-.149l-3.256 2.076 1.404-2.548a11.628 11.628 0 01-5.717-4.35l-5.853 3.728 3.684-6.736c-3.424-4.107-8.034-6.624-13.105-6.624-6.084 0-11.503 3.617-15.001 9.253a11.214 11.214 0 01-9.943 5.35h-.329c-6.718 0-12.161 7.612-12.161 17.008 0 9.396 5.443 17.008 12.161 17.008a9.078 9.078 0 004.238-1.062 17.533 17.533 0 0114.715-.286 15.35 15.35 0 0012.515 0 17.538 17.538 0 0114.591.28 9.107 9.107 0 004.189 1.037c6.717 0 12.161-7.618 12.161-17.008a21.61 21.61 0 00-2.511-10.365z" fill="#F5F9FE"/><path opacity=".1" d="M230.545 139.483a17.956 17.956 0 00-10.421 1.131 15.36 15.36 0 01-12.571-.031 17.537 17.537 0 00-14.716.292 9.161 9.161 0 01-4.238 1.057c-5.965 0-10.93-6.009-11.962-13.939a11.435 11.435 0 002.983-3.212c3.499-5.637 8.917-9.26 15.001-9.26s11.434 3.58 14.914 9.154a11.5 11.5 0 009.911 5.444h.156c4.797 0 8.911 3.809 10.943 9.364z" fill="#333"/><path d="M529.706 235.473l-6.748 4.281 4.095-7.457a6.676 6.676 0 00-4.083-1.454h-.105a7.989 7.989 0 01-1.399-.106l-2.293 1.448.982-1.777a8.198 8.198 0 01-4.002-3.039l-4.107 2.585 2.585-4.704c-2.393-2.877-5.593-4.642-9.172-4.642-4.257 0-8.079 2.536-10.502 6.482a7.842 7.842 0 01-6.941 3.728h-.205c-4.698 0-8.514 5.326-8.514 11.9 0 6.575 3.816 11.907 8.514 11.907a6.383 6.383 0 002.964-.74 12.252 12.252 0 0110.303-.199 10.783 10.783 0 008.762 0 12.288 12.288 0 015.126-1.013 12.29 12.29 0 015.084 1.212c.906.47 1.912.717 2.933.721 4.704 0 8.513-5.326 8.513-11.906a15.127 15.127 0 00-1.79-7.227z" fill="#F5F9FE"/><path opacity=".1" d="M517.015 252.872a12.62 12.62 0 00-7.295.79 10.736 10.736 0 01-8.762 0 12.277 12.277 0 00-10.303.205 6.395 6.395 0 01-2.964.739c-4.176 0-7.65-4.207-8.371-9.756a8.1 8.1 0 002.088-2.25c2.449-3.945 6.214-6.481 10.496-6.481s8.01 2.486 10.458 6.407a8.041 8.041 0 006.935 3.809h.112c3.294-.012 6.171 2.654 7.606 6.537z" fill="#333"/><path d="M135.557 195.702l6.749 4.263-4.102-7.457a6.693 6.693 0 014.083-1.454h.112c.468.006.936-.03 1.398-.105l2.287 1.448-.982-1.778a8.206 8.206 0 004.008-3.038l4.095 2.597-2.591-4.704c2.399-2.877 5.624-4.642 9.178-4.642 4.257 0 8.079 2.535 10.502 6.481a7.842 7.842 0 006.941 3.729h.224c4.704 0 8.514 5.325 8.514 11.9s-3.81 11.906-8.514 11.906a6.42 6.42 0 01-2.964-.739 12.253 12.253 0 00-10.303-.199 10.789 10.789 0 01-8.756 0 12.286 12.286 0 00-10.216.199 6.425 6.425 0 01-2.933.721c-4.698 0-8.513-5.326-8.513-11.907a15.129 15.129 0 011.783-7.221z" fill="#F5F9FE"/><path opacity=".1" d="M148.282 213.101a12.63 12.63 0 017.295.79 10.726 10.726 0 008.756 0 12.277 12.277 0 0110.303.205 6.407 6.407 0 002.964.739c4.176 0 7.656-4.207 8.377-9.756a8.043 8.043 0 01-2.088-2.25c-2.436-3.958-6.245-6.506-10.514-6.506-4.269 0-8.004 2.486-10.452 6.407a8.082 8.082 0 01-6.948 3.822h-.106c-3.305 0-6.189 2.666-7.587 6.549z" fill="#333"/><path d="M135.891 435.028c8.414 5.344 20.537-.062 29.007 5.201 2.188 1.355 3.952 3.349 6.214 4.58 2.716 1.485 5.91 1.752 8.999 1.864 25.863 1.001 52.161-6.214 77.378-.385 7.053 1.628 13.951 4.275 21.178 4.66 12.484.678 24.446-5.412 36.943-5.748 18.953-.509 37.577 12.174 55.865 7.171 6.015-1.646 11.534-5.157 17.742-5.748 6.916-.621 13.565 2.393 20.289 4.151 23.843 6.215 48.675-3.852 73.327-4.604 16.076-.491 31.996 3.014 48.06 3.821 11.422.572 22.868-.229 34.277-1.025 4.35-.304 8.905-.677 12.547-3.063 3.641-2.387 5.878-7.513 3.629-11.242l-445.455.367z" fill="#3F3D56"/><path d="M135.891 435.028c8.414 5.344 20.537-.062 29.007 5.201 2.188 1.355 3.952 3.349 6.214 4.58 2.716 1.485 5.91 1.752 8.999 1.864 25.863 1.001 52.161-6.214 77.378-.385 7.053 1.628 13.951 4.275 21.178 4.66 12.484.678 24.446-5.412 36.943-5.748 18.953-.509 37.577 12.174 55.865 7.171 6.015-1.646 11.534-5.157 17.742-5.748 6.916-.621 13.565 2.393 20.289 4.151 23.843 6.215 48.675-3.852 73.327-4.604 16.076-.491 31.996 3.014 48.06 3.821 11.422.572 22.868-.229 34.277-1.025 4.35-.304 8.905-.677 12.547-3.063 3.641-2.387 5.878-7.513 3.629-11.242l-445.455.367z" fill="#465C72"/><path d="M135.891 431.92c8.414 5.345 20.537-.062 29.007 5.202 2.188 1.354 3.952 3.349 6.214 4.579 2.716 1.486 5.91 1.753 8.999 1.865 25.863 1 52.161-6.214 77.378-.386 7.053 1.629 13.951 4.276 21.178 4.661 12.484.677 24.446-5.413 36.943-5.748 18.953-.51 37.577 12.173 55.865 7.171 6.015-1.647 11.534-5.158 17.742-5.748 6.916-.621 13.565 2.392 20.289 4.151 23.843 6.214 48.675-3.853 73.327-4.605 16.076-.491 31.996 3.014 48.06 3.822 11.422.572 22.868-.23 34.277-1.025 4.35-.305 8.905-.678 12.547-3.064 3.641-2.386 5.878-7.513 3.629-11.241l-445.455.366z" fill="#8597A8"/><g opacity=".4"><path d="M76.03 355.362a15.19 15.19 0 01-2.007 7.693 15.751 15.751 0 010 15.387 14.128 14.128 0 011.516 3.728 282.163 282.163 0 01-18.698-27.964c.136-2.31.809-4.556 1.963-6.562a15.192 15.192 0 01-2.007-7.693 15.821 15.821 0 01.908-5.35c.29-.815.657-1.6 1.1-2.343 1.752-2.976 4.511-4.897 7.606-4.897 3.094 0 5.86 1.921 7.612 4.897.426.722.786 1.481 1.075 2.268.623 1.741.939 3.576.932 5.425a15.19 15.19 0 01-2.007 7.693 15.194 15.194 0 012.007 7.718z" fill="#F5F9FE"/><path opacity=".1" d="M66.41 337.186c5.31 0 9.614-5.637 9.614-12.59s-4.304-12.59-9.614-12.59c-5.309 0-9.613 5.637-9.613 12.59s4.304 12.59 9.613 12.59z" fill="#3F3D56"/><path opacity=".1" d="M66.41 321.8c5.31 0 9.614-5.637 9.614-12.59s-4.304-12.59-9.614-12.59c-5.309 0-9.613 5.637-9.613 12.59s4.304 12.59 9.613 12.59z" fill="#3F3D56"/><path d="M112.271 232.365a45.847 45.847 0 01-9.862 28.48 46.066 46.066 0 01-27.342 73.681 42.25 42.25 0 01-3.368.534c-3.508.42-7.052.439-10.564.056a41.565 41.565 0 01-3.462-.515 45.55 45.55 0 01-14.292-5.227 458.909 458.909 0 01-21.632-52.068 45.85 45.85 0 018.259-16.436 46.11 46.11 0 01-7.457-43.257l34.973 11.738-32.798-17.039a46.243 46.243 0 015.25-8.401 46.068 46.068 0 0110.364-66.623 46.074 46.074 0 0136.14-6.762 46.062 46.062 0 0129.577 21.838l-33.812 24.857 36.664-19.015a46.12 46.12 0 01-.882 36.495l-27.343-.205 25.267 4.151a46.297 46.297 0 01-3.586 5.27 45.864 45.864 0 019.906 28.448z" fill="#F5F9FE"/><path d="M112.269 289.349a46.078 46.078 0 01-40.54 45.736c-3.509.42-7.053.438-10.565.056a41.16 41.16 0 01-3.461-.516 45.549 45.549 0 01-14.293-5.226 458.963 458.963 0 01-21.662-52.093 45.85 45.85 0 018.258-16.436 45.88 45.88 0 01-9.861-28.505c0-5.17 88.439 20.644 82.263 28.48a45.843 45.843 0 019.861 28.504z" fill="#F5F9FE"/></g><g opacity=".1"><path opacity=".1" d="M630.674 343.381a486.937 486.937 0 01-5.705 17.045 15.936 15.936 0 01-.82-5.102c0-5.549 2.734-10.259 6.525-11.943z" fill="#3F3D56"/><path opacity=".1" d="M650 244.228c0 10.906-2.2 28.138-6.214 47.849a525.583 525.583 0 01-13.143 51.304 489.796 489.796 0 01-5.705 17.046 341.58 341.58 0 01-7.165 18.4 46.25 46.25 0 01-28.542-30.764 46.236 46.236 0 018.092-41.178 46.277 46.277 0 01-7.457-43.349l34.973 11.763-32.798-17.077a46.357 46.357 0 015.251-8.42 46.227 46.227 0 01-8.422-39.951 46.22 46.22 0 019.646-18.608 46.216 46.216 0 0116.871-12.437 79.253 79.253 0 0130.294 39.727l-6.059 4.511 6.5-3.374a78.874 78.874 0 013.785 20.699h-1.827l1.864.305c.056 1.174.056 2.355.056 3.554z" fill="#6C63FF"/><path opacity=".1" d="M643.819 292.077a525.729 525.729 0 01-13.143 51.304 489.034 489.034 0 01-5.705 17.045 341.764 341.764 0 01-7.165 18.4 46.237 46.237 0 01-29.437-52.323 46.246 46.246 0 018.986-19.618 46.047 46.047 0 01-9.855-28.535c0-3.107 32.139 5.033 56.319 13.727z" fill="#333"/></g><path d="M207.592 414.975l11.894-6.997a28.665 28.665 0 00-6.084-7.277l-22.439 6.978 17.586-10.334a28.58 28.58 0 00-28.305.478 28.587 28.587 0 00-14.014 24.596c0 15.784 12.795 16.331 28.586 16.331 15.79 0 28.585-.547 28.585-16.331a28.468 28.468 0 00-2.455-11.602l-13.354 4.158z" fill="#465C72"/><path opacity=".1" d="M210.617 430.318a22.194 22.194 0 00-4.213-3.306c-2.162-1.436-4.393-2.902-6.941-3.387-2.237-.429-4.543-.068-6.836-.199a15.944 15.944 0 01-10.446-4.785c-1.622-1.678-2.902-3.728-4.853-5.027-2.107-1.38-4.779-1.678-7.277-1.336a18.09 18.09 0 00-2.15.441 28.488 28.488 0 00-1.69 9.7c0 15.784 12.795 16.331 28.585 16.331 7.662 0 14.616-.13 19.749-2.063l-.858-1.603a22.597 22.597 0 00-3.07-4.766z" fill="#333"/><path d="M340.125 137.656c12.269 0 22.216-9.946 22.216-22.216 0-12.269-9.947-22.215-22.216-22.215-12.269 0-22.216 9.946-22.216 22.215 0 12.27 9.947 22.216 22.216 22.216zM327.238 288.255c2.293 16.089-.503 32.494-4.859 48.147-.814 2.915-1.69 5.854-3.213 8.47-1.522 2.616-3.641 4.866-5.431 7.327-3.728 5.133-5.916 11.185-7.96 17.176a484.3 484.3 0 00-14.181 50.533 3.455 3.455 0 000 2.156c.541 1.243 2.181 1.405 3.53 1.399l17.437-.094c.621-1.193-.529-2.485-1.243-3.629-2.486-3.865-.1-8.886 2.094-12.931a139.095 139.095 0 0012.292-31.071c1.193-4.555 2.162-9.209 4.101-13.503 2.343-5.208 6.015-9.688 8.998-14.56 3.467-5.661 5.997-11.807 8.507-17.978 3.505-8.563 7.041-17.232 8.42-26.379 1.299-8.588.659-17.337-.186-25.981a1.637 1.637 0 00-.473-1.419 1.637 1.637 0 00-1.429-.445l-23.396-1.206c-4.822-.248-5.965-1.305-5.232 3.43.509 3.536 1.715 6.979 2.224 10.558z" fill="#25323F"/><path opacity=".1" d="M327.238 288.255c2.293 16.089-.503 32.494-4.859 48.147-.814 2.915-1.69 5.854-3.213 8.47-1.522 2.616-3.641 4.866-5.431 7.327-3.728 5.133-5.916 11.185-7.96 17.176a484.3 484.3 0 00-14.181 50.533 3.455 3.455 0 000 2.156c.541 1.243 2.181 1.405 3.53 1.399l17.437-.094c.621-1.193-.529-2.485-1.243-3.629-2.486-3.865-.1-8.886 2.094-12.931a139.095 139.095 0 0012.292-31.071c1.193-4.555 2.162-9.209 4.101-13.503 2.343-5.208 6.015-9.688 8.998-14.56 3.467-5.661 5.997-11.807 8.507-17.978 3.505-8.563 7.041-17.232 8.42-26.379 1.299-8.588.659-17.337-.186-25.981a1.637 1.637 0 00-.473-1.419 1.637 1.637 0 00-1.429-.445l-23.396-1.206c-4.822-.248-5.965-1.305-5.232 3.43.509 3.536 1.715 6.979 2.224 10.558z" fill="#333"/><path d="M331.835 249.144c-4.753 6.835-9.737 14.703-8.159 22.887 1.2 6.214 5.935 11.03 10.403 15.535 17.859 17.934 35.42 37.857 41.498 62.433 1.566 6.351 2.324 12.87 3.672 19.264 2.449 11.621 6.836 22.732 11.186 33.774l11.658 29.424a17.623 17.623 0 0016.84-11.185c-1.529-.118-3.524-1.597-4.418-2.84-4.972-6.879-5.991-15.728-7.265-24.117-1.41-9.272-3.293-18.469-5.182-27.659l-8.352-40.666c-.963-4.691-1.926-9.389-3.182-14.013-4.859-17.909-14.069-34.799-15.492-53.317-.211-2.722-.341-5.711-2.187-7.73-1.939-2.132-5.12-2.486-7.998-2.654-11.639-.746-21.681-1.883-33.022.864z" fill="#25323F"/><path d="M300.435 419.492a18.5 18.5 0 00-3.865-.497 8.032 8.032 0 00-6.313 3.449 15.67 15.67 0 00-1.697 3.728l-1.684 4.835c-.497 1.416-.982 3.051-.242 4.35a4.616 4.616 0 002.262 1.746c4.076 1.814 8.7 1.914 13.112 2.349 4.312.422 8.588 1.18 12.844 1.976 1.467.279 2.927.559 4.412.708 3.319.336 6.662 0 9.98-.298l3.424-.329c1.146-.05 2.28-.259 3.368-.622a4.239 4.239 0 002.486-2.231c.845-2.094-.969-4.573-3.188-5.008-.901-.174-1.864-.094-2.747-.212a12.944 12.944 0 01-3.007-.901c-4.35-1.721-8.806-3.461-12.658-6.17-1.069-.752-2.188-1.802-2.07-3.107a6.327 6.327 0 01.553-1.61 5.877 5.877 0 00.05-4.157c-.211-.572-.621-1.175-1.199-1.243-1.641-.199-1.442 2.194-1.684 3.107-.33 1.243-.926 1.355-2.094 1.243-3.356-.305-6.712-.472-10.043-1.106zM398.538 436.19c.03 2.428.865 4.778 2.374 6.68a5.177 5.177 0 001.69 1.361 6.782 6.782 0 003.107.491 24.897 24.897 0 008.632-1.746 24.626 24.626 0 012.982-1.125 33.594 33.594 0 013.878-.559c5.139-.74 9.651-3.772 14.616-5.307a30.82 30.82 0 004.35-1.429c1.963-.926 3.554-2.486 5.114-3.996a12.254 12.254 0 002.349-2.815c.913-1.696.969-3.728 1.007-5.649.033-.3-.019-.603-.15-.876a1.3 1.3 0 00-.559-.441c-1.51-.746-3.3-.373-4.971-.081-6.04 1.075-12.223.876-18.357.678a2.666 2.666 0 01-2.821-1.61l-2.33-3.728c-.665-1.069-1.722-2.293-2.927-1.927-.963.292-1.355 1.473-1.318 2.486.038 1.013.348 2.02.156 3.008a4.126 4.126 0 01-1.989 2.585c-.979.532-2.023.933-3.107 1.193-3.43.969-7.42 2.069-10.073 4.592-1.951 1.79-1.771 5.798-1.653 8.215z" fill="#fff"/><path d="M397.331 189.649a14.39 14.39 0 003.393-3.691 15.047 15.047 0 001.448-5.102l.976-6.164c.54-3.399 1.174-6.997 3.442-9.589 2.269-2.591 6.786-3.517 9.092-.957 1.006 1.113 1.404 2.641 1.653 4.127a30.039 30.039 0 01-7.345 24.856c-2.791 3.058-6.215 5.487-9.166 8.377-2.573 2.486-4.804 5.338-7.178 8.041a99.041 99.041 0 01-19.556 17.089c.087-4.623.678-9.582 0-14.175-.503-3.318-1.864-5.108 1.349-7.276 7.457-5.071 14.982-9.657 21.892-15.536zM334.67 144.174c-.242 3.306-1.615 6.687-4.35 8.594a340.452 340.452 0 0122.912 8.961c-1.454-1.398-1.895-3.542-1.964-5.555-.192-5.264 1.628-10.44 4.288-14.976a3.64 3.64 0 00.702-1.977c-.087-1.466-1.827-2.143-3.256-2.485a80.025 80.025 0 00-14.864-2.156c-2.144-.069-4.686-.746-4.201 1.982.46 2.548.926 5.033.733 7.612z" fill="#FBBEBE"/><path d="M349.645 145.945c10.032 0 18.164-8.132 18.164-18.164 0-10.032-8.132-18.164-18.164-18.164-10.032 0-18.164 8.132-18.164 18.164 0 10.032 8.132 18.164 18.164 18.164z" fill="#FBBEBE"/><path d="M367.629 176.842a21.942 21.942 0 00-2.306-3.865c-3.293-4.729-6.674-9.452-10.899-13.367a67.893 67.893 0 00-10.347-7.6 23.506 23.506 0 00-6.475-3.107 25.322 25.322 0 00-4.157-.565l-4.717-.386a3.871 3.871 0 00-1.243.038c-1.28.323-1.864 1.914-1.59 3.2.273 1.286 1.242 2.33 2.1 3.306.211 9.626-4.07 19.121-4.648 28.734-1.013 16.809 9.247 32.444 10.067 49.266.084.76.004 1.529-.236 2.256-.137.348-.342.665-.497 1.006-.485 1.057-.467 2.256-.554 3.418a17.355 17.355 0 01-5.114 10.949 7.597 7.597 0 002.884 2.2c1.982.864 4.349.939 6.456 1.541 5.493 1.604 11.123 3.219 16.834 2.878a14.846 14.846 0 001.299-4.891c.808-.503 1.74.572 1.864 1.516.124.945-.056 2.045.622 2.728.677.684 1.535.578 2.361.473 3.486-.442 6.836-1.616 10.253-2.405 3.418-.79 7.072-1.169 10.397-.038.671-.851.385-2.112-.162-3.045-.547-.932-1.324-1.752-1.634-2.79a6.223 6.223 0 01-.199-1.833c0-5.313 1.094-10.682.056-15.896-.305-1.528-.789-3.02-1.1-4.555-.622-2.976-.528-6.046-.448-9.085.081-3.038-.285-6.326-.348-9.408a29.759 29.759 0 00-.248-3.809c-.211-1.324-.622-2.616-.733-3.952-.336-3.393 1.031-6.761.826-10.167-.342-5.17-6.351-7.979-8.364-12.745z" fill="#FF6584"/><path d="M326.634 174.406c-4.399 11.671-6.549 24.049-8.699 36.341l-4.972 28.871c-1.41 8.159-2.827 16.368-2.771 24.645 0 2.324.149 4.692-.46 6.935-.796 2.945-2.772 5.4-4.269 8.078a26.588 26.588 0 00-2.859 17.978c.51 2.579 1.902 5.506 4.518 5.804 2.15.236 4.008-1.473 5.263-3.238 2.884-4.045 4.313-8.929 5.593-13.739a310.77 310.77 0 008.619-47.905c.154-2.047.442-4.081.864-6.09a43.306 43.306 0 012.1-6.065c1.902-4.714 3.805-9.429 5.711-14.143 4.393-10.894 8.812-21.837 14.846-31.916-5.966-1.715-12.174-3.729-18.139-5.425-1.722-.51-3.567-.205-5.345-.131z" fill="#FBBEBE"/><path d="M336.974 183.274c-4.176-.901-8.494-.622-12.757-.727a2.752 2.752 0 01-1.715-.448c-.864-.739-.497-2.125-.063-3.175l2.064-4.971a7.215 7.215 0 011.653-2.747c1.05-.932 2.529-1.162 3.921-1.33 4.53-.522 9.19-.696 13.584.528 4.393 1.225 8.526 4.008 10.489 8.128.821 1.716 1.2 3.878.112 5.438-1.616 2.318-5.238 4.909-7.942 3.641-3.237-1.535-5.717-3.567-9.346-4.337z" fill="#FF6584"/><path d="M359.177 99.57a18.35 18.35 0 00-10.129 2.92 22.216 22.216 0 00-21.811-5.108 12.695 12.695 0 10-14.666 14.69 22.216 22.216 0 0042.642 12.485c1.311.268 2.645.403 3.983.404 8.762 0 15.871-5.686 15.871-12.696s-7.14-12.695-15.89-12.695z" fill="#25323F"/><path opacity=".1" d="M362.341 118.61a19.396 19.396 0 01-3.984-.404 22.094 22.094 0 01-2.908 6.394c1.229.237 2.477.358 3.729.361 8.19 0 14.914-4.972 15.777-11.335-2.914 3.032-7.481 4.984-12.614 4.984zM336.948 134.481a22.247 22.247 0 01-21.24-28.759 12.7 12.7 0 01-10.29-14.778 12.7 12.7 0 00-2.714 12.679 12.698 12.698 0 009.835 8.449 22.216 22.216 0 0042.436 13.162 22.16 22.16 0 01-18.027 9.247z" fill="#333"/><path d="M417.99 171.936a.211.211 0 00-.047-.293.21.21 0 00-.292.051l-1.754 2.459a.21.21 0 00.046.293.21.21 0 00.292-.051l1.755-2.459zM408.171 161.496a.12.12 0 00-.028-.165.119.119 0 00-.165.028l-.519.728a.118.118 0 00.027.165.119.119 0 00.165-.028l.52-.728zM406.961 163.212a.131.131 0 00-.213-.152l-.992 1.391a.13.13 0 00.212.152l.993-1.391zM405.42 165.37a.125.125 0 00-.029-.174.123.123 0 00-.173.029l-1.011 1.417a.124.124 0 10.202.144l1.011-1.416z" fill="#3A3768"/><path d="M421.003 166.659l-8.822-6.295a1.565 1.565 0 00-2.184.365l-14.673 20.562a1.567 1.567 0 00.365 2.185l8.822 6.294a1.566 1.566 0 002.185-.365l14.672-20.562a1.566 1.566 0 00-.365-2.184z" fill="#25323F"/><path opacity=".1" d="M421.003 166.659l-8.822-6.295a1.565 1.565 0 00-2.184.365l-14.673 20.562a1.567 1.567 0 00.365 2.185l8.822 6.294a1.566 1.566 0 002.185-.365l14.672-20.562a1.566 1.566 0 00-.365-2.184z" fill="#333"/><path d="M420.425 165.5l-8.822-6.295a1.566 1.566 0 00-2.184.366l-14.673 20.562a1.566 1.566 0 00.365 2.184l8.822 6.295a1.565 1.565 0 002.184-.365l14.673-20.562a1.567 1.567 0 00-.365-2.185z" fill="#25323F"/><path d="M419.629 165.874l-1.299-.932-.112.156a.908.908 0 01-1.243.217l-4.151-2.964a.913.913 0 01-.211-1.274l.112-.155-1.243-.87a1.086 1.086 0 00-.394-.18 1.127 1.127 0 00-.433-.015 1.12 1.12 0 00-.72.449l-14.343 20.103a1.113 1.113 0 00.255 1.548l8.166 5.822a1.1 1.1 0 001.547-.261l14.342-20.096a1.124 1.124 0 00.186-.831 1.121 1.121 0 00-.459-.717z" fill="#0E8AFD"/><path d="M415.848 163.283l-1.265-.902a.198.198 0 00-.277.046.2.2 0 00.046.278l1.265.902a.199.199 0 10.231-.324zM416.286 164.104c.123 0 .223-.1.223-.224a.223.223 0 10-.447 0c0 .124.1.224.224.224z" fill="#E6E8EC"/><path d="M416.35 8.656a41.635 41.635 0 00-41.635 41.635c0 22.992 43.623 99.141 43.623 99.141s39.646-76.117 39.646-99.141A41.634 41.634 0 00416.35 8.656zm0 69.4a21.812 21.812 0 1121.811-21.812 21.787 21.787 0 01-6.38 15.437 21.806 21.806 0 01-15.431 6.394v-.02z" fill="#0E8AFD"/><path opacity=".1" d="M416.35 8.656a41.635 41.635 0 00-41.635 41.635c0 22.992 43.623 99.141 43.623 99.141s39.646-76.117 39.646-99.141A41.634 41.634 0 00416.35 8.656zm0 69.4a21.812 21.812 0 1121.811-21.812 21.787 21.787 0 01-6.38 15.437 21.806 21.806 0 01-15.431 6.394v-.02z" fill="#333"/><path d="M416.35 0a41.635 41.635 0 00-41.635 41.635c0 22.992 43.623 107.815 43.623 107.815s39.646-84.81 39.646-107.809a41.63 41.63 0 00-25.7-38.471A41.634 41.634 0 00416.35 0zm0 69.4a21.812 21.812 0 110-43.624 21.812 21.812 0 010 43.624z" fill="#0E8AFD"/></svg>