<svg width="256" height="289" viewBox="0 0 256 289" fill="none" xmlns="http://www.w3.org/2000/svg"><g clip-path="url(#clip0)"><path d="M217.727 135.62a100.62 100.62 0 01-97.368 100.642 96.71 96.71 0 01-3.326.054 100.282 100.282 0 01-65.545-24.252 101.104 101.104 0 01-20.656-24.367 100.075 100.075 0 01-11.826-28.96v-46.234A100.12 100.12 0 0131.197 82.95a15.808 15.808 0 0020.26-23.746A100.8 100.8 0 01158.558 43.86c1.017.46 2.025.937 3.024 1.431 33.266 16.44 56.145 50.712 56.145 90.329z" fill="#EEF7FF"/><path d="M40.278 81.228a9.486 9.486 0 100-18.971 9.486 9.486 0 000 18.971z" fill="#EEF7FF"/><path d="M236.994 253.411l-185.506-.287v-95.1c.107-.015.224-.029.354-.046 1.638-.21 5.1-.615 9.974-.986 11.507-.874 30.881-1.555 52.73.986 3.332.388 6.715.853 10.15 1.397 2.854.457 5.733.975 8.635 1.555 1.262.253 2.527.519 3.794.799 2.763.606 5.532 1.278 8.308 2.015a165.728 165.728 0 0127.276 9.745c3.674 1.71 7.29 3.575 10.82 5.619a120.528 120.528 0 0114.818 10.075c18.08 14.422 32.407 35.216 38.647 64.228z" fill="#F5F9FE"/><path d="M204.512 253.411H19.006v-95.1l.354-.046a205.056 205.056 0 019.975-.986c2.888-.218 6.275-.425 10.075-.575 7.06-.273 15.542-.339 24.893.112a264.77 264.77 0 0117.761 1.449c3.332.388 6.715.854 10.15 1.397 2.855.457 5.733.976 8.635 1.555 1.262.253 2.527.52 3.795.799a199.55 199.55 0 018.307 2.015 171.716 171.716 0 0120.627 6.853c2.237.909 4.453 1.872 6.649 2.892a140.06 140.06 0 013.705 1.791 134.408 134.408 0 017.115 3.829 121.53 121.53 0 0110.535 6.824c.259.181.517.37.776.56a118.963 118.963 0 014.685 3.645c1.964 1.61 3.88 3.295 5.749 5.056a104.674 104.674 0 0112.525 14.146c8.704 11.837 15.413 26.238 19.184 43.732.003.018.009.035.011.052z" fill="#fff"/><path d="M107.314 195.7c.785-1.736-4.913-6.005-12.726-9.534-7.812-3.529-14.781-4.982-15.566-3.246-.784 1.736 4.914 6.004 12.726 9.533 7.813 3.529 14.782 4.983 15.566 3.247zM135.772 202.886c.785-1.736-4.913-6.004-12.726-9.533-7.812-3.53-14.781-4.983-15.566-3.247-.784 1.736 4.914 6.004 12.726 9.534 7.813 3.529 14.782 4.982 15.566 3.246z" fill="#EEF7FF"/><path fill-rule="evenodd" clip-rule="evenodd" d="M39.772 138.567v21.389h-.727v-21.389h.727z" fill="#BBCFE2"/><path d="M39.408 141.592a3.025 3.025 0 100-6.05 3.025 3.025 0 000 6.05z" fill="#FBBEBE"/><path d="M39.408 151.75s-.432-9.294-9.29-8.214l9.29 8.214z" fill="#BBCFE2"/><path d="M87.716 74.941l2.163.199 7.36.678 11.88 1.092 1.184-12.847a9.23 9.23 0 00-4.892-9.02 9.229 9.229 0 00-3.456-1.02 12.251 12.251 0 00-12.401 7.388l-.002.005c-.501 1.174-.815 2.42-.932 3.691l-.904 9.834z" fill="#25323F"/><path d="M96.761 69.3s.863 7.186 0 7.473c-.862.288-3.736 1.437-3.736 1.437l5.174 5.462 7.473.287 1.725-5.461-1.725-1.438-.574-7.186-8.337-.575z" fill="#FFB8B8"/><path d="M96.761 69.3s.863 7.186 0 7.473c-.862.288-3.736 1.437-3.736 1.437l5.174 5.462 7.473.287 1.725-5.461-1.725-1.438-.574-7.186-8.337-.575z" fill="#F3AEAE"/><path d="M85.551 82.522l-2.3 19.834-3.162 20.122s-2.587 9.773 2.3 9.485c4.887-.287 1.437-10.06 1.437-10.06l4.6-16.96 2.012-17.247-4.887-5.174zM116.308 82.81l2.013 20.408 11.785 11.211s7.761 4.024 6.324 6.611c-1.437 2.587-9.486-4.311-9.486-4.311l-14.085-10.061-.862-12.648.862-12.648 3.449 1.438z" fill="#FBBEBE"/><path d="M86.414 179.393s-4.025 6.899-2.013 7.761c2.013.862 7.762 3.449 7.762 3.449s8.911 1.725 8.623-.862c-.287-2.587-3.737-2.587-3.737-2.587s-4.868-4.887-4.733-6.611c.134-1.725-5.902-1.15-5.902-1.15z" fill="#2F2E41"/><path opacity=".1" d="M86.414 179.393s-4.025 6.899-2.013 7.761c2.013.862 7.762 3.449 7.762 3.449s8.911 1.725 8.623-.862c-.287-2.587-3.737-2.587-3.737-2.587s-4.868-4.887-4.733-6.611c.134-1.725-5.902-1.15-5.902-1.15z" fill="#25323F"/><path d="M111.709 123.052l.863 4.6-6.324 25.583-3.737 4.024-9.773 23.284H85.55s4.6-18.11 8.049-23.571c3.45-5.462 9.198-33.345 9.198-33.345l8.911-.575z" fill="#38495B"/><path d="M99.78 143.03l5.174.863 1.294 9.342-3.737 4.024-9.773 23.284H85.55s4.6-18.11 8.049-23.571c3.45-5.462 9.198-33.345 9.198-33.345L99.78 143.03z" fill="#38495B"/><path d="M91.013 115.291s-4.6 8.624 2.874 19.259c7.474 10.636 10.636 21.272 10.636 21.272s-.575 19.259 5.462 27.02l2.299 5.174 6.899-4.024s-7.761-11.786-6.037-26.158c0 0 1.725-4.599 0-8.336-1.724-3.737-6.323-21.559-6.323-21.559l5.749-.287s1.724-10.923-1.15-12.361c-2.875-1.437-20.41 0-20.41 0z" fill="#38495B"/><path d="M117.171 183.13s6.324 5.461 10.06 6.036c3.737.575 3.737 3.162-.575 3.737 0 0-8.623 3.449-14.085.862v-7.186l4.6-3.449z" fill="#25323F"/><path d="M101.505 72.318a6.899 6.899 0 100-13.798 6.899 6.899 0 000 13.798z" fill="#FBBEBE"/><path d="M95.9 78.498l1.005-1.869s-13.653 4.743-12.216 7.043c1.437 2.3 5.461 5.749 5.461 5.749v4.599s4.312 13.223 0 20.696c-4.311 7.474 23.571 5.175 22.709 0-.862-5.174-2.012-10.635-.862-13.222 1.149-2.587 3.162-5.462 1.437-12.36l4.312-4.6s-1.438-4.599-5.174-5.461c-3.737-.863-6.756-1.869-6.756-1.869s1.869 3.593-1.293 3.88c-3.162.288-8.624-2.586-8.624-2.586z" fill="#0E8AFD"/><path d="M89.879 75.14a5.28 5.28 0 009.284-2.927c-5.813-3.293-3.916-7.723 1.162-12.626a5.272 5.272 0 00-2.814-5.161 12.294 12.294 0 00-7.957 6.985l-.002.005-.907 9.828a5.255 5.255 0 001.234 3.896z" fill="#25323F"/><path d="M97.972 61.938l10.584.243.099-4.282a9.242 9.242 0 00-3.237-2.851l-7.285-.166-.161 7.056z" fill="#25323F"/><path d="M102.237 253.285h-83.23v-49.322c3.096.326 5.439-2.948 8.259-4.46 2.206-1.183 4.818-1.281 7.323-1.295 4.038-.021 8.15.119 11.973 1.414 1.227.413 2.405.96 3.512 1.631 2.369 1.438 4.355 3.457 5.41 5.991.638 1.528 1.097 3.402 2.622 4.057.85.367 1.822.236 2.74.1 3.22-.481 6.441-.961 9.663-1.44 2.382-.358 5.002-.667 7.036.621 3.138 1.986 3.14 6.488 2.612 10.157-.53 3.669-1.012 7.998 1.71 10.522 3.3 3.062 8.608 1.15 13.069 1.79a11.2 11.2 0 015.618 2.63 11.156 11.156 0 013.348 5.211c1.151 4.088-.163 8.374-1.665 12.393z" fill="#F5F9FE"/><path fill-rule="evenodd" clip-rule="evenodd" d="M47.71 183.868l-1.089 69.417-.85-.013 1.087-69.417.852.013z" fill="#465C72"/><path d="M47.128 188.897a4.849 4.849 0 100-9.698 4.849 4.849 0 000 9.698z" fill="#FF6584"/><path d="M46.934 203.636s-.462-14.986-14.74-13.467l14.74 13.467z" fill="#465C72"/><path fill-rule="evenodd" clip-rule="evenodd" d="M46.645 252.121l-.422-.052-.373-.046-.047-.006v-.004l.002-.015.007-.059.025-.234c.021-.206.05-.51.081-.897a54.7 54.7 0 00.156-3.227c.053-2.682-.063-6.266-.733-9.896-.67-3.634-1.89-7.281-4.023-10.114-2.123-2.819-5.158-4.844-9.511-5.247l.078-.845c4.611.427 7.856 2.588 10.11 5.581 2.244 2.98 3.498 6.771 4.18 10.471.684 3.705.8 7.351.748 10.066a55.568 55.568 0 01-.159 3.278 38.196 38.196 0 01-.11 1.161l-.007.063-.002.017v.005z" fill="#465C72"/><path d="M31.806 226.909c2.571 0 4.655-2.171 4.655-4.848 0-2.678-2.084-4.849-4.654-4.849-2.571 0-4.655 2.171-4.655 4.849 0 2.677 2.084 4.848 4.654 4.848z" fill="#FF6584"/><path fill-rule="evenodd" clip-rule="evenodd" d="M67.655 231.988v21.39h-.727v-21.39h.727z" fill="#465C72"/><path d="M67.291 235.013a3.025 3.025 0 100-6.05 3.025 3.025 0 000 6.05z" fill="#FF6584"/><path d="M67.29 245.171s-.431-9.294-9.29-8.214l9.29 8.214z" fill="#465C72"/><path d="M188.612 117.162h-3.91v78.652h3.91v-78.652z" fill="#568DC4"/><path d="M207.094 134.806h-47.161v-14.411h47.161l10.633 7.206-10.633 7.205z" fill="#465C72"/><path opacity=".1" d="M207.094 133.677h-47.161v1.129h47.161l10.633-7.001-.858-.565-9.775 6.437z" fill="#000"/></g><defs><clipPath id="clip0"><path fill="#fff" d="M0 0h256v288.722H0z"/></clipPath></defs></svg>