<svg width="724" height="473" viewBox="0 0 724 473" fill="none" xmlns="http://www.w3.org/2000/svg"><path d="M79.136 195.202c22.157 0 40.119-17.982 40.119-40.163 0-22.181-17.962-40.163-40.118-40.163-22.157 0-40.119 17.982-40.119 40.163 0 22.181 17.962 40.163 40.118 40.163z" fill="#FF6584"/><path d="M151.527 77.22c0-3.761-5.43-6.81-12.129-6.81-.133 0-.264.003-.396.005-2.021-6.118-11.574-10.75-23.055-10.75-9.769 0-18.142 3.353-21.667 8.122a31.088 31.088 0 00-7.984-1.01c-10.272 0-18.599 4.676-18.599 10.443 0 5.239 6.872 9.576 15.83 10.327 6.51 1.175 16.679 1.932 28.107 1.932 19.402 0 33.599-3.655 33.955-6.403 3.555-1.187 5.938-3.365 5.938-5.856zM442.727 80.533c0-3.762-5.43-6.81-12.13-6.81-.132 0-.263.002-.395.005-2.021-6.118-11.574-10.751-23.055-10.751-9.769 0-18.142 3.354-21.667 8.123a31.084 31.084 0 00-7.984-1.01c-10.272 0-18.599 4.675-18.599 10.443 0 5.239 6.872 9.576 15.83 10.326 6.51 1.176 16.678 1.933 28.107 1.933 19.402 0 33.599-3.656 33.955-6.403 3.555-1.188 5.938-3.365 5.938-5.856zM604.873 31.245c0-6.687-9.504-12.107-21.227-12.107-.233 0-.462.005-.692.01C579.417 8.27 562.699.035 542.606.035c-17.095 0-31.747 5.963-37.917 14.44a53.59 53.59 0 00-13.971-1.795c-17.976 0-32.548 8.312-32.548 18.565 0 9.314 12.025 17.024 27.702 18.36 11.393 2.089 29.188 3.434 49.187 3.434 33.954 0 58.798-6.498 59.421-11.383 6.222-2.11 10.393-5.982 10.393-10.41z" fill="#EEF7FF"/><mask id="path-5-inside-1" fill="#fff"><path fill-rule="evenodd" clip-rule="evenodd" d="M724 387.861l-97.998-56.933-1.327-.77h-67.011v-63.73l110.3-47.054-40.517-137.625-117.127 31.996v-19.04l-50.951 14.263v18.698l-143.815 39.29h-26.192v-20.091l-50.951 1.267v18.824h-9.269v-19.948h-59.858l-21.539 19.948h-8.073v-.24H63.616v.24h-5.711v163.202h-4.73L.412 399.297H724v-11.436zm-264.712 0H701.248l-79.647-46.272H307.156v6.9h4.001v7.034h-4.001v5.685h4.001v7.038h-4.001v5.681h4.001v7.039h-4.001v6.895h152.132zM248.32 341.589H58.82l-35.31 46.272h224.81v-6.895h-5.004v-7.039h5.004v-5.681h-5.004v-7.038h5.004v-5.685h-5.004v-7.034h5.004v-6.9zM75.157 178.392h-5.833v151.766h5.833V178.392zm142.566-19.949h-43.965l-9.192 8.513h53.157v-8.513zm60.22.143l-28.113.697v7.673h28.113v-8.37zm220.959-48.811l-28.114 7.866v6.907l28.114-7.682v-7.091zm125.366 28.304v-26.682l-4.612-15.67-4.629 1.268v44.389l-7.03 2.506V98.914l-9.241 2.523v45.75l-7.027 2.514v-46.344l-9.244 2.526v47.115l-7.027 2.511v-47.706l-9.241 2.522v48.485l-7.03 2.506v-49.067l-9.241 2.523v49.845l-7.026 2.511v-50.433l-9.245 2.523v51.207l-7.031 2.514v-51.802l-9.24 2.527v52.572l-7.027 2.506v-53.159l-9.245 2.527v53.938l-7.026 2.506v-54.528l-9.241 2.53v55.299l-7.03 2.51v-55.893l-9.241 2.527v56.667l-7.03 2.511v-57.259l-9.241 2.523v58.033l-7.027 2.51v-58.62l-9.244 2.523v59.394l-7.027 2.511V147.81l-9.245 2.523v60.76l-7.026 2.51v-61.35l-9.241 2.526v62.125l-7.03 2.506v-62.715l-9.241 2.526v63.494l-7.031 2.507v-64.081l-9.24 2.527v64.851l-7.027 2.514v-65.446l-9.245 2.527v66.216l-7.026 2.507v-66.804l-9.241 2.523v67.586l-7.03 2.506V174.48l-9.241 2.522v68.947l-5.96 2.127-1.07-.448v-69.236h-9.241v65.324l-7.031-2.971v-62.353h-9.241v58.441l-7.026-2.967v-55.474h-9.245v51.561l-7.026-2.971v-48.59h-9.241v44.678l-7.03-2.967v-41.711h-9.241v37.799l-7.026-2.971v-34.828h-9.245v30.916l-7.031-2.967v-27.949h-9.241v24.036l-7.026-2.966v-21.07h-9.245v17.157l-7.026-2.971v-14.186h-9.241v10.274l-7.03-2.967v-7.307h-9.241v3.395l-7.027-2.971v-.424h-9.245v.175h-7.026v-.175h-9.241v.175h-7.03v-.175h-9.241v78.222l-7.03-3.835v-74.387h-9.241v151.766H250.05v-92.951l7.03 3v89.951h9.241v-86.01l7.026 2.999v83.011h9.245v-79.07l7.026 3v76.07h9.241v-72.125l7.031 2.995v69.13h9.241v-66.343l7.03-1.882v68.225h9.241v-70.699l7.03-1.879v72.578h9.241V255.11l7.026-1.878v76.926h9.245v-79.4l7.027-1.879v81.279h9.24V246.41l7.031-1.879v85.627h9.241v-88.097l7.03-1.883v89.98h9.241v-92.453l7.026-1.879v94.332h9.245v-96.802l7.027-1.879v98.681h9.244v-101.15l7.027-1.879v103.029h9.241V224.655l7.03-1.878v107.381h9.241V220.307l7.03-1.879v111.73h9.241V215.954l7.026-1.882v116.086h9.245V211.602l7.027-1.879v120.435h9.24V207.254l7.031-1.879v124.783h9.245V202.901l7.026-1.879v56.273l9.241-3.945v-54.797l7.03-1.879v53.681l9.241-3.945V194.2l7.027-1.878v51.092l9.244-3.945v-49.621l7.027-1.879v48.505l9.241-3.945v-47.03l7.03-1.878v45.904l9.241-3.936v-44.442l7.026-1.879v43.317l9.245-3.937v-51.981l-9.245-31.392v.297l-7.026 2.507zm23.302 52.457v25.109l6.566-2.8-6.566-22.309zM87.345 178.392h-5.161v151.766h5.161V178.392zm172.397 209.469h35.995v-46.272h-35.995v46.272z"/><path fill-rule="evenodd" clip-rule="evenodd" d="M647.57 190.536v25.109l6.566-2.8-6.566-22.309z"/><path d="M69.324 178.392h5.833v151.766h-5.833V178.392zM82.184 178.392h5.161v151.766h-5.161V178.392zM624.268 111.397v26.682l7.026-2.507v-.297l9.245 31.392v51.981l-9.245 3.937v-43.317l-7.026 1.879v44.442l-9.241 3.936v-45.904l-7.03 1.878v47.03l-9.241 3.945v-48.505l-7.027 1.879v49.621l-9.244 3.945v-51.092l-7.027 1.878v52.21l-9.241 3.945v-53.681l-7.03 1.879v54.797l-9.241 3.945v-56.273l-7.026 1.879v127.257h-9.245V205.375l-7.031 1.879v122.904h-9.24V209.723l-7.027 1.879v118.556h-9.245V214.072l-7.026 1.882v114.204h-9.241v-111.73l-7.03 1.879v109.851h-9.241V222.777l-7.03 1.878v105.503h-9.241V227.129l-7.027 1.879v101.15h-9.244v-98.681l-7.027 1.879v96.802h-9.245v-94.332l-7.026 1.879v92.453h-9.241v-89.98l-7.03 1.883v88.097h-9.241v-85.627l-7.031 1.879v83.748h-9.24v-81.279l-7.027 1.879v79.4h-9.245v-76.926l-7.026 1.878v75.048h-9.241V257.58l-7.03 1.879v70.699h-9.241v-68.225l-7.03 1.882v66.343h-9.241v-69.13l-7.031-2.995v72.125h-9.241v-76.07l-7.026-3v79.07h-9.245v-83.011l-7.026-2.999v86.01h-9.241v-89.951l-7.03-3v92.951H94.376V178.392h9.241v74.387l7.03 3.835v-78.222h9.241v.175h7.03v-.175h9.241v.175h7.026v-.175h9.245v.424l7.027 2.971v-3.395h9.241v7.307l7.03 2.967v-10.274h9.241v14.186l7.026 2.971v-17.157h9.245v21.07l7.026 2.966v-24.036h9.241v27.949l7.031 2.967v-30.916h9.245v34.828l7.026 2.971v-37.799h9.241v41.711l7.03 2.967v-44.678h9.241v48.59l7.026 2.971v-51.561h9.245v55.474l7.026 2.967v-58.441h9.241v62.353l7.031 2.971v-65.324h9.241v69.236l1.07.448 5.96-2.127v-68.947l9.241-2.522v68.168l7.03-2.506v-67.586l9.241-2.523v66.804l7.026-2.507v-66.216l9.245-2.527v65.446l7.027-2.514v-64.851l9.24-2.527v64.081l7.031-2.507v-63.494l9.241-2.526v62.715l7.03-2.506v-62.125l9.241-2.526v61.35l7.026-2.51v-60.76l9.245-2.523v59.982l7.027-2.511v-59.394l9.244-2.523v58.62l7.027-2.51v-58.033l9.241-2.523v57.259l7.03-2.511v-56.667l9.241-2.527v55.893l7.03-2.51v-55.299l9.241-2.53v54.528l7.026-2.506V128.11l9.245-2.527v53.159l7.027-2.506v-52.572l9.24-2.527v51.802l7.031-2.514v-51.207l9.245-2.523v50.433l7.026-2.511v-49.845l9.241-2.523v49.067l7.03-2.506v-48.485l9.241-2.522v47.706l7.027-2.511v-47.115l9.244-2.526v46.344l7.027-2.514v-45.75l9.241-2.523v44.976l7.03-2.506v-44.39l4.629-1.267 4.612 15.67z"/></mask><path fill-rule="evenodd" clip-rule="evenodd" d="M724 387.861l-97.998-56.933-1.327-.77h-67.011v-63.73l110.3-47.054-40.517-137.625-117.127 31.996v-19.04l-50.951 14.263v18.698l-143.815 39.29h-26.192v-20.091l-50.951 1.267v18.824h-9.269v-19.948h-59.858l-21.539 19.948h-8.073v-.24H63.616v.24h-5.711v163.202h-4.73L.412 399.297H724v-11.436zm-264.712 0H701.248l-79.647-46.272H307.156v6.9h4.001v7.034h-4.001v5.685h4.001v7.038h-4.001v5.681h4.001v7.039h-4.001v6.895h152.132zM248.32 341.589H58.82l-35.31 46.272h224.81v-6.895h-5.004v-7.039h5.004v-5.681h-5.004v-7.038h5.004v-5.685h-5.004v-7.034h5.004v-6.9zM75.157 178.392h-5.833v151.766h5.833V178.392zm142.566-19.949h-43.965l-9.192 8.513h53.157v-8.513zm60.22.143l-28.113.697v7.673h28.113v-8.37zm220.959-48.811l-28.114 7.866v6.907l28.114-7.682v-7.091zm125.366 28.304v-26.682l-4.612-15.67-4.629 1.268v44.389l-7.03 2.506V98.914l-9.241 2.523v45.75l-7.027 2.514v-46.344l-9.244 2.526v47.115l-7.027 2.511v-47.706l-9.241 2.522v48.485l-7.03 2.506v-49.067l-9.241 2.523v49.845l-7.026 2.511v-50.433l-9.245 2.523v51.207l-7.031 2.514v-51.802l-9.24 2.527v52.572l-7.027 2.506v-53.159l-9.245 2.527v53.938l-7.026 2.506v-54.528l-9.241 2.53v55.299l-7.03 2.51v-55.893l-9.241 2.527v56.667l-7.03 2.511v-57.259l-9.241 2.523v58.033l-7.027 2.51v-58.62l-9.244 2.523v59.394l-7.027 2.511V147.81l-9.245 2.523v60.76l-7.026 2.51v-61.35l-9.241 2.526v62.125l-7.03 2.506v-62.715l-9.241 2.526v63.494l-7.031 2.507v-64.081l-9.24 2.527v64.851l-7.027 2.514v-65.446l-9.245 2.527v66.216l-7.026 2.507v-66.804l-9.241 2.523v67.586l-7.03 2.506V174.48l-9.241 2.522v68.947l-5.96 2.127-1.07-.448v-69.236h-9.241v65.324l-7.031-2.971v-62.353h-9.241v58.441l-7.026-2.967v-55.474h-9.245v51.561l-7.026-2.971v-48.59h-9.241v44.678l-7.03-2.967v-41.711h-9.241v37.799l-7.026-2.971v-34.828h-9.245v30.916l-7.031-2.967v-27.949h-9.241v24.036l-7.026-2.966v-21.07h-9.245v17.157l-7.026-2.971v-14.186h-9.241v10.274l-7.03-2.967v-7.307h-9.241v3.395l-7.027-2.971v-.424h-9.245v.175h-7.026v-.175h-9.241v.175h-7.03v-.175h-9.241v78.222l-7.03-3.835v-74.387h-9.241v151.766H250.05v-92.951l7.03 3v89.951h9.241v-86.01l7.026 2.999v83.011h9.245v-79.07l7.026 3v76.07h9.241v-72.125l7.031 2.995v69.13h9.241v-66.343l7.03-1.882v68.225h9.241v-70.699l7.03-1.879v72.578h9.241V255.11l7.026-1.878v76.926h9.245v-79.4l7.027-1.879v81.279h9.24V246.41l7.031-1.879v85.627h9.241v-88.097l7.03-1.883v89.98h9.241v-92.453l7.026-1.879v94.332h9.245v-96.802l7.027-1.879v98.681h9.244v-101.15l7.027-1.879v103.029h9.241V224.655l7.03-1.878v107.381h9.241V220.307l7.03-1.879v111.73h9.241V215.954l7.026-1.882v116.086h9.245V211.602l7.027-1.879v120.435h9.24V207.254l7.031-1.879v124.783h9.245V202.901l7.026-1.879v56.273l9.241-3.945v-54.797l7.03-1.879v53.681l9.241-3.945V194.2l7.027-1.878v51.092l9.244-3.945v-49.621l7.027-1.879v48.505l9.241-3.945v-47.03l7.03-1.878v45.904l9.241-3.936v-44.442l7.026-1.879v43.317l9.245-3.937v-51.981l-9.245-31.392v.297l-7.026 2.507zm23.302 52.457v25.109l6.566-2.8-6.566-22.309zM87.345 178.392h-5.161v151.766h5.161V178.392zm172.397 209.469h35.995v-46.272h-35.995v46.272z" fill="#fff"/><path fill-rule="evenodd" clip-rule="evenodd" d="M647.57 190.536v25.109l6.566-2.8-6.566-22.309z" fill="#fff"/><path d="M69.324 178.392h5.833v151.766h-5.833V178.392zM82.184 178.392h5.161v151.766h-5.161V178.392zM624.268 111.397v26.682l7.026-2.507v-.297l9.245 31.392v51.981l-9.245 3.937v-43.317l-7.026 1.879v44.442l-9.241 3.936v-45.904l-7.03 1.878v47.03l-9.241 3.945v-48.505l-7.027 1.879v49.621l-9.244 3.945v-51.092l-7.027 1.878v52.21l-9.241 3.945v-53.681l-7.03 1.879v54.797l-9.241 3.945v-56.273l-7.026 1.879v127.257h-9.245V205.375l-7.031 1.879v122.904h-9.24V209.723l-7.027 1.879v118.556h-9.245V214.072l-7.026 1.882v114.204h-9.241v-111.73l-7.03 1.879v109.851h-9.241V222.777l-7.03 1.878v105.503h-9.241V227.129l-7.027 1.879v101.15h-9.244v-98.681l-7.027 1.879v96.802h-9.245v-94.332l-7.026 1.879v92.453h-9.241v-89.98l-7.03 1.883v88.097h-9.241v-85.627l-7.031 1.879v83.748h-9.24v-81.279l-7.027 1.879v79.4h-9.245v-76.926l-7.026 1.878v75.048h-9.241V257.58l-7.03 1.879v70.699h-9.241v-68.225l-7.03 1.882v66.343h-9.241v-69.13l-7.031-2.995v72.125h-9.241v-76.07l-7.026-3v79.07h-9.245v-83.011l-7.026-2.999v86.01h-9.241v-89.951l-7.03-3v92.951H94.376V178.392h9.241v74.387l7.03 3.835v-78.222h9.241v.175h7.03v-.175h9.241v.175h7.026v-.175h9.245v.424l7.027 2.971v-3.395h9.241v7.307l7.03 2.967v-10.274h9.241v14.186l7.026 2.971v-17.157h9.245v21.07l7.026 2.966v-24.036h9.241v27.949l7.031 2.967v-30.916h9.245v34.828l7.026 2.971v-37.799h9.241v41.711l7.03 2.967v-44.678h9.241v48.59l7.026 2.971v-51.561h9.245v55.474l7.026 2.967v-58.441h9.241v62.353l7.031 2.971v-65.324h9.241v69.236l1.07.448 5.96-2.127v-68.947l9.241-2.522v68.168l7.03-2.506v-67.586l9.241-2.523v66.804l7.026-2.507v-66.216l9.245-2.527v65.446l7.027-2.514v-64.851l9.24-2.527v64.081l7.031-2.507v-63.494l9.241-2.526v62.715l7.03-2.506v-62.125l9.241-2.526v61.35l7.026-2.51v-60.76l9.245-2.523v59.982l7.027-2.511v-59.394l9.244-2.523v58.62l7.027-2.51v-58.033l9.241-2.523v57.259l7.03-2.511v-56.667l9.241-2.527v55.893l7.03-2.51v-55.299l9.241-2.53v54.528l7.026-2.506V128.11l9.245-2.527v53.159l7.027-2.506v-52.572l9.24-2.527v51.802l7.031-2.514v-51.207l9.245-2.523v50.433l7.026-2.511v-49.845l9.241-2.523v49.067l7.03-2.506v-48.485l9.241-2.522v47.706l7.027-2.511v-47.115l9.244-2.526v46.344l7.027-2.514v-45.75l9.241-2.523v44.976l7.03-2.506v-44.39l4.629-1.267 4.612 15.67z" fill="#fff"/><path clip-rule="evenodd" d="M724 387.861l-97.998-56.933-1.327-.77h-67.011v-63.73l110.3-47.054-40.517-137.625-117.127 31.996v-19.04l-50.951 14.263v18.698l-143.815 39.29h-26.192v-20.091l-50.951 1.267v18.824h-9.269v-19.948h-59.858l-21.539 19.948h-8.073v-.24H63.616v.24h-5.711v163.202h-4.73L.412 399.297H724v-11.436zm-264.712 0H701.248l-79.647-46.272H307.156v6.9h4.001v7.034h-4.001v5.685h4.001v7.038h-4.001v5.681h4.001v7.039h-4.001v6.895h152.132zM248.32 341.589H58.82l-35.31 46.272h224.81v-6.895h-5.004v-7.039h5.004v-5.681h-5.004v-7.038h5.004v-5.685h-5.004v-7.034h5.004v-6.9zM75.157 178.392h-5.833v151.766h5.833V178.392zm142.566-19.949h-43.965l-9.192 8.513h53.157v-8.513zm60.22.143l-28.113.697v7.673h28.113v-8.37zm220.959-48.811l-28.114 7.866v6.907l28.114-7.682v-7.091zm125.366 28.304v-26.682l-4.612-15.67-4.629 1.268v44.389l-7.03 2.506V98.914l-9.241 2.523v45.75l-7.027 2.514v-46.344l-9.244 2.526v47.115l-7.027 2.511v-47.706l-9.241 2.522v48.485l-7.03 2.506v-49.067l-9.241 2.523v49.845l-7.026 2.511v-50.433l-9.245 2.523v51.207l-7.031 2.514v-51.802l-9.24 2.527v52.572l-7.027 2.506v-53.159l-9.245 2.527v53.938l-7.026 2.506v-54.528l-9.241 2.53v55.299l-7.03 2.51v-55.893l-9.241 2.527v56.667l-7.03 2.511v-57.259l-9.241 2.523v58.033l-7.027 2.51v-58.62l-9.244 2.523v59.394l-7.027 2.511V147.81l-9.245 2.523v60.76l-7.026 2.51v-61.35l-9.241 2.526v62.125l-7.03 2.506v-62.715l-9.241 2.526v63.494l-7.031 2.507v-64.081l-9.24 2.527v64.851l-7.027 2.514v-65.446l-9.245 2.527v66.216l-7.026 2.507v-66.804l-9.241 2.523v67.586l-7.03 2.506V174.48l-9.241 2.522v68.947l-5.96 2.127-1.07-.448v-69.236h-9.241v65.324l-7.031-2.971v-62.353h-9.241v58.441l-7.026-2.967v-55.474h-9.245v51.561l-7.026-2.971v-48.59h-9.241v44.678l-7.03-2.967v-41.711h-9.241v37.799l-7.026-2.971v-34.828h-9.245v30.916l-7.031-2.967v-27.949h-9.241v24.036l-7.026-2.966v-21.07h-9.245v17.157l-7.026-2.971v-14.186h-9.241v10.274l-7.03-2.967v-7.307h-9.241v3.395l-7.027-2.971v-.424h-9.245v.175h-7.026v-.175h-9.241v.175h-7.03v-.175h-9.241v78.222l-7.03-3.835v-74.387h-9.241v151.766H250.05v-92.951l7.03 3v89.951h9.241v-86.01l7.026 2.999v83.011h9.245v-79.07l7.026 3v76.07h9.241v-72.125l7.031 2.995v69.13h9.241v-66.343l7.03-1.882v68.225h9.241v-70.699l7.03-1.879v72.578h9.241V255.11l7.026-1.878v76.926h9.245v-79.4l7.027-1.879v81.279h9.24V246.41l7.031-1.879v85.627h9.241v-88.097l7.03-1.883v89.98h9.241v-92.453l7.026-1.879v94.332h9.245v-96.802l7.027-1.879v98.681h9.244v-101.15l7.027-1.879v103.029h9.241V224.655l7.03-1.878v107.381h9.241V220.307l7.03-1.879v111.73h9.241V215.954l7.026-1.882v116.086h9.245V211.602l7.027-1.879v120.435h9.24V207.254l7.031-1.879v124.783h9.245V202.901l7.026-1.879v56.273l9.241-3.945v-54.797l7.03-1.879v53.681l9.241-3.945V194.2l7.027-1.878v51.092l9.244-3.945v-49.621l7.027-1.879v48.505l9.241-3.945v-47.03l7.03-1.878v45.904l9.241-3.936v-44.442l7.026-1.879v43.317l9.245-3.937v-51.981l-9.245-31.392v.297l-7.026 2.507zm23.302 52.457v25.109l6.566-2.8-6.566-22.309zM87.345 178.392h-5.161v151.766h5.161V178.392zm172.397 209.469h35.995v-46.272h-35.995v46.272z" stroke="#fff" stroke-width="3" mask="url(#path-5-inside-1)"/><path clip-rule="evenodd" d="M647.57 190.536v25.109l6.566-2.8-6.566-22.309z" stroke="#fff" stroke-width="3" mask="url(#path-5-inside-1)"/><path d="M69.324 178.392h5.833v151.766h-5.833V178.392zM82.184 178.392h5.161v151.766h-5.161V178.392zM624.268 111.397v26.682l7.026-2.507v-.297l9.245 31.392v51.981l-9.245 3.937v-43.317l-7.026 1.879v44.442l-9.241 3.936v-45.904l-7.03 1.878v47.03l-9.241 3.945v-48.505l-7.027 1.879v49.621l-9.244 3.945v-51.092l-7.027 1.878v52.21l-9.241 3.945v-53.681l-7.03 1.879v54.797l-9.241 3.945v-56.273l-7.026 1.879v127.257h-9.245V205.375l-7.031 1.879v122.904h-9.24V209.723l-7.027 1.879v118.556h-9.245V214.072l-7.026 1.882v114.204h-9.241v-111.73l-7.03 1.879v109.851h-9.241V222.777l-7.03 1.878v105.503h-9.241V227.129l-7.027 1.879v101.15h-9.244v-98.681l-7.027 1.879v96.802h-9.245v-94.332l-7.026 1.879v92.453h-9.241v-89.98l-7.03 1.883v88.097h-9.241v-85.627l-7.031 1.879v83.748h-9.24v-81.279l-7.027 1.879v79.4h-9.245v-76.926l-7.026 1.878v75.048h-9.241V257.58l-7.03 1.879v70.699h-9.241v-68.225l-7.03 1.882v66.343h-9.241v-69.13l-7.031-2.995v72.125h-9.241v-76.07l-7.026-3v79.07h-9.245v-83.011l-7.026-2.999v86.01h-9.241v-89.951l-7.03-3v92.951H94.376V178.392h9.241v74.387l7.03 3.835v-78.222h9.241v.175h7.03v-.175h9.241v.175h7.026v-.175h9.245v.424l7.027 2.971v-3.395h9.241v7.307l7.03 2.967v-10.274h9.241v14.186l7.026 2.971v-17.157h9.245v21.07l7.026 2.966v-24.036h9.241v27.949l7.031 2.967v-30.916h9.245v34.828l7.026 2.971v-37.799h9.241v41.711l7.03 2.967v-44.678h9.241v48.59l7.026 2.971v-51.561h9.245v55.474l7.026 2.967v-58.441h9.241v62.353l7.031 2.971v-65.324h9.241v69.236l1.07.448 5.96-2.127v-68.947l9.241-2.522v68.168l7.03-2.506v-67.586l9.241-2.523v66.804l7.026-2.507v-66.216l9.245-2.527v65.446l7.027-2.514v-64.851l9.24-2.527v64.081l7.031-2.507v-63.494l9.241-2.526v62.715l7.03-2.506v-62.125l9.241-2.526v61.35l7.026-2.51v-60.76l9.245-2.523v59.982l7.027-2.511v-59.394l9.244-2.523v58.62l7.027-2.51v-58.033l9.241-2.523v57.259l7.03-2.511v-56.667l9.241-2.527v55.893l7.03-2.51v-55.299l9.241-2.53v54.528l7.026-2.506V128.11l9.245-2.527v53.159l7.027-2.506v-52.572l9.24-2.527v51.802l7.031-2.514v-51.207l9.245-2.523v50.433l7.026-2.511v-49.845l9.241-2.523v49.067l7.03-2.506v-48.485l9.241-2.522v47.706l7.027-2.511v-47.115l9.244-2.526v46.344l7.027-2.514v-45.75l9.241-2.523v44.976l7.03-2.506v-44.39l4.629-1.267 4.612 15.67z" stroke="#fff" stroke-width="3" mask="url(#path-5-inside-1)"/><mask id="path-6-inside-2" fill="#fff"><path fill-rule="evenodd" clip-rule="evenodd" d="M724 387.861l-97.998-56.933-1.327-.77h-67.011v-63.73l110.3-47.054-40.517-137.625-117.127 31.996v-19.04l-50.951 14.263v18.698l-143.815 39.29h-26.192v-20.091l-50.951 1.267v18.824h-9.269v-19.948h-59.858l-21.539 19.948h-8.073v-.24H63.616v.24h-5.711v163.202h-4.73L.412 399.297H724v-11.436zm-264.712 0H701.248l-79.647-46.272H307.156v6.9h4.001v7.034h-4.001v5.685h4.001v7.038h-4.001v5.681h4.001v7.039h-4.001v6.895h152.132zM248.32 341.589H58.82l-35.31 46.272h224.81v-6.895h-5.004v-7.039h5.004v-5.681h-5.004v-7.038h5.004v-5.685h-5.004v-7.034h5.004v-6.9zM75.157 178.392h-5.833v151.766h5.833V178.392zm142.566-19.949h-43.965l-9.192 8.513h53.157v-8.513zm60.22.143l-28.113.697v7.673h28.113v-8.37zm220.959-48.811l-28.114 7.866v6.907l28.114-7.682v-7.091zm125.366 28.304v-26.682l-4.612-15.67-4.629 1.268v44.389l-7.03 2.506V98.914l-9.241 2.523v45.75l-7.027 2.514v-46.344l-9.244 2.526v47.115l-7.027 2.511v-47.706l-9.241 2.522v48.485l-7.03 2.506v-49.067l-9.241 2.523v49.845l-7.026 2.511v-50.433l-9.245 2.523v51.207l-7.031 2.514v-51.802l-9.24 2.527v52.572l-7.027 2.506v-53.159l-9.245 2.527v53.938l-7.026 2.506v-54.528l-9.241 2.53v55.299l-7.03 2.51v-55.893l-9.241 2.527v56.667l-7.03 2.511v-57.259l-9.241 2.523v58.033l-7.027 2.51v-58.62l-9.244 2.523v59.394l-7.027 2.511V147.81l-9.245 2.523v60.76l-7.026 2.51v-61.35l-9.241 2.526v62.125l-7.03 2.506v-62.715l-9.241 2.526v63.494l-7.031 2.507v-64.081l-9.24 2.527v64.851l-7.027 2.514v-65.446l-9.245 2.527v66.216l-7.026 2.507v-66.804l-9.241 2.523v67.586l-7.03 2.506V174.48l-9.241 2.522v68.947l-5.96 2.127-1.07-.448v-69.236h-9.241v65.324l-7.031-2.971v-62.353h-9.241v58.441l-7.026-2.967v-55.474h-9.245v51.561l-7.026-2.971v-48.59h-9.241v44.678l-7.03-2.967v-41.711h-9.241v37.799l-7.026-2.971v-34.828h-9.245v30.916l-7.031-2.967v-27.949h-9.241v24.036l-7.026-2.966v-21.07h-9.245v17.157l-7.026-2.971v-14.186h-9.241v10.274l-7.03-2.967v-7.307h-9.241v3.395l-7.027-2.971v-.424h-9.245v.175h-7.026v-.175h-9.241v.175h-7.03v-.175h-9.241v78.222l-7.03-3.835v-74.387h-9.241v151.766H250.05v-92.951l7.03 3v89.951h9.241v-86.01l7.026 2.999v83.011h9.245v-79.07l7.026 3v76.07h9.241v-72.125l7.031 2.995v69.13h9.241v-66.343l7.03-1.882v68.225h9.241v-70.699l7.03-1.879v72.578h9.241V255.11l7.026-1.878v76.926h9.245v-79.4l7.027-1.879v81.279h9.24V246.41l7.031-1.879v85.627h9.241v-88.097l7.03-1.883v89.98h9.241v-92.453l7.026-1.879v94.332h9.245v-96.802l7.027-1.879v98.681h9.244v-101.15l7.027-1.879v103.029h9.241V224.655l7.03-1.878v107.381h9.241V220.307l7.03-1.879v111.73h9.241V215.954l7.026-1.882v116.086h9.245V211.602l7.027-1.879v120.435h9.24V207.254l7.031-1.879v124.783h9.245V202.901l7.026-1.879v56.273l9.241-3.945v-54.797l7.03-1.879v53.681l9.241-3.945V194.2l7.027-1.878v51.092l9.244-3.945v-49.621l7.027-1.879v48.505l9.241-3.945v-47.03l7.03-1.878v45.904l9.241-3.936v-44.442l7.026-1.879v43.317l9.245-3.937v-51.981l-9.245-31.392v.297l-7.026 2.507zm23.302 52.457v25.109l6.566-2.8-6.566-22.309zM87.345 178.392h-5.161v151.766h5.161V178.392zm172.397 209.469h35.995v-46.272h-35.995v46.272z"/><path fill-rule="evenodd" clip-rule="evenodd" d="M647.57 190.536v25.109l6.566-2.8-6.566-22.309z"/></mask><path fill-rule="evenodd" clip-rule="evenodd" d="M724 387.861l-97.998-56.933-1.327-.77h-67.011v-63.73l110.3-47.054-40.517-137.625-117.127 31.996v-19.04l-50.951 14.263v18.698l-143.815 39.29h-26.192v-20.091l-50.951 1.267v18.824h-9.269v-19.948h-59.858l-21.539 19.948h-8.073v-.24H63.616v.24h-5.711v163.202h-4.73L.412 399.297H724v-11.436zm-264.712 0H701.248l-79.647-46.272H307.156v6.9h4.001v7.034h-4.001v5.685h4.001v7.038h-4.001v5.681h4.001v7.039h-4.001v6.895h152.132zM248.32 341.589H58.82l-35.31 46.272h224.81v-6.895h-5.004v-7.039h5.004v-5.681h-5.004v-7.038h5.004v-5.685h-5.004v-7.034h5.004v-6.9zM75.157 178.392h-5.833v151.766h5.833V178.392zm142.566-19.949h-43.965l-9.192 8.513h53.157v-8.513zm60.22.143l-28.113.697v7.673h28.113v-8.37zm220.959-48.811l-28.114 7.866v6.907l28.114-7.682v-7.091zm125.366 28.304v-26.682l-4.612-15.67-4.629 1.268v44.389l-7.03 2.506V98.914l-9.241 2.523v45.75l-7.027 2.514v-46.344l-9.244 2.526v47.115l-7.027 2.511v-47.706l-9.241 2.522v48.485l-7.03 2.506v-49.067l-9.241 2.523v49.845l-7.026 2.511v-50.433l-9.245 2.523v51.207l-7.031 2.514v-51.802l-9.24 2.527v52.572l-7.027 2.506v-53.159l-9.245 2.527v53.938l-7.026 2.506v-54.528l-9.241 2.53v55.299l-7.03 2.51v-55.893l-9.241 2.527v56.667l-7.03 2.511v-57.259l-9.241 2.523v58.033l-7.027 2.51v-58.62l-9.244 2.523v59.394l-7.027 2.511V147.81l-9.245 2.523v60.76l-7.026 2.51v-61.35l-9.241 2.526v62.125l-7.03 2.506v-62.715l-9.241 2.526v63.494l-7.031 2.507v-64.081l-9.24 2.527v64.851l-7.027 2.514v-65.446l-9.245 2.527v66.216l-7.026 2.507v-66.804l-9.241 2.523v67.586l-7.03 2.506V174.48l-9.241 2.522v68.947l-5.96 2.127-1.07-.448v-69.236h-9.241v65.324l-7.031-2.971v-62.353h-9.241v58.441l-7.026-2.967v-55.474h-9.245v51.561l-7.026-2.971v-48.59h-9.241v44.678l-7.03-2.967v-41.711h-9.241v37.799l-7.026-2.971v-34.828h-9.245v30.916l-7.031-2.967v-27.949h-9.241v24.036l-7.026-2.966v-21.07h-9.245v17.157l-7.026-2.971v-14.186h-9.241v10.274l-7.03-2.967v-7.307h-9.241v3.395l-7.027-2.971v-.424h-9.245v.175h-7.026v-.175h-9.241v.175h-7.03v-.175h-9.241v78.222l-7.03-3.835v-74.387h-9.241v151.766H250.05v-92.951l7.03 3v89.951h9.241v-86.01l7.026 2.999v83.011h9.245v-79.07l7.026 3v76.07h9.241v-72.125l7.031 2.995v69.13h9.241v-66.343l7.03-1.882v68.225h9.241v-70.699l7.03-1.879v72.578h9.241V255.11l7.026-1.878v76.926h9.245v-79.4l7.027-1.879v81.279h9.24V246.41l7.031-1.879v85.627h9.241v-88.097l7.03-1.883v89.98h9.241v-92.453l7.026-1.879v94.332h9.245v-96.802l7.027-1.879v98.681h9.244v-101.15l7.027-1.879v103.029h9.241V224.655l7.03-1.878v107.381h9.241V220.307l7.03-1.879v111.73h9.241V215.954l7.026-1.882v116.086h9.245V211.602l7.027-1.879v120.435h9.24V207.254l7.031-1.879v124.783h9.245V202.901l7.026-1.879v56.273l9.241-3.945v-54.797l7.03-1.879v53.681l9.241-3.945V194.2l7.027-1.878v51.092l9.244-3.945v-49.621l7.027-1.879v48.505l9.241-3.945v-47.03l7.03-1.878v45.904l9.241-3.936v-44.442l7.026-1.879v43.317l9.245-3.937v-51.981l-9.245-31.392v.297l-7.026 2.507zm23.302 52.457v25.109l6.566-2.8-6.566-22.309zM87.345 178.392h-5.161v151.766h5.161V178.392zm172.397 209.469h35.995v-46.272h-35.995v46.272z" fill="#BBCFE2"/><path fill-rule="evenodd" clip-rule="evenodd" d="M647.57 190.536v25.109l6.566-2.8-6.566-22.309z" fill="#BBCFE2"/><path clip-rule="evenodd" d="M724 387.861l-97.998-56.933-1.327-.77h-67.011v-63.73l110.3-47.054-40.517-137.625-117.127 31.996v-19.04l-50.951 14.263v18.698l-143.815 39.29h-26.192v-20.091l-50.951 1.267v18.824h-9.269v-19.948h-59.858l-21.539 19.948h-8.073v-.24H63.616v.24h-5.711v163.202h-4.73L.412 399.297H724v-11.436zm-264.712 0H701.248l-79.647-46.272H307.156v6.9h4.001v7.034h-4.001v5.685h4.001v7.038h-4.001v5.681h4.001v7.039h-4.001v6.895h152.132zM248.32 341.589H58.82l-35.31 46.272h224.81v-6.895h-5.004v-7.039h5.004v-5.681h-5.004v-7.038h5.004v-5.685h-5.004v-7.034h5.004v-6.9zM75.157 178.392h-5.833v151.766h5.833V178.392zm142.566-19.949h-43.965l-9.192 8.513h53.157v-8.513zm60.22.143l-28.113.697v7.673h28.113v-8.37zm220.959-48.811l-28.114 7.866v6.907l28.114-7.682v-7.091zm125.366 28.304v-26.682l-4.612-15.67-4.629 1.268v44.389l-7.03 2.506V98.914l-9.241 2.523v45.75l-7.027 2.514v-46.344l-9.244 2.526v47.115l-7.027 2.511v-47.706l-9.241 2.522v48.485l-7.03 2.506v-49.067l-9.241 2.523v49.845l-7.026 2.511v-50.433l-9.245 2.523v51.207l-7.031 2.514v-51.802l-9.24 2.527v52.572l-7.027 2.506v-53.159l-9.245 2.527v53.938l-7.026 2.506v-54.528l-9.241 2.53v55.299l-7.03 2.51v-55.893l-9.241 2.527v56.667l-7.03 2.511v-57.259l-9.241 2.523v58.033l-7.027 2.51v-58.62l-9.244 2.523v59.394l-7.027 2.511V147.81l-9.245 2.523v60.76l-7.026 2.51v-61.35l-9.241 2.526v62.125l-7.03 2.506v-62.715l-9.241 2.526v63.494l-7.031 2.507v-64.081l-9.24 2.527v64.851l-7.027 2.514v-65.446l-9.245 2.527v66.216l-7.026 2.507v-66.804l-9.241 2.523v67.586l-7.03 2.506V174.48l-9.241 2.522v68.947l-5.96 2.127-1.07-.448v-69.236h-9.241v65.324l-7.031-2.971v-62.353h-9.241v58.441l-7.026-2.967v-55.474h-9.245v51.561l-7.026-2.971v-48.59h-9.241v44.678l-7.03-2.967v-41.711h-9.241v37.799l-7.026-2.971v-34.828h-9.245v30.916l-7.031-2.967v-27.949h-9.241v24.036l-7.026-2.966v-21.07h-9.245v17.157l-7.026-2.971v-14.186h-9.241v10.274l-7.03-2.967v-7.307h-9.241v3.395l-7.027-2.971v-.424h-9.245v.175h-7.026v-.175h-9.241v.175h-7.03v-.175h-9.241v78.222l-7.03-3.835v-74.387h-9.241v151.766H250.05v-92.951l7.03 3v89.951h9.241v-86.01l7.026 2.999v83.011h9.245v-79.07l7.026 3v76.07h9.241v-72.125l7.031 2.995v69.13h9.241v-66.343l7.03-1.882v68.225h9.241v-70.699l7.03-1.879v72.578h9.241V255.11l7.026-1.878v76.926h9.245v-79.4l7.027-1.879v81.279h9.24V246.41l7.031-1.879v85.627h9.241v-88.097l7.03-1.883v89.98h9.241v-92.453l7.026-1.879v94.332h9.245v-96.802l7.027-1.879v98.681h9.244v-101.15l7.027-1.879v103.029h9.241V224.655l7.03-1.878v107.381h9.241V220.307l7.03-1.879v111.73h9.241V215.954l7.026-1.882v116.086h9.245V211.602l7.027-1.879v120.435h9.24V207.254l7.031-1.879v124.783h9.245V202.901l7.026-1.879v56.273l9.241-3.945v-54.797l7.03-1.879v53.681l9.241-3.945V194.2l7.027-1.878v51.092l9.244-3.945v-49.621l7.027-1.879v48.505l9.241-3.945v-47.03l7.03-1.878v45.904l9.241-3.936v-44.442l7.026-1.879v43.317l9.245-3.937v-51.981l-9.245-31.392v.297l-7.026 2.507zm23.302 52.457v25.109l6.566-2.8-6.566-22.309zM87.345 178.392h-5.161v151.766h5.161V178.392zm172.397 209.469h35.995v-46.272h-35.995v46.272z" stroke="#fff" stroke-width="4" mask="url(#path-6-inside-2)"/><path clip-rule="evenodd" d="M647.57 190.536v25.109l6.566-2.8-6.566-22.309z" stroke="#fff" stroke-width="4" mask="url(#path-6-inside-2)"/><path d="M488.804 359.824h128.788v-9.435H488.804v9.435z" fill="#BBCFE2" stroke="#fff" stroke-width="2"/><path d="M425.373 354.523h6.785v-5.038h-6.785v5.038zM328.329 354.523h14.174v-5.038h-14.174v5.038zM360.682 354.523h14.173v-5.038h-14.173v5.038zM393.029 354.523h14.174v-5.038h-14.174v5.038zM425.373 367.241h6.785v-5.038h-6.785v5.038zM328.329 367.241h14.174v-5.038h-14.174v5.038zM360.682 367.241h14.173v-5.038h-14.173v5.038zM393.029 367.241h14.174v-5.038h-14.174v5.038zM425.373 379.964h6.785v-5.038h-6.785v5.038zM393.029 379.964h14.174v-5.038h-14.174v5.038zM360.682 379.964h14.173v-5.038h-14.173v5.038zM328.329 379.964h14.174v-5.038h-14.174v5.038zM147.269 354.523h14.173v-5.038h-14.173v5.038zM179.616 354.523h14.173v-5.038h-14.173v5.038zM211.97 354.523h14.173v-5.038H211.97v5.038zM122.313 354.523h6.785v-5.038h-6.785v5.038zM147.269 367.241h14.173v-5.038h-14.173v5.038zM211.97 367.241h14.173v-5.038H211.97v5.038zM179.616 367.241h14.173v-5.038h-14.173v5.038zM122.313 367.241h6.785v-5.038h-6.785v5.038zM211.97 379.964h14.173v-5.038H211.97v5.038zM179.616 379.964h14.173v-5.038h-14.173v5.038zM147.269 379.964h14.173v-5.038h-14.173v5.038zM122.313 379.964h6.785v-5.038h-6.785v5.038z" fill="#C3C1D6" stroke="#fff" stroke-width="2"/><path d="M474.543 379.06h128.788v-9.435H474.543v9.435z" fill="#BBCFE2" stroke="#fff" stroke-width="2"/><path d="M234.779 231.781v91.394l5.026 2.74v-91.991l-5.026-2.143zM218.508 224.839V314.3l5.03 2.744v-90.059l-5.03-2.146zM169.696 204.016v83.667l5.03 2.741v-84.265l-5.03-2.143zM153.428 197.077v81.731l5.026 2.74V199.22l-5.026-2.143zM185.969 210.956v85.598l5.026 2.741v-86.193l-5.026-2.146zM202.24 217.899v87.53l5.031 2.741v-88.128l-5.031-2.143zM137.158 190.133v79.799l5.03 2.741v-80.394l-5.03-2.146zM120.889 183.193v77.867l5.03 2.741v-78.465l-5.03-2.143z" fill="#C3C1D6" stroke="#fff" stroke-width="2"/><path d="M339.042 472.816c120.664 0 218.481-4.323 218.481-9.656s-97.817-9.656-218.481-9.656c-120.663 0-218.48 4.323-218.48 9.656s97.817 9.656 218.48 9.656z" fill="#BBCFE2"/><path d="M497.703 249.89a7.322 7.322 0 007.318-7.325c0-4.046-3.276-7.326-7.318-7.326-4.041 0-7.317 3.28-7.317 7.326 0 4.045 3.276 7.325 7.317 7.325zM484.161 251.202a5.136 5.136 0 005.133-5.139 5.135 5.135 0 00-5.133-5.138 5.135 5.135 0 00-5.133 5.138 5.136 5.136 0 005.133 5.139zM151.305 277.318c8.464 0 15.325-6.869 15.325-15.342s-6.861-15.341-15.325-15.341c-8.463 0-15.325 6.868-15.325 15.341 0 8.473 6.862 15.342 15.325 15.342zM122.943 280.065c5.937 0 10.75-4.818 10.75-10.762 0-5.943-4.813-10.762-10.75-10.762s-10.75 4.819-10.75 10.762c0 5.944 4.813 10.762 10.75 10.762z" fill="#EEF7FF"/><path d="M372.69 258.053c-10.144-17.159-30.214-17.959-30.214-17.959s-19.556-2.504-32.102 23.63c-11.693 24.359-27.831 47.878-2.598 53.581l4.558-14.202 2.823 15.259c3.592.259 7.197.32 10.796.185 27.023-.874 52.758.255 51.93-9.452-1.102-12.905 4.567-34.531-5.193-51.042z" fill="#25323F"/><path d="M306.336 408.326a40.057 40.057 0 01-1.295 5.577c-.634 1.787-1.614 3.439-2.195 5.245-1.85 5.754.715 12.171 4.811 16.613a27.081 27.081 0 0013.203 7.848c3.695.931 7.538 1.065 11.346 1.194 10.545.358 21.362.678 31.354-2.715a54.409 54.409 0 009.11-4.143 6.823 6.823 0 002.364-1.863c.762-1.086.859-2.495.853-3.822-.023-4.475-.929-8.928-.714-13.398.119-2.476.582-4.951.354-7.419a13.685 13.685 0 00-10.448-11.789c-2.834-.609-5.774-.277-8.66 0a220.294 220.294 0 01-22.54 1.009c-7.689-.049-15.33-1.224-22.981-1.346-2.263-.037-2.217.661-2.937 2.854a53.137 53.137 0 00-1.625 6.155z" fill="#465C72"/><path d="M328.157 297.818c-.37 1.937-.769 3.944-1.932 5.536-1.338 1.831-3.519 2.878-4.958 4.63-2.166 2.638-2.29 6.351-2.299 9.765-.008 3.146.055 6.502 1.808 9.113 1.137 1.695 2.868 2.883 4.559 4.024 6.572 4.434 13.673 8.947 21.597 9.093 3.283.061 6.803-.788 8.963-3.264a13.483 13.483 0 002.17-3.876 51.502 51.502 0 003.639-15.669c.181-2.531.164-5.137-.692-7.526-.963-2.687-2.909-4.898-4.196-7.445a16.595 16.595 0 01-1.593-9.807 1.061 1.061 0 00-.056-.711 1.031 1.031 0 00-.852-.346l-15.711-1.132a34.183 34.183 0 01-4.362-.5c-.847-.172-3.084-1.376-3.892-1.056-1.495.593-1.887 7.564-2.193 9.171z" fill="#FFB8B8"/><path d="M328.157 297.818c-.37 1.937-.769 3.944-1.932 5.536-1.338 1.831-3.519 2.878-4.958 4.63-2.166 2.638-2.29 6.351-2.299 9.765-.008 3.146.055 6.502 1.808 9.113 1.137 1.695 2.868 2.883 4.559 4.024 6.572 4.434 13.673 8.947 21.597 9.093 3.283.061 6.803-.788 8.963-3.264a13.483 13.483 0 002.17-3.876 51.502 51.502 0 003.639-15.669c.181-2.531.164-5.137-.692-7.526-.963-2.687-2.909-4.898-4.196-7.445a16.595 16.595 0 01-1.593-9.807 1.061 1.061 0 00-.056-.711 1.031 1.031 0 00-.852-.346l-15.711-1.132a34.183 34.183 0 01-4.362-.5c-.847-.172-3.084-1.376-3.892-1.056-1.495.593-1.887 7.564-2.193 9.171z" fill="#F3AEAE"/><path d="M343.181 299.927c12.73 0 23.05-10.331 23.05-23.076 0-12.744-10.32-23.075-23.05-23.075s-23.049 10.331-23.049 23.075c0 12.745 10.319 23.076 23.049 23.076z" fill="#FBBEBE"/><path d="M331.389 328.534c1.202 1.257 2.475 2.502 4.049 3.239 1.603.663 3.324.991 5.058.964 4.155.117 8.659-.645 11.549-3.636 3.726-3.854 3.603-10.072 6.524-14.569.235-.408.556-.759.941-1.03a3.046 3.046 0 011.6-.369c3.689-.034 6.902 2.361 9.802 4.643 1.299 1.022 2.63 2.081 3.449 3.518a11.94 11.94 0 011.164 3.566c1.439 7.033 1.905 14.223 2.367 21.386.256 3.956.511 7.917.492 11.882-.062 13.062-3.095 25.906-6.111 38.614-.389 1.638-.92 3.468-2.408 4.252a5.922 5.922 0 01-2.101.514c-8.638 1.015-17.294 2.032-25.99 2.166a128.47 128.47 0 01-10.177-.246 5.473 5.473 0 01-1.714-.3 4.837 4.837 0 01-1.869-1.588c-4.704-5.935-4.982-14.139-4.952-21.714a876.332 876.332 0 011.983-55.521c.104-1.526.126-3.38-.973-4.58 1.979 3.17 4.73 6.102 7.317 8.809z" fill="#EEF7FF"/><path d="M326.507 301.89c-.779 1.411-6.518 4.914-7.626 6.084-6.191 6.532-17.49 6.287-23.153 13.284-1.992 2.462-3.027 5.556-3.788 8.631-1.076 4.349-1.651 9.093.152 13.194 1.736 3.946 5.389 6.674 7.869 10.199 2.723 3.87 3.948 8.57 5.121 13.156.866 3.386 1.74 6.856 1.403 10.335-.384 3.956-2.296 7.578-3.425 11.388-1.129 3.811-1.324 8.349 1.286 11.343 1.918 2.2 4.926 3.072 7.801 3.563a89.63 89.63 0 0011.119.969c3.287.145 6.909.173 9.436-1.936 1.994-1.664 2.86-4.365 2.972-6.961.113-2.597-.427-5.17-.765-7.747-.35-2.671-.485-5.365-.598-8.057a502.564 502.564 0 01-.207-36.254c.077-2.516.17-5.063-.366-7.523-.705-3.235-2.451-6.126-3.908-9.098-2.893-5.899-4.261-11.63-3.814-18.187.442-6.472 3.261-11.403.491-6.383zM358.875 302.382c1.185 1.22 5.215 1.622 6.723 2.408a23.52 23.52 0 004.42 1.531 57.366 57.366 0 0115.527 7.135 9.433 9.433 0 012.596 2.245c.844 1.175 1.15 2.641 1.436 4.06.739 3.663 1.481 7.37 1.315 11.102-.176 3.963-1.368 7.8-2.551 11.586l-4.419 14.144c-3.299 10.558-6.619 21.219-7.547 32.242a75.962 75.962 0 00.68 18.313c.097.609.179 1.306-.223 1.774a1.744 1.744 0 01-1.082.498c-2.133.334-4.197-.755-6.13-1.718a67.81 67.81 0 00-18.712-6.13 43.55 43.55 0 005.812-11.994 72.49 72.49 0 001.756-8.249l2.056-11.903a117.125 117.125 0 001.763-13.163c.156-1.658.059-3.33-.286-4.959a24.09 24.09 0 00-1.877-4.472c-3.388-7.055-4.978-15.107-3.645-22.82.583-3.376 1.717-6.756 1.244-10.149-.454-3.263.018-5.798-.818-9.027-3.433-13.256-.269-4.75 1.962-2.454z" fill="#0E8AFD"/><path d="M295.67 332.414c-1.545 3.209-4.127 5.942-5.006 9.394a20.495 20.495 0 00-.436 4.91c-.021 2.484-.035 5.018.727 7.382.491 1.522 1.289 2.926 1.864 4.418a16.046 16.046 0 011.048 6.545c-.155 3.091-1.204 6.092-1.286 9.185-.129 4.865 2.119 9.439 4.312 13.782a10.126 10.126 0 0110.585-6.266c1.464.175 2.872.668 4.126 1.445.578-.535.64-1.413.663-2.201.162-5.645.318-11.289.469-16.934.237-8.729.463-17.576-1.543-26.075-.905-3.837-2.315-7.659-4.898-10.636-1.36-1.567-5.978-5.695-8.211-3.939-1.005.789-.77 2.938-.929 4.027a17.101 17.101 0 01-1.485 4.963zM391.344 323.167c.73 2.277.774 4.711.789 7.103.029 4.879-.035 9.758-.194 14.636-.082 2.497-.194 5.028-.95 7.41-.499 1.57-1.269 3.042-1.784 4.607-1.543 4.69-.7 9.777-.568 14.714a16.697 16.697 0 01-.404 4.759c-.815 3.061-3.004 5.534-4.533 8.307-1.451 2.633-2.327 5.585-4.06 8.042-1.734 2.457-4.734 4.403-7.643 3.649-2.204-.571-3.77-2.524-4.853-4.529a22.234 22.234 0 01-2.294-14.408c1.088-5.992 4.603-11.307 5.871-17.263 1.741-8.179-.905-16.618-.826-24.98a12.093 12.093 0 01.525-3.873c.665-1.91 2.094-3.435 3.413-4.967a62.655 62.655 0 004.587-6.026c.945-1.41 2.227-5.038 3.902-5.339 3.739-.674 8.094 5.266 9.022 8.158z" fill="#0E8AFD"/><path d="M276.269 404.688a22.755 22.755 0 00-6.329-.673 15.774 15.774 0 00-6.415 1.759 15.81 15.81 0 00-8.25 16.882 26.54 26.54 0 002.508 6.86c1.678 3.41 3.691 6.812 6.799 8.997 1.817 1.279 3.921 2.076 5.999 2.86l16.365 6.171c2.408.908 4.815 1.816 7.247 2.658a141.586 141.586 0 0037.849 7.533c3.929.234 7.918.299 11.752-.596.909-.213 1.88-.53 2.406-1.302a4.13 4.13 0 00.538-1.778l1.007-7.057c.142-.994.278-2.04-.085-2.976-.462-1.186-1.618-1.932-2.72-2.566-10.759-6.186-23.321-9.599-32.377-18.089-2.132-1.998-3.916-5.167-6.506-6.524-2.937-1.54-6.396-2.419-9.432-3.837-6.637-3.102-13.163-6.666-20.356-8.322z" fill="#465C72"/><path opacity=".1" d="M292.606 414.203c5.785 1.815 30.206 14.385 34.392 18.774-.561.203-19.598-10.477-20.169-10.649-5.193-1.56-10.414-3.13-15.345-5.413-.992-.46-6.444-2.618-6.197-3.871.278-1.414 6.293.837 7.319 1.159z" fill="#000"/><path d="M364.768 461.395c.329.024.654-.072.917-.27a1.421 1.421 0 00.287-1.056l-.027-9.615c-2.762-1.317-5.851-1.74-8.883-2.145l-14.148-1.893c.325.043-2.212 6.1-1.823 6.909.685 1.425 5.925 2.688 7.404 3.361 5.141 2.339 10.483 4.911 16.273 4.709z" fill="#FBBEBE"/><path d="M320.379 450.421c-2.671.426-5.653.802-7.382 2.884-2.194 2.64-1.26 6.575-.214 9.846a4.25 4.25 0 00.91 1.791c.714.706 1.809.809 2.81.872 2.436.155 5.029.276 7.157-.92a31.509 31.509 0 002.781-2.069 17.795 17.795 0 015.111-2.34 51.624 51.624 0 0110.262-2.117 15.96 15.96 0 004.042-.713c1.284-.485 2.473-1.445 2.847-2.767.493-1.748-.522-3.529-1.495-5.061-1.212-1.909-2.495-3.919-4.302-5.324-2.637-2.05-3.941-.476-6.596.835a55.893 55.893 0 01-15.931 5.083z" fill="#FBBEBE"/><path d="M313.398 452.829l-16.961-5.018c-2.063-.611-4.161-1.226-6.312-1.225-2.151.002-4.402.708-5.797 2.347-1.315 1.545-1.692 3.657-2.02 5.661l-.701 4.286c-.356 2.178-.713 4.398-.393 6.581.321 2.184 1.435 4.365 3.37 5.422 2.347 1.282 5.224.656 7.843.12a85.292 85.292 0 0116.074-1.726c2.03-.024 4.16.001 5.954-.95 2.132-1.132 3.408-3.524 3.627-5.93.334-3.661-.885-8.444-4.684-9.568zM371.435 448.456c2.199-.386 4.14-1.637 6.247-2.375 2.965-1.04 6.179-1.04 9.321-1.028 1.154.004 2.382.03 3.342.67 1.384.922 1.739 2.768 1.974 4.416l1.42 9.942c.267 1.87.533 3.79.116 5.632-.416 1.843-1.671 3.619-3.497 4.094-2.218.577-4.392-.841-6.486-1.773-5.235-2.329-11.319-1.734-16.777-3.474-1.013-.323-2.097-.817-2.51-1.798a4.088 4.088 0 01-.196-1.718c.094-3.195-.58-7.559.381-10.613.865-2.746 4.211-1.975 6.665-1.975z" fill="#25323F"/><path d="M407.33 400.687a29.43 29.43 0 0110.376-.71c2.774.306 5.632 1.079 7.657 3.001 2.465 2.339 3.257 5.957 3.323 9.357a29.258 29.258 0 01-6.347 18.67 16.931 16.931 0 01-3.629 3.497 23.885 23.885 0 01-4.721 2.278l-36.648 14.471c-9.641 3.807-19.316 7.625-29.373 10.134a2.276 2.276 0 01-1.775.091 2.296 2.296 0 01-1.305-1.209 75.973 75.973 0 01-8.032-14.709.981.981 0 01-.203-.425.984.984 0 01.246-.88.987.987 0 01.394-.258l25.922-14.91c1.856-1.068 3.734-2.151 5.276-3.639a13.111 13.111 0 002.708-3.775c.538-1.124.588-3.775 1.274-4.606.672-.813 2.971-.877 4.032-1.197a36.353 36.353 0 004.39-1.662c5.799-2.596 10.962-6.37 16.521-9.41a42.35 42.35 0 019.914-4.109z" fill="#465C72"/><path opacity=".1" d="M392.635 411.822c-4.454 3.348-10.22 6.426-14.634 9.863-1.506 1.173-26.618 15.307-26.973 17.184 4.118.694 30.349-17.676 34.102-19.509 3.753-1.834 7.08-4.419 10.376-6.985.84-.654 4.401-2.619 1.989-3.35-1.358-.411-3.857 2.127-4.86 2.797z" fill="#000"/><path d="M368.205 256.399l-19.828-10.397-27.38 4.253-5.666 25.048 14.102-.543 3.94-9.202v9.051l6.507-.251 3.777-14.651 2.36 15.596 23.132-.473-.944-18.431zM363.779 307.782h-42.667v51.551h42.667v-51.551z" fill="#25323F"/><path d="M300.857 397.443c.98 1.464 2.128 2.896 3.701 3.686a7.24 7.24 0 006.363-.171 11.209 11.209 0 004.591-4.609c2.155-3.809 2.601-8.367 2.332-12.737-.269-4.369-1.201-8.672-1.613-13.03-.3-3.168-.324-6.355-.348-9.538a3.165 3.165 0 01.4-1.928c.477-.653 1.351-.833 2.126-1.063 4.349-1.294 7.235-5.374 9.305-9.416 1.382-2.699 2.583-5.649 2.317-8.67-.267-3.021-2.436-6.065-5.449-6.373-2.485-.254-4.779 1.326-6.571 3.067a28.22 28.22 0 00-8.251 16.506c-.393 3.072-.28 6.227-1.115 9.209-1.782 6.368-7.357 10.271-10.136 16.001-3.061 6.313-1.371 13.48 2.348 19.066zM382.901 373.118a12.038 12.038 0 01-6.74 6.484 9.303 9.303 0 01-5.86.359 6.507 6.507 0 01-4.292-3.844 10.375 10.375 0 01-.484-2.887c-.279-4.294-.171-8.718 1.387-12.729.601-1.546 1.411-3.013 1.885-4.604.466-1.836.705-3.723.71-5.618l.512-11.716a7.618 7.618 0 00-.174-2.54c-.51-1.695-2.093-2.797-3.545-3.808-3.507-2.441-6.972-5.29-8.672-9.213a6.48 6.48 0 01-.599-3.817c.479-2.326 2.825-3.832 5.142-4.339a11.489 11.489 0 0112.107 4.982 11.531 11.531 0 011.683 4.297c.229 1.322.226 2.672.36 4.008.285 2.832 1.183 5.562 1.745 8.352 1.384 6.873.667 13.978 2.036 20.851 1.144 5.745 5.459 9.495 2.799 15.782z" fill="#FBBEBE"/><path d="M490.035 463.864l-.981-.019a228.048 228.048 0 013.482-32.545c4.242-23.016 11.294-38.133 20.962-44.928l.564.803c-22.585 15.875-24.015 76.083-24.027 76.689zM502.296 463.629l-.981-.019c.021-1.087.634-26.715 10.712-33.799l.563.804c-9.671 6.798-10.289 32.753-10.294 33.014z" fill="#465C72"/><path d="M519.642 387.265a4.908 4.908 0 004.904-4.91 4.907 4.907 0 00-4.904-4.91 4.907 4.907 0 00-4.905 4.91 4.908 4.908 0 004.905 4.91zM517.213 429.487a4.907 4.907 0 004.904-4.909 4.907 4.907 0 00-4.904-4.91 4.906 4.906 0 00-4.904 4.91 4.906 4.906 0 004.904 4.909z" fill="#FF6584"/><path d="M500.01 390.208c.921 5.893-1.481 11.164-1.481 11.164s-3.896-4.284-4.818-10.177c-.922-5.894 1.48-11.165 1.48-11.165s3.897 4.284 4.819 10.178zM516.04 404.521c-5.636 1.935-11.239.486-11.239.486s3.534-4.588 9.171-6.523c5.636-1.936 11.24-.486 11.24-.486s-3.535 4.588-9.172 6.523zM516.221 441.913c-2.551.802-5.267.92-7.878.341a13.908 13.908 0 0114.307-4.913 15.27 15.27 0 01-6.429 4.572z" fill="#465C72"/><path d="M153.469 427.36c6.429 23.174 28.451 37.527 28.451 37.527s11.598-23.221 5.169-46.395c-6.43-23.175-28.452-37.528-28.452-37.528s-11.597 23.221-5.168 46.396z" fill="#8597A8"/><path d="M162.93 422.335c17.362 16.771 19.482 42.552 19.482 42.552s-26.028-1.41-43.39-18.181c-17.362-16.771-19.482-42.552-19.482-42.552s26.028 1.41 43.39 18.181z" fill="#F5F9FE"/></svg>