<svg width="256" height="289" viewBox="0 0 256 289" fill="none" xmlns="http://www.w3.org/2000/svg"><g clip-path="url(#clip0)"><path d="M219.813 137.366l3.358-2.684-18.805-16.773h-47.682v14.76l30.893 20.8 32.236-16.103z" fill="#EEF7FF"/><path opacity=".1" d="M219.813 137.366l3.358-2.684-18.805-16.773h-47.682v14.76l30.893 20.8 32.236-16.103z" fill="#465C72"/><path opacity=".1" d="M147.99 127.318v-9.074h6.331v2.222l2.363-2.557 15.446 16.773 6.044 4.026 9.372 68.406-14.134 14.121h-32.846v-85.882l7.424-8.035z" fill="#465C72"/><path d="M147.99 127.318v-9.074h6.331v2.222l2.363-2.557 15.446 16.773 6.044 4.026 9.372 68.406-14.134 14.121h-32.846v-85.882l7.424-8.035z" fill="#EEF7FF"/><path d="M172.131 134.682h51.04v86.552h-51.04v-86.552z" fill="#fff"/><path d="M193.957 200.1h9.402v21.135h-9.402V200.1z" fill="#8597A8"/><path d="M211.232 209.163h-3.966V200.1h3.966v9.063zM213.497 208.408V200.1h3.965v9.063h-3.965v-.755zM182.476 209.163h-3.965V200.1h3.965v9.063zM184.742 208.408V200.1h3.965v9.063h-3.965v-.755zM154.961 146.974h-3.399v-7.931h3.399V146.974zM157.51 146.313v-7.27h3.399v7.931h-3.399v-.661zM154.961 163.077h-3.399v-7.931h3.399V163.077zM157.51 162.416v-7.27h3.399v7.931h-3.399v-.661zM154.961 179.18h-3.399v-7.931h3.399V179.18zM157.51 178.519v-7.27h3.399v7.931h-3.399v-.661zM154.961 195.283h-3.399v-7.931h3.399V195.283zM157.51 194.622v-7.27h3.399v7.931h-3.399v-.661zM178.511 139.043h38.951v8.052h-38.951v-8.052zM178.511 155.146h38.951v8.052h-38.951v-8.052zM178.511 171.249h38.951v8.052h-38.951v-8.052zM178.511 187.352h38.951v8.051h-38.951v-8.051z" fill="#BBCFE2"/><path d="M234.488 165.797h.842v46.433h-.842v-46.433zM233.69 220.916H236.385c.376-2.485-.579-7.369-.804-8.464l-.047-.221h-1.078a.781.781 0 00-.169.252c-.741 1.585-.597 8.433-.597 8.433z" fill="#465C72"/><path d="M234.91 212.458c-.502 0-.909-.242-.909-.539 0-.298.407-.539.909-.539s.908.241.908.539c0 .297-.406.539-.908.539z" fill="#BBCFE2"/><path d="M238.903 158.318l-3.199-1.533-4.719 1.129 3.661-2.768 4.257 3.172z" fill="#0E8AFD"/><path d="M237.967 158.808l.937-.49-3.2-1.533-4.718 1.129.83.404 3.888-.873 2.263 1.363z" fill="#465C72"/><path opacity=".5" d="M238.096 158.446l-2.577 7.217h-1.277l-2.384-7.664 3.846-.894 2.392 1.341z" fill="#FF6584"/><path d="M233.611 163.631l.509 1.637.122.395h1.277l.096-.267.601-1.686-.966-.58-1.639.501z" fill="#0E8AFD"/><path opacity=".5" d="M235.705 157.445l-.611 8.218h.426l2.448-6.855-2.263-1.363z" fill="#FF6584"/><path opacity=".1" d="M234.646 155.146l1.058 1.639 3.199 1.533-4.257-3.172zM234.12 165.268l.121.395h1.279l.095-.267c-.145-.183-.456-.309-.819-.309a1.246 1.246 0 00-.676.181z" fill="#000"/><path d="M234.797 166.336c-.502 0-.909-.241-.909-.539 0-.298.407-.539.909-.539.501 0 .908.241.908.539 0 .298-.407.539-.908.539z" fill="#BBCFE2"/><path opacity=".3" d="M149.009 221.224l83.064-63.269 2.188 7.421-14.768 55.848h-70.484z" fill="#FF6584"/><path d="M177.692 122.335l3.96-3.165-22.174-19.78H103.25v17.407l36.429 24.527 38.013-18.989z" fill="#EEF7FF"/><path opacity=".1" d="M177.692 122.335l3.96-3.165-22.174-19.78H103.25v17.407l36.429 24.527 38.013-18.989z" fill="#465C72"/><path opacity=".1" d="M92.998 110.486v-10.7h7.465v2.62l2.786-3.015 18.215 19.779 7.127 4.748 11.052 80.666-16.667 16.651H84.243V119.962l8.755-9.476z" fill="#465C72"/><path d="M92.998 110.486v-10.7h7.465v2.62l2.786-3.015 18.215 19.779 7.127 4.748 11.052 80.666-16.667 16.651H84.243V119.962l8.755-9.476z" fill="#EEF7FF"/><path d="M121.464 119.17h60.188v102.064h-60.188V119.17z" fill="#fff"/><path d="M147.202 196.312h11.087v24.923h-11.087v-24.923z" fill="#8597A8"/><path d="M167.572 207h-4.676v-10.688h4.676V207zM170.244 206.109v-9.797h4.676V207h-4.676v-.891zM133.663 207h-4.676v-10.688h4.676V207zM136.335 206.109v-9.797h4.676V207h-4.676v-.891zM101.218 133.665H97.21v-9.352h4.008v9.352zM104.224 132.886v-8.573h4.008v9.352h-4.008v-.779zM101.218 152.654H97.21v-9.352h4.008v9.352zM104.224 151.875v-8.573h4.008v9.352h-4.008v-.779zM101.218 171.643H97.21v-9.352h4.008V171.643zM104.224 170.863v-8.572h4.008v9.352h-4.008v-.78zM101.218 190.632H97.21v-9.352h4.008V190.632zM104.224 189.852v-8.572h4.008v9.352h-4.008v-.78zM128.988 124.313h45.932v9.494h-45.932v-9.494zM128.988 143.302h45.932v9.494h-45.932v-9.494zM128.988 162.291h45.932v9.494h-45.932v-9.494zM128.988 181.28h45.932v9.494h-45.932v-9.494z" fill="#BBCFE2"/><path d="M192.931 151.977h1.052v58.01h-1.052v-58.01zM191.933 220.839h3.368c.469-3.104-.723-9.206-1.005-10.575l-.059-.275h-1.347a.972.972 0 00-.21.315c-.927 1.979-.747 10.535-.747 10.535z" fill="#465C72"/><path d="M193.458 210.272c-.627 0-1.135-.301-1.135-.673 0-.372.508-.674 1.135-.674s1.136.302 1.136.674c0 .372-.509.673-1.136.673z" fill="#BBCFE2"/><path d="M198.446 142.633l-3.997-1.915-5.895 1.411 4.574-3.458 5.318 3.962z" fill="#0E8AFD"/><path d="M197.278 143.246l1.17-.613-3.998-1.915-5.895 1.411 1.037.504 4.858-1.09 2.828 1.703z" fill="#465C72"/><path opacity=".5" d="M197.438 142.793l-3.219 9.016h-1.596l-2.978-9.574 4.805-1.117 2.988 1.675z" fill="#FF6584"/><path d="M191.835 149.271l.636 2.045.152.493h1.596l.119-.333.751-2.106-1.206-.725-2.048.626z" fill="#0E8AFD"/><path opacity=".5" d="M194.451 141.543l-.763 10.266h.531l3.059-8.563-2.827-1.703z" fill="#FF6584"/><path opacity=".1" d="M193.128 138.671l1.321 2.047 3.997 1.915-5.318-3.962zM192.47 151.316l.151.494h1.599l.118-.333c-.18-.229-.569-.386-1.023-.386a1.55 1.55 0 00-.845.225z" fill="#000"/><path d="M193.316 152.651c-.627 0-1.135-.302-1.135-.674 0-.372.508-.673 1.135-.673s1.135.301 1.135.673c0 .372-.508.674-1.135.674z" fill="#BBCFE2"/><path opacity=".3" d="M86.138 221.224l103.776-79.044 2.733 9.271-18.45 69.773H86.138z" fill="#FF6584"/><path d="M198.447 83.6c4.87 0 8.819-3.944 8.819-8.81 0-4.866-3.949-8.81-8.819-8.81-4.87 0-8.818 3.944-8.818 8.81 0 4.866 3.948 8.81 8.818 8.81z" fill="#FF6584"/><path d="M66.281 214.112c1.13 4.07 5.003 6.591 5.003 6.591s2.039-4.078.908-8.148c-1.13-4.071-5.002-6.591-5.002-6.591s-2.04 4.078-.909 8.148z" fill="#8597A8"/><path d="M67.885 213.094c3.106 2.999 3.485 7.609 3.485 7.609s-4.657-.252-7.763-3.251c-3.106-2.999-3.485-7.61-3.485-7.61s4.656.253 7.763 3.252z" fill="#F5F9FE"/><path d="M125.128 45.454c-10.42.048-18.901.202-18.901.202s10.081-13.341 18.863-8.398c8.782 4.942 18.869 8.224 18.869 8.224s-8.412-.076-18.831-.028zM28.247 65.778c-10.419.048-18.9.202-18.9.202s10.081-13.341 18.863-8.398c8.781 4.942 18.87 8.224 18.87 8.224s-8.413-.076-18.832-.028zM133.531 106.38l4.599-3.675-25.752-22.971H47.079v20.214l42.307 28.484 44.145-22.052z" fill="#EEF7FF"/><path opacity=".1" d="M133.531 106.38l4.599-3.675-25.752-22.971H47.079v20.214l42.307 28.484 44.145-22.052z" fill="#465C72"/><path opacity=".1" d="M35.172 92.62V80.192h8.67v3.043l3.236-3.502 21.153 22.971 8.278 5.513 12.834 93.68-19.356 19.337H25.005V103.624l10.168-11.005z" fill="#465C72"/><path d="M35.172 92.62V80.192h8.67v3.043l3.236-3.502 21.153 22.971 8.278 5.513 12.834 93.68-19.356 19.337H25.005V103.624l10.168-11.005z" fill="#EEF7FF"/><path d="M68.232 102.704h69.898v118.53H68.232v-118.53z" fill="#fff"/><path d="M98.122 192.291h12.876v28.944H98.122v-28.944z" fill="#8597A8"/><path d="M121.779 204.703h-5.43v-12.412h5.43v12.412zM124.882 203.669v-11.378h5.431v12.412h-5.431v-1.034zM82.4 204.703h-5.43v-12.412h5.43v12.412zM85.503 203.669v-11.378h5.43v12.412h-5.43v-1.034zM44.72 119.538h-4.655v-10.861h4.654V119.538zM48.21 118.633v-9.956h4.655v10.861H48.21v-.905zM44.72 141.59h-4.655v-10.861h4.654V141.59zM48.21 140.685v-9.956h4.655v10.861H48.21v-.905zM44.72 163.642h-4.655v-10.861h4.654V163.642zM48.21 162.737v-9.956h4.655v10.861H48.21v-.905zM44.72 185.694h-4.655v-10.86h4.654v10.86zM48.21 184.789v-9.955h4.655v10.86H48.21v-.905zM76.97 108.677h53.342v11.026H76.97v-11.026zM76.97 130.729h53.342v11.026H76.97v-11.026zM76.97 152.781h53.342v11.027H76.97v-11.027zM76.97 174.834h53.342v11.026H76.97v-11.026z" fill="#BBCFE2"/><path d="M150.365 135.887h1.296v71.489h-1.296v-71.489zM149.135 220.75h4.15c.578-3.826-.892-11.346-1.239-13.032l-.072-.34h-1.66a1.225 1.225 0 00-.26.388c-1.141 2.44-.919 12.984-.919 12.984z" fill="#465C72"/><path d="M151.013 207.727c-.773 0-1.399-.371-1.399-.83 0-.458.626-.83 1.399-.83s1.399.372 1.399.83c0 .459-.626.83-1.399.83z" fill="#BBCFE2"/><path d="M157.162 124.372l-4.926-2.36-7.265 1.739 5.636-4.262 6.555 4.883z" fill="#0E8AFD"/><path d="M155.72 125.127l1.442-.756-4.926-2.359-7.265 1.738 1.278.621 5.987-1.342 3.484 2.098z" fill="#465C72"/><path opacity=".5" d="M155.918 124.569l-3.968 11.111h-1.965l-3.671-11.799 5.922-1.377 3.682 2.065z" fill="#FF6584"/><path d="M149.013 132.552l.783 2.52.189.608h1.966l.147-.41.925-2.596-1.486-.894-2.524.772z" fill="#0E8AFD"/><path opacity=".5" d="M152.237 123.029l-.94 12.651h.654l3.77-10.553-3.484-2.098z" fill="#FF6584"/><path opacity=".1" d="M150.607 119.489l1.629 2.523 4.926 2.36-6.555-4.883zM149.796 135.072l.187.608h1.969l.146-.41c-.222-.281-.702-.475-1.261-.475a1.915 1.915 0 00-1.041.277z" fill="#000"/><path d="M150.839 136.717c-.773 0-1.399-.371-1.399-.83 0-.458.626-.83 1.399-.83.772 0 1.398.372 1.398.83 0 .459-.626.83-1.398.83z" fill="#BBCFE2"/><path opacity=".3" d="M18.756 221.224l127.889-97.411 3.368 11.425-22.737 85.986H18.756z" fill="#FF6584"/><path d="M256.001 220.703h-256v.776h256v-.776z" fill="#8597A8"/><path d="M39.148 167.482h-1.645v53.609h1.645v-53.609z" fill="#465C72"/><path d="M51.316 174.327c.086 18.709-13 33.937-13 33.937s-13.225-15.106-13.31-33.815c-.086-18.709 13-33.936 13-33.936s13.224 15.105 13.31 33.814z" fill="#F5F9FE"/><path d="M51.316 174.327c.086 18.709-13 33.937-13 33.937s-13.225-15.106-13.31-33.815c-.086-18.709 13-33.936 13-33.936s13.224 15.105 13.31 33.814z" fill="#8597A8"/><path d="M20.4 162.548h-1.644v58.543H20.4v-58.543z" fill="#465C72"/><path d="M34.214 169.882c.096 20.435-14.462 37.067-14.462 37.067S5.039 190.45 4.944 170.015c-.096-20.434 14.462-37.067 14.462-37.067s14.713 16.499 14.808 36.934z" fill="#F5F9FE"/></g><defs><clipPath id="clip0"><path fill="#fff" d="M0 0h256v288.722H0z"/></clipPath></defs></svg>