<svg width="256" height="256" xmlns="http://www.w3.org/2000/svg">

    <g>
        <title>Layer 1</title>
        <path stroke="null" id="svg_1" d="m128,60.24964c-24.90461,0 -45.16699,20.26238 -45.16699,45.16699c0,7.47636 1.86922,14.8892 5.42267,21.46416l37.27434,67.41399c0.49622,0.89875 1.44181,1.45557 2.46998,1.45557s1.97376,-0.55682 2.46998,-1.45557l37.2881,-67.43622c3.53969,-6.55273 5.40891,-13.96584 5.40891,-21.44219c0,-24.90434 -20.26238,-45.16673 -45.16699,-45.16673zm0,67.75036c-12.4523,0 -22.58336,-10.13106 -22.58336,-22.58336s10.13106,-22.58336 22.58336,-22.58336s22.58336,10.13106 22.58336,22.58336s-10.13106,22.58336 -22.58336,22.58336z"/>
    </g>
</svg>
