<svg width="134" height="29" viewBox="0 0 134 29" fill="none" xmlns="http://www.w3.org/2000/svg">
<path d="M77.8433 4.82545H77.584C76.5428 4.82545 75.5117 5.56308 75.5117 6.56864V12.9601H77.8433V4.82545ZM45.6712 16.9887C45.6712 18.0523 45.6712 19.1158 45.6712 20.1788C45.6712 20.656 45.2659 21.0469 44.7694 21.0469H40.0814C39.5849 21.0469 39.1782 20.6566 39.1782 20.1788V14.7336C38.0413 14.9353 36.8929 15.84 36.8929 16.9874V20.5274C36.8929 21.8337 38.3789 22.8235 39.6446 22.8235H45.2076C46.4719 22.8235 47.9593 21.8324 47.9593 20.5274V14.7336C46.8209 14.936 45.6712 15.84 45.6712 16.9887ZM39.599 10.6603V7.12155C39.599 5.81652 38.1116 4.82545 36.8473 4.82545H31.2843C30.0187 4.82545 28.5326 5.81589 28.5326 7.12155V10.6615C28.5326 11.9678 30.0187 12.9576 31.2843 12.9576H36.8473C38.1123 12.9576 39.599 11.9665 39.599 10.6603ZM37.3136 10.3116C37.3136 10.7889 36.9083 11.1797 36.4118 11.1797H31.7218C31.2267 11.1797 30.8213 10.7895 30.8213 10.3116V7.79045C30.8213 7.74821 30.8247 7.38886 30.83 7.34725C30.8991 6.8845 31.3098 6.60332 31.7218 6.60332H36.4118C36.9069 6.60332 37.3136 6.99357 37.3136 7.47018V10.3116ZM56.8334 12.9576H62.3964C63.6607 12.9576 65.1481 11.9665 65.1481 10.6603V7.12155C65.1481 5.81652 63.6621 4.82545 62.3964 4.82545H56.8334C55.5691 4.82545 54.0817 5.81589 54.0817 7.12155V10.6615C54.0824 11.9665 55.5685 12.9576 56.8334 12.9576ZM56.3691 7.79045C56.3691 7.74821 56.3725 7.3876 56.3792 7.34725C56.4482 6.8845 56.8589 6.60269 57.2709 6.60269H61.9609C62.4574 6.60269 62.8628 6.99293 62.8628 7.46955V10.3116C62.8628 10.7889 62.4574 11.1797 61.9609 11.1797H57.2709C56.7758 11.1797 56.3705 10.7895 56.3705 10.3116L56.3691 7.79045ZM69.5339 12.9576H73.6008V11.1804H70.5275C69.7524 11.1804 69.1152 10.5695 69.1152 9.82239V0H68.8546C67.7102 0 66.7823 0.892715 66.7823 1.99348V10.6603C66.7823 11.9665 68.2697 12.9576 69.5339 12.9576ZM24.4597 6.23829V11.082L18.1362 5.13626C17.8441 4.86202 17.6779 4.8286 17.5332 4.82987H17.5091H17.5111L15.9822 4.82545C14.943 4.82545 14.2214 5.23335 14.2214 6.23892V11.082L7.8993 5.13626C7.61254 4.8658 7.44571 4.82987 7.30367 4.82987L5.7754 4.82545C4.73556 4.82545 4.01598 5.56308 4.01598 6.56864V12.9601H6.34691V6.74202C6.34691 6.68275 6.34691 6.62601 6.34825 6.57116L12.2717 12.1866C12.6201 12.5169 13.0308 12.9696 13.5374 12.9601H15.6472C16.1711 12.9601 16.5544 12.2282 16.5544 11.7232V6.54279L22.5073 12.1866C22.8557 12.5169 23.2664 12.9696 23.7729 12.9601H25.8841C26.408 12.9601 26.7913 12.2282 26.7913 11.7232V6.41103C26.7839 5.04296 27.1658 4.89291 27.7494 4.8286L26.2191 4.82419C25.1786 4.82545 24.4597 5.23209 24.4597 6.23829ZM0 6.56864V12.9601H2.33294V4.82545H2.07365C1.03247 4.82545 0 5.56245 0 6.56864ZM108.009 17.8669H106.127C106.053 17.8625 105.978 17.8606 105.904 17.8606C104.914 17.8606 103.964 17.877 102.968 17.877C101.856 17.877 101.851 16.4692 102.968 16.4692H110.506V14.6907H102.531C101.266 14.6907 99.7811 15.6811 99.7811 16.9868V17.3525C99.7811 18.6588 101.266 19.6486 102.531 19.6486H104.425C104.497 19.653 104.566 19.6536 104.638 19.6536C105.61 19.6536 106.584 19.6372 107.574 19.6372C108.706 19.6372 108.737 21.045 107.575 21.045H99.7831V22.8235H108.012C109.278 22.8235 110.764 21.8324 110.764 20.5274V20.1617C110.76 18.8567 109.274 17.8669 108.009 17.8669ZM112.443 16.4358V22.8273H114.774V14.6926H114.515C113.475 14.6926 112.443 15.4296 112.443 16.4358ZM98.3185 14.6894H94.5986C93.5575 14.6894 92.5263 15.4271 92.5263 16.4326V22.8248H94.8579V17.8285C94.8579 17.082 95.4938 16.4705 96.2696 16.4705H99.0488V14.692H98.3185V14.6894ZM52.3491 10.6603V7.12155C52.3491 5.81652 50.8617 4.82545 49.5974 4.82545H44.0344C42.7688 4.82545 41.2827 5.81589 41.2827 7.12155V19.1328H41.5434C42.6877 19.1328 43.615 18.2401 43.615 17.1394V12.9242C43.7537 12.9456 43.8937 12.9582 44.0337 12.9582H49.5968C50.8617 12.9576 52.3491 11.9665 52.3491 10.6603ZM50.0611 10.3419C50.0443 10.8059 49.6457 11.1797 49.1606 11.1797H44.4706C43.9755 11.1797 43.5688 10.7895 43.5688 10.3116V7.46955C43.5688 6.99293 43.9755 6.60269 44.4706 6.60269H49.1867C49.6698 6.61593 50.0611 7.00113 50.0611 7.46955V10.3419ZM118.791 19.6889V16.4711H121.606V14.6926H119.208C119.071 14.6926 118.93 14.7052 118.791 14.7266V9.86715H118.53C117.386 9.86715 116.458 10.7599 116.458 11.8619V20.5287C116.458 21.835 117.944 22.8248 119.208 22.8248H122.251V21.0463H120.203C119.427 21.0463 118.791 20.4354 118.791 19.6889ZM134 14.7336C132.862 14.9353 131.715 15.8388 131.715 16.9874V20.1775C131.715 20.2437 131.707 20.3067 131.693 20.3692V20.371C131.6 20.7563 131.24 21.0463 130.813 21.0463H126.123C125.635 21.0463 125.234 20.668 125.222 20.2008V14.7342C124.085 14.936 122.934 15.8406 122.934 16.9881V20.528C122.934 21.8331 124.422 22.8241 125.686 22.8241H131.249C131.386 22.8241 131.527 22.8128 131.668 22.7901V27.0065C131.668 28.1073 132.597 29 133.74 29H134V14.7336ZM59.8477 16.1054V20.9492L53.5243 15.0034C53.2375 14.733 53.072 14.697 52.9287 14.697L51.4011 14.6926C50.3599 14.6926 49.6416 15.4302 49.6416 16.4358V22.8273H51.9726V16.6092C51.9726 16.5499 51.9726 16.4932 51.9739 16.4383L57.8974 22.0537C58.2444 22.3841 58.6565 22.8367 59.163 22.8273H61.2728C61.7968 22.8273 62.18 22.0953 62.18 21.5903V16.2782C62.1713 14.9101 62.5559 14.7601 63.1368 14.6958L61.6078 14.6913C60.5693 14.6926 59.8477 15.0992 59.8477 16.1054ZM63.8631 16.4358V22.8273H66.1947V14.6926H65.9354C64.8942 14.6926 63.8631 15.4296 63.8631 16.4358ZM87.9817 7.99976H86.1004C86.026 7.99535 85.951 7.99346 85.8766 7.99346C84.887 7.99346 83.9369 8.00985 82.9406 8.00985C81.8291 8.00985 81.8244 6.60206 82.9406 6.60206H90.4788V4.82545H82.5038C81.2382 4.82545 79.7534 5.81589 79.7534 7.12155V7.48721C79.7534 8.7935 81.2382 9.7833 82.5038 9.7833H84.3972C84.4676 9.78771 84.5386 9.78834 84.6089 9.78834C85.5811 9.78834 86.5566 9.77195 87.5449 9.77195C88.6772 9.77195 88.708 11.1797 87.5462 11.1797H79.7521V12.9582H87.981C89.2467 12.9582 90.7327 11.9672 90.7327 10.6609V10.2965C90.7334 8.98956 89.2473 7.99976 87.9817 7.99976ZM76.5984 15.7309L73.1868 20.7146L69.7745 15.7309C69.0844 14.5823 67.6653 14.692 66.6 14.692L71.2505 21.5739C71.7208 22.2687 72.2575 22.7472 72.9322 22.8147C73.7563 22.8966 74.5007 22.4938 75.1224 21.5739C76.5549 19.4537 78.2118 17 79.7729 14.692C78.7491 14.6958 77.3381 14.5596 76.5984 15.7309ZM82.9165 19.6391C83.9048 19.6391 84.8803 19.6555 85.8525 19.6555C85.9228 19.6555 85.9938 19.6536 86.0642 19.6504H87.9576C89.2232 19.6504 90.7079 18.66 90.7079 17.3544V16.9887C90.7079 15.6824 89.2232 14.6926 87.9576 14.6926H82.4777C81.212 14.6926 79.7273 15.683 79.7273 16.9887V20.5287C79.7273 21.835 81.2147 22.8248 82.4797 22.8248C85.222 22.8248 87.965 22.8248 90.7086 22.8248V21.0463H82.9145C81.8003 21.0463 81.8003 19.6391 82.9165 19.6391ZM82.0221 17.1709H82.0288C82.1098 16.7724 82.477 16.4698 82.9138 16.4698H87.5201C88.6363 16.4698 88.6316 17.8776 87.5201 17.8776L82.4783 17.8675C82.3276 17.8675 82.1755 17.882 82.0227 17.9079L82.0221 17.1709Z" fill="#333333"/>
</svg>
