<svg width="725" height="394" viewBox="0 0 725 394" fill="none" xmlns="http://www.w3.org/2000/svg"><path d="M431.591 270.285h-2.689v5.371h2.689v-5.371z" fill="#BBCFE2"/><path fill-rule="evenodd" clip-rule="evenodd" d="M429.29 270.672h1.913v4.597h-1.913v-4.597zm2.301-.387v5.371h-2.689v-5.371h2.689z" fill="#BBCFE2"/><path d="M431.591 294.451h-2.689v5.372h2.689v-5.372z" fill="#BBCFE2"/><path fill-rule="evenodd" clip-rule="evenodd" d="M429.29 294.838h1.913v4.598h-1.913v-4.598zm2.301-.387v5.372h-2.689v-5.372h2.689z" fill="#BBCFE2"/><path d="M509.396 304.485h-2.689v5.37h2.689v-5.37z" fill="#BBCFE2"/><path fill-rule="evenodd" clip-rule="evenodd" d="M507.094 304.872h1.914v4.597h-1.914v-4.597zm2.302-.387v5.37h-2.689v-5.37h2.689z" fill="#BBCFE2"/><path d="M503.138 302.276h-2.689v5.369h2.689v-5.369z" fill="#BBCFE2"/><path fill-rule="evenodd" clip-rule="evenodd" d="M500.837 302.663h1.913v4.595h-1.913v-4.595zm2.301-.387v5.369h-2.689v-5.369h2.689z" fill="#BBCFE2"/><path d="M353.829 302.276h-2.688v5.369h2.688v-5.369z" fill="#BBCFE2"/><path fill-rule="evenodd" clip-rule="evenodd" d="M351.528 302.663h1.914v4.595h-1.914v-4.595zm2.301-.387v5.369h-2.688v-5.369h2.688z" fill="#BBCFE2"/><path d="M494.51 300.444h-2.69v5.369h2.69v-5.369z" fill="#BBCFE2"/><path fill-rule="evenodd" clip-rule="evenodd" d="M492.208 300.831h1.915v4.596h-1.915v-4.596zm2.302-.387v5.369h-2.69v-5.369h2.69z" fill="#BBCFE2"/><path d="M485.876 298.927h-2.688v5.371h2.688v-5.371z" fill="#BBCFE2"/><path fill-rule="evenodd" clip-rule="evenodd" d="M483.575 299.314h1.913v4.597h-1.913v-4.597zm2.301-.387v5.371h-2.688v-5.371h2.688z" fill="#BBCFE2"/><path d="M474.97 297.792h-2.689v5.37h2.689v-5.37z" fill="#BBCFE2"/><path fill-rule="evenodd" clip-rule="evenodd" d="M472.669 298.179h1.913v4.596h-1.913v-4.596zm2.301-.387v5.37h-2.689v-5.37h2.689z" fill="#BBCFE2"/><path d="M464.063 295.391h-2.688v5.37h2.688v-5.37z" fill="#BBCFE2"/><path fill-rule="evenodd" clip-rule="evenodd" d="M461.762 295.778h1.914v4.596h-1.914v-4.596zm2.301-.387v5.37h-2.688v-5.37h2.688z" fill="#BBCFE2"/><path d="M464.063 271.223h-2.688v5.37h2.688v-5.37z" fill="#BBCFE2"/><path fill-rule="evenodd" clip-rule="evenodd" d="M461.762 271.61h1.914v4.596h-1.914v-4.596zm2.301-.387v5.37h-2.688v-5.37h2.688z" fill="#BBCFE2"/><path d="M452.114 270.285h-2.688v5.371h2.688v-5.371z" fill="#BBCFE2"/><path fill-rule="evenodd" clip-rule="evenodd" d="M449.813 270.672h1.914v4.597h-1.914v-4.597zm2.301-.387v5.371h-2.688v-5.371h2.688z" fill="#BBCFE2"/><path d="M452.114 294.451h-2.688v5.372h2.688v-5.372z" fill="#BBCFE2"/><path fill-rule="evenodd" clip-rule="evenodd" d="M449.813 294.838h1.914v4.598h-1.914v-4.598zm2.301-.387v5.372h-2.688v-5.372h2.688z" fill="#BBCFE2"/><path fill-rule="evenodd" clip-rule="evenodd" d="M525.477 310.586v-9.559c.81-.413 1.513-1.031 1.513-1.984 0-.967-.733-1.583-1.513-1.981v-4.974c.774-.582 1.513-1.422 1.513-2.547 0-1.149-.764-1.988-1.513-2.548v-3.803c1.005-.987 1.513-2.044 1.513-3.153s-.502-2.154-1.513-3.142v-2.561c1.005-1.217 1.513-2.489 1.513-3.799 0-1.312-.508-2.584-1.513-3.801v-2.282c.23-.153.414-.32.558-.477.999-1.09.978-2.615.955-2.992-.011-1.516-.518-2.991-1.513-4.421v-1.969c0-2.323-.602-4.622-1.739-6.646a13.537 13.537 0 00-4.791-4.944c-2.738-1.651-6.11-3.204-10.023-4.614-3.026-1.089-6.388-2.097-10.046-3.012v-7.465l-19-4.369v8.273c-14.306-1.958-31.317-2.948-50.761-2.948-19.146 0-36.168 1.011-50.842 3.011v-8.336l-19.002 4.369v7.416c-13.508 3.176-21.219 6.846-25.356 9.421a9.901 9.901 0 00-4.665 8.405v4.133c-.699 1.218-1.053 2.467-1.053 3.744 0 1.269.354 2.52 1.053 3.739v2.578c-.698 1.029-1.053 2.095-1.053 3.187 0 1.091.354 2.158 1.053 3.188v3.667c-.703.841-1.053 1.721-1.053 2.647 0 .926.354 1.811 1.053 2.654v4.686c-.572.537-1.053 1.254-1.053 2.164 0 .909.481 1.626 1.053 2.161v5.628c-.585.393-1.053.942-1.053 1.713 0 .79.478 1.338 1.053 1.72V314.078h196.225v-3.492zm-190.245-58.858v-3.646a6.415 6.415 0 00-2.485 5.072v.294a25.85 25.85 0 012.485-1.72zm39.548-19.348v-4.452l-12.011 2.763v3.856c3.795-.808 7.8-1.53 12.011-2.167zm120.603-1.689l-12.011-2.763v4.393c2.954.452 5.787.948 8.49 1.486 1.199.24 2.372.488 3.521.744v-3.86zm22.329 19.769v-4.095a10.062 10.062 0 00-.573-.374 36.204 36.204 0 00-1.481-.845v4.308a48.73 48.73 0 012.054 1.006zm2.689 1.545c.514.329 1 .66 1.453.993a10.071 10.071 0 00-1.453-3.823v2.83zm0 17.632v4.235a29.77 29.77 0 011.582.711v-7.484a16.516 16.516 0 00-1.582-1.078v.93h-2.689v-2.344a42.613 42.613 0 00-2.054-.883v.448h-2.688v-1.445a78.906 78.906 0 00-3.828-1.206h-2.431v-.672c-5.066-1.336-11.097-2.55-17.948-3.603-17.251-2.649-38.974-4.108-61.168-4.108-26.109 0-50.642 1.941-69.08 5.465-6.092 1.164-11.278 2.455-15.497 3.855v1.525h-2.688v-.568c-.853.327-1.657.659-2.409.996v2.415h-2.689v-1.06c-.992.569-1.824 1.143-2.485 1.712v7.337a28.091 28.091 0 012.485-1.123v-4.182h2.689v3.22a67.29 67.29 0 012.409-.731v-5.33h2.688v4.617a133.337 133.337 0 018.124-1.725v-7.566h2.688v7.094c1.361-.228 2.772-.45 4.235-.668 18.582-2.758 43.276-4.276 69.53-4.276.435 0 .872 0 1.306.002v-9.974h2.689v9.984c6.06.037 12.024.153 17.835.347v-10.331h2.689v10.428c3.137.118 6.228.261 9.262.425v-9.915h2.687v10.068c2.795.165 5.538.35 8.219.553v-8.221h2.688v8.434c2.813.229 5.556.481 8.219.753v-8.05h2.689v8.335c2.031.223 4.014.458 5.941.706v-7.526h2.69v7.883a246.63 246.63 0 015.942.892v-6.943h2.687v7.402c1.237.219 2.427.444 3.573.672v-5.863h2.687v6.43c1.255.278 2.447.561 3.572.852v-4.63h2.688v5.372c.718.213 1.403.428 2.054.647v-3.24h2.689zm-185.169 17.82a23.057 23.057 0 00-2.485.899v7.739c.727-.166 1.556-.33 2.485-.49v-1.927h2.689v1.51c.758-.107 1.562-.212 2.409-.314v-4.038h2.688v3.732c2.42-.258 5.131-.503 8.124-.736v-7.669h2.688v7.468c1.395-.099 2.845-.197 4.347-.291 18.547-1.167 43.2-1.81 69.418-1.81h1.306v-11.007l-.652-.001h-.654c-25.469 0-49.584 1.028-67.903 2.894-6.572.669-12.156 1.421-16.674 2.243v2.493h-2.688v-1.969a74.05 74.05 0 00-2.409.542v4.268h-2.689v-3.536zm137.419-5.779a684.723 684.723 0 00-8.588-.414v10.704c2.795.07 5.538.149 8.219.235v-10.525h.369zm-11.275-.524c-3.034-.118-6.125-.22-9.262-.305v10.874c3.138.051 6.228.111 9.262.18v-10.749zm-11.951 10.528V280.78a919.163 919.163 0 00-17.835-.249v11.004c6.06.014 12.025.064 17.835.147zm68.287 3.57v-1.448h2.689v1.878c.568.103 1.094.207 1.582.311v-7.83a23.039 23.039 0 00-1.582-.567v3.524h-2.689v-4.285a73.153 73.153 0 00-2.054-.482v1.987h-2.688v-2.534c-1.121-.21-2.312-.418-3.572-.621v.504h-2.687v-.915a266.947 266.947 0 00-11.212-1.358c-6.23-.635-13.133-1.172-20.529-1.605v10.482c2.813.098 5.556.205 8.219.321v-9.798h2.689v9.92c2.032.094 4.014.194 5.941.299v-8.703h2.69v8.856a534.484 534.484 0 015.942.379v-7.404h2.687v7.599c1.238.093 2.428.189 3.573.287v-5.676h2.687v5.918c1.256.117 2.448.239 3.572.364v-3.628h2.688v3.946c.72.09 1.404.185 2.054.279zm-182.48-18.648c-1.029.453-1.847.892-2.485 1.304v7.556c1.156-.431 2.552-.853 4.176-1.259a78.027 78.027 0 013.407-.765v-.66h2.688v.15c2.424-.43 5.134-.842 8.124-1.231v-3.592h2.688v3.256c1.378-.166 2.808-.327 4.29-.484 18.565-1.961 43.239-3.041 69.475-3.041 15.793 0 31.018.391 44.687 1.131v-5.345h2.688v5.37h-2.218c3.595.197 7.08.418 10.437.662v-4.896h2.689v5.099c2.032.16 4.014.328 5.941.503v-4.086h2.69v4.342a352.853 352.853 0 015.942.637v-3.148h2.687v3.474c1.238.156 2.427.317 3.573.481v-1.745h2.687v2.149c1.255.198 2.448.401 3.572.609v-.105h2.688v.636c.926.197 1.796.396 2.609.599a41.71 41.71 0 013.716 1.093v-7.674a18.773 18.773 0 00-1.582-.82v6.26h-2.689v-7.346l-.216-.078a50.405 50.405 0 00-1.838-.604v5.249h-2.688v-6.021c-1.118-.3-2.31-.591-3.572-.877v4.245h-2.687v-4.823a150.87 150.87 0 00-3.573-.684v3.297h-2.687v-3.761a231.054 231.054 0 00-5.942-.903v2.832h-2.69v-3.193c-1.926-.25-3.908-.487-5.941-.713v2.39h-2.689v-2.677a407.04 407.04 0 00-8.219-.758v2.299h-2.688v-2.513a474.474 474.474 0 00-8.219-.556v.669h-2.687v-.823a574.869 574.869 0 00-9.262-.428v.312h-2.689v-.407a643.121 643.121 0 00-17.835-.349v.756h-2.689v-.767l-1.306-.001c-26.126 0-50.68 1.508-69.136 4.246-1.607.24-3.149.484-4.629.736v3.609h-2.688v-3.131c-3.011.559-5.722 1.148-8.124 1.764v6.04h-2.688v-5.3c-.852.251-1.655.507-2.409.767v7.375h-2.689v-6.333zm2.689-23.335v5.5h-2.689v-3.825c-.909.646-1.772 1.362-2.485 2.133v7.061a26.34 26.34 0 012.485-1.422v-1.262h2.689v.031a58.2 58.2 0 012.409-.936v-1.936h2.688v1.022c2.429-.774 5.14-1.514 8.124-2.215v-3.48h2.688v2.875c1.344-.292 2.737-.574 4.179-.85 18.601-3.554 43.314-5.512 69.586-5.512l1.306.001v-4.337h2.689v4.352c6.089.046 12.052.199 17.835.449v-4.801h2.689v4.925c3.145.154 6.237.338 9.262.548v-4.535h2.687v4.732c2.803.214 5.545.452 8.219.713v-3.045h2.688v3.317c2.824.298 5.567.621 8.219.969v-3.149h2.689v3.514c2.039.288 4.021.59 5.941.907v-2.905h2.69v3.365c2.062.366 4.044.75 5.942 1.15v-2.683h2.687v3.273c1.233.282 2.424.571 3.573.867v-1.93h2.687v2.659c1.25.356 2.443.721 3.572 1.095v-1.101h2.688v2.052c.717.272 1.401.546 2.054.826v-.1h2.689v1.369c.562.295 1.089.594 1.582.896v-7.24a16.819 16.819 0 00-1.582-1.339v3.629h-2.689v-5.377c-.142-.081-.282-.161-.422-.238a40.978 40.978 0 00-1.632-.851v3.686h-2.688V251.2a67.469 67.469 0 00-3.572-1.392v3.657h-2.687v-4.574c-1.142-.369-2.332-.73-3.573-1.083v3.446h-2.687v-4.18a149.239 149.239 0 00-5.942-1.427v3.775h-2.69v-4.347a205.895 205.895 0 00-5.941-1.123v3.955h-2.689v-4.409a262.282 262.282 0 00-8.219-1.198v4.47h-2.688v-4.808a316.37 316.37 0 00-8.219-.878v3.286h-2.687v-3.528a357.085 357.085 0 00-9.262-.674v3.264h-2.689v-3.417a408.674 408.674 0 00-17.835-.549v3.966h-2.689v-3.983l-1.306-.003c-26.091 0-50.605 2.373-69.027 6.68-1.645.385-3.226.781-4.738 1.189v3.939h-2.688v-3.183c-3.016.886-5.727 1.82-8.124 2.797v5.06h-2.688v-3.884c-.854.402-1.657.81-2.409 1.225zm0-3.037a50.623 50.623 0 012.409-1.138v-3.839c-.893.422-1.694.828-2.409 1.213v3.764zm5.097-2.253c2.43-.946 5.142-1.847 8.124-2.703v-4.135c-3.191.991-5.877 1.98-8.124 2.919v3.919zm84.577-11.218l1.306.002v-4.403c-37.197.014-60.65 3.88-75.071 7.982v4.193c1.327-.349 2.703-.691 4.126-1.023 18.617-4.353 43.349-6.751 69.639-6.751zm3.995.018c6.059.057 12.024.242 17.835.548v-4.571a489.11 489.11 0 00-17.835-.391v4.414zm20.524.699c3.137.187 6.228.411 9.262.669v-4.719a373.816 373.816 0 00-9.262-.552v4.602zm11.949.91c2.795.259 5.536.551 8.219.871v-4.853a301.343 301.343 0 00-8.219-.773v4.755zm10.907 1.205c2.813.361 5.556.757 8.219 1.185v-4.952a233.186 233.186 0 00-8.219-1.116v4.883zm10.908 1.633c2.031.351 4.014.719 5.941 1.109v-4.976a180.227 180.227 0 00-5.941-1.101v4.968zm11.357 2.286c1.101.257 2.172.519 3.216.788v-4.906a129.65 129.65 0 00-5.942-1.462v4.966c.921.199 1.831.405 2.726.614zm15.735.29a63.12 63.12 0 00-3.572-1.509v4.668c1.254.435 2.445.879 3.572 1.334v-4.493zm-9.832 1.217c1.237.344 2.427.696 3.573 1.055v-4.763a94.014 94.014 0 00-3.573-1.148v4.856zm-167.906 65.48v-.709h2.689v.709h2.409v-3.551h2.688v3.551h8.124v-.169h2.688v.169h75.071v-7.99h2.689v7.99h17.835v-7.99h2.689v7.99h9.262v-7.052h2.687v7.052h8.219v-4.652h2.688v4.652h8.219v-3.515h2.689v3.515h5.941v-2h2.69v2h5.942v-.169h2.687v.169h9.832v-3.36h2.688v3.36h2.054v-.582h2.689v.582h1.582v-11.752c-.447-.103-.97-.212-1.582-.328v8.813h-2.689v-9.261c-.625-.092-1.31-.189-2.054-.285v6.766h-2.688v-7.091a225.575 225.575 0 00-3.572-.371v4.811h-2.687v-5.055c-1.119-.097-2.31-.194-3.573-.291v3.135h-2.687v-3.33c-1.838-.13-3.815-.257-5.942-.383v1.881h-2.69v-2.034a815.956 815.956 0 00-5.941-.301v.82h-2.689v-.939a904.229 904.229 0 00-8.219-.322v.124h-2.688v-.214c-13.693-.443-28.954-.678-44.687-.678-24.93 0-48.68.591-66.873 1.66-2.5.148-4.79.297-6.892.45v3.266h-2.688v-3.064c-3.173.25-5.855.5-8.124.748v6.99h-2.688v-6.68c-.881.109-1.681.217-2.409.322v9.199h-2.689v-8.768c-1.05.19-1.859.364-2.485.521v11.641h2.485z" fill="#BBCFE2"/><path d="M882 394H1.15s-18.753-1.191 95.158-58.137 205.623-23.858 325.376-23.858c119.752 0 190.435-60.309 311.355-58.983C853.96 254.347 882 312.005 882 312.005V394z" fill="#fff"/><path d="M168 268.932c0 11.989 8.059 16.175 18 16.175s18-4.186 18-16.175c0-11.99-18-27.243-18-27.243s-18 15.253-18 27.243z" fill="#F5F9FE"/><path d="M186.68 280.966l-.185-9.162-7.72-11.335 7.69 9.898-.083-4.12-5.32-8.201 5.298 7.111-.15-7.41-3.333-4.806 3.333 4.32-.117-10.19.589 13.91 3.787-4.615-3.743 5.298.54 8.275.016-.22 6.677-7.488-6.657 8.264.068 1.035.012.016-.006.085 1.369 35.981h-1.829l-.22-25.83-6.64-8.245 6.624 7.429z" fill="#465C72"/><path d="M544 260.681c0 7.993 5.373 10.784 12 10.784s12-2.791 12-10.784-12-18.161-12-18.161-12 10.168-12 18.161z" fill="#8597A8"/><path d="M556.451 268.706l-.123-6.109-5.146-7.557 5.126 6.599-.055-2.747-3.547-5.467 3.532 4.741-.1-4.94-2.222-3.204 2.222 2.88-.078-6.794.392 9.274 2.526-3.077-2.496 3.532.36 5.517.011-.147 4.451-4.992-4.438 5.51.045.69.008.01-.004.057.913 23.987h-1.219l-.147-17.22-4.427-5.496 4.416 4.953z" fill="#465C72"/><path d="M663 216.999c0 12.323 8.283 16.625 18.5 16.625s18.5-4.302 18.5-16.625S681.5 189 681.5 189 663 204.676 663 216.999z" fill="#F5F9FE"/><path d="M682.202 229.368l-.19-9.417-7.934-11.65 7.904 10.173-.086-4.234-5.468-8.429 5.445 7.308-.154-7.615-3.425-4.939 3.425 4.439-.12-10.473.605 14.297 3.893-4.744-3.847 5.445.554 8.505.017-.225 6.863-7.697-6.842 8.494.069 1.064.012.016-.005.087 1.407 36.981h-1.88l-.226-26.548-6.825-8.473 6.808 7.635z" fill="#465C72"/><path d="M545.999 100.168c-16.017 0-29-12.983-29-29 0-16.016 12.983-29 29-29 16.016 0 29 12.984 29 29 0 16.017-12.984 29-29 29z" fill="#FF6584"/><path d="M527.399 111.19a29.931 29.931 0 014.563-15.882 30.06 30.06 0 0112.305-11.064 30.16 30.16 0 0131.687 3.274 32.55 32.55 0 0114.142-9.503 32.64 32.64 0 0117.02-1.07 32.58 32.58 0 0115.226 7.66 32.441 32.441 0 019.253 14.283 24.302 24.302 0 0110.284-5.402 24.343 24.343 0 0111.624-.016 24.3 24.3 0 0110.299 5.374 24.222 24.222 0 016.612 9.532 24.14 24.14 0 01-2.707 22.344 24.25 24.25 0 01-8.698 7.689 24.34 24.34 0 01-12.412 2.748c-.385.016-.772.027-1.161.027h-91.122a26.436 26.436 0 01-17.733-6.828 26.282 26.282 0 01-8.531-16.939 30.104 30.104 0 01-.651-6.227zM368 68.115c0-3.448.959-6.827 2.767-9.752a18.304 18.304 0 017.46-6.794 18.086 18.086 0 0119.212 2.01 19.721 19.721 0 018.574-5.835 19.55 19.55 0 0110.319-.657 19.665 19.665 0 019.232 4.703 19.949 19.949 0 015.61 8.771 14.664 14.664 0 016.235-3.317 14.58 14.58 0 017.048-.01 14.671 14.671 0 016.244 3.3 14.876 14.876 0 014.009 5.853 15 15 0 01.854 7.064 14.945 14.945 0 01-2.496 6.656 14.765 14.765 0 01-5.273 4.721 14.605 14.605 0 01-7.525 1.687c-.234.01-.468.017-.704.017h-55.248a15.91 15.91 0 01-10.751-4.193 16.21 16.21 0 01-5.172-10.4 18.673 18.673 0 01-.395-3.824zM600.267 14.085c0-2.266.61-4.487 1.761-6.409a11.796 11.796 0 014.748-4.464 11.19 11.19 0 016.294-1.166 11.347 11.347 0 015.931 2.487 12.549 12.549 0 015.456-3.835c2.114-.75 4.38-.899 6.567-.431a12.375 12.375 0 015.875 3.09 13.17 13.17 0 013.57 5.764 9.243 9.243 0 013.968-2.18 8.994 8.994 0 014.485-.007 9.24 9.24 0 013.973 2.169 9.78 9.78 0 012.551 3.846c.539 1.479.726 3.072.544 4.643a10.026 10.026 0 01-1.588 4.373 9.505 9.505 0 01-3.356 3.103 9.062 9.062 0 01-4.789 1.108c-.148.007-.298.011-.448.011h-35.157c-2.53 0-4.969-.982-6.842-2.755-1.873-1.773-3.047-4.21-3.291-6.835a12.61 12.61 0 01-.252-2.513z" fill="#fff"/></svg>