<svg width="256" height="289" viewBox="0 0 256 289" fill="none" xmlns="http://www.w3.org/2000/svg"><g clip-path="url(#clip0)"><path d="M241.873 195.491H7.758v.776h234.115v-.776z" fill="#8597A8"/><path d="M241.873 145.009c-3.87 10.634-12.06 19.826-25.004 24.282-26.901 9.259-87.569 4.483-132.848-.998-23.416-2.835-44.003-10.657-58.957-21.673l216.809-1.611zM4.432 94.954h24.843c1.182 0 2.148-.62 2.148-1.38 0-.758-.966-1.379-2.148-1.379H24.99c1.18 0 2.148-.62 2.148-1.38 0-.758-.968-1.38-2.148-1.38h3.067c1.18 0 2.148-.62 2.148-1.379 0-.758-.968-1.38-2.148-1.38H15.09a49.642 49.642 0 0110.116-1.79c35.356-2.92 47.979-.989 52.423.998a66.024 66.024 0 0018.164 5.122c21.827 2.888 62.625 6.37 99.601-1.11 18.378-3.723 32.035 2.568 40.223 13.08H.118c.308-3.056 1.228-5.877 2.918-8.346.431.223.91.334 1.396.324zM243.983 122.814c.953 6.185.624 12.5-.966 18.553l-218.12 5.129c-6.038-4.469-11.154-9.463-15.154-14.862l234.24-8.82zm-86.272 13.235h4.295c-1.182 0-2.148.62-2.148 1.379s.966 1.38 2.148 1.38h24.852c1.182 0 2.148-.621 2.148-1.38 0-.759-.966-1.379-2.148-1.379h-4.295c1.182 0 2.148-.621 2.148-1.38 0-.759-.966-1.38-2.148-1.38h3.058c1.182 0 2.148-.62 2.148-1.379s-.966-1.38-2.148-1.38h-24.843c-1.18 0-2.145.623-2.145 1.38 0 .756.965 1.379 2.145 1.379h-3.067c-1.18 0-2.146.624-2.146 1.38 0 .756.966 1.38 2.146 1.38zM.111 103.063l238.135 3.725a43.786 43.786 0 015.702 15.814H4.284a46.336 46.336 0 01-3.449-10.08c-.726-3.299-1.011-6.488-.724-9.459zm195.484 12.205h4.3c-1.182 0-2.148.623-2.148 1.379 0 .757.966 1.38 2.148 1.38h24.831c1.18 0 2.146-.621 2.146-1.38 0-.758-.966-1.379-2.146-1.379h-4.295c1.182 0 2.148-.621 2.148-1.38 0-.759-.966-1.379-2.148-1.379h3.079c1.182 0 2.148-.621 2.148-1.38 0-.759-.966-1.379-2.148-1.379h-24.832c-1.181 0-2.147.62-2.147 1.379s.966 1.38 2.147 1.38h-3.083c-1.182 0-2.147.623-2.147 1.379 0 .757.97 1.38 2.147 1.38z" fill="#EEF7FF"/><path d="M235.616 135.913c0 18.708-12.559 25.24-28.053 25.24-15.493 0-28.052-6.532-28.052-25.24 0-18.707 28.052-42.506 28.052-42.506s28.053 23.799 28.053 42.506z" fill="#F5F9FE"/><path d="M206.503 154.692l.289-14.297 12.031-17.687-11.985 15.444.13-6.428 8.291-12.796-8.257 11.095.234-11.562 5.194-7.498-5.194 6.74.183-15.9-.918 21.705-5.903-7.201 5.834 8.266-.842 12.912-.025-.342-10.406-11.685 10.375 12.895-.105 1.615-.019.024.008.133-2.134 56.142h2.851l.343-40.303 10.349-12.864-10.324 11.592z" fill="#465C72"/><path d="M77.6 153.134s-1.983 3.757-2.14 4.293a.724.724 0 01-.67.535s-1.978.473-2.451.536c-.473.063-4.57.41-4.57.41s-1.04.032-1.167-.347c-.115-.345-2.125-2.164-3.288-.577a1.16 1.16 0 00-.169 1.032c.215.681.654 1.762 1.124 1.09.662-.946 1.431-.68 1.431-.176s1.06.317 1.406.388c.187.039.84.212 1.402.363.654.176 1.323.287 1.998.332 1.117.073 2.763.133 3.346-.088a9.088 9.088 0 012.46-.342.812.812 0 00.479-.173 7.495 7.495 0 001.82-2.069c.82-1.419 2.507-4.356 2.393-5.207-.114-.851-3.404 0-3.404 0z" fill="#FBBEBE"/><path opacity=".05" d="M77.6 153.134s-1.983 3.757-2.14 4.293a.724.724 0 01-.67.535s-1.978.473-2.451.536c-.473.063-4.57.41-4.57.41s-1.04.032-1.167-.347c-.115-.345-2.125-2.164-3.288-.577a1.16 1.16 0 00-.169 1.032c.215.681.654 1.762 1.124 1.09.662-.946 1.431-.68 1.431-.176s1.06.317 1.406.388c.187.039.84.212 1.402.363.654.176 1.323.287 1.998.332 1.117.073 2.763.133 3.346-.088a9.088 9.088 0 012.46-.342.812.812 0 00.479-.173 7.495 7.495 0 001.82-2.069c.82-1.419 2.507-4.356 2.393-5.207-.114-.851-3.404 0-3.404 0z" fill="#000"/><path d="M47.083 188.322a7.8 7.8 0 007.466 7.794 7.805 7.805 0 008.13-7.507v-.007a7.8 7.8 0 10-15.597-.28z" fill="#8597A8"/><path d="M54.884 192.577a4.255 4.255 0 100-8.51 4.255 4.255 0 000 8.51z" fill="#EEF7FF"/><path d="M54.884 190.875a2.553 2.553 0 100-5.107 2.553 2.553 0 000 5.107zM75.372 173.506l18.786.379v-2.774c-.168-2.229-2.454-3.011-4.54-3.256a13.046 13.046 0 00-4.854.364c-3.986 1.056-6.528 1.26-7.776 1.28a1.195 1.195 0 00-1.153.97 39.866 39.866 0 00-.29 1.777c-.104.71-.173 1.26-.173 1.26z" fill="#465C72"/><path d="M60.385 188.826H99.41a1.541 1.541 0 001.423-.921c.294-.702-.117-1.15-.556-1.413a4.421 4.421 0 01-1.921-2.351c-.416-1.225-.823-3.153-.983-6.158-.164-3.108-1.29-4.645-2.506-5.389a4.96 4.96 0 00-3.293-.601l-15.823.127a3.056 3.056 0 00-.773.504c-1.41 1.313.646 3.026.646 3.026 4.413 4.665 1.072 9.393 1.072 9.393H68.6a7.451 7.451 0 01-4.242-1.298 4.24 4.24 0 01-1.68-1.93 13.559 13.559 0 00-.404-1.004c-2.124-4.606.438-12.099 1.544-14.901.274-.697.458-1.104.458-1.104l-2.539-.191-1.606-.122-.016-.001a42.057 42.057 0 00-5.296 17.021c-.042.438-.076.862-.103 1.27a5.672 5.672 0 003.41 5.577 5.694 5.694 0 002.259.466z" fill="#F5F9FE"/><path opacity=".1" d="M75.544 172.246h18.614v-.775H75.662c-.042.267-.082.53-.118.775z" fill="#000"/><path opacity=".1" d="M74.978 172.624h19.739c.051 0 .102-.01.15-.03a4.96 4.96 0 00-3.294-.601l-15.823.127a3.058 3.058 0 00-.772.504z" fill="#000"/><path d="M93.918 171.764H74.692c-.154 0-.278.173-.278.388 0 .214.124.387.278.387h19.226c.154 0 .278-.173.278-.387 0-.215-.124-.388-.278-.388z" fill="#DCE0ED"/><path opacity=".1" d="M54.819 181.513c.899.978 1.56 1.363 1.53.331-.095-3.121 5.388-17.229 5.388-17.229l-1.622-.123a42.059 42.059 0 00-5.296 17.021z" fill="#000"/><path opacity=".1" d="M47.13 187.467c.931.223 2.083.45 3.503.658a61.22 61.22 0 001.699.223c1.45.172 3.126.322 5.063.438.548.033 1.118.063 1.708.09 1.107.05 2.291.088 3.553.115l.024-.382v-.007c-1.764-.712-4.538-2.611-4.986-7.56a7.82 7.82 0 00-3.502-.491 7.812 7.812 0 00-7.062 6.916z" fill="#000"/><path d="M64.15 188.826s-8.955-.971-5.872-14.617c0 0-4.425 4.056-7.177 6.311-2.753 2.255-7.658 5.363-7.658 5.363s2.93 2.738 20.707 2.943z" fill="#F5F9FE"/><path opacity=".1" d="M64.15 188.826s-8.955-.971-5.872-14.617c0 0-4.425 4.056-7.177 6.311-2.753 2.255-7.658 5.363-7.658 5.363s2.93 2.738 20.707 2.943z" fill="#000"/><path d="M88.075 196.123a7.801 7.801 0 100-15.603 7.801 7.801 0 000 15.603z" fill="#8597A8"/><path d="M88.075 192.577a4.255 4.255 0 100-8.51 4.255 4.255 0 000 8.51z" fill="#EEF7FF"/><path d="M88.075 190.875a2.553 2.553 0 100-5.107 2.553 2.553 0 000 5.107z" fill="#465C72"/><path opacity=".1" d="M79.328 185.979a8.941 8.941 0 018.936-9.123 8.938 8.938 0 018.936 9.123c0 .212-.007.423-.021.632h-17.83a9.393 9.393 0 01-.021-.632z" fill="#000"/><path d="M79.659 185.821a8.6 8.6 0 012.456-6.2 8.614 8.614 0 016.149-2.584 8.602 8.602 0 018.002 5.437 8.601 8.601 0 01.603 3.347c0 .205-.007.408-.02.609h-17.17a9.084 9.084 0 01-.02-.609z" fill="#F5F9FE"/><path opacity=".1" d="M79.659 185.821c0 .141.003.281.01.42l.01.189h17.17l.01-.189c.006-.139.01-.279.01-.42a8.602 8.602 0 00-5.27-8.111 8.602 8.602 0 00-11.337 4.764 8.6 8.6 0 00-.603 3.347z" fill="#000"/><path opacity=".1" d="M79.669 186.241l.01.189h17.17l.01-.189h-17.19zM78.524 188.637h21.101a1.01 1.01 0 000-2.018H78.524a1.009 1.009 0 000 2.018z" fill="#000"/><path d="M78.524 188.448h21.101a1.01 1.01 0 000-2.018H78.524a1.009 1.009 0 000 2.018z" fill="#EEF7FF"/><path opacity=".1" d="M58.564 171.138c.65-1.435.713-2.808.143-3.065-.57-.258-1.558.697-2.207 2.132-.649 1.435-.713 2.808-.143 3.065.57.258 1.558-.697 2.207-2.132z" fill="#000"/><path d="M58.47 171.044c.649-1.436.713-2.808.143-3.066s-1.558.697-2.207 2.132c-.65 1.436-.713 2.808-.144 3.066.57.258 1.559-.697 2.207-2.132z" fill="#0E8AFD"/><path opacity=".1" d="M60.132 164.493v1.481h2.884c.268.001.537-.021.802-.064.274-.697.458-1.103.458-1.103l-2.539-.192-1.605-.122z" fill="#000"/><path d="M60.132 165.785h2.884c2.533 0 4.586-1.895 4.586-4.233v-.393c0-2.337-2.053-4.232-4.586-4.232l-2.884.261v8.597z" fill="#F5F9FE"/><path d="M64.883 159.433s-1.725.922-.733 2.482c0 0 1.218 1.997 3.133 1.808l.697-4.29s-2.293-.213-3.097 0z" fill="#F5F9FE"/><path opacity=".1" d="M65.546 159.349a1.838 1.838 0 00-1.401.739 1.515 1.515 0 00.005 1.827s1.218 1.997 3.133 1.808l.697-4.291a21.273 21.273 0 00-2.434-.083zM60.226 165.785a2.315 2.315 0 01-2.317-2.317v-3.963a2.316 2.316 0 012.317-2.317v8.597z" fill="#000"/><path d="M60.132 165.785a2.315 2.315 0 01-2.317-2.317v-3.963a2.316 2.316 0 012.317-2.317v8.597z" fill="#0E8AFD"/><path d="M80.608 168.23s-.445.163-1.037.39c-.94.336-1.857.733-2.746 1.186-.458.287-2.19.77-3.484 1.107-.96.248-1.947.37-2.937.362a521.323 521.323 0 00-2.562-.019 1.15 1.15 0 00-.176.013c-.354.059-.34.296-.33.353l.002.012c2.08 1.261 4.602 6.903 4.76 7.849.118.709 1.157 2.675 1.67 3.615.171.315.284.515.284.515l-.63.724-1.829.82-1.733.756s-1.829.095-1.86 0c-.031-.094-.031-1.071-.031-1.071.222-.144.433-.304.631-.48.42-.366.81-.764 1.165-1.191 1.008-1.198-1.009-3.499-1.009-3.499l-3.877-5.043s-.315-.567-1.828-2.837c-1.513-2.269 0-3.499 0-3.499l2.663-1.106c4.619-1.728 10.19-3.113 10.19-3.113l.079-.01 1.18-.148 3.445 4.314z" fill="#EFB7B9"/><path d="M68.709 185.157s-.331.39-.083.425c.302-.002.604-.037.898-.106l4.126-2.175s.449-.319.555.307c.107.627.178.568.178.568s.543 1.17 0 1.412c-.544.243-3.807 1.2-3.807 1.2s-4.74 1.076-5.189-.165c-.449-1.242.804-1.029.804-1.029s1.56-.378 2.092-1.134c0 0 .769.212.426.697z" fill="#25323F"/><path opacity=".05" d="M63.05 168.293l2.664-1.106c4.618-1.728 10.189-3.113 10.189-3.113l.08-.01 1.18-.148 3.445 4.314s-.446.163-1.038.39c-.94.336-1.856.733-2.745 1.186-.459.287-2.191.77-3.485 1.107-.959.248-1.946.37-2.937.362-1.006-.01-2.225-.019-2.562-.019-.058 0-.117.004-.175.013-.354.059-.34.296-.331.353l.002.012c2.08 1.261 4.603 6.903 4.76 7.849.118.709 1.157 2.675 1.67 3.615l.07.127c.136-.023.307.027.368.383.106.627.177.568.177.568s.544 1.17 0 1.412c-.543.243-3.806 1.2-3.806 1.2s-4.74 1.076-5.189-.165c-.45-1.242.804-1.029.804-1.029s1.56-.378 2.092-1.135c.047.014.094.032.139.051.055-.044.114-.094.178-.148.42-.366.809-.764 1.165-1.191 1.008-1.198-1.01-3.499-1.01-3.499l-3.876-5.043s-.315-.567-1.828-2.837c-1.513-2.269 0-3.499 0-3.499z" fill="#000"/><path d="M83.783 147.14l-.143.182-.08.101-.502.631s-1.196.384-2.245.632c-1.092.259-2.023.371-1.283-.246.46-.383.49-1.025.322-1.712a7.065 7.065 0 00-.601-1.523 12.577 12.577 0 00-.89-1.469c.672-.466 1.37-.894 2.089-1.283.866-.448 1.577-.644 1.126.243a2.072 2.072 0 00.076 1.814c.02.049.043.097.067.145.243.473.543.914.893 1.314.358.421.75.813 1.171 1.171z" fill="#FBBEBE"/><path d="M77.794 161.545l-.641.585-.62 2.383h1.033l1.142-1.484-.914-1.484z" fill="#444053"/><path opacity=".1" d="M78.708 163.029l-.69.897-.451.588h-1.034l.106-.408.452-1.736.062-.24.64-.585.876 1.42.04.064z" fill="#000"/><path opacity=".1" d="M78.708 163.029l-.69.897-.451.588h-1.034l.106-.408.452-1.736.062-.24.64-.585.876 1.42.04.064z" fill="#000"/><path d="M82.144 169.299s-.446.163-1.038.39c-.939.337-1.856.733-2.745 1.187-.458.286-2.19.769-3.484 1.106-.96.248-1.947.37-2.938.362a521.323 521.323 0 00-2.561-.019 1.15 1.15 0 00-.176.013c-.354.059-.34.296-.331.353l.003.012c2.08 1.261 4.602 6.904 4.76 7.849.117.709 1.157 2.675 1.67 3.615.171.315.284.515.284.515l-.63.724-1.829.82-1.733.757s-1.83.094-1.86 0c-.032-.095-.032-1.072-.032-1.072.223-.144.434-.304.632-.48.42-.365.81-.764 1.165-1.191 1.008-1.198-1.009-3.499-1.009-3.499l-3.877-5.043s-.315-.567-1.828-2.837c-1.513-2.269 0-3.498 0-3.498l2.427-1.388c3.782-2.3 9.11-3.624 9.11-3.624l.08-.011 1.18-.147 4.76 5.106z" fill="#FBBEBE"/><path opacity=".1" d="M75.587 184.682l-.63.724-1.828.82-1.734.757s-1.828.094-1.86 0c-.03-.095-.03-1.072-.03-1.072.222-.144.433-.304.63-.48.197.105.419.301.204.606 0 0-.33.39-.083.425.302-.001.604-.037.898-.105l4.126-2.175.023-.015c.172.315.284.515.284.515z" fill="#000"/><path d="M70.245 186.226s-.331.39-.083.426c.303-.002.604-.038.898-.107l4.126-2.175s.449-.319.555.308c.107.626.178.567.178.567s.544 1.17 0 1.412c-.544.243-3.806 1.2-3.806 1.2s-4.74 1.076-5.19-.165c-.449-1.241.804-1.029.804-1.029s1.56-.378 2.092-1.134c0 0 .769.212.426.697z" fill="#25323F"/><path opacity=".1" d="M81.892 144.271c-.547.375-1.38.977-2.093.977-.183 0-.367-.015-.548-.044-.264-.508-.56-.999-.89-1.468 0 0 4.16-2.9 3.215-1.04-.312.613-.005.922.316 1.575z" fill="#000"/><path d="M83.204 141.655a3.4 3.4 0 01-1.885 3.046 3.4 3.4 0 01-4.035-.751 3.405 3.405 0 115.92-2.295z" fill="#FBBEBE"/><path opacity=".1" d="M82.144 169.299s-.446.163-1.038.39a5.126 5.126 0 00-.916-.705c-.347-.126-1.482-.788-1.45-.977a1.654 1.654 0 00-.914-1.041c-.442-.125-.19-.787-.19-.787s-.85-.315-1.062-.757c-.212-.441-.86-1.009-.64-.977a.671.671 0 00.27-.105l1.18-.147 4.76 5.106z" fill="#000"/><path d="M84.729 168.165s-1.45 1.198-1.518 1.733c-.066.536-1.035.505-1.035.505s-1.45-1.387-1.797-1.513c-.347-.127-1.482-.789-1.45-.978a1.651 1.651 0 00-.914-1.04c-.442-.126-.19-.788-.19-.788s-.85-.315-1.062-.756c-.212-.442-.86-1.009-.64-.977.186-.05.36-.133.516-.245.311-.185.706-.446 1.027-.663.34-.231.6-.414.6-.414s.149-.027.403-.064c1.373-.198 5.842-.705 6.879.944.138.218.242.457.307.707.465 1.761-1.126 3.549-1.126 3.549z" fill="#25323F"/><path opacity=".1" d="M83.212 164.343s1.481.835 2.033.835c.552 0-2.033-.835-2.033-.835zM82.223 164.981s2.205.741 2.206 1.324c0 .583.205-1.561-2.206-1.324zM76.944 161.641l.03.043a.092.092 0 01-.03-.043zM83.783 147.14l-.143.182-.08.101-.502.631s-1.196.384-2.245.632c-1.092.259-2.024.371-1.283-.246.46-.383.49-1.025.322-1.712l.033-.043s-.033.638.345.65c.508.016.515-.155.984-.353a3.164 3.164 0 001.398-1.013c.358.421.75.813 1.171 1.171z" fill="#000"/><path opacity=".1" d="M85.855 164.616a1.09 1.09 0 01-.811.018c-.977-.315-2.522-1.076-3.247-.743-.58.267-2.919.259-3.78.035-.214-.056-.337-.125-.318-.206a.567.567 0 00-.033-.277 5.08 5.08 0 00-.576-1.073l.063-.24.64-.585.876 1.42c1.372-.198 5.841-.705 6.879.944.138.218.242.457.307.707z" fill="#000"/><path d="M86.493 163.878a1.072 1.072 0 01-1.355.567c-.977-.316-2.522-1.076-3.246-.743-.725.333-4.193.238-4.098-.171.094-.41-.851-1.702-.851-1.702s.516-.096.835-1.781c.048-.246.09-.526.126-.843.078-.651.097-1.308.055-1.962-.127-1.822-.764-2.57-.764-2.57a2.123 2.123 0 01-.126-2.395c.397-.727 1.996-2.743 2.017-3.641.02-.815.8-1.763.8-1.763s-.034.638.344.65c.508.016.515-.155.984-.353.69-.291 1.398-.804 1.444-1.148 0 0 2.89-.144 3.52 2.787.631 2.932.41 4.539.316 4.886-.095.347-.914 4.823-.252 6.714a6.5 6.5 0 01.251 3.468z" fill="#465C72"/><path opacity=".1" d="M81.781 158.731a7.417 7.417 0 01-2.048 2.238c-.553.004-1.106.041-1.655.11.047-.245.09-.525.126-.843.078-.651.096-1.307.055-1.961a.719.719 0 00.37-.458c.158-.536 1.564-3.089 1.564-3.089s3.29-.851 3.405 0c.113.851-.997 2.584-1.817 4.003z" fill="#000"/><path d="M80.69 153.134s-1.982 3.757-2.14 4.293a.723.723 0 01-.668.535s-1.979.473-2.452.536c-.473.063-4.57.41-4.57.41s-1.04.032-1.167-.347c-.115-.345-2.124-2.164-3.288-.577a1.16 1.16 0 00-.168 1.032c.214.681.653 1.762 1.124 1.09.662-.946 1.43-.68 1.43-.176s1.06.317 1.407.388c.186.039.839.212 1.402.363.653.176 1.322.287 1.997.332 1.117.073 2.763.133 3.346-.088a9.09 9.09 0 012.46-.342.812.812 0 00.479-.173 7.493 7.493 0 001.82-2.069c.82-1.419 2.507-4.356 2.393-5.207-.114-.851-3.404 0-3.404 0z" fill="#FBBEBE"/><path opacity=".1" d="M81.356 147.928a25.413 25.413 0 00-1.557 3.026c-.492 1.261-1.09 3.467-1.09 3.467l2.962-.346.249-.41s2.115 1.324 1.863 1.891c.377-.763.55-1.609.504-2.459-.063-1.607.228-4.476.004-5.169-.224-.694-2.242-.536-2.935 0z" fill="#000"/><path d="M84.287 152.909a4.956 4.956 0 01-.504 2.458c.252-.567-1.863-1.891-1.863-1.891l-.25.409-2.962.347s.599-2.207 1.091-3.467c.296-.713.635-1.407 1.014-2.079.304-.551.543-.947.543-.947a3.335 3.335 0 011.963-.456c.108.006.215.019.32.039a.874.874 0 01.614.334.427.427 0 01.038.083c.224.693-.067 3.562-.004 5.17z" fill="#465C72"/><path opacity=".1" d="M85.611 157.313s-1.253 1.726-1.631 1.773c0 0 1.608-.354 1.631-1.773zM85.611 159.772s-2.364 2.388-3.12 2.411c-.757.024 3.12-2.411 3.12-2.411zM85.611 160.765s-1.516 1.773-1.609 1.773c-.093 0 1.633-.615 1.61-1.773zM84.253 147.656a2.106 2.106 0 01-.694-.233 3.433 3.433 0 01-.24-.14 5.658 5.658 0 01-.862-.709 3.674 3.674 0 01-1.05-1.464c-.04-.134-.07-.27-.088-.409-.108-.727-.017-1.53-.537-2.024a1.237 1.237 0 00-.332-.224c-.738-.351-1.807-.124-2.358-.755-.35-.401-.34-.958-.61-1.394a2.873 2.873 0 00-.523-.526 3.404 3.404 0 114.693 4.732c.02.049.043.097.067.145a9 9 0 002.064 2.485l-.143.182a.874.874 0 01.613.334z" fill="#000"/><path d="M78.281 141.603c.641.735 1.984.307 2.69.979.62.589.373 1.617.626 2.433a3.668 3.668 0 001.049 1.464c.634.617 1.443 1.243 2.31 1.066.514-.105 1.017-.489 1.51-.312.238.116.446.284.609.491a4.19 4.19 0 002.324 1.201c.174.04.356.032.526-.024.265-.107.408-.397.649-.552.471-.302 1.08.008 1.57.278a10.989 10.989 0 009.029.651l-.765-.38c.163-.332.603-.405.883-.647.576-.5.237-1.502-.373-1.96-.61-.459-1.4-.618-2.031-1.047a.525.525 0 01-.272-.356.572.572 0 01.104-.316c.336-.593.71-1.23.634-1.908-.116-1.039-1.251-1.679-2.294-1.752-1.043-.072-2.076.241-3.121.26-.38.028-.761-.05-1.1-.226-.452-.273-.68-.792-.955-1.243a5.07 5.07 0 00-2.031-1.872c-.946-.477-2.017-.644-3-1.038-1.004-.402-1.918-1.04-2.968-1.297-1.526-.373-3.16.117-4.477.972-.634.411-2.661 1.732-2.644 2.575.01.502.666.773.909 1.167.268.436.26.993.61 1.393z" fill="#FF6584"/><g opacity=".1" fill="#000"><path opacity=".1" d="M98.814 144.099a.572.572 0 00-.104.316.31.31 0 00.033.114c.314-.468.524-.999.614-1.555-.142.393-.324.77-.543 1.125zM101.386 147.778c-.28.243-.72.315-.883.647l.27.134c.183-.085.356-.188.518-.308a.893.893 0 00.295-.735.828.828 0 01-.2.262zM92.24 148.155c-.492-.271-1.1-.581-1.571-.278-.24.154-.384.444-.649.552-.17.055-.352.063-.526.024a4.197 4.197 0 01-2.324-1.202 1.747 1.747 0 00-.608-.49c-.494-.178-.997.206-1.511.311-.867.177-1.676-.449-2.31-1.065a3.681 3.681 0 01-1.049-1.464c-.253-.816-.007-1.845-.625-2.434-.706-.672-2.05-.244-2.69-.979-.35-.4-.342-.957-.61-1.393-.227-.368-.816-.629-.899-1.072a.814.814 0 00-.105.378c.01.502.666.773.909 1.167.269.436.26.993.61 1.393.64.735 1.984.307 2.69.979.619.589.373 1.617.626 2.433a3.669 3.669 0 001.048 1.464c.634.617 1.444 1.243 2.31 1.066.514-.105 1.017-.489 1.511-.312.237.116.445.284.608.491a4.19 4.19 0 002.324 1.201c.174.04.356.032.526-.024.265-.107.409-.397.65-.552.47-.302 1.079.008 1.57.278a10.993 10.993 0 009.03.651l-.53-.263a11.006 11.006 0 01-8.406-.86z"/></g><path opacity=".1" d="M68.87 172.691l-.795-.385v-.146c.382.011.76.071 1.127.178-.354.059-.34.296-.331.353z" fill="#000"/><path d="M68.18 163.995c1.058 0 1.916-1.044 1.916-2.331s-.858-2.331-1.916-2.331c-1.058 0-1.916 1.044-1.916 2.331s.858 2.331 1.916 2.331z" fill="#F5F9FE"/><path d="M134.864 228.039c19.854 0 35.949-1.993 35.949-4.452 0-2.458-16.095-4.451-35.949-4.451-19.853 0-35.948 1.993-35.948 4.451 0 2.459 16.095 4.452 35.948 4.452z" fill="#EEF7FF"/><path d="M120.625 211.647l10.079-1.822h15.095l-2.157 3.324h-20.963l-2.054-1.502z" fill="#33323D"/><path d="M128.282 104.697c1.131-.575 2.606 0 3.953.135 1.744.17 3.473-.458 5.23-.41a6.558 6.558 0 014.291 1.773 5.244 5.244 0 011.58 3.597 4.19 4.19 0 01-.552 2.313c-.838 1.394-2.748 2.34-4.729 2.498a8.849 8.849 0 01-5.523-1.45c-1.3-.883-2.207-2.06-3.309-3.082-.783-.735-2.844-1.662-2.86-2.617-.011-.662 1.205-2.4 1.919-2.757z" fill="#38495B"/><path opacity=".1" d="M128.282 104.697c1.131-.575 2.606 0 3.953.135 1.744.17 3.473-.458 5.23-.41a6.558 6.558 0 014.291 1.773 5.244 5.244 0 011.58 3.597 4.19 4.19 0 01-.552 2.313c-.838 1.394-2.748 2.34-4.729 2.498a8.849 8.849 0 01-5.523-1.45c-1.3-.883-2.207-2.06-3.309-3.082-.783-.735-2.844-1.662-2.86-2.617-.011-.662 1.205-2.4 1.919-2.757z" fill="#000"/><path d="M132.478 202.992l-.156 3.206a42.636 42.636 0 014.55-.087c.124-.481 0-.987-.101-1.477a11.165 11.165 0 01-.185-2.867c.018-.264-2.817-.534-3.103-.548-.348-.013-.71-.061-.877.303-.186.398-.108 1.035-.128 1.47z" fill="#FBBEBE"/><path d="M128.744 204.024l-.153 3.206a43.125 43.125 0 014.548-.087c.123-.481 0-.987-.101-1.477-.183-.944-.245-1.907-.183-2.867.016-.265-2.817-.533-3.103-.547-.351-.014-.71-.062-.877.302-.188.399-.11 1.035-.131 1.47z" fill="#FBBEBE"/><path d="M135.811 202.882c-.217.08-.415.203-.582.362l-1.145.957c-.385.323-.891.664-1.351.458a3.207 3.207 0 01-.536-.421.523.523 0 00-.627-.071.645.645 0 00-.177.396 30.546 30.546 0 00-.496 6.164c.356.141.732.224 1.115.247a.188.188 0 00.123-.022c.067-.055.03-.161.021-.246-.032-.295.38-.469.648-.341.25.161.436.404.527.687a.681.681 0 00.197.296.66.66 0 00.272.098 9.682 9.682 0 001.576.144c2.442.084 4.885.084 7.327 0 .255.005.508-.031.751-.105a1.428 1.428 0 00.875-1.108 1.975 1.975 0 00-.348-1.404 2.405 2.405 0 00-.804-.737 4.722 4.722 0 00-.758-.321l-1.145-.412c-.836-.298-1.701-.616-2.324-1.246a5.928 5.928 0 01-.875-1.264c-.432-.735-1.108-2.45-2.264-2.111z" fill="#465C72"/><path opacity=".1" d="M135.811 202.882c-.217.08-.415.203-.582.362l-1.145.957c-.385.323-.891.664-1.351.458a3.207 3.207 0 01-.536-.421.523.523 0 00-.627-.071.645.645 0 00-.177.396 30.546 30.546 0 00-.496 6.164c.356.141.732.224 1.115.247a.188.188 0 00.123-.022c.067-.055.03-.161.021-.246-.032-.295.38-.469.648-.341.25.161.436.404.527.687a.681.681 0 00.197.296.66.66 0 00.272.098 9.682 9.682 0 001.576.144c2.442.084 4.885.084 7.327 0 .255.005.508-.031.751-.105a1.428 1.428 0 00.875-1.108 1.975 1.975 0 00-.348-1.404 2.405 2.405 0 00-.804-.737 4.722 4.722 0 00-.758-.321l-1.145-.412c-.836-.298-1.701-.616-2.324-1.246a5.928 5.928 0 01-.875-1.264c-.432-.735-1.108-2.45-2.264-2.111z" fill="#000"/><path d="M146.75 151.098c0 .654-.014 1.308-.042 1.963a98.738 98.738 0 01-1.076 11.969c-.137.891-.286 1.779-.504 2.652-.313 1.248-.776 2.464-.916 3.746-.19 1.832.3 3.721-.114 5.516-.213.916-.657 1.77-.916 2.677a14.252 14.252 0 00-.362 1.646l-.687 3.84c-.025.131-.048.262-.071.392a15.75 15.75 0 01-1.502 4.328c-.395.85-.702 1.739-.916 2.652l-1.223 4.552c-.551 2.049-1.106 4.19-.687 6.272a13.987 13.987 0 01-5.488-1.475c-.216-3.533-.058-7.076.098-10.613.101-2.242.202-4.489.579-6.701.41-2.411.971-4.712 1.461-7.11.735-3.588 1.475-7.206 1.404-10.867-.087-4.743.037-9.572 2.104-13.838.202-.507.532-.954.958-1.296a3.287 3.287 0 011.374-.458 25.926 25.926 0 014.985-.357 3.485 3.485 0 011.541.51z" fill="#25323F"/><path opacity=".1" d="M146.748 151.099c0 .652-4.955.153-4.978.806-6.086-.705-3.235.71-3.503.9-.577.405 2.193-.41 1.616 0-.501.355-1.28 1.733-1.797 2.061-1.207.79 2.816 3.222 1.921 4.35-.813 1.022-1.003 2.414-.895 3.71.107 1.296.485 2.558.687 3.847a14.4 14.4 0 01-.758 7.254c-.522 1.386-1.255 2.677-1.922 3.998-.728 1.454-2.074 2.899-1.914 4.521.369 3.65-.268 7.327-.44 10.991-.066 1.401-.064 2.83.326 4.179.146.515.35 1.014.458 1.539.272 1.216.057 2.475-.303 3.682a13.987 13.987 0 01-3.006-1.104c-.216-3.533-.058-7.076.098-10.613.101-2.242.202-4.488.579-6.701.41-2.411.971-4.712 1.461-7.11.735-3.588 1.475-7.206 1.404-10.867-.087-4.743.037-9.572 2.105-13.838.201-.507.531-.954.957-1.296a3.287 3.287 0 011.374-.458 25.926 25.926 0 014.985-.357 3.48 3.48 0 011.545.506z" fill="#000"/><path d="M147.113 147.841c0 1.163.651 3.737-.24 4.483-.593.502-1.326.806-1.963 1.253-.577.405-1.069.916-1.644 1.335-.501.355-1.06.62-1.575.957-1.209.79-1.738 2.226-2.636 3.352-.81 1.022-1 2.414-.893 3.71.108 1.296.486 2.558.687 3.847a14.422 14.422 0 01-.758 7.254c-.524 1.386-1.255 2.677-1.921 3.998-.728 1.454-2.077 2.899-1.914 4.52.368 3.651-.271 7.328-.44 10.992-.066 1.401-.064 2.83.325 4.179.147.515.348 1.014.458 1.539.318 1.435-.039 2.935-.508 4.33-1.617-.284-3.252-.566-4.887-.444-1.436.107-2.862.522-4.291.35-.172-3.856.181-7.717.529-11.562.069-.785.142-1.571.213-2.358.275-3.011.547-6.025.71-9.047.041-.763-.229-1.571-.014-2.306.447-1.541.895-3.074 1.342-4.601a15.2 15.2 0 00.536-2.338c.201-1.637-.133-3.288-.458-4.902l-1.374-6.641a29.516 29.516 0 00-.513-2.198c-.155-.48-.284-.968-.387-1.461a18.545 18.545 0 01-.128-2.093c-.069-1.207-.351-2.388-.44-3.593a7.363 7.363 0 01.055-1.736 4.388 4.388 0 01.648-1.749 53.57 53.57 0 0110.433-2.977 14.7 14.7 0 012.518-.293c.965.024 1.926.13 2.872.318 1.324.229 2.672.458 3.893 1.054a5.747 5.747 0 011.58 1.099c.613.616.229-.806.426.041.055.293-.245 1.395-.241 1.688z" fill="#25323F"/><path d="M132.078 203.912a1.715 1.715 0 00-.582.365l-1.145.957c-.387.323-.893.664-1.351.458a3.038 3.038 0 01-.536-.422.524.524 0 00-.627-.071.643.643 0 00-.176.397 30.189 30.189 0 00-.497 6.164c.355.14.731.224 1.112.247a.185.185 0 00.124-.023c.069-.055.032-.16.023-.245-.032-.295.38-.471.646-.341.25.161.436.404.526.687.04.113.108.215.197.295a.657.657 0 00.273.099 9.82 9.82 0 001.578.144c2.441.085 4.888.087 7.327 0 .255.004.509-.031.754-.105a1.43 1.43 0 00.872-1.111 1.958 1.958 0 00-.348-1.401 2.422 2.422 0 00-.802-.738 4.831 4.831 0 00-.76-.32l-1.145-.412c-.833-.3-1.699-.616-2.324-1.248a5.951 5.951 0 01-.877-1.264c-.433-.733-1.108-2.448-2.262-2.112z" fill="#465C72"/><path d="M143.327 110.687a2.291 2.291 0 01-.478.981c-.495.686-1.042 1.412-1.844 1.685a3.747 3.747 0 01-1.374.124 18.064 18.064 0 01-10.835-4.315c1.436-.948 2.2-2.674 2.388-4.382a14.377 14.377 0 00-.229-3.971 83.064 83.064 0 00-.204-1.145c-.128-.7-.458-1.243.342-1.438.62-.153 1.463-.046 2.097 0 1.395.078 2.819.38 3.952 1.234.311.22.571.503.763.832.488.915.091 1.994-.023 3.045a4.188 4.188 0 00-.016.717c.089 1.165.872 2.171 1.772 2.915.9.744 1.94 1.316 2.817 2.083.49.413.959.992.872 1.635z" fill="#FBBEBE"/><path opacity=".1" d="M137.881 103.323a6.77 6.77 0 01-6.927-2.519 84.935 84.935 0 00-.204-1.145c-.128-.7-.458-1.243.341-1.438.621-.153 1.464-.045 2.098 0 1.394.078 2.819.38 3.952 1.235.311.22.571.503.763.831.488.904.091 1.983-.023 3.036z" fill="#000"/><path d="M136.364 103.179a6.785 6.785 0 100-13.57 6.785 6.785 0 000 13.57z" fill="#FBBEBE"/><path opacity=".1" d="M147.528 146.734c-.041.092-.364 1.652-.414 1.741-2.258-.458-3.664-.493-5.954-.458a9.321 9.321 0 00-1.733.144c-.481.096-.951.254-1.436.33-2.615.403-5.091-1.642-7.731-1.441-.881.067-1.724.383-2.551.687-.916.349-1.832.614-2.725.916a4.388 4.388 0 01.648-1.749 53.59 53.59 0 0110.433-2.977c.83-.17 1.672-.268 2.519-.293.964.024 1.925.13 2.871.318 1.324.229 2.673.458 3.893 1.054a5.732 5.732 0 011.58 1.099c.6.629.415-.218.6.629z" fill="#000"/><path d="M134.099 110.248c-.142-.687-.611-1.234-1.074-1.752a66.245 66.245 0 00-2.707-2.855 3.86 3.86 0 00-1.053-.822 1.368 1.368 0 00-1.289.011c-.353.229-.531.632-.813.939-.609.666-1.669.824-2.182 1.568a4.264 4.264 0 01-.392.594c-.22.187-.484.317-.767.377l-3.233.969c-.38.112-.802.259-.983.611a1.993 1.993 0 00-.144.589c-.256 1.463-1.545 2.48-2.679 3.435-.394.332-.792.698-.959 1.183-.168.486-.081 1.001.022 1.496.259 1.257.637 2.519 1.374 3.574.486.715 1.122 1.328 1.523 2.093.339.73.553 1.512.632 2.313.229 1.504.348 3.02.476 4.536.113 1.333-.048 2.83.339 4.122.472 1.568 2.155 2.462 2.902 3.92.279.613.472 1.262.574 1.928l.717 3.632c.13.55.202 1.113.213 1.678-.018 1.335-.703 2.636-.488 3.953 1.212-.458 2.379-.772 3.589-1.228.828-.313 1.671-.632 2.555-.698 2.638-.197 5.113 1.846 7.728 1.443.486-.074.955-.229 1.436-.328a9.593 9.593 0 011.734-.149 32.79 32.79 0 016.869.621c.458-.767.534-1.708.421-2.595-.112-.886-.398-1.738-.622-2.603a19.274 19.274 0 01-.509-6.964c.087-.586.14-1.177.158-1.77 0-2.212-1.342-4.284-1.218-6.494.121-2.173 2.604-3.389 3.63-5.312a2.32 2.32 0 00.341-1.278c-.051-.458-.339-.87-.525-1.301-.458-1.055-.288-2.271-.549-3.389-.094-.391-.229-.769-.325-1.163-.229-1.085-.021-2.239-.298-3.316-.215-.833-.715-1.564-1.246-2.239-.897-1.145-1.946-2.214-3.256-2.846-1.31-.632-2.922-.767-4.202-.076a1.598 1.598 0 00-.517.41c-.134.204-.23.431-.284.669a20.785 20.785 0 01-1.88 4.38 2.03 2.03 0 01-1.663-.497c-.462-.394-1.255-.783-1.376-1.369z" fill="#465C72"/><path d="M133.095 98.43c.127-.304.183-.633.165-.962-.018-.33.072-.656.257-.93.265-.322.742-.41.996-.737.291-.373.192-.902.279-1.374a1.725 1.725 0 011.603-1.374c.568-.016 1.102.254 1.66.364.726.144 1.475.014 2.203-.114.543-.096 1.145-.218 1.484-.644.206-.288.341-.62.394-.97.121-.548.213-1.157-.069-1.64-.281-.483-.877-.72-1.191-1.189-.272-.41-.295-.95-.572-1.358-.43-.636-1.328-.748-2.091-.652-.762.096-1.536.339-2.29.176-.828-.178-1.648-.831-2.429-.504-.575.243-.815.905-1.168 1.42a3.086 3.086 0 01-1.207 1.035c-.746.36-1.621.41-2.338.827a2.625 2.625 0 00-1.241 1.795.761.761 0 00.014.41c.052.101.112.198.181.288.298.472.105 1.102-.183 1.578-.289.477-.674.916-.765 1.477-.092.561.126 1.108.407 1.592.317.46.599.943.845 1.444.245.598.291 1.26.536 1.855a3.01 3.01 0 002.242 1.782.688.688 0 00.547-.083.696.696 0 00.204-.389 4.48 4.48 0 00.131-.772c.039-.512 0-1.106.229-1.58.284-.593.861-.192 1.167-.771z" fill="#25323F"/><path opacity=".1" d="M142.057 90.067c-.283-.485-.877-.719-1.19-1.188-.273-.41-.296-.95-.573-1.358a1.483 1.483 0 00-.856-.58c.277.408.298.948.572 1.358.312.47.905.701 1.189 1.189.284.488.19 1.092.068 1.64-.052.35-.186.682-.391.97-.353.424-.944.547-1.486.644-.728.128-1.477.256-2.203.114-.557-.112-1.09-.38-1.66-.364a1.72 1.72 0 00-1.589 1.363c-.087.458 0 .993-.28 1.373-.256.328-.733.415-.996.736a1.534 1.534 0 00-.259.931c.019.329-.036.657-.162.96-.309.582-.886.179-1.177.772-.229.474-.19 1.067-.229 1.58-.021.261-.064.52-.131.774a.71.71 0 01-.201.389.688.688 0 01-.547.082 2.89 2.89 0 01-.687-.21c.425.409.963.682 1.545.785a.675.675 0 00.283.016.676.676 0 00.264-.098.699.699 0 00.204-.39c.067-.252.11-.511.131-.771.039-.513 0-1.106.229-1.58.293-.593.87-.193 1.177-.772.126-.304.182-.633.165-.962-.018-.33.072-.656.256-.93.266-.322.742-.41.996-.737.291-.373.193-.902.28-1.374a1.719 1.719 0 011.602-1.36c.568-.018 1.102.252 1.661.362.726.144 1.474.014 2.203-.114.542-.097 1.144-.218 1.483-.644.206-.288.341-.62.394-.97.106-.544.197-1.153-.085-1.636z" fill="#000"/><path d="M127.408 216.915c0 2.31-1.616 4.183-3.608 4.183-1.993 0-3.607-1.873-3.607-4.183v-.033c.016-2.289 1.626-4.151 3.607-4.151 1.225 0 2.306.705 2.956 1.791.433.722.658 1.55.652 2.393zM156.165 218.599c0 4.45-2.302 8.058-5.139 8.058s-5.134-3.608-5.134-8.058c0-2.519.733-4.76 1.883-6.235.888-1.145 2.015-1.832 3.251-1.832.17 0 .34.012.509.037 1.019.158 1.955.783 2.708 1.74.107.131.206.268.298.41.999 1.479 1.624 3.567 1.624 5.88z" fill="#8597A8"/><path d="M153.105 209.376l-4.49.448-.577-4.799-.039-.314-.816-6.764-.036-.314-4.124-34.217-.09-.728-2.459-20.424-.059-.488-.257-2.134-.172-1.417h3.595l.195 1.468.032.233.089.657 3.085 23.05.082.619 4.399 32.861.964 7.202.678 5.061z" fill="#25323F"/><path opacity=".1" d="M151.022 210.544c.17-.001.34.012.509.037l-.129.087a2.88 2.88 0 00-1.144 2.667l.728 6.925a1.05 1.05 0 01-.284.786 1.044 1.044 0 01-1.777-.482c-.3-1.587-.868-4.829-1.125-7.758a5.333 5.333 0 01-.022-.442c.881-1.135 2.008-1.82 3.244-1.82zM152.318 212.731l-.158-.046c-.048-.126-.092-.25-.14-.364.106.131.206.268.298.41z" fill="#000"/><path d="M150.768 208.657s-3.652-.229-3.292 3.833c.258 2.929.826 6.169 1.124 7.756a1.041 1.041 0 001.184.838 1.048 1.048 0 00.881-1.145l-.728-6.925a2.883 2.883 0 011.145-2.67c.863-.606 2.015-.643 2.977 2.02l.659.181s.843-4.369-3.95-3.888z" fill="#465C72"/><path opacity=".1" d="M146.98 163.634a2.982 2.982 0 01-.55.055h-1.287a2.96 2.96 0 01-2.928-2.629l-1.97-17.923a2.961 2.961 0 01.961-2.515 2.957 2.957 0 012.602-.691l3.172 23.703z" fill="#000"/><path opacity=".1" d="M147.063 164.252a2.74 2.74 0 01-.632.071h-1.287a2.916 2.916 0 01-2.12-.916l-.09-.73-2.459-20.421a2.934 2.934 0 013.423-1.683l3.083 23.052.082.627z" fill="#000"/><path d="M140.246 143.453l1.97 17.927a2.941 2.941 0 002.928 2.625h1.285a2.895 2.895 0 002.782-1.977c.08-.247.12-.505.121-.764 0-1.374-1.474-13.82-1.932-17.658a2.913 2.913 0 00-1.086-1.948 10.375 10.375 0 00-1.948-1.221c-2.059-.957-4.367.758-4.12 3.016z" fill="#0E8AFD"/><path opacity=".1" d="M126.756 214.522l-.966-.042a4.498 4.498 0 00-2.457.603l-3.023 1.74c-.039.021-.08.043-.117.06.016-2.29 1.626-4.152 3.607-4.152 1.222 0 2.306.705 2.956 1.791zM152.429 204.631l-4.39.394-.039-.314-.815-6.764 4.28-.515.964 7.199z" fill="#000"/><path d="M147.994 204.712c.706 10.304-6.51 10.114-6.51 10.114l-15.692-.673a4.536 4.536 0 00-2.46.602l-3.022 1.743a1.57 1.57 0 01-1.763-.131 1.578 1.578 0 01-.282-2.178l1.278-1.703a2.672 2.672 0 012.29-1.063l16.42.937c6.641.119 8.894-14.736 8.894-14.736l4.319-.519.962 7.201-4.427.396-.007.01z" fill="#465C72"/><path opacity=".1" d="M143.776 139.693l-3.618-.051-.172-1.417h3.595l.195 1.468z" fill="#000"/><path d="M126.315 136.895l30.359.76a.952.952 0 01.916.95.943.943 0 01-.962.948l-30.357-.423a.947.947 0 01-.934-.948v-.339a.96.96 0 01.288-.681.947.947 0 01.69-.267z" fill="#25323F"/><path d="M128.409 134.195c1.058.215 2.228.158 3.114.779.79.552 1.173 1.548 1.216 2.519.044.971-.21 1.912-.458 2.844-.077.293-.229.648-.535.657-.307.009-.458-.302-.703-.458-.527-.321-1.271.153-1.803-.158a2.922 2.922 0 01-.416-.378 1.38 1.38 0 00-1.541-.183 2.48 2.48 0 00-.55-2.063 2.478 2.478 0 00-1.951-.866c-.412.014-.854.121-1.214-.078-.579-.316-.531-1.186-.228-1.768.439-.817.773-1.618 1.772-1.618 1.145.004 2.2.549 3.297.771zM149.087 135.333l-.014 2.226c0 .838 0 1.717.415 2.448.215.38.586.724 1.026.714.165 0 .325-.055.49-.048.478.019.916.522 1.362.355.151-.057.273-.185.429-.229.228-.068.492.06.723-.011.231-.071.369-.337.458-.57.458-1.118.916-2.35.584-3.508a5.407 5.407 0 00-.781-1.455l-1.484-2.196a.748.748 0 00-.242-.258.656.656 0 00-.332-.06c-.738 0-1.427.348-2.087.687-.659.339-.542 1.266-.547 1.905z" fill="#FBBEBE"/><path d="M150.54 122.959c.083.489.223.966.417 1.422.261.52.724.957.806 1.534.099.687-.35 1.479.078 2.022.174.229.458.337.641.556.44.543.021 1.342.085 2.036.057.634.531 1.161.662 1.786.13.625-.09 1.399.309 1.926-.405-.639-1.294-.765-2.04-.641a4.627 4.627 0 00-3.039 1.967 6.005 6.005 0 00-.284-2.693c-.268-.774-.698-1.525-.662-2.343.023-.483.211-.957.165-1.44-.071-.756-.687-1.33-1.218-1.864-.646-.643-1.276-1.408-1.34-2.32-.059-.845.387-1.644.898-2.322a4.384 4.384 0 011.514-1.373c.4-.197 1.614-1.022 1.88-.916.57.215 1.002 2.141 1.128 2.663zM117.008 116.066a2.61 2.61 0 00-1.454 1.207 10.102 10.102 0 00-.763 1.777 23.536 23.536 0 01-1.786 3.774c-.536.916-1.145 1.795-1.434 2.805-.258.884-.277 1.845-.703 2.661-.208.398-.506.751-.664 1.172-.206.545-.153 1.145-.096 1.731l.149 1.548c.018.509.133 1.009.339 1.475.286.547.808.916 1.312 1.284l2.329 1.651c.445.347.936.63 1.459.841 1.515.533 3.15-.202 4.744-.403 1.099-.138 2.212-.021 3.314.098-.092-.9-.062-1.852.373-2.645.435-.792 1.761-1.831 2.638-1.616-.87-.735-2.311-.325-3.275-.937-.387-.245-.717-.57-1.097-.829-1.197-.81-2.915-.948-3.686-2.173a.48.48 0 01-.092-.229c-.014-.181.14-.325.273-.458.966-.916 1.449-2.237 1.568-3.558.119-1.321-.091-2.645-.332-3.95-.195-1.047-.412-2.107-.888-3.059-.477-.953-1.23-1.812-2.228-2.167z" fill="#465C72"/><path opacity=".1" d="M22.163 226.243c4.34 0 7.857-.595 7.857-1.328 0-.734-3.517-1.328-7.857-1.328-4.339 0-7.856.594-7.856 1.328 0 .733 3.517 1.328 7.856 1.328z" fill="#0E8AFD"/><path d="M16.886 218.744s4.481-.138 5.832-1.1c1.351-.961 6.895-2.111 7.23-.567.334 1.543 6.734 7.671 1.673 7.712-5.06.041-11.756-.79-13.102-1.603-1.347-.813-1.633-4.442-1.633-4.442z" fill="#BBCFE2"/><path opacity=".2" d="M31.713 224.251c-5.06.041-11.756-.788-13.105-1.603-1.026-.625-1.436-2.869-1.57-3.904h-.152s.284 3.613 1.633 4.435c1.348.822 8.044 1.649 13.102 1.603 1.461-.014 1.967-.533 1.938-1.303-.202.472-.758.763-1.846.772z" fill="#000"/><g opacity=".1" fill="#0E8AFD"><path opacity=".1" d="M180.329 118.853c.504 1.566-.87 7.018-.87 7.018s-4.296-3.627-4.809-5.193a2.979 2.979 0 015.67-1.832l.009.007zM180.19 98.986c-.838 1.415-5.828 4.007-5.828 4.007s-.137-5.622.687-7.037a2.98 2.98 0 015.45.773 2.982 2.982 0 01-.32 2.257h.011zM179.146 169.712c-.513.873-3.586 2.467-3.586 2.467s-.085-3.46.431-4.331a1.831 1.831 0 013.155 1.864zM212.591 161.041c-.515.87-3.586 2.466-3.586 2.466s-.084-3.46.431-4.332a1.835 1.835 0 013.353.477c.121.471.05.971-.198 1.389zM176.647 147.144c-.835 1.417-5.825 4.007-5.825 4.007s-.14-5.619.687-7.037a2.98 2.98 0 014.078-1.048 2.972 2.972 0 011.433 2.982 2.978 2.978 0 01-.384 1.096h.011z"/></g></g><defs><clipPath id="clip0"><path fill="#fff" d="M0 0h256v288.722H0z"/></clipPath></defs></svg>