<svg width="660" height="777" viewBox="0 0 660 777" fill="none" xmlns="http://www.w3.org/2000/svg">
<g clip-path="url(#clip0)">
<path d="M137.979 177.988L140.862 415.688L265.463 476.332L262.58 238.633L137.979 177.988Z" fill="#EEF7FF"/>
<path d="M100.115 159L7.00977 349.98L133.34 411.467L130.457 173.768L100.115 159Z" fill="#EEF7FF"/>
<path d="M660.071 427.295L408.605 304.905L411.489 542.604L566.965 618.275L660.071 427.295Z" fill="#EEF7FF"/>
<path d="M273.844 238.633L276.727 476.332L401.329 536.977L398.446 299.278L273.844 238.633Z" fill="#EEF7FF"/>
<path d="M317.153 428.372L313.633 507.155C313.633 507.155 322.785 581.717 320.673 583.828C318.561 585.938 312.929 590.158 317.153 595.082C321.377 600.006 336.865 603.523 337.569 600.71C338.273 597.896 339.681 517.706 339.681 517.706L344.609 422.744L317.153 428.372Z" fill="#2F2E41"/>
<path d="M317.153 428.372L313.633 507.155C313.633 507.155 322.785 581.717 320.673 583.828C318.561 585.938 312.929 590.158 317.153 595.082C321.377 600.006 336.865 603.523 337.569 600.71C338.273 597.896 339.681 517.706 339.681 517.706L344.609 422.744L317.153 428.372Z" fill="#38495B"/>
<path d="M320.673 593.676C320.673 593.676 303.073 607.041 300.961 607.041C298.849 607.041 279.841 613.371 293.217 616.185C306.593 618.999 338.977 617.592 339.681 613.371C340.385 609.151 337.569 596.342 337.569 596.342L320.673 593.676Z" fill="#2F2E41"/>
<path opacity="0.2" d="M320.673 593.676C320.673 593.676 303.073 607.041 300.961 607.041C298.849 607.041 279.841 613.371 293.217 616.185C306.593 618.999 338.977 617.592 339.681 613.371C340.385 609.151 337.569 596.342 337.569 596.342L320.673 593.676Z" fill="#25323F"/>
<path d="M277.025 369.284C277.025 369.284 269.281 372.098 269.281 374.208C269.281 376.318 262.241 403.048 260.833 404.455C259.425 405.862 258.721 412.193 258.721 412.193C258.721 412.193 251.681 428.372 253.089 428.372C254.497 428.372 266.465 425.558 267.169 428.372C267.873 431.185 273.505 410.786 273.505 410.786L285.473 386.87L277.025 369.284Z" fill="#0E8AFD"/>
<path d="M253.089 431.185C253.089 431.185 255.201 446.66 260.833 448.067C266.465 449.474 260.833 428.371 260.833 428.371L253.089 431.185Z" fill="#FBBEBE"/>
<path d="M271.393 360.843C271.393 360.843 275.617 369.988 277.729 374.912C279.841 379.835 299.553 362.25 299.553 362.25C299.553 362.25 288.993 354.512 288.993 350.995C288.993 347.478 271.393 360.843 271.393 360.843Z" fill="#FBBEBE"/>
<path d="M68.3154 589.494C73.0367 606.932 89.2081 617.732 89.2081 617.732C89.2081 617.732 97.7248 600.259 93.0036 582.821C88.2823 565.383 72.1109 554.583 72.1109 554.583C72.1109 554.583 63.5941 572.056 68.3154 589.494Z" fill="#8597A8"/>
<path d="M75.2535 585.746C88.2087 598.347 89.7911 617.718 89.7911 617.718C89.7911 617.718 70.3689 616.659 57.4136 604.058C44.4584 591.457 42.876 572.086 42.876 572.086C42.876 572.086 62.2982 573.145 75.2535 585.746Z" fill="#F5F9FE"/>
<path d="M236.193 618.295C223.522 618.295 211.136 614.541 200.601 607.507C190.066 600.474 181.854 590.477 177.006 578.78C172.157 567.084 170.888 554.213 173.36 541.796C175.832 529.379 181.933 517.973 190.893 509.021C199.852 500.069 211.268 493.972 223.695 491.503C236.122 489.033 249.003 490.3 260.709 495.145C272.416 499.99 282.421 508.195 289.461 518.721C296.5 529.248 300.257 541.624 300.257 554.284C300.238 571.255 293.482 587.525 281.472 599.526C269.462 611.526 253.178 618.276 236.193 618.295ZM236.193 491.679C223.801 491.679 211.687 495.351 201.383 502.23C191.079 509.109 183.049 518.887 178.306 530.326C173.564 541.766 172.323 554.353 174.741 566.498C177.158 578.642 183.126 589.797 191.888 598.552C200.651 607.307 211.815 613.27 223.97 615.686C236.124 618.101 248.722 616.861 260.171 612.123C271.62 607.385 281.405 599.36 288.29 589.065C295.175 578.77 298.849 566.666 298.849 554.284C298.831 537.686 292.223 521.773 280.477 510.037C268.731 498.3 252.805 491.698 236.193 491.679Z" fill="#25323F"/>
<path d="M433.313 618.295C420.643 618.295 408.256 614.541 397.721 607.507C387.186 600.474 378.975 590.477 374.126 578.78C369.277 567.084 368.008 554.213 370.48 541.796C372.952 529.379 379.053 517.973 388.013 509.021C396.973 500.069 408.388 493.972 420.815 491.503C433.242 489.033 446.123 490.3 457.83 495.145C469.536 499.99 479.541 508.195 486.581 518.721C493.62 529.248 497.377 541.624 497.377 554.284C497.358 571.255 490.602 587.525 478.592 599.526C466.582 611.526 450.298 618.276 433.313 618.295ZM433.313 491.679C420.921 491.679 408.807 495.351 398.503 502.23C388.2 509.109 380.169 518.887 375.426 530.326C370.684 541.766 369.443 554.353 371.861 566.498C374.279 578.642 380.246 589.797 389.009 598.552C397.771 607.307 408.935 613.27 421.09 615.686C433.244 618.101 445.842 616.861 457.291 612.123C468.74 607.385 478.525 599.36 485.41 589.065C492.295 578.77 495.969 566.666 495.969 554.284C495.951 537.686 489.343 521.773 477.597 510.037C465.851 498.3 449.925 491.698 433.313 491.679Z" fill="#25323F"/>
<path d="M236.193 558.505C238.526 558.505 240.417 556.615 240.417 554.284C240.417 551.953 238.526 550.064 236.193 550.064C233.86 550.064 231.969 551.953 231.969 554.284C231.969 556.615 233.86 558.505 236.193 558.505Z" fill="#25323F"/>
<path d="M434.721 558.505C437.054 558.505 438.945 556.615 438.945 554.284C438.945 551.953 437.054 550.064 434.721 550.064C432.388 550.064 430.497 551.953 430.497 554.284C430.497 556.615 432.388 558.505 434.721 558.505Z" fill="#25323F"/>
<path d="M242.472 548.229L241.177 547.677L277.971 461.423L382.312 463.55L382.514 463.866L433.906 544.056L432.72 544.815L381.53 464.942L278.894 462.848L242.472 548.229Z" fill="#25323F"/>
<path d="M352.089 564.261L379.132 468.978L380.486 469.362L354.025 562.596L424.776 553.586L424.954 554.982L352.089 564.261Z" fill="#25323F"/>
<path d="M275.415 482.746L274.41 483.731L346.922 557.59L347.927 556.605L275.415 482.746Z" fill="#25323F"/>
<path d="M386.167 446.475L381.949 461.952L383.308 462.321L387.525 446.844L386.167 446.475Z" fill="#25323F"/>
<path d="M280.528 457.368L279.153 457.056L282.478 442.44H270.688V433.296H272.096V441.034H284.243L280.528 457.368Z" fill="#25323F"/>
<path d="M360.801 432.592C360.801 432.592 360.801 428.371 369.953 430.482C379.105 432.592 407.265 438.219 409.377 437.516C411.489 436.812 410.785 441.736 401.633 443.847C392.481 445.957 381.921 441.033 379.809 439.626C377.697 438.219 360.801 432.592 360.801 432.592Z" fill="#25323F"/>
<path d="M335.456 558.504H317.152V565.539H335.456V558.504Z" fill="#0E8AFD"/>
<path d="M353.057 577.497C350.272 577.497 347.55 576.671 345.234 575.126C342.919 573.58 341.114 571.383 340.048 568.812C338.983 566.241 338.704 563.413 339.247 560.684C339.79 557.955 341.131 555.448 343.101 553.48C345.07 551.513 347.578 550.173 350.31 549.63C353.041 549.087 355.872 549.366 358.445 550.431C361.018 551.495 363.217 553.299 364.764 555.612C366.311 557.926 367.137 560.646 367.137 563.428C367.132 567.158 365.648 570.734 363.008 573.371C360.368 576.009 356.79 577.492 353.057 577.497ZM353.057 550.767C350.55 550.767 348.1 551.509 346.016 552.9C343.932 554.292 342.308 556.269 341.349 558.583C340.39 560.896 340.139 563.442 340.628 565.898C341.117 568.354 342.324 570.611 344.096 572.381C345.868 574.152 348.126 575.358 350.584 575.846C353.043 576.335 355.59 576.084 357.906 575.126C360.221 574.168 362.201 572.545 363.593 570.463C364.985 568.38 365.729 565.932 365.729 563.428C365.725 560.071 364.388 556.853 362.013 554.479C359.637 552.106 356.416 550.77 353.057 550.767Z" fill="#25323F"/>
<path d="M277.729 367.877C287.06 367.877 294.625 360.319 294.625 350.995C294.625 341.671 287.06 334.113 277.729 334.113C268.398 334.113 260.833 341.671 260.833 350.995C260.833 360.319 268.398 367.877 277.729 367.877Z" fill="#FBBEBE"/>
<path d="M331.233 429.778C331.233 429.778 282.657 457.915 283.361 467.06C284.065 476.204 320.673 526.147 320.673 526.147C320.673 526.147 323.489 540.919 326.305 540.919C329.121 540.919 346.721 547.25 347.425 543.029C348.129 538.809 341.793 533.885 342.497 531.071C343.201 528.257 311.521 476.908 311.521 476.908C311.521 476.908 379.322 451.584 365.133 429.778C350.945 407.972 331.233 429.778 331.233 429.778Z" fill="#465C72"/>
<path d="M332.641 538.105C332.641 538.105 324.193 540.216 322.785 543.029C321.377 545.843 296.737 554.987 303.777 557.098C310.817 559.208 351.649 559.911 353.057 558.505C354.465 557.098 353.057 540.77 347.425 540.844C341.793 540.919 335.457 543.029 332.641 538.105Z" fill="#25323F"/>
<path d="M277.729 377.022L293.569 357.677C293.569 357.677 311.521 352.402 319.265 362.953C327.009 373.504 348.129 399.531 355.169 405.158C362.209 410.786 372.065 432.592 368.545 433.295C365.025 433.999 345.313 425.558 337.569 431.185C329.825 436.812 315.041 437.516 314.337 434.702C313.633 431.888 271.393 384.759 271.393 378.428C271.393 372.098 275.894 370.739 275.894 370.739L277.729 377.022Z" fill="#0E8AFD"/>
<path d="M286.237 432.947L264.997 425.444C263.897 425.056 262.691 425.632 262.302 426.73C261.913 427.829 262.489 429.035 263.589 429.423L284.829 436.926C285.929 437.315 287.135 436.739 287.524 435.64C287.913 434.541 287.337 433.336 286.237 432.947Z" fill="#25323F"/>
<path d="M238.305 424.151C238.305 424.151 213.665 431.185 215.777 438.923C217.889 446.66 240.417 429.778 240.417 429.778L238.305 424.151Z" fill="#FBBEBE"/>
<path d="M302.369 362.953C302.369 362.953 292.513 371.394 290.401 381.242C288.289 391.09 277.729 408.676 277.729 408.676L234.785 422.744C234.785 422.744 231.969 436.109 236.193 436.109C240.417 436.109 287.585 426.261 288.993 424.151C290.401 422.041 320.673 381.946 320.673 381.946C320.673 381.946 323.489 360.14 302.369 362.953Z" fill="#0E8AFD"/>
<path d="M267.234 331.455C266.818 331.813 266.319 332.063 265.783 332.183C265.514 332.231 265.236 332.17 265.012 332.015C264.787 331.859 264.633 331.621 264.583 331.352C264.273 332.213 263.696 332.952 262.936 333.462C262.13 333.882 260.884 333.53 260.768 332.629C260.65 333.313 260.347 333.952 259.892 334.476C259.654 334.727 259.328 334.874 258.982 334.886C258.637 334.897 258.301 334.772 258.048 334.538C258.401 336.465 258.183 338.448 258.294 340.405C258.405 342.361 258.927 344.435 260.406 345.722C262.564 347.598 265.809 347.135 268.647 346.78C269.076 346.69 269.521 346.714 269.938 346.85C271.001 347.303 270.953 348.781 270.967 349.935C271.054 351.96 271.856 353.889 273.231 355.379C274.606 356.869 276.465 357.824 278.478 358.074C279.605 358.248 280.754 357.968 281.674 357.295C282.48 356.612 282.892 355.5 283.815 354.987C285.317 354.153 287.139 355.37 288.237 356.69C289.335 358.011 290.417 359.635 292.119 359.877C294.369 360.197 296.082 357.905 296.923 355.796C298.083 352.839 298.639 349.68 298.558 346.505C298.476 343.33 297.76 340.204 296.45 337.31C291.752 327.077 275.703 325.459 267.234 331.455Z" fill="#2F2E41"/>
<path d="M564.531 618.267L563.28 617.621C579.53 586.231 570.84 545.467 560.69 516.798C553.798 497.528 545.007 478.99 534.446 461.456L535.636 460.705C546.251 478.327 555.088 496.96 562.017 516.328C572.261 545.26 581.011 586.43 564.531 618.267Z" fill="#25323F"/>
<path d="M576.582 460.957L567.448 510.903L568.833 511.156L577.967 461.21L576.582 460.957Z" fill="#25323F"/>
<path d="M515.846 503.51L514.814 504.469L561.982 555.115L563.014 554.156L515.846 503.51Z" fill="#25323F"/>
<path d="M600.642 559.144L576.717 592.213L577.858 593.037L601.783 559.968L600.642 559.144Z" fill="#25323F"/>
<path d="M580.802 447.715C584.69 447.715 587.842 444.566 587.842 440.681C587.842 436.796 584.69 433.647 580.802 433.647C576.914 433.647 573.762 436.796 573.762 440.681C573.762 444.566 576.914 447.715 580.802 447.715Z" fill="#FF6584"/>
<path d="M504.065 501.879C507.954 501.879 511.105 498.73 511.105 494.845C511.105 490.96 507.954 487.81 504.065 487.81C500.177 487.81 497.025 490.96 497.025 494.845C497.025 498.73 500.177 501.879 504.065 501.879Z" fill="#465C72"/>
<path d="M535.042 508.913C538.93 508.913 542.082 505.764 542.082 501.879C542.082 497.994 538.93 494.845 535.042 494.845C531.154 494.845 528.002 497.994 528.002 501.879C528.002 505.764 531.154 508.913 535.042 508.913Z" fill="#465C72"/>
<path d="M520.961 536.347C524.849 536.347 528.001 533.197 528.001 529.313C528.001 525.428 524.849 522.278 520.961 522.278C517.073 522.278 513.921 525.428 513.921 529.313C513.921 533.197 517.073 536.347 520.961 536.347Z" fill="#FF6584"/>
<path d="M608.962 553.932C612.85 553.932 616.002 550.783 616.002 546.898C616.002 543.013 612.85 539.864 608.962 539.864C605.074 539.864 601.922 543.013 601.922 546.898C601.922 550.783 605.074 553.932 608.962 553.932Z" fill="#FF6584"/>
<path d="M585.729 561.67C589.618 561.67 592.769 558.521 592.769 554.636C592.769 550.751 589.618 547.602 585.729 547.602C581.841 547.602 578.689 550.751 578.689 554.636C578.689 558.521 581.841 561.67 585.729 561.67Z" fill="#465C72"/>
<path d="M601.921 584.179C605.809 584.179 608.961 581.03 608.961 577.145C608.961 573.26 605.809 570.111 601.921 570.111C598.033 570.111 594.881 573.26 594.881 577.145C594.881 581.03 598.033 584.179 601.921 584.179Z" fill="#465C72"/>
<path d="M528.001 456.157C531.889 456.157 535.041 453.007 535.041 449.122C535.041 445.237 531.889 442.088 528.001 442.088C524.113 442.088 520.961 445.237 520.961 449.122C520.961 453.007 524.113 456.157 528.001 456.157Z" fill="#465C72"/>
<path d="M636 617H0V619H636V617Z" fill="#8597A8"/>
<path d="M109.075 471.581L49.3262 437.113L14.8301 496.813L74.5791 531.28L109.075 471.581Z" fill="#EEF7FF"/>
<path d="M76.032 543.284C72.9687 543.284 69.9743 542.377 67.4273 540.676C64.8803 538.976 62.8952 536.559 61.7229 533.731C60.5507 530.903 60.2439 527.792 60.8416 524.79C61.4392 521.788 62.9142 519.03 65.0803 516.866C67.2463 514.702 70.006 513.228 73.0104 512.631C76.0148 512.034 79.1289 512.34 81.959 513.512C84.7891 514.683 87.208 516.666 88.9098 519.211C90.6117 521.756 91.52 524.748 91.52 527.809C91.5154 531.912 89.8821 535.845 86.9786 538.746C84.075 541.648 80.1383 543.279 76.032 543.284ZM76.032 513.74C73.2472 513.74 70.525 514.565 68.2095 516.111C65.8941 517.657 64.0894 519.854 63.0237 522.425C61.9581 524.996 61.6792 527.824 62.2225 530.553C62.7658 533.282 64.1068 535.789 66.0759 537.757C68.045 539.724 70.5538 541.064 73.2851 541.607C76.0164 542.15 78.8474 541.871 81.4202 540.806C83.993 539.742 86.192 537.938 87.7391 535.625C89.2862 533.311 90.112 530.591 90.112 527.809C90.1079 524.079 88.6231 520.503 85.9835 517.865C83.3439 515.228 79.765 513.744 76.032 513.74Z" fill="#BBCFE2"/>
</g>
<defs>
<clipPath id="clip0">
<rect width="660" height="777" fill="white"/>
</clipPath>
</defs>
</svg>
