<svg width="660" height="745" viewBox="0 0 660 745" fill="none" xmlns="http://www.w3.org/2000/svg"><path d="m380.541 142.503-223.577.543a9.19 9.19 0 0 0-9.168 9.208l1.017 418.169a9.19 9.19 0 0 0 9.212 9.163l223.578-.543a9.19 9.19 0 0 0 8.476-5.691 9.183 9.183 0 0 0 .691-3.517l-1.017-418.169a9.187 9.187 0 0 0-9.212-9.163Z" fill="#BBCFE2"/><path d="m377.306 148.216-217.08.527a9.17 9.17 0 0 0-9.147 9.191l.989 406.596c.012 5.063 4.127 9.158 9.191 9.146l217.08-.528a9.169 9.169 0 0 0 9.147-9.191l-.989-406.595a9.167 9.167 0 0 0-9.191-9.146Z" fill="#fff"/><path d="M327.931 158.989a19.084 19.084 0 0 1-18.77 16.279l-81.314.198a19.09 19.09 0 0 1-18.85-16.188l-43.07.105a8.943 8.943 0 0 0-8.92 8.963l.134 55.174 160.81 5.698 11.38-70.232-1.4.003ZM214.857 282.387l-57.584-4.425-.104-42.82 57.688 47.245Z" fill="#F5F9FE"/><path d="m308.174 289.558 9.777-60.34-160.81-5.698.028 11.622 57.688 47.245 93.317 7.171ZM380.621 167.803a8.938 8.938 0 0 0-5.54-8.248 8.932 8.932 0 0 0-3.423-.672l-42.327.103-11.38 70.232-9.777 60.34 72.757 5.591-.31-127.346Z" fill="#F5F9FE"/><path d="m308.174 289.558-9.449 58.32 82.283-20.737-.077-31.992-72.757-5.591Z" fill="#F5F9FE"/><path d="m214.857 282.387 80.884 66.243 2.984-.752 9.449-58.32-93.317-7.171ZM157.273 277.962l.257 105.501 138.211-34.833-80.884-66.243-57.584-4.425ZM298.725 347.878l-.458 2.822 82.964 67.946-.223-91.505-82.283 20.737Z" fill="#F5F9FE"/><path d="M298.267 350.7 281.18 456.159l100.221 32.532-.17-70.045-82.964-67.946ZM376.059 561.821a8.945 8.945 0 0 1-3.42.689l-108.932.265 3.847-22.523 113.989 6.776.016 6.519a8.952 8.952 0 0 1-2.604 6.329 8.94 8.94 0 0 1-2.896 1.945Z" fill="#F5F9FE"/><path d="M158.633 557.51a8.922 8.922 0 0 1-.688-3.42l-.05-20.357 109.659 6.519-3.847 22.523-96.799.235a8.93 8.93 0 0 1-6.329-2.604 8.926 8.926 0 0 1-1.946-2.896Z" fill="#F5F9FE"/><path d="m281.18 456.159 100.221 32.532.142 58.337-113.989-6.776 13.626-84.093Z" fill="#F5F9FE"/><path d="m157.609 416.049 123.571 40.11-13.626 84.093-109.659-6.519-.286-117.684Z" fill="#F5F9FE"/><path d="M295.741 348.63 157.53 383.463l.079 32.586 123.571 40.11L298.267 350.7l-2.526-2.07Z" fill="#F5F9FE"/><path opacity=".15" d="M327.932 158.99a19.091 19.091 0 0 1-18.771 16.279l-81.314.197a19.085 19.085 0 0 1-18.85-16.187l-30.383.074-12.687.031a8.939 8.939 0 0 0-8.92 8.963l.134 55.173 160.81 5.699 11.38-70.233-1.399.004Z" fill="#465C72"/><path opacity=".1" d="m214.857 282.387-57.584-4.425-.104-42.82 57.688 47.245Z" fill="#25323F"/><path opacity=".2" d="m308.174 289.558 9.777-60.34-160.81-5.698.028 11.622 57.688 47.245 93.317 7.171Z" fill="#fff"/><path opacity=".1" d="m317.951 229.218-9.776 60.34 72.756 5.591-.155-63.673-62.825-2.258Z" fill="#25323F"/><path opacity=".25" d="M379.932 164.383a8.938 8.938 0 0 1 .689 3.42l.155 63.673-62.825-2.258 11.38-70.232 42.327-.103a8.932 8.932 0 0 1 6.329 2.603 8.954 8.954 0 0 1 1.945 2.897Z" fill="#fff"/><path opacity=".2" d="m308.174 289.559-9.449 58.32 82.283-20.738-.077-31.991-72.757-5.591Z" fill="#0E8AFD"/><path opacity=".1" d="m214.857 282.387 80.884 66.243 2.984-.752 9.45-58.32-93.318-7.171Z" fill="#25323F"/><path opacity=".3" d="m157.273 277.962.257 105.5 138.211-34.832-80.884-66.243-57.584-4.425Z" fill="#fff"/><path opacity=".15" d="m298.725 347.878-.458 2.821 82.964 67.946-.223-91.504-82.283 20.737Z" fill="#fff"/><path opacity=".1" d="m298.268 350.699-17.088 105.46 100.221 32.531-.17-70.045-82.963-67.946Z" fill="#465C72"/><path opacity=".2" d="M376.059 561.821a8.945 8.945 0 0 1-3.42.689l-108.932.265 3.847-22.523 113.989 6.776.016 6.519a8.933 8.933 0 0 1-2.604 6.329 8.94 8.94 0 0 1-2.896 1.945Z" fill="#0E8AFD"/><path opacity=".15" d="M158.633 557.511a8.927 8.927 0 0 1-.688-3.421l-.05-20.357 109.659 6.519-3.847 22.523-96.799.235a8.933 8.933 0 0 1-6.329-2.603 8.948 8.948 0 0 1-1.946-2.896Z" fill="#25323F"/><path opacity=".4" d="m281.18 456.159 100.221 32.532.142 58.337-113.988-6.776 13.625-84.093Z" fill="#fff"/><path opacity=".1" d="m157.609 416.049 123.571 40.11-13.626 84.093-109.659-6.519-.286-117.684Z" fill="#fff"/><path opacity=".3" d="M295.741 348.63 157.53 383.462l.079 32.586 123.571 40.111 17.087-105.46-2.526-2.069Z" fill="#0E8AFD"/><path d="M96.235 185.237 416.4 447.449l4.206-214.594-361.586-12.812L116.12 274.8l362.148 27.829-377.206 95.065L442.65 508.571l-1.281 42.013-352.477-20.953 10.673 105.956 154.78-13.81 83.008-512.304" stroke="#F5F9FE" stroke-width="4" stroke-miterlimit="10"/><mask id="mask0" style="mask-type:alpha" maskUnits="userSpaceOnUse" x="147" y="142" width="244" height="438"><path d="m380.541 142.503-223.578.543a9.19 9.19 0 0 0-9.167 9.208l1.017 418.169a9.186 9.186 0 0 0 9.212 9.163l223.578-.543a9.198 9.198 0 0 0 6.491-2.705 9.204 9.204 0 0 0 2.676-6.503l-1.017-418.169a9.188 9.188 0 0 0-9.212-9.163Z" fill="#BBCFE2"/></mask><g mask="url(#mask0)"><path d="M96.235 185.237 416.4 447.449l4.206-214.594-361.586-12.812L116.12 274.8l362.148 27.829-377.206 95.065L442.65 508.571l-1.281 42.013-352.477-20.953 10.673 105.956 154.78-13.81 83.008-512.304" stroke="#fff" stroke-width="4" stroke-miterlimit="10"/></g><path d="m291.536 163.861-49.766.748a1.345 1.345 0 0 0-1.324 1.365l.009.589a1.345 1.345 0 0 0 1.365 1.324l49.765-.748a1.345 1.345 0 0 0 1.325-1.365l-.009-.589a1.343 1.343 0 0 0-1.365-1.324ZM304.047 166.951a1.968 1.968 0 1 0 0-3.935 1.968 1.968 0 0 0 0 3.935Z" fill="#DBDBDB"/><g opacity=".5" fill="#568DC4"><path opacity=".5" d="M117.915 197.183h-2.017v11.431h2.017v-11.431Z"/><path opacity=".5" d="M122.623 203.907v-2.017h-11.432v2.017h11.432Z"/></g><g opacity=".5" fill="#568DC4"><path opacity=".5" d="M134.053 268.851h-2.017v11.431h2.017v-11.431Z"/><path opacity=".5" d="M138.76 275.575v-2.017h-11.431v2.017h11.431Z"/></g><g opacity=".5" fill="#568DC4"><path opacity=".5" d="M443.366 175.666h-2.017v11.431h2.017v-11.431Z"/><path opacity=".5" d="M448.073 182.39v-2.017h-11.431v2.017h11.431Z"/></g><g opacity=".5" fill="#568DC4"><path opacity=".5" d="M606.092 217.747h-2.017v11.431h2.017v-11.431Z"/><path opacity=".5" d="M610.799 224.471v-2.017h-11.431v2.017h11.431Z"/></g><path opacity=".5" d="M57.462 263.677a2.47 2.47 0 0 1-1.377-2.986c.029-.089.047-.181.054-.274a1.24 1.24 0 0 0-2.226-.821 1.181 1.181 0 0 0-.137.243 2.47 2.47 0 0 1-2.987 1.377 1.165 1.165 0 0 0-.274-.054 1.243 1.243 0 0 0-1.237.808 1.24 1.24 0 0 0 .416 1.418c.076.055.157.101.244.137a2.47 2.47 0 0 1 1.376 2.986 1.192 1.192 0 0 0-.053.274 1.24 1.24 0 0 0 2.226.821c.055-.075.1-.157.137-.243a2.47 2.47 0 0 1 2.986-1.377c.089.029.18.047.274.054a1.237 1.237 0 0 0 1.264-1.586 1.239 1.239 0 0 0-.443-.64 1.193 1.193 0 0 0-.243-.137ZM565.81 392.109a2.473 2.473 0 0 1-1.376-2.987c.028-.088.046-.18.053-.274a1.237 1.237 0 0 0-2.226-.821 1.193 1.193 0 0 0-.137.244 2.47 2.47 0 0 1-2.986 1.376 1.218 1.218 0 0 0-.274-.053 1.242 1.242 0 0 0-1.264 1.585c.075.256.23.48.443.641.075.055.157.101.243.137a2.468 2.468 0 0 1 1.377 2.986 1.167 1.167 0 0 0-.054.274 1.24 1.24 0 0 0 2.226.821c.055-.075.101-.157.137-.243a2.47 2.47 0 0 1 2.987-1.377c.089.029.18.047.274.054a1.243 1.243 0 0 0 1.237-.808 1.24 1.24 0 0 0-.416-1.418 1.193 1.193 0 0 0-.244-.137ZM530.172 187.021a2.47 2.47 0 0 1-1.376-2.986c.028-.089.046-.181.053-.274a1.238 1.238 0 0 0-2.226-.822 1.193 1.193 0 0 0-.137.244 2.47 2.47 0 0 1-2.986 1.376 1.218 1.218 0 0 0-.274-.053 1.238 1.238 0 0 0-.821 2.226c.075.055.157.101.243.137a2.47 2.47 0 0 1 1.377 2.986 1.167 1.167 0 0 0-.054.274 1.24 1.24 0 0 0 2.226.821c.055-.075.101-.157.137-.243a2.47 2.47 0 0 1 2.986-1.377c.089.029.181.047.274.054a1.24 1.24 0 0 0 .822-2.226 1.193 1.193 0 0 0-.244-.137ZM546.31 304.022a2.473 2.473 0 0 1-1.376-2.986c.028-.089.046-.181.053-.274a1.237 1.237 0 0 0-2.226-.822 1.193 1.193 0 0 0-.137.244 2.47 2.47 0 0 1-2.986 1.376 1.218 1.218 0 0 0-.274-.053 1.242 1.242 0 0 0-1.264 1.586c.075.255.23.479.443.64.075.055.157.101.243.137a2.468 2.468 0 0 1 1.377 2.986 1.167 1.167 0 0 0-.054.274c-.016.266.054.53.199.753a1.245 1.245 0 0 0 1.387.511c.256-.075.48-.23.64-.443.055-.075.101-.157.137-.243a2.473 2.473 0 0 1 2.987-1.377c.089.029.18.047.274.054a1.243 1.243 0 0 0 1.237-.808 1.24 1.24 0 0 0-.416-1.418 1.193 1.193 0 0 0-.244-.137Z" fill="#0E8AFD"/><path opacity=".5" d="M97.743 395.938a4.035 4.035 0 1 0 0-8.07 4.035 4.035 0 0 0 0 8.07Z" fill="#F3AEAE"/><path opacity=".5" d="M442.022 262.799a4.034 4.034 0 1 0 0-8.068 4.034 4.034 0 0 0 0 8.068Z" fill="#4D8AF0"/><path opacity=".5" d="M474.97 365.007a4.036 4.036 0 1 0-.001-8.071 4.036 4.036 0 0 0 .001 8.071Z" fill="#47E6B1"/><path opacity=".5" d="M58.07 152.522a4.034 4.034 0 1 0 0-8.068 4.034 4.034 0 0 0 0 8.068Z" fill="#F3AEAE"/><path d="m455.22 263.319-14.945.579.746 19.215 14.944-.579-.745-19.215Z" fill="#6C63FF"/><path d="M387.357 330.424s-26.78-10.094-26.352-1.377C361.434 337.765 388 343.5 388 343.5l-.643-13.076Z" fill="#FBBEBE"/><path d="M399.159 402.872s-9.764 23.899-13.372 41.145c-3.608 17.245-9.102 40.978-2.035 57.81 7.068 16.831 27.161 66.3 27.368 71.637.207 5.338-1.721 10.758 2.549 10.593 4.269-.166 27.506-7.482 28.449-10.726.944-3.243-7.927-11.452-7.927-11.452l-21.906-68.642 22.855-44.72 16.485 66.714 3.229 83.265s15.847-4.891 18.148-.704c0 0 7.1-9.897 8.001-14.208.902-4.312-3.353-86.467-3.353-86.467s14.546-93.576 2.804-93.121c-11.742.456-57.736-27.696-81.295-1.124Z" fill="#25323F"/><path d="M413.503 579.787s-10.832 23.94-11.858 25.049c-1.026 1.109-8.085 12.073-2.747 11.866 5.337-.207 17.94-6.041 27.217-14.953 9.276-8.913 21.506-24.354 20.397-25.381-1.108-1.026-8.705-3.938-8.705-3.938l-24.304 7.357ZM456.783 593.075s-.654 10.717-2.623 15.07c-1.97 4.352-1.721 10.757 3.616 10.55 5.337-.207 19.132-2.88 19.132-2.88s.819-6.446-.29-7.472c-1.109-1.026-5.834-12.603-3.823-15.888 2.011-3.286-16.012.62-16.012.62Z" fill="#38495B"/><path d="M464.679 245.312s11.378 17.733 15.814 21.837c4.436 4.105-8.043 13.141-8.043 13.141l-22.335 3.005s.281-20.324-.869-22.418c-1.15-2.093 15.433-15.565 15.433-15.565Z" fill="#FBBEBE"/><path d="M445.266 268.515s4.601 8.375 8.871 8.209c4.27-.166 26.356-9.575 27.3-12.819.943-3.244 7.315 23.237 7.315 23.237l-54.043 95.107-13.183-9.11 6.388-55.841 5.246-30.139 12.106-18.644Z" fill="#fff"/><path d="m424.877 321.692-16.915 4.933-23.484.91-2.416 20.407 38.595 2.78s9.64-27.102 4.22-29.03Z" fill="#38495B"/><path d="M483.43 353.633c-2.156 4.51-3.502 9.213-3.316 14.027.009.214.017.427.036.64.511 9.88 4.151 21.307 5.457 29.616.947 5.961.678 10.312-2.811 11.335-8.457 2.466 1.233 4.229-31.486 15.119-32.72 10.891-38.43 1.49-38.513-.645-.083-2.135 4.634-18.354 3.525-19.38-1.109-1.026-15.516 13.431-19.869 11.461-4.352-1.969-.496-12.809-.496-12.809s9.805-22.832 9.598-28.169c-.207-5.338 14.854-30.511 14.854-30.511l10.243-66.682s3.939-8.705 9.235-9.98c5.296-1.274 9.69 1.763 9.69 1.763l-8.862 19.587-9.35 34.574 1.564 12.769s10.873-22.873 18.014-31.703c7.142-8.829 22.367-29.733 22.367-29.733s3.555-11.994.872-15.578c-2.684-3.595 11.193-4.133 17.11 10.605 3.136 7.811 8.228 19.459 11.417 30.304 2.843 9.608 4.185 18.59 1.369 23.724-4.303 7.843-15.129 18.152-20.648 29.666Z" fill="#465C72"/><path opacity=".1" d="M504.078 323.967c-4.303 7.843-15.129 18.152-20.648 29.666-1.442-5.193-3.2-10.567-3.2-10.567s-6.745-36.088 13.206-45.414c3.306-.32 6.612.604 9.273 2.591 2.843 9.608 4.185 18.59 1.369 23.724Z" fill="#000"/><path d="M452.458 390.306s-22.628 3.754-17.464 10.563c5.165 6.81 25.211-.349 25.211-.349l-7.747-10.214Z" fill="#FBBEBE"/><path opacity=".1" d="M480.15 368.3c.511 9.88 4.151 21.306 5.457 29.616-7.209 6.823-14.063 12.84-16.647 12.94-5.337.207-13.919-.529-17.08.663-3.161 1.191-5.015-19.05-5.015-19.05s1.887-6.487 10.303-10.021c5.68-2.391 16.569-8.875 22.982-14.148Z" fill="#000"/><path d="M493.187 291.247s18.065-2.839 17.089 27.134c-.976 29.972 1.904 49.104-5.361 54.732-7.266 5.627-30.866 31.131-36.204 31.338-5.337.207-13.918-.529-17.079.663-3.162 1.191-5.016-19.05-5.016-19.05s1.887-6.487 10.303-10.021c8.416-3.534 28.243-16.063 28.077-20.333-.165-4.27-5.015-19.049-5.015-19.049s-6.745-36.088 13.206-45.414Z" fill="#465C72"/><path d="M448.749 271.571c12.98 0 23.503-10.523 23.503-23.503s-10.523-23.503-23.503-23.503-23.502 10.523-23.502 23.503 10.522 23.503 23.502 23.503Z" fill="#FBBEBE"/><path d="M432.924 214.381a4.54 4.54 0 0 1-1.976.992 1.408 1.408 0 0 1-1.634-1.132c-.538 1.115-1.145 2.304-2.243 2.876-1.097.572-2.795.092-2.953-1.136a5.188 5.188 0 0 1-1.193 2.518c-.681.649-1.916.813-2.511.084.481 2.627.184 5.329.335 7.996.151 2.667.862 5.494 2.877 7.248 2.938 2.557 7.357 1.926 11.222 1.441a3.411 3.411 0 0 1 1.759.097c1.447.616 1.381 2.631 1.401 4.204a11.68 11.68 0 0 0 10.229 11.093 5.854 5.854 0 0 0 4.352-1.062c1.098-.93 1.658-2.446 2.916-3.145 2.045-1.137 4.526.521 6.022 2.321 1.495 1.8 2.969 4.014 5.286 4.343 3.064.436 5.398-2.687 6.543-5.562a32.434 32.434 0 0 0-.644-25.196c-6.399-13.946-28.254-16.152-39.788-7.98Z" fill="#25323F"/><path d="M344.542 241.52c-2.203 15.89-34.891 49.123-34.891 49.123s-24.715-41.188-22.512-57.079a28.975 28.975 0 1 1 57.403 7.956Z" fill="url(#paint0_linear)"/><path d="M342.658 242.022c-2.066 14.906-32.727 46.077-32.727 46.077s-23.182-38.634-21.116-53.539a27.178 27.178 0 1 1 53.843 7.462Z" fill="#FF6584"/><path d="M329.497 237.998c1.032-7.453-4.157-14.33-11.591-15.36-7.434-1.03-14.298 4.176-15.331 11.629-1.033 7.452 4.156 14.329 11.591 15.359 7.434 1.031 14.298-4.176 15.331-11.628Z" fill="#fff"/><defs><linearGradient id="paint0_linear" x1="28049.4" y1="37597.1" x2="30009.6" y2="23453.9" gradientUnits="userSpaceOnUse"><stop stop-color="gray" stop-opacity=".25"/><stop offset=".535" stop-color="gray" stop-opacity=".12"/><stop offset="1" stop-color="gray" stop-opacity=".1"/></linearGradient></defs></svg>