<svg width="684" height="479" viewBox="0 0 684 479" fill="none" xmlns="http://www.w3.org/2000/svg"><g opacity=".1" fill="#6C63FF"><path opacity=".1" d="M449.265 335.561s2.453-34.381 21.802-53.127a52.2 52.2 0 0015.427-29.21 88.219 88.219 0 001.039-16.03"/><path opacity=".1" d="M499.654 225.309c-1.421 3.798-12.405 12.239-12.405 12.239s-2.772-13.576-1.338-17.374a7.337 7.337 0 0113.546-.476 7.336 7.336 0 01.197 5.611zM503.159 250.583c-3.257 2.412-17.062 3.528-17.062 3.528s5.059-12.897 8.316-15.316a7.341 7.341 0 0110.107 1.635 7.34 7.34 0 01-1.361 10.146v.007zM489.237 286.322c-4.033.444-16.515-5.544-16.515-5.544s10.881-8.58 14.907-9.009a7.33 7.33 0 017.69 6.516 7.336 7.336 0 01-6.082 8.037zM472.613 310.993c-3.895 1.116-17.214-2.696-17.214-2.696s9.272-10.291 13.167-11.407a7.347 7.347 0 015.689.525 7.334 7.334 0 013.821 7.35 7.355 7.355 0 01-.917 2.767 7.352 7.352 0 01-4.546 3.461zM471.392 249.454c1.733 3.659 13.389 11.136 13.389 11.136s1.608-13.756-.131-17.422a7.343 7.343 0 00-13.415.769 7.342 7.342 0 00.157 5.517zM452.314 278.553c2.772 2.973 16.112 6.626 16.112 6.626s-2.585-13.611-5.336-16.591a7.336 7.336 0 00-10.353-.387 7.34 7.34 0 00-.423 10.352zM437.657 309.379c2.203 3.395 14.761 9.251 14.761 9.251s-.25-13.86-2.46-17.249a7.337 7.337 0 00-10.038-1.98 7.338 7.338 0 00-2.263 9.978z"/><path opacity=".1" d="M499.654 225.309c-1.421 3.798-12.405 12.239-12.405 12.239s-2.772-13.576-1.338-17.374a7.337 7.337 0 0113.546-.476 7.336 7.336 0 01.197 5.611zM503.159 250.583c-3.257 2.412-17.062 3.528-17.062 3.528s5.059-12.897 8.316-15.316a7.341 7.341 0 0110.107 1.635 7.34 7.34 0 01-1.361 10.146v.007zM489.237 286.322c-4.033.444-16.515-5.544-16.515-5.544s10.881-8.58 14.907-9.009a7.33 7.33 0 017.69 6.516 7.336 7.336 0 01-6.082 8.037zM472.613 310.993c-3.895 1.116-17.214-2.696-17.214-2.696s9.272-10.291 13.167-11.407a7.347 7.347 0 015.689.525 7.334 7.334 0 013.821 7.35 7.355 7.355 0 01-.917 2.767 7.352 7.352 0 01-4.546 3.461zM471.392 249.454c1.733 3.659 13.389 11.136 13.389 11.136s1.608-13.756-.131-17.422a7.343 7.343 0 00-13.415.769 7.342 7.342 0 00.157 5.517zM452.314 278.553c2.772 2.973 16.112 6.626 16.112 6.626s-2.585-13.611-5.336-16.591a7.336 7.336 0 00-10.353-.387 7.34 7.34 0 00-.423 10.352zM437.657 309.379c2.203 3.395 14.761 9.251 14.761 9.251s-.25-13.86-2.46-17.249a7.337 7.337 0 00-10.038-1.98 7.338 7.338 0 00-2.263 9.978z"/></g><g opacity=".1" fill="#6C63FF"><path opacity=".1" d="M456.054 205.426s2.453-34.38 21.802-53.126a52.25 52.25 0 0015.427-29.21 87.15 87.15 0 001.039-16.03"/><path opacity=".1" d="M506.444 95.175c-1.386 3.79-12.398 12.232-12.398 12.232s-2.772-13.576-1.344-17.367a7.336 7.336 0 1113.742 5.135zM509.973 120.442c-3.251 2.419-17.062 3.528-17.062 3.528s5.059-12.89 8.316-15.309a7.347 7.347 0 015.507-1.502 7.356 7.356 0 012.753.952 7.343 7.343 0 012.491 10.219 7.353 7.353 0 01-2.005 2.112zM496.029 156.188c-4.027.443-16.508-5.544-16.508-5.544s10.88-8.573 14.907-9.009a7.34 7.34 0 018.231 6.478 7.344 7.344 0 01-6.63 8.11v-.035zM479.402 180.859c-3.895 1.116-17.214-2.696-17.214-2.696s9.279-10.291 13.167-11.414a7.338 7.338 0 018.985 5.061 7.342 7.342 0 01-4.945 9.049h.007zM478.183 119.313c1.732 3.666 13.396 11.143 13.396 11.143s1.6-13.763-.132-17.422a7.336 7.336 0 00-7.02-4.321 7.338 7.338 0 00-6.244 10.6zM459.105 148.412c2.772 2.98 16.12 6.625 16.12 6.625s-2.592-13.61-5.343-16.583a7.34 7.34 0 00-10.242-.273 7.337 7.337 0 00-.535 10.231zM444.447 179.244c2.211 3.396 14.761 9.252 14.761 9.252s-.249-13.86-2.46-17.249a7.332 7.332 0 00-4.64-3.332 7.347 7.347 0 00-7.703 3.046 7.339 7.339 0 00.042 8.283z"/><path opacity=".1" d="M506.444 95.175c-1.386 3.79-12.398 12.232-12.398 12.232s-2.772-13.576-1.344-17.367a7.336 7.336 0 1113.742 5.135zM509.973 120.442c-3.251 2.419-17.062 3.528-17.062 3.528s5.059-12.89 8.316-15.309a7.347 7.347 0 015.507-1.502 7.356 7.356 0 012.753.952 7.343 7.343 0 012.491 10.219 7.353 7.353 0 01-2.005 2.112zM496.029 156.188c-4.027.443-16.508-5.544-16.508-5.544s10.88-8.573 14.907-9.009a7.34 7.34 0 018.231 6.478 7.344 7.344 0 01-6.63 8.11v-.035zM479.402 180.859c-3.895 1.116-17.214-2.696-17.214-2.696s9.279-10.291 13.167-11.414a7.338 7.338 0 018.985 5.061 7.342 7.342 0 01-4.945 9.049h.007zM478.183 119.313c1.732 3.666 13.396 11.143 13.396 11.143s1.6-13.763-.132-17.422a7.336 7.336 0 00-7.02-4.321 7.338 7.338 0 00-6.244 10.6zM459.105 148.412c2.772 2.98 16.12 6.625 16.12 6.625s-2.592-13.61-5.343-16.583a7.34 7.34 0 00-10.242-.273 7.337 7.337 0 00-.535 10.231zM444.447 179.244c2.211 3.396 14.761 9.252 14.761 9.252s-.249-13.86-2.46-17.249a7.332 7.332 0 00-4.64-3.332 7.347 7.347 0 00-7.703 3.046 7.339 7.339 0 00.042 8.283z"/></g><g opacity=".1"><path opacity=".1" d="M88.42 250.472s-29.6-17.644-37.659-43.341a52.156 52.156 0 00-19.155-26.909c-4.36-3.132-9-5.856-13.86-8.136" fill="#6C63FF"/><path opacity=".1" d="M12.583 155.897c2.772 2.973 5.357 16.584 5.357 16.584s-13.368-3.638-16.12-6.611a7.341 7.341 0 01.53-10.222 7.337 7.337 0 0110.233.249zM36.735 164.165c.693 3.992-4.518 16.826-4.518 16.826s-9.245-10.319-9.938-14.311a7.338 7.338 0 1114.456-2.515zM62.404 192.634c-1.386 3.797-12.398 12.245-12.398 12.245s-2.772-13.576-1.352-17.367a7.34 7.34 0 1113.75 5.122zM76.963 218.573c-.748 3.985-10.145 14.2-10.145 14.2s-5.025-12.911-4.27-16.889a7.336 7.336 0 0114.415 2.724v-.035zM21.448 191.996c4.047.097 15.974-6.93 15.974-6.93s-11.573-7.623-15.627-7.72a7.336 7.336 0 00-7.366 7.165 7.341 7.341 0 007.02 7.506v-.021zM38.862 222.121C42.757 220.999 52.03 210.7 52.03 210.7s-13.32-3.804-17.214-2.681a7.338 7.338 0 004.054 14.102h-.007zM59.804 249.073c4.033-.444 14.907-9.01 14.907-9.01s-12.474-6.001-16.515-5.544a7.335 7.335 0 00-6.886 8.126 7.33 7.33 0 008.494 6.428z" fill="#6C63FF"/><path opacity=".1" d="M12.583 155.897c2.772 2.973 5.357 16.584 5.357 16.584s-13.368-3.638-16.12-6.611a7.341 7.341 0 01.53-10.222 7.337 7.337 0 0110.233.249zM36.735 164.165c.693 3.992-4.518 16.826-4.518 16.826s-9.245-10.319-9.938-14.311a7.338 7.338 0 1114.456-2.515zM62.404 192.634c-1.386 3.797-12.398 12.245-12.398 12.245s-2.772-13.576-1.352-17.367a7.34 7.34 0 1113.75 5.122zM76.963 218.573c-.748 3.985-10.145 14.2-10.145 14.2s-5.025-12.911-4.27-16.889a7.336 7.336 0 0114.415 2.724v-.035z" fill="#6C63FF"/><path d="M21.448 191.996c4.047.097 15.974-6.93 15.974-6.93s-11.573-7.623-15.627-7.72a7.336 7.336 0 00-7.366 7.165 7.341 7.341 0 007.02 7.506v-.021z" fill="#EEF7FF"/><path opacity=".1" d="M38.862 222.121C42.757 220.999 52.03 210.7 52.03 210.7s-13.32-3.804-17.214-2.681a7.338 7.338 0 004.054 14.102h-.007zM59.804 249.073c4.033-.444 14.907-9.01 14.907-9.01s-12.474-6.001-16.515-5.544a7.335 7.335 0 00-6.886 8.126 7.33 7.33 0 008.494 6.428z" fill="#6C63FF"/></g><path d="M482.812 460.755c17.135 7.501 38.042 2.937 57.488 3.465 2.656.072 5.479.294 7.609 1.592 2.131 1.297 3.188 3.393 4.65 5.195 5.449 6.69 16.616 8.84 26.374 7.705 9.759-1.135 18.705-4.895 27.915-7.753 15.918-4.949 34.11-7.207 49.812-1.802 1.439.492 2.985 1.063 4.501.865 3.443-.439 4.47-4.03 6.875-6.078 4.345-3.706 13.787-2.697 15.697-7.579 1.116-2.859-1.456-5.79-4.261-7.742-10.743-7.471-26.082-8.702-40.126-7.549-14.044 1.153-27.849 4.33-41.964 4.342-17.589 0-34.581-4.877-51.997-6.877-12.062-1.381-25.229-1.201-36.539 2.865-12.259 4.396-14.957 14.3-26.034 19.351zM159.16 437.294c29.266 8.407 64.982 3.289 98.189 3.885 4.545.083 9.359.327 13.008 1.787 3.649 1.46 5.441 3.813 7.943 5.827 9.306 7.502 28.376 9.915 45.039 8.64 16.664-1.275 31.953-5.488 47.685-8.693 27.187-5.547 58.268-8.074 85.085-2.026 2.46.554 5.052 1.192 7.692.971 5.877-.494 7.627-4.516 11.742-6.816 7.424-4.171 23.544-3.021 26.805-8.491 1.911-3.205-2.485-6.494-7.275-8.681-18.323-8.371-44.543-9.753-68.534-8.46-23.992 1.292-47.572 4.85-71.671 4.867-30.042 0-59.068-5.463-88.817-7.71-20.605-1.549-43.092-1.358-62.413 3.218-20.946 4.939-25.563 16.039-44.478 21.682zM69.188 458.656c8.32 4.766 18.424 1.868 27.85 2.202 1.29.045 2.657.187 3.692 1.008 1.034.82 1.545 2.162 2.252 3.306 2.639 4.251 8.047 5.621 12.772 4.897 4.725-.725 9.064-3.108 13.528-4.931 7.726-3.142 16.528-4.575 24.13-1.133a3.932 3.932 0 002.187.567c1.664-.283 2.163-2.565 3.328-3.867 2.104-2.355 6.681-1.698 7.602-4.818.541-1.817-.707-3.679-2.062-4.919-5.195-4.75-12.636-5.531-19.441-4.801-6.805.73-13.492 2.712-20.333 2.712-8.517 0-16.748-3.097-25.188-4.371-5.848-.883-12.225-.77-17.705 1.823-5.938 2.831-7.245 9.126-12.612 12.325z" fill="#EEF7FF"/><path opacity=".1" d="M471.084.396H193.382a25.463 25.463 0 00-17.998 7.41 25.386 25.386 0 00-7.476 17.948v384.17a25.374 25.374 0 007.482 17.936 25.457 25.457 0 0017.992 7.403h277.702a25.433 25.433 0 0017.997-7.41 25.372 25.372 0 007.476-17.947V25.754a25.386 25.386 0 00-7.476-17.947 25.427 25.427 0 00-8.26-5.493 25.47 25.47 0 00-9.737-1.918z" fill="#25323F"/><path d="M480.841 6.644H183.624c-6.609 0-11.967 5.348-11.967 11.946v402.229c0 6.597 5.358 11.945 11.967 11.945h297.217c6.61 0 11.968-5.348 11.968-11.945V18.589c0-6.597-5.358-11.945-11.968-11.945z" fill="#25323F"/><path d="M476.564 45.382H187.902v346.145h288.662V45.382z" fill="#fff"/><path fill-rule="evenodd" clip-rule="evenodd" d="M204.147 225.327h2.149v126.548h251.523v2.163H204.147V225.327z" fill="#F5F9FE"/><path opacity=".5" d="M244.134 314.05h-22.493v33.74h22.493v-33.74z" fill="#F5F9FE"/><path d="M292.87 285.309h-22.494v62.481h22.494v-62.481z" fill="#EEF7FF"/><path opacity=".5" d="M342.854 301.554h-22.493v46.236h22.493v-46.236z" fill="#F5F9FE"/><path d="M392.839 274.063h-22.493v73.727h22.493v-73.727z" fill="#EEF7FF"/><path d="M441.574 247.821h-22.493v99.969h22.493v-99.969z" fill="#F5F9FE"/><path fill-rule="evenodd" clip-rule="evenodd" d="M381.102 249.541l49.226-15.883-.684-2.082-49.63 16.013-48.131 39.788-49.371-33.126-50.874 35.515 1.272 1.791 49.627-34.645 49.485 33.202 49.08-40.573z" fill="#F5F9FE"/><path d="M233.513 294.056a4.373 4.373 0 100-8.746 4.373 4.373 0 000 8.746zM330.358 291.557a3.748 3.748 0 10.001-7.497 3.748 3.748 0 00-.001 7.497z" fill="#0E8AFD"/><path d="M380.968 252.819a4.373 4.373 0 100-8.747 4.373 4.373 0 000 8.747zM280.998 261.566a4.373 4.373 0 10.001-8.747 4.373 4.373 0 00-.001 8.747z" fill="#FF6584"/><path d="M429.703 236.574a4.373 4.373 0 100-8.747 4.373 4.373 0 000 8.747z" fill="#0E8AFD"/><path d="M330.983 422.767c6.556 0 11.871-5.035 11.871-11.246 0-6.212-5.315-11.247-11.871-11.247s-11.871 5.035-11.871 11.247c0 6.211 5.315 11.246 11.871 11.246z" fill="#465C72"/><path d="M455.849 185.185H205.033v-60.431l23.002 17.927 23.807 5.108 20.888-9.96 25.201-30.904 12.676-11.574 9.267-2.823 8.865.75 14.578 11.389 19.823 19.964 15.555 3.158 12.33-6.722 26.144-33.85 13.345-7.525 13.965 3.414 11.37 10.383v91.696z" fill="#F5F9FE" opacity=".2"/><path d="M249.124 149.098c-22.592 0-43.466-22.378-43.728-22.668l.625-1.5c.324.353 32.451 34.778 59.753 17.534 9.954-6.327 17.04-16.07 23.897-25.533 7.159-9.878 13.916-19.205 23.133-23.254 10.568-4.637 22.118-.443 30.895 11.243 7.505 9.987 22.447 26.02 38.232 21.23 8.045-2.449 14.825-11.966 22.006-22.043 13.765-19.323 28.004-39.306 52.633-10.638l-.653 1.464c-23.915-27.837-37.808-8.324-51.249 10.538-7.298 10.24-14.189 19.884-22.531 22.451-16.237 4.934-31.491-11.424-39.147-21.61-8.497-11.307-19.668-15.365-29.895-10.89-8.973 3.94-15.623 13.14-22.704 22.883-6.924 9.562-14.083 19.441-24.21 25.84-5.445 3.359-11.23 5.039-17.057 4.953z" fill="#F5F9FE"/><path d="M322.236 97.866a5.623 5.623 0 100-11.247 5.623 5.623 0 000 11.247z" fill="#FF6584"/><path d="M633.752 398.563c-3.241-1.067-8.047-2.3-11.857-1.866-3.628-1.32-12.157-4.743-17.983-9.896.168-5.068.039-10.141-.387-15.193-2.98-33.888 3.723-56.227 3.723-56.227s5.264-17.042 4.687-31.184c.34.641.53 1.02.53 1.02.458-12.197 4.616-24.821 7.731-32.686.118-.034.235-.076.347-.126l3.479-8.253c.277-.481.497-.993.656-1.526l.561-1.304-.166-.071c.055-.213.111-.443.166-.672 2.221-9.399 3.952-31.69 3.952-31.69 5.96-23.461-8.189-37.943-8.189-37.943l-24.015-20.663c.12.269.2.554.238.846l-.198-.174a52.14 52.14 0 01-1.075-3.462 18.286 18.286 0 002.371-2.031 18.437 18.437 0 005.383-9.605c.466-2.873.586-5.793.356-8.695l-.395-9.968a31.666 31.666 0 00-.593-5.81c-1.81-7.904-9.913-13.438-18.046-13.801a65.98 65.98 0 00-7.747.41 52.111 52.111 0 01-6.324.135 1.14 1.14 0 01-.68-.182.993.993 0 01-.292-.687 3.423 3.423 0 01.838-2.57c.318-.278.689-.49 1.091-.624l-.577.135c.284-.225.605-.399.948-.514a18.417 18.417 0 00-5.992 2.173 7.738 7.738 0 00-1.399 1.178 6.107 6.107 0 00-2.023 3.763 7.007 7.007 0 01-2.135-3.162 3.182 3.182 0 010-1.534c-.142.174-.279.354-.411.538v-.166a16.004 16.004 0 00-3.162 6.434 2.512 2.512 0 01-.569-1.849c-.118.371-.229.743-.332 1.114a2.57 2.57 0 010-.743 25.478 25.478 0 00-1.241 8.838c0 2.988 1.328 7.644 4.53 8.695.166.055.332.095.506.134a20.104 20.104 0 00-1.487 19.001 20.092 20.092 0 0015.043 11.701c.053.364.103.746.15 1.146h.127c.087.791.158 1.66.205 2.546a17.14 17.14 0 01-2.64 2.118 21.76 21.76 0 01-8.79 2.909 26.176 26.176 0 00-10.569 3.162c-3.833 2.142-8.062 5.265-9.39 9.059-2.214 6.324-14.403 16.165-22.576 17.39l-2.909-.166-.214-.063v.055l-.711-.039h-.229v.039l-.735-.039s-.071.34-.174.94c-4.111-1.414-12.845-5.335-24.212-15.651-12.648-11.485-29.762-9.225-36.362-7.778a1.129 1.129 0 00-.3 2.095c2.663 1.462 6.79 3.588 8.695 3.826 0 0-3.953 4.134.253 6.323a3.046 3.046 0 003.162-.308c2.039-1.494 7.707 1.889 15.92 3.652 0 0 23.176 23.983 34.686 27.667.265.523.558 1.033.877 1.525l.711-.055v.055h.301l.087.791s17.896-.941 23.714-7.439a9.3 9.3 0 001.13-1.209l-6.221 78.257h.056l-.056.743h4.577a172.428 172.428 0 01-1.241 28.82v51.017s-.237 4.49 9.09 11.067a348.688 348.688 0 0128.236 21.888l1.13.98c-1.715 15.612-5.304 44.709-8.299 45.792l1.849.324c-3.162 4.008-12.141 15.019-14.876 15.312-3.352.371-5.589 5.588 0 6.703a62.6 62.6 0 0033.199-3.273 5.067 5.067 0 003.162-5.391l-1.083-8.22c.205.113.371.287.475.498.743 2.237 0-2.981 0-2.981a232.958 232.958 0 007.201-30.038l11.066 9.565s.222-.276.609-.79c2.711 6.15 7.549 18.734 6.466 27.951-1.486 12.647 12.648 1.486 11.169-5.96-1.201-6.024 4.174-31.556 6.269-41.105a4.244 4.244 0 00-2.846-4.948z" fill="url(#paint0_linear)"/><path d="M516.612 190.569s-10.064-1.738-24.986-15.297c-11.807-10.724-27.732-8.615-33.873-7.263a1.055 1.055 0 00-.817.878 1.051 1.051 0 00.538 1.072c2.482 1.361 6.329 3.348 8.132 3.575 0 0-3.719 3.854.234 5.918a2.845 2.845 0 002.973-.288c1.901-1.39 7.182 1.769 14.839 3.409 0 0 29.845 30.941 36.785 25.696l-3.825-17.7zM571.937 147.991s2.909 12.363 0 21.09l13.09 1.818 11.636-5.818v-7.636s-5.454-11.636-4-25.089l-20.726 15.635z" fill="#FBBEBE"/><path d="M609.001 415.961s9.486 18.544 7.999 30.907c-1.486 12.363 12.363 1.455 10.909-5.817-1.178-5.882 4.071-30.829 6.118-40.109a4.144 4.144 0 00-2.751-4.83c-4.371-1.438-11.691-3.201-15.366-.506-5.431 3.992-6.909 20.355-6.909 20.355zM573.029 436.324s-12.363 15.999-15.636 16.362c-3.272.364-5.454 5.455 0 6.546a61.148 61.148 0 0032.41-3.162 4.95 4.95 0 003.106-5.265l-2.086-15.572-17.794 1.091z" fill="#25323F"/><path d="M552.665 266.522l-11.857 1.581a173.555 173.555 0 01-.143 41.682v49.8s-.229 4.387 8.877 10.766a340.216 340.216 0 0127.572 21.343l32.994 28.583s13.09-15.999 11.272-25.453c0 0-21.817-6.909-24.726-18.181-1.667-6.45-10.125-11.857-17.05-15.256a21.2 21.2 0 01-11.343-24.062 18.56 18.56 0 011.857-4.672c5.818-10.181 14.181-33.089 14.181-33.089L568.3 269.068l-15.635-2.546z" fill="#568DC4"/><path opacity=".2" d="M552.665 266.522l-11.857 1.581a173.555 173.555 0 01-.143 41.682v49.8s-.229 4.387 8.877 10.766a340.216 340.216 0 0127.572 21.343l32.994 28.583s13.09-15.999 11.272-25.453c0 0-21.817-6.909-24.726-18.181-1.667-6.45-10.125-11.857-17.05-15.256a21.2 21.2 0 01-11.343-24.062 18.56 18.56 0 011.857-4.672c5.818-10.181 14.181-33.089 14.181-33.089L568.3 269.068l-15.635-2.546z" fill="#25323F"/><path d="M570.12 437.438s21.453 3.636 22.181 5.818c.727 2.182 0-2.909 0-2.909s12.363-37.452 9.485-70.534c-2.877-33.081 3.636-54.906 3.636-54.906s7.636-24.726 3.273-38.907c-4.363-14.181-50.179-8-50.179-8s15.999 37.453 15.635 55.27c0 0 1.818 53.816 5.091 59.997-.032-.032-5.122 52.693-9.122 54.171z" fill="#568DC4"/><path d="M572.641 157.445s2.182 13.438 23.999 7.636l-14.513 110.532s-42.18 1.454-41.816-3.636l8.695-66.898 23.635-47.634z" fill="#fff"/><path opacity=".1" d="M573.211 156.718a17.726 17.726 0 01-10.506 4.988 25.546 25.546 0 00-10.323 3.067c-3.739 2.095-7.905 5.138-9.17 8.845-2.545 7.273-18.544 19.272-25.816 16.727l2.545 21.817s20.726-1.091 24.362-9.091l-6.173 77.854h5.454s2.909-21.09 5.09-25.453c2.182-4.364 6.546-28.363 6.909-34.18.364-5.818 5.818-39.271 10.545-45.057l7.114-17.272-.031-2.245z" fill="#000"/><path opacity=".1" d="M573.208 157.809a22.51 22.51 0 01-11.233 4.624 25.547 25.547 0 00-10.316 3.083c-3.739 2.095-7.904 5.138-9.169 8.845-2.545 7.273-18.545 19.272-25.817 16.727l2.545 21.817s20.727-1.091 24.363-9.091l-6.182 77.806h5.455s2.908-21.089 5.09-25.453c2.182-4.363 6.545-28.362 6.909-34.18.363-5.818 5.818-39.271 10.545-45.057l7.81-16.947v-2.174z" fill="#000"/><path d="M573.211 157.081a22.511 22.511 0 01-11.233 4.625 25.546 25.546 0 00-10.323 3.067c-3.739 2.094-7.905 5.138-9.17 8.845-2.545 7.272-18.544 19.272-25.817 16.726l2.546 21.818s20.726-1.091 24.362-9.091l-6.174 77.854h5.455s2.908-21.09 5.09-25.454c2.182-4.363 6.545-28.362 6.909-34.18.364-5.817 5.818-39.27 10.545-45.056l7.818-16.909-.008-2.245z" fill="#FF6584"/><path opacity=".1" d="M591.754 143.082c-.474-3.446.474-5.596.909-9.636l-20.726 15.636s.498 2.111.877 5.201c1.046.169 2.103.254 3.162.253 7.194 0 12.371-5.62 15.778-11.454z" fill="#000"/><path d="M575.937 153.453c10.845 0 19.636-8.791 19.636-19.635 0-10.844-8.791-19.636-19.636-19.636-10.844 0-19.635 8.792-19.635 19.636s8.791 19.635 19.635 19.635z" fill="#FBBEBE"/><path opacity=".1" d="M554.507 114.57a24.843 24.843 0 011.581-9.715 2.424 2.424 0 00.411 3.162 15.555 15.555 0 014.932-8.743c-1.399.23-2.118 1.961-1.77 3.336a7.583 7.583 0 002.426 3.415c-.118-2.079 1.257-4.023 2.996-5.162a17.978 17.978 0 015.85-2.118 3.391 3.391 0 00-2.245 3.478.976.976 0 00.292.672c.198.126.43.187.664.174 2.048.079 4.099.034 6.142-.135a64.603 64.603 0 017.565-.403c7.905.332 15.849 5.731 17.62 13.438.367 1.87.56 3.77.577 5.676l.387 9.73a35.572 35.572 0 01-.348 8.506 18.014 18.014 0 01-9.256 12.236c-2.854-4.134-3.107-9.446-4.095-14.37a7.267 7.267 0 00-1.233-3.162 2.774 2.774 0 00-3.043-1.028c-1.068.427-1.526 2.055-.641 2.783-.79.932-2.268.237-3.162-.593a16.987 16.987 0 01-4.924-8.798c-.356-1.692-.712-3.779-2.372-4.356a4.4 4.4 0 00-1.754-.118c-3.463.237-8.877 1.668-12.229.569-3.075-1.004-4.371-5.557-4.371-8.474z" fill="#000"/><path d="M554.87 114.206a24.862 24.862 0 011.581-9.715 2.424 2.424 0 00.411 3.162 15.559 15.559 0 014.933-8.742c-1.399.229-2.119 1.96-1.771 3.335a7.593 7.593 0 002.427 3.415c-.119-2.079 1.257-4.023 2.996-5.162a17.985 17.985 0 015.849-2.118 3.392 3.392 0 00-2.245 3.478.969.969 0 00.293.672c.197.126.43.187.664.174 2.048.079 4.099.034 6.142-.135a64.58 64.58 0 017.565-.403c7.904.332 15.849 5.731 17.619 13.438.367 1.87.56 3.77.577 5.676l.388 9.731a35.563 35.563 0 01-.348 8.505 18.02 18.02 0 01-9.257 12.237c-2.853-4.135-3.106-9.446-4.094-14.371a7.28 7.28 0 00-1.233-3.162 2.778 2.778 0 00-3.044-1.028c-1.067.427-1.525 2.056-.64 2.783-.791.933-2.269.237-3.162-.593a16.981 16.981 0 01-4.925-8.798c-.355-1.692-.711-3.778-2.371-4.355a4.405 4.405 0 00-1.755-.119c-3.462.237-8.877 1.668-12.228.569-3.075-1.012-4.372-5.557-4.372-8.474z" fill="#25323F"/><path opacity=".1" d="M594.663 153.659l23.454 20.181s13.817 14.181 7.999 37.089c0 0-2.545 33.452-5.454 34.907 0 0-10.181 20.362-10.909 39.634 0 0-13.635-27.453-19.817-10.727-6.181 16.727-20.552 19.09-20.552 19.09l8-98.935s20.188-35.089 17.279-41.239z" fill="#000"/><path d="M595.393 153.659l23.453 20.181s13.818 14.181 8 37.089c0 0-2.545 33.452-5.454 34.907 0 0-10.182 20.362-10.909 39.634 0 0-14.363-28.908-20.552-12.181-6.189 16.726-19.817 20.552-19.817 20.552l7.999-98.896s20.189-35.136 17.28-41.286z" fill="#FF6584"/><path d="M606.118 238.895s5.818-3.999 15.272 6.909l-23.272 42.18-7.817-11.802s16.544-32.56 15.817-37.287z" fill="#FBBEBE"/><path opacity=".1" d="M600.483 241.259s12.869 14.45 17.888 12.134l4.648-10.822-17.445-7.494-5.091 6.182z" fill="#000"/><path d="M600.483 240.532s12.869 14.449 17.888 12.133l4.648-10.821-17.445-7.494-5.091 6.182z" fill="#FD6F8D"/><path opacity=".1" d="M591.092 273.423s6.126 12.553 9.391 13.28l-4.743 5.454-6.909-13.09 2.261-5.644z" fill="#000"/><path d="M590.727 273.811s6.126 12.552 9.391 13.279l-4.743 5.455-6.924-13.114 2.276-5.62z" fill="#568DC4"/><path opacity=".1" d="M602.299 196.17s.727 26.181-2.182 35.999l2.182-35.999zM543.393 201.261s4.364-1.454 4.364-5.091l-4.364 5.091z" fill="#000"/><path d="M118.671 456.01l-1.033-.533c13.415-25.914 6.241-59.567-2.138-83.235a255.03 255.03 0 00-21.666-45.687l.983-.621a256.346 256.346 0 0121.778 45.92c8.457 23.885 15.681 57.874 2.076 84.156zM128.617 326.142l-7.54 41.234 1.143.208 7.54-41.233-1.143-.209z" fill="#25323F"/><path d="M78.477 361.272l-.852.792 38.94 41.811.852-.791-38.94-41.812zM148.479 407.201l-19.751 27.3.942.681 19.752-27.301-.943-.68z" fill="#25323F"/><path d="M132.102 315.211a5.81 5.81 0 005.812-5.807 5.81 5.81 0 00-5.812-5.808 5.81 5.81 0 00-5.812 5.808 5.81 5.81 0 005.812 5.807zM68.752 359.926a5.81 5.81 0 005.812-5.807 5.81 5.81 0 00-5.812-5.808 5.81 5.81 0 00-5.812 5.808 5.81 5.81 0 005.812 5.807zM94.325 365.733a5.81 5.81 0 005.812-5.807 5.809 5.809 0 00-5.812-5.807 5.809 5.809 0 00-5.812 5.807 5.81 5.81 0 005.812 5.807zM82.7 388.381a5.81 5.81 0 005.812-5.807 5.81 5.81 0 00-5.812-5.807 5.81 5.81 0 00-5.812 5.807 5.81 5.81 0 005.812 5.807zM155.349 402.899a5.81 5.81 0 005.812-5.807 5.81 5.81 0 00-5.812-5.808 5.81 5.81 0 00-5.812 5.808 5.81 5.81 0 005.812 5.807zM136.17 409.287a5.81 5.81 0 005.812-5.807 5.81 5.81 0 00-5.812-5.808 5.81 5.81 0 00-5.812 5.808 5.81 5.81 0 005.812 5.807zM149.538 427.869a5.81 5.81 0 005.812-5.807 5.81 5.81 0 00-5.812-5.807 5.81 5.81 0 00-5.812 5.807 5.81 5.81 0 005.812 5.807zM88.512 322.179a5.809 5.809 0 005.812-5.807 5.81 5.81 0 00-5.812-5.807 5.81 5.81 0 00-5.812 5.807 5.809 5.809 0 005.812 5.807z" fill="#465C72"/><defs><linearGradient id="paint0_linear" x1="161187" y1="238602" x2="161187" y2="64954.8" gradientUnits="userSpaceOnUse"><stop stop-color="gray" stop-opacity=".25"/><stop offset=".54" stop-color="gray" stop-opacity=".12"/><stop offset="1" stop-color="gray" stop-opacity=".1"/></linearGradient></defs></svg>