<svg width="660" height="745" viewBox="0 0 660 745" fill="none" xmlns="http://www.w3.org/2000/svg"><path d="m79.756 570.676-1.133-.255c12.629-56.108 44.366-107.06 89.365-143.469a257.907 257.907 0 0 1 117.577-53.413 258.034 258.034 0 0 1 128.753 10.268 257.805 257.805 0 0 1 107.607 71.371 257.477 257.477 0 0 1 59.451 114.559l-1.132.257c-26.733-117.267-129.605-199.168-250.167-199.168-118.982 0-224.257 84.049-250.321 199.85Z" fill="#BBCFE2"/><path d="M242.135 240.47c17.413 0 31.529-14.102 31.529-31.498 0-17.397-14.116-31.499-31.529-31.499s-31.529 14.102-31.529 31.499c0 17.396 14.116 31.498 31.529 31.498Z" fill="#FF6584"/><path d="M542.379 557.374c-2.058 7.179-9.104 11.626-9.104 11.626s-3.711-7.194-1.654-14.374c2.057-7.179 9.104-11.626 9.104-11.626s3.711 7.194 1.654 14.374Z" fill="#8597A8"/><path d="M539.197 555.688C533.675 560.935 533 569 533 569s8.28-.441 13.803-5.688C552.325 558.065 553 550 553 550s-8.28.441-13.803 5.688Z" fill="#F5F9FE"/><path d="M170.88 552.008C173.795 562.501 183.777 569 183.777 569s5.257-10.514 2.343-21.008C183.205 537.499 173.223 531 173.223 531s-5.257 10.514-2.343 21.008Z" fill="#8597A8"/><path d="M175.014 549.382C183.022 557.114 184 569 184 569s-12.006-.65-20.014-8.382C155.978 552.886 155 541 155 541s12.006.65 20.014 8.382Z" fill="#F5F9FE"/><path d="m196.032 274.261-11.856-9.476 66.391-59.222h168.349v52.116l-109.071 73.435-113.813-56.853Z" fill="#EEF7FF"/><path opacity=".1" d="m196.032 274.261-11.856-9.476 66.392-59.222h168.348v52.116l-109.071 73.435-113.813-56.853Z" fill="#465C72"/><path opacity=".1" d="M449.612 238.783v-32.036H427.26v7.845l-8.342-9.029-54.536 59.222-21.34 14.214-33.088 241.518 49.901 49.854h115.97V267.154l-26.213-28.371Z" fill="#465C72"/><path d="M449.612 238.783v-32.036H427.26v7.845l-8.342-9.029-54.536 59.222-21.34 14.214-33.088 241.518 49.901 49.854h115.97V267.154l-26.213-28.371Z" fill="#EEF7FF"/><path d="M364.38 264.785H184.176V570.37H364.38V264.785Z" fill="#fff"/><path d="M287.32 495.751h-33.195v74.62h33.195v-74.62Z" fill="#8597A8"/><path d="M226.331 527.751h14v-32h-14v32ZM218.331 525.085v-29.334h-14v32h14v-2.666ZM327.855 527.751h14v-32h-14v32ZM319.855 525.085v-29.334h-14v32h14v-2.666ZM425 308.183h12v-28h-12v28ZM416 305.85v-25.667h-12v28h12v-2.333ZM425 365.036h12v-28h-12v28ZM416 362.703v-25.667h-12v28h12v-2.333ZM425 421.89h12v-28h-12v28ZM416 419.557V393.89h-12v28h12v-2.333ZM425 478.743h12v-28h-12v28ZM416 476.41v-25.667h-12v28h12v-2.333ZM341.855 280.183H204.331v28.426h137.524v-28.426ZM341.855 337.036H204.331v28.427h137.524v-28.427ZM341.855 393.89H204.331v28.426h137.524V393.89ZM341.855 450.743H204.331v28.427h137.524v-28.427Z" fill="#BBCFE2"/><path d="M660 569H0v2h660v-2Z" fill="#8597A8"/><path d="M129 407h-5v163h5V407Z" fill="#465C72"/><path d="M165.999 427.815C166.259 484.7 126.472 531 126.472 531s-40.21-45.929-40.47-102.815C85.74 371.3 125.527 325 125.527 325s40.21 45.929 40.471 102.815Z" fill="#F5F9FE"/><path d="M165.999 427.815C166.259 484.7 126.472 531 126.472 531s-40.21-45.929-40.47-102.815C85.74 371.3 125.527 325 125.527 325s40.21 45.929 40.471 102.815Z" fill="#8597A8"/><path d="M72 392h-5v178h5V392Z" fill="#465C72"/><path d="M113.999 414.298C114.289 476.43 70.025 527 70.025 527s-44.734-50.165-45.024-112.297C24.711 352.571 68.975 302 68.975 302s44.734 50.165 45.024 112.298Z" fill="#F5F9FE"/><path d="M548.871 264.596c-26.863.123-48.728.52-48.728.52s25.99-34.394 48.63-21.651c22.64 12.742 48.648 21.203 48.648 21.203s-21.688-.196-48.55-.072ZM101.325 267.963c-26.863.123-48.728.52-48.728.52s25.99-34.394 48.63-21.651c22.64 12.742 48.648 21.203 48.648 21.203s-21.688-.196-48.55-.072ZM198.845 192.685c-26.863.123-48.728.52-48.728.52s25.99-34.394 48.63-21.652c22.64 12.743 48.648 21.204 48.648 21.204s-21.688-.196-48.55-.072Z" fill="#EEF7FF"/><path d="M605 395h-5v175h5V395Z" fill="#465C72"/><path d="M645.999 416.8c.283 61.304-42.986 111.2-42.986 111.2s-43.728-49.497-44.012-110.8c-.283-61.304 42.986-111.2 42.986-111.2s43.728 49.497 44.012 110.8Z" fill="#F5F9FE"/><path d="M491.274 486.247h26.719v-8.239h5.917v8.239h33.456v18.133H523.91v64.921h-5.917V504.38h-26.719l-11.311-9.351 11.311-8.782Z" fill="#0E8AFD"/><circle cx="520.64" cy="495.049" r="5.247" fill="#EEF7FF"/></svg>