<svg width="660" height="745" viewBox="0 0 660 745" fill="none" xmlns="http://www.w3.org/2000/svg"><path d="M537.003 407.677c-17.69 24.049-10.818 59.181.423 87.318 3.764 9.42 8.021 19.387 6.433 29.489-1.942 12.354-12.253 21.387-23.079 26.175-19.736 8.727-43.352 6.647-61.486-5.415-15.671-10.425-26.894-27.377-42.833-37.327-26.673-16.651-60.624-10.363-89.587 1.107-20.491 8.115-42.894 18.668-63.255 10.187-14.327-5.967-24.231-20.491-29.627-35.886-2.605-7.433-4.496-15.478-9.471-21.37-2.957-3.502-12.067 2.097-16.021 0-36.106-19.142-76.43 13.147-111.5-8.085-23.685-14.339-38.876-71.509-45.59-99.713-6.713-28.204-5.931-57.777-4.226-86.823 1.21-20.642 3.384-42.679 15.719-58.61 13.048-16.853 35.442-23.12 55.683-19.917 20.241 3.203 38.588 14.62 54.729 28.067 20.173 16.806 38.881 37.733 63.648 44.541 16.867 4.636 34.609 2.1 52.005 1.222 29.082-1.468 58.175 1.797 87.097 5.372 27.687 3.422 55.574 7.189 81.951 16.82 18.666 6.815 33.63 19.187 51.255 27.83 11.489 5.633 24.017 7.189 34.895 14.365 13.4 8.839 25.684 24.214 22.251 42.205-3.264 17.104-20.025 25.684-29.414 38.448Z" fill="#EEF7FF"/><path d="M242.993 554.422c.292 15.813-9.006 21.507-20.601 21.721a30.84 30.84 0 0 1-.804.005 31.177 31.177 0 0 1-1.597-.044c-10.478-.547-18.716-6.201-18.988-20.906-.281-15.219 18.815-34.783 20.247-36.23l.003-.001.082-.083s21.366 19.727 21.658 35.538Z" fill="#F5F9FE"/><path d="m221.583 574.259 7.481-8.519-7.478 9.442.002.966a42.046 42.046 0 0 1-1.597-.034l.535-12.409-.008-.096.013-.018.051-1.173-7.937-9.242 7.94 8.365.025.248.404-9.375-6.834-9.571 6.877 7.923.193-19.428.001-.065.002.064.252 15.316 6.433-6.167-6.43 7.486.023 8.389 5.954-8.137-5.949 9.37.013 4.665 8.651-11.332-8.647 12.959.03 10.373Z" fill="#465C72"/><path d="M484.652 177.304c15.272 0 27.652-12.38 27.652-27.652S499.924 122 484.652 122 457 134.38 457 149.652s12.38 27.652 27.652 27.652Z" fill="#FF6584"/><path opacity=".1" d="M358 555.475c.327 1.331.502 2.2.502 2.2l9.211 5.325s6.698-15.157 3.349-15.566c-.519-.062-1.088-.59-1.683-1.434a2.317 2.317 0 0 0-.967 1.101c-.193.46-.23.969-.105 1.451.132.612.355 1.201.662 1.749 1.256 2.048-4.187 5.326-4.187 5.326-1.833 2.306-4.81 1.089-6.782-.152Z" fill="#000"/><path d="M369.096 549c-.563-2.417 2.396-4.037 4.057-2.223.423.454.793.957 1.103 1.498 1.641 2.934 13.946 5.448 16.407 4.61 2.461-.838 11.075-1.676 9.024 4.61C397.636 563.781 360.72 573 360.72 573s-4.101-5.867-3.691-10.057a49.29 49.29 0 0 0 0-8.382s5.742 5.448 8.614 1.677c0 0 5.332-3.353 4.101-5.448a6.605 6.605 0 0 1-.648-1.79Z" fill="#DCE6F2"/><path opacity=".1" d="m252 546.379 3.273 7.621L270 552.396a32.81 32.81 0 0 1-.753-6.298 1.996 1.996 0 0 0-.625-.723 2.054 2.054 0 0 0-1.854-.261 2.025 2.025 0 0 0-.806.523c-.761.802-1.53 1.648-2.098 2.346-1.637 2.006-6.955.802-6.955.802-1.379.45-3.015-1.5-4.185-3.301a5.87 5.87 0 0 1-.724.895Z" fill="#000"/><path d="M265.06 546.003a2.02 2.02 0 0 1 .907-.58 1.977 1.977 0 0 1 1.068-.027c.353.089.675.273.934.533s.445.587.539.946c.75 2.986 2.394 6.845 5.974 8.305 6.179 2.52 14.83 6.72 11.946 10.5-2.883 3.78-12.769 7.141-21.42 4.2C256.358 566.94 244 559.8 244 559.8l6.179-16.8s3.295 7.14 5.767 6.3c0 0 5.355 1.26 7.003-.84.573-.731 1.347-1.615 2.111-2.457Z" fill="#DCE6F2"/><path d="m346.852 419.42 6.201 23.225 5.827 27.211s3.137 5.799 0 17.843l10.309 33.457s5.826 21.412 9.412 21.858c3.586.446-3.586 16.951-3.586 16.951l-9.86-5.799s-2.69-13.382-6.275-16.505c-3.586-3.123-15.24-34.349-15.24-34.349l-3.585-21.858s-11.206-29.887-21.067-37.025c-9.86-7.137-12.998-18.735-12.998-18.735l40.862-6.274ZM294.337 342.723l-3.586 22.304s-4.482 14.721-4.034 21.858c.448 7.138 0 16.951 0 16.951s-10.757 19.628-1.793 27.658c8.964 8.029 11.654-25.427 11.654-25.427s-1.345-14.275 1.793-21.858c3.137-7.584 3.585-24.089 3.585-24.089l-7.619-17.397Z" fill="#FBBEBE"/><path opacity=".05" d="m294.337 342.723-3.586 22.304s-4.482 14.721-4.034 21.858c.448 7.138 0 16.951 0 16.951s-10.757 19.628-1.793 27.658c8.964 8.029 11.654-25.427 11.654-25.427s-1.345-14.275 1.793-21.858c3.137-7.584 3.585-24.089 3.585-24.089l-7.619-17.397ZM305.99 425.694s3.138 11.598 12.998 18.735c9.861 7.138 21.067 37.026 21.067 37.026l3.585 21.858s11.654 31.226 15.24 34.348c2.631 2.293 4.782 10.113 5.737 14.11.349 1.45.538 2.396.538 2.396l9.86 5.799s7.172-16.506 3.586-16.952c-.556-.067-1.165-.642-1.802-1.561-3.451-5.005-7.61-20.297-7.61-20.297L358.88 487.7c3.137-12.045 0-17.844 0-17.844l-5.827-27.211-6.199-23.223-40.864 6.272Z" fill="#000"/><path d="m248.619 541.677 3.585 8.475 16.136-1.784a37.079 37.079 0 0 1-.825-7.004c-.143-5.063.637-11.897 4.859-17.085 7.62-9.367 19.273-32.564 19.273-32.564s11.654-12.49 14.343-17.397l22.438-37.458-.699-3.359 6.051-5.576h-37.651l-8.964 34.794-7.171 14.275s-15.24 12.937-21.066 40.148c0 0-5.814 18.129-9.516 23.54-.231.357-.497.69-.793.995ZM324.367 290.976s-10.757 14.721-8.068 24.981c2.69 10.26-21.514-6.691-21.514-6.691s12.55-11.152 10.309-29.442l19.273 11.152Z" fill="#FBBEBE"/><path d="M288.958 430.601c17.929 10.706 39.443 6.245 39.443 6.245l-.448-3.123c.314.032.627.063.932.09 17.136 1.507 21.03-3.658 21.03-3.658-2.68-7.499-4.782-23.397-6.091-35.687a698.705 698.705 0 0 1-.515-5.041 574.455 574.455 0 0 1-.789-8.636c-.148-1.793-.224-2.828-.224-2.828l-1.793-13.383s-4.93-16.059-2.689-26.765c1.908-9.118-4.311-12.412-6.198-13.189a6.142 6.142 0 0 0-.911-.269c-2.459-.58-5.196-3.081-7.526-5.764a30.225 30.225 0 0 0-12.572-8.538c-2.255-.816-4.168-1.682-4.168-1.682-3.138-3.568-11.654-1.338-11.654-1.338-10.309 6.691-4.93 28.55-4.93 28.55l4.285 12.187c2.389 6.785 5.79 13.137 9.717 19.172 6.589 10.118-2.349 23.955-2.349 23.955-13.894 11.152-12.55 39.702-12.55 39.702Z" fill="#FF6584"/><path opacity=".05" d="m327.281 409.858 1.604 23.955c17.136 1.508 21.031-3.658 21.031-3.658-2.681-7.498-4.783-23.397-6.092-35.687a698.643 698.643 0 0 1-.515-5.04l-16.028 20.43Z" fill="#000"/><path opacity=".1" d="M298.819 347.184s8.068 15.166 10.757 21.858c2.689 6.691 2.689 4.461 4.034 6.691 1.345 2.23 15.688 12.044 15.688 12.044l14.526 6.692a631.604 631.604 0 0 1-1.304-13.677l-13.671-9.074s-9.412-5.799-9.86-13.382c-.449-7.584-6.275-21.412-6.275-21.412s-11.654-12.491-16.584-6.692c-4.931 5.799 2.689 16.952 2.689 16.952Z" fill="#000"/><path d="M312.714 334.693s5.827 13.829 6.275 21.412c.448 7.584 9.86 13.383 9.86 13.383l29.583 19.628s25.548 8.475 17.032 18.289c-8.516 9.814-21.963-10.706-21.963-10.706l-24.203-11.152s-14.343-9.814-15.688-12.044c-1.345-2.231-1.344 0-4.034-6.692-2.689-6.691-10.757-21.858-10.757-21.858s-7.62-11.152-2.689-16.951c4.93-5.799 16.584 6.691 16.584 6.691Z" fill="#FBBEBE"/><path opacity=".1" d="M316.299 340.492s-8.964-6.691-10.757-8.922c-.791-.984-2.02-.839-3.145-.369a14.179 14.179 0 0 1-6.66 1.094c-1.961-.167-3.865-.055-3.641 1.06.448 2.23-1.345-11.598-1.345-11.598l7.62-2.677 9.86 5.353 8.068 16.059Z" fill="#000"/><path d="M316.299 339.6s-8.964-6.692-10.757-8.922c-.791-.985-2.02-.839-3.145-.369a14.191 14.191 0 0 1-6.66 1.094c-1.961-.167-3.865-.056-3.641 1.059.448 2.231-1.345-11.598-1.345-11.598l7.62-2.676 9.86 5.353 8.068 16.059Z" fill="#FF6584"/><path opacity=".1" d="M337.408 340.491a11.038 11.038 0 0 1-10.127-.669M308.007 280.939c.335-2.666-2.982 2.872-3.361-.223l19.273 11.152s-1.1 1.508-2.508 3.889a19.7 19.7 0 0 1-2.199.126c-5.798 0-7.633-10.945-11.205-14.944Z" fill="#000"/><path d="M319.661 294.991c10.768 0 19.497-8.688 19.497-19.405s-8.729-19.404-19.497-19.404-19.497 8.687-19.497 19.404 8.729 19.405 19.497 19.405Z" fill="#FBBEBE"/><path opacity=".1" d="M328.409 275.925c-.147 1.219-.12 2.506-.702 3.588-.815 1.514-2.573 2.203-4.043 3.104-5.956 3.651-7.722 11.867-5.824 18.568.671 2.371 1.73 4.778 1.29 7.202-.756 4.167-5.524 6.327-9.762 6.697-4.238.37-8.674-.314-12.637 1.225-6.657 2.584-9.588 10.353-15.246 14.695-6.581 5.051-15.646 4.738-23.935 5.322-3.065.216-6.175.584-9.186-.027-3.01-.61-5.981-2.416-7.045-5.285-1.5-4.048 1.233-8.437 4.407-11.376 3.175-2.938 7.049-5.417 8.846-9.343 2.416-5.278.463-11.945 3.502-16.893a5.2 5.2 0 0 1 2.472-2.256c1.339-.5 2.824-.155 4.253-.106 5.535.19 10.256-4.205 12.827-9.087 2.571-4.883 3.663-10.409 6.014-15.4 2.661-5.648 7.095-10.633 12.859-13.084 3.376-1.437 7.062-1.964 10.587-2.986 4.008-1.162 7.833-2.97 11.938-3.723 4.105-.753 8.755-.256 11.756 2.631 2.825 2.718 3.649 6.981 6.349 9.821 1.02 1.074 2.331 1.981 2.822 3.376 1.164 3.304-4.482 3.582-6.365 4.905a12.318 12.318 0 0 0-5.177 8.432Z" fill="#000"/><path d="M327.512 275.479c-.146 1.218-.119 2.506-.701 3.587-.816 1.514-2.573 2.203-4.043 3.104-5.956 3.652-7.723 11.868-5.825 18.569.672 2.371 1.731 4.777 1.291 7.202-.756 4.166-5.525 6.326-9.763 6.696-4.237.37-8.674-.313-12.637 1.225-6.656 2.584-9.587 10.354-15.245 14.696-6.581 5.05-15.646 4.738-23.935 5.322-3.065.216-6.175.583-9.186-.027s-5.982-2.417-7.045-5.285c-1.501-4.048 1.232-8.437 4.407-11.376 3.174-2.938 7.049-5.417 8.846-9.344 2.416-5.278.463-11.944 3.502-16.892a5.181 5.181 0 0 1 2.472-2.256c1.338-.501 2.823-.155 4.252-.106 5.536.189 10.256-4.205 12.827-9.087 2.572-4.883 3.664-10.409 6.015-15.4 2.661-5.648 7.094-10.633 12.858-13.085 3.377-1.436 7.062-1.963 10.588-2.985 4.007-1.162 7.833-2.97 11.938-3.723 4.105-.753 8.755-.256 11.756 2.631 2.825 2.717 3.648 6.981 6.348 9.821 1.021 1.073 2.331 1.981 2.823 3.376 1.163 3.304-4.482 3.582-6.365 4.905a12.318 12.318 0 0 0-5.178 8.432ZM115.096 576.965s-13.394-24.17 3.248-43.424c16.642-19.254 36.125-8.602 36.125-8.602s24.354 11.47 18.671 38.917c0 0-3.247 13.929-12.988 13.109h-45.056Z" fill="#0E8AFD"/><path opacity=".2" d="M115.096 576.965s-13.394-24.17 3.248-43.424c16.642-19.254 36.125-8.602 36.125-8.602s24.354 11.47 18.671 38.917c0 0-3.247 13.929-12.988 13.109h-45.056Z" fill="#fff"/><path d="m137 577 14-45M164 539s-7.286-3.559-14.6-1.576c0 0-3.791-9.799-12.4-11.424M168 554s-12.793-9.135-22.154-6.364c0 0-10.573-12.397-17.846-11.599M165 571s-10.825-8.059-24.213-7.53c0 0-10.187-12.646-19.787-13.47M142 577a27.79 27.79 0 0 0-5.134-1.876s-8.283-10.986-24.866-7.407" stroke="#535461" stroke-miterlimit="10"/><path d="M157.849 390.951c-8.314-8.193-21.069-8.731-21.069-8.731s.726 12.745 9.041 20.938c8.314 8.193 21.069 8.732 21.069 8.732s-.726-12.745-9.041-20.939ZM222.745 420.823c2.708-10.477-2.787-20.958-2.787-20.958s-9.885 6.505-12.594 16.982c-2.708 10.476 2.787 20.957 2.787 20.957s9.886-6.505 12.594-16.981Z" fill="#F5F9FE"/><path d="M456.18 429.606C450.381 435.681 450 445 450 445s9.021-.53 14.82-6.606C470.619 432.319 471 423 471 423s-9.021.53-14.82 6.606Z" fill="#6C63FF"/><path d="M372.5 444a3.5 3.5 0 1 0 0-7 3.5 3.5 0 0 0 0 7ZM380.5 482a3.5 3.5 0 1 0 0-7 3.5 3.5 0 0 0 0 7Z" fill="#FC6681"/><path d="M281 510.832s13.042 11.266 34.363 5.55C336.684 510.665 331.427 496 331.427 496M371 546s-28.799-14.089-43.278-8.835C290.026 550.846 262 514 262 514" stroke="#535461" stroke-width="2" stroke-miterlimit="10"/><path d="M287.466 577s17.316-13.022-4.43-58.599c0 0-28.996-36.218 0-70.401 0 0-63.227 1.628-62.019 61.041C222.225 568.454 252.63 577 252.63 577h34.836Z" fill="#F5F9FE"/><path opacity=".1" d="M287.466 577s17.316-13.022-4.43-58.599c0 0-28.996-36.218 0-70.401 0 0-63.227 1.628-62.019 61.041C222.225 568.454 252.63 577 252.63 577h34.836Z" fill="#000"/><path fill-rule="evenodd" clip-rule="evenodd" d="m262.69 459.87-7.228 19.874s-7.643 17.332-3.813 34.341l.001.007a40.312 40.312 0 0 0 4.797 12.211c5.871 9.613 9.885 22.253 12.429 32.447a208.2 208.2 0 0 1 2.775 12.847 164.663 164.663 0 0 1 .813 4.839l.039.268.01.069.003.018v.006l-.714.102-.714.101-.003-.02-.009-.066a9.437 9.437 0 0 1-.018-.126l-.02-.136c-.035-.23-.087-.572-.157-1.014a169.92 169.92 0 0 0-.648-3.776 207.75 207.75 0 0 0-2.755-12.756c-2.535-10.154-6.506-22.621-12.261-32.041l-.004-.007a41.812 41.812 0 0 1-4.972-12.654c-3.943-17.518 4.659-35.082 4.659-35.082l7.79-19.452Z" fill="#465C72"/><path d="M331 577s33.054-47.561 16.223-92" stroke="#535461" stroke-miterlimit="10"/><path d="M513.322 576.247S453.565 562.93 529.597 485c0 0 32.776 30.966 20.752 69.46-4.834 15.477-20.386 25.032-36.137 21.97a38.054 38.054 0 0 1-.89-.183Z" fill="#F5F9FE"/><path opacity=".4" d="M513.198 576.247c-1.317-.292-58.653-14.636 16.326-91.247 0 0 32.878 30.966 20.817 69.46-4.85 15.477-20.45 25.032-36.25 21.97a38.285 38.285 0 0 1-.893-.183Z" fill="#fff"/><path d="M402.322 576.247S342.565 562.93 418.597 485c0 0 32.776 30.966 20.752 69.46-4.834 15.477-20.386 25.032-36.137 21.97a38.054 38.054 0 0 1-.89-.183Z" fill="#0E8AFD"/><path opacity=".4" d="M402.198 576.247c-1.317-.292-58.653-14.636 16.326-91.247 0 0 32.878 30.966 20.817 69.46-4.85 15.477-20.45 25.032-36.25 21.97a38.285 38.285 0 0 1-.893-.183Z" fill="#fff"/><path d="M194.96 571.697c1.757-1.356 3.405-2.956 3.911-4.903a4.208 4.208 0 0 0-.386-3.052 4.087 4.087 0 0 0-2.347-1.941c-2.509-.797-5.191.648-7.224 2.107-2.034 1.459-4.364 3.125-7.025 2.816 2.757-2.027 4.067-5.322 3.307-8.314a3.23 3.23 0 0 0-.919-1.689c-1.394-1.237-3.919-.706-5.587.269-5.305 3.1-6.785 9.085-6.814 14.473-.535-1.943-.085-3.969-.098-5.962-.013-1.993-.671-4.203-2.695-5.274-1.202-.636-2.687-.759-4.111-.802-2.384-.073-5.04.125-6.669 1.574-2.023 1.8-1.498 4.82.262 6.802 1.76 1.982 4.438 3.224 6.903 4.592 1.878 1.044 3.778 2.262 4.932 3.909.147.218.27.452.366.698h14.949a42.785 42.785 0 0 0 9.245-5.303Z" fill="#0E8AFD"/><path d="M289.063 542.268c12.912 24.3 40.316 34.732 40.316 34.732s6.47-28.967-6.442-53.268C310.025 499.432 282.621 489 282.621 489s-6.47 28.967 6.442 53.268Z" fill="#465C72"/><path d="M298.198 547.718c15.74 9.597 21.802 28.658 21.802 28.658s-19.458 3.503-35.198-6.094C269.062 560.685 263 541.624 263 541.624s19.458-3.503 35.198 6.094Z" fill="#F5F9FE"/><path d="M197.657 521.672C182.695 544.591 186.409 574 186.409 574s27.972-7.752 42.934-30.672C244.305 520.409 240.591 491 240.591 491s-27.972 7.752-42.934 30.672Z" fill="#465C72"/><path d="M208.913 526.061C207.423 553.675 186.801 575 186.801 575s-18.205-23.446-16.714-51.061c1.49-27.614 22.112-48.939 22.112-48.939s18.205 23.446 16.714 51.061Z" fill="#F5F9FE"/><path opacity=".1" d="M208.913 526.061C207.423 553.675 186.801 575 186.801 575s-18.205-23.446-16.714-51.061c1.49-27.614 22.112-48.939 22.112-48.939s18.205 23.446 16.714 51.061Z" fill="#000"/><path d="M533.98 512.64c.855 46.113-26.376 62.718-60.332 63.342a103.045 103.045 0 0 1-7.031-.111c-30.687-1.597-54.813-18.085-55.608-60.97-.823-44.381 55.1-101.436 59.295-105.656.004 0 .004 0 .007-.004l.241-.241s62.574 57.53 63.428 103.64Z" fill="#0E8AFD"/><path d="m471.477 569.969 22.158-27.196-22.151 30.144.006 3.083a113.488 113.488 0 0 1-4.729-.11l1.585-39.615-.025-.305.04-.059.151-3.743L445 502.661l23.52 26.704.074.792 1.198-29.93-20.244-30.553 20.37 25.294.572-62.024.003-.207.005.203.748 48.895L490.3 462.15l-19.046 23.897.07 26.782 17.633-25.978-17.62 29.915.039 14.892L497 495.481l-25.613 41.373.09 33.115Z" fill="#3F3D56"/><path d="M438.528 516.894c.796 43.125-24.563 58.654-56.186 59.238-.734.013-1.465.018-2.193.015a86.953 86.953 0 0 1-4.355-.12c-28.577-1.493-51.045-16.913-51.786-57.019-.766-41.505 51.313-94.863 55.22-98.809.003 0 .003 0 .007-.004l.224-.225s58.273 53.802 59.069 96.924Z" fill="#F5F9FE"/><path d="m380.137 571.243 20.402-22.116-20.396 24.513.006 2.507a118.045 118.045 0 0 1-4.355-.089l1.46-32.214-.024-.249.038-.048.139-3.044-21.649-23.994 21.656 21.715.069.644 1.102-24.338-18.639-24.846 18.755 20.569.527-50.438.003-.168.004.166.689 39.76 17.543-16.008-17.536 19.433.064 21.779 16.236-21.125-16.223 24.327.036 12.11 23.593-29.419-23.583 33.644.083 26.929ZM561.701 531.067c.617 33.4-19.024 45.427-43.515 45.879a74.225 74.225 0 0 1-5.072-.081c-22.133-1.157-39.534-13.099-40.108-44.161-.593-32.145 39.742-73.47 42.768-76.526.002 0 .002 0 .005-.003l.174-.175s45.131 41.67 45.748 75.067Z" fill="#465C72"/><path d="m516.477 572.961 15.802-18.026-15.796 19.98.004 2.043a85.292 85.292 0 0 1-3.373-.073l1.131-26.257-.018-.203.029-.039.107-2.481-16.766-19.557 16.772 17.699.053.526.854-19.839-14.436-20.252 14.525 16.767.409-41.112.002-.137.003.135.534 32.408 13.587-13.048-13.582 15.84.05 17.752 12.575-17.219-12.565 19.829.028 9.871 18.272-23.98-18.265 27.423.064 21.95Z" fill="#F5F9FE"/><path d="M655 594.154c-20.006-3.389-39.245-6.3-57.719-8.732l7.303-14.16c-2.463-.855-13.282 7.254-13.282 7.254l9.584-41.102c-12.385 1.493-18.682 43.461-18.682 43.461l-13.838-14.189 6.699 15.952c-56.539-6.658-105.369-9.127-146.441-9.216l6.251-12.119c-2.463-.856-13.282 7.253-13.282 7.253l9.584-41.102c-12.385 1.494-18.683 43.461-18.683 43.461l-13.837-14.189 7.095 16.896c-34.431.689-62.51 3.039-84.182 5.718 6.322-18.879 27.799-36.835 27.799-36.835-16.402 4.879-25.006 13.053-29.501 20.674a331.033 331.033 0 0 1 19.133-114.377s-33.902 73.774-29.576 123.295l.517 8.793c-28.741 4.115-44.442 5.61-44.442 5.61l389.5 7.654Z" fill="#8597A8"/><path d="M193.107 524.873c.689 37.318-21.256 50.756-48.62 51.261a80.384 80.384 0 0 1-5.667-.09c-24.729-1.292-44.172-14.636-44.813-49.341-.663-35.917 44.404-82.09 47.784-85.505.003 0 .003 0 .006-.003l.195-.195s50.426 46.558 51.115 83.873Z" fill="#F5F9FE"/><path d="m142.578 571.69 17.654-20.105-17.649 22.284.005 2.279a97.622 97.622 0 0 1-3.768-.081l1.263-29.285-.02-.226.032-.044.121-2.767-18.734-21.812 18.74 19.74.059.586.954-22.126-16.129-22.587 16.229 18.7.456-45.852.003-.153.003.15.596 36.146 15.182-14.553L142.4 509.65l.056 19.799 14.049-19.204-14.039 22.115.032 11.009 20.415-26.744-20.407 30.584.072 24.481Z" fill="#465C72"/><path d="M408.701 588.594c-20.006-3.389-39.245-6.3-57.719-8.732l7.303-14.159c-2.462-.856-13.282 7.253-13.282 7.253l9.584-41.102c-12.385 1.494-18.682 43.461-18.682 43.461l-13.838-14.189 6.7 15.952c-56.54-6.658-105.37-9.127-146.442-9.216l6.251-12.119c-2.463-.855-13.282 7.253-13.282 7.253l9.584-41.101c-12.385 1.493-18.682 43.461-18.682 43.461l-13.838-14.189 7.096 16.896c-34.432.688-62.51 3.039-84.183 5.718 6.322-18.879 27.799-36.835 27.799-36.835-16.402 4.878-25.006 13.052-29.501 20.673a331.038 331.038 0 0 1 19.134-114.377S58.8 517.017 63.126 566.537l.518 8.793c-28.742 4.116-43.192 8.398-43.192 8.398l388.249 4.866Z" fill="#8597A8"/></svg>