<svg width="660" height="745" viewBox="0 0 660 745" fill="none" xmlns="http://www.w3.org/2000/svg"><path d="M659.997 423.417 230.175 168.722l-12.926 21.814L647.07 445.232l12.927-21.815ZM566.574 444.769 136.752 190.073l-12.926 21.815 429.821 254.695 12.927-21.814ZM483.831 468.122 54.01 213.427l-12.927 21.815 429.822 254.695 12.926-21.815Z" fill="#EEF7FF"/><path d="M514.104 332.715c0 74.046-60.026 134.072-134.072 134.072-74.046 0-134.072-60.026-134.072-134.072 0-74.046 60.026-134.072 134.072-134.072 74.046 0 134.072 60.026 134.072 134.072Z" fill="#fff" stroke="#568DC4"/><path d="M380.032 357.285a23.99 23.99 0 1 1 23.989-23.989 24.014 24.014 0 0 1-23.989 23.989Zm0-46.808a22.824 22.824 0 0 0-12.678 3.845 22.815 22.815 0 0 0-3.457 35.109 22.816 22.816 0 0 0 35.108-3.458 22.82 22.82 0 0 0 3.846-12.677 22.845 22.845 0 0 0-22.819-22.819Z" fill="#568DC4"/><path d="M380.028 378.934a45.636 45.636 0 0 1-32.27-77.908 45.639 45.639 0 0 1 77.908 32.271 45.692 45.692 0 0 1-45.638 45.637Zm0-90.105a44.463 44.463 0 0 0-41.082 27.451 44.462 44.462 0 0 0 9.639 48.46 44.468 44.468 0 0 0 75.91-31.443 44.518 44.518 0 0 0-44.467-44.468Z" fill="#568DC4"/><path d="M380.031 397.66a64.359 64.359 0 0 1-12.556-127.484 64.362 64.362 0 0 1 76.916 63.124 64.431 64.431 0 0 1-64.36 64.36Zm0-127.55a63.195 63.195 0 0 0-58.381 39.008A63.19 63.19 0 1 0 443.221 333.3a63.263 63.263 0 0 0-63.19-63.19Z" fill="#568DC4"/><path d="M380.03 422.233c-49.039 0-88.935-39.895-88.935-88.934 0-49.039 39.896-88.935 88.935-88.935s88.935 39.896 88.935 88.935-39.896 88.934-88.935 88.934Zm0-176.699c-48.393 0-87.764 39.371-87.764 87.765 0 48.393 39.37 87.764 87.764 87.764 48.393 0 87.765-39.371 87.765-87.764-.001-48.394-39.372-87.765-87.765-87.765Z" fill="#568DC4"/><path d="M380.034 442.711c-60.331 0-109.413-49.083-109.413-109.413 0-60.331 49.082-109.413 109.413-109.413 60.33 0 109.413 49.082 109.413 109.413 0 60.33-49.083 109.413-109.413 109.413Zm0-217.656c-59.685 0-108.243 48.558-108.243 108.243 0 59.685 48.558 108.243 108.243 108.243 59.685 0 108.243-48.558 108.243-108.243 0-59.685-48.558-108.243-108.243-108.243Z" fill="#568DC4"/><path d="M380.026 343.83c6.14 0 11.117-4.977 11.117-11.116 0-6.14-4.977-11.117-11.117-11.117-6.139 0-11.117 4.977-11.117 11.117 0 6.139 4.978 11.116 11.117 11.116Z" fill="#FF6584"/><path d="M408.701 376.008c6.139 0 11.116-4.977 11.116-11.117 0-6.139-4.977-11.117-11.116-11.117-6.14 0-11.117 4.978-11.117 11.117 0 6.14 4.977 11.117 11.117 11.117ZM330.882 371.327c6.14 0 11.117-4.977 11.117-11.116 0-6.14-4.977-11.117-11.117-11.117-6.14 0-11.117 4.977-11.117 11.117 0 6.139 4.977 11.116 11.117 11.116Z" fill="#0E8AFD"/><path d="M625.77 278.884a5.265 5.265 0 1 0 0-10.531 5.266 5.266 0 1 0 0 10.531Z" fill="#FF6584"/><path d="M380.324 333.008h-1.17v-60.265h232.284v1.171H380.324v59.094Z" fill="#8597A8"/><path d="M625.773 288.833a15.21 15.21 0 0 1-14.921-18.18 15.208 15.208 0 0 1 11.953-11.952 15.214 15.214 0 0 1 15.616 6.468 15.21 15.21 0 0 1 2.564 8.452 15.228 15.228 0 0 1-15.212 15.212Zm0-29.255a14.042 14.042 0 1 0 14.042 14.043 14.057 14.057 0 0 0-14.042-14.043Z" fill="#BBCFE2"/><path d="M590.665 430.427a5.266 5.266 0 1 0 0-10.532 5.266 5.266 0 0 0 0 10.532Z" fill="#FF6584"/><path d="M590.668 440.371a15.211 15.211 0 0 1-2.968-30.132 15.214 15.214 0 0 1 15.616 6.468 15.21 15.21 0 0 1 2.564 8.452 15.228 15.228 0 0 1-15.212 15.212Zm0-29.255a14.042 14.042 0 1 0 14.042 14.043 14.057 14.057 0 0 0-14.042-14.043Z" fill="#BBCFE2"/><path d="M186.364 303.458a5.265 5.265 0 1 0 0-10.531 5.265 5.265 0 1 0 0 10.531Z" fill="#FF6584"/><path d="M186.367 313.404a15.219 15.219 0 0 1-14.055-9.391 15.218 15.218 0 0 1 3.298-16.579 15.213 15.213 0 0 1 25.969 10.757 15.227 15.227 0 0 1-15.212 15.213Zm0-29.255a14.046 14.046 0 0 0-12.974 8.668 14.05 14.05 0 0 0 3.044 15.304 14.05 14.05 0 0 0 15.304 3.044 14.046 14.046 0 0 0 8.668-12.974 14.06 14.06 0 0 0-14.042-14.042Z" fill="#BBCFE2"/><path d="M331.471 360.214h-1.097V301.11l-138.744-2.332.017-1.17 139.824 2.35v60.256ZM576.042 425.743H408.119v-60.264h1.171v59.094h166.752v1.17Z" fill="#8597A8"/><path d="M657.95 301.117h-64.361v4.096h64.361v-4.096ZM657.95 312.82h-64.361v4.096h64.361v-4.096ZM657.95 324.523h-64.361v4.096h64.361v-4.096ZM622.844 452.659h-64.36v4.096h64.36v-4.096ZM622.844 464.358h-64.36v4.096h64.36v-4.096ZM622.844 476.062h-64.36v4.095h64.36v-4.095ZM218.549 326.278h-64.361v4.096h64.361v-4.096ZM218.549 337.977h-64.361v4.095h64.361v-4.095ZM218.549 349.68h-64.361v4.095h64.361v-4.095Z" fill="#465C72"/><path d="M385.294 556.809c70.768 0 128.136-1.834 128.136-4.096s-57.368-4.096-128.136-4.096c-70.767 0-128.136 1.834-128.136 4.096s57.369 4.096 128.136 4.096Z" fill="#EEF7FF"/><path d="M432 575H0v2h432v-2Z" fill="#8597A8"/><path d="M339.654 548.637h-17.35v-17.35h17.35v17.35Zm-16.015-1.335h14.68v-14.68h-14.68v14.68Z" fill="#BBCFE2"/><path d="M350.329 548.636a6.673 6.673 0 1 0 0-13.346 6.673 6.673 0 0 0 0 13.346Z" fill="#0E8AFD"/><path d="M380.029 337.978a5.266 5.266 0 1 0 0-10.532 5.266 5.266 0 0 0 0 10.532ZM330.88 365.479a5.266 5.266 0 1 0 0-10.533 5.266 5.266 0 0 0 0 10.533ZM408.704 370.742a5.266 5.266 0 1 0-.001-10.531 5.266 5.266 0 0 0 .001 10.531Z" fill="#fff"/><path d="M86.117 303.031s-6.08-1.797-7.385.159c-1.304 1.956 1.778 16.138 1.778 16.138l13.399.815-4.676-11.808-3.116-5.304Z" fill="#2F2E41"/><path d="M39.242 419.494s12.191 26.765 2.803 25.924c-9.389-.841-13.032-25.924-13.032-25.924h10.23ZM118.975 416.706s-5.348 28.92 3.558 25.831c8.906-3.089 6.367-28.308 6.367-28.308l-9.925 2.477Z" fill="#FBBEBE"/><path d="M83.523 296.321s-.14 13.452 5.045 14.153c5.185.7-2.943 7.847-2.943 7.847l-9.248 1.821-13.313-.98-5.885-7.567s10.37-4.905 5.885-20.179l20.46 4.905Z" fill="#A0616A"/><path d="M83.523 296.321s-.14 13.452 5.045 14.153c5.185.7-2.943 7.847-2.943 7.847l-9.248 1.821-13.313-.98-5.885-7.567s10.37-4.905 5.885-20.179l20.46 4.905Z" fill="#F3AEAE"/><path d="M107.345 410.106s6.586 14.153 1.401 58.574c0 0 1.542 15.694.28 18.637-1.261 2.943-11.63 42.88-11.63 42.88s-13.313 2.942-15.134-5.886c0 0 1.821-12.611 1.681-14.573-.14-1.962 2.943-23.402 2.943-23.402l-6.306-41.478-4.764 37.415s0 10.789-1.542 13.172c-1.541 2.382 0 50.306 0 50.306s4.344 7.287-2.242 7.427c-6.586.14-12.471-.14-13.032-4.765-.56-4.624-.84-9.248-2.242-12.051-1.401-2.802-3.223-34.892-2.802-46.102.42-11.21-9.249-68.804-6.166-74.829 3.083-6.026 59.555-5.325 59.555-5.325Z" fill="#25323F"/><path d="M76.376 301.365c9.287 0 16.816-7.528 16.816-16.815 0-9.287-7.528-16.816-16.816-16.816-9.286 0-16.815 7.529-16.815 16.816 0 9.287 7.529 16.815 16.815 16.815Z" fill="#FBBEBE"/><path d="M59.561 311.875s10.23 7.567 25.083 1.541c0 0 4.905-2.382 4.484-6.025-.42-3.644 10.23 29.287 10.23 29.287l10.79 57.313-.561 23.401s-4.764-2.382-19.618 2.943-39.096-6.026-39.096-6.026l.84-60.115.842-35.032 2.242-7.707s1.12-2.102 4.764.42Z" fill="#FF6584"/><path d="M83.99 302.468s2.476-.402 4.858 3.382c2.382 3.783 7.987 6.165 7.987 6.165s13.593.841 15.555 8.128c1.962 7.287 6.866 17.236 9.248 35.593 2.383 18.357 7.147 47.644 7.848 50.026.7 2.382-.981 9.669.98 11.911 1.962 2.242-13.872 2.242-13.872 2.242s-1.402-11.491-2.383-11.491c-.98 0-.7 7.707.281 13.313.981 5.605-7.147 0-7.147 0s-6.306-25.644-12.331-48.765c-6.026-23.122-9.529-35.873-8.408-41.058 1.121-5.185 4.204-20.039 1.962-21.44-2.242-1.401-4.578-8.006-4.578-8.006ZM63.782 302.456s-3.66 1.993-12.91 8.579c-9.248 6.586-15.553 11.63-15.553 11.63s-3.644 2.803-5.886 19.478c-2.242 16.676-7.287 59.835-5.325 65.3 1.962 5.465 2.663 8.688 1.962 11.911-.7 3.223 14.713 3.083 14.994 2.383.28-.701-.42-13.453.28-13.733.7-.28 4.484 7.567 5.185 14.153.7 6.586 8.828 11.771 10.65 11.771 1.821 0 11.21-37.975 11.35-63.899.14-25.924-3.083-47.784-5.465-50.867-2.382-3.083.718-16.706.718-16.706ZM88.427 531.458s1.121-3.083 5.045-2.102c3.924.981 6.586-2.522 6.586-2.522s2.102-.28.701 2.382c-1.401 2.662-2.522 4.484-2.522 4.484s8.407 19.198 2.942 23.822c-5.465 4.624-11.77 1.822-11.77 1.822s-6.166-4.344-5.886-15.835c0 0-.28-3.643-3.643-9.529-3.364-5.885-5.886-14.853-1.822-16.535 4.064-1.681 5.11-1.744 5.11-1.744s-1.902 8.698 3.01 11.737l2.25 4.02ZM62.364 553.178s-3.363-6.306 2.242-7.007c5.605-.7 11.63-1.121 11.35 1.822-.28 2.943-.98 7.427-.98 7.427l.98 3.223s.28 7.987 1.261 8.968c.981.981 6.306 9.389-5.044 9.389s-14.714-1.262-13.733-3.924c.98-2.662 1.261-15.835 1.261-15.835l2.663-4.063Z" fill="#465C72"/><path d="M71.052 271.098s7.847 2.102 11.91 2.942c4.064.841 3.644-1.541 3.644-1.541s5.325.701 5.044.14c-.28-.56 2.242-3.503-.7-6.866-2.943-3.363-2.102-5.886-2.102-5.886h-2.522l-.701-.981H81.7s-2.942-1.121-10.65 0c-7.707 1.121-18.216 1.402-19.057 6.026-.84 4.624-5.185 10.37-3.643 13.032 1.541 2.662 10.37 13.593 11.21 18.217.84 4.624 4.767 5.651 4.625 2.756-.141-2.896-4.065-12.986-.702-13.406 3.364-.42 9.109-8.968 7.568-14.433Z" fill="#2F2E41"/></svg>