<svg width="660" height="745" viewBox="0 0 660 745" fill="none" xmlns="http://www.w3.org/2000/svg"><path d="M520.612 442.758c17.546 0 31.769-14.223 31.769-31.769 0-17.545-14.223-31.768-31.769-31.768-17.545 0-31.768 14.223-31.768 31.768 0 17.546 14.223 31.769 31.768 31.769Z" fill="#FF6584"/><path d="M571.068 509.354H569.2v60.735h1.868v-60.735Z" fill="#465C72"/><path d="M585.084 517.694c.097 21.158-14.774 38.379-14.774 38.379s-15.028-17.083-15.125-38.241c-.098-21.157 14.773-38.378 14.773-38.378s15.028 17.083 15.126 38.24Z" fill="#F5F9FE"/><path d="M585.084 517.694c.097 21.158-14.774 38.379-14.774 38.379s-15.028-17.083-15.125-38.241c-.098-21.157 14.773-38.378 14.773-38.378s15.028 17.083 15.126 38.24Z" fill="#8597A8"/><path d="M281.88 389.754c13.159 0 23.826-10.876 23.826-24.293s-10.667-24.294-23.826-24.294-23.827 10.877-23.827 24.294 10.668 24.293 23.827 24.293ZM237.497 393.492c9.289 0 16.819-7.53 16.819-16.819 0-9.289-7.53-16.819-16.819-16.819-9.289 0-16.819 7.53-16.819 16.819 0 9.289 7.53 16.819 16.819 16.819Z" fill="#EEF7FF"/><path d="M409.809 563.502c1.281 4.644 5.671 7.521 5.671 7.521s2.311-4.654 1.03-9.298c-1.282-4.644-5.671-7.521-5.671-7.521s-2.312 4.654-1.03 9.298Z" fill="#465C72"/><path d="M411.909 562.512c3.612 3.355 4.054 8.511 4.054 8.511s-5.416-.282-9.028-3.636c-3.612-3.355-4.054-8.511-4.054-8.511s5.416.282 9.028 3.636Z" fill="#F5F9FE"/><path d="m255.615 527.336-3.168-5.356 29.564-25.707h76.02v7.498l-27.451 29.992-31.676 6.426-43.289-12.853Z" fill="#EEF7FF"/><path opacity=".1" d="m255.615 527.336-3.168-5.356 29.564-25.707h76.02v7.498l-27.451 29.992-31.676 6.426-43.289-12.853Z" fill="#465C72"/><path d="M371.273 511.886v-16.547h-9.929v5.218l-3.125-3.566-25.28 25.383-4.213 4.23-5.267 21.152 9.48 23.267h48.452v-47.592l-10.118-11.545Z" fill="#EEF7FF"/><path d="M332.803 522.436h-80.356v48.587h80.356v-48.587Z" fill="#fff"/><path d="M298.231 536.451h-14.95v34.572h14.95v-34.572ZM270.74 548.451h6v-12h-6v12ZM266.462 547.45v-10.999h-6v12h6v-1.001ZM315.051 548.451h6v-12h-6v12ZM310.772 547.45v-10.999h-6v12h6v-1.001ZM360.429 548.451h6v-12h-6v12ZM357.085 547.451v-11h-6v12h6v-1Z" fill="#8597A8"/><path d="m112.904 438.607-5.285-4.161 29.598-26.004h75.052v22.884l-48.625 32.244-50.74-24.963Z" fill="#EEF7FF"/><path opacity=".1" d="m112.904 438.607-5.285-4.161 29.598-26.004h75.052v22.884l-48.625 32.244-50.74-24.963Z" fill="#465C72"/><path d="M225.832 423.248V408.97h-9.947v3.497l-3.713-4.025-24.269 26.393-9.496 6.335-14.725 107.635 22.206 22.218h51.609V435.891l-11.665-12.643Z" fill="#EEF7FF"/><path d="M187.975 434.604h-80.356v136.419h80.356V434.604Z" fill="#fff"/><path d="M153.404 537.386h-14.95v33.637h14.95v-33.637ZM126.307 549.386h6v-12h-6v12ZM122.963 548.386v-11h-6v12h6v-1ZM171.697 549.386h6v-12h-6v12ZM168.354 548.386v-11h-6v12h6v-1ZM215.407 454.146h6v-13h-6v13ZM211.129 453.063v-11.917h-6v13h6v-1.083ZM215.407 479.373h6v-13h-6v13ZM211.129 478.291v-11.918h-6v13h6v-1.082ZM215.407 504.602h6v-13h-6v13ZM211.129 503.519v-11.917h-6v13h6v-1.083ZM215.407 530.764h6v-13h-6v13ZM211.129 529.681v-11.917h-6v13h6v-1.083ZM177.697 441.146h-60.734v13.081h60.734v-13.081ZM177.697 466.373h-60.734v13.081h60.734v-13.081ZM177.697 491.602h-60.734v13.081h60.734v-13.081ZM177.697 517.764h-60.734v12.147h60.734v-12.147Z" fill="#8597A8"/><path d="m421.247 438.607-5.285-4.161 29.598-26.004h75.052v22.884l-48.625 32.244-50.74-24.963Z" fill="#EEF7FF"/><path opacity=".1" d="m421.247 438.607-5.285-4.161 29.598-26.004h75.052v22.884l-48.625 32.244-50.74-24.963Z" fill="#465C72"/><path d="M534.175 423.248V408.97h-9.947v3.497l-3.712-4.025-24.27 26.393-9.496 6.335-14.725 107.635 22.207 22.218h51.608V435.891l-11.665-12.643Z" fill="#EEF7FF"/><path d="M496.319 434.604h-80.357v136.419h80.357V434.604Z" fill="#fff"/><path d="M461.747 537.386h-14.95v33.637h14.95v-33.637ZM434.65 549.386h6v-12h-6v12ZM431.306 548.386v-11h-6v12h6v-1ZM480.041 549.386h6v-12h-6v12ZM476.697 548.386v-11h-6v12h6v-1ZM522.414 453.146h6v-12h-6v12ZM518.136 452.146v-11h-6v12h6v-1ZM522.414 478.373h6v-12h-6v12ZM518.136 477.374v-11.001h-6v12h6v-.999ZM522.414 503.602h6v-12h-6v12ZM518.136 502.602v-11h-6v12h6v-1ZM522.414 529.764h6v-12h-6v12ZM518.136 528.764v-11h-6v12h6v-1ZM486.04 441.146h-60.734v13.081h60.734v-13.081ZM486.04 466.373h-60.734v13.081h60.734v-13.081ZM486.04 491.602h-60.734v13.081h60.734v-13.081ZM486.04 517.764h-60.734v12.147h60.734v-12.147Z" fill="#8597A8"/><path d="M92.67 509.354H90.8v60.735h1.87v-60.735Z" fill="#465C72"/><path d="M106.685 517.694c.097 21.158-14.773 38.379-14.773 38.379s-15.029-17.083-15.126-38.241c-.098-21.157 14.773-38.378 14.773-38.378s15.028 17.083 15.126 38.24Z" fill="#F5F9FE"/><path d="M245.906 509.354h-1.868v60.735h1.868v-60.735Z" fill="#465C72"/><path d="M259.921 517.694c.098 21.158-14.773 38.379-14.773 38.379s-15.028-17.083-15.126-38.241c-.097-21.157 14.774-38.378 14.774-38.378s15.028 17.083 15.125 38.24Z" fill="#F5F9FE"/><path d="M551.447 509.354h-1.869v60.735h1.869v-60.735Z" fill="#465C72"/><path d="M565.462 517.694c.097 21.158-14.773 38.379-14.773 38.379s-15.029-17.083-15.126-38.241c-.097-21.157 14.773-38.378 14.773-38.378s15.029 17.083 15.126 38.24Z" fill="#F5F9FE"/><path opacity=".1" d="M349.683 220.322h-3.942v-7.657c0-8.64-6.89-15.823-15.53-15.954a15.791 15.791 0 0 0-15.957 15.742v7.869h-3.933a6.583 6.583 0 0 0-6.561 6.561v31.483a6.583 6.583 0 0 0 6.561 6.561h39.362a6.578 6.578 0 0 0 6.557-6.561v-31.483a6.579 6.579 0 0 0-6.557-6.561ZM332.3 240.789v11.276a2.355 2.355 0 0 1-2.182 2.362 2.29 2.29 0 0 1-1.696-.633 2.303 2.303 0 0 1-.713-1.665v-11.346a5.241 5.241 0 0 1-2.807-5.885 5.235 5.235 0 0 1 8.362-2.92 5.235 5.235 0 0 1-.964 8.805v.006Zm8.856-20.467h-22.311v-7.869a11.15 11.15 0 1 1 22.302 0l.009 7.869Z" fill="#000"/><path d="M349.683 219.741h-3.942v-7.657c0-8.64-6.89-15.823-15.53-15.954a15.791 15.791 0 0 0-15.957 15.742v7.869h-3.933a6.579 6.579 0 0 0-6.561 6.56v31.484a6.583 6.583 0 0 0 6.561 6.561h39.362a6.578 6.578 0 0 0 6.557-6.561v-31.484a6.576 6.576 0 0 0-6.557-6.56ZM332.3 240.208v11.276a2.355 2.355 0 0 1-2.182 2.362 2.29 2.29 0 0 1-1.696-.634 2.288 2.288 0 0 1-.713-1.664v-11.346a5.241 5.241 0 0 1-2.807-5.885 5.234 5.234 0 0 1 10.205 0 5.24 5.24 0 0 1-2.807 5.885v.006Zm8.856-20.467h-22.311v-7.869c0-2.958 1.174-5.794 3.266-7.885a11.148 11.148 0 0 1 19.036 7.885l.009 7.869Z" fill="#0E8AFD"/><path d="M641.93 569.154H18.07v1.869h623.86v-1.869Z" fill="#8597A8"/><mask id="path-71-inside-1" fill="#fff"><path d="M330 277.492c-163.154 0-295.874 130.303-299.772 292.519h2C36.127 408.9 167.952 279.492 330 279.492c162.038 0 293.856 129.389 297.771 290.484h2C625.856 407.776 493.143 277.492 330 277.492Z"/></mask><path d="m30.228 570.011-2-.048-.049 2.048h2.049v-2Zm2 0v2h1.953l.047-1.951-2-.049Zm595.543-.035-2 .049.048 1.951h1.952v-2Zm2 0v2h2.049l-.049-2.048-2 .048Zm-597.543.083C36.098 408.926 167.933 279.492 330 279.492v-4c-164.243 0-297.848 131.172-301.771 294.471l3.998.096Zm2 .001C38.098 410.031 169.039 281.492 330 281.492v-4c-163.138 0-295.847 130.276-299.77 292.471l3.998.097Zm-4 1.951h2v-4h-2v4ZM330 281.492c160.95 0 291.882 128.52 295.771 288.533l3.999-.097C625.829 407.75 493.126 277.492 330 277.492v4Zm0-2c162.054 0 293.882 129.415 297.772 290.533l3.999-.097C627.829 406.645 494.231 275.492 330 275.492v4Zm297.771 292.484h2v-4h-2v4Z" fill="#F5F9FE" mask="url(#path-71-inside-1)"/></svg>