<svg width="660" height="745" viewBox="0 0 660 745" fill="none" xmlns="http://www.w3.org/2000/svg"><path d="M561.325 349.644a259.412 259.412 0 0 1-251.027 259.468c-2.845.097-5.704.144-8.574.141a258.564 258.564 0 0 1-168.982-62.525A258.796 258.796 0 0 1 114 528.964a260.742 260.742 0 0 1-34.512-45.058A257.988 257.988 0 0 1 49 409.242V290.047a258.099 258.099 0 0 1 31.43-76.191 40.756 40.756 0 0 0 52.196-8.359 40.756 40.756 0 0 0 .035-52.862 259.87 259.87 0 0 1 276.12-39.559 244.58 244.58 0 0 1 7.796 3.691c85.765 42.382 144.748 130.741 144.748 232.877Z" fill="#EEF7FF"/><path d="M103.84 209.416c13.507 0 24.456-10.949 24.456-24.455 0-13.507-10.949-24.456-24.456-24.456-13.506 0-24.456 10.949-24.456 24.456 0 13.506 10.95 24.455 24.456 24.455Z" fill="#EEF7FF"/><path d="m611 653.326-478.258-.741v-245.18c.274-.037.578-.074.912-.119 4.224-.541 13.147-1.586 25.715-2.542 29.666-2.253 79.615-4.009 135.945 2.542a646.284 646.284 0 0 1 26.167 3.602 589.79 589.79 0 0 1 22.262 4.009c3.254.652 6.514 1.339 9.783 2.06a510.255 510.255 0 0 1 21.417 5.195 427.298 427.298 0 0 1 70.321 25.123c9.471 4.409 18.794 9.219 27.895 14.488a310.221 310.221 0 0 1 38.202 25.975c46.614 37.18 83.55 90.79 99.639 165.588Z" fill="#F5F9FE"/><path d="M527.258 653.325H49v-245.18c.274-.037.578-.074.911-.118.623-.082 1.342-.171 2.164-.267 4.758-.578 12.829-1.46 23.552-2.275a721.063 721.063 0 0 1 25.975-1.482c18.201-.704 40.07-.875 64.178.289 14.547.704 29.917 1.89 45.791 3.735 8.589 1 17.312 2.201 26.168 3.602a587.79 587.79 0 0 1 22.262 4.009c3.253.652 6.514 1.339 9.782 2.06a508.74 508.74 0 0 1 21.418 5.195 442.734 442.734 0 0 1 53.18 17.667 382.844 382.844 0 0 1 17.141 7.456 357.981 357.981 0 0 1 9.553 4.617 346.74 346.74 0 0 1 18.341 9.871 313.506 313.506 0 0 1 27.161 17.593c.667.467 1.334.956 2.001 1.445a303.793 303.793 0 0 1 9.041 6.937c1.015.815 2.031 1.63 3.039 2.46a286.498 286.498 0 0 1 14.821 13.036 269.628 269.628 0 0 1 32.289 36.469c22.44 30.517 39.737 67.646 49.46 112.748.007.044.022.089.03.133Z" fill="#fff"/><path d="M276.669 504.538c2.022-4.476-12.667-15.48-32.809-24.578-20.142-9.099-38.109-12.846-40.131-8.37-2.022 4.476 12.667 15.48 32.809 24.579 20.142 9.098 38.109 12.845 40.131 8.369ZM350.036 523.065c2.022-4.476-12.667-15.48-32.809-24.579-20.142-9.098-38.109-12.846-40.131-8.37-2.022 4.476 12.667 15.481 32.809 24.579 20.142 9.099 38.11 12.846 40.131 8.37Z" fill="#EEF7FF"/><path fill-rule="evenodd" clip-rule="evenodd" d="M102.535 357.242v55.145h-1.873v-55.145h1.873Z" fill="#BBCFE2"/><path d="M101.598 365.041a7.798 7.798 0 1 0 0-15.597 7.798 7.798 0 0 0 0 15.597Z" fill="#FBBEBE"/><path d="M101.599 391.229s-1.114-23.961-23.952-21.176l23.952 21.176Z" fill="#BBCFE2"/><path d="m226.142 193.208 5.575.511 18.975 1.748 30.63 2.817 3.051-33.122a23.769 23.769 0 0 0-12.612-23.253 23.785 23.785 0 0 0-8.909-2.634 31.589 31.589 0 0 0-31.973 19.051l-.004.011a31.615 31.615 0 0 0-2.403 9.517l-2.33 25.354Z" fill="#25323F"/><path d="M249.463 178.662s2.223 18.527 0 19.268c-2.223.741-9.634 3.706-9.634 3.706l13.339 14.08 19.268.741 4.447-14.08-4.447-3.706-1.482-18.527-21.491-1.482Z" fill="#FFB8B8"/><path d="M249.463 178.662s2.223 18.527 0 19.268c-2.223.741-9.634 3.706-9.634 3.706l13.339 14.08 19.268.741 4.447-14.08-4.447-3.706-1.482-18.527-21.491-1.482Z" fill="#F3AEAE"/><path d="m220.56 212.752-5.928 51.135-8.152 51.875s-6.67 25.197 5.928 24.456c12.599-.741 3.706-25.938 3.706-25.938l11.857-43.724 5.188-44.465-12.599-13.339ZM299.856 213.493l5.188 52.616 30.384 28.903s20.01 10.375 16.304 17.045c-3.705 6.669-24.455-11.117-24.455-11.117l-36.314-25.938-2.223-32.607 2.223-32.608 8.893 3.706Z" fill="#FBBEBE"/><path d="M222.784 462.497s-10.375 17.786-5.188 20.009c5.188 2.223 20.01 8.893 20.01 8.893s22.973 4.447 22.232-2.223c-.741-6.67-9.634-6.67-9.634-6.67S237.653 469.908 238 465.461c.347-4.446-15.216-2.964-15.216-2.964Z" fill="#2F2E41"/><path opacity=".1" d="M222.784 462.497s-10.375 17.786-5.188 20.009c5.188 2.223 20.01 8.893 20.01 8.893s22.973 4.447 22.232-2.223c-.741-6.67-9.634-6.67-9.634-6.67S237.653 469.908 238 465.461c.347-4.446-15.216-2.964-15.216-2.964Z" fill="#25323F"/><path d="m287.999 317.244 2.223 11.857-16.303 65.957-9.634 10.375-25.197 60.028h-18.527s11.857-46.689 20.75-60.769c8.893-14.081 23.715-85.966 23.715-85.966l22.973-1.482Z" fill="#38495B"/><path d="m257.244 368.75 13.34 2.223 3.335 24.085-9.634 10.375-25.197 60.028h-18.527s11.857-46.688 20.75-60.769c8.893-14.08 23.715-85.965 23.715-85.965l-7.782 50.023Z" fill="#38495B"/><path d="M234.641 297.235s-11.857 22.232 7.411 49.652 27.42 54.84 27.42 54.84-1.482 49.653 14.081 69.662l5.929 13.34 17.786-10.376s-20.01-30.384-15.563-67.438c0 0 4.446-11.857 0-21.491-4.447-9.635-16.304-55.582-16.304-55.582l14.822-.741s4.446-28.161-2.965-31.866c-7.41-3.706-52.617 0-52.617 0Z" fill="#38495B"/><path d="M302.08 472.131s16.303 14.08 25.938 15.563c9.634 1.482 9.634 8.152-1.483 9.634 0 0-22.232 8.893-36.313 2.223v-18.527l11.858-8.893Z" fill="#25323F"/><path d="M261.691 186.443c9.823 0 17.786-7.963 17.786-17.786s-7.963-17.786-17.786-17.786-17.786 7.963-17.786 17.786 7.963 17.786 17.786 17.786Z" fill="#FBBEBE"/><path d="m247.239 202.377 2.594-4.817s-35.201 12.227-31.496 18.156c3.705 5.929 14.081 14.822 14.081 14.822v11.857s11.116 34.09 0 53.358c-11.117 19.268 60.768 13.34 58.545 0-2.223-13.339-5.187-27.42-2.223-34.09 2.964-6.67 8.152-14.08 3.705-31.866l11.117-11.858s-3.706-11.857-13.34-14.08c-9.634-2.223-17.415-4.817-17.415-4.817s4.817 9.263-3.335 10.004c-8.152.741-22.233-6.669-22.233-6.669Z" fill="#0E8AFD"/><path d="M231.717 193.72a13.623 13.623 0 0 0 14.474 4.173 13.617 13.617 0 0 0 9.461-11.72c-14.985-8.489-10.094-19.911 2.998-32.55a13.604 13.604 0 0 0-7.257-13.308 31.697 31.697 0 0 0-20.514 18.011l-.004.011-2.337 25.338a13.543 13.543 0 0 0 3.179 10.045Z" fill="#25323F"/><path d="m252.582 159.684 27.289.626.253-11.039a23.826 23.826 0 0 0-8.344-7.351l-18.781-.428-.417 18.192Z" fill="#25323F"/><path d="M263.58 653H49V525.842c7.984.841 14.023-7.6 21.294-11.498 5.688-3.051 12.422-3.302 18.88-3.339 10.41-.055 21.01.307 30.866 3.646a45.404 45.404 0 0 1 9.056 4.205c6.106 3.708 11.228 8.913 13.949 15.444 1.644 3.941 2.826 8.772 6.759 10.46 2.192.946 4.697.608 7.061.258 8.305-1.24 16.609-2.478 24.914-3.714 6.143-.92 12.896-1.718 18.141 1.603 8.089 5.119 8.096 16.727 6.735 26.186-1.367 9.46-2.61 20.619 4.408 27.126 8.507 7.894 22.192 2.965 33.692 4.616a28.879 28.879 0 0 1 14.485 6.779 28.747 28.747 0 0 1 8.63 13.435c2.967 10.54-.418 21.589-4.29 31.951Z" fill="#F5F9FE"/><path fill-rule="evenodd" clip-rule="evenodd" d="M123 474.034 120.195 653l-2.195-.034L120.805 474l2.195.034Z" fill="#465C72"/><path d="M121.5 487c6.904 0 12.5-5.596 12.5-12.5s-5.596-12.5-12.5-12.5-12.5 5.596-12.5 12.5 5.596 12.5 12.5 12.5Z" fill="#FF6584"/><path d="M121 525s-1.191-38.636-38-34.721L121 525Z" fill="#465C72"/><path fill-rule="evenodd" clip-rule="evenodd" d="m120.254 650-1.085-.134-.963-.12-.122-.015.001-.011.004-.037a52.714 52.714 0 0 0 .084-.756c.054-.531.129-1.314.209-2.314.158-2 .334-4.865.402-8.319.135-6.913-.164-16.155-1.89-25.513-1.729-9.369-4.874-18.772-10.374-26.075-5.472-7.268-13.296-12.488-24.52-13.528l.202-2.178c11.889 1.101 20.255 6.673 26.066 14.39 5.784 7.681 9.017 17.455 10.777 26.995 1.762 9.551 2.063 18.951 1.926 25.952a143.18 143.18 0 0 1-.409 8.449 93.799 93.799 0 0 1-.282 2.993l-.019.164-.005.042-.001.012-.001.003Z" fill="#465C72"/><path d="M82 585c6.627 0 12-5.596 12-12.5S88.627 560 82 560s-12 5.596-12 12.5S75.373 585 82 585Z" fill="#FF6584"/><path fill-rule="evenodd" clip-rule="evenodd" d="M174.421 598.094v55.145h-1.874v-55.145h1.874Z" fill="#465C72"/><path d="M173.483 605.892a7.798 7.798 0 1 0 .001-15.597 7.798 7.798 0 0 0-.001 15.597Z" fill="#FF6584"/><path d="M173.484 632.081s-1.114-23.96-23.952-21.175l23.952 21.175Z" fill="#465C72"/><path d="M486.265 302.06h-10.083v202.774h10.083V302.06Z" fill="#568DC4"/><path d="M533.913 347.547H412.325v-37.152h121.588l27.412 18.576-27.412 18.576Z" fill="#465C72"/><path opacity=".1" d="M533.913 344.636H412.325v2.911h121.588l27.412-18.049-2.21-1.456-25.202 16.594Z" fill="#000"/><path fill="#fff" d="M424.934 319.799h105.344v5.085H424.934zM452.456 331.112h50.299v4.79h-50.299z"/></svg>