<svg width="630" height="285" viewBox="0 0 630 285" fill="none" xmlns="http://www.w3.org/2000/svg"><path d="M549.48 125.774c21.722 0 39.331-17.61 39.331-39.332 0-21.721-17.609-39.33-39.331-39.33s-39.332 17.608-39.332 39.33c0 21.722 17.61 39.332 39.332 39.332z" fill="#FF6584"/><path d="M611.947 208.224h-2.313v75.192h2.313v-75.192z" fill="#465C72"/><path d="M629.298 218.549c.121 26.195-18.29 47.515-18.29 47.515s-18.606-21.15-18.726-47.344c-.121-26.194 18.29-47.514 18.29-47.514s18.606 21.149 18.726 47.343z" fill="#F5F9FE"/><path d="M629.298 218.549c.121 26.195-18.29 47.515-18.29 47.515s-18.606-21.15-18.726-47.344c-.121-26.194 18.29-47.514 18.29-47.514s18.606 21.149 18.726 47.343z" fill="#8597A8"/><path d="M253.917 60.154c16.292 0 29.499-13.466 29.499-30.077C283.416 13.466 270.209 0 253.917 0c-16.291 0-29.498 13.466-29.498 30.077 0 16.61 13.207 30.077 29.498 30.077zM198.97 64.78c11.5 0 20.822-9.322 20.822-20.822s-9.322-20.822-20.822-20.822-20.823 9.322-20.823 20.822 9.323 20.823 20.823 20.823z" fill="#EEF7FF"/><path d="M412.299 275.261c1.587 5.75 7.021 9.311 7.021 9.311s2.862-5.761 1.276-11.511c-1.587-5.75-7.021-9.311-7.021-9.311s-2.862 5.761-1.276 11.511z" fill="#465C72"/><path d="M414.899 274.036c4.473 4.153 5.019 10.537 5.019 10.537s-6.705-.35-11.177-4.502c-4.472-4.153-5.018-10.537-5.018-10.537s6.704.349 11.176 4.502z" fill="#F5F9FE"/><path d="M221.4 230.485l-3.921-6.63 36.6-31.827h94.118v9.282l-33.987 37.132-39.216 7.956-53.594-15.913z" fill="#EEF7FF"/><path opacity=".1" d="M221.4 230.485l-3.921-6.63 36.6-31.827h94.118v9.282l-33.987 37.132-39.216 7.956-53.594-15.913z" fill="#465C72"/><path d="M364.591 211.358v-20.486h-12.293v6.46l-3.869-4.415-31.297 31.425-5.217 5.237-6.519 26.188 11.736 28.806h59.985v-58.921l-12.526-14.294z" fill="#EEF7FF"/><path d="M316.963 224.419h-99.484v60.154h99.484v-60.154z" fill="#fff"/><path d="M274.162 241.771h-18.509v42.802h18.509v-42.802zM240.126 256.628h7.429v-14.857h-7.429V256.628zM234.83 255.389v-13.618h-7.428v14.857h7.428v-1.239zM294.985 256.628h7.428v-14.857h-7.428V256.628zM289.687 255.389l.001-13.618h-7.429v14.857h7.428v-1.239zM351.164 256.628h7.429v-14.857h-7.429V256.628zM347.025 255.389v-13.618h-7.428v14.857h7.428v-1.239z" fill="#8597A8"/><path d="M44.717 120.634l-6.543-5.151 36.643-32.194h92.918v28.331l-60.2 39.92-62.818-30.906z" fill="#EEF7FF"/><path opacity=".1" d="M44.717 120.634l-6.543-5.151 36.643-32.194h92.918v28.331l-60.2 39.92-62.818-30.906z" fill="#465C72"/><path d="M184.527 101.619V83.942h-12.315v4.33l-4.596-4.983-30.047 32.676-11.757 7.843-18.23 133.257 27.493 27.507h63.894v-167.3l-14.442-15.653z" fill="#EEF7FF"/><path d="M137.659 115.68H38.174v168.892h99.485V115.68z" fill="#fff"/><path d="M94.857 242.928H76.35v41.645h18.508v-41.645zM61.311 257.784h7.428v-14.856h-7.428v14.856zM57.17 256.547v-13.619h-7.427v14.856h7.428v-1.237zM117.506 257.784h7.429v-14.856h-7.429v14.856zM113.366 256.547v-13.619h-7.428v14.856h7.428v-1.237zM171.621 139.872h7.428v-16.095h-7.428V139.872zM166.325 138.532v-14.755h-7.428v16.095h7.428v-1.34zM171.621 171.105h7.428v-16.094h-7.428v16.094zM166.325 169.765v-14.754h-7.428v16.094h7.428v-1.34zM171.621 202.339h7.428v-16.095h-7.428V202.339zM166.325 200.999v-14.755h-7.428v16.095h7.428v-1.34zM171.621 234.729h7.428v-16.094h-7.428v16.094zM166.325 233.389v-14.754h-7.428v16.094h7.428v-1.34zM124.935 123.777H49.743v16.196h75.192v-16.196zM124.935 155.011H49.743v16.195h75.192v-16.195zM124.935 186.245H49.743v16.195h75.192v-16.195zM124.935 218.635H49.743v15.038h75.192v-15.038z" fill="#8597A8"/><path d="M426.462 120.634l-6.543-5.151 36.644-32.194h92.918v28.331l-60.201 39.92-62.818-30.906z" fill="#EEF7FF"/><path opacity=".1" d="M426.462 120.634l-6.543-5.151 36.644-32.194h92.918v28.331l-60.201 39.92-62.818-30.906z" fill="#465C72"/><path d="M566.271 101.619V83.942h-12.315v4.33l-4.596-4.983-30.047 32.676-11.756 7.843-18.231 133.257 27.493 27.507h63.894v-167.3l-14.442-15.653z" fill="#EEF7FF"/><path d="M519.404 115.68h-99.485v168.892h99.485V115.68z" fill="#fff"/><path d="M476.602 242.928h-18.509v41.645h18.509v-41.645zM443.054 257.784h7.428v-14.856h-7.428v14.856zM438.915 256.547v-13.619h-7.428v14.856h7.428v-1.237zM499.25 257.784h7.429v-14.856h-7.429v14.856zM495.11 256.547v-13.619h-7.428v14.856h7.428v-1.237zM551.71 138.634h7.429v-14.857h-7.429v14.857zM546.414 137.397v-13.62h-7.428v14.857h7.428v-1.237zM551.71 169.867h7.429v-14.856h-7.429v14.856zM546.414 168.63v-13.619h-7.428v14.856h7.428v-1.237zM551.71 201.102h7.429v-14.857h-7.429v14.857zM546.414 199.865v-13.62h-7.428v14.857h7.428v-1.237zM551.71 233.491h7.429v-14.856h-7.429v14.856zM546.414 232.254v-13.619h-7.428v14.856h7.428v-1.237zM506.678 123.777h-75.192v16.196h75.192v-16.196zM506.678 155.011h-75.192v16.195h75.192v-16.195zM506.678 186.245h-75.192v16.195h75.192v-16.195zM506.678 218.635h-75.192v15.038h75.192v-15.038z" fill="#8597A8"/><path d="M19.665 208.224h-2.313v75.192h2.313v-75.192z" fill="#465C72"/><path d="M37.017 218.549c.12 26.195-18.29 47.515-18.29 47.515S.121 244.914.001 218.72c-.121-26.194 18.29-47.514 18.29-47.514s18.605 21.149 18.726 47.343z" fill="#F5F9FE"/><path d="M209.381 208.224h-2.314v75.192h2.314v-75.192z" fill="#465C72"/><path d="M226.732 218.549c.12 26.195-18.29 47.515-18.29 47.515s-18.606-21.15-18.727-47.344c-.12-26.194 18.29-47.514 18.29-47.514s18.606 21.149 18.727 47.343z" fill="#F5F9FE"/><path d="M587.654 208.224h-2.313v75.192h2.313v-75.192z" fill="#465C72"/><path d="M605.006 218.549c.121 26.195-18.29 47.515-18.29 47.515s-18.606-21.15-18.726-47.344c-.121-26.194 18.29-47.514 18.29-47.514s18.606 21.149 18.726 47.343z" fill="#F5F9FE"/></svg>