<svg width="660" height="777" viewBox="0 0 660 777" fill="none" xmlns="http://www.w3.org/2000/svg">
<path d="M120.278 210.229L184.504 533.046L492.954 648.111C514.397 590.867 519.392 528.766 507.374 468.831C471.903 290.544 298.594 174.764 120.278 210.229Z" fill="#EEF7FF"/>
<path d="M326 343.741C326 441.771 260.186 476 179 476C97.8141 476 32 441.771 32 343.741C32 245.71 179 121 179 121C179 121 326 245.71 326 343.741Z" fill="#F5F9FE"/>
<path d="M173.445 442.142L174.96 367.226L238 274.544L175.197 355.474L175.879 321.789L219.326 254.735L176.059 312.875L177.283 252.29L204.5 213L177.283 248.317L178.241 165L173.432 278.736L142.5 241L173.069 284.316L168.661 351.978L168.531 350.182L114 288.952L168.365 356.527L167.814 364.988L167.715 365.116L167.76 365.81L156.578 660H171.518L173.311 448.807L227.542 381.397L173.445 442.142Z" fill="#465C72"/>
<path d="M93.2103 632.641C103.303 651.355 124.723 659.389 124.723 659.389C124.723 659.389 129.78 637.081 119.687 618.367C109.595 599.653 88.1745 591.619 88.1745 591.619C88.1745 591.619 83.1178 613.927 93.2103 632.641Z" fill="#8597A8"/>
<path d="M100.147 626.484C118.369 637.444 125.386 659.215 125.386 659.215C125.386 659.215 102.861 663.216 84.6401 652.255C66.4189 641.294 59.4014 619.523 59.4014 619.523C59.4014 619.523 81.9262 615.523 100.147 626.484Z" fill="#F5F9FE"/>
<path d="M651 659.493C623.675 656.194 597.396 653.36 572.164 650.993L582.139 637.209C578.775 636.377 563.998 644.27 563.998 644.27L577.088 604.259C560.172 605.713 551.571 646.567 551.571 646.567L532.671 632.754L541.821 648.283C464.595 641.801 397.901 639.398 341.803 639.311L350.34 627.514C346.977 626.681 332.199 634.575 332.199 634.575L345.29 594.564C328.373 596.018 319.772 636.871 319.772 636.871L300.872 623.059L310.564 639.507C272.128 639.959 233.75 641.817 195.582 645.073C204.217 626.695 233.552 609.216 233.552 609.216C211.149 613.965 199.398 621.922 193.257 629.341C192.708 591.42 201.555 553.728 219.391 518C219.391 518 173.086 589.816 178.994 638.021L179.701 646.581C140.444 650.588 125 660 125 660L651 659.493Z" fill="#8597A8"/>
<path d="M305.684 504.082C319.504 504.082 330.707 492.88 330.707 479.063C330.707 465.245 319.504 454.044 305.684 454.044C291.864 454.044 280.661 465.245 280.661 479.063C280.661 492.88 291.864 504.082 305.684 504.082Z" fill="#25323F"/>
<path d="M278.576 471.14C292.395 471.14 303.599 459.939 303.599 446.121C303.599 432.304 292.395 421.103 278.576 421.103C264.756 421.103 253.553 432.304 253.553 446.121C253.553 459.939 264.756 471.14 278.576 471.14Z" fill="#25323F"/>
<path d="M256.992 466.84C260.231 469.181 263.983 470.712 267.935 471.305C271.887 471.898 275.923 471.537 279.707 470.25C283.49 468.964 286.91 466.791 289.681 463.912C292.452 461.033 294.493 457.533 295.634 453.703C295.202 457.135 294.064 460.44 292.29 463.409C290.517 466.379 288.147 468.949 285.33 470.956C282.513 472.964 279.31 474.365 275.924 475.073C272.538 475.78 269.042 475.778 265.657 475.067C262.272 474.355 259.071 472.95 256.256 470.939C253.442 468.928 251.075 466.356 249.305 463.384C247.535 460.412 246.4 457.106 245.973 453.674C245.545 450.242 245.834 446.758 246.821 443.443C246.261 447.897 246.909 452.419 248.699 456.536C250.488 460.653 253.353 464.212 256.992 466.84Z" fill="#25323F"/>
<path d="M312.148 509.294C323.434 509.294 332.584 500.147 332.584 488.862C332.584 477.578 323.434 468.43 312.148 468.43C300.862 468.43 291.713 477.578 291.713 488.862C291.713 500.147 300.862 509.294 312.148 509.294Z" fill="#FBBEBE"/>
<path d="M319.238 505.542C319.238 505.542 310.897 518.051 312.148 523.472C312.148 523.472 317.57 525.974 317.57 526.808C317.57 527.642 322.574 535.564 322.574 535.564L328.413 543.487L330.915 553.911H318.821L305.475 543.487L292.547 529.31C292.547 529.31 283.789 525.14 279.201 528.476L276.699 530.56C276.699 530.56 285.457 518.885 289.627 516.383C289.627 516.383 297.134 507.21 296.3 498.036L319.238 505.542Z" fill="#FBBEBE"/>
<path d="M315.902 523.054C315.902 523.054 324.243 527.641 327.579 536.398C330.915 545.154 345.929 574.343 345.929 574.343C345.929 574.343 347.18 593.107 346.346 593.941C345.512 594.775 335.92 585.601 334.252 583.099C332.583 580.597 325.911 550.575 325.911 550.575L315.067 533.062L312.982 523.054H315.902Z" fill="#F3AEAE"/>
<path d="M342.176 575.595L345.929 574.344C345.929 574.344 368.867 560.167 370.118 553.912C371.369 547.657 389.719 526.808 390.136 538.067C390.553 549.325 376.791 561.834 376.791 561.834C376.791 561.834 346.763 603.949 345.095 591.857L342.176 575.595Z" fill="#F3AEAE"/>
<path d="M304.224 546.823C304.224 546.823 303.807 558.498 287.542 562.668C287.542 562.668 270.86 585.185 269.192 595.193C267.524 605.2 223.734 656.489 223.734 656.489C223.734 656.489 183.28 661.493 183.28 656.489C183.28 651.485 217.061 647.315 217.061 647.315C217.061 647.315 252.51 594.776 254.178 587.687C255.846 580.598 271.694 528.059 279.201 528.476C279.201 528.476 286.291 525.14 290.462 527.642C294.632 530.144 304.224 546.823 304.224 546.823Z" fill="#FBBEBE"/>
<path d="M353.019 593.942C353.019 593.942 382.212 554.746 388.468 552.244C394.724 549.742 402.648 548.074 407.235 553.912C411.823 559.75 466.039 628.134 466.039 628.134C466.039 628.134 485.223 647.733 494.815 643.98C494.815 643.98 499.82 648.15 488.143 648.983C480.549 649.385 472.942 648.54 465.622 646.482C465.622 646.482 458.532 647.733 453.528 648.983C448.523 650.234 442.267 650.651 442.684 647.316L444.353 633.972C444.353 633.972 401.397 598.529 400.145 583.518C400.145 583.518 400.979 576.429 400.145 577.263C399.311 578.097 381.795 596.861 373.871 601.031C365.947 605.201 346.346 611.038 346.346 611.038L353.019 593.942Z" fill="#FFB8B8"/>
<path d="M353.019 593.942C353.019 593.942 382.212 554.746 388.468 552.244C394.724 549.742 402.648 548.074 407.235 553.912C411.823 559.75 466.039 628.134 466.039 628.134C466.039 628.134 485.223 647.733 494.815 643.98C494.815 643.98 499.82 648.15 488.143 648.983C480.549 649.385 472.942 648.54 465.622 646.482C465.622 646.482 458.532 647.733 453.528 648.983C448.523 650.234 442.267 650.651 442.684 647.316L444.353 633.972C444.353 633.972 401.397 598.529 400.145 583.518C400.145 583.518 400.979 576.429 400.145 577.263C399.311 578.097 381.795 596.861 373.871 601.031C365.947 605.201 346.346 611.038 346.346 611.038L353.019 593.942Z" fill="#F3AEAE"/>
<path d="M348.431 599.361C348.431 599.361 386.8 584.767 391.804 581.431C396.809 578.095 414.742 571.424 423.917 578.929C433.092 586.435 477.717 621.044 492.73 624.38C507.744 627.716 533.601 635.639 533.601 635.639C533.601 635.639 550.283 636.89 532.35 643.978C532.35 643.978 510.246 646.063 506.493 649.399C502.739 652.735 490.228 656.905 489.394 651.484C488.56 646.063 486.058 638.975 481.47 638.141C476.882 637.307 421.832 622.295 413.491 606.033C413.491 606.033 394.724 616.458 383.046 628.55C371.369 640.643 343.844 647.314 343.844 647.314L348.431 599.361Z" fill="#FBBEBE"/>
<path d="M334.669 586.02C334.669 586.02 352.95 590.878 354.444 589.074C355.938 587.27 363.862 597.278 356.355 617.293C348.848 637.308 350.516 646.482 346.346 649.401C342.176 652.319 322.574 647.733 316.736 649.817C310.897 651.902 303.39 653.57 300.888 641.478C298.385 629.385 292.13 608.119 293.381 605.201C294.632 602.282 301.305 595.61 301.305 595.61L315.067 588.521L334.669 586.02Z" fill="#25323F"/>
<path d="M271.486 539.108C271.486 539.108 274.389 530.976 279.779 529.452C280.235 529.328 280.684 529.181 281.125 529.011C283.149 528.207 289.325 526.453 293.798 532.645C299.22 540.15 304.224 548.907 300.054 553.911C295.883 558.914 287.542 561.833 287.542 561.833L281.286 569.756C281.286 569.756 293.798 592.273 293.798 602.697C293.798 602.697 294.215 606.867 301.305 599.362C308.395 591.856 337.408 586.667 337.408 586.667C337.408 586.667 331.332 578.513 335.92 574.76C340.507 571.007 344.707 556.059 333.849 550.19L315.276 522.846L311.94 523.263C311.94 523.263 316.319 527.224 316.736 529.309C317.153 531.394 333.835 545.988 327.162 548.49C320.489 550.992 309.646 545.571 305.058 539.316C302.535 535.876 299.003 531.175 294.531 528.195C292.234 526.697 289.583 525.83 286.844 525.683C284.106 525.536 281.377 526.114 278.933 527.358L277.533 528.058C274.807 529.966 272.668 532.597 271.357 535.655L270.86 536.815L271.486 539.108Z" fill="#25323F"/>
<path d="M299.011 501.58C309.146 501.58 317.361 493.366 317.361 483.233C317.361 473.1 309.146 464.886 299.011 464.886C288.877 464.886 280.661 473.1 280.661 483.233C280.661 493.366 288.877 501.58 299.011 501.58Z" fill="#25323F"/>
<path d="M314.442 489.071C323.425 489.071 330.707 483.377 330.707 476.353C330.707 469.329 323.425 463.635 314.442 463.635C305.459 463.635 298.177 469.329 298.177 476.353C298.177 483.377 305.459 489.071 314.442 489.071Z" fill="#25323F"/>
<path d="M308.395 501.163C309.892 501.163 311.105 499.016 311.105 496.368C311.105 493.719 309.892 491.572 308.395 491.572C306.898 491.572 305.684 493.719 305.684 496.368C305.684 499.016 306.898 501.163 308.395 501.163Z" fill="#A0616A"/>
<path d="M303.807 454.195V487.403H313.399V454.195C313.399 453.602 313.164 453.034 312.745 452.615C312.325 452.195 311.757 451.96 311.164 451.96H306.043C305.45 451.96 304.881 452.195 304.462 452.615C304.043 453.034 303.807 453.602 303.807 454.195Z" fill="#FF6584"/>
<path d="M308.603 504.498C314.361 504.498 319.029 499.831 319.029 494.074C319.029 488.317 314.361 483.649 308.603 483.649C302.845 483.649 298.177 488.317 298.177 494.074C298.177 499.831 302.845 504.498 308.603 504.498Z" fill="#0E8AFD"/>
<path d="M308.603 498.662C311.137 498.662 313.191 496.608 313.191 494.075C313.191 491.542 311.137 489.488 308.603 489.488C306.07 489.488 304.016 491.542 304.016 494.075C304.016 496.608 306.07 498.662 308.603 498.662Z" fill="white"/>
<path d="M308.603 495.326C309.294 495.326 309.854 494.766 309.854 494.075C309.854 493.384 309.294 492.824 308.603 492.824C307.912 492.824 307.352 493.384 307.352 494.075C307.352 494.766 307.912 495.326 308.603 495.326Z" fill="#FF6584"/>
<path opacity="0.1" d="M303.807 454.195V455.713H313.399V454.195C313.399 453.602 313.164 453.034 312.745 452.615C312.325 452.195 311.757 451.96 311.164 451.96H306.043C305.45 451.96 304.881 452.195 304.462 452.615C304.043 453.034 303.807 453.602 303.807 454.195Z" fill="black"/>
<path d="M415.22 536.458L390.664 511.906C389.805 511.047 388.64 510.565 387.425 510.565C386.211 510.565 385.046 511.047 384.187 511.906L362.096 533.993C361.237 534.852 360.755 536.016 360.755 537.231C360.755 538.446 361.237 539.611 362.096 540.469L385.04 563.409C385.858 564.227 386.956 564.705 388.112 564.747C389.268 564.79 390.398 564.393 391.273 563.636L414.976 543.162C415.452 542.75 415.839 542.245 416.111 541.678C416.383 541.11 416.536 540.492 416.559 539.863C416.582 539.234 416.475 538.607 416.244 538.021C416.014 537.435 415.665 536.903 415.22 536.458Z" fill="#25323F"/>
<path d="M408.278 540.359L386.8 518.885L369.075 536.607L389.719 557.248L408.278 540.359Z" fill="#F2F2F2"/>
<mask id="mask0" mask-type="alpha" maskUnits="userSpaceOnUse" x="364" y="514" width="49" height="47">
<path d="M412.5 539.5L387.5 514.5L365 537L388.5 560.5L412.5 539.5Z" fill="#F2F2F2"/>
</mask>
<g mask="url(#mask0)">
<rect width="162.448" height="115.833" transform="matrix(0.711027 0.703164 -0.702727 0.71146 330.837 438.385)" fill="white"/>
<path fill-rule="evenodd" clip-rule="evenodd" d="M343.476 609.375L350.138 618.102L348.593 619.07L349.992 620.454L366.951 610.033L354.144 624.56L355.521 625.921L359.851 621.032L363.449 624.46L359.168 629.529L359.856 630.209L364.153 625.124L369.55 630.267L370.521 629.283L366.082 625.054L367.396 623.081L372.002 627.83L372.488 627.338L367.79 622.498L370.338 618.633L375.385 619.216L376.835 622.983L377.417 622.393L376.239 619.316L380.041 619.737L380.77 618.999L370.816 617.874C371.732 616.349 374.059 612.525 375.033 610.895L381.142 618.622L382.13 617.622L379.087 613.77L383.557 610.898C384.345 611.936 385.11 612.952 385.806 613.9L386.81 612.883L385.129 610.637L388.883 610.785L390.47 609.178L383.841 608.91L379.986 603.769L391.452 596.018L396.753 602.817L398.405 601.144L397.844 600.427L401.563 597.947L408.284 591.143L404.172 593.883L398.804 586.37C400.323 585.475 404.385 583.107 405.921 582.195L410.842 588.553L411.83 587.552L408.669 583.453L422.581 575.107L423.263 575.977L424.915 574.305L423.277 572.199L426.276 570.173L427.863 571.321L428.365 570.813L426.886 569.739L433.516 565.276L433.66 565.451L445.952 553.007L443.498 554.664L438.968 550.573L441.385 547.713L440.697 547.033L438.248 549.926L434.415 546.46L437.072 543.448L435.696 542.087L432.974 545.164L427.654 540.357L431.528 537.997L430.128 536.613L426.359 538.914L420.115 529.855L422.099 528.673L419.759 526.359L415.983 528.62L410.075 524.042L413.061 519.734L411.661 518.35L408.537 522.845L402.76 518.363L403.725 512.933C405.308 513.947 407.987 515.689 410.858 517.556L405.903 512.656L403.996 511.418L404.091 510.864L401.521 508.323L401.295 509.654C400.33 509.024 399.041 508.171 397.752 507.318C397.916 506.831 398.149 506.09 398.447 505.283L397.713 504.557L396.958 506.791C395.414 505.783 394.04 504.878 393.5 504.506L390.903 500.479L392.437 499.339L391.749 498.658L390.399 499.657L387.072 494.487L387.429 494.354L385.961 492.902L384.342 493.44L381.763 488.75L380.478 487.48L377.298 488.451L373.347 481.983C373.812 481.925 374.278 481.866 374.743 481.808L373.137 480.22C371.418 480.4 369.663 480.479 367.958 480.414L369.995 477.112L368.595 475.728L368.034 476.664L363.089 474.691L363.457 470.646L362.654 469.852L361.801 479.348C361.66 479.306 361.497 479.242 361.357 479.2C359.349 478.478 357.09 477.184 354.669 475.503L362.126 469.331L361.438 468.65L353.844 474.915C352.974 474.281 352.097 473.608 351.197 472.912L357.614 464.9L356.214 463.516L354.037 466.225L346.423 457.269L348.07 455.463L346.694 454.101L345.137 455.77L343.372 453.7L342.732 450.216L341.746 449.24L342.345 452.49L335.924 444.942L336.79 444.34L336.102 443.659L335.307 444.234L332.774 441.243L333.303 440.892L330.964 438.577L330.467 438.897L318.175 451.341L323.386 458.049L320.92 462.611L312.864 456.719L312.362 457.227L314.78 459.002L311.834 463.317L309.431 460.194L307.779 461.867L310.425 465.294L296.983 474.266L296.346 473.442L295.358 474.442L295.821 475.029L292.799 477.033L286.078 483.837L296.996 476.548L302.676 483.883L288.777 494.511L282.943 487.057L281.292 488.729L286.639 495.573L274.992 495.107L273.405 496.714L284.958 497.184L275.089 503.824L271.309 498.789L270.305 499.806C271.835 501.838 273.1 503.542 273.911 504.603L269.718 507.425L266.629 503.528L265.641 504.528L266.006 504.985L265.269 504.905L264.54 505.643L266.711 505.878L268.54 508.205L263.224 511.796L261.877 508.293L261.294 508.883L262.575 512.223L258.59 514.927L256.993 513.283L256.508 513.775L258.012 515.328L256.344 516.466L255.05 515.251L254.079 516.234L255.15 517.262L249.393 521.162L251.733 523.476L257.409 519.658L259.804 522.512L254.571 526.25L255.259 526.93L258.87 524.376L260.214 531.831L261.201 532.806L259.561 523.86L260.428 523.259L268.555 532.982L265.123 536.686L266.5 538.047L269.802 534.474L277.04 543.123L274.644 546.101L276.043 547.485L277.282 545.955L281.913 549.53L279.851 551.251L280.539 551.931L281.175 551.425L281.09 552.476L281.893 553.27L282.125 550.647L282.705 550.152L289.052 555.067L287.031 558.352L288.431 559.735L294.756 549.429L304.086 559.725C300.676 561.02 296.227 562.357 291.597 562.866L293.202 564.454C295.136 564.195 297.011 563.813 298.8 563.378L302.157 569.162L298.938 570.126L300.222 571.396L299.893 570.812L306.349 568.867L309.874 573.746L304.42 575.548L305.888 577L316.216 573.569L318.298 575.271L310.201 581.265L310.889 581.946L314.127 579.54L317.869 582.042L316.166 587.164L316.9 587.89C317.553 585.943 318.37 583.509 318.664 582.569L321.179 584.246L319.974 590.93L322.543 593.471L323.074 590.592L334.281 597.656L331.234 599.731L324.378 595.286L329.334 600.186C329.634 600.386 329.935 600.587 330.275 600.793L330.136 600.98L331.536 602.364L331.904 601.853C335.309 604.053 338.674 606.247 340.689 607.559L338.257 609.011L340.597 611.325L343.476 609.375ZM346.466 603.869L339.913 595.995L344.259 593.065L350.778 601.294L346.466 603.869ZM337.362 582.096L339.842 580.595L346.507 589.228L344.222 590.76L337.362 582.096ZM343.067 591.564L341.207 592.804L336.633 587.243L338.741 586.119L343.067 591.564ZM319.294 564.164L315.94 560.718L318.541 559.141L320.444 563C320.203 563.151 320.002 563.309 319.808 563.506C319.614 563.702 319.442 563.922 319.294 564.164ZM318.698 566.876C318.719 567.221 318.78 567.573 318.857 567.908L313.835 567.804L314.328 562.393L318.698 566.876ZM322.861 562.344L318.512 553.57L327.515 558.78L325.549 562.928C324.625 562.533 323.718 562.349 322.861 562.344ZM282.398 511.987L284.591 511.466L296.863 520.069L291.641 522.326L282.398 511.987ZM290.363 522.98L287.109 524.85L284.993 521.85L287.444 519.737L290.363 522.98ZM329.648 453.867C331.859 456.313 334.469 459.088 337.281 461.934L336.772 462.403L326.762 456.101L329.648 453.867ZM327.992 449.897L331.865 447.537L338.748 455.673C338.113 456.179 336.432 457.467 335.557 458.124C332.609 455.047 330.002 452.177 327.992 449.897ZM339.336 474.177L334.595 480.767C332.368 478.89 325.695 473.295 323.299 471.314L330.173 466.282L339.336 474.177ZM336.231 462.904L332.397 466.373L330.54 464.763L329.145 462.962L331.342 459.819L336.231 462.904ZM334.202 481.351L332.483 483.735L320.248 473.579L322.729 471.755L334.202 481.351ZM382.076 527.918L377.601 529.878L370.883 526.119C371.626 523.806 372.519 521.708 373.066 520.466L382.076 527.918ZM377.944 517.64L382.322 521.288L380.756 523.791L376.248 520.046L377.944 517.64ZM377.254 558.51L373.178 552.858L380.986 549.82L384.633 554.529C383.347 555.234 380.177 556.928 377.254 558.51ZM385.242 555.293L389.724 561.086L378.542 558.908L385.242 555.293ZM338.061 510.867L346.579 518.221L345.005 521.558L335.245 512.295L338.061 510.867ZM342.303 506.572L347.801 515.606L347.189 516.914L339.677 510.424L342.303 506.572ZM370.771 550.475L366.581 552.1L362.479 544.867L366.681 543.643L370.771 550.475ZM367.402 543.415L371.042 542.347C372.198 545.079 373.406 547.667 374.118 549.149L371.446 550.202L367.402 543.415ZM359.718 543.757L358.637 539.48L365.072 539.393L365.911 541.941L359.718 543.757ZM358.973 543.962L358.609 544.055L351.482 537.818L351.284 531.269L356.22 532.975L358.973 543.962ZM350.599 537.334L342.594 534.052L344.914 529.087L350.396 530.975C350.455 532.2 350.582 536.02 350.599 537.334ZM351.22 530.465C351.181 529.907 351.14 528.894 351.09 528.164L355.313 529.489L355.977 532.122L351.22 530.465ZM350.372 530.176L345.272 528.406L346.118 526.585L350.241 527.875L350.372 530.176ZM339.119 534.084L334.296 526.754L341.848 528.291L339.119 534.084ZM333.677 525.819L327.438 516.343L334.581 512.646L344.679 522.211L342.191 527.53L333.677 525.819ZM335.519 506.828L340.902 499.219L344.323 501.954L338.964 509.813L335.519 506.828ZM334.461 507.76L337.3 510.211L332.145 512.859L330.106 509.644L334.461 507.76ZM331.498 513.195L326.918 515.537L324.62 512.032L329.43 509.918L331.498 513.195ZM326.207 517.035L315.238 520.611L313.265 517.007L323.313 512.619L326.207 517.035ZM326.726 517.845L329.566 522.177L324.735 523.946C323.93 522.696 322.447 520.387 321.829 519.451L326.726 517.845ZM325.076 525.805C325.609 526.688 326.534 528.186 327.623 529.976L321.652 531.429L318.815 528.104L325.076 525.805ZM325.775 525.553L330.639 523.751L334.867 530.169L330.019 532.505L325.775 525.553ZM335.385 530.976L338.406 535.584L335.552 541.642L330.498 533.306L335.385 530.976ZM342.315 534.75L346.473 536.463L344.274 541.581L341.169 537.15L342.315 534.75ZM347.328 536.788L350.911 538.256L357.792 544.283L348.135 547.082L344.902 542.458L347.328 536.788ZM353.923 547.332L356.314 551.156L352.275 552.995L349.268 548.693L353.923 547.332ZM354.629 547.12L361.765 545.037L365.897 552.332L359.441 554.828L354.629 547.12ZM361.357 557.434L366.432 563.911L355.836 564.906L354.758 559.983L361.357 557.434ZM363.622 556.564L372.503 553.128L376.632 558.865C374.524 559.989 372.631 561.033 371.705 561.511L365.578 559.083L363.622 556.564ZM376.873 559.817L377.156 563.663L372.887 561.97L376.873 559.817ZM375.493 548.635C374.002 545.508 370.754 538.374 369.779 534.494C369.73 534.315 369.696 534.119 369.662 533.924L378.605 536.026L380.398 546.745L375.493 548.635ZM373.972 533.321L374.621 529.037L377.361 530.579L378.298 534.358L373.972 533.321ZM373.121 533.127L369.63 532.3C369.702 530.621 370.15 528.698 370.699 526.81L373.795 528.543L373.121 533.127ZM368.141 534.36C368.571 536.082 369.402 538.362 370.351 540.662L366.656 541.74L363.52 532.059L367.985 533.461C368.039 533.774 368.07 534.064 368.141 534.36ZM364.813 538.558L358.434 538.635L356.218 529.767L362.616 531.783L364.813 538.558ZM357.837 528.675L359.497 524.515L363.607 526.506L362.527 530.17L357.837 528.675ZM359.777 523.817L361.106 520.497L365.374 520.537L363.825 525.779L359.777 523.817ZM356.045 528.099L346.772 525.184L350.749 516.703L358.309 522.364L356.045 528.099ZM351.096 516.082L355.784 506.102L362.582 511.754L358.594 521.714L351.096 516.082ZM348.184 514.852L342.762 505.925L345.052 502.55L351.541 507.735L348.184 514.852ZM341.295 498.641L343.327 495.757L353.274 504.005L351.842 507.062L341.295 498.641ZM344.518 493.726L345.935 490.914L355.384 500.906L354.779 502.253L344.518 493.726ZM334.578 504.797L333.322 492.892L335.978 489.652L341.838 494.508L334.578 504.797ZM337.344 487.764L338.968 485.156C341.02 486.797 343.351 488.615 344.503 489.56L343.051 492.5L337.344 487.764ZM335.224 489.039L332.739 492.059L329.631 489.374L332.444 486.711L335.224 489.039ZM332.483 492.775L333.798 505.355L322.755 495.828L329.09 489.874C330.112 490.722 331.9 492.263 332.483 492.775ZM332.872 506.386L312.99 515.083L311.293 511.201L330.125 504.026L332.872 506.386ZM311.943 517.614L316.972 526.801L314.485 527.712L309.762 518.536L311.943 517.614ZM315.687 521.444L321.14 519.642L324.053 524.176L318.331 526.296L315.687 521.444ZM318.1 528.365L320.984 531.735L316.969 534.377L315.239 529.425L318.1 528.365ZM321.863 532.314L328.103 530.771C329.515 533.107 331.137 535.781 332.564 538.1L322.93 543.676L319.557 541.766L317.296 535.285L321.863 532.314ZM327.379 547.849L325.586 552.007L319.196 548.605L319.749 543.545L327.379 547.849ZM323.905 544.255L333.075 538.966C333.924 540.356 334.667 541.577 335.2 542.461L332.169 548.927L323.905 544.255ZM340.491 538.615L346.806 547.648L342.948 547.559L337.846 544.231L340.491 538.615ZM347.411 548.507L353.371 557.027L342.335 551.947L343.302 548.398L347.411 548.507ZM352.811 553.782L356.794 551.953L358.764 555.1L354.805 556.63L352.811 553.782ZM353.993 560.299L356.346 570.956L355.216 571.135C352.366 567.409 349.887 564.18 348.538 562.424L353.993 560.299ZM356.006 565.79L367.051 564.754L370.131 568.707L357.104 570.831L356.006 565.79ZM370.762 569.492L371.74 570.751L360.379 577.892C358.855 575.899 357.309 573.884 355.815 571.953L370.762 569.492ZM364.965 576.141L369.699 582.735L365.95 585.153C364.456 583.222 362.736 580.969 360.946 578.649L364.965 576.141ZM361.383 581.515L364.742 585.873L357.969 589.287L355.234 585.675L361.383 581.515ZM365.31 586.626L368.449 590.702L361.985 594.584L358.56 590.063L365.31 586.626ZM366.541 585.932L370.306 583.497L373.881 587.454L369.657 589.986C368.921 589.031 367.861 587.626 366.541 585.932ZM370.906 583.12L373.422 581.491L376.88 585.657L374.481 587.076L370.906 583.12ZM374.022 581.114L377.891 578.621L381.312 583.008L377.503 585.303L374.022 581.114ZM370.3 582.358L365.566 575.764L372.348 571.516L377.301 577.841L370.3 582.358ZM367.407 561.407L377.273 565.33L377.958 574.921L367.407 561.407ZM378.128 565.664L390.956 570.766L391.242 574.517L378.407 569.376L378.128 565.664ZM378.011 563.988L377.682 559.547L390.318 561.996L390.839 569.09L378.011 563.988ZM394.195 558.669L389.283 552.806C390.173 552.227 391.013 551.698 391.445 551.444L396.029 557.501L394.195 558.669ZM393.612 559.028L391.145 560.608L386.467 554.555C386.996 554.203 387.836 553.673 388.693 553.127L393.612 559.028ZM385.881 553.819L382.401 549.308L388.158 547.061L390.871 550.65L385.881 553.819ZM381.948 546.139L380.331 536.436L387.469 538.116L389.835 543.113L381.948 546.139ZM379.167 534.538L378.192 530.658L382.898 528.602L391.892 536.071C391.699 536.496 391.568 536.95 391.539 537.439L379.167 534.538ZM382.246 525.036L386.117 518.914L391.338 523.04L387.354 529.277L382.246 525.036ZM367.936 531.86L363.432 530.452L366.332 520.582L371.001 520.63C369.822 523.385 368.067 528.1 367.936 531.86ZM361.436 519.662L364.088 512.983L371.592 519.205C371.525 519.365 371.441 519.541 371.341 519.734L361.436 519.662ZM366.7 512.128L364.281 510.124L364.787 502.036L371.485 507.331L366.7 512.128ZM363.46 509.439L357.177 504.231L363.924 501.99L363.46 509.439ZM356.803 502.405L362.16 490.784L367.115 498.99L356.803 502.405ZM355.719 500.2L350.529 494.711L354.8 487.494L359.65 491.675L355.719 500.2ZM349.833 493.99L346.276 490.246L349.78 483.209L354.046 486.878L349.833 493.99ZM344.829 488.912L339.362 484.575L340.986 481.967L346.188 486.204L344.829 488.912ZM336.591 487.151L333.972 484.982L335.692 482.599C336.307 483.078 337.191 483.79 338.206 484.599L336.591 487.151ZM321.761 496.79L329.342 503.348L317.88 507.699L315.248 502.925L321.761 496.79ZM317.204 507.969L310.813 510.399L309.31 508.524L314.692 503.442L317.204 507.969ZM310.113 510.65L304.954 512.613L308.8 508.995C309.233 509.521 309.772 510.215 310.113 510.65ZM310.617 511.472L312.321 515.394L301.866 519.964L300.372 516.931L303.169 514.283L310.617 511.472ZM309.132 518.85L313.825 527.964L307.102 530.455L302.746 521.643L309.132 518.85ZM314.523 529.691L318.55 541.224L310.015 536.413L307.904 532.122L314.523 529.691ZM308.075 537.968L312.141 546.202L308.43 546.746L303.773 540.487L308.075 537.968ZM311.15 538.707L318.904 543.069L318.374 548.151L314.935 546.307L311.15 538.707ZM325.306 552.706L323.918 555.903L317.915 552.43L315.439 547.453L325.306 552.706ZM328.223 548.328L331.55 550.193L327.818 558.105L324.754 556.339L328.223 548.328ZM337.537 544.865L342.447 548.067L339.535 558.865L332.9 554.702L337.537 544.865ZM342.158 552.678L352.635 557.497L339.492 562.585L342.158 552.678ZM347.146 562.961L352.84 570.374L346.558 574.209L340.102 565.686L347.146 562.961ZM346.517 576.499L352.881 584.931L349.457 587.25L344.9 577.493L346.517 576.499ZM347.718 575.742L354.016 571.891L360.202 579.953L354.053 584.113L347.718 575.742ZM354.055 586.452L360.761 595.319L357.017 597.548L350.424 588.889L354.055 586.452ZM356.068 601.861L359.109 605.485L354.32 608.268L351.308 604.706L356.068 601.861ZM356.669 601.483L364.117 597.019L367.114 600.825L359.711 605.107L356.669 601.483ZM365.324 596.302L370.395 593.279C371.312 594.509 372.842 596.541 374.645 598.94L369.536 601.633L365.324 596.302ZM371.582 592.534L377.822 588.787L385.271 597.774L378.777 602.145L371.582 592.534ZM383.739 582.295L378.877 576.061L378.432 570.176L391.267 575.317L391.454 577.836L383.739 582.295ZM392.285 579.566L397.032 586.238C395.561 587.084 391.804 589.235 389.989 590.292L384.937 583.837L392.285 579.566ZM393.061 576.896L392.127 564.206L399.162 573.336L393.061 576.896ZM392.303 562.146L399.665 557.402L408.381 567.999L400.393 572.642L392.303 562.146ZM404.119 560.605L408.938 557.333L414.473 564.492L409.613 567.302L404.119 560.605ZM410.317 555.295L408.041 552.365L412.203 549.804L414.647 552.61L410.317 555.295ZM408.346 556.555C406.999 557.46 404.601 559.107 403.511 559.844L400.882 556.628L405.936 553.394L408.346 556.555ZM406.86 550.803L402.523 545.185C402.588 545.12 402.669 545.038 402.733 544.972C403.235 544.464 403.561 543.813 403.746 543.121L410.479 545.761L409.805 549.016L406.86 550.803ZM404.745 551.893L396.647 557.108L388.858 546.812L395.083 544.412C396.753 545.706 398.685 546.321 400.326 546.129L404.745 551.893ZM395.759 541.933C394.245 540.435 393.881 538.325 394.95 537.243C396.019 536.161 398.132 536.5 399.646 537.998C401.16 539.495 401.524 541.605 400.456 542.688C399.387 543.77 397.273 543.43 395.759 541.933ZM392.77 541.928L390.488 542.815L388.36 538.312L391.593 539.079C391.771 540.001 392.168 540.976 392.77 541.928ZM393.459 534.344L388.106 529.893L392.083 523.617L397.919 528.222L396.9 533.891C395.648 533.689 394.433 533.817 393.459 534.344ZM385.844 516.897L387.443 514.589L398.835 523.165L398.208 526.693L385.844 516.897ZM384.595 517.702L382.693 520.683L378.338 517.057L380.297 514.294L384.595 517.702ZM375.495 519.43L367.476 512.765L372.254 507.928L379.566 513.701L375.495 519.43ZM373.487 507.136L381.841 503.406L383.977 507.074L377.493 510.288L373.487 507.136ZM372.671 506.496L366.105 501.299L378.29 497.273L381.4 502.618L372.671 506.496ZM367.798 498.754L365.245 494.544L369.466 492.658L372.045 497.347L367.798 498.754ZM364.764 493.748L362.504 490.022L365.003 484.553L369.025 491.868L364.764 493.748ZM360.245 490.38L350.139 481.649L351.873 479.021L361.998 486.539L360.245 490.38ZM346.497 485.571L341.341 481.379L343.565 477.842L348.323 481.931L346.497 485.571ZM340.216 481.368L338.593 483.976L336.125 482.021L337.934 479.5L340.216 481.368ZM338.329 478.917L340.834 475.463L342.844 477.192L340.604 480.746L338.329 478.917ZM330.938 485.479L328.158 488.11C326.992 487.087 324.621 485.034 323.678 484.198L326.423 481.694L330.938 485.479ZM309.219 495.993L306.902 498.11C306.138 497.322 304.328 495.435 303.564 494.647L305.985 492.472L309.219 495.993ZM307.227 491.719L314.548 491.148L310.254 495.036L307.227 491.719ZM306.371 498.553L303.61 501.073C302.647 499.797 301.617 498.453 300.661 497.217L303.034 495.09L306.371 498.553ZM303.078 501.521L299.233 504.266L296.273 500.009L300.1 497.603L303.078 501.521ZM297.738 506.513L299.401 508.871L297.251 510.634L295.876 507.848L297.738 506.513ZM298.332 506.095L303.663 502.259L305.133 504.167L299.988 508.413L298.332 506.095ZM305.708 504.964L307.603 507.453L299.49 515.116L297.713 511.544L305.708 504.964ZM304.2 501.853L307.026 499.267C307.888 500.185 310.2 502.665 311.344 503.894L308.088 506.962C307.3 505.923 305.845 503.998 304.2 501.853ZM307.575 498.802L309.876 496.702L314.1 501.333L311.877 503.446L307.575 498.802ZM310.908 495.749L315.977 491.169L320.563 495.25L315.148 500.364L310.908 495.749ZM316.486 490.701L318.528 488.863L322.737 493.187L321.048 494.759L316.486 490.701ZM319.546 487.922L323.131 484.66L327.611 488.572L323.732 492.224L319.546 487.922ZM318.811 475.398L325.631 481.073L322.934 483.527L316.56 477.126L318.811 475.398ZM322.427 483.999L318.875 487.227L312.26 480.426L316.006 477.552L322.427 483.999ZM317.841 488.182L315.605 490.216L310.876 490.596L310.379 481.872L311.134 481.29L317.841 488.182ZM310.025 490.628L306.455 490.891L303.192 487.307L309.566 482.461L310.025 490.628ZM305.346 491.738L300.085 496.421C298.782 494.71 297.623 493.175 296.864 492.198L302.106 488.177L305.346 491.738ZM310.191 477.928L307.691 474.904L314.67 470.593L316.581 473.066L310.191 477.928ZM296.287 492.602L299.508 496.824L292.59 501.165L290.516 496.975L296.287 492.602ZM295.671 500.386L298.655 504.666L295.453 506.944L293.029 502.052L295.671 500.386ZM293.854 509.25L298.791 519.22L297.604 519.733L285.463 511.226L293.854 509.25ZM299.221 520.071L301.645 524.963L296.136 527.326L292.341 523.088L299.221 520.071ZM302.47 526.65L304.567 530.863L295.416 535.49L291.716 531.248L302.47 526.65ZM299.23 540.953L297.639 541.875L288.595 532.574L291.023 531.54L299.23 540.953ZM296.054 536.223L304.981 531.73L307.21 536.268L299.814 540.589L296.054 536.223ZM303.172 540.864L311.501 552.082L309.181 553.742L299.046 543.297L303.172 540.864ZM309.027 547.559L312.572 547.046L314.824 551.607L312.199 551.831L309.027 547.559ZM312.325 552.671L315.21 552.413L318.102 558.255L315.245 559.999L309.829 554.417L312.325 552.671ZM326.798 566.529C328.312 568.026 328.677 570.137 327.608 571.219C326.539 572.301 324.426 571.961 322.912 570.464C321.398 568.967 321.033 566.856 322.102 565.774C323.194 564.715 325.284 565.032 326.798 566.529ZM329.664 566.383C329.309 565.87 328.899 565.368 328.417 564.891C328.348 564.823 328.279 564.755 328.211 564.687L332.613 555.363L339.356 559.601L338.425 563.023L329.664 566.383ZM338.75 566.226L345.357 574.964L344.756 575.342L331.057 570.48C331.044 570.079 331.016 569.695 330.926 569.281L338.75 566.226ZM343.926 575.818L336.163 580.555L330.252 573.088C330.652 572.545 330.906 571.92 330.997 571.232L343.926 575.818ZM338.173 585.36L336.026 586.477L330.487 579.735L333.332 579.243L338.173 585.36ZM340.458 580.198L344.26 577.864L348.839 587.644L347.1 588.808L340.458 580.198ZM352.002 600.558L345.437 592.283L349.847 589.287L356.411 597.885L352.002 600.558ZM347.453 612.234L344.725 608.661L350.724 605.066L353.713 608.605L347.453 612.234ZM351.364 617.368L348.613 613.772L357.951 608.357L360.464 611.782L351.364 617.368ZM361.08 611.387L358.59 607.985L368.344 602.334L370.803 605.446L361.08 611.387ZM365.396 624.371L360.796 619.984L362.786 617.739L369.307 618.483C368.396 619.819 366.284 623.013 365.396 624.371ZM369.785 617.722L363.421 617.003L372.108 607.152L374.415 610.05L369.785 617.722ZM382.426 609.288L377.924 612.193L370.16 602.377L375.253 599.7C377.441 602.673 380.009 606.088 382.426 609.288ZM385.894 597.425L378.468 588.46L383.315 585.573L390.294 594.484L385.894 597.425ZM393.654 594.984L390.581 591.07L393.867 589.167L396.823 593.061L393.654 594.984ZM396.68 598.852L394.261 595.746L397.436 593.863L399.702 596.849L396.68 598.852ZM403.022 594.59L400.273 596.409L394.484 588.772L397.601 586.993L403.022 594.59ZM398.279 585.524L393.532 578.853L400.383 574.9L405.38 581.365L398.279 585.524ZM408.105 582.603L401.607 574.168L407.403 570.825L413.783 579.241L408.105 582.603ZM442.931 555.007L438.209 558.181L435.145 555.085L438.578 551.059L442.931 555.007ZM434.129 556.025L437.033 558.962L427.709 565.234L425.346 562.897L434.129 556.025ZM424.773 563.338L427.113 565.652L421.317 569.546L419.626 567.356L424.773 563.338ZM419.059 566.596L417.93 565.123L429.795 551.641L433.44 555.343L419.059 566.596ZM437.836 550.387L434.435 554.381L430.721 550.612L433.98 546.899L437.836 550.387ZM415.648 566.011L422.017 574.254L414.345 578.854L407.988 570.46L415.648 566.011ZM416.709 563.56L410.924 556.057C412.246 555.224 414.518 553.842 415.31 553.361L420.487 559.323L416.709 563.56ZM420.941 558.77L412.819 549.408L416.124 547.394L424.11 555.194L420.941 558.77ZM427.075 540.624L432.532 545.567L429.095 549.46L422.841 543.211L427.075 540.624ZM422.264 543.61L428.678 550.018L424.59 554.661L416.765 547.02L422.264 543.61ZM419.552 530.102L425.796 539.161L421.634 541.722L415.552 532.499L419.552 530.102ZM421.033 542.105L411.901 547.724L414.974 532.905L421.033 542.105ZM412.88 534.104L410.635 545.01L403.862 542.363C403.909 541.535 403.793 540.642 403.465 539.734L412.88 534.104ZM415.364 528.878L401.829 536.981C401.684 536.805 401.524 536.647 401.34 536.465L409.679 524.487L415.364 528.878ZM408.14 523.294L399.85 535.223C399.804 535.178 399.765 535.171 399.719 535.126L402.602 518.984L408.14 523.294ZM401.022 511.031L398.991 522.408L393.787 518.494L397.287 508.569L401.022 511.031ZM396.49 508.043C395.779 510.095 393.574 516.276 393 517.913L387.859 514.027L393.396 505.988L396.49 508.043ZM384.345 515.706L378.332 510.958L384.465 507.916L386.871 512.046L384.345 515.706ZM387.306 511.376L382.54 503.162L386.458 502.272L389.758 507.838L387.306 511.376ZM389.664 500.998L391.999 504.603L390.219 507.186L387.165 502.059L389.664 500.998ZM385.665 494.809L389.15 500.233L386.349 501.417L382.083 502.384L378.973 497.039L385.665 494.809ZM380.703 488.22L383.617 493.533L381.006 494.386L377.769 489.078L380.703 488.22ZM376.394 489.598L379.601 494.845L372.743 497.105L370.135 492.354L376.394 489.598ZM371.729 481.966L375.914 488.794L369.694 491.556L365.396 483.741L366.277 481.792C368.103 482.01 369.918 482.055 371.729 481.966ZM362.965 475.275L367.583 477.119L365.769 480.057C364.68 479.92 363.633 479.695 362.595 479.414L362.965 475.275ZM361.239 480.606C362.251 480.958 363.312 481.262 364.359 481.487L362.313 485.946L352.273 478.48L353.662 476.386C356.368 478.283 358.944 479.762 361.239 480.606ZM352.854 475.782L349.379 480.999L339.542 472.502L343.31 467.769C346.487 470.749 349.742 473.514 352.854 475.782ZM353.116 467.161L349.642 471.504C346.646 469.028 343.59 466.199 340.676 463.318L345.471 458.142L353.116 467.161ZM342.611 467.144L338.811 471.909L333.132 467.007L337.974 462.656C339.465 464.13 341.041 465.657 342.611 467.144ZM342.207 454.331L344.162 456.622L342.223 458.723L339.926 455.998C340.432 455.623 341.532 454.831 342.207 454.331ZM341.761 459.235L339.278 461.933C338.222 460.889 337.206 459.852 336.229 458.821L339.372 456.419L341.761 459.235ZM331.58 441.813L341.583 453.585L339.302 455.252L329.263 443.378L331.58 441.813ZM328.686 443.774L331.242 446.788L327.353 449.165C326.332 447.994 325.503 447.043 324.886 446.336L328.686 443.774ZM324.328 456.773L319.194 450.172L323.708 447.117C324.804 448.395 326.637 450.533 329.008 453.137L324.328 456.773ZM326.174 456.559L330.484 459.266L328.507 462.14L324.935 457.538L326.174 456.559ZM324.006 458.659L328.823 464.848L318.824 472.17L317.573 470.544L324.006 458.659ZM315.566 459.355L320.573 463.01L316.937 469.721L312.456 463.928L315.566 459.355ZM298.142 475.57L311.585 466.598L314.08 469.811L300.289 478.309L298.142 475.57ZM300.88 479.091L307.107 475.266L309.676 478.358L303.792 482.846L300.88 479.091ZM288.503 498.417L293.053 507.584L281.027 510.438L277.141 506.109L288.503 498.417ZM275.963 506.889L286.189 518.298L283.738 520.412L271.705 509.776L275.963 506.889ZM283.19 520.874L279.958 523.642L277.178 520.763L279.931 517.976L283.19 520.874ZM271.073 510.185L279.179 517.358L276.474 520.096L268.515 511.901L271.073 510.185ZM264.182 525.381L258.548 518.643L264.104 514.9L269.433 521.305L264.182 525.381ZM264.683 514.496L266.575 513.224L272.265 519.078L269.989 520.878L264.683 514.496ZM266.722 528.411L264.806 526.127L270.034 522.028L272.003 524.397L266.722 528.411ZM272.558 523.971L270.589 521.602L272.953 519.76L275.13 522.009L272.558 523.971ZM270.18 532.579L267.952 529.922L273.265 525.874L275.416 528.196L270.18 532.579ZM273.838 525.432L276.497 523.428L285.358 532.547L283.084 535.354L273.838 525.432ZM270.805 533.324L276.113 528.915L282.651 535.931L277.906 541.837L270.805 533.324ZM287.205 531.137L281.308 525.079L284.469 522.338L289.825 530L287.205 531.137ZM287.669 525.66L291.026 523.73L294.775 527.924L290.524 529.748L287.669 525.66ZM286.7 533.942L295.957 543.485L294.654 545.631L284.481 536.739L286.7 533.942ZM284.06 537.26L294.301 546.22L292.403 549.335L281.663 540.237L284.06 537.26ZM277.684 545.181L280.766 541.325L291.637 550.52L289.362 554.201L277.684 545.181ZM295.105 548.572L297.364 544.907L309.349 557.245C308.328 557.727 306.743 558.46 304.763 559.225L295.105 548.572ZM302.825 568.713L299.491 562.952C300.252 562.732 301.013 562.513 301.735 562.287L305.736 567.832L302.825 568.713ZM303.139 561.835C306.625 560.648 309.335 559.373 310.715 558.664L313.518 561.566L312.932 567.76L307.314 567.617L303.139 561.835ZM311.24 573.05L307.942 568.492L313.159 568.628L314.931 571.839L311.24 573.05ZM315.652 571.613L314.015 568.633L319.099 568.766C319.281 569.271 319.511 569.726 319.804 570.21L315.652 571.613ZM316.994 573.104L320.988 571.77C321.102 571.883 321.194 571.974 321.309 572.087C321.859 572.632 322.475 573.111 323.093 573.495L322.373 577.483L316.994 573.104ZM314.744 578.915L319.081 575.717L322.247 578.297L321.341 583.3L314.744 578.915ZM324.98 579.8L325.924 574.575C327.137 574.77 328.305 574.597 329.218 574.04L332.694 578.418L324.98 579.8ZM323.221 589.664L323.738 586.707L328.585 589.88L327.469 592.342L323.221 589.664ZM334.938 597.036L328.28 592.85L329.419 590.411L337.223 595.503L334.938 597.036ZM338.481 594.646L324.008 585.194L324.819 580.746L329.695 579.896L340.629 593.205L338.481 594.646ZM332.979 600.675L338.736 596.775L341.807 600.461L337.263 603.454L332.979 600.675ZM342.017 606.536L338.181 604.039L342.452 601.229L345.258 604.587L342.017 606.536Z" fill="#F5F9FE"/>
</g>
</svg>
