<svg width="660" height="745" viewBox="0 0 660 745" fill="none" xmlns="http://www.w3.org/2000/svg"><path d="M264.223 202.978a153.253 153.253 0 0 0-184.15-20.737c59.022 21.128 124.146 21.905 184.15 20.737Z" fill="#EEF7FF"/><path d="M654.919 385.662v-.293a78.88 78.88 0 0 0-3.784-20.699c-.125-.379-.249-.764-.379-1.137a79.265 79.265 0 0 0-30.294-39.727 78.796 78.796 0 0 0-103.255 12.764 111.445 111.445 0 0 0-6.282-22.042 353.894 353.894 0 0 1-62.533 2.33 252.316 252.316 0 0 0 39.646 14.399l-.485 1.802a254.675 254.675 0 0 1-44.319-16.592l-4.294-2.082 4.76.311a354.086 354.086 0 0 0 66.492-1.908 112.123 112.123 0 0 0-19.587-31.12c-35.769-3.604-71.258-11.111-104.398-25.994l.764-1.697c32.258 14.498 66.827 21.949 101.726 25.615a111.71 111.71 0 0 0-93.489-34.882 111.715 111.715 0 0 0-84.068 53.755 153.424 153.424 0 0 0-38.055-86.315 358.273 358.273 0 0 1-58.892 17.841 356.114 356.114 0 0 1-92.056 7.326 252.316 252.316 0 0 0 39.646 14.399l-.485 1.802a254.635 254.635 0 0 1-44.307-16.592l-4.294-2.082 4.76.311a353.714 353.714 0 0 0 154.335-24.453 160.238 160.238 0 0 0-5.692-5.916c-61.16 1.243-127.769.622-188.071-21.333A153.816 153.816 0 0 0 5 314.491c0 28.871 7.935 68.573 21.75 108.406a460.698 460.698 0 0 0 21.693 52.199c4.22 8.575 8.7 16.908 13.404 24.887a282.473 282.473 0 0 0 18.699 27.964 206.598 206.598 0 0 0 3.697 4.723 170.6 170.6 0 0 0 23.291 24.154 122.14 122.14 0 0 0 5.213 4.12 99.336 99.336 0 0 0 14.914 9.321c9.116 4.568 18.525 7.246 28.15 7.631.771.031 1.548.05 2.318.05v.317H575.72v-.317h.311a21.132 21.132 0 0 0 7.059-1.243c14.765-5.238 28.361-26.273 39.665-52.858a359.366 359.366 0 0 0 7.165-18.4 448.513 448.513 0 0 0 5.704-17.045 525.443 525.443 0 0 0 13.143-51.304c3.983-19.711 6.214-36.943 6.214-47.849.019-1.218.019-2.399-.062-3.585Z" fill="#EEF7FF"/><path d="m606.306 546.111-64.454-111.638a2.055 2.055 0 0 0-1.78-1.033 2.057 2.057 0 0 0-1.78 1.033l-64.453 111.638a2.047 2.047 0 0 0-.023 2.074 2.048 2.048 0 0 0 1.8 1.033h19.226a2.062 2.062 0 0 1 2.057 2.057V575.1a2.056 2.056 0 0 0 2.051 2.057h25.087a2.057 2.057 0 0 0 2.056-2.057v-11.515a2.048 2.048 0 0 1 2.051-2.051h23.85a2.058 2.058 0 0 1 2.057 2.051V575.1a2.06 2.06 0 0 0 2.057 2.057h25.08a2.057 2.057 0 0 0 2.057-2.057v-23.85c0-.546.217-1.069.602-1.455a2.06 2.06 0 0 1 1.455-.602h19.226a2.052 2.052 0 0 0 2.051-2.056 2.052 2.052 0 0 0-.273-1.026Zm-89.882 12.353a2.047 2.047 0 0 1-1.454.622h-9.029a2.057 2.057 0 0 1 0-4.114h9.048a2.056 2.056 0 0 1 1.454 3.511l-.019-.019Zm59.209 0a2.044 2.044 0 0 1-1.455.622h-9.022a2.057 2.057 0 0 1 0-4.114h9.06a2.056 2.056 0 0 1 1.454 3.511l-.037-.019ZM207.923 547.093 143.47 435.455a2.062 2.062 0 0 0-1.781-1.026 2.057 2.057 0 0 0-1.78 1.026L84.237 531.88a170.012 170.012 0 0 0 23.296 24.055h9.073a2.055 2.055 0 0 1 2.057 2.057 2.057 2.057 0 0 1-2.057 2.057h-3.828a99.605 99.605 0 0 0 14.914 9.278v-4.754a2.058 2.058 0 0 1 2.057-2.057h23.85a2.056 2.056 0 0 1 2.05 2.057v11.509a2 2 0 0 0 .193.863 2.06 2.06 0 0 0 1.864 1.194h25.087a2.011 2.011 0 0 0 1.634-.827c.276-.355.423-.793.417-1.243v-23.831a2.057 2.057 0 0 1 2.056-2.057h19.227a2.051 2.051 0 0 0 1.795-1.023 2.056 2.056 0 0 0 .001-2.065Zm-42.598 9.445a2.039 2.039 0 0 1 1.454-.621h9.048a2.056 2.056 0 1 1 0 4.113h-9.054a2.056 2.056 0 0 1-1.454-3.511l.006.019Zm-40.485-41.312a2.056 2.056 0 0 1-2.057-2.056v-15.623a2.06 2.06 0 0 1 2.057-2.057h33.711a2.058 2.058 0 0 1 2.051 2.057v15.623a2.06 2.06 0 0 1-2.051 2.056H124.84ZM254.641 534.043a.833.833 0 0 1-.833.833h-31.22a.852.852 0 0 1-.593-.242.835.835 0 0 1-.246-.591v-10.645a.84.84 0 0 1 .839-.839h31.22a.84.84 0 0 1 .833.839v10.645ZM328.658 534.037a.838.838 0 0 1-.247.591.833.833 0 0 1-.592.241h-31.22a.837.837 0 0 1-.839-.832v-10.639a.845.845 0 0 1 .839-.839h31.22a.84.84 0 0 1 .839.839v10.639ZM379.235 534.03c0 .11-.022.219-.064.321a.844.844 0 0 1-.775.512h-31.22a.837.837 0 0 1-.839-.833v-10.632a.84.84 0 0 1 .839-.839h31.22a.84.84 0 0 1 .839.839v10.632ZM453.251 534.024a.838.838 0 0 1-.839.833h-31.22a.821.821 0 0 1-.592-.242.819.819 0 0 1-.246-.591v-10.626a.84.84 0 0 1 .838-.839h31.227a.846.846 0 0 1 .838.839l-.006 10.626Z" fill="#F5F9FE"/><path fill-rule="evenodd" clip-rule="evenodd" d="M382.932 346.55h79.759a.84.84 0 0 1 .838.839v229.003a.843.843 0 0 1-.838.839h-50.546a.843.843 0 0 1-.839-.839v-30.809a.84.84 0 0 0-.839-.839h-21.352a.838.838 0 0 0-.833.839v30.809a.843.843 0 0 1-.839.839h-99.892a.837.837 0 0 1-.833-.839v-30.809a.843.843 0 0 0-.839-.839h-21.351a.843.843 0 0 0-.839.839v30.809a.84.84 0 0 1-.839.839h-50.546a.838.838 0 0 1-.833-.839v-229.01a.84.84 0 0 1 .833-.839h76.055v-17.25a4.127 4.127 0 0 1 4.126-4.126h27.535v-18.369a2.599 2.599 0 0 1 2.597-2.598h30.17a2.599 2.599 0 0 1 2.598 2.598v18.375h23.421a4.127 4.127 0 0 1 4.126 4.126v17.251ZM254.397 534.632a.833.833 0 0 0 .244-.589v-10.645a.84.84 0 0 0-.833-.839h-31.22a.84.84 0 0 0-.839.839v10.645a.835.835 0 0 0 .839.833h31.22a.833.833 0 0 0 .589-.244Zm.182-27.822a.823.823 0 0 0 .062-.321v-38.21a.838.838 0 0 0-.833-.839h-31.22a.84.84 0 0 0-.839.839v38.21a.844.844 0 0 0 .244.595.837.837 0 0 0 .595.244h31.22a.819.819 0 0 0 .771-.518Zm0-55.101a.823.823 0 0 0 .062-.321v-38.21a.833.833 0 0 0-.833-.833h-31.22a.814.814 0 0 0-.32.062.816.816 0 0 0-.455.451.835.835 0 0 0-.064.32V451.388a.844.844 0 0 0 .244.596.835.835 0 0 0 .595.243h31.22a.819.819 0 0 0 .771-.518Zm-.182-54.826a.833.833 0 0 0 .244-.589v-38.192a.823.823 0 0 0-.242-.593.819.819 0 0 0-.591-.246h-31.22a.828.828 0 0 0-.776.517.844.844 0 0 0-.063.322v38.192a.835.835 0 0 0 .839.833h31.22a.833.833 0 0 0 .589-.244Zm74.197 137.474a.838.838 0 0 0 .064-.32v-10.639a.84.84 0 0 0-.839-.839h-31.22a.849.849 0 0 0-.839.839v10.639a.842.842 0 0 0 .839.832h31.22a.832.832 0 0 0 .775-.512Zm.001-27.552a.844.844 0 0 0 .063-.322v-38.204a.84.84 0 0 0-.839-.839h-31.22a.843.843 0 0 0-.839.839v38.204a.843.843 0 0 0 .518.775.843.843 0 0 0 .321.064h31.22a.828.828 0 0 0 .776-.517Zm0-55.101a.844.844 0 0 0 .063-.322v-38.204a.835.835 0 0 0-.839-.833h-31.22a.838.838 0 0 0-.839.833v38.204a.84.84 0 0 0 .839.839h31.22a.828.828 0 0 0 .776-.517Zm-.001-55.096a.838.838 0 0 0 .064-.32v-38.186a.844.844 0 0 0-.244-.595.837.837 0 0 0-.595-.244h-31.22a.843.843 0 0 0-.775.518.84.84 0 0 0-.064.321v38.186a.842.842 0 0 0 .839.832h31.22a.832.832 0 0 0 .775-.512Zm50.577 137.743a.843.843 0 0 0 .064-.321v-10.632a.84.84 0 0 0-.839-.839h-31.22a.849.849 0 0 0-.839.839v10.632a.838.838 0 0 0 .839.833h31.22a.835.835 0 0 0 .775-.512Zm.001-27.552a.847.847 0 0 0 .063-.322v-38.198a.84.84 0 0 0-.839-.839h-31.22a.843.843 0 0 0-.839.839v38.198a.843.843 0 0 0 .518.775.84.84 0 0 0 .321.064h31.22a.831.831 0 0 0 .776-.517Zm0-55.101a.847.847 0 0 0 .063-.322l-.001-27.511.001-.036v-10.651a.835.835 0 0 0-.839-.833h-31.22a.838.838 0 0 0-.839.833v9.643l-.001.037.001 28.518a.843.843 0 0 0 .518.775.84.84 0 0 0 .321.064h31.22a.831.831 0 0 0 .776-.517Zm-.001-55.096a.843.843 0 0 0 .064-.321V385.63a.842.842 0 0 0-.839-.839h-31.22a.849.849 0 0 0-.839.839v10.651a.838.838 0 0 0 .839.833h31.22a.835.835 0 0 0 .775-.512Zm.001-27.552a.847.847 0 0 0 .063-.322v-10.626a.844.844 0 0 0-.244-.595.837.837 0 0 0-.595-.244h-31.22a.84.84 0 0 0-.839.839v10.626a.843.843 0 0 0 .518.775.84.84 0 0 0 .321.064h31.22a.837.837 0 0 0 .776-.517Zm73.831 165.563a.831.831 0 0 0 .248-.589l.006-10.626a.84.84 0 0 0-.838-.839h-31.227a.842.842 0 0 0-.838.839v10.626a.819.819 0 0 0 .518.771.821.821 0 0 0 .32.062h31.22a.838.838 0 0 0 .591-.244Zm.003-27.549a.84.84 0 0 0 .245-.593l.006-10.639c0-.022 0-.044-.002-.065l-.002-.018-.001-.015.005-27.455a.843.843 0 0 0-.838-.839h-31.227a.841.841 0 0 0-.593.245.842.842 0 0 0-.245.594v38.192a.828.828 0 0 0 .516.776.851.851 0 0 0 .322.063h31.22a.843.843 0 0 0 .594-.246Zm0-55.101a.84.84 0 0 0 .245-.593l.006-10.62v-.032l-.002-.037-.003-.031.005-27.472a.835.835 0 0 0-.838-.833h-31.227a.821.821 0 0 0-.592.242.819.819 0 0 0-.246.591V451.37a.828.828 0 0 0 .516.777.85.85 0 0 0 .322.062h31.22a.843.843 0 0 0 .594-.246Zm.186-55.364a.835.835 0 0 0 .059-.324l.006-10.645a.987.987 0 0 0-.005-.094l.005-27.434a.838.838 0 0 0-.838-.839h-31.227a.831.831 0 0 0-.838.839v38.192a.84.84 0 0 0 .518.771.86.86 0 0 0 .32.062h31.227a.851.851 0 0 0 .322-.067.857.857 0 0 0 .451-.461Z" fill="#F5F9FE"/><path d="m253.69 259.595-9.644 6.115 5.854-10.645a9.536 9.536 0 0 0-5.835-2.082h-.156c-.67.01-1.34-.04-2.001-.149l-3.256 2.076 1.404-2.548a11.628 11.628 0 0 1-5.717-4.35l-5.853 3.728 3.685-6.736c-3.424-4.107-8.035-6.624-13.106-6.624-6.084 0-11.502 3.617-15.001 9.253a11.214 11.214 0 0 1-9.943 5.35h-.329c-6.717 0-12.161 7.612-12.161 17.008 0 9.396 5.444 17.008 12.161 17.008a9.078 9.078 0 0 0 4.238-1.062 17.533 17.533 0 0 1 14.715-.286 15.354 15.354 0 0 0 12.516 0 17.534 17.534 0 0 1 14.59.28 9.11 9.11 0 0 0 4.189 1.037c6.717 0 12.161-7.618 12.161-17.008a21.61 21.61 0 0 0-2.511-10.365Z" fill="#F5F9FE"/><path opacity=".1" d="M235.545 284.483a17.956 17.956 0 0 0-10.421 1.131 15.36 15.36 0 0 1-12.571-.031 17.537 17.537 0 0 0-14.716.292 9.161 9.161 0 0 1-4.238 1.057c-5.965 0-10.93-6.009-11.962-13.939a11.435 11.435 0 0 0 2.983-3.212c3.499-5.637 8.917-9.26 15.001-9.26s11.434 3.58 14.914 9.154a11.5 11.5 0 0 0 9.911 5.444h.156c4.797 0 8.911 3.809 10.943 9.364Z" fill="#000"/><path d="m534.706 380.473-6.748 4.281 4.095-7.457a6.676 6.676 0 0 0-4.083-1.454h-.105a7.989 7.989 0 0 1-1.399-.106l-2.293 1.448.982-1.777a8.198 8.198 0 0 1-4.002-3.039l-4.107 2.585 2.585-4.704c-2.393-2.877-5.593-4.642-9.172-4.642-4.257 0-8.079 2.536-10.502 6.482a7.842 7.842 0 0 1-6.941 3.728h-.205c-4.698 0-8.514 5.326-8.514 11.9 0 6.575 3.816 11.907 8.514 11.907a6.383 6.383 0 0 0 2.964-.74 12.252 12.252 0 0 1 10.303-.199 10.783 10.783 0 0 0 8.762 0 12.288 12.288 0 0 1 5.126-1.013 12.29 12.29 0 0 1 5.084 1.212c.906.47 1.912.717 2.933.721 4.704 0 8.513-5.326 8.513-11.906a15.127 15.127 0 0 0-1.79-7.227Z" fill="#F5F9FE"/><path opacity=".1" d="M522.017 397.872a12.62 12.62 0 0 0-7.295.79 10.743 10.743 0 0 1-8.762 0 12.277 12.277 0 0 0-10.303.205 6.396 6.396 0 0 1-2.965.739c-4.175 0-7.649-4.207-8.37-9.756a8.114 8.114 0 0 0 2.088-2.25c2.448-3.945 6.214-6.481 10.496-6.481 4.281 0 8.01 2.486 10.458 6.407a8.044 8.044 0 0 0 6.935 3.809h.112c3.293-.012 6.171 2.654 7.606 6.537Z" fill="#000"/><path d="m140.555 340.702 6.749 4.263-4.101-7.457a6.688 6.688 0 0 1 4.082-1.454h.112c.469.006.936-.03 1.398-.105l2.287 1.448-.982-1.778a8.208 8.208 0 0 0 4.009-3.038l4.095 2.597-2.592-4.704c2.399-2.877 5.624-4.642 9.179-4.642 4.256 0 8.078 2.535 10.502 6.481a7.834 7.834 0 0 0 6.941 3.729h.223c4.705 0 8.514 5.325 8.514 11.9s-3.809 11.906-8.514 11.906a6.422 6.422 0 0 1-2.964-.739 12.252 12.252 0 0 0-10.303-.199 10.785 10.785 0 0 1-8.755 0 12.29 12.29 0 0 0-10.217.199 6.422 6.422 0 0 1-2.933.721c-4.697 0-8.513-5.326-8.513-11.907a15.129 15.129 0 0 1 1.783-7.221Z" fill="#F5F9FE"/><path opacity=".1" d="M153.282 358.101a12.63 12.63 0 0 1 7.295.79 10.726 10.726 0 0 0 8.756 0 12.277 12.277 0 0 1 10.303.205 6.407 6.407 0 0 0 2.964.739c4.176 0 7.656-4.207 8.377-9.756a8.043 8.043 0 0 1-2.088-2.25c-2.436-3.958-6.245-6.506-10.514-6.506-4.269 0-8.004 2.486-10.452 6.407a8.082 8.082 0 0 1-6.948 3.822h-.106c-3.305 0-6.189 2.666-7.587 6.549Z" fill="#000"/><path d="M140.891 580.028c8.414 5.344 20.538-.062 29.007 5.201 2.188 1.355 3.953 3.349 6.215 4.58 2.715 1.485 5.909 1.752 8.998 1.864 25.863 1.001 52.161-6.214 77.378-.385 7.053 1.628 13.951 4.275 21.178 4.66 12.484.678 24.446-5.412 36.943-5.748 18.953-.509 37.577 12.174 55.865 7.171 6.016-1.646 11.534-5.157 17.742-5.748 6.916-.621 13.565 2.393 20.289 4.151 23.844 6.215 48.675-3.852 73.327-4.604 16.076-.491 31.996 3.014 48.06 3.821 11.422.572 22.868-.229 34.277-1.025 4.35-.304 8.905-.677 12.547-3.063 3.641-2.387 5.878-7.513 3.629-11.242l-445.455.367Z" fill="#3F3D56"/><path d="M140.891 580.028c8.414 5.344 20.538-.062 29.007 5.201 2.188 1.355 3.953 3.349 6.215 4.58 2.715 1.485 5.909 1.752 8.998 1.864 25.863 1.001 52.161-6.214 77.378-.385 7.053 1.628 13.951 4.275 21.178 4.66 12.484.678 24.446-5.412 36.943-5.748 18.953-.509 37.577 12.174 55.865 7.171 6.016-1.646 11.534-5.157 17.742-5.748 6.916-.621 13.565 2.393 20.289 4.151 23.844 6.215 48.675-3.852 73.327-4.604 16.076-.491 31.996 3.014 48.06 3.821 11.422.572 22.868-.229 34.277-1.025 4.35-.304 8.905-.677 12.547-3.063 3.641-2.387 5.878-7.513 3.629-11.242l-445.455.367Z" fill="#465C72"/><path d="M140.891 576.92c8.414 5.345 20.538-.062 29.007 5.202 2.188 1.354 3.953 3.349 6.215 4.579 2.715 1.486 5.909 1.753 8.998 1.865 25.863 1 52.161-6.214 77.378-.386 7.053 1.629 13.951 4.276 21.178 4.661 12.484.677 24.446-5.413 36.943-5.748 18.953-.51 37.577 12.173 55.865 7.171 6.016-1.647 11.534-5.158 17.742-5.748 6.916-.621 13.565 2.392 20.289 4.151 23.844 6.214 48.675-3.853 73.327-4.605 16.076-.491 31.996 3.014 48.06 3.822 11.422.572 22.868-.23 34.277-1.025 4.35-.305 8.905-.678 12.547-3.064 3.641-2.386 5.878-7.513 3.629-11.241l-445.455.366Z" fill="#8597A8"/><g opacity=".4"><path d="M81.03 500.362a15.191 15.191 0 0 1-2.007 7.693 15.75 15.75 0 0 1 0 15.387 14.13 14.13 0 0 1 1.516 3.728 282.163 282.163 0 0 1-18.698-27.964c.136-2.31.809-4.556 1.964-6.562a15.192 15.192 0 0 1-2.008-7.693 15.824 15.824 0 0 1 .908-5.35c.29-.815.658-1.6 1.1-2.343 1.752-2.976 4.511-4.897 7.606-4.897 3.094 0 5.86 1.921 7.612 4.897.426.722.786 1.481 1.075 2.268.623 1.741.939 3.576.932 5.425a15.191 15.191 0 0 1-2.007 7.693 15.195 15.195 0 0 1 2.007 7.718Z" fill="#F5F9FE"/><path opacity=".1" d="M71.41 482.186c5.31 0 9.614-5.637 9.614-12.59s-4.304-12.59-9.613-12.59c-5.31 0-9.614 5.637-9.614 12.59s4.304 12.59 9.614 12.59Z" fill="#3F3D56"/><path opacity=".1" d="M71.41 466.8c5.31 0 9.614-5.637 9.614-12.59s-4.304-12.59-9.613-12.59c-5.31 0-9.614 5.637-9.614 12.59s4.304 12.59 9.614 12.59Z" fill="#3F3D56"/><path d="M117.271 377.365a45.847 45.847 0 0 1-9.862 28.48 46.066 46.066 0 0 1-27.342 73.681 42.25 42.25 0 0 1-3.368.534c-3.508.42-7.052.439-10.564.056a41.571 41.571 0 0 1-3.462-.515 45.55 45.55 0 0 1-14.292-5.227 458.891 458.891 0 0 1-21.632-52.068 45.85 45.85 0 0 1 8.259-16.436 46.11 46.11 0 0 1-7.457-43.257l34.973 11.738-32.798-17.039a46.249 46.249 0 0 1 5.25-8.401 46.068 46.068 0 0 1 27.73-73.766 46.063 46.063 0 0 1 35.835 8.221 46.089 46.089 0 0 1 12.516 13.998l-33.811 24.857 36.663-19.015a46.12 46.12 0 0 1-.882 36.495l-27.343-.205 25.267 4.151a46.289 46.289 0 0 1-3.585 5.27 45.863 45.863 0 0 1 9.905 28.448Z" fill="#F5F9FE"/><path d="M117.271 434.349a46.077 46.077 0 0 1-37.173 45.202c-1.106.223-2.23.397-3.368.534-3.508.42-7.052.438-10.564.056a41.165 41.165 0 0 1-3.461-.516 45.549 45.549 0 0 1-14.293-5.226 458.982 458.982 0 0 1-21.662-52.093 45.85 45.85 0 0 1 8.258-16.436 45.88 45.88 0 0 1-9.862-28.505c0-5.17 88.44 20.644 82.263 28.48a45.844 45.844 0 0 1 9.862 28.504Z" fill="#F5F9FE"/></g><g opacity=".1"><path opacity=".1" d="M635.674 488.381a486.937 486.937 0 0 1-5.705 17.045 15.936 15.936 0 0 1-.82-5.102c0-5.549 2.734-10.259 6.525-11.943Z" fill="#3F3D56"/><path opacity=".1" d="M655 389.228c0 10.906-2.2 28.138-6.214 47.849a525.583 525.583 0 0 1-13.143 51.304 489.796 489.796 0 0 1-5.705 17.046 341.58 341.58 0 0 1-7.165 18.4 46.25 46.25 0 0 1-28.542-30.764 46.236 46.236 0 0 1 8.092-41.178 46.277 46.277 0 0 1-7.457-43.349l34.973 11.763-32.798-17.077a46.357 46.357 0 0 1 5.251-8.42 46.227 46.227 0 0 1-8.422-39.951 46.22 46.22 0 0 1 9.646-18.608 46.216 46.216 0 0 1 16.871-12.437 79.253 79.253 0 0 1 30.294 39.727l-6.059 4.511 6.5-3.374a78.874 78.874 0 0 1 3.785 20.699h-1.827l1.864.305c.056 1.174.056 2.355.056 3.554Z" fill="#6C63FF"/><path opacity=".1" d="M648.817 437.077a525.729 525.729 0 0 1-13.143 51.304 489.034 489.034 0 0 1-5.705 17.045 340.93 340.93 0 0 1-7.165 18.4 46.237 46.237 0 0 1-20.45-71.941 46.042 46.042 0 0 1-9.856-28.535c0-3.107 32.14 5.033 56.319 13.727Z" fill="#000"/></g><path d="m212.59 559.975 11.894-6.997a28.665 28.665 0 0 0-6.084-7.277l-22.439 6.978 17.586-10.334a28.58 28.58 0 0 0-28.305.478 28.587 28.587 0 0 0-14.013 24.596c0 15.784 12.794 16.331 28.585 16.331 15.79 0 28.585-.547 28.585-16.331a28.468 28.468 0 0 0-2.455-11.602l-13.354 4.158Z" fill="#465C72"/><path opacity=".1" d="M215.616 575.318a22.226 22.226 0 0 0-4.213-3.306c-2.163-1.436-4.394-2.902-6.941-3.387-2.237-.429-4.543-.068-6.836-.199a15.942 15.942 0 0 1-10.446-4.785c-1.622-1.678-2.902-3.728-4.853-5.027-2.107-1.38-4.779-1.678-7.277-1.336a18.09 18.09 0 0 0-2.15.441 28.488 28.488 0 0 0-1.69 9.7c0 15.784 12.795 16.331 28.585 16.331 7.662 0 14.615-.13 19.748-2.063l-.857-1.603a22.636 22.636 0 0 0-3.07-4.766Z" fill="#000"/><path d="M345.125 282.656c12.269 0 22.216-9.946 22.216-22.216 0-12.269-9.947-22.215-22.216-22.215-12.269 0-22.216 9.946-22.216 22.215 0 12.27 9.947 22.216 22.216 22.216ZM332.237 433.255c2.293 16.089-.503 32.494-4.859 48.147-.814 2.915-1.691 5.854-3.213 8.47-1.523 2.616-3.642 4.866-5.431 7.327-3.729 5.133-5.916 11.185-7.961 17.176a484.54 484.54 0 0 0-14.18 50.533 3.455 3.455 0 0 0 0 2.156c.54 1.243 2.181 1.405 3.529 1.399l17.437-.094c.622-1.193-.528-2.485-1.243-3.629-2.485-3.865-.099-8.886 2.095-12.931a139.044 139.044 0 0 0 12.291-31.071c1.193-4.555 2.163-9.209 4.102-13.503 2.342-5.208 6.015-9.688 8.998-14.56 3.467-5.661 5.996-11.807 8.507-17.978 3.505-8.563 7.04-17.232 8.42-26.379 1.299-8.588.659-17.337-.186-25.981a1.65 1.65 0 0 0-.474-1.419 1.633 1.633 0 0 0-1.428-.445l-23.396-1.206c-4.822-.248-5.966-1.305-5.233 3.43.51 3.536 1.716 6.979 2.225 10.558Z" fill="#25323F"/><path opacity=".1" d="M332.237 433.255c2.293 16.089-.503 32.494-4.859 48.147-.814 2.915-1.691 5.854-3.213 8.47-1.523 2.616-3.642 4.866-5.431 7.327-3.729 5.133-5.916 11.185-7.961 17.176a484.54 484.54 0 0 0-14.18 50.533 3.455 3.455 0 0 0 0 2.156c.54 1.243 2.181 1.405 3.529 1.399l17.437-.094c.622-1.193-.528-2.485-1.243-3.629-2.485-3.865-.099-8.886 2.095-12.931a139.044 139.044 0 0 0 12.291-31.071c1.193-4.555 2.163-9.209 4.102-13.503 2.342-5.208 6.015-9.688 8.998-14.56 3.467-5.661 5.996-11.807 8.507-17.978 3.505-8.563 7.04-17.232 8.42-26.379 1.299-8.588.659-17.337-.186-25.981a1.65 1.65 0 0 0-.474-1.419 1.633 1.633 0 0 0-1.428-.445l-23.396-1.206c-4.822-.248-5.966-1.305-5.233 3.43.51 3.536 1.716 6.979 2.225 10.558Z" fill="#000"/><path d="M336.835 394.144c-4.753 6.835-9.737 14.703-8.159 22.887 1.2 6.214 5.935 11.03 10.403 15.535 17.859 17.934 35.42 37.857 41.498 62.433 1.566 6.351 2.324 12.87 3.672 19.264 2.449 11.621 6.836 22.732 11.186 33.774l11.658 29.424a17.623 17.623 0 0 0 16.84-11.185c-1.529-.118-3.524-1.597-4.418-2.84-4.972-6.879-5.991-15.728-7.265-24.117-1.41-9.272-3.293-18.469-5.182-27.659l-8.352-40.666c-.963-4.691-1.926-9.389-3.182-14.013-4.859-17.909-14.069-34.799-15.492-53.317-.211-2.722-.341-5.711-2.187-7.73-1.939-2.132-5.12-2.486-7.998-2.654-11.639-.746-21.681-1.883-33.022.864Z" fill="#25323F"/><path d="M305.435 564.492a18.5 18.5 0 0 0-3.865-.497 8.032 8.032 0 0 0-6.313 3.449 15.67 15.67 0 0 0-1.697 3.728l-1.684 4.835c-.497 1.416-.982 3.051-.242 4.35a4.616 4.616 0 0 0 2.262 1.746c4.076 1.814 8.7 1.914 13.112 2.349 4.312.422 8.588 1.18 12.844 1.976 1.467.279 2.927.559 4.412.708 3.319.336 6.662 0 9.98-.298l3.424-.329c1.146-.05 2.28-.259 3.368-.622a4.239 4.239 0 0 0 2.486-2.231c.845-2.094-.969-4.573-3.188-5.008-.901-.174-1.864-.094-2.747-.212a12.944 12.944 0 0 1-3.007-.901c-4.35-1.721-8.806-3.461-12.658-6.17-1.069-.752-2.188-1.802-2.07-3.107a6.327 6.327 0 0 1 .553-1.61 5.877 5.877 0 0 0 .05-4.157c-.211-.572-.621-1.175-1.199-1.243-1.641-.199-1.442 2.194-1.684 3.107-.33 1.243-.926 1.355-2.094 1.243-3.356-.305-6.712-.472-10.043-1.106ZM403.538 581.19c.03 2.428.865 4.778 2.374 6.68a5.177 5.177 0 0 0 1.69 1.361 6.782 6.782 0 0 0 3.107.491 24.897 24.897 0 0 0 8.632-1.746 24.626 24.626 0 0 1 2.982-1.125 33.594 33.594 0 0 1 3.878-.559c5.139-.74 9.651-3.772 14.616-5.307a30.82 30.82 0 0 0 4.35-1.429c1.963-.926 3.554-2.486 5.114-3.996a12.254 12.254 0 0 0 2.349-2.815c.913-1.696.969-3.728 1.007-5.649.033-.3-.019-.603-.15-.876a1.3 1.3 0 0 0-.559-.441c-1.51-.746-3.3-.373-4.971-.081-6.04 1.075-12.223.876-18.357.678a2.666 2.666 0 0 1-2.821-1.61l-2.33-3.728c-.665-1.069-1.722-2.293-2.927-1.927-.963.292-1.355 1.473-1.318 2.486.038 1.013.348 2.02.156 3.008a4.126 4.126 0 0 1-1.989 2.585c-.979.532-2.023.933-3.107 1.193-3.43.969-7.42 2.069-10.073 4.592-1.951 1.79-1.771 5.798-1.653 8.215Z" fill="#fff"/><path d="M402.333 334.649a14.408 14.408 0 0 0 3.393-3.691 15.047 15.047 0 0 0 1.448-5.102l.975-6.164c.541-3.399 1.175-6.997 3.443-9.589 2.268-2.591 6.786-3.517 9.091-.957 1.007 1.113 1.405 2.641 1.653 4.127a30.039 30.039 0 0 1-7.345 24.856c-2.79 3.058-6.214 5.487-9.166 8.377-2.573 2.486-4.803 5.338-7.177 8.041a99.098 99.098 0 0 1-19.556 17.089c.087-4.623.677-9.582 0-14.175-.503-3.318-1.864-5.108 1.348-7.276 7.457-5.071 14.983-9.657 21.893-15.536ZM339.669 289.174c-.242 3.306-1.616 6.687-4.35 8.594a340.452 340.452 0 0 1 22.912 8.961c-1.455-1.398-1.896-3.542-1.964-5.555-.193-5.264 1.628-10.44 4.288-14.976a3.64 3.64 0 0 0 .702-1.977c-.087-1.466-1.827-2.143-3.256-2.485a80.036 80.036 0 0 0-14.865-2.156c-2.144-.069-4.685-.746-4.2 1.982.459 2.548.926 5.033.733 7.612Z" fill="#FBBEBE"/><path d="M354.645 290.945c10.032 0 18.164-8.132 18.164-18.164 0-10.032-8.132-18.164-18.164-18.164-10.032 0-18.164 8.132-18.164 18.164 0 10.032 8.132 18.164 18.164 18.164Z" fill="#FBBEBE"/><path d="M372.629 321.842a21.942 21.942 0 0 0-2.306-3.865c-3.293-4.729-6.674-9.452-10.899-13.367a67.943 67.943 0 0 0-10.347-7.6 23.506 23.506 0 0 0-6.475-3.107 25.322 25.322 0 0 0-4.157-.565l-4.717-.386a3.871 3.871 0 0 0-1.243.038c-1.28.323-1.864 1.914-1.59 3.2.273 1.286 1.242 2.33 2.1 3.306.211 9.626-4.07 19.121-4.648 28.734-1.013 16.809 9.246 32.444 10.067 49.266.084.76.004 1.529-.236 2.256-.137.348-.342.665-.498 1.006-.484 1.057-.466 2.256-.553 3.418a17.355 17.355 0 0 1-5.114 10.949 7.6 7.6 0 0 0 2.883 2.2c1.983.864 4.35.939 6.457 1.541 5.493 1.604 11.123 3.219 16.834 2.878a14.846 14.846 0 0 0 1.299-4.891c.808-.503 1.74.572 1.864 1.516.124.945-.056 2.045.622 2.728.677.684 1.534.578 2.361.473 3.486-.442 6.835-1.616 10.253-2.405 3.418-.79 7.072-1.169 10.396-.038.672-.851.386-2.112-.161-3.045-.547-.932-1.324-1.752-1.634-2.79a6.223 6.223 0 0 1-.199-1.833c0-5.313 1.093-10.682.056-15.896-.305-1.528-.79-3.02-1.1-4.555-.622-2.976-.528-6.046-.448-9.085.081-3.038-.286-6.326-.348-9.408a30.126 30.126 0 0 0-.248-3.809c-.212-1.324-.622-2.616-.733-3.952-.336-3.393 1.031-6.761.826-10.167-.342-5.17-6.351-7.979-8.364-12.745Z" fill="#FF6584"/><path d="M331.634 319.406c-4.399 11.671-6.549 24.049-8.7 36.341l-4.971 28.871c-1.411 8.159-2.827 16.368-2.771 24.645 0 2.324.149 4.692-.46 6.935-.796 2.945-2.772 5.4-4.269 8.078a26.588 26.588 0 0 0-2.859 17.978c.51 2.579 1.902 5.506 4.518 5.804 2.15.236 4.008-1.473 5.263-3.238 2.884-4.045 4.313-8.929 5.593-13.739a310.77 310.77 0 0 0 8.619-47.905c.154-2.047.442-4.081.864-6.09a43.306 43.306 0 0 1 2.1-6.065c1.902-4.714 3.805-9.429 5.711-14.143 4.393-10.894 8.812-21.837 14.845-31.916-5.965-1.715-12.173-3.729-18.139-5.425-1.721-.51-3.567-.205-5.344-.131Z" fill="#FBBEBE"/><path d="M341.975 328.274c-4.176-.901-8.495-.622-12.758-.727a2.752 2.752 0 0 1-1.715-.448c-.864-.739-.497-2.125-.062-3.175l2.063-4.971a7.215 7.215 0 0 1 1.653-2.747c1.05-.932 2.529-1.162 3.921-1.33 4.53-.522 9.191-.696 13.584.528 4.393 1.225 8.526 4.008 10.489 8.128.821 1.716 1.2 3.878.112 5.438-1.615 2.318-5.238 4.909-7.941 3.641-3.238-1.535-5.717-3.567-9.346-4.337Z" fill="#FF6584"/><path d="M364.178 244.57a18.346 18.346 0 0 0-10.13 2.92 22.212 22.212 0 0 0-21.811-5.108 12.697 12.697 0 0 0-24.844-.819 12.694 12.694 0 0 0 10.178 15.509 22.216 22.216 0 0 0 42.642 12.485c1.311.268 2.645.403 3.983.404 8.762 0 15.871-5.686 15.871-12.696s-7.14-12.695-15.889-12.695Z" fill="#25323F"/><path opacity=".1" d="M367.341 263.61a19.396 19.396 0 0 1-3.984-.404 22.094 22.094 0 0 1-2.908 6.394c1.229.237 2.477.358 3.729.361 8.19 0 14.914-4.972 15.777-11.335-2.914 3.032-7.481 4.984-12.614 4.984ZM341.949 279.481a22.25 22.25 0 0 1-21.895-18.494 22.23 22.23 0 0 1 .656-10.265 12.7 12.7 0 0 1-10.291-14.778 12.699 12.699 0 0 0 7.121 21.128 22.214 22.214 0 0 0 42.437 13.162 22.171 22.171 0 0 1-18.028 9.247Z" fill="#000"/><path d="M422.99 316.936a.211.211 0 0 0-.047-.293.21.21 0 0 0-.292.051l-1.754 2.459a.21.21 0 0 0 .046.293.21.21 0 0 0 .292-.051l1.755-2.459ZM413.169 306.496a.12.12 0 0 0-.028-.165.119.119 0 0 0-.165.028l-.519.728a.118.118 0 0 0 .027.165.119.119 0 0 0 .165-.028l.52-.728ZM411.962 308.212a.13.13 0 0 0-.212-.152l-.993 1.391a.13.13 0 0 0 .212.152l.993-1.391ZM410.42 310.37a.125.125 0 0 0-.029-.174.123.123 0 0 0-.173.029l-1.011 1.417a.124.124 0 1 0 .202.144l1.011-1.416Z" fill="#3A3768"/><path d="m426.001 311.659-8.822-6.295a1.565 1.565 0 0 0-2.184.365l-14.673 20.562a1.566 1.566 0 0 0 .366 2.185l8.821 6.294a1.566 1.566 0 0 0 2.185-.365l14.672-20.562a1.566 1.566 0 0 0-.365-2.184Z" fill="#25323F"/><path opacity=".1" d="m426.001 311.659-8.822-6.295a1.565 1.565 0 0 0-2.184.365l-14.673 20.562a1.566 1.566 0 0 0 .366 2.185l8.821 6.294a1.566 1.566 0 0 0 2.185-.365l14.672-20.562a1.566 1.566 0 0 0-.365-2.184Z" fill="#000"/><path d="m425.426 310.5-8.822-6.295a1.566 1.566 0 0 0-2.184.366l-14.673 20.562a1.566 1.566 0 0 0 .365 2.184l8.822 6.295a1.565 1.565 0 0 0 2.184-.365l14.673-20.562a1.567 1.567 0 0 0-.365-2.185Z" fill="#25323F"/><path d="m424.629 310.874-1.299-.932-.112.156a.908.908 0 0 1-1.243.217l-4.151-2.964a.913.913 0 0 1-.211-1.274l.112-.155-1.243-.87a1.086 1.086 0 0 0-.394-.18 1.127 1.127 0 0 0-.433-.015 1.12 1.12 0 0 0-.72.449l-14.343 20.103a1.113 1.113 0 0 0 .255 1.548l8.166 5.822a1.1 1.1 0 0 0 1.547-.261l14.342-20.096a1.124 1.124 0 0 0 .186-.831 1.121 1.121 0 0 0-.459-.717Z" fill="#0E8AFD"/><path d="m420.848 308.283-1.265-.902a.198.198 0 0 0-.277.046.2.2 0 0 0 .046.278l1.265.902a.199.199 0 1 0 .231-.324ZM421.286 309.104a.224.224 0 1 0 0-.449.224.224 0 0 0 0 .449Z" fill="#E6E8EC"/><path d="M421.348 153.656a41.635 41.635 0 0 0-41.635 41.635c0 22.992 43.623 99.141 43.623 99.141s39.647-76.118 39.647-99.141a41.635 41.635 0 0 0-41.635-41.635Zm0 69.4a21.81 21.81 0 0 1-21.393-26.067 21.81 21.81 0 0 1 29.74-15.896 21.816 21.816 0 0 1 13.465 20.151 21.81 21.81 0 0 1-21.812 21.831v-.019Z" fill="#0E8AFD"/><path opacity=".1" d="M421.348 153.656a41.635 41.635 0 0 0-41.635 41.635c0 22.992 43.623 99.141 43.623 99.141s39.647-76.118 39.647-99.141a41.635 41.635 0 0 0-41.635-41.635Zm0 69.4a21.81 21.81 0 0 1-21.393-26.067 21.81 21.81 0 0 1 29.74-15.896 21.816 21.816 0 0 1 13.465 20.151 21.81 21.81 0 0 1-21.812 21.831v-.019Z" fill="#000"/><path d="M421.348 145a41.635 41.635 0 0 0-41.635 41.635c0 22.992 43.623 107.815 43.623 107.815s39.647-84.81 39.647-107.809a41.632 41.632 0 0 0-25.701-38.471 41.625 41.625 0 0 0-15.934-3.17Zm0 69.4a21.818 21.818 0 0 1-20.151-13.465 21.81 21.81 0 0 1 28.498-28.498 21.81 21.81 0 0 1 0 40.302 21.815 21.815 0 0 1-8.347 1.661Z" fill="#0E8AFD"/></svg>