<svg width="660" height="777" viewBox="0 0 660 777" fill="none" xmlns="http://www.w3.org/2000/svg">
<path d="M290 190.264C290 184.208 281.384 179.299 270.756 179.299C270.545 179.299 270.337 179.305 270.128 179.309C266.922 169.459 251.766 162 233.55 162C218.051 162 204.768 167.4 199.174 175.077C195.042 173.981 190.783 173.435 186.508 173.452C170.211 173.452 157 180.979 157 190.264C157 198.698 167.902 205.681 182.115 206.89C192.443 208.782 208.576 210 226.707 210C257.49 210 280.013 204.115 280.578 199.692C286.219 197.781 290 194.275 290 190.264Z" fill="#EEF7FF"/>
<path d="M554 137.142C554 131.97 546.615 127.777 537.505 127.777C537.325 127.777 537.146 127.781 536.967 127.784C534.219 119.371 521.228 113 505.614 113C492.33 113 480.944 117.612 476.15 124.17C472.607 123.234 468.957 122.767 465.293 122.782C451.324 122.782 440 129.211 440 137.142C440 144.347 449.345 150.311 461.527 151.343C470.38 152.96 484.208 154 499.749 154C526.134 154 545.44 148.974 545.924 145.195C550.759 143.563 554 140.568 554 137.142Z" fill="#EEF7FF"/>
<path d="M342.017 642.353C508.539 642.353 643.531 633.49 643.531 622.557C643.531 611.623 508.539 602.76 342.017 602.76C175.496 602.76 40.5039 611.623 40.5039 622.557C40.5039 633.49 175.496 642.353 342.017 642.353Z" fill="#EEF7FF"/>
<path d="M190.677 268.761L177 257.82L253.588 189.438H447.794V249.614L321.97 334.408L190.677 268.761Z" fill="#EEF7FF"/>
<path opacity="0.1" d="M190.677 268.761L177 257.82L253.588 189.438H447.794V249.614L321.97 334.408L190.677 268.761Z" fill="#465C72"/>
<path d="M483.202 227.796V190.804H457.417V199.863L447.794 189.438L384.882 257.82L360.265 274.231L322.094 553.108L379.66 610.673H513.441V260.555L483.202 227.796Z" fill="#EEF7FF"/>
<path d="M384.882 257.82H177V610.673H384.882V257.82Z" fill="white"/>
<path opacity="0.15" d="M295.985 524.511H257.691V610.673H295.985V524.511Z" fill="#465C72"/>
<path opacity="0.15" d="M227.5 557L241.5 557L241.5 525L227.5 525L227.5 554.334L227.5 557Z" fill="#465C72"/>
<path opacity="0.15" d="M216.5 554.334L216.5 525L202.5 525L202.5 557L216.5 557L216.5 554.334Z" fill="#465C72"/>
<path opacity="0.15" d="M328 525L314 525L314 557L328 557L328 527.666L328 525Z" fill="#465C72"/>
<path opacity="0.15" d="M339 527.666L339 557L353 557L353 525L339 525L339 527.666Z" fill="#465C72"/>
<path opacity="0.15" d="M454 308L468 308L468 276L454 276L454 305.334L454 308Z" fill="#465C72"/>
<path opacity="0.15" d="M444 305.334L444 276L430 276L430 308L444 308L444 305.334Z" fill="#465C72"/>
<path opacity="0.15" d="M454 373L468 373L468 341L454 341L454 370.334L454 373Z" fill="#465C72"/>
<path opacity="0.15" d="M444 370.334L444 341L430 341L430 373L444 373L444 370.334Z" fill="#465C72"/>
<path opacity="0.15" d="M454 439L468 439L468 407L454 407L454 436.334L454 439Z" fill="#465C72"/>
<path opacity="0.15" d="M444 436.334L444 407L430 407L430 439L444 439L444 436.334Z" fill="#465C72"/>
<path opacity="0.15" d="M454 504L468 504L468 472L454 472L454 501.334L454 504Z" fill="#465C72"/>
<path opacity="0.15" d="M444 501.334L444 472L430 472L430 504L444 504L444 501.334Z" fill="#465C72"/>
<path opacity="0.15" d="M358.897 275.599H200.25V308.423H358.897V275.599Z" fill="#465C72"/>
<path opacity="0.15" d="M358.897 341H200.25V373.824H358.897V341Z" fill="#465C72"/>
<path opacity="0.15" d="M358.897 406.893H200.25V439.717H358.897V406.893Z" fill="#465C72"/>
<path opacity="0.15" d="M358.897 472.541H200.25V505.364H358.897V472.541Z" fill="#465C72"/>
<path opacity="0.5" d="M333.5 634C371.884 634 403 631.538 403 628.5C403 625.462 371.884 623 333.5 623C295.116 623 264 625.462 264 628.5C264 631.538 295.116 634 333.5 634Z" fill="#F5F9FE"/>
<path d="M631.015 578.288C631.015 611.104 611.486 622.562 587.393 622.562C586.835 622.562 586.278 622.556 585.722 622.543C584.605 622.519 583.5 622.466 582.407 622.392C560.664 620.855 543.771 608.807 543.771 578.288C543.771 546.705 584.178 506.852 587.213 503.902L587.218 503.897C587.335 503.783 587.393 503.727 587.393 503.727C587.393 503.727 631.015 545.473 631.015 578.288Z" fill="#F5F9FE"/>
<path d="M585.738 613.644L599.496 598.227L585.697 615.825L585.654 623C584.525 622.979 583.407 622.931 582.302 622.865L584.041 593.575L584.028 593.348L584.057 593.305L584.221 590.539L568 568.437L584.272 588.464L584.31 589.051L585.625 566.921L577 552.527L585.836 565.625L587.163 531.156L587.168 531V531.152L586.883 555.479L595 545.538L586.883 556.448L586.517 576.262L599.426 557.246L586.464 579.178L586.259 590.193L605 563.726L586.189 594.037L585.738 613.644Z" fill="#465C72"/>
<path fill-rule="evenodd" clip-rule="evenodd" d="M153 552V607H152V552H153Z" fill="#465C72"/>
<path d="M152.5 560C156.642 560 160 556.418 160 552C160 547.582 156.642 544 152.5 544C148.358 544 145 547.582 145 552C145 556.418 148.358 560 152.5 560Z" fill="#465C72"/>
<path d="M153 586C153 586 151.884 561.368 129 564.232L153 586Z" fill="#465C72"/>
<path fill-rule="evenodd" clip-rule="evenodd" d="M86 445V621H85V445H86Z" fill="#465C72"/>
<path d="M85.5 453C89.6421 453 93 449.642 93 445.5C93 441.358 89.6421 438 85.5 438C81.3579 438 78 441.358 78 445.5C78 449.642 81.3579 453 85.5 453Z" fill="#465C72"/>
<path d="M62.5 582C66.6421 582 70 578.642 70 574.5C70 570.358 66.6421 567 62.5 567C58.3579 567 55 570.358 55 574.5C55 578.642 58.3579 582 62.5 582Z" fill="#465C72"/>
<path d="M86 484C86 484 84.8837 460.488 62 463.221L86 484Z" fill="#465C72"/>
<path d="M86 550C86 550 84.8837 526.488 62 529.221L86 550Z" fill="#465C72"/>
<path fill-rule="evenodd" clip-rule="evenodd" d="M86.6649 619C86.6648 619 86.6648 619.001 85.9405 618.922C85.2163 618.843 85.2162 618.843 85.2163 618.843L85.2169 618.837L85.2193 618.816C85.2215 618.797 85.2247 618.768 85.2289 618.729C85.2372 618.652 85.2492 618.536 85.2637 618.385C85.2928 618.081 85.3319 617.634 85.3716 617.062C85.451 615.919 85.5328 614.281 85.5414 612.308C85.5586 608.358 85.2825 603.081 84.1162 597.75C82.9485 592.413 80.8993 587.071 77.4071 582.945C73.933 578.839 69.0104 575.91 62 575.393L62.1117 574C69.5432 574.547 74.8271 577.678 78.5393 582.064C82.2333 586.429 84.35 592.011 85.543 597.464C86.7374 602.923 87.0167 608.304 86.9992 612.314C86.9905 614.32 86.9074 615.988 86.8262 617.155C86.7857 617.739 86.7456 618.198 86.7155 618.512C86.7004 618.669 86.6879 618.79 86.6791 618.873C86.6746 618.914 86.6711 618.945 86.6687 618.967L86.6659 618.991L86.6651 618.998L86.6649 619Z" fill="#465C72"/>
<path d="M109 582C113.418 582 117 578.642 117 574.5C117 570.358 113.418 567 109 567C104.582 567 101 570.358 101 574.5C101 578.642 104.582 582 109 582Z" fill="#465C72"/>
<path fill-rule="evenodd" clip-rule="evenodd" d="M86.5494 618.861C86.448 618.873 86.2837 618.892 86.0171 618.922C85.3218 619.001 85.3218 619 85.3217 619L85.3215 618.998L85.3208 618.991L85.318 618.967C85.3157 618.945 85.3124 618.914 85.3081 618.873C85.2996 618.79 85.2876 618.669 85.2731 618.512C85.2443 618.198 85.2058 617.739 85.1668 617.155C85.0889 615.988 85.0091 614.32 85.0007 612.314C84.9839 608.304 85.2521 602.923 86.3987 597.464C87.544 592.011 89.576 586.429 93.1223 582.064C96.686 577.678 101.759 574.547 108.893 574L109 575.393C102.27 575.91 97.5443 578.839 94.2092 582.945C90.8567 587.071 88.8895 592.413 87.7685 597.75C86.6488 603.081 86.3837 608.358 86.4003 612.308C86.4085 614.281 86.487 615.919 86.5633 617.062C86.6014 617.634 86.639 618.081 86.6668 618.385C86.6808 618.536 86.6923 618.652 86.7003 618.729C86.7043 618.768 86.7074 618.797 86.7094 618.816L86.7117 618.837L86.7124 618.843C86.7124 618.843 86.7124 618.843 86.5494 618.861Z" fill="#465C72"/>
<path d="M109.5 511C113.642 511 117 507.642 117 503.5C117 499.358 113.642 496 109.5 496C105.358 496 102 499.358 102 503.5C102 507.642 105.358 511 109.5 511Z" fill="#465C72"/>
<path fill-rule="evenodd" clip-rule="evenodd" d="M86.5494 547.861C86.448 547.873 86.2837 547.892 86.0171 547.922C85.3218 548.001 85.3218 548 85.3217 548L85.3215 547.998L85.3208 547.991L85.318 547.967C85.3157 547.945 85.3124 547.914 85.3081 547.873C85.2996 547.79 85.2876 547.669 85.2731 547.512C85.2443 547.198 85.2058 546.739 85.1668 546.155C85.0889 544.988 85.0091 543.32 85.0007 541.314C84.9839 537.304 85.2521 531.923 86.3987 526.464C87.544 521.011 89.576 515.429 93.1223 511.064C96.686 506.678 101.759 503.547 108.893 503L109 504.393C102.27 504.91 97.5443 507.839 94.2092 511.945C90.8567 516.071 88.8895 521.413 87.7685 526.75C86.6488 532.081 86.3837 537.358 86.4003 541.308C86.4085 543.281 86.487 544.919 86.5633 546.062C86.6014 546.634 86.6389 547.081 86.6668 547.385C86.6808 547.536 86.6923 547.652 86.7003 547.729C86.7043 547.768 86.7074 547.797 86.7094 547.816L86.7117 547.837L86.7124 547.843C86.7124 547.843 86.7124 547.843 86.5494 547.861Z" fill="#465C72"/>
<path d="M482.02 147.688C480.835 152.644 479.338 153.823 477.921 153.485C476.503 153.147 475.702 151.419 476.886 146.464C478.071 141.508 482.211 135.539 482.211 135.539C482.211 135.539 483.204 142.733 482.02 147.688Z" fill="#EEF7FF"/>
<path d="M659.418 191.825C658.234 196.781 656.737 197.96 655.32 197.622C653.902 197.284 653.101 195.556 654.285 190.601C655.47 185.645 659.61 179.677 659.61 179.677C659.61 179.677 660.603 186.87 659.418 191.825Z" fill="#EEF7FF"/>
<path d="M175.257 196.45C173.315 204.572 170.862 206.505 168.539 205.951C166.216 205.396 164.903 202.565 166.844 194.444C168.786 186.323 175.57 176.541 175.57 176.541C175.57 176.541 177.198 188.329 175.257 196.45Z" fill="#F5F9FE"/>
<path d="M156.26 302.174C154.753 307.956 152.849 309.332 151.046 308.937C149.242 308.543 148.222 306.527 149.73 300.745C151.237 294.964 156.504 288 156.504 288C156.504 288 157.768 296.392 156.26 302.174Z" fill="#F5F9FE"/>
<path d="M103.777 230.202C101.835 238.324 99.3827 240.257 97.0597 239.703C94.7367 239.149 93.423 236.317 95.3647 228.196C97.3063 220.075 104.091 210.293 104.091 210.293C104.091 210.293 105.719 222.081 103.777 230.202Z" fill="#F5F9FE"/>
<path d="M39.446 354.825C37.5043 362.946 35.0516 364.879 32.7286 364.325C30.4056 363.771 29.092 360.939 31.0336 352.818C32.9752 344.697 39.7599 334.915 39.7599 334.915C39.7599 334.915 41.3876 346.703 39.446 354.825Z" fill="#F5F9FE"/>
<path d="M34.2468 496.323C32.3051 504.445 29.8524 506.378 27.5294 505.824C25.2064 505.27 23.8928 502.438 25.8344 494.317C27.776 486.196 34.5607 476.414 34.5607 476.414C34.5607 476.414 36.1884 488.202 34.2468 496.323Z" fill="#F5F9FE"/>
<path d="M526.805 221.115C524.864 229.237 522.411 231.17 520.088 230.616C517.765 230.061 516.451 227.23 518.393 219.109C520.335 210.987 527.119 201.206 527.119 201.206C527.119 201.206 528.747 212.994 526.805 221.115Z" fill="#EEF7FF"/>
<path d="M314.966 184.767C313.024 192.888 310.572 194.821 308.249 194.267C305.926 193.713 304.612 190.882 306.554 182.76C308.495 174.639 315.28 164.857 315.28 164.857C315.28 164.857 316.908 176.646 314.966 184.767Z" fill="#F5F9FE"/>
<path d="M518.358 288.619C516.416 296.74 513.964 298.673 511.641 298.119C509.318 297.565 508.004 294.734 509.946 286.613C511.887 278.491 518.672 268.709 518.672 268.709C518.672 268.709 520.3 280.498 518.358 288.619Z" fill="#F5F9FE"/>
<path d="M606.083 154.91C604.141 163.031 601.688 164.964 599.365 164.41C597.042 163.856 595.729 161.024 597.67 152.903C599.612 144.782 606.397 135 606.397 135C606.397 135 608.024 146.788 606.083 154.91Z" fill="#F5F9FE"/>
<path d="M609.383 245.049C608.199 250.005 606.702 251.185 605.285 250.846C603.867 250.508 603.065 248.781 604.25 243.825C605.435 238.869 609.575 232.901 609.575 232.901C609.575 232.901 610.568 240.094 609.383 245.049Z" fill="#F5F9FE"/>
<path d="M408.591 245.049C407.407 250.005 405.91 251.185 404.493 250.846C403.075 250.508 402.273 248.781 403.458 243.825C404.643 238.869 408.783 232.901 408.783 232.901C408.783 232.901 409.776 240.094 408.591 245.049Z" fill="#F5F9FE"/>
<path d="M313.718 516.363C312.533 521.319 311.036 522.498 309.619 522.16C308.202 521.822 307.4 520.094 308.585 515.139C309.769 510.183 313.909 504.214 313.909 504.214C313.909 504.214 314.903 511.408 313.718 516.363Z" fill="#F5F9FE"/>
<path d="M524.907 348.252C523.723 353.208 522.226 354.388 520.808 354.049C519.391 353.711 518.589 351.984 519.774 347.028C520.959 342.072 525.099 336.104 525.099 336.104C525.099 336.104 526.092 343.297 524.907 348.252Z" fill="#EEF7FF"/>
<path d="M117.475 152.881C116.29 157.836 114.794 159.016 113.376 158.678C111.959 158.34 111.157 156.612 112.342 151.656C113.527 146.701 117.667 140.732 117.667 140.732C117.667 140.732 118.66 147.925 117.475 152.881Z" fill="#EEF7FF"/>
<path d="M72.6373 324.237C71.4526 329.192 69.9559 330.372 68.5384 330.034C67.121 329.696 66.3194 327.968 67.5041 323.012C68.6889 318.057 72.8289 312.088 72.8289 312.088C72.8289 312.088 73.8221 319.281 72.6373 324.237Z" fill="#EEF7FF"/>
<path d="M146.707 369.149C145.522 374.104 144.025 375.284 142.608 374.946C141.19 374.608 140.389 372.88 141.573 367.924C142.758 362.969 146.898 357 146.898 357C146.898 357 147.891 364.193 146.707 369.149Z" fill="#EEF7FF"/>
<path d="M107.728 286.59C106.543 291.546 105.046 292.725 103.629 292.387C102.211 292.049 101.41 290.322 102.594 285.366C103.779 280.41 107.919 274.442 107.919 274.442C107.919 274.442 108.912 281.635 107.728 286.59Z" fill="#EEF7FF"/>
<path d="M189.604 224.279C188.419 229.235 186.923 230.414 185.505 230.076C184.088 229.738 183.286 228.01 184.471 223.055C185.656 218.099 189.796 212.13 189.796 212.13C189.796 212.13 190.789 219.323 189.604 224.279Z" fill="#EEF7FF"/>
<path d="M42.7457 438.474C41.561 443.429 40.0643 444.609 38.6469 444.271C37.2294 443.933 36.4278 442.205 37.6125 437.249C38.7973 432.294 42.9373 426.325 42.9373 426.325C42.9373 426.325 43.9305 433.518 42.7457 438.474Z" fill="#F5F9FE"/>
<path d="M158.707 430.149C157.522 435.104 156.025 436.284 154.608 435.946C153.19 435.608 152.389 433.88 153.573 428.924C154.758 423.969 158.898 418 158.898 418C158.898 418 159.891 425.193 158.707 430.149Z" fill="#F5F9FE"/>
<path d="M5.70666 462.49C4.52189 467.445 3.02527 468.625 1.60779 468.287C0.190302 467.949 -0.611275 466.221 0.573484 461.265C1.75824 456.31 5.8982 450.341 5.8982 450.341C5.8982 450.341 6.89143 457.534 5.70666 462.49Z" fill="#EEF7FF"/>
<path d="M388.447 418.353C387.262 423.308 385.766 424.488 384.348 424.15C382.931 423.811 382.129 422.084 383.314 417.128C384.498 412.173 388.638 406.204 388.638 406.204C388.638 406.204 389.632 413.397 388.447 418.353Z" fill="#F5F9FE"/>
<path d="M378.699 308.659C377.515 313.614 376.018 314.794 374.6 314.456C373.183 314.118 372.381 312.39 373.566 307.434C374.751 302.479 378.891 296.51 378.891 296.51C378.891 296.51 379.884 303.703 378.699 308.659Z" fill="#F5F9FE"/>
<path d="M573.644 429.387C572.459 434.342 570.962 435.522 569.545 435.184C568.127 434.846 567.326 433.118 568.51 428.162C569.695 423.207 573.835 417.238 573.835 417.238C573.835 417.238 574.828 424.431 573.644 429.387Z" fill="#F5F9FE"/>
<path d="M231.352 344.91C229.411 353.031 226.958 354.964 224.635 354.41C222.312 353.856 220.998 351.024 222.94 342.903C224.881 334.782 231.666 325 231.666 325C231.666 325 233.294 336.788 231.352 344.91Z" fill="#F5F9FE"/>
<path d="M444.279 471.009C442.337 479.131 439.885 481.064 437.562 480.509C435.239 479.955 433.925 477.124 435.867 469.003C437.808 460.881 444.593 451.1 444.593 451.1C444.593 451.1 446.221 462.888 444.279 471.009Z" fill="#F5F9FE"/>
<path d="M626.877 365.21C624.935 373.331 622.482 375.264 620.159 374.71C617.836 374.156 616.523 371.325 618.464 363.203C620.406 355.082 627.19 345.3 627.19 345.3C627.19 345.3 628.818 357.089 626.877 365.21Z" fill="#F5F9FE"/>
<path d="M633.426 439.772C632.242 444.728 630.745 445.907 629.327 445.569C627.91 445.231 627.108 443.503 628.293 438.548C629.478 433.592 633.618 427.624 633.618 427.624C633.618 427.624 634.611 434.817 633.426 439.772Z" fill="#EEF7FF"/>
<path d="M579.707 325.149C578.522 330.104 577.025 331.284 575.608 330.946C574.19 330.608 573.389 328.88 574.573 323.924C575.758 318.969 579.898 313 579.898 313C579.898 313 580.891 320.193 579.707 325.149Z" fill="#EEF7FF"/>
<path d="M372.201 156.775C371.016 161.731 369.519 162.91 368.102 162.572C366.684 162.234 365.883 160.506 367.068 155.551C368.252 150.595 372.392 144.627 372.392 144.627C372.392 144.627 373.386 151.82 372.201 156.775Z" fill="#EEF7FF"/>
<path d="M336.55 404.398C336.55 404.398 335.557 412.332 332.082 412.827C328.607 413.323 315.204 413.819 313.715 417.786C312.813 420.195 312.148 422.686 311.729 425.224L333.075 430.182L355.413 434.149L369.809 433.157C369.809 433.157 370.305 419.769 362.859 417.786C355.413 415.803 349.953 414.811 349.456 411.34C348.96 407.869 348.464 405.39 348.464 405.39L336.55 404.398Z" fill="#FBBEBE"/>
<path d="M341.012 408.142C350.474 408.142 358.144 400.481 358.144 391.029C358.144 381.578 350.474 373.917 341.012 373.917C331.55 373.917 323.88 381.578 323.88 391.029C323.88 400.481 331.55 408.142 341.012 408.142Z" fill="#25323F"/>
<path d="M302.298 454.478L284.428 483.733C284.428 483.733 269.039 496.625 275.989 498.608C282.939 500.592 289.888 485.716 289.888 485.716L311.73 460.924L302.298 454.478Z" fill="#FBBEBE"/>
<path d="M375.767 467.37L383.213 495.633C383.213 495.633 400.345 507 393.395 507C386.446 507 378.249 497.121 378.249 497.121L365.838 469.353L375.767 467.37Z" fill="#FBBEBE"/>
<path d="M312.226 515.467C312.226 515.467 311.73 547.697 309.248 550.176C306.766 552.655 305.277 586.869 305.773 593.81C306.269 600.752 304.78 606.206 304.78 607.198C304.78 608.19 312.723 608.686 312.723 608.686L324.14 530.343L312.226 515.467Z" fill="#FBBEBE"/>
<path d="M307.262 603.727L303.787 604.719C303.787 604.719 302.794 612.652 302.298 614.14C301.801 615.627 298.327 626.536 304.78 627.527C311.233 628.519 315.204 623.561 315.204 623.065C315.204 622.569 313.219 613.644 313.715 612.652C314.212 611.66 315.204 603.727 315.204 603.727L307.262 603.727Z" fill="#2F2E41"/>
<path d="M307.262 603.727L303.787 604.719C303.787 604.719 302.794 612.652 302.298 614.14C301.801 615.627 298.327 626.536 304.78 627.527C311.233 628.519 315.204 623.561 315.204 623.065C315.204 622.569 313.219 613.644 313.715 612.652C314.212 611.66 315.204 603.727 315.204 603.727L307.262 603.727Z" fill="#25323F"/>
<path d="M357.4 605.215L360.874 606.206C360.874 606.206 361.867 614.14 362.364 615.627C362.86 617.115 366.335 628.023 359.882 629.015C353.428 630.007 349.457 625.048 349.457 624.552C349.457 624.057 351.443 615.131 350.946 614.14C350.45 613.148 349.457 605.215 349.457 605.215L357.4 605.215Z" fill="#2F2E41"/>
<path d="M357.4 605.215L360.874 606.206C360.874 606.206 361.867 614.14 362.364 615.627C362.86 617.115 366.335 628.023 359.882 629.015C353.428 630.007 349.457 625.048 349.457 624.552C349.457 624.057 351.443 615.131 350.946 614.14C350.45 613.148 349.457 605.215 349.457 605.215L357.4 605.215Z" fill="#25323F"/>
<path d="M343.5 408.861C350.079 408.861 355.413 403.533 355.413 396.961C355.413 390.389 350.079 385.061 343.5 385.061C336.92 385.061 331.586 390.389 331.586 396.961C331.586 403.533 336.92 408.861 343.5 408.861Z" fill="#FBBEBE"/>
<path d="M322.651 456.957L320.666 466.874C320.666 466.874 307.263 485.716 309.745 509.021C312.227 532.326 311.73 556.622 312.227 563.068C312.723 569.514 315.205 597.777 310.738 607.694C306.27 617.61 312.227 618.106 312.723 618.106C313.22 618.106 314.709 615.627 318.184 619.594C321.658 623.561 331.587 620.585 331.587 620.585C331.587 620.585 349.954 624.552 356.903 621.081C363.853 617.61 378.249 612.156 377.256 608.685C376.263 605.214 366.335 588.356 369.313 578.439C372.292 568.522 365.342 471.833 357.4 467.866L355.414 458.445L322.651 456.957Z" fill="#25323F"/>
<path d="M341.012 393.39C347.537 393.39 352.827 390.219 352.827 386.308C352.827 382.398 347.537 379.227 341.012 379.227C334.487 379.227 329.197 382.398 329.197 386.308C329.197 390.219 334.487 393.39 341.012 393.39Z" fill="#25323F"/>
<path d="M342.194 380.997C346.109 380.997 349.283 377.827 349.283 373.916C349.283 370.006 346.109 366.835 342.194 366.835C338.278 366.835 335.104 370.006 335.104 373.916C335.104 377.827 338.278 380.997 342.194 380.997Z" fill="#25323F"/>
<path d="M332.741 370.081C332.741 368.331 333.39 366.643 334.563 365.342C335.736 364.041 337.349 363.221 339.092 363.038C338.846 363.013 338.6 363 338.353 363C336.473 363 334.67 363.746 333.341 365.074C332.011 366.402 331.264 368.203 331.264 370.081C331.264 371.959 332.011 373.76 333.341 375.088C334.67 376.416 336.473 377.162 338.353 377.162C338.6 377.162 338.846 377.149 339.092 377.124C337.349 376.941 335.736 376.121 334.563 374.82C333.39 373.52 332.741 371.831 332.741 370.081Z" fill="#25323F"/>
<path d="M310.737 423.24L311.73 425.224C311.73 425.224 311.234 426.711 310.737 427.207C310.241 427.703 293.363 444.561 298.327 448.032C303.291 451.503 304.781 451.503 304.781 451.503C304.781 451.503 299.817 454.974 300.809 455.47C301.802 455.966 311.73 463.899 312.723 462.412C313.716 460.924 314.212 457.453 314.212 457.453C314.212 457.453 316.198 460.428 318.184 459.437C320.169 458.445 320.169 456.957 320.169 456.957L321.658 458.941L355.414 460.428C355.414 460.428 357.896 461.916 357.896 459.932C357.896 457.949 359.385 467.37 363.853 467.37C363.853 467.37 364.349 472.329 365.839 472.329C367.328 472.329 378.745 468.362 377.752 467.37C376.759 466.378 376.263 462.908 376.263 462.908C376.263 462.908 384.702 458.445 376.263 449.024C376.263 449.024 374.774 440.099 369.81 438.115C369.81 438.115 369.313 436.628 369.81 436.132C369.925 436.045 370.019 435.933 370.084 435.804C370.148 435.675 370.182 435.533 370.182 435.388C370.182 435.244 370.148 435.102 370.084 434.973C370.019 434.843 369.925 434.731 369.81 434.645C369.313 434.149 370.803 434.149 370.803 432.661C370.803 431.174 368.321 430.678 368.321 430.678C368.321 430.678 341.515 418.778 321.162 421.257L310.737 423.24Z" fill="#FF6584"/>
<path d="M220.178 386.828C220.178 386.828 217.107 381.277 213.333 383.958C209.559 386.64 214.621 389.895 214.621 389.895L220.307 387.422" fill="#465C72"/>
<path d="M180.018 471.35L180.682 483.016C180.682 483.016 194.669 470.044 211.202 474.546C211.202 474.546 233.699 449.166 254.938 449.542C254.938 449.542 260.713 430.266 294.879 418.521C294.879 418.521 297.554 399.296 314.018 392.003L302.705 385.75L282.447 387.026L254.948 397.95L221.238 423.271L182.772 449.621L180.018 471.35Z" fill="#0E8AFD"/>
<path opacity="0.1" d="M180.018 471.35L180.682 483.016C180.682 483.016 194.669 470.044 211.202 474.546C211.202 474.546 233.699 449.166 254.938 449.542C254.938 449.542 260.713 430.266 294.879 418.521C294.879 418.521 297.554 399.296 314.018 392.003L302.705 385.75L282.447 387.026L254.948 397.95L221.238 423.271L182.772 449.621L180.018 471.35Z" fill="#333333"/>
<path d="M235.473 425.785L279.891 495.731C279.891 495.731 287.351 507.17 295.701 499.769C300.722 495.319 299.523 490.193 297.768 486.812C295.894 483.201 290.386 485.376 291.542 489.276C291.561 489.339 291.58 489.403 291.6 489.468C291.6 489.468 291.924 497.821 286.296 493.766C285.008 492.819 283.919 491.626 283.093 490.258L241.753 423.182L235.473 425.785Z" fill="#465C72"/>
<path opacity="0.1" d="M203.496 447.622C203.496 447.622 205.755 469.51 211.203 474.546L203.496 447.622Z" fill="#333333"/>
<path opacity="0.1" d="M273.81 398.841C273.81 398.841 291.68 412.377 294.88 418.522L273.81 398.841Z" fill="#333333"/>
<path d="M216.25 387.368C216.25 387.368 210.148 393.661 205.056 396.006C205.056 396.006 164.491 432.755 180.915 482.655C180.915 482.655 184.808 457.571 201.034 457.789C201.034 457.789 210.326 434.645 241.956 428.421C241.956 428.421 251.764 407.652 285.642 400.32C285.642 400.32 293.379 384.35 314.251 391.643C314.251 391.643 287.762 361.325 230.079 379.402C230.079 379.402 219.816 386.596 216.25 387.368Z" fill="#0E8AFD"/>
<path opacity="0.1" d="M204.823 396.367C204.823 396.367 188.835 425.932 200.801 458.15L204.823 396.367Z" fill="#333333"/>
<path opacity="0.1" d="M241.724 428.783C229.575 416.012 221.069 402.311 216.018 387.729L241.724 428.783Z" fill="#333333"/>
<path opacity="0.1" d="M285.41 400.681C285.41 400.681 263.95 376.337 229.934 380.168L285.41 400.681Z" fill="#333333"/>
</svg>
