<svg width="660" height="777" viewBox="0 0 660 777" fill="none" xmlns="http://www.w3.org/2000/svg">
<path d="M270.756 597.191C385.907 597.191 479.256 593.857 479.256 589.743C479.256 585.63 385.907 582.296 270.756 582.296C155.605 582.296 62.2568 585.63 62.2568 589.743C62.2568 593.857 155.605 597.191 270.756 597.191Z" fill="#EEF7FF"/>
<path d="M352.666 237.006C376.594 237.006 395.991 217.606 395.991 193.675C395.991 169.745 376.594 150.345 352.666 150.345C328.739 150.345 309.342 169.745 309.342 193.675C309.342 217.606 328.739 237.006 352.666 237.006Z" fill="#FF6584"/>
<path d="M222.216 400.213C222.216 483.902 172.472 513.123 111.108 513.123C49.7449 513.123 0 483.902 0 400.213C0 316.524 111.108 210.059 111.108 210.059C111.108 210.059 222.216 316.524 222.216 400.213Z" fill="#F5F9FE"/>
<path d="M107.449 473.887L108.198 444.683L155.555 365.873L108.377 434.689L108.888 406.046L141.527 349.028L109.024 398.466L109.944 346.949L133.64 316.646L109.944 344.125L110.663 276.624L107.051 369.437L78.7827 329.45L106.778 374.182L103.467 431.717L103.368 430.19L62.4043 378.123L103.244 435.584L102.83 442.78L102.756 442.888L102.79 443.479L94.39 589.45H105.613L107.347 479.555L140.553 443.479L107.449 473.887Z" fill="#465C72"/>
<path d="M559.027 368.78C559.027 466.37 501.019 500.445 429.463 500.445C357.907 500.445 299.899 466.37 299.899 368.78C299.899 271.19 429.463 147.04 429.463 147.04C429.463 147.04 559.027 271.19 559.027 368.78Z" fill="#F5F9FE"/>
<path d="M425.196 454.692L426.07 420.636L481.293 328.736L426.278 408.983L426.874 375.582L464.935 309.093L427.032 366.742L428.106 306.669L455.738 271.332L428.106 303.376L428.944 224.663L424.732 332.892L391.768 286.263L424.414 338.425L420.553 405.516L420.438 403.736L372.669 343.021L420.293 410.027L419.81 418.417L419.724 418.544L419.764 419.232L409.968 589.45H423.055L425.078 461.301L463.799 419.232L425.196 454.692Z" fill="#465C72"/>
<path d="M240.243 563.959C244.357 579.423 258.45 589 258.45 589C258.45 589 265.872 573.505 261.757 558.041C257.643 542.577 243.55 533 243.55 533C243.55 533 236.128 548.495 240.243 563.959Z" fill="#8597A8"/>
<path d="M246.295 560.974C257.617 572.02 259 589 259 589C259 589 242.027 588.071 230.705 577.026C219.383 565.98 218 549 218 549C218 549 234.973 549.929 246.295 560.974Z" fill="#F5F9FE"/>
<path d="M282.941 360.904H258.571V589.744H282.941V360.904Z" fill="#BBCFE2"/>
<path d="M382.452 413.036H232.847V371.06H382.452L425.777 392.048L382.452 413.036Z" fill="#FF6584"/>
<path opacity="0.1" d="M382.452 409.651H232.847V413.036H382.452L425.777 392.048L422.283 390.355L382.452 409.651Z" fill="#333333"/>
<path d="M159.737 468.554H309.342V426.577H159.737L116.413 447.565L159.737 468.554Z" fill="#8597A8"/>
<path opacity="0.1" d="M119.906 445.873L116.413 447.565L159.737 468.553H309.342V465.168H159.737L119.906 445.873Z" fill="#333333"/>
<path d="M342.513 379.184H316.789V404.912H342.513V379.184Z" fill="white"/>
<path d="M213.215 460.429C220.319 460.429 226.077 454.67 226.077 447.565C226.077 440.461 220.319 434.701 213.215 434.701C206.112 434.701 200.354 440.461 200.354 447.565C200.354 454.67 206.112 460.429 213.215 460.429Z" fill="white"/>
<path opacity="0.2" d="M270.756 398.141C274.869 398.141 278.202 394.807 278.202 390.694C278.202 386.581 274.869 383.246 270.756 383.246C266.643 383.246 263.31 386.581 263.31 390.694C263.31 394.807 266.643 398.141 270.756 398.141Z" fill="#25323F"/>
<path opacity="0.2" d="M270.756 453.659C274.869 453.659 278.202 450.324 278.202 446.211C278.202 442.098 274.869 438.764 270.756 438.764C266.643 438.764 263.31 442.098 263.31 446.211C263.31 450.324 266.643 453.659 270.756 453.659Z" fill="#25323F"/>
<path d="M525.929 278.446C514.34 278.446 504.946 269.051 504.946 257.46C504.946 245.87 514.34 236.474 525.929 236.474C537.518 236.474 546.912 245.87 546.912 257.46C546.912 269.051 537.518 278.446 525.929 278.446Z" fill="#25323F"/>
<path d="M589.838 510.116L576.947 465.4L572.558 466.772C572.558 466.772 577.77 500.24 585.998 508.744L589.838 510.116Z" fill="#25323F"/>
<path d="M540.741 270.08C540.741 270.08 539.095 287.636 542.935 292.574C546.775 297.512 540.467 307.114 540.467 307.114L528.947 320.83L511.941 313.149L509.472 298.884L511.118 289.008C511.118 289.008 516.878 283.247 514.409 272.823C511.941 262.398 540.741 270.08 540.741 270.08Z" fill="#FFB9B9"/>
<path d="M540.741 270.08C540.741 270.08 539.095 287.636 542.935 292.574C546.775 297.512 540.467 307.114 540.467 307.114L528.947 320.83L511.941 313.149L509.472 298.884L511.118 289.008C511.118 289.008 516.878 283.247 514.409 272.823C511.941 262.398 540.741 270.08 540.741 270.08Z" fill="#F3AEAE"/>
<path d="M530.866 598.449V609.696L515.781 612.714L517.152 594.06L530.866 598.449Z" fill="#FBBEBE"/>
<path d="M485.608 594.06L488.9 609.696L482.317 614.36L470.797 605.856L472.168 592.414L485.608 594.06Z" fill="#FBBEBE"/>
<path d="M514.409 611.342C514.409 611.342 520.169 601.605 530.866 607.708C530.866 607.708 532.786 618.475 534.706 619.298C536.626 620.121 547.324 635.757 534.706 637.129C522.089 638.501 515.78 634.386 515.78 634.386C515.78 634.386 518.249 636.51 514.409 635.413C510.569 634.315 512.215 628.28 512.215 628.28L514.409 611.342Z" fill="#25323F"/>
<path d="M476.832 604.758C476.832 604.758 485.334 610.794 486.706 608.05C488.077 605.307 490.272 605.581 490.272 605.581C490.272 605.581 497.952 634.537 493.015 635.909C489.835 636.691 486.496 636.519 483.414 635.413C483.414 635.413 476.832 630.802 476.832 634.368C476.832 637.934 458.454 637.678 450.774 637.403C443.094 637.129 447.208 631.368 447.208 631.368L457.357 621.492L468.877 604.758C468.877 604.758 474.089 600.095 476.832 604.758Z" fill="#25323F"/>
<path d="M557.747 421.234L546.226 531.787C546.226 531.787 539.918 599.272 538.821 600.369C537.724 601.466 530.592 605.033 514.958 600.369L518.523 512.036L511.94 457.17L496.854 495.028C496.854 495.028 493.289 596.803 490.82 596.803C488.351 596.803 473.266 601.741 469.7 595.706C466.134 589.67 466.683 524.655 466.683 524.655C466.683 524.655 468.328 422.057 480.397 418.765C492.466 415.473 557.747 421.234 557.747 421.234Z" fill="#25323F"/>
<path d="M525.929 280.229C515.476 280.229 507.003 271.755 507.003 261.301C507.003 250.847 515.476 242.372 525.929 242.372C536.382 242.372 544.855 250.847 544.855 261.301C544.855 271.755 536.382 280.229 525.929 280.229Z" fill="#FBBEBE"/>
<path d="M524.832 313.972C524.832 313.972 526.752 302.176 526.752 299.981C526.752 297.787 535.255 296.415 535.255 296.415C535.255 296.415 541.838 289.008 543.21 290.105C544.581 291.203 565.427 305.193 568.719 307.114C572.01 309.034 575.576 317.264 575.302 317.812C575.027 318.361 558.021 354.024 558.021 354.024C558.021 354.024 550.616 375.97 555.827 387.492C561.038 399.013 567.621 421.782 558.021 426.446C548.421 431.109 501.792 441.26 493.289 432.481C484.786 423.703 478.752 421.234 476.557 421.234C474.363 421.234 485.609 383.102 483.14 379.536C480.672 375.97 484.238 353.749 484.238 353.749L471.62 318.361C471.62 318.361 472.717 298.61 497.678 294.22L512.61 286.979L524.832 313.972Z" fill="#465C72"/>
<path opacity="0.1" d="M559.435 317.79C557.7 324.903 557.338 330.983 556.086 335.393C553.83 343.341 551.228 353.067 551.027 364.666C550.817 376.832 552.605 388.947 556.086 396.668" fill="#333333"/>
<path opacity="0.1" d="M486.237 316.613C487.972 323.725 484.956 327.161 486.237 332.802C488.331 342.019 490.023 346.812 490.587 356.005C492.094 380.569 484.984 399.469 477.005 416.786" fill="#333333"/>
<path d="M576.124 426.172C576.124 426.172 577.496 439.339 577.496 443.18C577.496 447.02 584.079 469.515 574.478 472.259C564.878 475.002 565.701 442.357 565.701 442.357V425.623L576.124 426.172Z" fill="#FBBEBE"/>
<path d="M462.294 413.827C462.294 413.827 460.648 426.446 461.471 429.189C462.294 431.933 453.517 455.799 465.311 457.171C477.106 458.542 474.088 428.641 474.088 428.641V413.827L462.294 413.827Z" fill="#FBBEBE"/>
<path d="M578.593 505.726L570.638 463.48H568.17C566.444 465.705 565.312 468.333 564.88 471.116C564.448 473.9 564.731 476.747 565.701 479.391C568.993 488.718 571.736 505.726 571.736 505.726H578.593Z" fill="#25323F"/>
<path d="M571.187 314.52L575.301 317.812C575.301 317.812 580.787 405.048 579.416 411.632C578.044 418.216 584.353 427.543 578.867 428.366C573.381 429.189 566.798 432.755 563.781 430.561C560.764 428.366 560.215 420.411 559.118 418.49C558.021 416.57 556.101 393.801 556.101 393.801C556.101 393.801 550.341 371.032 553.907 354.023C557.473 337.015 560.764 319.733 560.764 319.733L571.187 314.52Z" fill="#465C72"/>
<path d="M484.237 307.662L471.62 318.361L462.02 374.324C462.02 374.324 455.985 417.942 460.648 418.491C465.311 419.039 472.443 417.668 475.46 418.491C478.477 419.314 480.946 417.119 480.946 417.119C480.946 417.119 484.237 399.562 484.237 399.288C484.237 399.013 486.431 378.987 486.431 378.987L489.174 356.493L485.06 331.803L484.237 307.662Z" fill="#465C72"/>
<path d="M543.758 566.627C543.758 566.627 545.541 571.749 547.998 578.722C549.139 581.965 550.426 585.611 551.751 589.328C552.604 591.731 553.47 594.164 554.323 596.54C555.684 600.339 557.006 603.988 558.161 607.12C559.686 611.255 560.923 614.494 561.587 616.006C564.604 622.864 619.736 611.891 624.124 609.148C628.513 606.404 629.61 597.077 630.159 583.91C630.162 583.841 630.164 583.772 630.164 583.704C630.236 581.046 629.558 577.087 628.425 572.443C627.86 570.122 627.18 567.631 626.423 565.044C625.408 561.574 624.256 557.936 623.052 554.315C617.879 538.761 611.781 523.558 611.781 523.558C611.781 523.558 601.084 516.151 597.244 511.213C593.404 506.275 572.284 502.434 572.284 502.434C566.249 502.709 552.535 526.027 547.049 533.159C541.563 540.292 543.758 566.627 543.758 566.627Z" fill="#8597A8"/>
<path d="M574.479 524.929C573.115 524.929 572.01 523.824 572.01 522.46C572.01 521.097 573.115 519.992 574.479 519.992C575.842 519.992 576.947 521.097 576.947 522.46C576.947 523.824 575.842 524.929 574.479 524.929Z" fill="#2F2E41"/>
<path d="M570.638 526.575C569.881 526.575 569.267 525.961 569.267 525.204C569.267 524.446 569.881 523.832 570.638 523.832C571.396 523.832 572.01 524.446 572.01 525.204C572.01 525.961 571.396 526.575 570.638 526.575Z" fill="#2F2E41"/>
<path d="M547.998 578.722C549.139 581.965 550.426 585.611 551.75 589.328L626.423 565.044C625.408 561.574 624.256 557.936 623.052 554.315L547.998 578.722Z" fill="#EEF7FF"/>
<path d="M554.323 596.54C555.684 600.339 557.006 603.988 558.161 607.121L630.164 583.704C630.236 581.046 629.558 577.087 628.425 572.443L554.323 596.54Z" fill="#EEF7FF"/>
<path fill-rule="evenodd" clip-rule="evenodd" d="M575.941 523.341C575.941 523.341 575.941 523.342 574.478 523.009C573.015 522.677 573.015 522.677 573.015 522.678L573.014 522.683L573.011 522.698L572.998 522.754C572.987 522.803 572.972 522.875 572.951 522.968C572.911 523.156 572.852 523.431 572.779 523.788C572.633 524.501 572.43 525.54 572.196 526.852C571.728 529.476 571.14 533.196 570.656 537.59C569.689 546.361 569.127 557.892 570.801 568.776C572.399 579.159 570.405 589.265 567.976 596.824C566.764 600.595 565.451 603.708 564.444 605.875C563.94 606.958 563.514 607.802 563.215 608.373C563.066 608.658 562.948 608.874 562.87 609.018C562.83 609.089 562.8 609.143 562.781 609.177L562.76 609.214L562.755 609.222L562.755 609.223C562.755 609.223 562.755 609.223 564.055 609.971C565.355 610.719 565.356 610.718 565.356 610.718L565.359 610.712L565.367 610.698L565.395 610.649C565.419 610.606 565.454 610.544 565.498 610.464C565.586 610.303 565.713 610.069 565.873 609.764C566.191 609.156 566.639 608.269 567.164 607.14C568.213 604.883 569.575 601.653 570.832 597.742C573.34 589.939 575.461 579.333 573.766 568.319C572.149 557.805 572.684 546.568 573.638 537.919C574.113 533.603 574.691 529.95 575.149 527.379C575.378 526.093 575.577 525.079 575.718 524.389C575.789 524.044 575.845 523.779 575.883 523.603C575.903 523.514 575.917 523.448 575.927 523.404L575.938 523.355L575.94 523.344L575.941 523.341Z" fill="#25323F"/>
<path fill-rule="evenodd" clip-rule="evenodd" d="M572.085 524.532C572.085 524.532 572.085 524.532 570.638 524.929C569.192 525.326 569.192 525.327 569.192 525.327L569.312 525.764C569.39 526.05 569.505 526.471 569.651 527.008C569.944 528.083 570.363 529.624 570.866 531.492C571.872 535.227 573.217 540.263 574.569 545.469C575.923 550.678 577.282 556.048 578.32 560.455C578.839 562.66 579.275 564.613 579.589 566.18C579.91 567.78 580.084 568.886 580.112 569.445C580.253 572.266 581.428 583.505 583.25 594.544C584.162 600.067 585.243 605.587 586.45 610.002C587.053 612.207 587.698 614.176 588.384 615.747C589.041 617.25 589.837 618.634 590.859 619.4L592.659 617.001C592.308 616.738 591.767 615.996 591.133 614.545C590.529 613.162 589.928 611.348 589.344 609.211C588.177 604.942 587.115 599.539 586.21 594.055C584.398 583.079 583.241 571.961 583.108 569.295C583.067 568.483 582.847 567.171 582.53 565.591C582.207 563.977 581.762 561.987 581.24 559.768C580.195 555.328 578.828 549.931 577.473 544.715C576.117 539.497 574.77 534.452 573.762 530.711C573.258 528.841 572.839 527.297 572.546 526.22C572.399 525.681 572.284 525.259 572.205 524.972L572.085 524.532Z" fill="#25323F"/>
<path d="M540.459 249.75C540.459 249.75 544.743 238.61 538.531 234.968L536.818 239.896C536.818 239.896 521.181 230.47 517.111 232.612L520.967 237.753C520.967 237.753 502.76 237.753 501.475 244.823L507.901 245.037C507.901 245.037 501.046 249.536 500.832 256.82L514.541 257.677L507.901 261.533C507.901 261.533 532.748 264.961 538.746 255.106L540.459 249.75Z" fill="#25323F"/>
<path d="M544.169 250.191C544.169 250.191 539.232 260.067 532.649 257.598C526.066 255.129 532.649 246.076 532.649 246.076L537.038 243.881L544.169 250.191Z" fill="#2F2E41"/>
</svg>
