<svg width="630" height="494" fill="none" xmlns="http://www.w3.org/2000/svg"><path d="M153.81 330.203l51.718-83.974-115.824-76.044-59.814 97.12 95.8 62.898h28.12z" fill="#fff"/><path d="M227.098 356.399H98.991v-26.626h128.107v26.626zm-126.443-1.718h124.779v-23.19H100.655v23.19z" fill="#465C72"/><path d="M211.291 351.675c4.595 0 8.319-3.845 8.319-8.589s-3.724-8.589-8.319-8.589c-4.594 0-8.318 3.845-8.318 8.589s3.724 8.589 8.318 8.589zM188.002 351.675c4.594 0 8.319-3.845 8.319-8.589s-3.725-8.589-8.319-8.589c-4.594 0-8.318 3.845-8.318 8.589s3.724 8.589 8.318 8.589zM164.709 351.675c4.594 0 8.318-3.845 8.318-8.589 0-4.743-3.724-8.589-8.318-8.589-4.594 0-8.319 3.846-8.319 8.589 0 4.744 3.725 8.589 8.319 8.589zM141.417 351.675c4.594 0 8.318-3.845 8.318-8.589 0-4.743-3.724-8.589-8.318-8.589-4.594 0-8.319 3.846-8.319 8.589 0 4.744 3.725 8.589 8.319 8.589zM118.123 351.675c4.595 0 8.319-3.845 8.319-8.589s-3.724-8.589-8.319-8.589c-4.594 0-8.318 3.845-8.318 8.589s3.724 8.589 8.318 8.589z" fill="#0E8AFD"/><path d="M379.44 74.012V24.234h31.4V0H257.145v121.826H388.53v-11.912c0-2.22.551-4.419 1.623-6.47s2.644-3.915 4.624-5.485c1.981-1.57 4.333-2.816 6.921-3.665a26.252 26.252 0 018.163-1.287h.979V74.012h-31.4z" fill="#fff"/><path d="M550.694 375.725H447.543v22.331h103.151v-22.331z" fill="#FF6584"/><path d="M573.153 265.785H421.754v20.614h151.399v-20.614z" fill="#fff"/><path d="M599.095 493.394H409.954c-5.914-.007-11.584-2.436-15.766-6.754-4.181-4.317-6.533-10.171-6.54-16.277V107.588c.006-6.106 2.359-11.96 6.54-16.277 4.182-4.318 9.852-6.747 15.766-6.754h189.141c5.914.007 11.584 2.436 15.765 6.754 4.182 4.317 6.534 10.171 6.541 16.277v362.775c-.007 6.106-2.359 11.96-6.541 16.277-4.182 4.318-9.851 6.747-15.765 6.754zM409.954 86.275c-5.473.007-10.72 2.254-14.59 6.25-3.87 3.995-6.046 9.413-6.053 15.063v362.775c.007 5.65 2.183 11.068 6.053 15.063 3.87 3.996 9.117 6.243 14.59 6.25h189.141c5.473-.007 10.72-2.254 14.589-6.25 3.87-3.995 6.047-9.413 6.053-15.063V107.588c-.006-5.65-2.183-11.068-6.053-15.063-3.869-3.996-9.116-6.243-14.589-6.25H409.954z" fill="#465C72"/><path d="M482.065 101.736a4.884 4.884 0 01-2.773-.869 5.126 5.126 0 01-1.838-2.313 5.312 5.312 0 01-.284-2.977 5.21 5.21 0 011.366-2.639 4.943 4.943 0 012.556-1.41 4.843 4.843 0 012.883.293 5.027 5.027 0 012.24 1.898 5.27 5.27 0 01.842 2.863 5.249 5.249 0 01-1.464 3.643 4.92 4.92 0 01-3.528 1.511zm0-8.59c-.658 0-1.301.202-1.848.58a3.418 3.418 0 00-1.226 1.541 3.533 3.533 0 00-.189 1.985c.128.667.445 1.279.911 1.76.465.48 1.058.807 1.703.94a3.235 3.235 0 001.923-.196c.608-.26 1.127-.7 1.493-1.265.366-.565.561-1.23.561-1.909a3.496 3.496 0 00-.976-2.428 3.278 3.278 0 00-2.352-1.007zM531.144 95.723h-36.602v1.718h36.602v-1.718z" fill="#3F3D56"/><path d="M606.427 109.466v68.712c-17.649-.001-34.576-7.241-47.056-20.127-12.48-12.885-19.492-30.362-19.493-48.585h66.549z" fill="#0E8AFD"/><path d="M607.26 470.204H401.79V108.607h205.47v361.597zm-203.807-1.718h202.143V110.324H403.453v358.162z" fill="#465C72"/><path opacity=".1" d="M558.18 173.883c12.404 0 22.46-10.383 22.46-23.19 0-12.808-10.056-23.191-22.46-23.191-12.405 0-22.461 10.383-22.461 23.191 0 12.807 10.056 23.19 22.461 23.19z" fill="#333"/><path d="M554.851 176.46c12.405 0 22.46-10.383 22.46-23.191 0-12.807-10.055-23.19-22.46-23.19-12.405 0-22.46 10.383-22.46 23.19 0 12.808 10.055 23.191 22.46 23.191zM442.552 123.208h-31.611v12.025h31.611v-12.025zM460.021 237.441H428.41v12.025h31.611v-12.025z" fill="#F5F9FE"/><path d="M581.473 282.104H428.41v-22.332h153.063v22.332zm-151.399-1.718h149.735V261.49H430.074v18.896z" fill="#8597A8"/><path d="M573.153 331.062H421.754v20.613h151.399v-20.613z" fill="#fff"/><path d="M460.021 302.718H428.41v12.024h31.611v-12.024z" fill="#F5F9FE"/><path d="M581.473 347.38H428.41v-22.331h153.063v22.331zm-151.399-1.718h149.735v-18.895H430.074v18.895z" fill="#8597A8"/><path d="M557.346 392.903H452.531v-24.049h104.815v24.049zm-103.151-1.718h101.487v-20.614H454.195v20.614z" fill="#465C72"/><path d="M577.312 273.515a8.78 8.78 0 01-1.514 4.94 8.35 8.35 0 01-3.989 3.142 8.072 8.072 0 01-5.015.202 8.298 8.298 0 01-4.214-2.812l-.008-.009a8.704 8.704 0 01-1.661-3.418 8.852 8.852 0 01-.059-3.823 8.723 8.723 0 011.554-3.471 8.386 8.386 0 012.859-2.43 8.11 8.11 0 013.597-.909 8.115 8.115 0 013.623.794 8.37 8.37 0 012.93 2.339 8.696 8.696 0 011.657 3.423l.001.003.003.002h.003c.154.664.232 1.345.233 2.027z" fill="#0E8AFD"/><path opacity=".1" d="M577.312 273.515a8.78 8.78 0 01-1.513 4.94 8.358 8.358 0 01-3.99 3.142 8.072 8.072 0 01-5.015.202 8.3 8.3 0 01-4.214-2.813l-.008-.008a9.03 9.03 0 01-.233-2.027c0-1.768.529-3.493 1.514-4.94a8.353 8.353 0 013.99-3.142 8.068 8.068 0 015.014-.202 8.306 8.306 0 014.217 2.819l.002.002h.003c.154.664.232 1.345.233 2.027z" fill="#333"/><path d="M572.322 287.258c4.595 0 8.319-3.845 8.319-8.589 0-4.743-3.724-8.589-8.319-8.589-4.594 0-8.318 3.846-8.318 8.589 0 4.744 3.724 8.589 8.318 8.589zM577.312 338.792a8.785 8.785 0 01-1.514 4.94 8.356 8.356 0 01-3.989 3.142 8.079 8.079 0 01-5.015.202 8.306 8.306 0 01-4.214-2.813l-.008-.008a8.711 8.711 0 01-1.661-3.418 8.852 8.852 0 01-.059-3.823 8.717 8.717 0 011.554-3.471 8.378 8.378 0 012.859-2.431 8.11 8.11 0 013.597-.908 8.102 8.102 0 013.623.794 8.356 8.356 0 012.93 2.338 8.696 8.696 0 011.657 3.424l.001.003.003.001.003.001a9.03 9.03 0 01.233 2.027z" fill="#0E8AFD"/><path opacity=".1" d="M577.312 338.792a8.778 8.778 0 01-1.513 4.939 8.36 8.36 0 01-3.99 3.143 8.071 8.071 0 01-5.015.201 8.298 8.298 0 01-4.214-2.812l-.008-.009a9.03 9.03 0 01-.233-2.027 8.78 8.78 0 011.514-4.939 8.355 8.355 0 013.99-3.143 8.068 8.068 0 015.014-.201 8.298 8.298 0 014.219 2.82l.003.001a9.03 9.03 0 01.233 2.027z" fill="#333"/><path d="M572.322 352.534c4.595 0 8.319-3.846 8.319-8.589 0-4.744-3.724-8.59-8.319-8.59-4.594 0-8.318 3.846-8.318 8.59 0 4.743 3.724 8.589 8.318 8.589z" fill="#0E8AFD"/><path d="M431.532 30.456h-41.38v36.548h41.38V30.456z" fill="#fff"/><path d="M558.178 37.318a9.758 9.758 0 01-5.546-1.737 10.245 10.245 0 01-3.677-4.626 10.625 10.625 0 01-.568-5.955c.385-2 1.336-3.836 2.732-5.277a9.89 9.89 0 015.111-2.82 9.692 9.692 0 015.768.586 10.06 10.06 0 014.48 3.796 10.545 10.545 0 011.682 5.726c-.003 2.733-1.055 5.352-2.927 7.284-1.871 1.933-4.409 3.02-7.055 3.023zm0-18.896a8.133 8.133 0 00-4.622 1.447 8.539 8.539 0 00-3.064 3.855 8.854 8.854 0 00-.473 4.962 8.675 8.675 0 002.277 4.398 8.237 8.237 0 004.259 2.35 8.074 8.074 0 004.806-.488 8.382 8.382 0 003.733-3.163 8.781 8.781 0 001.402-4.772 8.738 8.738 0 00-2.439-6.07 8.197 8.197 0 00-5.879-2.52zM338.566 180.754h-21.628v-22.331h21.628v22.331zm-19.965-1.718h18.301v-18.895h-18.301v18.895z" fill="#BBCFE2"/><path d="M241.242 197.645l3.712 2.064 12.629 7.028 20.389 11.343 11.882-22.762a18.932 18.932 0 002.059-6.903c.24-2.418.016-4.861-.66-7.19a18.686 18.686 0 00-3.277-6.381 18.056 18.056 0 00-5.395-4.597 23.15 23.15 0 00-14.499-2.726c-4.99.699-9.637 3.016-13.27 6.616l-.006.007a24.525 24.525 0 00-4.472 6.076l-9.092 17.425z" fill="#25323F"/><path d="M296.892 429.781l-2.491 28.291-9.342 1.286-6.227-32.149 18.06 2.572z" fill="#FBBEBE"/><path d="M282.57 459.359s11.833-6.43 14.324-1.286c0 0-1.869 15.432 5.604 17.361 7.474 1.929 10.587 15.431 0 16.717-10.586 1.286-17.437-2.572-21.173-2.572-3.737 0 0-13.502 0-13.502l1.245-16.718z" fill="#25323F"/><path d="M221.538 429.781l2.492 28.291 9.341 1.286 6.227-32.149-18.06 2.572z" fill="#FBBEBE"/><path d="M235.86 459.359s-11.833-6.43-14.324-1.286c0 0 1.869 15.432-5.605 17.361-7.473 1.929-10.586 15.431 0 16.717 10.587 1.286 17.438-2.572 21.174-2.572 3.737 0 0-13.502 0-13.502l-1.245-16.718z" fill="#25323F"/><path d="M272.606 202.802c8.942 0 16.191-7.485 16.191-16.718s-7.249-16.718-16.191-16.718c-8.943 0-16.192 7.485-16.192 16.718s7.249 16.718 16.192 16.718z" fill="#FBBEBE"/><path d="M220.914 218.878l13.078 21.219 15.569-1.286 25.533 1.929s2.41-4.977 4.378-9.819a38.912 38.912 0 002.472-7.542c.623-4.501-8.096-9.002-8.096-9.002s-.342-.064-.915-.206a34.808 34.808 0 01-3.214-.945c-2.895-1.016-6.377-2.739-7.08-5.279-1.246-4.501 8.096-10.931 8.096-10.931l-11.21-10.931s-9.958 14.281-22.052 17.534c-.701.192-1.412.342-2.13.451l-.106.019c-13.077 1.929-14.323 14.789-14.323 14.789z" fill="#FBBEBE"/><path d="M227.766 213.09l-6.851 5.787s-5.605 27.649-3.736 35.365c1.868 7.716-.623 14.789-.623 16.075 0 1.286-5.605 49.511-5.605 49.511s-11.21 25.72.623 23.148c11.832-2.572 7.473-28.292 7.473-28.292l14.323-45.01v-37.937l-5.604-18.647zM276.963 218.234l4.982 3.858 2.491 54.012 18.683 46.296s13.701 22.505 4.982 23.148c-8.718.643-14.323-23.148-14.323-23.148l-16.815-44.367-2.491-43.081 2.491-16.718z" fill="#FBBEBE"/><path d="M245.827 222.092s12.455 9.002 32.383 5.787c0 0 5.605 11.574 2.491 18.004-3.114 6.43 3.737 21.862 4.982 23.791 1.246 1.929 15.569 41.794 20.551 84.875 4.982 43.081 18.683 72.659 6.85 76.517-11.832 3.858-36.119 8.359-38.61 4.501-2.492-3.858-6.228-99.665-6.228-99.665l-6.85 36.651s9.341 62.371 2.491 63.657c-6.851 1.286-49.821-2.572-48.575-10.288 1.245-7.716 13.7-48.225 13.7-48.225s-.622-81.018 11.833-96.449c0 0 4.982-8.359-1.869-19.29-6.85-10.931-6.227-28.292-6.227-28.292s4.982 0 13.078-11.574z" fill="#38495B"/><path d="M235.344 204.069l10.482 23.81 2.49-1.286-10.842-22.974-2.13.45zM269.723 213.226l7.865 17.869 1.887-.174-.641-3.041-5.898-13.709a35.03 35.03 0 01-3.213-.945z" fill="#FF6584"/><path d="M244.954 199.71a10.594 10.594 0 003.317 5.066 10.075 10.075 0 005.478 2.326 9.976 9.976 0 005.81-1.191 10.419 10.419 0 004.202-4.311c-7.878-10.635-1.121-17.316 11.677-22.37a10.875 10.875 0 001.177-6.037 10.755 10.755 0 00-2.28-5.691 23.15 23.15 0 00-10.489 1.036 23.737 23.737 0 00-9.034 5.6l-.006.006-9.093 17.413a10.8 10.8 0 00-1.179 3.997c-.13 1.4.012 2.813.42 4.156z" fill="#25323F"/><path d="M262.953 191.871c1.204 0 2.18-1.727 2.18-3.858 0-2.13-.976-3.858-2.18-3.858-1.204 0-2.18 1.728-2.18 3.858 0 2.131.976 3.858 2.18 3.858z" fill="#FFB8B8"/><path d="M269.445 181.719l18.72 8.757 3.432-7.819a18.78 18.78 0 00-3.612-7.799l-12.885-6.025-5.655 12.886z" fill="#25323F"/><path d="M314.444 354.252c4.594 0 8.319-3.845 8.319-8.589s-3.725-8.589-8.319-8.589c-4.594 0-8.319 3.845-8.319 8.589s3.725 8.589 8.319 8.589z" fill="#0E8AFD"/><path d="M47.382 405.31c3.002 0 5.436-2.513 5.436-5.613 0-3.1-2.434-5.613-5.436-5.613-3.003 0-5.437 2.513-5.437 5.613 0 3.1 2.434 5.613 5.437 5.613z" fill="#FF6584"/><path d="M74.847 428.953h-1.664v63.912h1.664v-63.912z" fill="#465C72"/><path d="M74.015 437.99c4.835 0 8.754-4.046 8.754-9.038 0-4.991-3.92-9.038-8.754-9.038s-8.753 4.047-8.753 9.038c0 4.992 3.919 9.038 8.753 9.038zM74.015 468.343s-1.25-27.77-26.886-24.542l26.886 24.542z" fill="#465C72"/><path d="M630 491.541H0v1.853h630v-1.853z" fill="#8597A8"/></svg>
