<svg width="56" height="56" viewBox="0 0 56 56" fill="none" xmlns="http://www.w3.org/2000/svg">
<circle cx="28" cy="28" r="28" fill="#EDFFE9"/>
<path d="M16 16H40V40H16V16Z" fill="#EDFFE9"/>
<path d="M32.3299 29.5C33.1627 28.8455 33.8358 28.0103 34.2983 27.0575C34.7609 26.1047 35.0008 25.0592 34.9999 24H36.9999C37.0009 25.4104 36.67 26.8013 36.0338 28.0601C35.3976 29.3189 34.4741 30.4103 33.3379 31.246L35.8659 35.624C36.1311 36.0834 36.203 36.6293 36.0657 37.1416C35.9284 37.6539 35.5933 38.0908 35.1339 38.356L31.6069 32.248C30.4696 32.7456 29.2413 33.0016 27.9999 33C26.7585 33.0016 25.5303 32.7456 24.3929 32.248L20.8659 38.356C20.4066 38.0908 20.0714 37.6539 19.9341 37.1416C19.7968 36.6293 19.8687 36.0834 20.1339 35.624L25.1969 26.854C24.6919 26.3574 24.3277 25.7357 24.1415 25.0524C23.9553 24.369 23.9538 23.6485 24.1371 22.9644C24.3204 22.2803 24.6821 21.6571 25.185 21.1584C25.688 20.6597 26.3142 20.3035 26.9999 20.126V18H28.9999V20.126C29.6856 20.3035 30.3119 20.6597 30.8148 21.1584C31.3178 21.6571 31.6794 22.2803 31.8627 22.9644C32.046 23.6485 32.0445 24.369 31.8583 25.0524C31.6722 25.7357 31.3079 26.3574 30.8029 26.854L32.3299 29.5ZM30.5999 30.502L29.0719 27.855C28.3712 28.0495 27.6307 28.0495 26.9299 27.855L25.4019 30.502C26.2059 30.823 27.0819 31 28.0009 31C28.9189 31 29.7959 30.823 30.5999 30.502ZM27.9999 25C28.2651 25 28.5195 24.8946 28.707 24.7071C28.8946 24.5196 28.9999 24.2652 28.9999 24C28.9999 23.7348 28.8946 23.4804 28.707 23.2929C28.5195 23.1054 28.2651 23 27.9999 23C27.7347 23 27.4803 23.1054 27.2928 23.2929C27.1053 23.4804 26.9999 23.7348 26.9999 24C26.9999 24.2652 27.1053 24.5196 27.2928 24.7071C27.4803 24.8946 27.7347 25 27.9999 25Z" fill="#8FD93A"/>
</svg>
