<svg width="56" height="56" viewBox="0 0 56 56" fill="none" xmlns="http://www.w3.org/2000/svg">
<circle cx="28" cy="28" r="28" fill="#EDFFE9"/>
<path d="M36.1699 27.5892H32.902V25.9461H34.5359C35.4371 25.9461 36.1699 25.2091 36.1699 24.303V21.8383C36.1699 20.9321 35.4371 20.1951 34.5359 20.1951H21.4641C20.5629 20.1951 19.8301 20.9321 19.8301 21.8383V24.303C19.8301 25.2091 20.5629 25.9461 21.4641 25.9461H23.098V27.5892H19.8301C18.9289 27.5892 18.1961 28.3262 18.1961 29.2323V30.8755C18.1961 31.7817 18.9289 32.5186 19.8301 32.5186H20.6471V34.9833C20.6471 35.4368 21.0131 35.8049 21.4641 35.8049C21.915 35.8049 22.281 35.4368 22.281 34.9833V32.5186H33.719V34.9833C33.719 35.4368 34.085 35.8049 34.5359 35.8049C34.9869 35.8049 35.3529 35.4368 35.3529 34.9833V32.5186H36.1699C37.0711 32.5186 37.8039 31.7817 37.8039 30.8755V29.2323C37.8039 28.3262 37.0711 27.5892 36.1699 27.5892ZM21.4632 21.8383H34.5359V24.303H21.4641L21.4632 21.8383ZM24.732 25.9461H31.268V27.5892H24.732V25.9461ZM36.1699 30.8755H19.8301L19.8292 29.2323H36.1699V30.8755Z" fill="#8FD93A"/>
<path fill-rule="evenodd" clip-rule="evenodd" d="M33.098 27.3941H36.1699C37.1813 27.3941 38 28.2203 38 29.2323V30.8755C38 31.8875 37.1813 32.7137 36.1699 32.7137H35.549V34.9833C35.549 35.5426 35.0971 36 34.5359 36C33.9747 36 33.5229 35.5426 33.5229 34.9833V32.7137H22.4771V34.9833C22.4771 35.5426 22.0253 36 21.4641 36C20.9028 36 20.451 35.5426 20.451 34.9833V32.7137H19.8301C18.8187 32.7137 18 31.8875 18 30.8755V29.2323C18 28.2203 18.8187 27.3941 19.8301 27.3941H22.902V26.1412H21.4641C20.4527 26.1412 19.634 25.315 19.634 24.303V21.8383C19.634 20.8262 20.4527 20 21.4641 20H34.5359C35.5473 20 36.366 20.8262 36.366 21.8383V24.303C36.366 25.315 35.5473 26.1412 34.5359 26.1412H33.098V27.3941ZM21.4632 21.8383H34.5359V24.303H21.4641L21.4632 21.8383ZM21.6594 22.0334L21.6601 24.1078H34.3399V22.0334H21.6594ZM31.0719 26.1412H24.9281V27.3941H31.0719V26.1412ZM20.026 30.6804H35.9739V29.4275H20.0254L20.026 30.6804ZM19.8301 30.8755L19.8292 29.2323H36.1699V30.8755H19.8301ZM36.1699 27.5892C37.0711 27.5892 37.8039 28.3262 37.8039 29.2323V30.8755C37.8039 31.7817 37.0711 32.5186 36.1699 32.5186H35.3529V34.9833C35.3529 35.4368 34.9869 35.8049 34.5359 35.8049C34.085 35.8049 33.719 35.4368 33.719 34.9833V32.5186H22.281V34.9833C22.281 35.4368 21.915 35.8049 21.4641 35.8049C21.0131 35.8049 20.6471 35.4368 20.6471 34.9833V32.5186H19.8301C18.9289 32.5186 18.1961 31.7817 18.1961 30.8755V29.2323C18.1961 28.3262 18.9289 27.5892 19.8301 27.5892H23.098V25.9461H21.4641C20.5629 25.9461 19.8301 25.2091 19.8301 24.303V21.8383C19.8301 20.9321 20.5629 20.1951 21.4641 20.1951H34.5359C35.4371 20.1951 36.1699 20.9321 36.1699 21.8383V24.303C36.1699 25.2091 35.4371 25.9461 34.5359 25.9461H32.902V27.5892H36.1699ZM24.732 25.9461V27.5892H31.268V25.9461H24.732Z" fill="#8FD93A"/>
</svg>
