<svg width="56" height="56" viewBox="0 0 56 56" fill="none" xmlns="http://www.w3.org/2000/svg">
<circle cx="28" cy="28" r="28" fill="#EDFFE9"/>
<path d="M29 17.8123C29 17.3641 28.5517 17 28 17C27.4483 17 27 17.3641 27 17.8123V19H29V17.8123Z" fill="#EDFFE9"/>
<path d="M20.656 22.3195L19.734 21H35.4963L36.8959 23L35.4963 25H19.7361L20.6554 23.6876L20.6554 23.6876L20.657 23.6852C20.9432 23.2741 20.9432 22.732 20.657 22.321L20.656 22.3195ZM37.082 23.2659C37.0812 23.2648 37.0805 23.2637 37.0797 23.2626L37.082 23.2659Z" stroke="#8FD93A" stroke-width="2"/>
<path d="M34.7644 32.7982L35.9116 34H28V30H35.9127L34.7665 31.1935L34.7665 31.1935L34.7631 31.197C34.5819 31.3876 34.4395 31.6643 34.4395 31.9969C34.4395 32.3295 34.5819 32.6062 34.7631 32.7968L34.7644 32.7982Z" stroke="#8FD93A" stroke-width="2"/>
<path d="M21.3297 30H28V34H21.3297C21.2522 34 21.1892 33.9868 21.1475 33.9717C21.1319 33.9661 21.1219 33.9612 21.1166 33.9583L19.2286 32L21.1166 30.0417C21.1219 30.0388 21.1319 30.0339 21.1475 30.0283C21.1892 30.0132 21.2522 30 21.3297 30ZM18.8561 32.3864L18.858 32.3844L18.8561 32.3864Z" stroke="#8FD93A" stroke-width="2"/>
<path d="M30.7969 37.1538H29V27H27V37.1538H25.2031C24.5374 37.1538 24 37.4782 24 37.8799V39H32V37.8799C32 37.4782 31.4626 37.1538 30.7969 37.1538Z" fill="#8FD93A"/>
</svg>
