<svg width="56" height="56" viewBox="0 0 56 56" fill="none" xmlns="http://www.w3.org/2000/svg">
<circle cx="28" cy="28" r="28" fill="#EDFFE9"/>
<path d="M19.0131 36.8043H21.4641C21.915 36.8043 22.281 36.4458 22.281 36.004C22.281 35.5621 21.915 35.2036 21.4641 35.2036H21.0556V21.5968C21.0556 21.1554 21.422 20.7964 21.8725 20.7964H23.915V29.4435C23.1887 29.8085 22.6895 30.5485 22.6895 31.4017C22.6895 32.2549 23.1887 32.9945 23.915 33.3598V33.6028C23.915 34.0446 24.281 34.4032 24.732 34.4032C25.183 34.4032 25.549 34.0446 25.549 33.6028H30.451C30.451 34.0446 30.817 34.4032 31.268 34.4032C31.719 34.4032 32.085 34.0446 32.085 33.6028V33.3598C32.8113 32.9949 33.3105 32.2549 33.3105 31.4017C33.3105 30.5485 32.8113 29.8089 32.085 29.4435V20.7964H34.1275C34.578 20.7964 34.9444 21.1554 34.9444 21.5968V35.2036H34.5359C34.085 35.2036 33.719 35.5621 33.719 36.004C33.719 36.4458 34.085 36.8043 34.5359 36.8043H36.9869C37.4379 36.8043 37.8039 36.4458 37.8039 36.004C37.8039 35.5621 37.4379 35.2036 36.9869 35.2036H36.5784V21.5968C36.5784 20.2726 35.4792 19.1957 34.1275 19.1957H21.8725C20.5208 19.1957 19.4216 20.2726 19.4216 21.5968V35.2036H19.0131C18.5621 35.2036 18.1961 35.5621 18.1961 36.004C18.1961 36.4458 18.5621 36.8043 19.0131 36.8043ZM24.9363 32.002C24.5984 32.002 24.3235 31.7326 24.3235 31.4017C24.3235 31.0707 24.5984 30.8014 24.9363 30.8014H31.0637C31.4016 30.8014 31.6765 31.0707 31.6765 31.4017C31.6765 31.7326 31.4016 32.002 31.0637 32.002H24.9363ZM30.451 29.2006H25.549V20.7964H30.451V29.2006Z" fill="#8FD93A"/>
<path fill-rule="evenodd" clip-rule="evenodd" d="M21.4641 37H19.0131C18.4572 37 18 36.5572 18 36.004C18 35.4507 18.4572 35.0079 19.0131 35.0079H19.2255V21.5968C19.2255 20.1612 20.4159 19 21.8725 19H34.1275C35.5841 19 36.7745 20.1612 36.7745 21.5968V35.0079H36.9869C37.5428 35.0079 38 35.4507 38 36.004C38 36.5572 37.5428 37 36.9869 37H34.5359C33.9801 37 33.5229 36.5572 33.5229 36.004C33.5229 35.4507 33.9801 35.0079 34.5359 35.0079H34.7484V21.5968C34.7484 21.2668 34.4731 20.9921 34.1275 20.9921H32.281V29.3264C33.0105 29.74 33.5065 30.5129 33.5065 31.4017C33.5065 32.2904 33.0106 33.0637 32.281 33.477V33.6028C32.281 34.156 31.8238 34.5988 31.268 34.5988C30.7795 34.5988 30.3671 34.2568 30.2744 33.7984H25.7256C25.6329 34.2568 25.2205 34.5988 24.732 34.5988C24.1762 34.5988 23.719 34.156 23.719 33.6028V33.4769C22.9895 33.0634 22.4935 32.2905 22.4935 31.4017C22.4935 30.513 22.9894 29.7396 23.719 29.3264V20.9921H21.8725C21.5269 20.9921 21.2516 21.2668 21.2516 21.5968V35.0079H21.4641C22.0199 35.0079 22.4771 35.4507 22.4771 36.004C22.4771 36.5572 22.0199 37 21.4641 37ZM23.915 29.4435C23.1887 29.8085 22.6895 30.5485 22.6895 31.4017C22.6895 32.2549 23.1887 32.9945 23.915 33.3598V33.6028C23.915 34.0446 24.281 34.4032 24.732 34.4032C25.183 34.4032 25.549 34.0446 25.549 33.6028H30.451C30.451 34.0446 30.817 34.4032 31.268 34.4032C31.719 34.4032 32.085 34.0446 32.085 33.6028V33.3598C32.8113 32.9949 33.3105 32.2549 33.3105 31.4017C33.3105 30.5485 32.8113 29.8089 32.085 29.4435V20.7964H34.1275C34.578 20.7964 34.9444 21.1554 34.9444 21.5968V35.2036H34.5359C34.085 35.2036 33.719 35.5621 33.719 36.004C33.719 36.4458 34.085 36.8043 34.5359 36.8043H36.9869C37.4379 36.8043 37.8039 36.4458 37.8039 36.004C37.8039 35.5621 37.4379 35.2036 36.9869 35.2036H36.5784V21.5968C36.5784 20.2726 35.4792 19.1957 34.1275 19.1957H21.8725C20.5208 19.1957 19.4216 20.2726 19.4216 21.5968V35.2036H19.0131C18.5621 35.2036 18.1961 35.5621 18.1961 36.004C18.1961 36.4458 18.5621 36.8043 19.0131 36.8043H21.4641C21.915 36.8043 22.281 36.4458 22.281 36.004C22.281 35.5621 21.915 35.2036 21.4641 35.2036H21.0556V21.5968C21.0556 21.1554 21.422 20.7964 21.8725 20.7964H23.915V29.4435ZM24.5196 31.4017C24.5196 31.6212 24.7033 31.8063 24.9363 31.8063H31.0637C31.2967 31.8063 31.4804 31.6212 31.4804 31.4017C31.4804 31.1821 31.2967 30.997 31.0637 30.997H24.9363C24.7033 30.997 24.5196 31.1821 24.5196 31.4017ZM25.7451 29.0049H30.2549V20.9921H25.7451V29.0049ZM24.3235 31.4017C24.3235 31.7326 24.5984 32.002 24.9363 32.002H31.0637C31.4016 32.002 31.6765 31.7326 31.6765 31.4017C31.6765 31.0707 31.4016 30.8014 31.0637 30.8014H24.9363C24.5984 30.8014 24.3235 31.0707 24.3235 31.4017ZM30.451 29.2006V20.7964H25.549V29.2006H30.451Z" fill="#8FD93A"/>
</svg>
