<svg width="56" height="56" viewBox="0 0 56 56" fill="none" xmlns="http://www.w3.org/2000/svg">
<circle cx="28" cy="28" r="28" fill="#EDFFE9"/>
<path d="M24 19V22C24 22.5304 23.7893 23.0391 23.4142 23.4142C23.0391 23.7893 22.5304 24 22 24H19M37 24H34C33.4696 24 32.9609 23.7893 32.5858 23.4142C32.2107 23.0391 32 22.5304 32 22V19M32 37V34C32 33.4696 32.2107 32.9609 32.5858 32.5858C32.9609 32.2107 33.4696 32 34 32H37M19 32H22C22.5304 32 23.0391 32.2107 23.4142 32.5858C23.7893 32.9609 24 33.4696 24 34V37" stroke="#8FD93A" stroke-width="2" stroke-linecap="round" stroke-linejoin="round"/>
</svg>
