<svg width="56" height="56" viewBox="0 0 56 56" fill="none" xmlns="http://www.w3.org/2000/svg">
<circle cx="28" cy="28" r="28" fill="#E8FBFF"/>
<path d="M28 38C22.477 38 18 33.523 18 28C18 24.0035 20.3441 20.555 23.7322 18.954C24.3427 18.6655 25 19.1449 25 19.8202V19.9088C25 20.3158 24.7505 20.6769 24.3876 20.8612C22.9434 21.5945 21.7505 22.7517 20.9741 24.1851C20.0903 25.8165 19.8009 27.7043 20.1553 29.5255C20.5096 31.3468 21.4858 32.9883 22.9168 34.1693C24.3477 35.3503 26.1446 35.9975 28 36C29.5938 36 31.1513 35.524 32.4728 34.6332C33.6076 33.8684 34.5241 32.8276 35.1391 31.6134C35.3232 31.25 35.6846 31 36.092 31H36.1798C36.855 31 37.3345 31.6573 37.046 32.2678C35.445 35.6559 31.9965 38 28 38ZM37.95 29H27V18.05C27.329 18.017 27.663 18 28 18C33.523 18 38 22.477 38 28C38 28.337 37.983 28.671 37.95 29ZM29 20.062V27H35.938C35.7154 25.2376 34.9129 23.5993 33.6568 22.3432C32.4007 21.0871 30.7624 20.2846 29 20.062Z" fill="#2AB6D4"/>
</svg>
