<svg width="24" height="24" viewBox="0 0 24 24" fill="none" xmlns="http://www.w3.org/2000/svg">
<path d="M2.25 21.5C2.11194 21.5 2 21.6119 2 21.75C2 21.8881 2.11194 22 2.25 22L21.75 22C21.8881 22 22 21.8881 22 21.75C22 21.6119 21.8881 21.5 21.75 21.5L12.2501 21.5L12.2501 16.5299C13.1986 16.4361 14.0071 15.8157 14.3428 14.9274C15.2833 15.3522 16.396 15.1597 17.1421 14.4138C17.8881 13.668 18.0806 12.5553 17.6556 11.6144C18.6213 11.2495 19.272 10.3267 19.272 9.27185C19.272 8.21692 18.6213 7.29407 17.6556 6.9292C18.0806 5.9884 17.8881 4.87573 17.1421 4.12988C16.3962 3.38403 15.2836 3.19153 14.3428 3.61633C13.9779 2.65076 13.0549 2 12.0001 2C10.9453 2 10.0223 2.65063 9.65747 3.61621C8.71667 3.19141 7.604 3.38379 6.85815 4.12988C6.11218 4.87573 5.91968 5.9884 6.3446 6.9292C5.37891 7.29407 4.72827 8.21692 4.72827 9.27185C4.72827 10.3267 5.37891 11.2495 6.3446 11.6144C5.91968 12.5553 6.11218 13.668 6.85815 14.4138C7.60413 15.1597 8.7168 15.3524 9.65747 14.9274C9.99315 15.8158 10.8015 16.4361 11.7501 16.5299L11.7501 21.5H2.25ZM10.0503 14.5073C10.0315 14.4296 9.97681 14.3656 9.90295 14.335C9.87219 14.3223 9.83972 14.3159 9.80725 14.3159C9.76184 14.3159 9.71667 14.3282 9.67688 14.3527C8.88281 14.8379 7.86938 14.7179 7.21167 14.0603C6.5542 13.4027 6.43396 12.389 6.91931 11.5951C6.96106 11.527 6.96765 11.4429 6.93701 11.369C6.90649 11.2952 6.84241 11.2405 6.76465 11.2217C5.86011 11.0034 5.22827 10.2017 5.22827 9.27185C5.22827 8.34192 5.86011 7.54016 6.76465 7.32202C6.84241 7.30322 6.90637 7.24854 6.93701 7.17468C6.96765 7.10083 6.96106 7.01672 6.91931 6.94861C6.43396 6.15466 6.5542 5.14099 7.21167 4.4834C7.86914 3.82581 8.88281 3.70544 9.67688 4.19104C9.74512 4.23291 9.82898 4.23914 9.90295 4.20874C9.97681 4.1781 10.0315 4.11414 10.0503 4.03638C10.2684 3.13184 11.0702 2.5 12.0001 2.5C12.9301 2.5 13.7318 3.13184 13.95 4.03638C13.9688 4.11414 14.0234 4.1781 14.0973 4.20874C14.1713 4.2395 14.2552 4.23315 14.3234 4.19104C15.1176 3.70581 16.131 3.82617 16.7886 4.4834C17.446 5.14099 17.5663 6.15466 17.0809 6.94861C17.0392 7.01672 17.0326 7.10083 17.0632 7.17468C17.0939 7.24854 17.1578 7.30322 17.2356 7.32202C18.1401 7.54016 18.772 8.34192 18.772 9.27185C18.772 10.2017 18.1401 11.0034 17.2356 11.2217C17.1578 11.2405 17.0938 11.2952 17.0632 11.369C17.0326 11.4429 17.0392 11.527 17.0809 11.5951C17.5663 12.389 17.446 13.4027 16.7886 14.0603C16.131 14.7177 15.1172 14.838 14.3234 14.3527C14.2551 14.3105 14.171 14.3042 14.0973 14.335C14.0234 14.3656 13.9687 14.4296 13.95 14.5073C13.7318 15.4119 12.9301 16.0437 12.0001 16.0437C11.0702 16.0437 10.2684 15.4119 10.0503 14.5073Z" fill="#666666" stroke="#666666" stroke-width="1.4"/>
</svg>
