<svg width="24" height="24" viewBox="0 0 24 24" fill="none" xmlns="http://www.w3.org/2000/svg">
<path fill-rule="evenodd" clip-rule="evenodd" d="M6.93702 5.84538C7.00787 5.74688 7.08656 5.62631 7.18689 5.46372C7.24312 5.37261 7.44827 5.03326 7.4818 4.97841C8.31079 3.62239 8.91339 3 10 3L14 3C15.0866 3 15.6892 3.62239 16.5182 4.97841C16.5517 5.03326 16.7569 5.37261 16.8131 5.46372C16.9134 5.62631 16.9921 5.74688 17.063 5.84538C17.1097 5.91033 17.1505 5.96194 17.1838 6L20 6C21.6569 6 23 7.34315 23 9L23 18C23 19.6569 21.6569 21 20 21L4 21C2.34315 21 1 19.6569 1 18L1 9C1 7.34315 2.34315 6 4 6L6.8162 6C6.84949 5.96194 6.8903 5.91033 6.93702 5.84538ZM4 8C3.44772 8 3 8.44772 3 9L3 18C3 18.5523 3.44772 19 4 19L20 19C20.5523 19 21 18.5523 21 18L21 9C21 8.44772 20.5523 8 20 8H17C16.3357 8 15.8876 7.63641 15.4394 7.01326C15.3363 6.86988 15.2341 6.71332 15.1111 6.51409C15.049 6.41348 14.8408 6.06908 14.8118 6.02159C14.3595 5.28172 14.0867 5 14 5H10C9.91327 5 9.6405 5.28172 9.1882 6.02159C9.15916 6.06908 8.95096 6.41348 8.88887 6.51409C8.76592 6.71332 8.66375 6.86988 8.56061 7.01326C8.11237 7.63641 7.66434 8 7 8H4ZM19 11C19.5523 11 20 10.5523 20 10C20 9.44772 19.5523 9 19 9C18.4477 9 18 9.44772 18 10C18 10.5523 18.4477 11 19 11ZM12 18C9.23858 18 7 15.7614 7 13C7 10.2386 9.23858 8 12 8C14.7614 8 17 10.2386 17 13C17 15.7614 14.7614 18 12 18ZM12 16C13.6569 16 15 14.6569 15 13C15 11.3431 13.6569 10 12 10C10.3431 10 9 11.3431 9 13C9 14.6569 10.3431 16 12 16Z" fill="#666666"/>
</svg>
